<svg width="22" height="20" viewBox="0 0 22 20" fill="none" xmlns="http://www.w3.org/2000/svg">
<path d="M21.8051 3.98182C21.631 3.76364 21.3652 3.63636 21.0811 3.63636H6.21433L5.47191 0.690909C5.37109 0.281818 5.00446 0 4.58284 0H0.916568C0.412455 0 0 0.409091 0 0.909091C0 1.40909 0.412455 1.81818 0.916568 1.81818H3.86792L4.61034 4.76364L6.55346 12.4818C6.85593 13.6909 7.95581 14.5455 9.22067 14.5455H17.3598C18.6247 14.5455 19.7245 13.6909 20.027 12.4818L21.9701 4.76364C22.0435 4.49091 21.9793 4.20909 21.8051 3.98182ZM10.0822 18.1818C10.0822 19.1818 9.25733 20 8.24911 20C7.24088 20 6.41597 19.1818 6.41597 18.1818C6.41597 17.1818 7.24088 16.3636 8.24911 16.3636C9.25733 16.3636 10.0822 17.1818 10.0822 18.1818ZM20.1645 18.1818C20.1645 19.1818 19.3396 20 18.3314 20C17.3231 20 16.4982 19.1818 16.4982 18.1818C16.4982 17.1818 17.3231 16.3636 18.3314 16.3636C19.3396 16.3636 20.1645 17.1818 20.1645 18.1818Z" fill="black"/>
</svg>
