<svg width="210" height="60" viewBox="0 0 210 60" fill="none" xmlns="http://www.w3.org/2000/svg">
<path d="M91.682 50.233C91.292 50.233 90.953 50.158 90.665 50.008C90.383 49.858 90.158 49.657 89.99 49.405C89.828 49.153 89.726 48.877 89.684 48.577H90.386C90.452 48.895 90.599 49.141 90.827 49.315C91.055 49.489 91.343 49.576 91.691 49.576C92.009 49.576 92.288 49.483 92.528 49.297C92.768 49.105 92.96 48.82 93.104 48.442C93.254 48.058 93.341 47.575 93.365 46.993C93.371 46.957 93.374 46.924 93.374 46.894C93.374 46.858 93.374 46.822 93.374 46.786C93.29 46.978 93.164 47.155 92.996 47.317C92.828 47.479 92.624 47.611 92.384 47.713C92.15 47.809 91.886 47.857 91.592 47.857C91.244 47.857 90.917 47.773 90.611 47.605C90.305 47.437 90.059 47.203 89.873 46.903C89.687 46.597 89.594 46.24 89.594 45.832C89.594 45.478 89.678 45.139 89.846 44.815C90.02 44.491 90.263 44.227 90.575 44.023C90.893 43.819 91.265 43.717 91.691 43.717C92.141 43.717 92.519 43.801 92.825 43.969C93.137 44.137 93.383 44.365 93.563 44.653C93.749 44.935 93.884 45.256 93.968 45.616C94.052 45.976 94.094 46.345 94.094 46.723C94.094 47.413 93.998 48.022 93.806 48.55C93.62 49.078 93.347 49.492 92.987 49.792C92.633 50.086 92.198 50.233 91.682 50.233ZM91.745 47.2C92.015 47.2 92.258 47.14 92.474 47.02C92.696 46.894 92.87 46.726 92.996 46.516C93.122 46.3 93.185 46.057 93.185 45.787C93.185 45.505 93.122 45.259 92.996 45.049C92.87 44.839 92.696 44.677 92.474 44.563C92.258 44.443 92.015 44.383 91.745 44.383C91.487 44.383 91.253 44.443 91.043 44.563C90.833 44.683 90.665 44.848 90.539 45.058C90.419 45.268 90.359 45.514 90.359 45.796C90.359 46.078 90.419 46.324 90.539 46.534C90.665 46.744 90.833 46.909 91.043 47.029C91.253 47.143 91.487 47.2 91.745 47.2ZM97.7262 50.125V43.825H101.623V44.446H98.4822V46.642H101.353V47.254H98.4822V49.504H101.623V50.125H97.7262ZM102.796 50.125V45.391H103.48L103.516 46.039C103.66 45.805 103.855 45.622 104.101 45.49C104.347 45.352 104.605 45.283 104.875 45.283C105.103 45.283 105.307 45.316 105.487 45.382C105.673 45.442 105.835 45.538 105.973 45.67C106.111 45.796 106.222 45.955 106.306 46.147C106.462 45.865 106.672 45.652 106.936 45.508C107.206 45.358 107.488 45.283 107.782 45.283C108.13 45.283 108.427 45.352 108.673 45.49C108.925 45.622 109.117 45.826 109.249 46.102C109.387 46.372 109.456 46.711 109.456 47.119V50.125H108.709V47.2C108.709 46.774 108.616 46.456 108.43 46.246C108.244 46.036 107.992 45.931 107.674 45.931C107.458 45.931 107.26 45.988 107.08 46.102C106.906 46.216 106.765 46.384 106.657 46.606C106.555 46.828 106.504 47.098 106.504 47.416V50.125H105.748V47.2C105.748 46.774 105.655 46.456 105.469 46.246C105.283 46.036 105.034 45.931 104.722 45.931C104.512 45.931 104.317 45.988 104.137 46.102C103.963 46.216 103.822 46.384 103.714 46.606C103.606 46.828 103.552 47.098 103.552 47.416V50.125H102.796ZM112.74 50.233C112.302 50.233 111.915 50.131 111.579 49.927C111.243 49.723 110.982 49.435 110.796 49.063C110.61 48.691 110.517 48.256 110.517 47.758C110.517 47.254 110.61 46.819 110.796 46.453C110.988 46.081 111.252 45.793 111.588 45.589C111.93 45.385 112.32 45.283 112.758 45.283C113.202 45.283 113.589 45.385 113.919 45.589C114.255 45.793 114.516 46.081 114.702 46.453C114.888 46.819 114.981 47.254 114.981 47.758C114.981 48.256 114.885 48.691 114.693 49.063C114.507 49.435 114.246 49.723 113.91 49.927C113.574 50.131 113.184 50.233 112.74 50.233ZM112.74 49.585C113.016 49.585 113.265 49.519 113.487 49.387C113.709 49.249 113.883 49.045 114.009 48.775C114.141 48.499 114.207 48.16 114.207 47.758C114.207 47.35 114.144 47.011 114.018 46.741C113.892 46.471 113.718 46.27 113.496 46.138C113.28 46 113.034 45.931 112.758 45.931C112.488 45.931 112.242 46 112.02 46.138C111.798 46.27 111.621 46.471 111.489 46.741C111.357 47.011 111.291 47.35 111.291 47.758C111.291 48.16 111.354 48.499 111.48 48.775C111.612 49.045 111.786 49.249 112.002 49.387C112.224 49.519 112.47 49.585 112.74 49.585ZM117.737 50.125C117.467 50.125 117.233 50.083 117.035 49.999C116.837 49.915 116.684 49.774 116.576 49.576C116.474 49.372 116.423 49.099 116.423 48.757V46.03H115.595V45.391H116.423L116.522 44.212H117.179V45.391H118.52V46.03H117.179V48.757C117.179 49.039 117.236 49.231 117.35 49.333C117.464 49.429 117.665 49.477 117.953 49.477H118.502V50.125H117.737ZM119.629 50.125V45.391H120.385V50.125H119.629ZM120.007 44.491C119.857 44.491 119.731 44.443 119.629 44.347C119.533 44.245 119.485 44.119 119.485 43.969C119.485 43.819 119.533 43.699 119.629 43.609C119.731 43.513 119.857 43.465 120.007 43.465C120.151 43.465 120.274 43.513 120.376 43.609C120.478 43.699 120.529 43.819 120.529 43.969C120.529 44.119 120.478 44.245 120.376 44.347C120.274 44.443 120.151 44.491 120.007 44.491ZM123.762 50.233C123.324 50.233 122.937 50.131 122.601 49.927C122.265 49.723 122.004 49.435 121.818 49.063C121.632 48.691 121.539 48.256 121.539 47.758C121.539 47.254 121.632 46.819 121.818 46.453C122.01 46.081 122.274 45.793 122.61 45.589C122.952 45.385 123.342 45.283 123.78 45.283C124.224 45.283 124.611 45.385 124.941 45.589C125.277 45.793 125.538 46.081 125.724 46.453C125.91 46.819 126.003 47.254 126.003 47.758C126.003 48.256 125.907 48.691 125.715 49.063C125.529 49.435 125.268 49.723 124.932 49.927C124.596 50.131 124.206 50.233 123.762 50.233ZM123.762 49.585C124.038 49.585 124.287 49.519 124.509 49.387C124.731 49.249 124.905 49.045 125.031 48.775C125.163 48.499 125.229 48.16 125.229 47.758C125.229 47.35 125.166 47.011 125.04 46.741C124.914 46.471 124.74 46.27 124.518 46.138C124.302 46 124.056 45.931 123.78 45.931C123.51 45.931 123.264 46 123.042 46.138C122.82 46.27 122.643 46.471 122.511 46.741C122.379 47.011 122.313 47.35 122.313 47.758C122.313 48.16 122.376 48.499 122.502 48.775C122.634 49.045 122.808 49.249 123.024 49.387C123.246 49.519 123.492 49.585 123.762 49.585ZM127.098 50.125V45.391H127.782L127.818 46.138C127.956 45.868 128.154 45.658 128.412 45.508C128.676 45.358 128.979 45.283 129.321 45.283C129.669 45.283 129.972 45.349 130.23 45.481C130.488 45.613 130.689 45.814 130.833 46.084C130.977 46.354 131.049 46.696 131.049 47.11V50.125H130.293V47.191C130.293 46.771 130.188 46.456 129.978 46.246C129.774 46.036 129.498 45.931 129.15 45.931C128.916 45.931 128.7 45.988 128.502 46.102C128.304 46.21 128.145 46.372 128.025 46.588C127.911 46.804 127.854 47.068 127.854 47.38V50.125H127.098ZM134.011 50.233C133.585 50.233 133.231 50.17 132.949 50.044C132.673 49.912 132.463 49.732 132.319 49.504C132.175 49.27 132.088 49 132.058 48.694H132.832C132.856 48.856 132.91 49.006 132.994 49.144C133.084 49.276 133.213 49.384 133.381 49.468C133.549 49.552 133.762 49.594 134.02 49.594C134.224 49.594 134.398 49.564 134.542 49.504C134.686 49.438 134.794 49.348 134.866 49.234C134.944 49.12 134.983 48.988 134.983 48.838C134.983 48.64 134.938 48.487 134.848 48.379C134.764 48.265 134.638 48.181 134.47 48.127C134.308 48.067 134.104 48.022 133.858 47.992C133.594 47.956 133.36 47.905 133.156 47.839C132.952 47.773 132.778 47.686 132.634 47.578C132.496 47.47 132.391 47.335 132.319 47.173C132.247 47.011 132.211 46.819 132.211 46.597C132.211 46.339 132.28 46.111 132.418 45.913C132.556 45.715 132.751 45.562 133.003 45.454C133.261 45.34 133.564 45.283 133.912 45.283C134.422 45.283 134.824 45.4 135.118 45.634C135.418 45.868 135.595 46.201 135.649 46.633H134.902C134.872 46.411 134.77 46.237 134.596 46.111C134.422 45.985 134.191 45.922 133.903 45.922C133.597 45.922 133.366 45.979 133.21 46.093C133.054 46.207 132.976 46.357 132.976 46.543C132.976 46.681 133.009 46.807 133.075 46.921C133.147 47.029 133.267 47.122 133.435 47.2C133.603 47.272 133.828 47.326 134.11 47.362C134.464 47.404 134.764 47.473 135.01 47.569C135.256 47.659 135.442 47.8 135.568 47.992C135.7 48.184 135.763 48.445 135.757 48.775C135.757 49.087 135.682 49.351 135.532 49.567C135.388 49.783 135.184 49.948 134.92 50.062C134.662 50.176 134.359 50.233 134.011 50.233ZM137.177 50.17C137.033 50.17 136.91 50.122 136.808 50.026C136.712 49.924 136.664 49.801 136.664 49.657C136.664 49.513 136.712 49.393 136.808 49.297C136.91 49.195 137.033 49.144 137.177 49.144C137.333 49.144 137.456 49.195 137.546 49.297C137.642 49.393 137.69 49.513 137.69 49.657C137.69 49.801 137.642 49.924 137.546 50.026C137.456 50.122 137.333 50.17 137.177 50.17ZM143.887 50.233C143.311 50.233 142.804 50.098 142.366 49.828C141.928 49.552 141.586 49.171 141.34 48.685C141.094 48.193 140.971 47.623 140.971 46.975C140.971 46.333 141.094 45.769 141.34 45.283C141.586 44.791 141.928 44.407 142.366 44.131C142.804 43.855 143.311 43.717 143.887 43.717C144.475 43.717 144.988 43.855 145.426 44.131C145.864 44.407 146.203 44.791 146.443 45.283C146.683 45.769 146.803 46.333 146.803 46.975C146.803 47.623 146.683 48.193 146.443 48.685C146.203 49.171 145.864 49.552 145.426 49.828C144.988 50.098 144.475 50.233 143.887 50.233ZM143.887 49.567C144.319 49.567 144.694 49.465 145.012 49.261C145.336 49.051 145.585 48.754 145.759 48.37C145.939 47.98 146.029 47.515 146.029 46.975C146.029 46.435 145.939 45.973 145.759 45.589C145.585 45.199 145.336 44.902 145.012 44.698C144.694 44.494 144.319 44.392 143.887 44.392C143.461 44.392 143.086 44.494 142.762 44.698C142.444 44.902 142.195 45.199 142.015 45.589C141.835 45.973 141.745 46.435 141.745 46.975C141.745 47.515 141.835 47.98 142.015 48.37C142.195 48.754 142.444 49.051 142.762 49.261C143.086 49.465 143.461 49.567 143.887 49.567ZM147.884 50.125V45.391H148.568L148.604 46.138C148.742 45.868 148.94 45.658 149.198 45.508C149.462 45.358 149.765 45.283 150.107 45.283C150.455 45.283 150.758 45.349 151.016 45.481C151.274 45.613 151.475 45.814 151.619 46.084C151.763 46.354 151.835 46.696 151.835 47.11V50.125H151.079V47.191C151.079 46.771 150.974 46.456 150.764 46.246C150.56 46.036 150.284 45.931 149.936 45.931C149.702 45.931 149.486 45.988 149.288 46.102C149.09 46.21 148.931 46.372 148.811 46.588C148.697 46.804 148.64 47.068 148.64 47.38V50.125H147.884ZM155.049 50.233C154.629 50.233 154.257 50.131 153.933 49.927C153.609 49.723 153.354 49.435 153.168 49.063C152.988 48.691 152.898 48.256 152.898 47.758C152.898 47.26 152.988 46.825 153.168 46.453C153.354 46.081 153.609 45.793 153.933 45.589C154.263 45.385 154.641 45.283 155.067 45.283C155.523 45.283 155.904 45.385 156.21 45.589C156.516 45.793 156.747 46.066 156.903 46.408C157.059 46.75 157.137 47.125 157.137 47.533C157.137 47.593 157.137 47.653 157.137 47.713C157.137 47.773 157.134 47.845 157.128 47.929H153.465V47.344H156.399C156.387 46.882 156.252 46.531 155.994 46.291C155.742 46.045 155.427 45.922 155.049 45.922C154.797 45.922 154.563 45.985 154.347 46.111C154.137 46.231 153.966 46.411 153.834 46.651C153.702 46.891 153.636 47.191 153.636 47.551V47.803C153.636 48.199 153.702 48.532 153.834 48.802C153.966 49.066 154.137 49.264 154.347 49.396C154.563 49.528 154.797 49.594 155.049 49.594C155.385 49.594 155.649 49.531 155.841 49.405C156.033 49.273 156.174 49.087 156.264 48.847H157.011C156.939 49.111 156.813 49.348 156.633 49.558C156.459 49.768 156.237 49.933 155.967 50.053C155.703 50.173 155.397 50.233 155.049 50.233ZM162.672 50.233C162.21 50.233 161.808 50.149 161.466 49.981C161.124 49.813 160.86 49.579 160.674 49.279C160.488 48.979 160.395 48.631 160.395 48.235H161.187C161.187 48.481 161.244 48.709 161.358 48.919C161.472 49.123 161.637 49.288 161.853 49.414C162.075 49.534 162.348 49.594 162.672 49.594C162.954 49.594 163.194 49.549 163.392 49.459C163.596 49.363 163.749 49.234 163.851 49.072C163.959 48.91 164.013 48.727 164.013 48.523C164.013 48.295 163.962 48.106 163.86 47.956C163.764 47.8 163.629 47.674 163.455 47.578C163.281 47.476 163.08 47.386 162.852 47.308C162.624 47.23 162.378 47.149 162.114 47.065C161.586 46.897 161.202 46.687 160.962 46.435C160.728 46.177 160.611 45.847 160.611 45.445C160.611 45.103 160.689 44.803 160.845 44.545C161.007 44.287 161.235 44.086 161.529 43.942C161.829 43.792 162.183 43.717 162.591 43.717C162.993 43.717 163.341 43.792 163.635 43.942C163.935 44.092 164.169 44.299 164.337 44.563C164.505 44.821 164.589 45.121 164.589 45.463H163.797C163.797 45.289 163.752 45.118 163.662 44.95C163.572 44.782 163.434 44.644 163.248 44.536C163.068 44.422 162.84 44.365 162.564 44.365C162.336 44.359 162.132 44.398 161.952 44.482C161.778 44.56 161.64 44.674 161.538 44.824C161.442 44.974 161.394 45.157 161.394 45.373C161.394 45.577 161.436 45.742 161.52 45.868C161.61 45.994 161.736 46.102 161.898 46.192C162.066 46.276 162.261 46.354 162.483 46.426C162.705 46.498 162.951 46.579 163.221 46.669C163.527 46.771 163.797 46.897 164.031 47.047C164.271 47.191 164.457 47.377 164.589 47.605C164.727 47.833 164.796 48.124 164.796 48.478C164.796 48.778 164.715 49.063 164.553 49.333C164.397 49.597 164.163 49.813 163.851 49.981C163.539 50.149 163.146 50.233 162.672 50.233ZM165.875 52.105V45.391H166.559L166.622 46.129C166.718 45.973 166.838 45.832 166.982 45.706C167.132 45.58 167.309 45.478 167.513 45.4C167.723 45.322 167.963 45.283 168.233 45.283C168.659 45.283 169.031 45.391 169.349 45.607C169.673 45.823 169.925 46.117 170.105 46.489C170.285 46.861 170.375 47.287 170.375 47.767C170.375 48.241 170.285 48.664 170.105 49.036C169.925 49.408 169.673 49.702 169.349 49.918C169.025 50.128 168.65 50.233 168.224 50.233C167.858 50.233 167.537 50.158 167.261 50.008C166.985 49.858 166.775 49.648 166.631 49.378V52.105H165.875ZM168.134 49.576C168.416 49.576 168.665 49.504 168.881 49.36C169.103 49.21 169.277 49 169.403 48.73C169.535 48.454 169.601 48.13 169.601 47.758C169.601 47.386 169.535 47.065 169.403 46.795C169.277 46.519 169.103 46.309 168.881 46.165C168.665 46.015 168.416 45.94 168.134 45.94C167.834 45.94 167.573 46.015 167.351 46.165C167.129 46.309 166.958 46.519 166.838 46.795C166.718 47.065 166.658 47.386 166.658 47.758C166.658 48.13 166.718 48.454 166.838 48.73C166.958 49 167.129 49.21 167.351 49.36C167.573 49.504 167.834 49.576 168.134 49.576ZM172.95 50.233C172.59 50.233 172.29 50.167 172.05 50.035C171.81 49.897 171.63 49.717 171.51 49.495C171.39 49.267 171.33 49.024 171.33 48.766C171.33 48.454 171.408 48.19 171.564 47.974C171.726 47.752 171.951 47.584 172.239 47.47C172.527 47.356 172.863 47.299 173.247 47.299H174.426C174.426 46.993 174.39 46.738 174.318 46.534C174.246 46.33 174.129 46.177 173.967 46.075C173.805 45.973 173.589 45.922 173.319 45.922C173.049 45.922 172.818 45.991 172.626 46.129C172.434 46.261 172.314 46.459 172.266 46.723H171.492C171.528 46.411 171.633 46.15 171.807 45.94C171.981 45.724 172.2 45.562 172.464 45.454C172.734 45.34 173.019 45.283 173.319 45.283C173.745 45.283 174.096 45.361 174.372 45.517C174.648 45.667 174.852 45.88 174.984 46.156C175.116 46.426 175.182 46.747 175.182 47.119V50.125H174.507L174.462 49.315C174.402 49.441 174.324 49.561 174.228 49.675C174.138 49.783 174.03 49.879 173.904 49.963C173.778 50.047 173.634 50.113 173.472 50.161C173.316 50.209 173.142 50.233 172.95 50.233ZM173.058 49.594C173.256 49.594 173.439 49.549 173.607 49.459C173.775 49.369 173.919 49.249 174.039 49.099C174.165 48.943 174.261 48.769 174.327 48.577C174.393 48.385 174.426 48.184 174.426 47.974V47.884H173.31C173.028 47.884 172.797 47.92 172.617 47.992C172.443 48.064 172.317 48.166 172.239 48.298C172.161 48.424 172.122 48.568 172.122 48.73C172.122 48.904 172.158 49.057 172.23 49.189C172.302 49.315 172.407 49.414 172.545 49.486C172.689 49.558 172.86 49.594 173.058 49.594ZM176.431 50.125V45.391H177.115L177.169 46.255C177.277 46.039 177.418 45.859 177.592 45.715C177.766 45.571 177.976 45.463 178.222 45.391C178.474 45.319 178.756 45.283 179.068 45.283V46.075H178.6C178.42 46.075 178.246 46.099 178.078 46.147C177.91 46.195 177.757 46.273 177.619 46.381C177.487 46.489 177.382 46.636 177.304 46.822C177.226 47.008 177.187 47.242 177.187 47.524V50.125H176.431ZM182.719 50.125L180.568 47.569L182.593 45.391H183.52L181.207 47.839L181.216 47.299L183.682 50.125H182.719ZM179.938 50.125V43.645H180.694V50.125H179.938ZM184.482 50.125V43.645H185.238V50.125H184.482ZM188.474 50.233C188.054 50.233 187.682 50.131 187.358 49.927C187.034 49.723 186.779 49.435 186.593 49.063C186.413 48.691 186.323 48.256 186.323 47.758C186.323 47.26 186.413 46.825 186.593 46.453C186.779 46.081 187.034 45.793 187.358 45.589C187.688 45.385 188.066 45.283 188.492 45.283C188.948 45.283 189.329 45.385 189.635 45.589C189.941 45.793 190.172 46.066 190.328 46.408C190.484 46.75 190.562 47.125 190.562 47.533C190.562 47.593 190.562 47.653 190.562 47.713C190.562 47.773 190.559 47.845 190.553 47.929H186.89V47.344H189.824C189.812 46.882 189.677 46.531 189.419 46.291C189.167 46.045 188.852 45.922 188.474 45.922C188.222 45.922 187.988 45.985 187.772 46.111C187.562 46.231 187.391 46.411 187.259 46.651C187.127 46.891 187.061 47.191 187.061 47.551V47.803C187.061 48.199 187.127 48.532 187.259 48.802C187.391 49.066 187.562 49.264 187.772 49.396C187.988 49.528 188.222 49.594 188.474 49.594C188.81 49.594 189.074 49.531 189.266 49.405C189.458 49.273 189.599 49.087 189.689 48.847H190.436C190.364 49.111 190.238 49.348 190.058 49.558C189.884 49.768 189.662 49.933 189.392 50.053C189.128 50.173 188.822 50.233 188.474 50.233Z" fill="#FCD6AB"/>
<path fill-rule="evenodd" clip-rule="evenodd" d="M71.3167 37.2914C72.1284 37.7579 73.1281 38.016 74.3358 38.0755C74.4744 38.0755 74.6327 38.0755 74.7713 38.0755C75.9889 38.0755 77.0282 37.8572 77.8894 37.4403C78.7506 37.0135 79.1762 36.4974 79.1762 35.9119V30.1057H75.0584C76.0285 30.1851 76.6026 30.5027 76.7412 31.0386V36.5768C76.7412 36.9242 76.5036 37.1922 76.1076 37.4106C75.7216 37.6388 75.2366 37.7579 74.6921 37.7778C74.514 37.7778 74.3259 37.7778 74.1675 37.7579C73.7419 37.6984 73.3657 37.5892 73.0687 37.4106C72.6629 37.1823 72.4352 36.9143 72.4352 36.5669V20.8753C72.4451 20.5279 72.653 20.2302 73.0786 19.992C73.4746 19.7835 73.8408 19.6644 74.1675 19.6446C74.5041 19.6247 74.7218 19.6247 74.8208 19.6247C75.2465 19.6247 75.682 19.6644 76.1076 19.7538C76.6521 19.853 77.1074 20.0019 77.4836 20.1805C78.2359 20.5478 78.6021 20.9845 78.6021 21.5006V22.2747C78.4437 22.8206 77.8795 23.1283 76.9094 23.2176H78.325H79.1663V21.5006C79.1663 20.915 78.7506 20.3989 77.8894 19.982C76.9589 19.5553 75.9097 19.327 74.7317 19.327H74.5634C73.3261 19.3468 72.2571 19.6148 71.3365 20.1111C70.4951 20.5875 70.0001 21.2624 70.0001 21.9968V35.3958C69.9902 36.1401 70.4852 36.7952 71.3266 37.2914H71.3167ZM88.9166 20.1408C88.0851 19.6446 86.9467 19.3568 85.6698 19.3568C84.3929 19.3568 83.2545 19.6446 82.4329 20.1408C81.5915 20.6172 81.0768 21.2922 81.0768 22.0266V28.8452C81.0768 29.5896 81.5915 30.2446 82.4329 30.7309C83.2545 31.2073 84.4127 31.5051 85.6698 31.5051C86.4419 31.5051 87.1645 31.3959 87.8277 31.1974V35.7134C87.8277 36.0012 87.8079 36.3089 87.7485 36.6165C87.6792 36.9738 87.4912 37.2319 87.1942 37.4205C86.5211 37.7877 85.9272 37.7877 85.65 37.7877C85.3728 37.7877 85.1254 37.7579 84.8581 37.6984C84.086 37.5396 83.502 37.1525 83.502 36.5967V35.0484C83.6604 34.4826 84.2147 34.1551 85.1848 34.0658H81.0867V35.9218C81.1164 36.5371 81.5321 37.0433 82.3735 37.4503C83.007 37.7579 83.6109 37.9366 84.1751 37.9862C84.7393 38.0458 85.1848 38.0755 85.5015 38.0755C85.9767 38.0755 86.4419 38.0358 86.917 37.9664C87.8871 37.8076 88.6691 37.4999 89.2927 37.0334C89.9262 36.5669 90.243 36.031 90.2628 35.4156V22.0167C90.2529 21.2822 89.7481 20.6073 88.9067 20.1309L88.9166 20.1408ZM87.8178 30.0858C87.7584 30.3836 87.5406 30.6317 87.1843 30.8401C86.7586 31.0882 86.2538 31.2074 85.6599 31.2074C85.066 31.2074 84.5611 31.0783 84.1355 30.8401C83.7098 30.6019 83.502 30.3042 83.502 29.9568V20.8455C83.502 20.4981 83.7296 20.2401 84.1355 20.0118C84.5611 19.7637 85.066 19.6446 85.6599 19.6446C86.2538 19.6446 86.7586 19.7736 87.1843 20.0118C87.5802 20.2302 87.8277 20.4981 87.8277 20.8455V30.0858H87.8178ZM98.647 37.4999C99.5577 37.9167 100.587 38.1252 101.735 38.1252H101.973C103.23 38.1053 104.309 37.8373 105.21 37.3411C106.051 36.8448 106.566 36.1798 106.566 35.4454V20.1805C106.724 19.6545 107.259 19.4262 108.239 19.3667C107.17 19.3667 106.091 19.3667 105.022 19.3667H102.438C103.408 19.4362 103.953 19.6545 104.111 20.1905V36.6265C104.111 36.9738 103.874 37.2418 103.478 37.4701C103.042 37.7083 102.537 37.8274 101.963 37.8274C101.389 37.8274 100.894 37.7083 100.439 37.4701C100.033 37.2418 99.8051 36.9738 99.8051 36.6265V31.1379C99.8051 30.592 100.389 30.2645 101.537 30.1553H97.3305L97.3206 35.9516C97.3602 36.557 97.7957 37.0632 98.6569 37.4999H98.647ZM113.634 30.3042C114.604 30.3339 115.257 30.4828 115.594 30.7409C115.93 30.9989 116.098 31.4456 116.098 32.0907V32.1403C116.108 31.4753 116.118 30.8004 116.118 30.1354C116.118 29.4705 116.118 28.7955 116.098 28.1306V28.1802C116.098 28.8352 115.93 29.2819 115.613 29.5598C115.267 29.8377 114.604 29.9866 113.634 30.0263L112.495 30.0461L112.525 19.6148H114.99C116.009 19.6446 116.851 19.8232 117.534 20.1607C118.237 20.518 118.613 20.9646 118.652 21.4807V19.3171H108.377C109.328 19.3965 109.882 19.6942 110.05 20.2202V37.3609C109.892 37.887 109.357 38.016 108.387 38.0755H118.652V35.9119C118.613 36.4379 118.237 36.8845 117.524 37.2319C116.851 37.5694 116.009 37.7579 114.99 37.7877H112.485V30.3042H113.653H113.634ZM126.175 38.0855H126.71C127.591 35.366 128.492 32.5373 129.432 29.5995L129.541 29.2521L132.085 38.0855H132.629C133.49 35.3958 134.401 32.5969 135.312 29.6888C136.391 26.3242 137.42 23.1085 138.42 20.0416C138.608 19.5751 139.103 19.3965 139.994 19.3369H136.48C137.242 19.3965 137.915 19.595 137.915 19.9523C137.915 19.982 137.915 20.0118 137.905 20.0416C136.331 24.7858 134.807 29.5499 133.342 34.3139C132.52 31.2768 131.679 28.2497 130.838 25.2225C131.402 23.436 131.966 21.709 132.501 20.0416C132.699 19.5751 133.193 19.3965 134.084 19.3369H125.304C126.146 19.4064 126.68 19.6446 126.908 20.0614L129.283 28.3588C128.67 30.3339 128.046 32.319 127.432 34.3139C126.126 29.5499 124.809 24.7957 123.453 20.0416C123.443 20.0217 123.443 20.0019 123.443 19.992C123.443 19.853 123.582 19.7141 123.859 19.595C124.166 19.4659 124.512 19.3766 124.908 19.3369H119.405C120.246 19.4064 120.78 19.6446 120.988 20.0614L126.185 38.0954L126.175 38.0855ZM129.373 20.0317C129.373 20.0317 129.363 19.992 129.363 19.9721C129.363 19.8431 129.481 19.724 129.729 19.6148C129.996 19.4858 130.323 19.3965 130.699 19.3468C131.422 19.4064 132.016 19.6049 132.016 19.9423C132.016 19.9721 132.016 20.0019 132.006 20.0317C131.53 21.4708 131.055 22.9 130.59 24.3193C130.184 22.8901 129.788 21.4609 129.392 20.0317H129.373ZM144.755 30.3042H143.607L143.597 37.7877H146.101C147.121 37.7579 147.962 37.5793 148.635 37.2319C149.348 36.8746 149.724 36.428 149.764 35.9119V38.0755H139.499C140.469 38.016 141.013 37.887 141.162 37.3609V20.2202C140.994 19.6942 140.439 19.3965 139.489 19.3171H149.764V21.4807C149.724 20.9547 149.348 20.5081 148.645 20.1607C147.962 19.8232 147.121 19.6446 146.101 19.6148H143.637L143.607 30.0461L144.745 30.0263C145.725 29.9866 146.379 29.8278 146.725 29.5598C147.052 29.2918 147.21 28.8352 147.21 28.1802V28.1306C147.22 28.7955 147.23 29.4705 147.23 30.1354C147.23 30.8004 147.23 31.4753 147.21 32.1403V32.0907C147.21 31.4356 147.042 30.989 146.705 30.7409C146.369 30.4828 145.715 30.3339 144.745 30.3042H144.755ZM160.811 38.0855V35.9218C160.781 36.4478 160.405 36.8944 159.702 37.2418C159.019 37.5793 158.168 37.7679 157.158 37.7976H154.654V35.5149C154.664 30.3836 154.674 25.2622 154.693 20.1508C154.852 19.6545 155.406 19.3865 156.356 19.327H150.556C151.496 19.3865 152.05 19.6545 152.219 20.1508V37.3709C152.06 37.8969 151.506 38.016 150.546 38.0855H160.821H160.811ZM171.878 38.0855V35.9218C171.848 36.4478 171.482 36.8944 170.769 37.2418C170.086 37.5793 169.235 37.7679 168.225 37.7976H165.721V35.5149C165.73 30.3836 165.74 25.2622 165.76 20.1508C165.919 19.6545 166.473 19.3865 167.423 19.327H161.623C162.563 19.3865 163.117 19.6545 163.286 20.1508V37.3709C163.127 37.8969 162.573 38.016 161.613 38.0855H171.878ZM177.926 30.3042C178.896 30.3339 179.549 30.4828 179.886 30.7409C180.222 30.9989 180.39 31.4456 180.39 32.0907V32.1403C180.4 31.4753 180.41 30.8004 180.41 30.1354C180.41 29.4705 180.41 28.7955 180.39 28.1306V28.1802C180.39 28.8352 180.222 29.2819 179.905 29.5598C179.559 29.8377 178.896 29.9866 177.926 30.0263L176.787 30.0461L176.817 19.6148H179.282C180.301 19.6446 181.143 19.8232 181.826 20.1607C182.529 20.518 182.905 20.9646 182.944 21.4807V19.3171H172.669C173.62 19.3965 174.174 19.6942 174.342 20.2202V37.3609C174.184 37.887 173.649 38.016 172.679 38.0755H182.944V35.9119C182.905 36.4379 182.529 36.8845 181.816 37.2319C181.143 37.5694 180.301 37.7579 179.282 37.7877H176.777V30.3042H177.945H177.926ZM187.785 19.6247H189.725C190.457 19.6247 191.962 19.7339 191.913 20.3493V29.3117C191.913 29.4903 191.794 29.6392 191.576 29.7881C191.358 29.9369 190.081 30.2545 187.785 30.7508V19.6148V19.6247ZM190.675 30.3836L190.764 30.3637C191.21 30.3836 191.556 30.5027 191.804 30.7309C192.051 30.9592 192.18 31.2272 192.18 31.5051L192.111 37.351C191.942 37.8671 191.388 38.0061 190.418 38.0656H196.209C195.239 38.0061 194.694 37.8671 194.546 37.3411L194.605 32.8748C194.605 32.1006 194.259 31.4456 193.328 30.8798C192.803 30.5622 192.19 30.3439 191.447 30.2248C192.16 30.0759 192.695 29.927 193.071 29.7583C194.001 29.3414 194.348 28.865 194.348 28.2993V21.3319C194.348 20.7661 194.001 20.2897 193.071 19.8828C192.101 19.4659 190.903 19.3071 189.725 19.3071H183.687C184.627 19.3667 185.191 19.6347 185.35 20.1408V37.351C185.191 37.877 184.627 38.0061 183.687 38.0755H189.477C188.497 38.016 187.933 37.887 187.795 37.351V37.2418H187.785V31.0188L190.665 30.3637L190.675 30.3836ZM201.069 27.5847L197.09 20.1508C196.832 19.7141 196.199 19.4957 195.436 19.327H200.881C200.554 19.3468 200.257 19.4362 200.01 19.595C199.782 19.724 199.663 19.8927 199.663 20.0912V20.1508L203.306 26.9991L206.79 20.1408C206.79 20.1408 206.79 20.1011 206.79 20.0813C206.79 19.9225 206.592 19.4064 205.899 19.327H209.413C209.324 19.327 209.245 19.3468 209.156 19.3568C208.364 19.4858 207.592 19.8332 207.285 20.1408L203.524 27.5351L203.494 37.3411C203.662 37.8473 204.217 38.0061 205.157 38.0755H199.386C200.326 38.016 200.901 37.8473 201.049 37.3411V27.5847H201.069Z" fill="#FCD6AB"/>
<path fill-rule="evenodd" clip-rule="evenodd" d="M4.2528 35.1908C3.93604 35.3695 3.57969 35.4489 3.22334 35.429C2.7581 35.4092 2.30276 35.2107 1.9563 34.8435L1.03573 33.8807C0.827853 33.6624 0.629879 33.444 0.461601 33.2058C0.293323 32.9577 0.154741 32.6897 0.0755514 32.3721C-0.0135369 32.0346 -0.00363821 31.7865 0.00626049 31.5185C0.00626049 31.4391 0.00626049 31.3697 0.00626049 31.2506V28.7594C0.00626049 28.6403 0.00626049 28.5609 0.00626049 28.4914C0.00626049 28.2135 -0.0135369 27.9753 0.0755514 27.6279C0.154741 27.3103 0.293323 27.0423 0.461601 26.7942C0.629879 26.556 0.827853 26.3376 1.03573 26.1193L1.9563 25.1565C2.30276 24.7893 2.768 24.5908 3.24314 24.571C3.63908 24.5511 4.03503 24.6603 4.38149 24.8886C4.43098 24.2335 4.58936 23.5983 4.83683 23.0028C5.13379 22.2981 5.55943 21.653 6.12366 21.0872L21.1598 5.99113C21.6745 5.47502 22.2783 5.05817 22.9317 4.76041C23.486 4.51228 24.07 4.34356 24.6837 4.26415C24.5055 3.94655 24.4264 3.58925 24.4462 3.23194C24.466 2.76546 24.6639 2.30891 25.0302 1.96153L25.9904 1.03849C26.2081 0.830062 26.4259 0.63156 26.6635 0.462833C26.9109 0.294106 27.1782 0.155154 27.495 0.0757531C27.8315 -0.013573 28.0691 -0.00364792 28.3462 0.0062772C28.4254 0.0062772 28.4947 0.0062772 28.6135 0.0062772H31.0981C31.2169 0.0062772 31.2961 0.0062772 31.3653 0.0062772C31.6425 0.0062772 31.8801 -0.013573 32.2166 0.0757531C32.5334 0.155154 32.8007 0.294106 33.0481 0.462833C33.2857 0.63156 33.5035 0.830062 33.7212 1.03849L34.6814 1.96153C35.0477 2.31883 35.2456 2.78531 35.2654 3.25179C35.2852 3.65872 35.1763 4.06565 34.9289 4.41303C35.5723 4.47258 36.186 4.62146 36.7799 4.87951C37.4827 5.17727 38.1262 5.61397 38.6706 6.15985C43.5902 11.1026 49.0345 16.2041 53.7265 21.2857C54.2115 21.7919 54.5976 22.3477 54.8847 22.9631C55.1519 23.5487 55.3301 24.174 55.4093 24.8389C55.7359 24.6404 56.1022 24.561 56.4585 24.571C56.9337 24.5908 57.389 24.7893 57.7454 25.1565L58.666 26.1193C58.8738 26.3376 59.0718 26.556 59.2401 26.7942C59.4084 27.0423 59.5469 27.3103 59.6261 27.6279C59.7152 27.9753 59.7053 28.2135 59.6954 28.4914C59.6954 28.5708 59.6954 28.6403 59.6954 28.7594V31.2506C59.6954 31.3697 59.6954 31.4491 59.6954 31.5185C59.6954 31.7964 59.7152 32.0346 59.6261 32.3721C59.5469 32.6897 59.4084 32.9577 59.2401 33.2058C59.0718 33.444 58.8738 33.6624 58.666 33.8807L57.7454 34.8435C57.3989 35.2107 56.9337 35.4092 56.4585 35.429C56.0527 35.4489 55.6469 35.3397 55.3004 35.0916C55.241 35.7367 55.0925 36.362 54.8451 36.9476C54.5481 37.6523 54.1225 38.2974 53.5681 38.8532C48.5594 43.8952 43.5704 48.9967 38.532 53.9989C38.0272 54.4853 37.4728 54.8823 36.869 55.1701C36.285 55.4381 35.6614 55.6167 34.9982 55.6961C35.1862 56.0237 35.2753 56.3909 35.2654 56.7482C35.2456 57.2246 35.0477 57.6911 34.6814 58.0385L33.7212 58.9615C33.5035 59.1699 33.2857 59.3684 33.0481 59.5372C32.8007 59.7059 32.5334 59.8448 32.2166 59.9242C31.8801 60.0136 31.6425 60.0036 31.3653 59.9937C31.2862 59.9937 31.2169 59.9937 31.0981 59.9937H28.6135C28.4947 59.9937 28.4155 59.9937 28.3462 59.9937C28.0691 59.9937 27.8315 60.0136 27.495 59.9242C27.1782 59.8448 26.9109 59.7059 26.6635 59.5372C26.4259 59.3684 26.2081 59.1699 25.9904 58.9615L25.0302 58.0385C24.6639 57.6812 24.466 57.2147 24.4462 56.7482C24.4264 56.3512 24.5352 55.9443 24.7629 55.6068C24.1096 55.5572 23.4761 55.3984 22.8921 55.1503C22.1892 54.8525 21.5458 54.4158 20.9915 53.86L5.97518 38.744C5.46044 38.2279 5.0447 37.6225 4.74774 36.9575C4.50027 36.4017 4.33199 35.8062 4.2627 35.2008L4.2528 35.1908ZM18.4376 29.335C22.1991 29.335 20.843 29.8809 25.3172 25.3749C26.2675 24.4122 27.0693 23.5983 28.0295 22.6455C29.6133 21.0773 29.1777 21.3949 29.1876 18.4571C28.0493 19.0625 27.2475 20.2138 26.3269 21.1369L19.6453 27.8562C18.8831 28.6105 18.8138 28.5013 18.4376 29.335ZM30.3854 18.2784C30.4151 21.256 29.9894 21.1766 31.3158 22.4569L36.3246 27.4989C38.5914 29.7816 37.5421 29.4343 41.4521 29.4045C41.0265 28.6998 31.1575 18.735 30.3854 18.2784ZM18.2595 30.6154C18.5663 31.2506 18.4376 31.0322 18.9425 31.5483C20.6154 33.2753 28.1879 41.1261 29.2272 41.6719C29.2173 37.6026 29.8607 39.141 25.3172 34.5755C20.7638 30 22.2981 30.6352 18.2595 30.6154ZM30.3953 41.7116C31.4841 41.1459 38.4429 33.8013 40.0465 32.2034C40.3138 31.9354 40.5315 31.7567 40.779 31.4888C41.264 30.9429 41.0463 31.2903 41.363 30.6253C37.4629 30.6154 38.8785 30 34.2954 34.6053C29.7618 39.1609 30.3953 37.6324 30.3953 41.7116ZM29.7915 36.3521C30.2567 36.104 30.2666 36.0345 30.7021 35.6077C31.9296 34.3571 35.7703 30.7742 36.1464 29.7816L31.4049 25.1069C30.7021 24.3923 30.5438 24.0747 29.7222 23.6281L23.486 29.8114L29.8013 36.362L29.7915 36.3521ZM56.3794 26.4567L52.3605 29.9901L56.3794 33.5234L57.2999 32.5607C57.9533 31.8759 57.7949 31.8758 57.7949 31.2406V29.9901V28.7395C57.7949 28.0944 57.9533 28.0944 57.2999 27.4195L56.3794 26.4567ZM26.3368 3.32127L29.8508 7.36079L33.3649 3.32127L32.4047 2.39823C31.7316 1.74317 31.7316 1.90198 31.0882 1.90198H29.8508H28.6135C27.9701 1.90198 27.9701 1.74317 27.297 2.39823L26.3368 3.32127ZM3.33222 33.5234L7.3511 29.9901L3.33222 26.4567L2.41164 27.4195C1.75833 28.1043 1.91671 28.1043 1.91671 28.7395V29.9901V31.2406C1.91671 31.8858 1.75833 31.8858 2.41164 32.5607L3.33222 33.5234ZM33.3748 56.6688L29.8607 52.6293L26.3467 56.6688L27.3069 57.5918C27.98 58.2469 27.98 58.0881 28.6234 58.0881H29.8607H31.0981C31.7415 58.0881 31.7415 58.2469 32.4146 57.5918L33.3748 56.6688ZM53.4296 34.4663C53.4197 33.3448 52.9643 32.2332 52.0932 31.3597C51.4993 30.7642 50.7866 30.3573 50.0244 30.1588C50.4599 30.0496 50.8163 29.8809 51.1133 29.6725C51.5587 29.3449 51.8953 29.077 52.1229 28.8586C52.4496 28.5311 52.7168 28.1639 52.9643 27.7668C53.4493 26.9232 53.6275 26.0299 53.5285 25.0871C53.4394 24.1342 53.0534 23.3005 52.3704 22.5959L37.3343 7.48982C36.5127 6.66603 35.4139 6.24918 34.3053 6.27895C33.1867 6.28888 32.088 6.74544 31.2169 7.61885C30.613 8.2342 30.1973 8.97859 30.0092 9.76267C29.7816 8.92896 29.3559 8.18458 28.7224 7.53945L28.6036 7.42034C27.7325 6.59656 26.713 6.15985 25.5251 6.1003C24.4165 6.07053 23.3177 6.48738 22.4961 7.31117L7.45998 22.4073C6.61859 23.2509 6.23254 24.3228 6.25234 25.4543C6.28204 26.5361 6.66809 27.5088 7.43029 28.4021C7.51937 28.5112 7.61836 28.6105 7.71735 28.7097C8.26178 29.2556 8.8656 29.6526 9.50901 29.8809C8.76661 30.1191 8.1034 30.526 7.52927 31.1017L7.41049 31.2208C6.5988 32.0942 6.15335 33.1264 6.09396 34.3174C6.06427 35.429 6.47011 36.5307 7.2917 37.3545L22.308 52.4705C23.1494 53.3141 24.2185 53.7012 25.337 53.6913C26.416 53.6615 27.3861 53.2645 28.267 52.5102C28.3759 52.4209 28.4749 52.3216 28.5739 52.2224C29.1084 51.6864 29.4846 51.1107 29.7222 50.4855C29.831 50.8229 29.9696 51.1207 30.1478 51.3589C30.4745 51.8154 30.7318 52.1529 30.9595 52.3712C31.2862 52.6988 31.6425 52.9767 32.0484 53.2149C32.8897 53.7012 33.7707 53.8898 34.7111 53.7806C35.6614 53.6913 36.483 53.3042 37.1858 52.6094L52.212 37.4835C53.0336 36.6598 53.4493 35.5581 53.4098 34.4465L53.4296 34.4663ZM47.8368 30.1588C47.4111 30.0198 47.035 29.7816 46.6786 29.464L44.6098 27.3599L47.4012 24.5511C46.8469 25.3253 46.837 26.0796 47.3616 26.814L49.0939 28.5609C49.7175 29.1861 50.5391 29.2258 51.2518 28.8785C51.4894 28.7594 51.6973 28.6204 51.8853 28.4318C52.0734 28.2433 52.4694 27.8363 52.5189 26.9629C52.509 26.5461 52.3407 26.1193 51.9942 25.6726C51.6874 25.2856 51.3607 24.9283 51.0341 24.6007L45.9659 19.4992C45.7482 20.1741 45.372 20.7895 44.8474 21.3254C43.9961 22.179 42.8676 22.6455 41.7689 22.6653C40.6503 22.6852 39.5615 22.2981 38.73 21.4644L31.0783 13.7724C30.5438 13.2365 30.1874 12.5814 30.0092 11.8866C29.8706 12.3234 29.6331 12.7104 29.2965 13.0479L27.3663 14.9833L26.802 14.3977L26.218 13.822L25.832 13.435C26.5843 14.0007 27.3267 14.0305 28.0394 13.5243L28.9105 12.6509C29.4846 12.0752 29.7222 11.3308 29.6232 10.3979C29.5737 9.94132 29.4153 9.46492 29.1678 8.97859C28.9798 8.59151 28.7224 8.24413 28.4353 7.9563C28.366 7.88682 28.2077 7.74787 27.9602 7.52952C27.7226 7.32109 27.3465 7.21192 26.8317 7.17222C26.2675 7.15237 25.7924 7.35087 25.4063 7.73795L7.80644 25.4344C7.42039 25.8215 7.28181 26.288 7.2917 26.814C7.2917 27.221 7.42039 27.5981 7.64806 27.9554C7.74704 28.0844 7.86583 28.2135 7.98461 28.3425C8.38056 28.6998 8.8557 28.8785 9.37043 28.8983C9.89506 28.9182 10.3504 28.7792 10.7464 28.3921L16.9627 22.1492C17.4775 21.4445 17.4379 20.7002 16.8637 19.9458L19.6651 22.7646L13.1517 29.3152C12.8647 29.603 12.538 29.8213 12.1718 29.9702C12.4786 30.1092 12.7558 30.3077 13.0033 30.5558L14.9335 32.4912L14.3495 33.0569L13.7754 33.6524L13.3893 34.0395C13.9535 33.2852 13.9832 32.5408 13.4784 31.8262L12.6073 30.9528C12.0332 30.3772 11.2908 30.1389 10.3702 30.2283C9.91486 30.2779 9.44962 30.4367 8.96459 30.6948C8.57854 30.8833 8.23208 31.1414 7.94502 31.4292C7.87573 31.4987 7.73715 31.6575 7.52927 31.9056C7.3214 32.1438 7.21251 32.5309 7.18282 33.0371C7.16302 33.6028 7.361 34.0792 7.74705 34.4663L25.337 52.1727C25.7231 52.5598 26.1784 52.7087 26.713 52.6888C27.1188 52.6888 27.495 52.5598 27.8513 52.3315C27.98 52.2323 28.1087 52.1132 28.2374 51.9941C28.5838 51.5971 28.7719 51.1207 28.7818 50.6046C28.8016 50.0686 28.663 49.612 28.2769 49.225L22.0705 42.9821C21.3677 42.466 20.6253 42.5057 19.873 43.0813L22.6743 40.2626L29.1876 46.8132C29.4747 47.101 29.6826 47.4186 29.831 47.7858C29.9696 47.4881 30.1577 47.2002 30.4052 46.9422L32.4938 44.8579L35.2852 47.6667C34.5131 47.1109 33.7707 47.101 33.0382 47.627L31.306 49.3738C30.6823 49.9991 30.6427 50.8328 30.9892 51.5474C31.108 51.7856 31.2466 52.004 31.4346 52.1826C31.6227 52.3712 32.0187 52.7782 32.8897 52.8179C33.3055 52.8079 33.7311 52.6392 34.1766 52.2819C34.5626 51.9742 34.919 51.6467 35.2357 51.3192L40.3039 46.2177C39.6308 45.9993 39.017 45.6221 38.4924 45.0862C37.6411 44.2326 37.1858 43.0912 37.166 41.9896C37.1462 40.8581 37.5322 39.7762 38.3637 38.9326L46.0154 31.2406C46.5401 30.7146 47.1835 30.3573 47.8764 30.1786L47.8368 30.1588ZM41.5412 44.9274L51.915 34.5159C52.3011 34.1288 52.4298 33.6624 52.41 33.1363C52.3902 32.5706 52.1922 32.0843 51.7864 31.6773C51.3805 31.2704 50.8955 31.0719 50.3313 31.0521C49.8165 31.0223 49.3612 31.1712 48.9751 31.5582L38.7597 41.8307C38.3736 42.2178 38.1757 42.7042 38.1954 43.26C38.2152 43.8257 38.4132 44.312 38.8191 44.719C39.2249 45.1259 39.7099 45.3244 40.2742 45.3442C40.7394 45.3442 41.1651 45.2251 41.5511 44.9274H41.5412ZM44.7088 18.2487L34.3548 7.81735C33.9687 7.43027 33.5035 7.29132 32.9887 7.32109C32.4245 7.34094 31.9395 7.53944 31.5336 7.94637C31.1278 8.3533 30.9298 8.83964 30.91 9.40537C30.8803 9.9314 31.0288 10.388 31.4148 10.775L41.6303 21.0475C42.0163 21.4346 42.4915 21.6331 43.0557 21.6133C43.6199 21.5934 44.105 21.3949 44.5108 20.988C44.9167 20.5811 45.1146 20.0947 45.1344 19.529C45.1344 19.0625 45.0157 18.6258 44.7187 18.2487H44.7088ZM3.25303 35.032C3.61929 35.0519 3.98554 34.9328 4.2924 34.6847C4.32209 34.6549 4.37159 34.635 4.42108 34.6251C4.52997 34.6251 4.62895 34.7045 4.62895 34.8137C4.66855 35.4985 4.83683 36.1635 5.11399 36.7789C5.39115 37.3942 5.7772 37.9599 6.25234 38.4463L21.2687 53.5622C21.7933 54.0883 22.3971 54.4952 23.0405 54.7731C23.7038 55.051 24.4165 55.2098 25.1589 55.2197C25.2084 55.2197 25.2479 55.2396 25.2875 55.2694C25.3667 55.3388 25.3766 55.4679 25.3073 55.5473L25.2084 55.6664C24.9411 55.974 24.8223 56.3512 24.8421 56.7284C24.8619 57.1055 25.0104 57.4727 25.2974 57.7506L26.2576 58.6737C26.4655 58.8722 26.6635 59.0608 26.8812 59.2096C27.0891 59.3585 27.3267 59.4776 27.584 59.5471C27.8711 59.6265 28.079 59.6166 28.3264 59.6066C28.4254 59.6066 28.5244 59.6066 28.6036 59.6066H31.0882C31.1674 59.6066 31.2763 59.6066 31.3653 59.6066C31.6128 59.6066 31.8207 59.6265 32.1077 59.5471C32.375 59.4776 32.6027 59.3585 32.8106 59.2096C33.0283 59.0608 33.2263 58.8722 33.4342 58.6737L34.3943 57.7506C34.6814 57.4727 34.8398 57.1055 34.8497 56.7284C34.8695 56.3512 34.7408 55.974 34.4834 55.6664H34.4735C34.4735 55.6664 34.424 55.577 34.4141 55.5274C34.4141 55.4182 34.4933 55.319 34.6022 55.319L34.8596 55.2991C35.503 55.2297 36.1167 55.0709 36.6809 54.8029C37.2452 54.5349 37.7698 54.1677 38.235 53.7111L53.2712 38.5753C53.7859 38.0592 54.1818 37.4538 54.459 36.7987C54.7362 36.1337 54.8946 35.4191 54.9045 34.6946C54.9045 34.645 54.9243 34.6053 54.9539 34.5656C55.0232 34.4862 55.1519 34.4762 55.2311 34.5457L55.3697 34.6648C55.6667 34.9328 56.0527 35.0519 56.419 35.032C56.7951 35.0122 57.1614 34.8633 57.4385 34.5656L58.3591 33.6028C58.5571 33.3944 58.7353 33.1959 58.8936 32.9775C59.0421 32.7691 59.151 32.5309 59.2203 32.2629C59.2995 31.9751 59.2896 31.7667 59.2797 31.5185C59.2797 31.4193 59.2797 31.32 59.2797 31.2406V28.7494C59.2797 28.67 59.2797 28.5609 59.2797 28.4715C59.2797 28.2234 59.2995 28.015 59.2203 27.7271C59.151 27.4592 59.0322 27.2309 58.8936 27.0125C58.7452 26.7942 58.5571 26.5858 58.3591 26.3873L57.4385 25.4245C57.1614 25.1367 56.7951 24.9779 56.419 24.958C56.0428 24.9382 55.6667 25.0672 55.3697 25.3253H55.3598C55.3598 25.3253 55.2806 25.3848 55.2311 25.3947C55.1222 25.3947 55.0232 25.3153 55.0232 25.2062L55.0034 24.9382C54.9342 24.2831 54.7758 23.6777 54.5085 23.112C54.2412 22.5462 53.8849 22.0202 53.4196 21.5537L38.3637 6.43776C37.849 5.92165 37.2452 5.52465 36.6018 5.24674C35.9385 4.96884 35.2357 4.81004 34.5032 4.79019C34.4537 4.79019 34.4141 4.77034 34.3745 4.74056C34.2954 4.67109 34.2855 4.54206 34.3548 4.46266L34.4735 4.32371C34.7408 4.01603 34.8596 3.63887 34.8398 3.26172C34.82 2.88456 34.6715 2.51733 34.3844 2.23943L33.4243 1.31639C33.2164 1.11789 33.0184 0.929314 32.8007 0.780437C32.5928 0.63156 32.3552 0.512458 32.0978 0.442983C31.8108 0.363582 31.6029 0.373507 31.3554 0.383432C31.2565 0.383432 31.1575 0.383432 31.0783 0.383432H28.5937C28.5145 0.383432 28.4056 0.383432 28.3165 0.383432C28.0691 0.383432 27.8612 0.363582 27.5741 0.442983C27.3069 0.512458 27.0792 0.63156 26.8713 0.780437C26.6536 0.929314 26.4556 1.11789 26.2477 1.31639L25.2875 2.23943C25.0005 2.51733 24.852 2.87464 24.8322 3.24187C24.8124 3.6091 24.9213 3.98625 25.1787 4.28401C25.2084 4.31378 25.2281 4.36341 25.238 4.41303C25.238 4.52221 25.1589 4.62146 25.05 4.62146C24.3769 4.66116 23.7136 4.82989 23.0999 5.10779C22.4862 5.38569 21.922 5.77277 21.4468 6.2591L6.41072 21.3552C5.88609 21.8812 5.49014 22.4867 5.21298 23.1417C4.93581 23.8067 4.77743 24.5313 4.76754 25.2756C4.76754 25.3253 4.74774 25.365 4.71804 25.4047C4.64875 25.4841 4.52007 25.494 4.44088 25.4245L4.32209 25.3253C4.02513 25.0573 3.63908 24.9382 3.27283 24.958C2.89668 24.9779 2.53043 25.1268 2.25327 25.4245L1.33269 26.3873C1.13471 26.5957 0.956536 26.7942 0.798157 27.0125C0.649676 27.221 0.54079 27.4592 0.471499 27.7271C0.39231 28.015 0.402209 28.2234 0.412107 28.4715C0.412107 28.5708 0.412107 28.67 0.412107 28.7494V31.2406C0.412107 31.32 0.412107 31.4292 0.412107 31.5185C0.412107 31.7667 0.39231 31.9751 0.471499 32.2629C0.54079 32.5309 0.659575 32.7592 0.798157 32.9775C0.946637 33.1959 1.13471 33.4043 1.33269 33.6028L2.25327 34.5656C2.53043 34.8534 2.88678 35.0122 3.25303 35.0221V35.032Z" fill="#FCD6AB"/>
</svg>
