<svg width="255" height="75" viewBox="0 0 255 75" fill="none" xmlns="http://www.w3.org/2000/svg">
<g clip-path="url(#clip0_692_278)">
<path d="M111.328 62.7911C110.855 62.7911 110.443 62.6973 110.093 62.5098C109.751 62.3223 109.478 62.0711 109.274 61.7561C109.077 61.4411 108.953 61.0961 108.902 60.7211H109.755C109.835 61.1186 110.013 61.4261 110.29 61.6436C110.567 61.8611 110.917 61.9698 111.339 61.9698C111.725 61.9698 112.064 61.8536 112.356 61.6211C112.647 61.3811 112.88 61.0248 113.055 60.5523C113.237 60.0723 113.343 59.4686 113.372 58.7411C113.379 58.6961 113.383 58.6548 113.383 58.6173C113.383 58.5723 113.383 58.5273 113.383 58.4823C113.281 58.7223 113.128 58.9436 112.924 59.1461C112.72 59.3486 112.472 59.5136 112.181 59.6411C111.897 59.7611 111.576 59.8211 111.219 59.8211C110.797 59.8211 110.399 59.7161 110.028 59.5061C109.656 59.2961 109.358 59.0036 109.132 58.6286C108.906 58.2461 108.793 57.7998 108.793 57.2898C108.793 56.8473 108.895 56.4236 109.099 56.0186C109.31 55.6136 109.605 55.2836 109.984 55.0286C110.37 54.7736 110.822 54.6461 111.339 54.6461C111.886 54.6461 112.345 54.7511 112.716 54.9611C113.095 55.1711 113.394 55.4561 113.612 55.8161C113.838 56.1686 114.002 56.5698 114.104 57.0198C114.206 57.4698 114.257 57.9311 114.257 58.4036C114.257 59.2661 114.141 60.0273 113.908 60.6873C113.682 61.3473 113.35 61.8648 112.913 62.2398C112.483 62.6073 111.955 62.7911 111.328 62.7911ZM111.405 58.9998C111.733 58.9998 112.028 58.9248 112.29 58.7748C112.56 58.6173 112.771 58.4073 112.924 58.1448C113.077 57.8748 113.153 57.5711 113.153 57.2336C113.153 56.8811 113.077 56.5736 112.924 56.3111C112.771 56.0486 112.56 55.8461 112.29 55.7036C112.028 55.5536 111.733 55.4786 111.405 55.4786C111.092 55.4786 110.807 55.5536 110.552 55.7036C110.297 55.8536 110.093 56.0598 109.94 56.3223C109.795 56.5848 109.722 56.8923 109.722 57.2448C109.722 57.5973 109.795 57.9048 109.94 58.1673C110.093 58.4298 110.297 58.6361 110.552 58.7861C110.807 58.9286 111.092 58.9998 111.405 58.9998ZM118.668 62.6561V54.7811H123.4V55.5573H119.586V58.3023H123.072V59.0673H119.586V61.8798H123.4V62.6561H118.668ZM124.824 62.6561V56.7386H125.655L125.698 57.5486C125.873 57.2561 126.11 57.0273 126.409 56.8623C126.707 56.6898 127.021 56.6036 127.348 56.6036C127.625 56.6036 127.873 56.6448 128.092 56.7273C128.317 56.8023 128.514 56.9223 128.682 57.0873C128.849 57.2448 128.984 57.4436 129.086 57.6836C129.276 57.3311 129.531 57.0648 129.851 56.8848C130.179 56.6973 130.521 56.6036 130.878 56.6036C131.301 56.6036 131.662 56.6898 131.96 56.8623C132.266 57.0273 132.499 57.2823 132.66 57.6273C132.827 57.9648 132.911 58.3886 132.911 58.8986V62.6561H132.004V58.9998C132.004 58.4673 131.891 58.0698 131.665 57.8073C131.439 57.5448 131.133 57.4136 130.747 57.4136C130.485 57.4136 130.245 57.4848 130.026 57.6273C129.815 57.7698 129.643 57.9798 129.512 58.2573C129.388 58.5348 129.327 58.8723 129.327 59.2698V62.6561H128.409V58.9998C128.409 58.4673 128.296 58.0698 128.07 57.8073C127.844 57.5448 127.542 57.4136 127.163 57.4136C126.908 57.4136 126.671 57.4848 126.452 57.6273C126.241 57.7698 126.07 57.9798 125.939 58.2573C125.808 58.5348 125.742 58.8723 125.742 59.2698V62.6561H124.824ZM136.899 62.7911C136.367 62.7911 135.897 62.6636 135.489 62.4086C135.081 62.1536 134.764 61.7936 134.538 61.3286C134.312 60.8636 134.199 60.3198 134.199 59.6973C134.199 59.0673 134.312 58.5236 134.538 58.0661C134.771 57.6011 135.092 57.2411 135.5 56.9861C135.915 56.7311 136.389 56.6036 136.921 56.6036C137.46 56.6036 137.93 56.7311 138.33 56.9861C138.738 57.2411 139.055 57.6011 139.281 58.0661C139.507 58.5236 139.62 59.0673 139.62 59.6973C139.62 60.3198 139.503 60.8636 139.27 61.3286C139.044 61.7936 138.728 62.1536 138.32 62.4086C137.912 62.6636 137.438 62.7911 136.899 62.7911ZM136.899 61.9811C137.234 61.9811 137.536 61.8986 137.806 61.7336C138.075 61.5611 138.287 61.3061 138.44 60.9686C138.6 60.6236 138.68 60.1998 138.68 59.6973C138.68 59.1873 138.604 58.7636 138.451 58.4261C138.298 58.0886 138.086 57.8373 137.817 57.6723C137.555 57.4998 137.256 57.4136 136.921 57.4136C136.593 57.4136 136.294 57.4998 136.025 57.6723C135.755 57.8373 135.54 58.0886 135.38 58.4261C135.219 58.7636 135.139 59.1873 135.139 59.6973C135.139 60.1998 135.216 60.6236 135.369 60.9686C135.529 61.3061 135.74 61.5611 136.003 61.7336C136.272 61.8986 136.571 61.9811 136.899 61.9811ZM142.967 62.6561C142.639 62.6561 142.355 62.6036 142.114 62.4986C141.874 62.3936 141.688 62.2173 141.557 61.9698C141.433 61.7148 141.371 61.3736 141.371 60.9461V57.5373H140.366V56.7386H141.371L141.491 55.2648H142.289V56.7386H143.917V57.5373H142.289V60.9461C142.289 61.2986 142.358 61.5386 142.497 61.6661C142.635 61.7861 142.879 61.8461 143.229 61.8461H143.896V62.6561H142.967ZM145.264 62.6561V56.7386H146.182V62.6561H145.264ZM145.723 55.6136C145.541 55.6136 145.388 55.5536 145.264 55.4336C145.147 55.3061 145.089 55.1486 145.089 54.9611C145.089 54.7736 145.147 54.6236 145.264 54.5111C145.388 54.3911 145.541 54.3311 145.723 54.3311C145.898 54.3311 146.047 54.3911 146.171 54.5111C146.295 54.6236 146.357 54.7736 146.357 54.9611C146.357 55.1486 146.295 55.3061 146.171 55.4336C146.047 55.5536 145.898 55.6136 145.723 55.6136ZM150.283 62.7911C149.751 62.7911 149.281 62.6636 148.873 62.4086C148.465 62.1536 148.148 61.7936 147.922 61.3286C147.696 60.8636 147.583 60.3198 147.583 59.6973C147.583 59.0673 147.696 58.5236 147.922 58.0661C148.155 57.6011 148.476 57.2411 148.884 56.9861C149.299 56.7311 149.773 56.6036 150.305 56.6036C150.844 56.6036 151.314 56.7311 151.714 56.9861C152.122 57.2411 152.439 57.6011 152.665 58.0661C152.891 58.5236 153.004 59.0673 153.004 59.6973C153.004 60.3198 152.887 60.8636 152.654 61.3286C152.428 61.7936 152.111 62.1536 151.703 62.4086C151.295 62.6636 150.822 62.7911 150.283 62.7911ZM150.283 61.9811C150.618 61.9811 150.92 61.8986 151.19 61.7336C151.459 61.5611 151.671 61.3061 151.824 60.9686C151.984 60.6236 152.064 60.1998 152.064 59.6973C152.064 59.1873 151.988 58.7636 151.835 58.4261C151.682 58.0886 151.47 57.8373 151.201 57.6723C150.938 57.4998 150.64 57.4136 150.305 57.4136C149.977 57.4136 149.678 57.4998 149.408 57.6723C149.139 57.8373 148.924 58.0886 148.764 58.4261C148.603 58.7636 148.523 59.1873 148.523 59.6973C148.523 60.1998 148.6 60.6236 148.753 60.9686C148.913 61.3061 149.124 61.5611 149.387 61.7336C149.656 61.8986 149.955 61.9811 150.283 61.9811ZM154.334 62.6561V56.7386H155.164L155.208 57.6723C155.375 57.3348 155.616 57.0723 155.929 56.8848C156.25 56.6973 156.618 56.6036 157.033 56.6036C157.455 56.6036 157.823 56.6861 158.137 56.8511C158.45 57.0161 158.694 57.2673 158.869 57.6048C159.044 57.9423 159.131 58.3698 159.131 58.8873V62.6561H158.213V58.9886C158.213 58.4636 158.086 58.0698 157.831 57.8073C157.583 57.5448 157.248 57.4136 156.825 57.4136C156.541 57.4136 156.279 57.4848 156.038 57.6273C155.798 57.7623 155.605 57.9648 155.459 58.2348C155.321 58.5048 155.252 58.8348 155.252 59.2248V62.6561H154.334ZM162.728 62.7911C162.211 62.7911 161.781 62.7123 161.438 62.5548C161.103 62.3898 160.848 62.1648 160.673 61.8798C160.498 61.5873 160.393 61.2498 160.356 60.8673H161.296C161.325 61.0698 161.391 61.2573 161.493 61.4298C161.602 61.5948 161.759 61.7298 161.963 61.8348C162.167 61.9398 162.426 61.9923 162.739 61.9923C162.987 61.9923 163.198 61.9548 163.373 61.8798C163.548 61.7973 163.679 61.6848 163.766 61.5423C163.861 61.3998 163.908 61.2348 163.908 61.0473C163.908 60.7998 163.854 60.6086 163.744 60.4736C163.642 60.3311 163.489 60.2261 163.285 60.1586C163.089 60.0836 162.841 60.0273 162.542 59.9898C162.222 59.9448 161.937 59.8811 161.69 59.7986C161.442 59.7161 161.231 59.6073 161.056 59.4723C160.888 59.3373 160.761 59.1686 160.673 58.9661C160.586 58.7636 160.542 58.5236 160.542 58.2461C160.542 57.9236 160.626 57.6386 160.794 57.3911C160.961 57.1436 161.198 56.9523 161.504 56.8173C161.817 56.6748 162.185 56.6036 162.608 56.6036C163.227 56.6036 163.715 56.7498 164.072 57.0423C164.436 57.3348 164.651 57.7511 164.717 58.2911H163.81C163.773 58.0136 163.65 57.7961 163.438 57.6386C163.227 57.4811 162.946 57.4023 162.597 57.4023C162.225 57.4023 161.945 57.4736 161.755 57.6161C161.566 57.7586 161.471 57.9461 161.471 58.1786C161.471 58.3511 161.511 58.5086 161.591 58.6511C161.679 58.7861 161.824 58.9023 162.028 58.9998C162.232 59.0898 162.506 59.1573 162.848 59.2023C163.278 59.2548 163.642 59.3411 163.941 59.4611C164.24 59.5736 164.466 59.7498 164.619 59.9898C164.779 60.2298 164.855 60.5561 164.848 60.9686C164.848 61.3586 164.757 61.6886 164.575 61.9586C164.4 62.2286 164.152 62.4348 163.832 62.5773C163.518 62.7198 163.15 62.7911 162.728 62.7911ZM166.572 62.7123C166.397 62.7123 166.248 62.6523 166.124 62.5323C166.008 62.4048 165.949 62.2511 165.949 62.0711C165.949 61.8911 166.008 61.7411 166.124 61.6211C166.248 61.4936 166.397 61.4298 166.572 61.4298C166.762 61.4298 166.911 61.4936 167.02 61.6211C167.137 61.7411 167.195 61.8911 167.195 62.0711C167.195 62.2511 167.137 62.4048 167.02 62.5323C166.911 62.6523 166.762 62.7123 166.572 62.7123ZM174.72 62.7911C174.021 62.7911 173.405 62.6223 172.873 62.2848C172.341 61.9398 171.926 61.4636 171.627 60.8561C171.329 60.2411 171.179 59.5286 171.179 58.7186C171.179 57.9161 171.329 57.2111 171.627 56.6036C171.926 55.9886 172.341 55.5086 172.873 55.1636C173.405 54.8186 174.021 54.6461 174.72 54.6461C175.434 54.6461 176.057 54.8186 176.589 55.1636C177.121 55.5086 177.532 55.9886 177.824 56.6036C178.115 57.2111 178.261 57.9161 178.261 58.7186C178.261 59.5286 178.115 60.2411 177.824 60.8561C177.532 61.4636 177.121 61.9398 176.589 62.2848C176.057 62.6223 175.434 62.7911 174.72 62.7911ZM174.72 61.9586C175.245 61.9586 175.7 61.8311 176.086 61.5761C176.48 61.3136 176.782 60.9423 176.993 60.4623C177.212 59.9748 177.321 59.3936 177.321 58.7186C177.321 58.0436 177.212 57.4661 176.993 56.9861C176.782 56.4986 176.48 56.1273 176.086 55.8723C175.7 55.6173 175.245 55.4898 174.72 55.4898C174.203 55.4898 173.748 55.6173 173.354 55.8723C172.968 56.1273 172.666 56.4986 172.447 56.9861C172.228 57.4661 172.119 58.0436 172.119 58.7186C172.119 59.3936 172.228 59.9748 172.447 60.4623C172.666 60.9423 172.968 61.3136 173.354 61.5761C173.748 61.8311 174.203 61.9586 174.72 61.9586ZM179.574 62.6561V56.7386H180.404L180.448 57.6723C180.616 57.3348 180.856 57.0723 181.169 56.8848C181.49 56.6973 181.858 56.6036 182.273 56.6036C182.696 56.6036 183.064 56.6861 183.377 56.8511C183.69 57.0161 183.934 57.2673 184.109 57.6048C184.284 57.9423 184.371 58.3698 184.371 58.8873V62.6561H183.453V58.9886C183.453 58.4636 183.326 58.0698 183.071 57.8073C182.823 57.5448 182.488 57.4136 182.065 57.4136C181.781 57.4136 181.519 57.4848 181.279 57.6273C181.038 57.7623 180.845 57.9648 180.699 58.2348C180.561 58.5048 180.492 58.8348 180.492 59.2248V62.6561H179.574ZM188.274 62.7911C187.764 62.7911 187.312 62.6636 186.919 62.4086C186.525 62.1536 186.216 61.7936 185.99 61.3286C185.771 60.8636 185.662 60.3198 185.662 59.6973C185.662 59.0748 185.771 58.5311 185.99 58.0661C186.216 57.6011 186.525 57.2411 186.919 56.9861C187.32 56.7311 187.779 56.6036 188.296 56.6036C188.85 56.6036 189.312 56.7311 189.684 56.9861C190.055 57.2411 190.336 57.5823 190.525 58.0098C190.715 58.4373 190.809 58.9061 190.809 59.4161C190.809 59.4911 190.809 59.5661 190.809 59.6411C190.809 59.7161 190.806 59.8061 190.799 59.9111H186.351V59.1798H189.913C189.899 58.6023 189.735 58.1636 189.422 57.8636C189.116 57.5561 188.733 57.4023 188.274 57.4023C187.968 57.4023 187.684 57.4811 187.422 57.6386C187.167 57.7886 186.959 58.0136 186.799 58.3136C186.638 58.6136 186.558 58.9886 186.558 59.4386V59.7536C186.558 60.2486 186.638 60.6648 186.799 61.0023C186.959 61.3323 187.167 61.5798 187.422 61.7448C187.684 61.9098 187.968 61.9923 188.274 61.9923C188.682 61.9923 189.003 61.9136 189.236 61.7561C189.469 61.5911 189.64 61.3586 189.749 61.0586H190.656C190.569 61.3886 190.416 61.6848 190.197 61.9473C189.986 62.2098 189.717 62.4161 189.389 62.5661C189.068 62.7161 188.697 62.7911 188.274 62.7911ZM197.531 62.7911C196.97 62.7911 196.481 62.6861 196.066 62.4761C195.651 62.2661 195.33 61.9736 195.104 61.5986C194.879 61.2236 194.766 60.7886 194.766 60.2936H195.727C195.727 60.6011 195.797 60.8861 195.935 61.1486C196.073 61.4036 196.274 61.6098 196.536 61.7673C196.806 61.9173 197.137 61.9923 197.531 61.9923C197.873 61.9923 198.164 61.9361 198.405 61.8236C198.653 61.7036 198.838 61.5423 198.962 61.3398C199.093 61.1373 199.159 60.9086 199.159 60.6536C199.159 60.3686 199.097 60.1323 198.973 59.9448C198.857 59.7498 198.693 59.5923 198.481 59.4723C198.27 59.3448 198.026 59.2323 197.749 59.1348C197.472 59.0373 197.174 58.9361 196.853 58.8311C196.212 58.6211 195.746 58.3586 195.454 58.0436C195.17 57.7211 195.028 57.3086 195.028 56.8061C195.028 56.3786 195.123 56.0036 195.312 55.6811C195.509 55.3586 195.786 55.1073 196.143 54.9273C196.507 54.7398 196.937 54.6461 197.432 54.6461C197.92 54.6461 198.343 54.7398 198.7 54.9273C199.064 55.1148 199.348 55.3736 199.552 55.7036C199.756 56.0261 199.858 56.4011 199.858 56.8286H198.897C198.897 56.6111 198.842 56.3973 198.733 56.1873C198.623 55.9773 198.456 55.8048 198.23 55.6698C198.011 55.5273 197.735 55.4561 197.399 55.4561C197.123 55.4486 196.875 55.4973 196.656 55.6023C196.445 55.6998 196.277 55.8423 196.154 56.0298C196.037 56.2173 195.979 56.4461 195.979 56.7161C195.979 56.9711 196.03 57.1773 196.132 57.3348C196.241 57.4923 196.394 57.6273 196.591 57.7398C196.795 57.8448 197.031 57.9423 197.301 58.0323C197.571 58.1223 197.869 58.2236 198.197 58.3361C198.569 58.4636 198.897 58.6211 199.181 58.8086C199.472 58.9886 199.698 59.2211 199.858 59.5061C200.026 59.7911 200.11 60.1548 200.11 60.5973C200.11 60.9723 200.011 61.3286 199.815 61.6661C199.625 61.9961 199.341 62.2661 198.962 62.4761C198.583 62.6861 198.106 62.7911 197.531 62.7911ZM201.42 65.1311V56.7386H202.25L202.327 57.6611C202.444 57.4661 202.589 57.2898 202.764 57.1323C202.946 56.9748 203.161 56.8473 203.409 56.7498C203.664 56.6523 203.955 56.6036 204.283 56.6036C204.8 56.6036 205.252 56.7386 205.638 57.0086C206.032 57.2786 206.338 57.6461 206.556 58.1111C206.775 58.5761 206.884 59.1086 206.884 59.7086C206.884 60.3011 206.775 60.8298 206.556 61.2948C206.338 61.7598 206.032 62.1273 205.638 62.3973C205.245 62.6598 204.79 62.7911 204.272 62.7911C203.828 62.7911 203.438 62.6973 203.103 62.5098C202.768 62.3223 202.513 62.0598 202.338 61.7223V65.1311H201.42ZM204.163 61.9698C204.505 61.9698 204.808 61.8798 205.07 61.6998C205.34 61.5123 205.551 61.2498 205.704 60.9123C205.864 60.5673 205.944 60.1623 205.944 59.6973C205.944 59.2323 205.864 58.8311 205.704 58.4936C205.551 58.1486 205.34 57.8861 205.07 57.7061C204.808 57.5186 204.505 57.4248 204.163 57.4248C203.799 57.4248 203.482 57.5186 203.212 57.7061C202.943 57.8861 202.735 58.1486 202.589 58.4936C202.444 58.8311 202.371 59.2323 202.371 59.6973C202.371 60.1623 202.444 60.5673 202.589 60.9123C202.735 61.2498 202.943 61.5123 203.212 61.6998C203.482 61.8798 203.799 61.9698 204.163 61.9698ZM210.011 62.7911C209.574 62.7911 209.21 62.7086 208.918 62.5436C208.627 62.3711 208.408 62.1461 208.262 61.8686C208.117 61.5836 208.044 61.2798 208.044 60.9573C208.044 60.5673 208.139 60.2373 208.328 59.9673C208.525 59.6898 208.798 59.4798 209.148 59.3373C209.497 59.1948 209.905 59.1236 210.372 59.1236H211.803C211.803 58.7411 211.76 58.4223 211.672 58.1673C211.585 57.9123 211.443 57.7211 211.246 57.5936C211.049 57.4661 210.787 57.4023 210.459 57.4023C210.131 57.4023 209.851 57.4886 209.618 57.6611C209.384 57.8261 209.239 58.0736 209.18 58.4036H208.241C208.284 58.0136 208.412 57.6873 208.623 57.4248C208.834 57.1548 209.1 56.9523 209.421 56.8173C209.749 56.6748 210.095 56.6036 210.459 56.6036C210.976 56.6036 211.403 56.7011 211.738 56.8961C212.073 57.0836 212.321 57.3498 212.481 57.6948C212.641 58.0323 212.721 58.4336 212.721 58.8986V62.6561H211.902L211.847 61.6436C211.774 61.8011 211.679 61.9511 211.563 62.0936C211.454 62.2286 211.322 62.3486 211.169 62.4536C211.016 62.5586 210.842 62.6411 210.645 62.7011C210.455 62.7611 210.244 62.7911 210.011 62.7911ZM210.142 61.9923C210.383 61.9923 210.605 61.9361 210.809 61.8236C211.013 61.7111 211.188 61.5611 211.333 61.3736C211.486 61.1786 211.603 60.9611 211.683 60.7211C211.763 60.4811 211.803 60.2298 211.803 59.9673V59.8548H210.448C210.106 59.8548 209.825 59.8998 209.607 59.9898C209.395 60.0798 209.242 60.2073 209.148 60.3723C209.053 60.5298 209.006 60.7098 209.006 60.9123C209.006 61.1298 209.049 61.3211 209.137 61.4861C209.224 61.6436 209.352 61.7673 209.519 61.8573C209.694 61.9473 209.902 61.9923 210.142 61.9923ZM214.238 62.6561V56.7386H215.068L215.134 57.8186C215.265 57.5486 215.436 57.3236 215.648 57.1436C215.859 56.9636 216.114 56.8286 216.413 56.7386C216.719 56.6486 217.061 56.6036 217.44 56.6036V57.5936H216.872C216.653 57.5936 216.442 57.6236 216.238 57.6836C216.034 57.7436 215.848 57.8411 215.68 57.9761C215.52 58.1111 215.393 58.2948 215.298 58.5273C215.203 58.7598 215.156 59.0523 215.156 59.4048V62.6561H214.238ZM221.873 62.6561L219.261 59.4611L221.72 56.7386H222.846L220.037 59.7986L220.048 59.1236L223.043 62.6561H221.873ZM218.496 62.6561V54.5561H219.414V62.6561H218.496ZM224.014 62.6561V54.5561H224.932V62.6561H224.014ZM228.862 62.7911C228.352 62.7911 227.9 62.6636 227.506 62.4086C227.113 62.1536 226.803 61.7936 226.577 61.3286C226.359 60.8636 226.25 60.3198 226.25 59.6973C226.25 59.0748 226.359 58.5311 226.577 58.0661C226.803 57.6011 227.113 57.2411 227.506 56.9861C227.907 56.7311 228.366 56.6036 228.883 56.6036C229.437 56.6036 229.9 56.7311 230.271 56.9861C230.643 57.2411 230.923 57.5823 231.113 58.0098C231.302 58.4373 231.397 58.9061 231.397 59.4161C231.397 59.4911 231.397 59.5661 231.397 59.6411C231.397 59.7161 231.393 59.8061 231.386 59.9111H226.938V59.1798H230.501C230.486 58.6023 230.322 58.1636 230.009 57.8636C229.703 57.5561 229.321 57.4023 228.862 57.4023C228.556 57.4023 228.271 57.4811 228.009 57.6386C227.754 57.7886 227.546 58.0136 227.386 58.3136C227.226 58.6136 227.146 58.9886 227.146 59.4386V59.7536C227.146 60.2486 227.226 60.6648 227.386 61.0023C227.546 61.3323 227.754 61.5798 228.009 61.7448C228.271 61.9098 228.556 61.9923 228.862 61.9923C229.27 61.9923 229.59 61.9136 229.823 61.7561C230.056 61.5911 230.228 61.3586 230.337 61.0586H231.244C231.157 61.3886 231.004 61.6848 230.785 61.9473C230.574 62.2098 230.304 62.4161 229.976 62.5661C229.656 62.7161 229.284 62.7911 228.862 62.7911Z" fill="#FCD6AB"/>
<path fill-rule="evenodd" clip-rule="evenodd" d="M86.5989 46.6142C87.5845 47.1973 88.7985 47.5199 90.265 47.5943C90.4333 47.5943 90.6255 47.5943 90.7938 47.5943C92.2723 47.5943 93.5343 47.3214 94.58 46.8003C95.6258 46.2668 96.1426 45.6217 96.1426 44.8898V37.632H91.1424C92.3204 37.7313 93.0175 38.1283 93.1858 38.7982V45.7209C93.1858 46.1552 92.8973 46.4902 92.4164 46.7632C91.9477 47.0484 91.3588 47.1973 90.6976 47.2222C90.4813 47.2222 90.2529 47.2222 90.0606 47.1973C89.5438 47.1229 89.087 46.9864 88.7263 46.7632C88.2336 46.4778 87.9571 46.1428 87.9571 45.7085V26.094C87.9691 25.6598 88.2216 25.2877 88.7384 24.9899C89.2192 24.7293 89.6639 24.5804 90.0606 24.5557C90.4693 24.5308 90.7337 24.5308 90.8539 24.5308C91.3708 24.5308 91.8996 24.5804 92.4164 24.6922C93.0776 24.8162 93.6305 25.0023 94.0873 25.2255C95.0008 25.6847 95.4455 26.2305 95.4455 26.8757V27.8433C95.2531 28.5257 94.568 28.9103 93.39 29.0219H95.109H96.1306V26.8757C96.1306 26.1437 95.6258 25.4985 94.58 24.9774C93.4501 24.444 92.1761 24.1587 90.7457 24.1587H90.5413C89.0389 24.1834 87.7408 24.5184 86.623 25.1388C85.6013 25.7343 85.0002 26.5779 85.0002 27.4959V44.2447C84.9882 45.175 85.5892 45.9939 86.6109 46.6142H86.5989ZM107.97 25.1759C106.961 24.5557 105.578 24.1959 104.028 24.1959C102.477 24.1959 101.095 24.5557 100.097 25.1759C99.0754 25.7714 98.4505 26.6152 98.4505 27.5332V36.0564C98.4505 36.9869 99.0754 37.8057 100.097 38.4135C101.095 39.009 102.501 39.3813 104.028 39.3813C104.965 39.3813 105.843 39.2448 106.648 38.9967V44.6417C106.648 45.0014 106.624 45.386 106.552 45.7705C106.468 46.2172 106.239 46.5398 105.879 46.7755C105.061 47.2345 104.34 47.2345 104.004 47.2345C103.667 47.2345 103.367 47.1973 103.042 47.1229C102.104 46.9244 101.395 46.4405 101.395 45.7458V43.8104C101.588 43.1032 102.261 42.6938 103.439 42.5822H98.4625V44.9022C98.4985 45.6713 99.0033 46.304 100.025 46.8128C100.794 47.1973 101.528 47.4207 102.213 47.4827C102.898 47.5572 103.439 47.5943 103.823 47.5943C104.4 47.5943 104.965 47.5447 105.542 47.4579C106.72 47.2594 107.67 46.8748 108.427 46.2917C109.196 45.7085 109.581 45.0387 109.605 44.2694V27.5208C109.593 26.6027 108.98 25.759 107.958 25.1635L107.97 25.1759ZM106.636 37.6072C106.564 37.9794 106.299 38.2895 105.867 38.55C105.35 38.8602 104.737 39.0092 104.016 39.0092C103.294 39.0092 102.681 38.8478 102.165 38.55C101.648 38.2523 101.395 37.8802 101.395 37.4459V26.0568C101.395 25.6225 101.672 25.3 102.165 25.0147C102.681 24.7045 103.294 24.5557 104.016 24.5557C104.737 24.5557 105.35 24.7169 105.867 25.0147C106.347 25.2877 106.648 25.6225 106.648 26.0568V37.6072H106.636ZM119.786 46.8748C120.892 47.3958 122.141 47.6564 123.535 47.6564H123.824C125.351 47.6315 126.661 47.2965 127.755 46.6763C128.776 46.0559 129.402 45.2247 129.402 44.3067V25.2255C129.593 24.568 130.243 24.2827 131.433 24.2083C130.135 24.2083 128.825 24.2083 127.527 24.2083H124.389C125.567 24.2952 126.229 24.568 126.421 25.238V45.783C126.421 46.2172 126.133 46.5522 125.652 46.8375C125.122 47.1353 124.509 47.2842 123.812 47.2842C123.115 47.2842 122.514 47.1353 121.962 46.8375C121.469 46.5522 121.192 46.2172 121.192 45.783V38.9223C121.192 38.2399 121.901 37.8305 123.295 37.694H118.187L118.175 44.9394C118.223 45.6962 118.752 46.3289 119.798 46.8748H119.786ZM137.984 37.8802C139.162 37.9173 139.955 38.1034 140.364 38.426C140.772 38.7485 140.976 39.3069 140.976 40.1133V40.1753C140.988 39.344 141 38.5004 141 37.6692C141 36.838 141 35.9943 140.976 35.1632V35.2252C140.976 36.0439 140.772 36.6023 140.387 36.9497C139.967 37.297 139.162 37.4832 137.984 37.5328L136.601 37.5575L136.638 24.5184H139.631C140.868 24.5557 141.891 24.7789 142.72 25.2008C143.574 25.6474 144.03 26.2057 144.077 26.8508V24.1463H131.601C132.755 24.2455 133.428 24.6177 133.632 25.2752V46.701C133.44 47.3587 132.791 47.5199 131.613 47.5943H144.077V44.8898C144.03 45.5473 143.574 46.1055 142.708 46.5398C141.891 46.9617 140.868 47.1973 139.631 47.2345H136.589V37.8802H138.007H137.984ZM153.213 47.6068H153.862C154.932 44.2074 156.026 40.6715 157.167 36.9993L157.3 36.565L160.389 47.6068H161.05C162.095 44.2447 163.201 40.746 164.307 37.1109C165.618 32.9052 166.867 28.8855 168.081 25.0519C168.31 24.4688 168.911 24.2455 169.993 24.171H165.726C166.651 24.2455 167.468 24.4937 167.468 24.9403C167.468 24.9774 167.468 25.0147 167.456 25.0519C165.545 30.9822 163.694 36.9373 161.915 42.8923C160.917 39.0959 159.896 35.312 158.875 31.528C159.56 29.2949 160.244 27.1362 160.894 25.0519C161.135 24.4688 161.734 24.2455 162.816 24.171H152.155C153.177 24.2579 153.826 24.5557 154.103 25.0767L156.987 35.4484C156.242 37.9173 155.484 40.3987 154.739 42.8923C153.153 36.9373 151.554 30.9945 149.907 25.0519C149.895 25.027 149.895 25.0023 149.895 24.9899C149.895 24.8162 150.064 24.6425 150.4 24.4937C150.773 24.3323 151.193 24.2207 151.674 24.171H144.992C146.013 24.2579 146.661 24.5557 146.914 25.0767L153.225 47.6192L153.213 47.6068ZM157.096 25.0395C157.096 25.0395 157.084 24.9899 157.084 24.965C157.084 24.8038 157.227 24.6549 157.528 24.5184C157.852 24.3572 158.249 24.2455 158.706 24.1834C159.584 24.2579 160.305 24.506 160.305 24.9278C160.305 24.965 160.305 25.0023 160.293 25.0395C159.715 26.8384 159.138 28.6249 158.574 30.399C158.081 28.6125 157.6 26.826 157.119 25.0395H157.096ZM175.774 37.8802H174.38L174.368 47.2345H177.408C178.647 47.1973 179.668 46.974 180.485 46.5398C181.351 46.0932 181.808 45.5349 181.856 44.8898V47.5943H169.392C170.57 47.5199 171.23 47.3587 171.411 46.701V25.2752C171.207 24.6177 170.533 24.2455 169.38 24.1463H181.856V26.8508C181.808 26.1933 181.351 25.635 180.498 25.2008C179.668 24.7789 178.647 24.5557 177.408 24.5184H174.416L174.38 37.5575L175.762 37.5328C176.952 37.4832 177.746 37.2847 178.166 36.9497C178.563 36.6147 178.755 36.0439 178.755 35.2252V35.1632C178.767 35.9943 178.779 36.838 178.779 37.6692C178.779 38.5004 178.779 39.344 178.755 40.1753V40.1133C178.755 39.2944 178.551 38.7362 178.142 38.426C177.734 38.1034 176.94 37.9173 175.762 37.8802H175.774ZM195.271 47.6068V44.9022C195.234 45.5597 194.778 46.1179 193.924 46.5522C193.095 46.974 192.061 47.2098 190.835 47.2469H187.794V44.3935C187.806 37.9794 187.818 31.5777 187.842 25.1884C188.035 24.568 188.707 24.233 189.861 24.1587H182.818C183.959 24.233 184.632 24.568 184.837 25.1884V46.7135C184.644 47.371 183.972 47.5199 182.806 47.6068H195.283H195.271ZM208.709 47.6068V44.9022C208.673 45.5597 208.228 46.1179 207.362 46.5522C206.533 46.974 205.5 47.2098 204.273 47.2469H201.233V44.3935C201.244 37.9794 201.256 31.5777 201.28 25.1884C201.473 24.568 202.146 24.233 203.299 24.1587H196.257C197.398 24.233 198.071 24.568 198.276 25.1884V46.7135C198.083 47.371 197.41 47.5199 196.244 47.6068H208.709ZM216.053 37.8802C217.231 37.9173 218.024 38.1034 218.433 38.426C218.841 38.7485 219.045 39.3069 219.045 40.1133V40.1753C219.057 39.344 219.069 38.5004 219.069 37.6692C219.069 36.838 219.069 35.9943 219.045 35.1632V35.2252C219.045 36.0439 218.841 36.6023 218.456 36.9497C218.036 37.297 217.231 37.4832 216.053 37.5328L214.67 37.5575L214.706 24.5184H217.7C218.937 24.5557 219.959 24.7789 220.789 25.2008C221.642 25.6474 222.099 26.2057 222.146 26.8508V24.1463H209.67C210.824 24.2455 211.497 24.6177 211.701 25.2752V46.701C211.509 47.3587 210.86 47.5199 209.682 47.5943H222.146V44.8898C222.099 45.5473 221.642 46.1055 220.777 46.5398C219.959 46.9617 218.937 47.1973 217.7 47.2345H214.658V37.8802H216.076H216.053ZM228.025 24.5308H230.38C231.269 24.5308 233.097 24.6673 233.037 25.4365V36.6395C233.037 36.8628 232.893 37.0489 232.628 37.235C232.363 37.421 230.813 37.818 228.025 38.4384V24.5184V24.5308ZM231.534 37.9794L231.642 37.9545C232.184 37.9794 232.604 38.1283 232.905 38.4135C233.205 38.6989 233.361 39.0339 233.361 39.3813L233.278 46.6887C233.072 47.3338 232.4 47.5075 231.222 47.5819H238.254C237.076 47.5075 236.414 47.3338 236.234 46.6763L236.306 41.0934C236.306 40.1257 235.886 39.3069 234.755 38.5997C234.118 38.2027 233.374 37.9298 232.471 37.7809C233.337 37.5948 233.987 37.4087 234.443 37.1978C235.573 36.6767 235.994 36.0812 235.994 35.374V26.6648C235.994 25.9575 235.573 25.362 234.443 24.8534C233.266 24.3323 231.811 24.1338 230.38 24.1338H223.049C224.19 24.2083 224.875 24.5433 225.068 25.1759V46.6887C224.875 47.3462 224.19 47.5075 223.049 47.5943H230.079C228.889 47.5199 228.204 47.3587 228.037 46.6887V46.5522H228.025V38.7734L231.522 37.9545L231.534 37.9794ZM244.155 34.4808L239.324 25.1884C239.01 24.6425 238.242 24.3695 237.315 24.1587H243.927C243.53 24.1834 243.169 24.2952 242.869 24.4937C242.592 24.6549 242.448 24.8658 242.448 25.1139V25.1884L246.872 33.7488L251.102 25.1759C251.102 25.1759 251.102 25.1263 251.102 25.1015C251.102 24.903 250.862 24.2579 250.02 24.1587H254.287C254.179 24.1587 254.083 24.1834 253.975 24.1959C253.013 24.3572 252.076 24.7914 251.703 25.1759L247.136 34.4188L247.1 46.6763C247.304 47.309 247.978 47.5075 249.119 47.5943H242.112C243.253 47.5199 243.951 47.309 244.131 46.6763V34.4808H244.155Z" fill="#FCD6AB"/>
<path fill-rule="evenodd" clip-rule="evenodd" d="M5.16411 43.9885C4.77948 44.2119 4.34677 44.3111 3.91406 44.2863C3.34912 44.2615 2.79621 44.0134 2.37551 43.5544L1.25767 42.3509C1.00525 42.078 0.764853 41.805 0.560515 41.5072C0.356178 41.1971 0.1879 40.8621 0.091741 40.4651C-0.0164377 40.0433 -0.00441783 39.7331 0.00760202 39.3981C0.00760202 39.2989 0.00760202 39.2121 0.00760202 39.0633V35.9492C0.00760202 35.8004 0.00760202 35.7011 0.00760202 35.6142C0.00760202 35.2669 -0.0164377 34.9691 0.091741 34.5349C0.1879 34.1379 0.356178 33.8029 0.560515 33.4928C0.764853 33.195 1.00525 32.922 1.25767 32.6491L2.37551 31.4456C2.79621 30.9866 3.36114 30.7385 3.9381 30.7137C4.41888 30.6889 4.89968 30.8254 5.32038 31.1107C5.38048 30.2919 5.57279 29.4979 5.87329 28.7535C6.23389 27.8726 6.75074 27.0663 7.43587 26.359L25.694 7.48891C26.319 6.84377 27.0522 6.32271 27.8456 5.95051C28.5187 5.64035 29.2279 5.42945 29.9731 5.33019C29.7567 4.93319 29.6606 4.48656 29.6847 4.03993C29.7087 3.45683 29.949 2.88614 30.3938 2.45191L31.5598 1.29811C31.8241 1.03758 32.0886 0.78945 32.3771 0.578541C32.6775 0.367632 33.0021 0.193942 33.3868 0.0946914C33.7954 -0.0169663 34.0839 -0.00455992 34.4204 0.00784648C34.5166 0.00784648 34.6007 0.00784648 34.745 0.00784648H37.762C37.9062 0.00784648 38.0024 0.00784648 38.0864 0.00784648C38.423 0.00784648 38.7115 -0.0169663 39.1202 0.0946914C39.5048 0.193942 39.8294 0.367632 40.1298 0.578541C40.4183 0.78945 40.6828 1.03758 40.9472 1.29811L42.1131 2.45191C42.5579 2.89854 42.7982 3.48164 42.8223 4.06474C42.8463 4.5734 42.7141 5.08206 42.4137 5.51629C43.1949 5.59073 43.9401 5.77682 44.6613 6.09939C45.5147 6.47159 46.2961 7.01746 46.9572 7.69981C52.931 13.8783 59.5419 20.2551 65.2393 26.6071C65.8283 27.2399 66.2971 27.9346 66.6457 28.7039C66.9702 29.4359 67.1866 30.2175 67.2827 31.0486C67.6793 30.8005 68.1241 30.7012 68.5568 30.7137C69.1338 30.7385 69.6866 30.9866 70.1194 31.4456L71.2373 32.6491C71.4896 32.922 71.73 33.195 71.9344 33.4928C72.1388 33.8029 72.3069 34.1379 72.4031 34.5349C72.5113 34.9691 72.4993 35.2669 72.4873 35.6142C72.4873 35.7135 72.4873 35.8004 72.4873 35.9492V39.0633C72.4873 39.2121 72.4873 39.3114 72.4873 39.3981C72.4873 39.7455 72.5113 40.0433 72.4031 40.4651C72.3069 40.8621 72.1388 41.1971 71.9344 41.5072C71.73 41.805 71.4896 42.078 71.2373 42.3509L70.1194 43.5544C69.6987 44.0134 69.1338 44.2615 68.5568 44.2863C68.064 44.3111 67.5712 44.1746 67.1505 43.8645C67.0784 44.6709 66.898 45.4525 66.5976 46.1845C66.237 47.0654 65.7202 47.8717 65.047 48.5665C58.965 54.869 52.9069 61.2459 46.7889 67.4986C46.1759 68.1066 45.5027 68.6029 44.7695 68.9626C44.0604 69.2976 43.3031 69.5209 42.4978 69.6201C42.7261 70.0296 42.8343 70.4886 42.8223 70.9352C42.7982 71.5307 42.5579 72.1139 42.1131 72.5481L40.9472 73.7019C40.6828 73.9624 40.4183 74.2105 40.1298 74.4215C39.8294 74.6324 39.5048 74.806 39.1202 74.9052C38.7115 75.017 38.423 75.0045 38.0864 74.9921C37.9904 74.9921 37.9062 74.9921 37.762 74.9921H34.745C34.6007 74.9921 34.5045 74.9921 34.4204 74.9921C34.0839 74.9921 33.7954 75.017 33.3868 74.9052C33.0021 74.806 32.6775 74.6324 32.3771 74.4215C32.0886 74.2105 31.8241 73.9624 31.5598 73.7019L30.3938 72.5481C29.949 72.1015 29.7087 71.5184 29.6847 70.9352C29.6606 70.439 29.7927 69.9304 30.0692 69.5085C29.2759 69.4465 28.5067 69.248 27.7975 68.9379C26.944 68.5656 26.1628 68.0198 25.4897 67.325L7.25558 48.43C6.63053 47.7849 6.12571 47.0281 5.76511 46.1969C5.46461 45.5021 5.26027 44.7578 5.17614 44.001L5.16411 43.9885ZM22.3885 36.6687C26.956 36.6687 25.3094 37.3511 30.7423 31.7186C31.8963 30.5153 32.8699 29.4979 34.0358 28.3069C35.959 26.3466 35.4301 26.7436 35.4421 23.0714C34.0599 23.8281 33.0863 25.2672 31.9684 26.4211L23.855 34.8202C22.9295 35.7631 22.8453 35.6266 22.3885 36.6687ZM36.8966 22.848C36.9326 26.57 36.4157 26.4707 38.0263 28.0711L44.1084 34.3736C46.861 37.227 45.5868 36.7929 50.3347 36.7556C49.8179 35.8747 37.8341 23.4188 36.8966 22.848ZM22.1723 38.2693C22.5448 39.0633 22.3885 38.7902 23.0016 39.4354C25.033 41.5941 34.2282 51.4076 35.4902 52.0899C35.4781 47.0033 36.2594 48.9263 30.7423 43.2194C25.2132 37.5 27.0763 38.294 22.1723 38.2693ZM36.9086 52.1395C38.2307 51.4324 46.6807 42.2516 48.6279 40.2542C48.9525 39.9192 49.2168 39.6959 49.5174 39.361C50.1063 38.6786 49.8419 39.1129 50.2265 38.2816C45.4907 38.2692 47.2096 37.5 41.6444 43.2566C36.1393 48.9511 36.9086 47.0405 36.9086 52.1395ZM36.1754 45.4401C36.7403 45.13 36.7523 45.0431 37.2811 44.5096C38.7717 42.9464 43.4354 38.4678 43.8921 37.227L38.1345 31.3836C37.2811 30.4904 37.0889 30.0934 36.0912 29.5351L28.5187 37.2642L36.1873 45.4525L36.1754 45.4401ZM68.4607 33.0709L63.5806 37.4876L68.4607 41.9042L69.5785 40.7009C70.3719 39.8449 70.1795 39.8448 70.1795 39.0508V37.4876V35.9244C70.1795 35.118 70.3719 35.118 69.5785 34.2744L68.4607 33.0709ZM31.9804 4.15159L36.2474 9.20099L40.5145 4.15159L39.3486 2.99779C38.5312 2.17896 38.5312 2.37748 37.75 2.37748H36.2474H34.745C33.9637 2.37748 33.9637 2.17896 33.1464 2.99779L31.9804 4.15159ZM4.04627 41.9042L8.92634 37.4876L4.04627 33.0709L2.92842 34.2744C2.13511 35.1304 2.32743 35.1304 2.32743 35.9244V37.4876V39.0508C2.32743 39.8573 2.13511 39.8572 2.92842 40.7009L4.04627 41.9042ZM40.5265 70.836L36.2594 65.7866L31.9924 70.836L33.1584 71.9898C33.9757 72.8086 33.9757 72.6101 34.757 72.6101H36.2594H37.762C38.5433 72.6101 38.5433 72.8086 39.3606 71.9898L40.5265 70.836ZM64.8788 43.0829C64.8668 41.681 64.3138 40.2915 63.256 39.1996C62.5349 38.4552 61.6694 37.9466 60.7439 37.6985C61.2727 37.562 61.7055 37.3511 62.0662 37.0906C62.607 36.6811 63.0157 36.3463 63.2921 36.0733C63.6888 35.6639 64.0133 35.2049 64.3138 34.7085C64.9027 33.654 65.1191 32.5374 64.9989 31.3589C64.8907 30.1677 64.422 29.1256 63.5926 28.2449L45.3345 9.36228C44.3369 8.33254 43.0026 7.81148 41.6564 7.84869C40.2981 7.8611 38.964 8.4318 37.9062 9.52356C37.1729 10.2928 36.6681 11.2232 36.4397 12.2033C36.1634 11.1612 35.6465 10.2307 34.8772 9.42431L34.7329 9.27543C33.6752 8.2457 32.4372 7.69981 30.9948 7.62537C29.6486 7.58816 28.3143 8.10923 27.3167 9.13896L9.05855 28.0091C8.03686 29.0636 7.56808 30.4035 7.59213 31.8179C7.62819 33.1701 8.09697 34.386 9.0225 35.5026C9.13066 35.639 9.25087 35.7631 9.37107 35.8871C10.0322 36.5695 10.7654 37.0657 11.5467 37.3511C10.6452 37.6489 9.83984 38.1575 9.14269 38.8771L8.99845 39.026C8.01283 40.1178 7.47192 41.408 7.39981 42.8968C7.36376 44.2863 7.85656 45.6634 8.85421 46.6931L27.0883 65.5881C28.11 66.6426 29.4082 67.1265 30.7664 67.1141C32.0766 67.0769 33.2546 66.5806 34.3242 65.6378C34.4565 65.5261 34.5767 65.402 34.6969 65.278C35.3459 64.608 35.8027 63.8884 36.0912 63.1069C36.2234 63.5286 36.3917 63.9009 36.608 64.1986C37.0048 64.7692 37.3172 65.1911 37.5937 65.464C37.9904 65.8735 38.423 66.2209 38.9159 66.5186C39.9375 67.1265 41.0073 67.3623 42.1492 67.2258C43.3031 67.1141 44.3008 66.6303 45.1542 65.7618L63.4003 46.8544C64.3979 45.8248 64.9027 44.4476 64.8548 43.0581L64.8788 43.0829ZM58.0875 37.6985C57.5706 37.5248 57.1139 37.227 56.6812 36.83L54.169 34.1999L57.5586 30.6889C56.8855 31.6566 56.8735 32.5995 57.5105 33.5175L59.614 35.7011C60.3712 36.4826 61.3689 36.5322 62.2343 36.0981C62.5228 35.9492 62.7753 35.7755 63.0036 35.5398C63.232 35.3041 63.7128 34.7954 63.773 33.7036C63.7609 33.1826 63.5566 32.6491 63.1358 32.0907C62.7633 31.607 62.3666 31.1604 61.97 30.7509L55.8157 24.374C55.5514 25.2176 55.0946 25.9869 54.4576 26.6567C53.4238 27.7237 52.0535 28.3069 50.7194 28.3316C49.3611 28.3565 48.039 27.8726 47.0293 26.8305L37.7379 17.2155C37.0889 16.5456 36.6561 15.7267 36.4397 14.8582C36.2714 15.4042 35.983 15.888 35.5743 16.3099L33.2305 18.7291L32.5453 17.9971L31.8361 17.2775L31.3674 16.7938C32.2809 17.5009 33.1824 17.5381 34.0478 16.9054L35.1056 15.8136C35.8027 15.094 36.0912 14.1635 35.971 12.9974C35.9109 12.4266 35.7186 11.8312 35.418 11.2232C35.1898 10.7394 34.8772 10.3052 34.5286 9.94537C34.4444 9.85852 34.2522 9.68484 33.9517 9.4119C33.6632 9.15136 33.2065 9.0149 32.5813 8.96528C31.8962 8.94046 31.3193 9.18859 30.8505 9.67244L9.47925 31.793C9.01047 32.2769 8.8422 32.86 8.85421 33.5175C8.85421 34.0262 9.01047 34.4976 9.28693 34.9443C9.40712 35.1055 9.55137 35.2669 9.6956 35.4281C10.1764 35.8748 10.7534 36.0981 11.3784 36.1229C12.0154 36.1478 12.5683 35.974 13.0492 35.4901L20.5976 27.6865C21.2227 26.8056 21.1746 25.8753 20.4774 24.9323L23.8791 28.4558L15.9699 36.644C15.6214 37.0038 15.2247 37.2766 14.78 37.4627C15.1526 37.6365 15.4892 37.8846 15.7897 38.1947L18.1335 40.614L17.4244 41.3211L16.7273 42.0655L16.2584 42.5494C16.9435 41.6065 16.9796 40.676 16.3666 39.7828L15.3089 38.691C14.6117 37.9715 13.7103 37.6736 12.5924 37.7854C12.0395 37.8474 11.4745 38.0459 10.8856 38.3685C10.4168 38.6041 9.9961 38.9267 9.64752 39.2865C9.56339 39.3734 9.39511 39.5719 9.14269 39.882C8.89027 40.1797 8.75805 40.6636 8.722 41.2964C8.69795 42.0035 8.93836 42.599 9.40713 43.0829L30.7664 65.2159C31.2352 65.6997 31.7881 65.8859 32.4372 65.861C32.93 65.861 33.3868 65.6998 33.8194 65.4144C33.9757 65.2904 34.132 65.1415 34.2883 64.9926C34.7089 64.4964 34.9373 63.9009 34.9493 63.2557C34.9734 62.5857 34.8051 62.015 34.3362 61.5312L26.7999 53.7276C25.9465 53.0825 25.045 53.1321 24.1315 53.8516L27.5331 50.3282L35.4421 58.5165C35.7907 58.8763 36.0432 59.2733 36.2234 59.7323C36.3917 59.3601 36.6201 59.0002 36.9206 58.6777L39.4568 56.0724L42.8463 59.5834C41.9088 58.8886 41.0073 58.8762 40.1178 59.5337L38.0144 61.7172C37.2571 62.4989 37.209 63.541 37.6297 64.4343C37.774 64.732 37.9423 65.005 38.1706 65.2282C38.399 65.464 38.8799 65.9728 39.9375 66.0224C40.4424 66.0099 40.9592 65.799 41.5002 65.3524C41.9689 64.9677 42.4016 64.5584 42.7862 64.149L48.9405 57.7721C48.1231 57.4991 47.3778 57.0276 46.7408 56.3578C45.7071 55.2908 45.1542 53.864 45.1301 52.487C45.1061 51.0726 45.5748 49.7202 46.5845 48.6657L55.8758 39.0508C56.513 38.3933 57.2943 37.9466 58.1356 37.7233L58.0875 37.6985ZM50.4429 56.1592L63.0396 43.1449C63.5085 42.661 63.6648 42.078 63.6407 41.4204C63.6167 40.7132 63.3762 40.1054 62.8835 39.5966C62.3906 39.088 61.8017 38.8399 61.1166 38.8151C60.4915 38.7779 59.9386 38.964 59.4698 39.4478L47.0654 52.2884C46.5965 52.7722 46.3562 53.3802 46.3801 54.075C46.4042 54.7821 46.6446 55.39 47.1375 55.8988C47.6302 56.4074 48.2192 56.6555 48.9044 56.6803C49.4693 56.6803 49.9862 56.5314 50.4549 56.1592H50.4429ZM54.2893 22.8109L41.7165 9.77169C41.2477 9.28784 40.6828 9.11415 40.0577 9.15136C39.3726 9.17618 38.7837 9.4243 38.2908 9.93296C37.798 10.4416 37.5576 11.0495 37.5336 11.7567C37.4975 12.4142 37.6778 12.985 38.1465 13.4687L50.5511 26.3094C51.0198 26.7933 51.5968 27.0414 52.2819 27.0166C52.967 26.9918 53.5561 26.7436 54.0488 26.235C54.5417 25.7264 54.782 25.1184 54.8061 24.4112C54.8061 23.8281 54.6619 23.2822 54.3013 22.8109H54.2893ZM3.95011 43.79C4.39485 43.8149 4.83958 43.666 5.2122 43.3559C5.24825 43.3186 5.30836 43.2937 5.36845 43.2814C5.50068 43.2814 5.62087 43.3806 5.62087 43.5171C5.66895 44.3731 5.87329 45.2044 6.20984 45.9736C6.5464 46.7428 7.01517 47.4499 7.59213 48.0579L25.8263 66.9527C26.4633 67.6104 27.1965 68.119 27.9778 68.4664C28.7832 68.8138 29.6486 69.0122 30.5501 69.0246C30.6102 69.0246 30.6582 69.0495 30.7063 69.0868C30.8024 69.1735 30.8144 69.3349 30.7303 69.4341L30.6102 69.583C30.2856 69.9675 30.1414 70.439 30.1654 70.9105C30.1895 71.3819 30.3698 71.8409 30.7183 72.1882L31.8842 73.3421C32.1367 73.5902 32.3771 73.826 32.6415 74.012C32.8939 74.1981 33.1824 74.347 33.4949 74.4339C33.8435 74.5331 34.0959 74.5208 34.3963 74.5083C34.5166 74.5083 34.6368 74.5083 34.7329 74.5083H37.75C37.8461 74.5083 37.9784 74.5083 38.0864 74.5083C38.387 74.5083 38.6394 74.5331 38.9879 74.4339C39.3125 74.347 39.589 74.1981 39.8414 74.012C40.1058 73.826 40.3462 73.5902 40.5987 73.3421L41.7645 72.1882C42.1131 71.8409 42.3055 71.3819 42.3175 70.9105C42.3415 70.439 42.1853 69.9675 41.8727 69.583H41.8607C41.8607 69.583 41.8006 69.4713 41.7886 69.4093C41.7886 69.2728 41.8847 69.1488 42.017 69.1488L42.3295 69.1239C43.1108 69.0371 43.856 68.8386 44.5411 68.5036C45.2263 68.1686 45.8633 67.7096 46.4282 67.1389L64.6865 48.2191C65.3114 47.574 65.7922 46.8172 66.1288 45.9984C66.4654 45.1671 66.6577 44.2739 66.6697 43.3682C66.6697 43.3062 66.6938 43.2566 66.7297 43.207C66.8139 43.1078 66.9702 43.0953 67.0663 43.1821L67.2346 43.331C67.5953 43.666 68.064 43.8149 68.5088 43.79C68.9655 43.7653 69.4103 43.5791 69.7468 43.207L70.8646 42.0035C71.1051 41.743 71.3214 41.4949 71.5137 41.2219C71.694 40.9614 71.8262 40.6636 71.9104 40.3286C72.0065 39.9689 71.9945 39.7084 71.9825 39.3981C71.9825 39.2741 71.9825 39.15 71.9825 39.0508V35.9367C71.9825 35.8375 71.9825 35.7011 71.9825 35.5894C71.9825 35.2793 72.0065 35.0188 71.9104 34.6589C71.8262 34.324 71.682 34.0386 71.5137 33.7656C71.3335 33.4928 71.1051 33.2323 70.8646 32.9841L69.7468 31.7806C69.4103 31.4209 68.9655 31.2224 68.5088 31.1975C68.052 31.1728 67.5953 31.334 67.2346 31.6566H67.2226C67.2226 31.6566 67.1264 31.731 67.0663 31.7434C66.9341 31.7434 66.8139 31.6441 66.8139 31.5077L66.7898 31.1727C66.7058 30.3539 66.5135 29.5971 66.1889 28.89C65.8643 28.1827 65.4317 27.5252 64.8667 26.9421L46.5845 8.0472C45.9595 7.40206 45.2263 6.90581 44.445 6.55842C43.6396 6.21105 42.7862 6.01255 41.8967 5.98774C41.8366 5.98774 41.7886 5.96293 41.7405 5.9257C41.6444 5.83886 41.6324 5.67757 41.7165 5.57832L41.8607 5.40464C42.1853 5.02004 42.3295 4.54859 42.3055 4.07715C42.2814 3.6057 42.1011 3.14666 41.7525 2.79929L40.5867 1.64549C40.3342 1.39736 40.0938 1.16164 39.8294 0.975546C39.577 0.78945 39.2885 0.640573 38.9759 0.553729C38.6274 0.454478 38.375 0.466884 38.0744 0.47929C37.9543 0.47929 37.8341 0.47929 37.7379 0.47929H34.7209C34.6248 0.47929 34.4925 0.47929 34.3843 0.47929C34.0839 0.47929 33.8315 0.454478 33.4828 0.553729C33.1584 0.640573 32.8819 0.78945 32.6294 0.975546C32.3651 1.16164 32.1247 1.39736 31.8722 1.64549L30.7063 2.79929C30.3578 3.14666 30.1774 3.5933 30.1534 4.05234C30.1293 4.51137 30.2616 4.98281 30.5741 5.35501C30.6102 5.39222 30.6341 5.45426 30.6461 5.51629C30.6461 5.65276 30.5501 5.77682 30.4179 5.77682C29.6005 5.82645 28.7951 6.03736 28.0499 6.38474C27.3047 6.73211 26.6196 7.21596 26.0425 7.82387L7.78445 26.694C7.14739 27.3515 6.6666 28.1084 6.33005 28.9271C5.99348 29.7584 5.80117 30.6641 5.78916 31.5945C5.78916 31.6566 5.76511 31.7062 5.72905 31.7559C5.64491 31.8551 5.48866 31.8675 5.3925 31.7806L5.24825 31.6566C4.88766 31.3216 4.41888 31.1728 3.97415 31.1975C3.5174 31.2224 3.07266 31.4085 2.73611 31.7806L1.61827 32.9841C1.37786 33.2446 1.16151 33.4928 0.969191 33.7656C0.788892 34.0263 0.656674 34.324 0.572535 34.6589C0.476376 35.0188 0.488397 35.2793 0.500416 35.5894C0.500416 35.7135 0.500416 35.8375 0.500416 35.9367V39.0508C0.500416 39.15 0.500416 39.2865 0.500416 39.3981C0.500416 39.7084 0.476376 39.9689 0.572535 40.3286C0.656674 40.6636 0.800912 40.949 0.969191 41.2219C1.14949 41.4949 1.37786 41.7554 1.61827 42.0035L2.73611 43.207C3.07266 43.5668 3.50538 43.7652 3.95011 43.7776V43.79Z" fill="#FCD6AB"/>
</g>
<defs>
<clipPath id="clip0_692_278">
<rect width="255" height="75" fill="white"/>
</clipPath>
</defs>
</svg>
