<svg width="211" height="60" viewBox="0 0 211 60" fill="none" xmlns="http://www.w3.org/2000/svg">
<path d="M92.0336 50.2332C91.6436 50.2332 91.3046 50.1582 91.0166 50.0082C90.7346 49.8582 90.5096 49.6572 90.3416 49.4052C90.1796 49.1532 90.0776 48.8772 90.0356 48.5772H90.7376C90.8036 48.8952 90.9506 49.1412 91.1786 49.3152C91.4066 49.4892 91.6946 49.5762 92.0426 49.5762C92.3606 49.5762 92.6396 49.4832 92.8796 49.2972C93.1196 49.1052 93.3116 48.8202 93.4556 48.4422C93.6056 48.0582 93.6926 47.5752 93.7166 46.9932C93.7226 46.9572 93.7256 46.9242 93.7256 46.8942C93.7256 46.8582 93.7256 46.8222 93.7256 46.7862C93.6416 46.9782 93.5156 47.1552 93.3476 47.3172C93.1796 47.4792 92.9756 47.6112 92.7356 47.7132C92.5016 47.8092 92.2376 47.8572 91.9436 47.8572C91.5956 47.8572 91.2686 47.7732 90.9626 47.6052C90.6566 47.4372 90.4106 47.2032 90.2246 46.9032C90.0386 46.5972 89.9456 46.2402 89.9456 45.8322C89.9456 45.4782 90.0296 45.1392 90.1976 44.8152C90.3716 44.4912 90.6146 44.2272 90.9266 44.0232C91.2446 43.8192 91.6166 43.7172 92.0426 43.7172C92.4926 43.7172 92.8706 43.8012 93.1766 43.9692C93.4886 44.1372 93.7346 44.3652 93.9146 44.6532C94.1006 44.9352 94.2356 45.2562 94.3196 45.6162C94.4036 45.9762 94.4456 46.3452 94.4456 46.7232C94.4456 47.4132 94.3496 48.0222 94.1576 48.5502C93.9716 49.0782 93.6986 49.4922 93.3386 49.7922C92.9846 50.0862 92.5496 50.2332 92.0336 50.2332ZM92.0966 47.2002C92.3666 47.2002 92.6096 47.1402 92.8256 47.0202C93.0476 46.8942 93.2216 46.7262 93.3476 46.5162C93.4736 46.3002 93.5366 46.0572 93.5366 45.7872C93.5366 45.5052 93.4736 45.2592 93.3476 45.0492C93.2216 44.8392 93.0476 44.6772 92.8256 44.5632C92.6096 44.4432 92.3666 44.3832 92.0966 44.3832C91.8386 44.3832 91.6046 44.4432 91.3946 44.5632C91.1846 44.6832 91.0166 44.8482 90.8906 45.0582C90.7706 45.2682 90.7106 45.5142 90.7106 45.7962C90.7106 46.0782 90.7706 46.3242 90.8906 46.5342C91.0166 46.7442 91.1846 46.9092 91.3946 47.0292C91.6046 47.1432 91.8386 47.2002 92.0966 47.2002ZM98.0778 50.1252V43.8252H101.975V44.4462H98.8338V46.6422H101.705V47.2542H98.8338V49.5042H101.975V50.1252H98.0778ZM103.148 50.1252V45.3912H103.832L103.868 46.0392C104.012 45.8052 104.207 45.6222 104.453 45.4902C104.699 45.3522 104.957 45.2832 105.227 45.2832C105.455 45.2832 105.659 45.3162 105.839 45.3822C106.025 45.4422 106.187 45.5382 106.325 45.6702C106.463 45.7962 106.574 45.9552 106.658 46.1472C106.814 45.8652 107.024 45.6522 107.288 45.5082C107.558 45.3582 107.84 45.2832 108.134 45.2832C108.482 45.2832 108.779 45.3522 109.025 45.4902C109.277 45.6222 109.469 45.8262 109.601 46.1022C109.739 46.3722 109.808 46.7112 109.808 47.1192V50.1252H109.061V47.2002C109.061 46.7742 108.968 46.4562 108.782 46.2462C108.596 46.0362 108.344 45.9312 108.026 45.9312C107.81 45.9312 107.612 45.9882 107.432 46.1022C107.258 46.2162 107.117 46.3842 107.009 46.6062C106.907 46.8282 106.856 47.0982 106.856 47.4162V50.1252H106.1V47.2002C106.1 46.7742 106.007 46.4562 105.821 46.2462C105.635 46.0362 105.386 45.9312 105.074 45.9312C104.864 45.9312 104.669 45.9882 104.489 46.1022C104.315 46.2162 104.174 46.3842 104.066 46.6062C103.958 46.8282 103.904 47.0982 103.904 47.4162V50.1252H103.148ZM113.092 50.2332C112.654 50.2332 112.267 50.1312 111.931 49.9272C111.595 49.7232 111.334 49.4352 111.148 49.0632C110.962 48.6912 110.869 48.2562 110.869 47.7582C110.869 47.2542 110.962 46.8192 111.148 46.4532C111.34 46.0812 111.604 45.7932 111.94 45.5892C112.282 45.3852 112.672 45.2832 113.11 45.2832C113.554 45.2832 113.941 45.3852 114.271 45.5892C114.607 45.7932 114.868 46.0812 115.054 46.4532C115.24 46.8192 115.333 47.2542 115.333 47.7582C115.333 48.2562 115.237 48.6912 115.045 49.0632C114.859 49.4352 114.598 49.7232 114.262 49.9272C113.926 50.1312 113.536 50.2332 113.092 50.2332ZM113.092 49.5852C113.368 49.5852 113.617 49.5192 113.839 49.3872C114.061 49.2492 114.235 49.0452 114.361 48.7752C114.493 48.4992 114.559 48.1602 114.559 47.7582C114.559 47.3502 114.496 47.0112 114.37 46.7412C114.244 46.4712 114.07 46.2702 113.848 46.1382C113.632 46.0002 113.386 45.9312 113.11 45.9312C112.84 45.9312 112.594 46.0002 112.372 46.1382C112.15 46.2702 111.973 46.4712 111.841 46.7412C111.709 47.0112 111.643 47.3502 111.643 47.7582C111.643 48.1602 111.706 48.4992 111.832 48.7752C111.964 49.0452 112.138 49.2492 112.354 49.3872C112.576 49.5192 112.822 49.5852 113.092 49.5852ZM118.088 50.1252C117.818 50.1252 117.584 50.0832 117.386 49.9992C117.188 49.9152 117.035 49.7742 116.927 49.5762C116.825 49.3722 116.774 49.0992 116.774 48.7572V46.0302H115.946V45.3912H116.774L116.873 44.2122H117.53V45.3912H118.871V46.0302H117.53V48.7572C117.53 49.0392 117.587 49.2312 117.701 49.3332C117.815 49.4292 118.016 49.4772 118.304 49.4772H118.853V50.1252H118.088ZM119.981 50.1252V45.3912H120.737V50.1252H119.981ZM120.359 44.4912C120.209 44.4912 120.083 44.4432 119.981 44.3472C119.885 44.2452 119.837 44.1192 119.837 43.9692C119.837 43.8192 119.885 43.6992 119.981 43.6092C120.083 43.5132 120.209 43.4652 120.359 43.4652C120.503 43.4652 120.626 43.5132 120.728 43.6092C120.83 43.6992 120.881 43.8192 120.881 43.9692C120.881 44.1192 120.83 44.2452 120.728 44.3472C120.626 44.4432 120.503 44.4912 120.359 44.4912ZM124.113 50.2332C123.675 50.2332 123.288 50.1312 122.952 49.9272C122.616 49.7232 122.355 49.4352 122.169 49.0632C121.983 48.6912 121.89 48.2562 121.89 47.7582C121.89 47.2542 121.983 46.8192 122.169 46.4532C122.361 46.0812 122.625 45.7932 122.961 45.5892C123.303 45.3852 123.693 45.2832 124.131 45.2832C124.575 45.2832 124.962 45.3852 125.292 45.5892C125.628 45.7932 125.889 46.0812 126.075 46.4532C126.261 46.8192 126.354 47.2542 126.354 47.7582C126.354 48.2562 126.258 48.6912 126.066 49.0632C125.88 49.4352 125.619 49.7232 125.283 49.9272C124.947 50.1312 124.557 50.2332 124.113 50.2332ZM124.113 49.5852C124.389 49.5852 124.638 49.5192 124.86 49.3872C125.082 49.2492 125.256 49.0452 125.382 48.7752C125.514 48.4992 125.58 48.1602 125.58 47.7582C125.58 47.3502 125.517 47.0112 125.391 46.7412C125.265 46.4712 125.091 46.2702 124.869 46.1382C124.653 46.0002 124.407 45.9312 124.131 45.9312C123.861 45.9312 123.615 46.0002 123.393 46.1382C123.171 46.2702 122.994 46.4712 122.862 46.7412C122.73 47.0112 122.664 47.3502 122.664 47.7582C122.664 48.1602 122.727 48.4992 122.853 48.7752C122.985 49.0452 123.159 49.2492 123.375 49.3872C123.597 49.5192 123.843 49.5852 124.113 49.5852ZM127.45 50.1252V45.3912H128.134L128.17 46.1382C128.308 45.8682 128.506 45.6582 128.764 45.5082C129.028 45.3582 129.331 45.2832 129.673 45.2832C130.021 45.2832 130.324 45.3492 130.582 45.4812C130.84 45.6132 131.041 45.8142 131.185 46.0842C131.329 46.3542 131.401 46.6962 131.401 47.1102V50.1252H130.645V47.1912C130.645 46.7712 130.54 46.4562 130.33 46.2462C130.126 46.0362 129.85 45.9312 129.502 45.9312C129.268 45.9312 129.052 45.9882 128.854 46.1022C128.656 46.2102 128.497 46.3722 128.377 46.5882C128.263 46.8042 128.206 47.0682 128.206 47.3802V50.1252H127.45ZM134.363 50.2332C133.937 50.2332 133.583 50.1702 133.301 50.0442C133.025 49.9122 132.815 49.7322 132.671 49.5042C132.527 49.2702 132.44 49.0002 132.41 48.6942H133.184C133.208 48.8562 133.262 49.0062 133.346 49.1442C133.436 49.2762 133.565 49.3842 133.733 49.4682C133.901 49.5522 134.114 49.5942 134.372 49.5942C134.576 49.5942 134.75 49.5642 134.894 49.5042C135.038 49.4382 135.146 49.3482 135.218 49.2342C135.296 49.1202 135.335 48.9882 135.335 48.8382C135.335 48.6402 135.29 48.4872 135.2 48.3792C135.116 48.2652 134.99 48.1812 134.822 48.1272C134.66 48.0672 134.456 48.0222 134.21 47.9922C133.946 47.9562 133.712 47.9052 133.508 47.8392C133.304 47.7732 133.13 47.6862 132.986 47.5782C132.848 47.4702 132.743 47.3352 132.671 47.1732C132.599 47.0112 132.563 46.8192 132.563 46.5972C132.563 46.3392 132.632 46.1112 132.77 45.9132C132.908 45.7152 133.103 45.5622 133.355 45.4542C133.613 45.3402 133.916 45.2832 134.264 45.2832C134.774 45.2832 135.176 45.4002 135.47 45.6342C135.77 45.8682 135.947 46.2012 136.001 46.6332H135.254C135.224 46.4112 135.122 46.2372 134.948 46.1112C134.774 45.9852 134.543 45.9222 134.255 45.9222C133.949 45.9222 133.718 45.9792 133.562 46.0932C133.406 46.2072 133.328 46.3572 133.328 46.5432C133.328 46.6812 133.361 46.8072 133.427 46.9212C133.499 47.0292 133.619 47.1222 133.787 47.2002C133.955 47.2722 134.18 47.3262 134.462 47.3622C134.816 47.4042 135.116 47.4732 135.362 47.5692C135.608 47.6592 135.794 47.8002 135.92 47.9922C136.052 48.1842 136.115 48.4452 136.109 48.7752C136.109 49.0872 136.034 49.3512 135.884 49.5672C135.74 49.7832 135.536 49.9482 135.272 50.0622C135.014 50.1762 134.711 50.2332 134.363 50.2332ZM137.529 50.1702C137.385 50.1702 137.262 50.1222 137.16 50.0262C137.064 49.9242 137.016 49.8012 137.016 49.6572C137.016 49.5132 137.064 49.3932 137.16 49.2972C137.262 49.1952 137.385 49.1442 137.529 49.1442C137.685 49.1442 137.808 49.1952 137.898 49.2972C137.994 49.3932 138.042 49.5132 138.042 49.6572C138.042 49.8012 137.994 49.9242 137.898 50.0262C137.808 50.1222 137.685 50.1702 137.529 50.1702ZM144.239 50.2332C143.663 50.2332 143.156 50.0982 142.718 49.8282C142.28 49.5522 141.938 49.1712 141.692 48.6852C141.446 48.1932 141.323 47.6232 141.323 46.9752C141.323 46.3332 141.446 45.7692 141.692 45.2832C141.938 44.7912 142.28 44.4072 142.718 44.1312C143.156 43.8552 143.663 43.7172 144.239 43.7172C144.827 43.7172 145.34 43.8552 145.778 44.1312C146.216 44.4072 146.555 44.7912 146.795 45.2832C147.035 45.7692 147.155 46.3332 147.155 46.9752C147.155 47.6232 147.035 48.1932 146.795 48.6852C146.555 49.1712 146.216 49.5522 145.778 49.8282C145.34 50.0982 144.827 50.2332 144.239 50.2332ZM144.239 49.5672C144.671 49.5672 145.046 49.4652 145.364 49.2612C145.688 49.0512 145.937 48.7542 146.111 48.3702C146.291 47.9802 146.381 47.5152 146.381 46.9752C146.381 46.4352 146.291 45.9732 146.111 45.5892C145.937 45.1992 145.688 44.9022 145.364 44.6982C145.046 44.4942 144.671 44.3922 144.239 44.3922C143.813 44.3922 143.438 44.4942 143.114 44.6982C142.796 44.9022 142.547 45.1992 142.367 45.5892C142.187 45.9732 142.097 46.4352 142.097 46.9752C142.097 47.5152 142.187 47.9802 142.367 48.3702C142.547 48.7542 142.796 49.0512 143.114 49.2612C143.438 49.4652 143.813 49.5672 144.239 49.5672ZM148.236 50.1252V45.3912H148.92L148.956 46.1382C149.094 45.8682 149.292 45.6582 149.55 45.5082C149.814 45.3582 150.117 45.2832 150.459 45.2832C150.807 45.2832 151.11 45.3492 151.368 45.4812C151.626 45.6132 151.827 45.8142 151.971 46.0842C152.115 46.3542 152.187 46.6962 152.187 47.1102V50.1252H151.431V47.1912C151.431 46.7712 151.326 46.4562 151.116 46.2462C150.912 46.0362 150.636 45.9312 150.288 45.9312C150.054 45.9312 149.838 45.9882 149.64 46.1022C149.442 46.2102 149.283 46.3722 149.163 46.5882C149.049 46.8042 148.992 47.0682 148.992 47.3802V50.1252H148.236ZM155.401 50.2332C154.981 50.2332 154.609 50.1312 154.285 49.9272C153.961 49.7232 153.706 49.4352 153.52 49.0632C153.34 48.6912 153.25 48.2562 153.25 47.7582C153.25 47.2602 153.34 46.8252 153.52 46.4532C153.706 46.0812 153.961 45.7932 154.285 45.5892C154.615 45.3852 154.993 45.2832 155.419 45.2832C155.875 45.2832 156.256 45.3852 156.562 45.5892C156.868 45.7932 157.099 46.0662 157.255 46.4082C157.411 46.7502 157.489 47.1252 157.489 47.5332C157.489 47.5932 157.489 47.6532 157.489 47.7132C157.489 47.7732 157.486 47.8452 157.48 47.9292H153.817V47.3442H156.751C156.739 46.8822 156.604 46.5312 156.346 46.2912C156.094 46.0452 155.779 45.9222 155.401 45.9222C155.149 45.9222 154.915 45.9852 154.699 46.1112C154.489 46.2312 154.318 46.4112 154.186 46.6512C154.054 46.8912 153.988 47.1912 153.988 47.5512V47.8032C153.988 48.1992 154.054 48.5322 154.186 48.8022C154.318 49.0662 154.489 49.2642 154.699 49.3962C154.915 49.5282 155.149 49.5942 155.401 49.5942C155.737 49.5942 156.001 49.5312 156.193 49.4052C156.385 49.2732 156.526 49.0872 156.616 48.8472H157.363C157.291 49.1112 157.165 49.3482 156.985 49.5582C156.811 49.7682 156.589 49.9332 156.319 50.0532C156.055 50.1732 155.749 50.2332 155.401 50.2332ZM163.023 50.2332C162.561 50.2332 162.159 50.1492 161.817 49.9812C161.475 49.8132 161.211 49.5792 161.025 49.2792C160.839 48.9792 160.746 48.6312 160.746 48.2352H161.538C161.538 48.4812 161.595 48.7092 161.709 48.9192C161.823 49.1232 161.988 49.2882 162.204 49.4142C162.426 49.5342 162.699 49.5942 163.023 49.5942C163.305 49.5942 163.545 49.5492 163.743 49.4592C163.947 49.3632 164.1 49.2342 164.202 49.0722C164.31 48.9102 164.364 48.7272 164.364 48.5232C164.364 48.2952 164.313 48.1062 164.211 47.9562C164.115 47.8002 163.98 47.6742 163.806 47.5782C163.632 47.4762 163.431 47.3862 163.203 47.3082C162.975 47.2302 162.729 47.1492 162.465 47.0652C161.937 46.8972 161.553 46.6872 161.313 46.4352C161.079 46.1772 160.962 45.8472 160.962 45.4452C160.962 45.1032 161.04 44.8032 161.196 44.5452C161.358 44.2872 161.586 44.0862 161.88 43.9422C162.18 43.7922 162.534 43.7172 162.942 43.7172C163.344 43.7172 163.692 43.7922 163.986 43.9422C164.286 44.0922 164.52 44.2992 164.688 44.5632C164.856 44.8212 164.94 45.1212 164.94 45.4632H164.148C164.148 45.2892 164.103 45.1182 164.013 44.9502C163.923 44.7822 163.785 44.6442 163.599 44.5362C163.419 44.4222 163.191 44.3652 162.915 44.3652C162.687 44.3592 162.483 44.3982 162.303 44.4822C162.129 44.5602 161.991 44.6742 161.889 44.8242C161.793 44.9742 161.745 45.1572 161.745 45.3732C161.745 45.5772 161.787 45.7422 161.871 45.8682C161.961 45.9942 162.087 46.1022 162.249 46.1922C162.417 46.2762 162.612 46.3542 162.834 46.4262C163.056 46.4982 163.302 46.5792 163.572 46.6692C163.878 46.7712 164.148 46.8972 164.382 47.0472C164.622 47.1912 164.808 47.3772 164.94 47.6052C165.078 47.8332 165.147 48.1242 165.147 48.4782C165.147 48.7782 165.066 49.0632 164.904 49.3332C164.748 49.5972 164.514 49.8132 164.202 49.9812C163.89 50.1492 163.497 50.2332 163.023 50.2332ZM166.227 52.1052V45.3912H166.911L166.974 46.1292C167.07 45.9732 167.19 45.8322 167.334 45.7062C167.484 45.5802 167.661 45.4782 167.865 45.4002C168.075 45.3222 168.315 45.2832 168.585 45.2832C169.011 45.2832 169.383 45.3912 169.701 45.6072C170.025 45.8232 170.277 46.1172 170.457 46.4892C170.637 46.8612 170.727 47.2872 170.727 47.7672C170.727 48.2412 170.637 48.6642 170.457 49.0362C170.277 49.4082 170.025 49.7022 169.701 49.9182C169.377 50.1282 169.002 50.2332 168.576 50.2332C168.21 50.2332 167.889 50.1582 167.613 50.0082C167.337 49.8582 167.127 49.6482 166.983 49.3782V52.1052H166.227ZM168.486 49.5762C168.768 49.5762 169.017 49.5042 169.233 49.3602C169.455 49.2102 169.629 49.0002 169.755 48.7302C169.887 48.4542 169.953 48.1302 169.953 47.7582C169.953 47.3862 169.887 47.0652 169.755 46.7952C169.629 46.5192 169.455 46.3092 169.233 46.1652C169.017 46.0152 168.768 45.9402 168.486 45.9402C168.186 45.9402 167.925 46.0152 167.703 46.1652C167.481 46.3092 167.31 46.5192 167.19 46.7952C167.07 47.0652 167.01 47.3862 167.01 47.7582C167.01 48.1302 167.07 48.4542 167.19 48.7302C167.31 49.0002 167.481 49.2102 167.703 49.3602C167.925 49.5042 168.186 49.5762 168.486 49.5762ZM173.302 50.2332C172.942 50.2332 172.642 50.1672 172.402 50.0352C172.162 49.8972 171.982 49.7172 171.862 49.4952C171.742 49.2672 171.682 49.0242 171.682 48.7662C171.682 48.4542 171.76 48.1902 171.916 47.9742C172.078 47.7522 172.303 47.5842 172.591 47.4702C172.879 47.3562 173.215 47.2992 173.599 47.2992H174.778C174.778 46.9932 174.742 46.7382 174.67 46.5342C174.598 46.3302 174.481 46.1772 174.319 46.0752C174.157 45.9732 173.941 45.9222 173.671 45.9222C173.401 45.9222 173.17 45.9912 172.978 46.1292C172.786 46.2612 172.666 46.4592 172.618 46.7232H171.844C171.88 46.4112 171.985 46.1502 172.159 45.9402C172.333 45.7242 172.552 45.5622 172.816 45.4542C173.086 45.3402 173.371 45.2832 173.671 45.2832C174.097 45.2832 174.448 45.3612 174.724 45.5172C175 45.6672 175.204 45.8802 175.336 46.1562C175.468 46.4262 175.534 46.7472 175.534 47.1192V50.1252H174.859L174.814 49.3152C174.754 49.4412 174.676 49.5612 174.58 49.6752C174.49 49.7832 174.382 49.8792 174.256 49.9632C174.13 50.0472 173.986 50.1132 173.824 50.1612C173.668 50.2092 173.494 50.2332 173.302 50.2332ZM173.41 49.5942C173.608 49.5942 173.791 49.5492 173.959 49.4592C174.127 49.3692 174.271 49.2492 174.391 49.0992C174.517 48.9432 174.613 48.7692 174.679 48.5772C174.745 48.3852 174.778 48.1842 174.778 47.9742V47.8842H173.662C173.38 47.8842 173.149 47.9202 172.969 47.9922C172.795 48.0642 172.669 48.1662 172.591 48.2982C172.513 48.4242 172.474 48.5682 172.474 48.7302C172.474 48.9042 172.51 49.0572 172.582 49.1892C172.654 49.3152 172.759 49.4142 172.897 49.4862C173.041 49.5582 173.212 49.5942 173.41 49.5942ZM176.783 50.1252V45.3912H177.467L177.521 46.2552C177.629 46.0392 177.77 45.8592 177.944 45.7152C178.118 45.5712 178.328 45.4632 178.574 45.3912C178.826 45.3192 179.108 45.2832 179.42 45.2832V46.0752H178.952C178.772 46.0752 178.598 46.0992 178.43 46.1472C178.262 46.1952 178.109 46.2732 177.971 46.3812C177.839 46.4892 177.734 46.6362 177.656 46.8222C177.578 47.0082 177.539 47.2422 177.539 47.5242V50.1252H176.783ZM183.07 50.1252L180.919 47.5692L182.944 45.3912H183.871L181.558 47.8392L181.567 47.2992L184.033 50.1252H183.07ZM180.289 50.1252V43.6452H181.045V50.1252H180.289ZM184.833 50.1252V43.6452H185.589V50.1252H184.833ZM188.826 50.2332C188.406 50.2332 188.034 50.1312 187.71 49.9272C187.386 49.7232 187.131 49.4352 186.945 49.0632C186.765 48.6912 186.675 48.2562 186.675 47.7582C186.675 47.2602 186.765 46.8252 186.945 46.4532C187.131 46.0812 187.386 45.7932 187.71 45.5892C188.04 45.3852 188.418 45.2832 188.844 45.2832C189.3 45.2832 189.681 45.3852 189.987 45.5892C190.293 45.7932 190.524 46.0662 190.68 46.4082C190.836 46.7502 190.914 47.1252 190.914 47.5332C190.914 47.5932 190.914 47.6532 190.914 47.7132C190.914 47.7732 190.911 47.8452 190.905 47.9292H187.242V47.3442H190.176C190.164 46.8822 190.029 46.5312 189.771 46.2912C189.519 46.0452 189.204 45.9222 188.826 45.9222C188.574 45.9222 188.34 45.9852 188.124 46.1112C187.914 46.2312 187.743 46.4112 187.611 46.6512C187.479 46.8912 187.413 47.1912 187.413 47.5512V47.8032C187.413 48.1992 187.479 48.5322 187.611 48.8022C187.743 49.0662 187.914 49.2642 188.124 49.3962C188.34 49.5282 188.574 49.5942 188.826 49.5942C189.162 49.5942 189.426 49.5312 189.618 49.4052C189.81 49.2732 189.951 49.0872 190.041 48.8472H190.788C190.716 49.1112 190.59 49.3482 190.41 49.5582C190.236 49.7682 190.014 49.9332 189.744 50.0532C189.48 50.1732 189.174 50.2332 188.826 50.2332Z" fill="#071E46"/>
<path fill-rule="evenodd" clip-rule="evenodd" d="M71.6735 37.2915C72.4884 37.7579 73.4922 38.016 74.7047 38.0755C74.8438 38.0755 75.0028 38.0755 75.142 38.0755C76.3644 38.0755 77.4079 37.8572 78.2725 37.4403C79.1372 37.0135 79.5645 36.4974 79.5645 35.9119V30.1057H75.4302C76.4041 30.1851 76.9806 30.5027 77.1197 31.0386V36.5768C77.1197 36.9242 76.8812 37.1922 76.4836 37.4106C76.096 37.6388 75.6091 37.7579 75.0625 37.7778C74.8836 37.7778 74.6947 37.7778 74.5357 37.7579C74.1084 37.6984 73.7307 37.5892 73.4326 37.4106C73.0251 37.1823 72.7965 36.9143 72.7965 36.5669V20.8753C72.8065 20.5279 73.0152 20.2302 73.4425 19.992C73.84 19.7835 74.2078 19.6644 74.5357 19.6446C74.8736 19.6247 75.0923 19.6247 75.1917 19.6247C75.619 19.6247 76.0563 19.6644 76.4836 19.7538C77.0302 19.853 77.4874 20.0019 77.8651 20.1805C78.6204 20.5478 78.9881 20.9845 78.9881 21.5006V22.2747C78.8291 22.8206 78.2626 23.1283 77.2886 23.2176H78.7098H79.5546V21.5006C79.5546 20.915 79.1372 20.3989 78.2725 19.982C77.3383 19.5553 76.2849 19.327 75.1022 19.327H74.9333C73.691 19.3468 72.6176 19.6148 71.6934 20.1111C70.8486 20.5875 70.3517 21.2624 70.3517 21.9968V35.3958C70.3418 36.1401 70.8387 36.7952 71.6834 37.2915H71.6735ZM89.3438 20.1408C88.509 19.6446 87.3661 19.3568 86.084 19.3568C84.802 19.3568 83.6591 19.6446 82.8342 20.1408C81.9895 20.6172 81.4727 21.2922 81.4727 22.0266V28.8452C81.4727 29.5896 81.9895 30.2446 82.8342 30.7309C83.6591 31.2073 84.8219 31.5051 86.084 31.5051C86.8592 31.5051 87.5847 31.3959 88.2506 31.1974V35.7134C88.2506 36.0012 88.2307 36.3089 88.1711 36.6165C88.1015 36.9738 87.9127 37.2319 87.6145 37.4205C86.9387 37.7877 86.3424 37.7877 86.0641 37.7877C85.7859 37.7877 85.5374 37.7579 85.2691 37.6984C84.4939 37.5396 83.9075 37.1525 83.9075 36.5967V35.0484C84.0665 34.4826 84.6231 34.1551 85.597 34.0658H81.4826V35.9218C81.5124 36.5371 81.9298 37.0433 82.7746 37.4503C83.4106 37.7579 84.0169 37.9366 84.5833 37.9862C85.1498 38.0458 85.597 38.0755 85.9151 38.0755C86.3921 38.0755 86.8592 38.0358 87.3363 37.9664C88.3102 37.8076 89.0953 37.4999 89.7214 37.0334C90.3575 36.5669 90.6755 36.031 90.6954 35.4156V22.0167C90.6855 21.2822 90.1786 20.6073 89.3338 20.1309L89.3438 20.1408ZM88.2406 30.0858C88.181 30.3836 87.9624 30.6317 87.6046 30.8401C87.1772 31.0882 86.6704 31.2074 86.0741 31.2074C85.4778 31.2074 84.9709 31.0783 84.5436 30.8401C84.1162 30.6019 83.9075 30.3042 83.9075 29.9568V20.8455C83.9075 20.4981 84.1361 20.2401 84.5436 20.0118C84.9709 19.7637 85.4778 19.6446 86.0741 19.6446C86.6704 19.6446 87.1772 19.7736 87.6046 20.0118C88.0021 20.2302 88.2506 20.4981 88.2506 20.8455V30.0858H88.2406ZM99.1131 37.4999C100.027 37.9167 101.061 38.1252 102.214 38.1252H102.452C103.715 38.1053 104.798 37.8373 105.702 37.3411C106.547 36.8448 107.064 36.1798 107.064 35.4454V20.1805C107.223 19.6545 107.759 19.4262 108.743 19.3667C107.67 19.3667 106.587 19.3667 105.513 19.3667H102.919C103.893 19.4362 104.44 19.6545 104.599 20.1905V36.6265C104.599 36.9739 104.361 37.2418 103.963 37.4701C103.526 37.7083 103.019 37.8274 102.442 37.8274C101.866 37.8274 101.369 37.7083 100.912 37.4701C100.504 37.2418 100.276 36.9739 100.276 36.6265V31.1379C100.276 30.592 100.862 30.2645 102.015 30.1553H97.7913L97.7814 35.9516C97.8211 36.557 98.2584 37.0632 99.1231 37.4999H99.1131ZM114.16 30.3042C115.134 30.3339 115.79 30.4828 116.127 30.7409C116.465 30.9989 116.634 31.4456 116.634 32.0907V32.1403C116.644 31.4753 116.654 30.8004 116.654 30.1354C116.654 29.4705 116.654 28.7955 116.634 28.1306V28.1802C116.634 28.8352 116.465 29.2819 116.147 29.5598C115.8 29.8377 115.134 29.9866 114.16 30.0263L113.017 30.0461L113.047 19.6148H115.521C116.545 19.6446 117.39 19.8232 118.075 20.1607C118.781 20.518 119.159 20.9646 119.198 21.4807V19.3171H108.882C109.837 19.3965 110.393 19.6942 110.562 20.2202V37.3609C110.403 37.887 109.866 38.016 108.892 38.0755H119.198V35.9119C119.159 36.4379 118.781 36.8845 118.065 37.2319C117.39 37.5694 116.545 37.7579 115.521 37.7877H113.007V30.3042H114.18H114.16ZM126.752 38.0855H127.288C128.173 35.366 129.077 32.5373 130.021 29.5995L130.131 29.2521L132.685 38.0855H133.231C134.096 35.3958 135.01 32.5969 135.925 29.6888C137.008 26.3242 138.041 23.1085 139.045 20.0416C139.234 19.5751 139.731 19.3965 140.625 19.3369H137.097C137.863 19.3965 138.538 19.595 138.538 19.9523C138.538 19.982 138.538 20.0118 138.528 20.0416C136.948 24.7858 135.418 29.5499 133.947 34.3139C133.122 31.2768 132.277 28.2497 131.432 25.2225C131.999 23.436 132.565 21.709 133.102 20.0416C133.301 19.5751 133.798 19.3965 134.692 19.3369H125.877C126.722 19.4064 127.258 19.6446 127.487 20.0614L129.872 28.3588C129.256 30.3339 128.63 32.319 128.014 34.3139C126.702 29.5499 125.38 24.7957 124.018 20.0416C124.009 20.0217 124.009 20.0019 124.009 19.992C124.009 19.853 124.148 19.7141 124.426 19.595C124.734 19.4659 125.082 19.3766 125.479 19.3369H119.954C120.798 19.4064 121.335 19.6446 121.544 20.0614L126.761 38.0954L126.752 38.0855ZM129.962 20.0317C129.962 20.0317 129.952 19.992 129.952 19.9721C129.952 19.8431 130.071 19.724 130.319 19.6148C130.588 19.4858 130.916 19.3965 131.293 19.3468C132.019 19.4064 132.615 19.6049 132.615 19.9423C132.615 19.9721 132.615 20.0019 132.605 20.0317C132.128 21.4708 131.651 22.9 131.184 24.3193C130.777 22.8901 130.379 21.4609 129.981 20.0317H129.962ZM145.406 30.3042H144.253L144.243 37.7877H146.757C147.781 37.7579 148.626 37.5793 149.301 37.2319C150.017 36.8746 150.395 36.428 150.434 35.9119V38.0755H140.128C141.102 38.016 141.649 37.887 141.798 37.3609V20.2202C141.629 19.6942 141.073 19.3965 140.118 19.3171H150.434V21.4807C150.395 20.9547 150.017 20.5081 149.311 20.1607C148.626 19.8232 147.781 19.6446 146.757 19.6148H144.283L144.253 30.0461L145.396 30.0263C146.38 29.9866 147.036 29.8278 147.383 29.5598C147.711 29.2819 147.87 28.8352 147.87 28.1802V28.1306C147.88 28.7955 147.89 29.4705 147.89 30.1354C147.89 30.8004 147.89 31.4753 147.87 32.1403V32.0907C147.87 31.4356 147.701 30.989 147.364 30.7409C147.026 30.4828 146.37 30.3339 145.396 30.3042H145.406ZM161.526 38.0855V35.9218C161.496 36.4478 161.118 36.8944 160.412 37.2418C159.727 37.5793 158.872 37.7679 157.858 37.7976H155.344V35.5149C155.354 30.3836 155.364 25.2622 155.384 20.1508C155.543 19.6545 156.099 19.3865 157.053 19.327H151.23C152.174 19.3865 152.73 19.6545 152.899 20.1508V37.3709C152.74 37.8969 152.184 38.016 151.22 38.0855H161.536H161.526ZM172.637 38.0855V35.9218C172.607 36.4478 172.239 36.8944 171.524 37.2418C170.838 37.5793 169.983 37.7679 168.969 37.7976H166.455V35.5149C166.465 30.3836 166.475 25.2622 166.495 20.1508C166.654 19.6545 167.21 19.3865 168.164 19.327H162.341C163.285 19.3865 163.841 19.6545 164.01 20.1508V37.3709C163.851 37.8969 163.295 38.016 162.331 38.0855H172.637ZM178.709 30.3042C179.683 30.3339 180.339 30.4828 180.677 30.7409C181.015 30.9989 181.184 31.4456 181.184 32.0907V32.1403C181.193 31.4753 181.203 30.8004 181.203 30.1354C181.203 29.4705 181.203 28.7955 181.184 28.1306V28.1802C181.184 28.8352 181.015 29.2819 180.697 29.5598C180.349 29.8377 179.683 29.9866 178.709 30.0263L177.566 30.0461L177.596 19.6148H180.07C181.094 19.6446 181.939 19.8232 182.625 20.1607C183.33 20.518 183.708 20.9646 183.748 21.4807V19.3171H173.432C174.386 19.3965 174.942 19.6942 175.111 20.2202V37.3609C174.952 37.887 174.416 38.016 173.442 38.0755H183.748V35.9119C183.708 36.4379 183.33 36.8845 182.615 37.2319C181.939 37.5694 181.094 37.7579 180.07 37.7877H177.556V30.3042H178.729H178.709ZM188.607 19.6247H190.555C191.291 19.6247 192.801 19.7339 192.752 20.3493V29.3117C192.752 29.4903 192.632 29.6392 192.414 29.7881C192.195 29.9369 190.913 30.2545 188.607 30.7508V19.6148V19.6247ZM191.509 30.3836L191.599 30.3637C192.046 30.3836 192.394 30.5027 192.642 30.7309C192.891 30.9592 193.02 31.2272 193.02 31.5051L192.95 37.351C192.782 37.8671 192.225 38.0061 191.251 38.0656H197.065C196.091 38.0061 195.544 37.8671 195.395 37.3411L195.455 32.8748C195.455 32.1006 195.107 31.4456 194.173 30.8798C193.646 30.5622 193.03 30.3439 192.285 30.2248C193 30.0759 193.537 29.927 193.914 29.7583C194.849 29.3414 195.197 28.865 195.197 28.2993V21.3319C195.197 20.7661 194.849 20.2897 193.914 19.8828C192.941 19.4659 191.738 19.3071 190.555 19.3071H184.493C185.437 19.3667 186.004 19.6347 186.163 20.1408V37.351C186.004 37.877 185.437 38.0061 184.493 38.0755H190.307C189.323 38.016 188.766 37.887 188.617 37.351V37.2418H188.607V31.0188L191.499 30.3637L191.509 30.3836ZM201.945 27.5847L197.949 20.1508C197.691 19.7141 197.055 19.4957 196.29 19.327H201.756C201.428 19.3468 201.13 19.4362 200.881 19.595C200.653 19.724 200.533 19.8927 200.533 20.0912V20.1508L204.191 26.9991L207.689 20.1408C207.689 20.1408 207.689 20.1011 207.689 20.0813C207.689 19.9225 207.49 19.4064 206.795 19.327H210.323C210.233 19.327 210.154 19.3468 210.064 19.3568C209.269 19.4858 208.494 19.8332 208.186 20.1408L204.409 27.5351L204.38 37.3411C204.548 37.8473 205.105 38.0061 206.049 38.0755H200.255C201.199 38.016 201.776 37.8473 201.925 37.3411V27.5847H201.945Z" fill="#071E46"/>
<path fill-rule="evenodd" clip-rule="evenodd" d="M4.26981 35.1908C3.95179 35.3695 3.59401 35.4489 3.23623 35.429C2.76913 35.4092 2.31197 35.2107 1.96413 34.8435L1.03987 33.8807C0.831163 33.6624 0.632398 33.444 0.463447 33.2058C0.294496 32.9577 0.15536 32.6897 0.0758536 32.3721C-0.0135911 32.0346 -0.00365276 31.7865 0.00628553 31.5185C0.00628553 31.4391 0.00628553 31.3697 0.00628553 31.2506V28.7594C0.00628553 28.6403 0.00628553 28.5609 0.00628553 28.4914C0.00628553 28.2135 -0.0135911 27.9753 0.0758536 27.6279C0.15536 27.3103 0.294496 27.0423 0.463447 26.7942C0.632398 26.556 0.831163 26.3376 1.03987 26.1193L1.96413 25.1565C2.31197 24.7893 2.77907 24.5908 3.25611 24.571C3.65364 24.5511 4.05117 24.6603 4.39901 24.8886C4.4487 24.2335 4.60771 23.5983 4.85617 23.0028C5.15432 22.2981 5.58167 21.653 6.14815 21.0872L21.2444 5.99113C21.7612 5.47502 22.3674 5.05817 23.0234 4.76041C23.5799 4.51228 24.1663 4.34356 24.7824 4.26415C24.6036 3.94655 24.524 3.58925 24.5439 3.23194C24.5638 2.76546 24.7626 2.30891 25.1303 1.96153L26.0943 1.03849C26.3129 0.830062 26.5316 0.63156 26.7701 0.462833C27.0186 0.294106 27.2869 0.155154 27.6049 0.0757531C27.9428 -0.013573 28.1813 -0.00364792 28.4596 0.0062772C28.5391 0.0062772 28.6087 0.0062772 28.7279 0.0062772H31.2225C31.3417 0.0062772 31.4212 0.0062772 31.4908 0.0062772C31.7691 0.0062772 32.0076 -0.013573 32.3455 0.0757531C32.6635 0.155154 32.9318 0.294106 33.1803 0.462833C33.4188 0.63156 33.6375 0.830062 33.8561 1.03849L34.8201 1.96153C35.1878 2.31883 35.3866 2.78531 35.4065 3.25179C35.4263 3.65872 35.317 4.06565 35.0686 4.41303C35.7146 4.47258 36.3307 4.62146 36.927 4.87951C37.6326 5.17727 38.2786 5.60405 38.8252 6.15985C43.7646 11.1026 49.2306 16.2041 53.9414 21.2857C54.4284 21.7919 54.8159 22.3477 55.1042 22.9631C55.3725 23.5487 55.5514 24.174 55.6309 24.8389C55.9589 24.6404 56.3266 24.561 56.6843 24.571C57.1614 24.5908 57.6185 24.7893 57.9763 25.1565L58.9006 26.1193C59.1093 26.3376 59.3081 26.556 59.477 26.7942C59.646 27.0423 59.7851 27.3103 59.8646 27.6279C59.954 27.9753 59.9441 28.2135 59.9342 28.4914C59.9342 28.5708 59.9342 28.6403 59.9342 28.7594V31.2506C59.9342 31.3697 59.9342 31.4491 59.9342 31.5185C59.9342 31.7964 59.954 32.0346 59.8646 32.3721C59.7851 32.6897 59.646 32.9577 59.477 33.2058C59.3081 33.444 59.1093 33.6624 58.9006 33.8807L57.9763 34.8435C57.6285 35.2107 57.1614 35.4092 56.6843 35.429C56.2769 35.4489 55.8694 35.3397 55.5216 35.0916C55.4619 35.7367 55.3129 36.362 55.0644 36.9476C54.7663 37.6523 54.3389 38.2974 53.7824 38.8532C48.7536 43.8952 43.7447 48.9967 38.6861 53.9989C38.1793 54.4853 37.6227 54.8823 37.0165 55.1701C36.4301 55.448 35.804 55.6167 35.1381 55.6961C35.327 56.0237 35.4164 56.3909 35.4065 56.7482C35.3866 57.2246 35.1878 57.6911 34.8201 58.0385L33.8561 58.9615C33.6375 59.1699 33.4188 59.3684 33.1803 59.5372C32.9318 59.7059 32.6635 59.8448 32.3455 59.9242C32.0076 60.0136 31.7691 60.0036 31.4908 59.9937C31.4113 59.9937 31.3417 59.9937 31.2225 59.9937H28.7279C28.6087 59.9937 28.5292 59.9937 28.4596 59.9937C28.1813 59.9937 27.9428 60.0136 27.6049 59.9242C27.2869 59.8448 27.0186 59.7059 26.7701 59.5372C26.5316 59.3684 26.3129 59.1699 26.0943 58.9615L25.1303 58.0385C24.7626 57.6812 24.5638 57.2147 24.5439 56.7482C24.524 56.3512 24.6334 55.9443 24.8619 55.6068C24.206 55.5572 23.57 55.3984 22.9836 55.1503C22.278 54.8525 21.632 54.4158 21.0755 53.86L5.99907 38.744C5.48228 38.2279 5.06487 37.6225 4.76673 36.9575C4.51827 36.4017 4.34932 35.8062 4.27975 35.2008L4.26981 35.1908ZM18.5114 29.335C22.2879 29.335 20.9264 29.8809 25.4185 25.3749C26.3726 24.4122 27.1776 23.5983 28.1416 22.6455C29.7317 21.0773 29.2944 21.3949 29.3044 18.4571C28.1615 19.0625 27.3565 20.2138 26.4322 21.1369L19.7239 27.8562C18.9586 28.6105 18.889 28.5013 18.5114 29.335ZM30.5069 18.2784C30.5367 21.256 30.1094 21.1766 31.4411 22.4569L36.4699 27.4989C38.7457 29.7816 37.6923 29.4343 41.6179 29.4045C41.1906 28.6998 31.2821 18.735 30.5069 18.2784ZM18.3325 30.6154C18.6406 31.2506 18.5114 31.0322 19.0182 31.5483C20.6978 33.2753 28.3006 41.1261 29.3441 41.6719C29.3342 37.6026 29.9802 39.141 25.4185 34.5755C20.8469 30 22.3873 30.6352 18.3325 30.6154ZM30.5168 41.7116C31.61 41.1459 38.5967 33.8013 40.2067 32.2034C40.475 31.9354 40.6936 31.7567 40.9421 31.4888C41.4291 30.9429 41.2104 31.2903 41.5285 30.6253C37.6128 30.6154 39.0339 30 34.4325 34.6053C29.8808 39.1609 30.5168 37.6324 30.5168 41.7116ZM29.9106 36.3521C30.3777 36.104 30.3876 36.0345 30.8249 35.6077C32.0573 34.3571 35.9133 30.7742 36.291 29.7816L31.5305 25.1069C30.8249 24.3923 30.6659 24.0747 29.841 23.6281L23.5799 29.8114L29.9205 36.362L29.9106 36.3521ZM56.6048 26.4567L52.5699 29.9901L56.6048 33.5234L57.5291 32.5607C58.185 31.8759 58.026 31.8758 58.026 31.2406V29.9901V28.7395C58.026 28.0944 58.185 28.0944 57.5291 27.4195L56.6048 26.4567ZM26.4421 3.32127L29.9702 7.36079L33.4983 3.32127L32.5343 2.39823C31.8585 1.74317 31.8585 1.90198 31.2125 1.90198H29.9702H28.7279C28.082 1.90198 28.082 1.74317 27.4061 2.39823L26.4421 3.32127ZM3.34555 33.5234L7.3805 29.9901L3.34555 26.4567L2.42129 27.4195C1.76536 28.1043 1.92438 28.1043 1.92438 28.7395V29.9901V31.2406C1.92438 31.8858 1.76536 31.8858 2.42129 32.5607L3.34555 33.5234ZM33.5083 56.6688L29.9802 52.6293L26.4521 56.6688L27.4161 57.5918C28.0919 58.2469 28.0919 58.0881 28.7379 58.0881H29.9802H31.2225C31.8684 58.0881 31.8684 58.2469 32.5442 57.5918L33.5083 56.6688ZM53.6432 34.4663C53.6234 33.3448 53.1761 32.2332 52.3016 31.3597C51.7053 30.7642 50.9897 30.3573 50.2245 30.1588C50.6617 30.0496 51.0195 29.8809 51.3177 29.6725C51.7649 29.3449 52.1028 29.077 52.3314 28.8586C52.6593 28.5311 52.9277 28.1639 53.1761 27.7668C53.6631 26.9232 53.842 26.0299 53.7426 25.0871C53.6532 24.1342 53.2656 23.3005 52.5798 22.5959L37.4836 7.48982C36.6587 6.66603 35.5555 6.24918 34.4425 6.27895C33.3194 6.2988 32.2163 6.74544 31.3417 7.61885C30.7355 8.2342 30.3181 8.97859 30.1292 9.76267C29.9007 8.92896 29.4733 8.18458 28.8373 7.53945L28.718 7.42034C27.8434 6.59656 26.8198 6.15985 25.6272 6.1003C24.5141 6.07053 23.411 6.48738 22.5861 7.31117L7.48982 22.4073C6.64506 23.2509 6.25747 24.3228 6.27735 25.4543C6.30716 26.5361 6.69475 27.5088 7.46 28.4021C7.54945 28.5112 7.64883 28.6105 7.74821 28.7097C8.29482 29.2556 8.90105 29.6526 9.54704 29.8809C8.80167 30.1191 8.13581 30.526 7.55939 31.1017L7.44013 31.2208C6.62519 32.0942 6.17796 33.1264 6.11833 34.3174C6.08852 35.429 6.50593 36.5307 7.32087 37.3545L22.3973 52.4705C23.242 53.3141 24.3153 53.7012 25.4384 53.6913C26.5216 53.6615 27.4956 53.2645 28.3801 52.5102C28.4894 52.4209 28.5888 52.3216 28.6882 52.2224C29.2249 51.6864 29.6025 51.1107 29.841 50.4855C29.9503 50.8229 30.0895 51.1207 30.2684 51.3589C30.5963 51.8154 30.8547 52.1529 31.0833 52.3712C31.4113 52.6988 31.7691 52.9767 32.1765 53.2149C33.0213 53.7012 33.9058 53.8898 34.8499 53.7806C35.804 53.6913 36.6289 53.3042 37.3345 52.6094L52.4208 37.4835C53.2457 36.6598 53.6631 35.5581 53.6234 34.4465L53.6432 34.4663ZM48.0281 30.1588C47.6007 30.0198 47.2231 29.7816 46.8653 29.464L44.7882 27.3599L47.5908 24.5511C47.0343 25.3253 47.0243 26.0796 47.5511 26.814L49.2903 28.5609C49.9164 29.1861 50.7413 29.2258 51.4568 28.8785C51.6953 28.7594 51.904 28.6204 52.0929 28.4318C52.2817 28.2433 52.6792 27.8363 52.7289 26.9629C52.719 26.5461 52.55 26.1193 52.2022 25.6726C51.8941 25.2856 51.5661 24.9283 51.2382 24.6007L46.1498 19.4992C45.9311 20.1741 45.5535 20.7895 45.0267 21.3254C44.172 22.179 43.0391 22.6455 41.9359 22.6653C40.8129 22.6852 39.7197 22.2981 38.8849 21.4644L31.2026 13.7724C30.6659 13.2365 30.3081 12.5814 30.1292 11.8866C29.9901 12.3234 29.7516 12.7104 29.4137 13.0479L27.4757 14.9833L26.9092 14.3977L26.3229 13.822L25.9353 13.435C26.6906 14.0007 27.436 14.0404 28.1515 13.5243L29.0261 12.6509C29.6025 12.0752 29.841 11.3308 29.7416 10.3979C29.692 9.94132 29.5329 9.46492 29.2845 8.97859C29.0957 8.59151 28.8373 8.24413 28.5491 7.9563C28.4795 7.88682 28.3205 7.74787 28.072 7.52952C27.8335 7.32109 27.4558 7.21192 26.939 7.17222C26.3726 7.15237 25.8955 7.35087 25.5079 7.73795L7.83766 25.4344C7.45006 25.8215 7.31093 26.288 7.32087 26.814C7.32087 27.221 7.45006 27.5981 7.67864 27.9554C7.77803 28.0844 7.89729 28.2135 8.01655 28.3425C8.41408 28.6998 8.89112 28.8785 9.40791 28.8983C9.93464 28.9182 10.3918 28.7792 10.7893 28.3921L17.0306 22.1492C17.5474 21.4445 17.5076 20.7002 16.9312 19.9458L19.7437 22.7646L13.2043 29.3152C12.9161 29.603 12.5882 29.8213 12.2204 29.9702C12.5285 30.1092 12.8068 30.3077 13.0553 30.5657L14.9932 32.5011L14.4069 33.0669L13.8304 33.6624L13.4429 34.0495C14.0093 33.2951 14.0391 32.5508 13.5323 31.8361L12.6577 30.9627C12.0813 30.3871 11.3359 30.1489 10.4117 30.2382C9.95451 30.2878 9.48741 30.4466 9.00044 30.7047C8.61284 30.8933 8.265 31.1513 7.97679 31.4391C7.90723 31.5086 7.76809 31.6674 7.55939 31.9155C7.35068 32.1538 7.24136 32.5408 7.21154 33.047C7.19167 33.6127 7.39043 34.0891 7.77803 34.4762L25.4384 52.1826C25.826 52.5697 26.2831 52.7186 26.8198 52.6988C27.2273 52.6988 27.6049 52.5697 27.9627 52.3414C28.0919 52.2422 28.2211 52.1231 28.3503 52.004C28.6981 51.607 28.887 51.1306 28.8969 50.6145C28.9168 50.0785 28.7776 49.622 28.39 49.2349L22.1587 42.992C21.4531 42.4759 20.7077 42.5156 19.9524 43.0912L22.765 40.2725L29.3044 46.8231C29.5926 47.1109 29.8013 47.4285 29.9503 47.7957C30.0895 47.498 30.2783 47.2102 30.5268 46.9521L32.6237 44.8678L35.4263 47.6766C34.6512 47.1208 33.9058 47.1109 33.1704 47.6369L31.4312 49.3838C30.805 50.009 30.7653 50.8428 31.1131 51.5574C31.2324 51.7956 31.3715 52.0139 31.5604 52.1926C31.7492 52.3812 32.1467 52.7881 33.0213 52.8278C33.4387 52.8179 33.866 52.6491 34.3133 52.2918C34.7009 51.9841 35.0586 51.6566 35.3767 51.3291L40.4651 46.2276C39.7893 46.0092 39.1731 45.6321 38.6464 45.0961C37.7917 44.2425 37.3345 43.1012 37.3146 41.9995C37.2947 40.868 37.6823 39.7862 38.5172 38.9425L46.1995 31.2506C46.7262 30.7245 47.3722 30.3672 48.0679 30.1886L48.0281 30.1588ZM41.7073 44.9274L52.1227 34.5159C52.5103 34.1288 52.6395 33.6624 52.6196 33.1363C52.5997 32.5706 52.4009 32.0843 51.9935 31.6773C51.586 31.2704 51.099 31.0719 50.5325 31.0521C50.0158 31.0223 49.5586 31.1712 49.171 31.5582L38.9147 41.8307C38.5271 42.2178 38.3283 42.7042 38.3482 43.26C38.3681 43.8257 38.5668 44.312 38.9743 44.719C39.3818 45.1259 39.8688 45.3244 40.4352 45.3442C40.9023 45.3442 41.3297 45.2251 41.7173 44.9274H41.7073ZM44.8876 18.2487L34.4921 7.81735C34.1046 7.43027 33.6375 7.29132 33.1207 7.32109C32.5542 7.34094 32.0672 7.53944 31.6597 7.94637C31.2523 8.3533 31.0535 8.83964 31.0336 9.40537C31.0038 9.9314 31.1529 10.378 31.5405 10.775L41.7968 21.0475C42.1844 21.4346 42.6614 21.6331 43.2279 21.6133C43.7944 21.5934 44.2814 21.3949 44.6888 20.988C45.0963 20.5811 45.2951 20.0947 45.3149 19.529C45.3149 19.0625 45.1957 18.6258 44.8975 18.2487H44.8876ZM3.26604 35.032C3.63376 35.0519 4.00148 34.9427 4.30956 34.6847C4.33938 34.6549 4.38907 34.635 4.43876 34.6251C4.54808 34.6251 4.64747 34.7045 4.64747 34.8137C4.68722 35.4985 4.85617 36.1635 5.13444 36.7789C5.41271 37.3942 5.80031 37.9599 6.27735 38.4463L21.3537 53.5622C21.8805 54.0883 22.4867 54.4952 23.1327 54.7731C23.7985 55.051 24.5141 55.2098 25.2595 55.2197C25.3092 55.2197 25.3489 55.2396 25.3887 55.2694C25.4682 55.3388 25.4781 55.4679 25.4086 55.5473L25.3092 55.6664C25.0408 55.974 24.9216 56.3512 24.9415 56.7284C24.9613 57.1055 25.1104 57.4727 25.3986 57.7506L26.3626 58.6737C26.5713 58.8722 26.7701 59.0608 26.9887 59.2096C27.1974 59.3585 27.436 59.4776 27.6944 59.5471C27.9826 59.6265 28.1913 59.6166 28.4397 59.6066C28.5391 59.6066 28.6385 59.6066 28.718 59.6066H31.2125C31.292 59.6066 31.4013 59.6066 31.4908 59.6066C31.7392 59.6066 31.9479 59.6265 32.2362 59.5471C32.5045 59.4776 32.7331 59.3585 32.9418 59.2096C33.1604 59.0608 33.3592 58.8722 33.5679 58.6737L34.5319 57.7506C34.8201 57.4727 34.9791 57.1055 34.9891 56.7284C35.0089 56.3512 34.8797 55.974 34.6213 55.6664H34.6114C34.6114 55.6664 34.5617 55.577 34.5518 55.5274C34.5518 55.4182 34.6313 55.319 34.7406 55.319L34.999 55.2991C35.645 55.2297 36.2612 55.0709 36.8276 54.8029C37.3941 54.5349 37.9209 54.1677 38.388 53.7111L53.4842 38.5753C54.001 38.0592 54.3985 37.4538 54.6768 36.7987C54.9551 36.1337 55.1141 35.4191 55.124 34.6946C55.124 34.645 55.1439 34.6053 55.1737 34.5656C55.2433 34.4862 55.3725 34.4762 55.452 34.5457L55.5911 34.6648C55.8893 34.9328 56.2769 35.0519 56.6446 35.032C57.0223 35.0122 57.39 34.8633 57.6682 34.5656L58.5925 33.6028C58.7913 33.3944 58.9702 33.1959 59.1292 32.9775C59.2782 32.7691 59.3876 32.5309 59.4571 32.2629C59.5366 31.9751 59.5267 31.7667 59.5168 31.5185C59.5168 31.4193 59.5168 31.32 59.5168 31.2406V28.7494C59.5168 28.67 59.5168 28.5609 59.5168 28.4715C59.5168 28.2234 59.5366 28.015 59.4571 27.7271C59.3876 27.4592 59.2683 27.2309 59.1292 27.0125C58.9801 26.7942 58.7913 26.5858 58.5925 26.3873L57.6682 25.4245C57.39 25.1367 57.0223 24.9779 56.6446 24.958C56.2669 24.9382 55.8893 25.0672 55.5911 25.3253H55.5812C55.5812 25.3253 55.5017 25.3848 55.452 25.3947C55.3427 25.3947 55.2433 25.3153 55.2433 25.2062L55.2234 24.9382C55.1539 24.2831 54.9948 23.6777 54.7265 23.112C54.4582 22.5462 54.1004 22.0202 53.6333 21.5537L38.5172 6.43776C38.0004 5.92165 37.3941 5.52465 36.7481 5.24674C36.0823 4.96884 35.3767 4.81004 34.6412 4.79019C34.5915 4.79019 34.5518 4.77034 34.512 4.74056C34.4325 4.67109 34.4226 4.54206 34.4921 4.46266L34.6114 4.32371C34.8797 4.01603 34.999 3.63887 34.9791 3.26172C34.9592 2.88456 34.8102 2.51733 34.522 2.23943L33.5579 1.31639C33.3492 1.11789 33.1505 0.929314 32.9318 0.780437C32.7231 0.63156 32.4846 0.512458 32.2262 0.442983C31.938 0.363582 31.7293 0.373507 31.4808 0.383432C31.3815 0.383432 31.2821 0.383432 31.2026 0.383432H28.7081C28.6286 0.383432 28.5192 0.383432 28.4298 0.383432C28.1813 0.383432 27.9726 0.363582 27.6844 0.442983C27.4161 0.512458 27.1875 0.63156 26.9788 0.780437C26.7602 0.929314 26.5614 1.11789 26.3527 1.31639L25.3887 2.23943C25.1005 2.51733 24.9514 2.87464 24.9315 3.24187C24.9116 3.6091 25.021 3.98625 25.2794 4.28401C25.3092 4.31378 25.329 4.36341 25.339 4.41303C25.339 4.52221 25.2595 4.62146 25.1502 4.62146C24.4744 4.66116 23.8085 4.82989 23.1923 5.10779C22.5761 5.38569 22.0097 5.77277 21.5326 6.2591L6.43636 21.3552C5.90963 21.8812 5.5121 22.4867 5.23383 23.1417C4.95555 23.8067 4.79654 24.5313 4.7866 25.2756C4.7866 25.3253 4.76673 25.365 4.73691 25.4047C4.66734 25.4841 4.53815 25.494 4.45864 25.4245L4.33938 25.3253C4.04123 25.0573 3.65364 24.9382 3.28592 24.958C2.90827 24.9779 2.54055 25.1268 2.26228 25.4245L1.33802 26.3873C1.13925 26.5957 0.960361 26.7942 0.801349 27.0125C0.652274 27.221 0.542953 27.4592 0.473385 27.7271C0.393879 28.015 0.403817 28.2234 0.413755 28.4715C0.413755 28.5708 0.413755 28.67 0.413755 28.7494V31.2406C0.413755 31.32 0.413755 31.4292 0.413755 31.5185C0.413755 31.7667 0.393879 31.9751 0.473385 32.2629C0.542953 32.5309 0.662213 32.7592 0.801349 32.9775C0.950423 33.1959 1.13925 33.4043 1.33802 33.6028L2.26228 34.5656C2.54055 34.8534 2.89833 35.0122 3.26604 35.0221V35.032Z" fill="#071E46"/>
</svg>
