<svg width="255" height="75" viewBox="0 0 255 75" fill="none" xmlns="http://www.w3.org/2000/svg">
<g clip-path="url(#clip0_692_274)">
<path d="M111.225 62.7915C110.753 62.7915 110.344 62.6978 109.996 62.5103C109.655 62.3228 109.383 62.0715 109.18 61.7565C108.984 61.4415 108.861 61.0965 108.81 60.7215H109.658C109.738 61.119 109.916 61.4265 110.191 61.644C110.467 61.8615 110.815 61.9703 111.235 61.9703C111.62 61.9703 111.957 61.854 112.247 61.6215C112.537 61.3815 112.769 61.0253 112.943 60.5528C113.124 60.0728 113.23 59.469 113.259 58.7415C113.266 58.6965 113.269 58.6553 113.269 58.6178C113.269 58.5728 113.269 58.5278 113.269 58.4828C113.168 58.7228 113.016 58.944 112.813 59.1465C112.61 59.349 112.363 59.514 112.073 59.6415C111.79 59.7615 111.471 59.8215 111.116 59.8215C110.695 59.8215 110.3 59.7165 109.93 59.5065C109.56 59.2965 109.263 59.004 109.038 58.629C108.814 58.2465 108.701 57.8003 108.701 57.2903C108.701 56.8478 108.803 56.424 109.006 56.019C109.216 55.614 109.51 55.284 109.887 55.029C110.271 54.774 110.721 54.6465 111.235 54.6465C111.779 54.6465 112.236 54.7515 112.606 54.9615C112.983 55.1715 113.28 55.4565 113.498 55.8165C113.723 56.169 113.886 56.5703 113.987 57.0203C114.089 57.4703 114.14 57.9315 114.14 58.404C114.14 59.2665 114.024 60.0278 113.792 60.6878C113.567 61.3478 113.237 61.8653 112.802 62.2403C112.374 62.6078 111.848 62.7915 111.225 62.7915ZM111.301 59.0003C111.627 59.0003 111.921 58.9253 112.182 58.7753C112.45 58.6178 112.66 58.4078 112.813 58.1453C112.965 57.8753 113.041 57.5715 113.041 57.234C113.041 56.8815 112.965 56.574 112.813 56.3115C112.66 56.049 112.45 55.8465 112.182 55.704C111.921 55.554 111.627 55.479 111.301 55.479C110.989 55.479 110.706 55.554 110.452 55.704C110.199 55.854 109.996 56.0603 109.843 56.3228C109.698 56.5853 109.626 56.8928 109.626 57.2453C109.626 57.5978 109.698 57.9053 109.843 58.1678C109.996 58.4303 110.199 58.6365 110.452 58.7865C110.706 58.929 110.989 59.0003 111.301 59.0003ZM118.529 62.6565V54.7815H123.239V55.5578H119.443V58.3028H122.913V59.0678H119.443V61.8803H123.239V62.6565H118.529ZM124.657 62.6565V56.739H125.483L125.527 57.549C125.701 57.2565 125.937 57.0278 126.234 56.8628C126.531 56.6903 126.843 56.604 127.169 56.604C127.445 56.604 127.691 56.6453 127.909 56.7278C128.134 56.8028 128.329 56.9228 128.496 57.0878C128.663 57.2453 128.797 57.444 128.899 57.684C129.087 57.3315 129.341 57.0653 129.66 56.8853C129.986 56.6978 130.327 56.604 130.682 56.604C131.103 56.604 131.462 56.6903 131.759 56.8628C132.064 57.0278 132.296 57.2828 132.455 57.6278C132.622 57.9653 132.705 58.389 132.705 58.899V62.6565H131.803V59.0003C131.803 58.4678 131.69 58.0703 131.466 57.8078C131.241 57.5453 130.936 57.414 130.552 57.414C130.291 57.414 130.052 57.4853 129.834 57.6278C129.624 57.7703 129.453 57.9803 129.323 58.2578C129.2 58.5353 129.138 58.8728 129.138 59.2703V62.6565H128.224V59.0003C128.224 58.4678 128.112 58.0703 127.887 57.8078C127.662 57.5453 127.361 57.414 126.984 57.414C126.731 57.414 126.495 57.4853 126.277 57.6278C126.067 57.7703 125.897 57.9803 125.766 58.2578C125.636 58.5353 125.57 58.8728 125.57 59.2703V62.6565H124.657ZM136.674 62.7915C136.145 62.7915 135.677 62.664 135.271 62.409C134.865 62.154 134.55 61.794 134.325 61.329C134.1 60.864 133.988 60.3203 133.988 59.6978C133.988 59.0678 134.1 58.524 134.325 58.0665C134.557 57.6015 134.876 57.2415 135.282 56.9865C135.695 56.7315 136.167 56.604 136.696 56.604C137.233 56.604 137.7 56.7315 138.099 56.9865C138.505 57.2415 138.821 57.6015 139.045 58.0665C139.27 58.524 139.383 59.0678 139.383 59.6978C139.383 60.3203 139.267 60.864 139.035 61.329C138.81 61.794 138.494 62.154 138.088 62.409C137.682 62.664 137.211 62.7915 136.674 62.7915ZM136.674 61.9815C137.008 61.9815 137.309 61.899 137.577 61.734C137.845 61.5615 138.056 61.3065 138.208 60.969C138.367 60.624 138.447 60.2003 138.447 59.6978C138.447 59.1878 138.371 58.764 138.219 58.4265C138.067 58.089 137.856 57.8378 137.588 57.6728C137.327 57.5003 137.03 57.414 136.696 57.414C136.37 57.414 136.072 57.5003 135.804 57.6728C135.536 57.8378 135.322 58.089 135.162 58.4265C135.003 58.764 134.923 59.1878 134.923 59.6978C134.923 60.2003 134.999 60.624 135.152 60.969C135.311 61.3065 135.521 61.5615 135.782 61.734C136.051 61.899 136.348 61.9815 136.674 61.9815ZM142.712 62.6565C142.386 62.6565 142.103 62.604 141.864 62.499C141.624 62.394 141.44 62.2178 141.309 61.9703C141.186 61.7153 141.124 61.374 141.124 60.9465V57.5378H140.123V56.739H141.124L141.244 55.2653H142.038V56.739H143.658V57.5378H142.038V60.9465C142.038 61.299 142.107 61.539 142.244 61.6665C142.382 61.7865 142.625 61.8465 142.973 61.8465H143.637V62.6565H142.712ZM145 62.6565V56.739H145.914V62.6565H145ZM145.457 55.614C145.275 55.614 145.123 55.554 145 55.434C144.884 55.3065 144.826 55.149 144.826 54.9615C144.826 54.774 144.884 54.624 145 54.5115C145.123 54.3915 145.275 54.3315 145.457 54.3315C145.631 54.3315 145.779 54.3915 145.903 54.5115C146.026 54.624 146.088 54.774 146.088 54.9615C146.088 55.149 146.026 55.3065 145.903 55.434C145.779 55.554 145.631 55.614 145.457 55.614ZM149.994 62.7915C149.464 62.7915 148.996 62.664 148.59 62.409C148.184 62.154 147.869 61.794 147.644 61.329C147.419 60.864 147.307 60.3203 147.307 59.6978C147.307 59.0678 147.419 58.524 147.644 58.0665C147.876 57.6015 148.195 57.2415 148.601 56.9865C149.015 56.7315 149.486 56.604 150.015 56.604C150.552 56.604 151.02 56.7315 151.418 56.9865C151.824 57.2415 152.14 57.6015 152.365 58.0665C152.589 58.524 152.702 59.0678 152.702 59.6978C152.702 60.3203 152.586 60.864 152.354 61.329C152.129 61.794 151.814 62.154 151.408 62.409C151.001 62.664 150.53 62.7915 149.994 62.7915ZM149.994 61.9815C150.327 61.9815 150.628 61.899 150.896 61.734C151.165 61.5615 151.375 61.3065 151.527 60.969C151.687 60.624 151.766 60.2003 151.766 59.6978C151.766 59.1878 151.69 58.764 151.538 58.4265C151.386 58.089 151.175 57.8378 150.907 57.6728C150.646 57.5003 150.349 57.414 150.015 57.414C149.689 57.414 149.392 57.5003 149.123 57.6728C148.855 57.8378 148.641 58.089 148.482 58.4265C148.322 58.764 148.242 59.1878 148.242 59.6978C148.242 60.2003 148.318 60.624 148.471 60.969C148.63 61.3065 148.841 61.5615 149.102 61.734C149.37 61.899 149.667 61.9815 149.994 61.9815ZM154.026 62.6565V56.739H154.853L154.897 57.6728C155.063 57.3353 155.303 57.0728 155.614 56.8853C155.933 56.6978 156.3 56.604 156.713 56.604C157.134 56.604 157.5 56.6865 157.812 56.8515C158.123 57.0165 158.366 57.2678 158.54 57.6053C158.714 57.9428 158.801 58.3703 158.801 58.8878V62.6565H157.888V58.989C157.888 58.464 157.761 58.0703 157.507 57.8078C157.26 57.5453 156.927 57.414 156.506 57.414C156.223 57.414 155.962 57.4853 155.723 57.6278C155.484 57.7628 155.292 57.9653 155.147 58.2353C155.009 58.5053 154.94 58.8353 154.94 59.2253V62.6565H154.026ZM162.381 62.7915C161.866 62.7915 161.438 62.7128 161.097 62.5553C160.764 62.3903 160.51 62.1653 160.336 61.8803C160.162 61.5878 160.057 61.2503 160.021 60.8678H160.956C160.985 61.0703 161.05 61.2578 161.152 61.4303C161.261 61.5953 161.417 61.7303 161.62 61.8353C161.823 61.9403 162.08 61.9928 162.392 61.9928C162.638 61.9928 162.849 61.9553 163.023 61.8803C163.197 61.7978 163.327 61.6853 163.414 61.5428C163.509 61.4003 163.556 61.2353 163.556 61.0478C163.556 60.8003 163.501 60.609 163.393 60.474C163.291 60.3315 163.139 60.2265 162.936 60.159C162.74 60.084 162.493 60.0278 162.196 59.9903C161.877 59.9453 161.594 59.8815 161.348 59.799C161.101 59.7165 160.891 59.6078 160.717 59.4728C160.55 59.3378 160.423 59.169 160.336 58.9665C160.249 58.764 160.206 58.524 160.206 58.2465C160.206 57.924 160.289 57.639 160.456 57.3915C160.623 57.144 160.858 56.9528 161.163 56.8178C161.475 56.6753 161.841 56.604 162.261 56.604C162.878 56.604 163.364 56.7503 163.719 57.0428C164.081 57.3353 164.295 57.7515 164.361 58.2915H163.458C163.422 58.014 163.298 57.7965 163.088 57.639C162.878 57.4815 162.599 57.4028 162.25 57.4028C161.881 57.4028 161.601 57.474 161.413 57.6165C161.224 57.759 161.13 57.9465 161.13 58.179C161.13 58.3515 161.17 58.509 161.25 58.6515C161.337 58.7865 161.482 58.9028 161.685 59.0003C161.888 59.0903 162.16 59.1578 162.501 59.2028C162.928 59.2553 163.291 59.3415 163.588 59.4615C163.886 59.574 164.11 59.7503 164.263 59.9903C164.422 60.2303 164.498 60.5565 164.491 60.969C164.491 61.359 164.4 61.689 164.219 61.959C164.045 62.229 163.799 62.4353 163.48 62.5778C163.168 62.7203 162.802 62.7915 162.381 62.7915ZM166.207 62.7128C166.033 62.7128 165.884 62.6528 165.761 62.5328C165.645 62.4053 165.587 62.2515 165.587 62.0715C165.587 61.8915 165.645 61.7415 165.761 61.6215C165.884 61.494 166.033 61.4303 166.207 61.4303C166.396 61.4303 166.544 61.494 166.653 61.6215C166.769 61.7415 166.827 61.8915 166.827 62.0715C166.827 62.2515 166.769 62.4053 166.653 62.5328C166.544 62.6528 166.396 62.7128 166.207 62.7128ZM174.316 62.7915C173.62 62.7915 173.008 62.6228 172.478 62.2853C171.949 61.9403 171.536 61.464 171.238 60.8565C170.941 60.2415 170.792 59.529 170.792 58.719C170.792 57.9165 170.941 57.2115 171.238 56.604C171.536 55.989 171.949 55.509 172.478 55.164C173.008 54.819 173.62 54.6465 174.316 54.6465C175.027 54.6465 175.647 54.819 176.176 55.164C176.706 55.509 177.115 55.989 177.405 56.604C177.695 57.2115 177.84 57.9165 177.84 58.719C177.84 59.529 177.695 60.2415 177.405 60.8565C177.115 61.464 176.706 61.9403 176.176 62.2853C175.647 62.6228 175.027 62.7915 174.316 62.7915ZM174.316 61.959C174.838 61.959 175.292 61.8315 175.676 61.5765C176.068 61.314 176.368 60.9428 176.579 60.4628C176.796 59.9753 176.905 59.394 176.905 58.719C176.905 58.044 176.796 57.4665 176.579 56.9865C176.368 56.499 176.068 56.1278 175.676 55.8728C175.292 55.6178 174.838 55.4903 174.316 55.4903C173.802 55.4903 173.348 55.6178 172.957 55.8728C172.573 56.1278 172.272 56.499 172.054 56.9865C171.837 57.4665 171.728 58.044 171.728 58.719C171.728 59.394 171.837 59.9753 172.054 60.4628C172.272 60.9428 172.573 61.314 172.957 61.5765C173.348 61.8315 173.802 61.959 174.316 61.959ZM179.147 62.6565V56.739H179.974L180.017 57.6728C180.184 57.3353 180.423 57.0728 180.735 56.8853C181.054 56.6978 181.42 56.604 181.833 56.604C182.254 56.604 182.62 56.6865 182.932 56.8515C183.244 57.0165 183.487 57.2678 183.661 57.6053C183.835 57.9428 183.922 58.3703 183.922 58.8878V62.6565H183.008V58.989C183.008 58.464 182.881 58.0703 182.627 57.8078C182.381 57.5453 182.047 57.414 181.627 57.414C181.344 57.414 181.083 57.4853 180.844 57.6278C180.604 57.7628 180.412 57.9653 180.267 58.2353C180.129 58.5053 180.061 58.8353 180.061 59.2253V62.6565H179.147ZM187.806 62.7915C187.298 62.7915 186.849 62.664 186.457 62.409C186.066 62.154 185.758 61.794 185.533 61.329C185.315 60.864 185.206 60.3203 185.206 59.6978C185.206 59.0753 185.315 58.5315 185.533 58.0665C185.758 57.6015 186.066 57.2415 186.457 56.9865C186.856 56.7315 187.313 56.604 187.828 56.604C188.379 56.604 188.839 56.7315 189.209 56.9865C189.579 57.2415 189.858 57.5828 190.047 58.0103C190.235 58.4378 190.329 58.9065 190.329 59.4165C190.329 59.4915 190.329 59.5665 190.329 59.6415C190.329 59.7165 190.326 59.8065 190.319 59.9115H185.892V59.1803H189.438C189.423 58.6028 189.26 58.164 188.948 57.864C188.644 57.5565 188.263 57.4028 187.806 57.4028C187.501 57.4028 187.219 57.4815 186.958 57.639C186.704 57.789 186.497 58.014 186.338 58.314C186.178 58.614 186.098 58.989 186.098 59.439V59.754C186.098 60.249 186.178 60.6653 186.338 61.0028C186.497 61.3328 186.704 61.5803 186.958 61.7453C187.219 61.9103 187.501 61.9928 187.806 61.9928C188.212 61.9928 188.531 61.914 188.763 61.7565C188.995 61.5915 189.166 61.359 189.274 61.059H190.177C190.09 61.389 189.938 61.6853 189.72 61.9478C189.51 62.2103 189.242 62.4165 188.915 62.5665C188.596 62.7165 188.227 62.7915 187.806 62.7915ZM197.017 62.7915C196.459 62.7915 195.973 62.6865 195.56 62.4765C195.147 62.2665 194.828 61.974 194.603 61.599C194.378 61.224 194.266 60.789 194.266 60.294H195.223C195.223 60.6015 195.292 60.8865 195.429 61.149C195.567 61.404 195.767 61.6103 196.028 61.7678C196.296 61.9178 196.626 61.9928 197.017 61.9928C197.358 61.9928 197.648 61.9365 197.888 61.824C198.134 61.704 198.319 61.5428 198.442 61.3403C198.573 61.1378 198.638 60.909 198.638 60.654C198.638 60.369 198.576 60.1328 198.453 59.9453C198.337 59.7503 198.174 59.5928 197.964 59.4728C197.753 59.3453 197.511 59.2328 197.235 59.1353C196.959 59.0378 196.662 58.9365 196.343 58.8315C195.705 58.6215 195.241 58.359 194.951 58.044C194.668 57.7215 194.527 57.309 194.527 56.8065C194.527 56.379 194.621 56.004 194.809 55.6815C195.005 55.359 195.281 55.1078 195.636 54.9278C195.999 54.7403 196.426 54.6465 196.92 54.6465C197.405 54.6465 197.826 54.7403 198.181 54.9278C198.544 55.1153 198.827 55.374 199.03 55.704C199.233 56.0265 199.334 56.4015 199.334 56.829H198.377C198.377 56.6115 198.323 56.3978 198.214 56.1878C198.105 55.9778 197.938 55.8053 197.714 55.6703C197.496 55.5278 197.22 55.4565 196.887 55.4565C196.611 55.449 196.365 55.4978 196.147 55.6028C195.937 55.7003 195.77 55.8428 195.647 56.0303C195.531 56.2178 195.473 56.4465 195.473 56.7165C195.473 56.9715 195.524 57.1778 195.625 57.3353C195.734 57.4928 195.886 57.6278 196.082 57.7403C196.285 57.8453 196.521 57.9428 196.789 58.0328C197.057 58.1228 197.355 58.224 197.681 58.3365C198.051 58.464 198.377 58.6215 198.66 58.809C198.95 58.989 199.175 59.2215 199.334 59.5065C199.501 59.7915 199.584 60.1553 199.584 60.5978C199.584 60.9728 199.486 61.329 199.291 61.6665C199.102 61.9965 198.819 62.2665 198.442 62.4765C198.065 62.6865 197.59 62.7915 197.017 62.7915ZM200.89 65.1315V56.739H201.716L201.792 57.6615C201.908 57.4665 202.053 57.2903 202.227 57.1328C202.409 56.9753 202.623 56.8478 202.869 56.7503C203.123 56.6528 203.413 56.604 203.739 56.604C204.254 56.604 204.704 56.739 205.088 57.009C205.48 57.279 205.784 57.6465 206.002 58.1115C206.219 58.5765 206.328 59.109 206.328 59.709C206.328 60.3015 206.219 60.8303 206.002 61.2953C205.784 61.7603 205.48 62.1278 205.088 62.3978C204.696 62.6603 204.243 62.7915 203.728 62.7915C203.286 62.7915 202.898 62.6978 202.565 62.5103C202.231 62.3228 201.977 62.0603 201.803 61.7228V65.1315H200.89ZM203.62 61.9703C203.96 61.9703 204.261 61.8803 204.522 61.7003C204.791 61.5128 205.001 61.2503 205.153 60.9128C205.313 60.5678 205.393 60.1628 205.393 59.6978C205.393 59.2328 205.313 58.8315 205.153 58.494C205.001 58.149 204.791 57.8865 204.522 57.7065C204.261 57.519 203.96 57.4253 203.62 57.4253C203.257 57.4253 202.942 57.519 202.673 57.7065C202.405 57.8865 202.198 58.149 202.053 58.494C201.908 58.8315 201.836 59.2328 201.836 59.6978C201.836 60.1628 201.908 60.5678 202.053 60.9128C202.198 61.2503 202.405 61.5128 202.673 61.7003C202.942 61.8803 203.257 61.9703 203.62 61.9703ZM209.44 62.7915C209.005 62.7915 208.642 62.709 208.352 62.544C208.062 62.3715 207.845 62.1465 207.7 61.869C207.555 61.584 207.482 61.2803 207.482 60.9578C207.482 60.5678 207.576 60.2378 207.765 59.9678C207.961 59.6903 208.233 59.4803 208.581 59.3378C208.929 59.1953 209.335 59.124 209.799 59.124H211.224C211.224 58.7415 211.18 58.4228 211.093 58.1678C211.006 57.9128 210.865 57.7215 210.669 57.594C210.473 57.4665 210.212 57.4028 209.886 57.4028C209.56 57.4028 209.28 57.489 209.048 57.6615C208.816 57.8265 208.671 58.074 208.613 58.404H207.678C207.721 58.014 207.848 57.6878 208.059 57.4253C208.269 57.1553 208.534 56.9528 208.853 56.8178C209.179 56.6753 209.523 56.604 209.886 56.604C210.401 56.604 210.825 56.7015 211.158 56.8965C211.492 57.084 211.739 57.3503 211.898 57.6953C212.058 58.0328 212.137 58.434 212.137 58.899V62.6565H211.322L211.267 61.644C211.195 61.8015 211.1 61.9515 210.984 62.094C210.876 62.229 210.745 62.349 210.593 62.454C210.441 62.559 210.267 62.6415 210.071 62.7015C209.882 62.7615 209.672 62.7915 209.44 62.7915ZM209.57 61.9928C209.81 61.9928 210.031 61.9365 210.234 61.824C210.437 61.7115 210.611 61.5615 210.756 61.374C210.908 61.179 211.024 60.9615 211.104 60.7215C211.184 60.4815 211.224 60.2303 211.224 59.9678V59.8553H209.875C209.534 59.8553 209.255 59.9003 209.037 59.9903C208.827 60.0803 208.675 60.2078 208.581 60.3728C208.486 60.5303 208.439 60.7103 208.439 60.9128C208.439 61.1303 208.483 61.3215 208.57 61.4865C208.657 61.644 208.784 61.7678 208.95 61.8578C209.125 61.9478 209.331 61.9928 209.57 61.9928ZM213.647 62.6565V56.739H214.473L214.539 57.819C214.669 57.549 214.84 57.324 215.05 57.144C215.26 56.964 215.514 56.829 215.811 56.739C216.116 56.649 216.457 56.604 216.834 56.604V57.594H216.268C216.051 57.594 215.84 57.624 215.637 57.684C215.434 57.744 215.249 57.8415 215.083 57.9765C214.923 58.1115 214.796 58.2953 214.702 58.5278C214.608 58.7603 214.56 59.0528 214.56 59.4053V62.6565H213.647ZM221.245 62.6565L218.645 59.4615L221.093 56.739H222.213L219.418 59.799L219.428 59.124L222.409 62.6565H221.245ZM217.884 62.6565V54.5565H218.798V62.6565H217.884ZM223.376 62.6565V54.5565H224.289V62.6565H223.376ZM228.201 62.7915C227.694 62.7915 227.244 62.664 226.852 62.409C226.461 62.154 226.153 61.794 225.928 61.329C225.71 60.864 225.602 60.3203 225.602 59.6978C225.602 59.0753 225.71 58.5315 225.928 58.0665C226.153 57.6015 226.461 57.2415 226.852 56.9865C227.251 56.7315 227.708 56.604 228.223 56.604C228.774 56.604 229.234 56.7315 229.604 56.9865C229.974 57.2415 230.253 57.5828 230.442 58.0103C230.63 58.4378 230.725 58.9065 230.725 59.4165C230.725 59.4915 230.725 59.5665 230.725 59.6415C230.725 59.7165 230.721 59.8065 230.714 59.9115H226.287V59.1803H229.833C229.818 58.6028 229.655 58.164 229.343 57.864C229.039 57.5565 228.658 57.4028 228.201 57.4028C227.897 57.4028 227.614 57.4815 227.353 57.639C227.099 57.789 226.892 58.014 226.733 58.314C226.573 58.614 226.494 58.989 226.494 59.439V59.754C226.494 60.249 226.573 60.6653 226.733 61.0028C226.892 61.3328 227.099 61.5803 227.353 61.7453C227.614 61.9103 227.897 61.9928 228.201 61.9928C228.607 61.9928 228.926 61.914 229.158 61.7565C229.39 61.5915 229.561 61.359 229.67 61.059H230.572C230.485 61.389 230.333 61.6853 230.115 61.9478C229.905 62.2103 229.637 62.4165 229.311 62.5665C228.992 62.7165 228.622 62.7915 228.201 62.7915Z" fill="#071E46"/>
<path fill-rule="evenodd" clip-rule="evenodd" d="M86.6191 46.6143C87.6039 47.1973 88.817 47.5199 90.2824 47.5943C90.4505 47.5943 90.6427 47.5943 90.8109 47.5943C92.2882 47.5943 93.5493 47.3214 94.5942 46.8003C95.6392 46.2668 96.1556 45.6217 96.1556 44.8898V37.632H91.1592C92.3362 37.7313 93.0329 38.1283 93.201 38.7982V45.7209C93.201 46.1552 92.9128 46.4902 92.4322 46.7632C91.9638 47.0484 91.3754 47.1973 90.7148 47.2222C90.4986 47.2222 90.2703 47.2222 90.0782 47.1973C89.5617 47.1229 89.1053 46.9864 88.745 46.7632C88.2525 46.4778 87.9763 46.1428 87.9763 45.7085V26.094C87.9884 25.6598 88.2406 25.2877 88.757 24.9899C89.2374 24.7293 89.6819 24.5804 90.0782 24.5557C90.4865 24.5308 90.7508 24.5308 90.871 24.5308C91.3874 24.5308 91.9158 24.5804 92.4322 24.6922C93.0928 24.8162 93.6454 25.0023 94.1018 25.2255C95.0146 25.6847 95.459 26.2305 95.459 26.8757V27.8433C95.2669 28.5257 94.5822 28.9103 93.4051 29.0219H95.1227H96.1437V26.8757C96.1437 26.1437 95.6392 25.4985 94.5942 24.9774C93.4652 24.444 92.1921 24.1587 90.7628 24.1587H90.5587C89.0573 24.1834 87.7601 24.5184 86.6431 25.1388C85.6222 25.7343 85.0217 26.5779 85.0217 27.4959V44.2447C85.0097 45.175 85.6102 45.9939 86.6311 46.6143H86.6191ZM107.974 25.1759C106.965 24.5557 105.584 24.1959 104.035 24.1959C102.485 24.1959 101.104 24.5557 100.107 25.1759C99.0863 25.7714 98.4617 26.6152 98.4617 27.5332V36.0564C98.4617 36.9869 99.0863 37.8057 100.107 38.4135C101.104 39.009 102.509 39.3813 104.035 39.3813C104.971 39.3813 105.848 39.2448 106.653 38.9967V44.6417C106.653 45.0014 106.629 45.386 106.557 45.7705C106.473 46.2172 106.245 46.5398 105.884 46.7755C105.068 47.2345 104.347 47.2345 104.011 47.2345C103.674 47.2345 103.374 47.1973 103.05 47.1229C102.113 46.9244 101.404 46.4405 101.404 45.7458V43.8104C101.596 43.1032 102.269 42.6938 103.446 42.5822H98.4737V44.9022C98.5097 45.6713 99.0142 46.304 100.035 46.8128C100.804 47.1973 101.536 47.4207 102.221 47.4827C102.906 47.5572 103.446 47.5943 103.831 47.5943C104.407 47.5943 104.971 47.5447 105.548 47.4579C106.725 47.2594 107.674 46.8748 108.431 46.2917C109.199 45.7085 109.584 45.0387 109.608 44.2694V27.5208C109.596 26.6027 108.983 25.759 107.962 25.1635L107.974 25.1759ZM106.641 37.6072C106.569 37.9794 106.305 38.2895 105.872 38.55C105.356 38.8602 104.743 39.0092 104.023 39.0092C103.302 39.0092 102.689 38.8478 102.173 38.55C101.656 38.2523 101.404 37.8802 101.404 37.4459V26.0568C101.404 25.6225 101.681 25.3 102.173 25.0147C102.689 24.7045 103.302 24.5557 104.023 24.5557C104.743 24.5557 105.356 24.7169 105.872 25.0147C106.353 25.2877 106.653 25.6225 106.653 26.0568V37.6072H106.641ZM119.781 46.8748C120.885 47.3958 122.135 47.6564 123.528 47.6564H123.816C125.342 47.6315 126.651 47.2965 127.744 46.6763C128.765 46.0559 129.39 45.2247 129.39 44.3067V25.2255C129.582 24.568 130.23 24.2827 131.419 24.2083C130.122 24.2083 128.813 24.2083 127.515 24.2083H124.38C125.557 24.2952 126.218 24.568 126.411 25.238V45.783C126.411 46.2173 126.123 46.5522 125.642 46.8375C125.114 47.1353 124.501 47.2842 123.804 47.2842C123.108 47.2842 122.507 47.1353 121.955 46.8375C121.462 46.5522 121.186 46.2173 121.186 45.783V38.9223C121.186 38.2399 121.894 37.8305 123.288 37.694H118.183L118.171 44.9394C118.219 45.6962 118.748 46.3289 119.793 46.8748H119.781ZM137.965 37.8802C139.142 37.9173 139.935 38.1034 140.343 38.426C140.751 38.7485 140.955 39.3069 140.955 40.1133V40.1753C140.967 39.344 140.979 38.5004 140.979 37.6692C140.979 36.838 140.979 35.9943 140.955 35.1632V35.2252C140.955 36.0439 140.751 36.6023 140.367 36.9497C139.947 37.297 139.142 37.4832 137.965 37.5328L136.584 37.5575L136.62 24.5184H139.61C140.848 24.5557 141.869 24.7789 142.697 25.2008C143.55 25.6474 144.007 26.2057 144.054 26.8508V24.1463H131.587C132.741 24.2455 133.413 24.6177 133.617 25.2752V46.701C133.425 47.3587 132.776 47.5199 131.599 47.5943H144.054V44.8898C144.007 45.5473 143.55 46.1055 142.685 46.5398C141.869 46.9617 140.848 47.1973 139.61 47.2345H136.572V37.8802H137.99H137.965ZM153.183 47.6068H153.831C154.901 44.2074 155.993 40.6715 157.134 36.9993L157.267 36.565L160.353 47.6068H161.013C162.059 44.2447 163.163 40.746 164.269 37.1109C165.578 32.9052 166.826 28.8855 168.04 25.0519C168.268 24.4688 168.869 24.2455 169.949 24.171H165.685C166.611 24.2455 167.427 24.4937 167.427 24.9403C167.427 24.9774 167.427 25.0147 167.415 25.0519C165.505 30.9822 163.656 36.9373 161.879 42.8923C160.882 39.0959 159.86 35.312 158.839 31.528C159.524 29.2949 160.208 27.1362 160.857 25.0519C161.098 24.4688 161.698 24.2455 162.779 24.171H152.126C153.147 24.2579 153.795 24.5557 154.071 25.0767L156.954 35.4484C156.209 37.9173 155.453 40.3987 154.708 42.8923C153.123 36.9373 151.525 30.9945 149.879 25.0519C149.868 25.027 149.868 25.0023 149.868 24.9899C149.868 24.8162 150.036 24.6425 150.372 24.4937C150.744 24.3323 151.165 24.2207 151.645 24.171H144.968C145.988 24.2579 146.637 24.5557 146.889 25.0767L153.194 47.6192L153.183 47.6068ZM157.063 25.0395C157.063 25.0395 157.05 24.9899 157.05 24.965C157.05 24.8038 157.194 24.6549 157.494 24.5184C157.819 24.3572 158.216 24.2455 158.671 24.1834C159.549 24.2579 160.269 24.506 160.269 24.9278C160.269 24.965 160.269 25.0023 160.257 25.0395C159.68 26.8384 159.104 28.6249 158.539 30.399C158.048 28.6125 157.567 26.826 157.086 25.0395H157.063ZM175.727 37.8802H174.334L174.322 47.2345H177.36C178.597 47.1973 179.619 46.974 180.434 46.5398C181.3 46.0932 181.756 45.5349 181.804 44.8898V47.5943H169.348C170.526 47.5199 171.187 47.3587 171.367 46.701V25.2752C171.163 24.6177 170.491 24.2455 169.336 24.1463H181.804V26.8508C181.756 26.1933 181.3 25.635 180.446 25.2008C179.619 24.7789 178.597 24.5557 177.36 24.5184H174.37L174.334 37.5575L175.715 37.5328C176.904 37.4832 177.697 37.2847 178.116 36.9497C178.513 36.6023 178.705 36.0439 178.705 35.2252V35.1632C178.717 35.9943 178.729 36.838 178.729 37.6692C178.729 38.5004 178.729 39.344 178.705 40.1753V40.1133C178.705 39.2944 178.501 38.7362 178.093 38.426C177.685 38.1034 176.892 37.9173 175.715 37.8802H175.727ZM195.209 47.6068V44.9022C195.172 45.5597 194.716 46.1179 193.862 46.5522C193.034 46.974 192.001 47.2098 190.776 47.2469H187.737V44.3935C187.75 37.9794 187.762 31.5777 187.786 25.1884C187.978 24.568 188.65 24.233 189.803 24.1587H182.766C183.906 24.233 184.578 24.568 184.783 25.1884V46.7135C184.59 47.371 183.919 47.5199 182.754 47.6068H195.221H195.209ZM208.637 47.6068V44.9022C208.6 45.5597 208.156 46.1179 207.292 46.5522C206.462 46.974 205.429 47.2098 204.204 47.2469H201.165V44.3935C201.178 37.9794 201.19 31.5777 201.214 25.1884C201.406 24.568 202.078 24.233 203.231 24.1587H196.194C197.334 24.233 198.006 24.568 198.211 25.1884V46.7135C198.018 47.371 197.347 47.5199 196.182 47.6068H208.637ZM215.975 37.8802C217.152 37.9173 217.945 38.1034 218.353 38.426C218.762 38.7485 218.966 39.3069 218.966 40.1133V40.1753C218.977 39.344 218.989 38.5004 218.989 37.6692C218.989 36.838 218.989 35.9943 218.966 35.1632V35.2252C218.966 36.0439 218.762 36.6023 218.377 36.9497C217.957 37.297 217.152 37.4832 215.975 37.5328L214.593 37.5575L214.63 24.5184H217.62C218.857 24.5557 219.878 24.7789 220.707 25.2008C221.559 25.6474 222.016 26.2057 222.065 26.8508V24.1463H209.597C210.75 24.2455 211.422 24.6177 211.627 25.2752V46.701C211.434 47.3587 210.787 47.5199 209.609 47.5943H222.065V44.8898C222.016 45.5473 221.559 46.1055 220.695 46.5398C219.878 46.9617 218.857 47.1973 217.62 47.2345H214.581V37.8802H215.999H215.975ZM227.937 24.5308H230.291C231.181 24.5308 233.005 24.6673 232.946 25.4365V36.6395C232.946 36.8628 232.801 37.0489 232.538 37.235C232.273 37.421 230.724 37.818 227.937 38.4384V24.5184V24.5308ZM231.444 37.9794L231.553 37.9545C232.093 37.9794 232.514 38.1283 232.813 38.4135C233.114 38.6989 233.27 39.0339 233.27 39.3813L233.186 46.6887C232.982 47.3338 232.309 47.5075 231.132 47.5819H238.159C236.982 47.5075 236.32 47.3338 236.14 46.6763L236.213 41.0934C236.213 40.1257 235.792 39.3069 234.664 38.5997C234.027 38.2027 233.282 37.9298 232.382 37.7809C233.246 37.5948 233.895 37.4087 234.351 37.1978C235.481 36.6767 235.901 36.0812 235.901 35.374V26.6648C235.901 25.9575 235.481 25.362 234.351 24.8534C233.175 24.3323 231.721 24.1338 230.291 24.1338H222.965C224.106 24.2083 224.791 24.5433 224.983 25.1759V46.6887C224.791 47.3462 224.106 47.5075 222.965 47.5943H229.991C228.802 47.5199 228.129 47.3587 227.949 46.6887V46.5522H227.937V38.7734L231.432 37.9545L231.444 37.9794ZM244.056 34.4808L239.227 25.1884C238.915 24.6425 238.147 24.3695 237.222 24.1587H243.828C243.431 24.1834 243.071 24.2952 242.77 24.4937C242.495 24.6549 242.35 24.8658 242.35 25.1139V25.1884L246.771 33.7488L250.998 25.1759C250.998 25.1759 250.998 25.1263 250.998 25.1015C250.998 24.903 250.758 24.2579 249.918 24.1587H254.181C254.073 24.1587 253.977 24.1834 253.868 24.1959C252.908 24.3572 251.971 24.7914 251.599 25.1759L247.034 34.4188L246.999 46.6763C247.202 47.309 247.875 47.5075 249.016 47.5943H242.014C243.155 47.5199 243.852 47.309 244.032 46.6763V34.4808H244.056Z" fill="#071E46"/>
<path fill-rule="evenodd" clip-rule="evenodd" d="M5.1602 43.9885C4.77586 44.2119 4.34347 44.3111 3.91108 44.2863C3.34658 44.2615 2.79409 44.0134 2.37371 43.5544L1.25672 42.3509C1.00449 42.078 0.764273 41.805 0.56009 41.5072C0.355908 41.1971 0.187757 40.8621 0.0916714 40.4651C-0.0164253 40.0433 -0.00441447 39.7331 0.00759626 39.3981C0.00759626 39.2989 0.00759626 39.2121 0.00759626 39.0633V35.9492C0.00759626 35.8004 0.00759626 35.7011 0.00759626 35.6142C0.00759626 35.2669 -0.0164253 34.9691 0.0916714 34.5349C0.187757 34.1379 0.355908 33.8029 0.56009 33.4928C0.764273 33.195 1.00449 32.922 1.25672 32.6491L2.37371 31.4456C2.79409 30.9866 3.35859 30.7385 3.93511 30.7137C4.41554 30.6889 4.89597 30.8254 5.31634 31.1107C5.37639 30.2919 5.56856 29.4979 5.86883 28.7535C6.22916 27.8726 6.74562 27.0663 7.43023 26.359L25.6745 7.48891C26.2991 6.84377 27.0317 6.32271 27.8245 5.95051C28.497 5.64035 29.2057 5.42945 29.9503 5.33019C29.7342 4.93319 29.638 4.48656 29.6621 4.03993C29.6861 3.45683 29.9264 2.88614 30.3708 2.45191L31.5358 1.29811C31.8 1.03758 32.0643 0.78945 32.3525 0.578541C32.6528 0.367632 32.9771 0.193942 33.3614 0.0946914C33.7697 -0.0169663 34.058 -0.00455992 34.3943 0.00784648C34.4904 0.00784648 34.5745 0.00784648 34.7186 0.00784648H37.7334C37.8774 0.00784648 37.9735 0.00784648 38.0576 0.00784648C38.3939 0.00784648 38.6822 -0.0169663 39.0905 0.0946914C39.4749 0.193942 39.7991 0.367632 40.0994 0.578541C40.3877 0.78945 40.652 1.03758 40.9161 1.29811L42.0812 2.45191C42.5256 2.89854 42.7658 3.48164 42.7899 4.06474C42.8138 4.5734 42.6817 5.08206 42.3815 5.51629C43.1622 5.59073 43.9068 5.77682 44.6274 6.09939C45.4802 6.47159 46.2609 7.00506 46.9215 7.69981C52.8909 13.8783 59.4967 20.2551 65.1899 26.6071C65.7784 27.2399 66.2467 27.9346 66.5951 28.7039C66.9194 29.4359 67.1356 30.2175 67.2317 31.0486C67.6281 30.8005 68.0724 30.7012 68.5047 30.7137C69.0813 30.7385 69.6338 30.9866 70.0662 31.4456L71.1832 32.6491C71.4354 32.922 71.6757 33.195 71.8798 33.4928C72.084 33.8029 72.2522 34.1379 72.3482 34.5349C72.4563 34.9691 72.4443 35.2669 72.4323 35.6142C72.4323 35.7135 72.4323 35.8004 72.4323 35.9492V39.0633C72.4323 39.2121 72.4323 39.3114 72.4323 39.3981C72.4323 39.7455 72.4563 40.0433 72.3482 40.4651C72.2522 40.8621 72.084 41.1971 71.8798 41.5072C71.6757 41.805 71.4354 42.078 71.1832 42.3509L70.0662 43.5544C69.6458 44.0134 69.0813 44.2615 68.5047 44.2863C68.0124 44.3111 67.5199 44.1746 67.0996 43.8645C67.0274 44.6709 66.8474 45.4525 66.547 46.1845C66.1868 47.0654 65.6703 47.8717 64.9977 48.5665C58.9202 54.869 52.8668 61.2459 46.7534 67.4986C46.1409 68.1066 45.4682 68.6029 44.7356 68.9626C44.0269 69.31 43.2702 69.5209 42.4655 69.6201C42.6938 70.0296 42.8018 70.4886 42.7899 70.9352C42.7658 71.5307 42.5256 72.1139 42.0812 72.5481L40.9161 73.7019C40.652 73.9624 40.3877 74.2105 40.0994 74.4215C39.7991 74.6324 39.4749 74.806 39.0905 74.9052C38.6822 75.017 38.3939 75.0045 38.0576 74.9921C37.9615 74.9921 37.8774 74.9921 37.7334 74.9921H34.7186C34.5745 74.9921 34.4784 74.9921 34.3943 74.9921C34.058 74.9921 33.7697 75.017 33.3614 74.9052C32.9771 74.806 32.6528 74.6324 32.3525 74.4215C32.0643 74.2105 31.8 73.9624 31.5358 73.7019L30.3708 72.5481C29.9264 72.1015 29.6861 71.5184 29.6621 70.9352C29.638 70.439 29.7702 69.9304 30.0464 69.5085C29.2537 69.4465 28.4851 69.248 27.7764 68.9379C26.9237 68.5656 26.1429 68.0198 25.4704 67.325L7.25006 48.43C6.62551 47.7849 6.12105 47.0281 5.76074 46.1969C5.46047 45.5021 5.25629 44.7578 5.17221 44.001L5.1602 43.9885ZM22.3716 36.6687C26.9356 36.6687 25.2902 37.3511 30.719 31.7186C31.8721 30.5153 32.845 29.4979 34.01 28.3069C35.9317 26.3466 35.4032 26.7436 35.4153 23.0714C34.034 23.8281 33.0612 25.2672 31.9441 26.4211L23.8369 34.8202C22.9121 35.7631 22.8279 35.6266 22.3716 36.6687ZM36.8685 22.848C36.9046 26.57 36.3881 26.4707 37.9975 28.0711L44.075 34.3736C46.8254 37.227 45.5523 36.7929 50.2965 36.7556C49.7801 35.8747 37.8054 23.4188 36.8685 22.848ZM22.1554 38.2693C22.5277 39.0633 22.3716 38.7902 22.9841 39.4354C25.0139 41.5941 34.2022 51.4076 35.4633 52.0899C35.4513 47.0033 36.232 48.9263 30.719 43.2194C25.1941 37.5 27.0557 38.294 22.1554 38.2693ZM36.8805 52.1395C38.2017 51.4324 46.6453 42.2516 48.591 40.2542C48.9153 39.9192 49.1795 39.6959 49.4798 39.361C50.0684 38.6786 49.8041 39.1129 50.1885 38.2816C45.4562 38.2692 47.1737 37.5 41.6127 43.2566C36.1119 48.9511 36.8805 47.0405 36.8805 52.1395ZM36.1479 45.4401C36.7124 45.13 36.7244 45.0431 37.2529 44.5096C38.7422 42.9464 43.4023 38.4678 43.8588 37.227L38.1056 31.3836C37.2529 30.4904 37.0607 30.0934 36.0638 29.5351L28.497 37.2642L36.1599 45.4525L36.1479 45.4401ZM68.4087 33.0709L63.5324 37.4876L68.4087 41.9042L69.5257 40.7009C70.3184 39.8449 70.1262 39.8448 70.1262 39.0508V37.4876V35.9244C70.1262 35.118 70.3184 35.118 69.5257 34.2744L68.4087 33.0709ZM31.9561 4.15159L36.2199 9.20099L40.4837 4.15159L39.3187 2.99779C38.502 2.17896 38.502 2.37748 37.7213 2.37748H36.2199H34.7186C33.938 2.37748 33.938 2.17896 33.1211 2.99779L31.9561 4.15159ZM4.0432 41.9042L8.91956 37.4876L4.0432 33.0709L2.9262 34.2744C2.13349 35.1304 2.32567 35.1304 2.32567 35.9244V37.4876V39.0508C2.32567 39.8573 2.13349 39.8572 2.9262 40.7009L4.0432 41.9042ZM40.4958 70.836L36.232 65.7866L31.9682 70.836L33.1332 71.9898C33.9499 72.8086 33.9499 72.6101 34.7306 72.6101H36.232H37.7334C38.514 72.6101 38.514 72.8086 39.3307 71.9898L40.4958 70.836ZM64.8295 43.0829C64.8055 41.681 64.265 40.2915 63.2081 39.1996C62.4875 38.4552 61.6226 37.9466 60.6979 37.6985C61.2262 37.562 61.6587 37.3511 62.019 37.0906C62.5595 36.6811 62.9679 36.3463 63.2441 36.0733C63.6404 35.6639 63.9648 35.2049 64.265 34.7085C64.8535 33.654 65.0697 32.5374 64.9496 31.3589C64.8416 30.1677 64.3731 29.1256 63.5443 28.2449L45.3001 9.36228C44.3032 8.33254 42.9699 7.81148 41.6248 7.84869C40.2675 7.8735 38.9344 8.4318 37.8774 9.52356C37.1448 10.2928 36.6404 11.2232 36.4121 12.2033C36.1359 11.1612 35.6194 10.2307 34.8508 9.42431L34.7066 9.27543C33.6496 8.2457 32.4126 7.69981 30.9713 7.62537C29.6261 7.58816 28.2929 8.10923 27.296 9.13896L9.05168 28.0091C8.03076 29.0636 7.56235 30.4035 7.58637 31.8179C7.6224 33.1701 8.09081 34.386 9.01564 35.5026C9.12375 35.639 9.24385 35.7631 9.36395 35.8871C10.0245 36.5695 10.7572 37.0657 11.5379 37.3511C10.6371 37.6489 9.83238 38.1575 9.13576 38.8771L8.99163 39.026C8.00675 40.1178 7.46626 41.408 7.39419 42.8968C7.35817 44.2863 7.86262 45.6634 8.8475 46.6931L27.0678 65.5881C28.0887 66.6426 29.3858 67.1265 30.7431 67.1141C32.0522 67.0769 33.2293 66.5806 34.2982 65.6378C34.4303 65.5261 34.5505 65.402 34.6706 65.278C35.3192 64.608 35.7755 63.8884 36.0638 63.1069C36.1959 63.5286 36.3641 63.9009 36.5803 64.1986C36.9766 64.7692 37.2889 65.1911 37.5651 65.464C37.9615 65.8735 38.3939 66.2209 38.8863 66.5186C39.9073 67.1265 40.9762 67.3623 42.1172 67.2258C43.2702 67.1141 44.2672 66.6303 45.1199 65.7618L63.3522 46.8544C64.3491 45.8248 64.8535 44.4476 64.8056 43.0581L64.8295 43.0829ZM58.0435 37.6985C57.5269 37.5248 57.0706 37.227 56.6382 36.83L54.1279 34.1999L57.515 30.6889C56.8424 31.6566 56.8303 32.5995 57.467 33.5175L59.5689 35.7011C60.3255 36.4826 61.3224 36.5322 62.1871 36.0981C62.4754 35.9492 62.7276 35.7755 62.9559 35.5398C63.1841 35.3041 63.6645 34.7954 63.7245 33.7036C63.7126 33.1826 63.5083 32.6491 63.088 32.0907C62.7156 31.607 62.3192 31.1604 61.923 30.7509L55.7735 24.374C55.5092 25.2176 55.0528 25.9869 54.4162 26.6567C53.3832 27.7237 52.0141 28.3069 50.6808 28.3316C49.3237 28.3565 48.0025 27.8726 46.9936 26.8305L37.7093 17.2155C37.0607 16.5456 36.6283 15.7267 36.4121 14.8582C36.244 15.4042 35.9557 15.888 35.5474 16.3099L33.2052 18.7291L32.5206 17.9971L31.812 17.2775L31.3436 16.7938C32.2564 17.5009 33.1573 17.5505 34.022 16.9054L35.0789 15.8136C35.7755 15.094 36.0638 14.1635 35.9436 12.9974C35.8837 12.4266 35.6914 11.8312 35.3912 11.2232C35.1631 10.7394 34.8508 10.3052 34.5025 9.94537C34.4184 9.85852 34.2262 9.68484 33.9259 9.4119C33.6377 9.15136 33.1812 9.0149 32.5566 8.96528C31.8721 8.94046 31.2955 9.18859 30.8271 9.67244L9.47206 31.793C9.00363 32.2769 8.83549 32.86 8.8475 33.5175C8.8475 34.0262 9.00363 34.4976 9.27988 34.9443C9.39999 35.1055 9.54412 35.2669 9.68825 35.4281C10.1687 35.8748 10.7452 36.0981 11.3698 36.1229C12.0063 36.1478 12.5588 35.974 13.0392 35.4901L20.582 27.6865C21.2066 26.8056 21.1585 25.8753 20.4619 24.9323L23.8609 28.4558L15.9578 36.644C15.6095 37.0038 15.2132 37.2766 14.7687 37.4627C15.1411 37.6365 15.4774 37.8846 15.7777 38.2071L18.1197 40.6264L17.4112 41.3336L16.7145 42.078L16.2462 42.5619C16.9307 41.6189 16.9667 40.6885 16.3542 39.7951L15.2972 38.7034C14.6006 37.9839 13.6998 37.6861 12.5829 37.7977C12.0303 37.8597 11.4658 38.0583 10.8773 38.3809C10.4089 38.6166 9.98851 38.9391 9.6402 39.2989C9.55613 39.3858 9.38798 39.5843 9.13576 39.8944C8.88353 40.1923 8.75141 40.676 8.71537 41.3088C8.69136 42.0159 8.93156 42.6114 9.39999 43.0953L30.7431 65.2282C31.2115 65.7121 31.7639 65.8982 32.4126 65.8735C32.905 65.8735 33.3614 65.7121 33.7938 65.4268C33.9499 65.3028 34.1061 65.1539 34.2622 65.005C34.6825 64.5088 34.9108 63.9132 34.9228 63.2681C34.9469 62.5981 34.7786 62.0275 34.3102 61.5436L26.7795 53.74C25.9267 53.0949 25.0259 53.1445 24.1131 53.864L27.5122 50.3406L35.4153 58.5289C35.7636 58.8886 36.0158 59.2856 36.1959 59.7446C36.3641 59.3725 36.5923 59.0127 36.8926 58.6901L39.4268 56.0848L42.8138 59.5958C41.8771 58.901 40.9762 58.8886 40.0875 59.5461L37.9856 61.7298C37.2288 62.5113 37.1808 63.5535 37.6012 64.4467C37.7453 64.7445 37.9134 65.0174 38.1417 65.2408C38.3699 65.4765 38.8503 65.9851 39.9073 66.0348C40.4117 66.0224 40.9281 65.8114 41.4687 65.3648C41.9371 64.9801 42.3694 64.5708 42.7538 64.1614L48.9033 57.7845C48.0866 57.5115 47.3419 57.0401 46.7054 56.3701C45.6724 55.3031 45.1199 53.8765 45.0959 52.4994C45.0718 51.085 45.5402 49.7328 46.5492 48.6781L55.8335 39.0633C56.4701 38.4056 57.2508 37.959 58.0916 37.7358L58.0435 37.6985ZM50.4046 56.1592L62.9919 43.1449C63.4603 42.661 63.6165 42.078 63.5924 41.4204C63.5684 40.7132 63.3281 40.1054 62.8358 39.5966C62.3433 39.088 61.7547 38.8399 61.0701 38.8151C60.4457 38.7779 59.8931 38.964 59.4247 39.4478L47.0296 52.2884C46.5612 52.7722 46.3209 53.3802 46.345 54.075C46.369 54.7821 46.6092 55.39 47.1017 55.8988C47.5941 56.4074 48.1827 56.6555 48.8672 56.6803C49.4317 56.6803 49.9482 56.5314 50.4167 56.1592H50.4046ZM54.2481 22.8109L41.6848 9.77169C41.2165 9.28784 40.652 9.11415 40.0274 9.15136C39.3428 9.17618 38.7542 9.4243 38.2617 9.93296C37.7694 10.4416 37.5291 11.0495 37.5051 11.7567C37.4691 12.4142 37.6493 12.9725 38.1177 13.4687L50.5127 26.3094C50.9812 26.7933 51.5576 27.0414 52.2423 27.0166C52.9269 26.9918 53.5155 26.7436 54.0078 26.235C54.5003 25.7264 54.7405 25.1184 54.7645 24.4112C54.7645 23.8281 54.6204 23.2822 54.26 22.8109H54.2481ZM3.94711 43.79C4.39151 43.8149 4.83591 43.6784 5.20824 43.3559C5.24428 43.3186 5.30433 43.2937 5.36438 43.2814C5.4965 43.2814 5.61661 43.3806 5.61661 43.5171C5.66465 44.3731 5.86883 45.2044 6.20513 45.9736C6.54143 46.7428 7.00986 47.4499 7.58637 48.0579L25.8066 66.9527C26.4433 67.6104 27.1759 68.119 27.9566 68.4664C28.7612 68.8138 29.6261 69.0122 30.5269 69.0246C30.587 69.0246 30.6349 69.0495 30.683 69.0868C30.7791 69.1735 30.7911 69.3349 30.7071 69.4341L30.587 69.583C30.2626 69.9675 30.1185 70.439 30.1426 70.9105C30.1665 71.3819 30.3467 71.8409 30.695 72.1882L31.86 73.3421C32.1122 73.5902 32.3525 73.826 32.6167 74.012C32.8689 74.1981 33.1573 74.347 33.4695 74.4339C33.8178 74.5331 34.0701 74.5208 34.3703 74.5083C34.4904 74.5083 34.6105 74.5083 34.7066 74.5083H37.7213C37.8174 74.5083 37.9494 74.5083 38.0576 74.5083C38.3578 74.5083 38.61 74.5331 38.9584 74.4339C39.2827 74.347 39.559 74.1981 39.8112 74.012C40.0754 73.826 40.3156 73.5902 40.5679 73.3421L41.7329 72.1882C42.0812 71.8409 42.2733 71.3819 42.2854 70.9105C42.3093 70.439 42.1532 69.9675 41.8409 69.583H41.829C41.829 69.583 41.7689 69.4713 41.7569 69.4093C41.7569 69.2728 41.853 69.1488 41.9851 69.1488L42.2974 69.1239C43.0781 69.0371 43.8228 68.8386 44.5073 68.5036C45.1919 68.1686 45.8286 67.7096 46.3931 67.1389L64.6373 48.2191C65.2619 47.574 65.7423 46.8172 66.0786 45.9984C66.4149 45.1671 66.6071 44.2739 66.6191 43.3682C66.6191 43.3062 66.6431 43.2566 66.6791 43.207C66.7632 43.1078 66.9194 43.0953 67.0155 43.1821L67.1836 43.331C67.544 43.666 68.0124 43.8149 68.4568 43.79C68.9132 43.7653 69.3576 43.5791 69.6938 43.207L70.8109 42.0035C71.0511 41.743 71.2673 41.4949 71.4595 41.2219C71.6396 40.9614 71.7718 40.6636 71.8558 40.3286C71.9518 39.9689 71.9399 39.7084 71.9279 39.3981C71.9279 39.2741 71.9279 39.15 71.9279 39.0508V35.9367C71.9279 35.8375 71.9279 35.7011 71.9279 35.5894C71.9279 35.2793 71.9518 35.0188 71.8558 34.6589C71.7718 34.324 71.6276 34.0386 71.4595 33.7656C71.2793 33.4928 71.0511 33.2323 70.8109 32.9841L69.6938 31.7806C69.3576 31.4209 68.9132 31.2224 68.4568 31.1975C68.0003 31.1728 67.544 31.334 67.1836 31.6566H67.1716C67.1716 31.6566 67.0755 31.731 67.0155 31.7434C66.8834 31.7434 66.7633 31.6441 66.7633 31.5077L66.7392 31.1727C66.6552 30.3539 66.4629 29.5971 66.1387 28.89C65.8144 28.1827 65.382 27.5252 64.8175 26.9421L46.5492 8.0472C45.9247 7.40206 45.1919 6.90581 44.4112 6.55842C43.6066 6.21105 42.7538 6.01255 41.865 5.98774C41.8049 5.98774 41.7569 5.96293 41.7088 5.9257C41.6127 5.83886 41.6008 5.67757 41.6848 5.57832L41.829 5.40464C42.1532 5.02004 42.2974 4.54859 42.2733 4.07715C42.2493 3.6057 42.0692 3.14666 41.7209 2.79929L40.5558 1.64549C40.3035 1.39736 40.0634 1.16164 39.7991 0.975546C39.5469 0.78945 39.2587 0.640573 38.9464 0.553729C38.5981 0.454478 38.3458 0.466884 38.0455 0.47929C37.9255 0.47929 37.8054 0.47929 37.7093 0.47929H34.6946C34.5986 0.47929 34.4663 0.47929 34.3583 0.47929C34.058 0.47929 33.8058 0.454478 33.4575 0.553729C33.1332 0.640573 32.8569 0.78945 32.6047 0.975546C32.3405 1.16164 32.1003 1.39736 31.8481 1.64549L30.683 2.79929C30.3347 3.14666 30.1545 3.5933 30.1305 4.05234C30.1064 4.51137 30.2387 4.98281 30.5509 5.35501C30.587 5.39222 30.6109 5.45426 30.623 5.51629C30.623 5.65276 30.5269 5.77682 30.3948 5.77682C29.5781 5.82645 28.7733 6.03736 28.0286 6.38474C27.2839 6.73211 26.5994 7.21596 26.0228 7.82387L7.77854 26.694C7.14197 27.3515 6.66154 28.1084 6.32525 28.9271C5.98894 29.7584 5.79677 30.6641 5.78476 31.5945C5.78476 31.6566 5.76074 31.7062 5.7247 31.7559C5.64063 31.8551 5.4845 31.8675 5.38841 31.7806L5.24428 31.6566C4.88395 31.3216 4.41554 31.1728 3.97114 31.1975C3.51473 31.2224 3.07033 31.4085 2.73404 31.7806L1.61704 32.9841C1.37682 33.2446 1.16063 33.4928 0.968455 33.7656C0.788293 34.0263 0.656176 34.324 0.572101 34.6589C0.476015 35.0188 0.488025 35.2793 0.500036 35.5894C0.500036 35.7135 0.500036 35.8375 0.500036 35.9367V39.0508C0.500036 39.15 0.500036 39.2865 0.500036 39.3981C0.500036 39.7084 0.476015 39.9689 0.572101 40.3286C0.656176 40.6636 0.800305 40.949 0.968455 41.2219C1.14862 41.4949 1.37682 41.7554 1.61704 42.0035L2.73404 43.207C3.07033 43.5668 3.50272 43.7652 3.94711 43.7776V43.79Z" fill="#071E46"/>
</g>
<defs>
<clipPath id="clip0_692_274">
<rect width="255" height="75" fill="white"/>
</clipPath>
</defs>
</svg>
