<svg width="225" height="210" viewBox="0 0 225 210" fill="none" xmlns="http://www.w3.org/2000/svg">
<path d="M37.2791 206.122C36.6631 206.122 36.1358 206.006 35.6971 205.772C35.2584 205.53 34.9084 205.208 34.6471 204.806C34.3951 204.396 34.2411 203.948 34.1851 203.462H35.2771C35.3704 203.985 35.5944 204.391 35.9491 204.68C36.3038 204.96 36.7518 205.1 37.2931 205.1C37.7878 205.1 38.2264 204.951 38.6091 204.652C38.9918 204.354 39.2998 203.901 39.5331 203.294C39.7758 202.678 39.9111 201.899 39.9391 200.956C39.9391 200.928 39.9391 200.9 39.9391 200.872C39.9391 200.844 39.9391 200.816 39.9391 200.788C39.7991 201.078 39.5938 201.348 39.3231 201.6C39.0524 201.852 38.7304 202.053 38.3571 202.202C37.9931 202.352 37.5824 202.426 37.1251 202.426C36.5744 202.426 36.0518 202.296 35.5571 202.034C35.0718 201.773 34.6751 201.409 34.3671 200.942C34.0684 200.466 33.9191 199.911 33.9191 199.276C33.9191 198.726 34.0544 198.198 34.3251 197.694C34.5958 197.19 34.9831 196.78 35.4871 196.462C35.9911 196.145 36.5884 195.986 37.2791 195.986C37.9791 195.986 38.5718 196.122 39.0571 196.392C39.5424 196.654 39.9298 197.008 40.2191 197.456C40.5178 197.895 40.7324 198.394 40.8631 198.954C40.9938 199.514 41.0591 200.084 41.0591 200.662C41.0591 201.736 40.9098 202.683 40.6111 203.504C40.3218 204.326 39.8924 204.97 39.3231 205.436C38.7631 205.894 38.0818 206.122 37.2791 206.122ZM37.3631 201.404C37.7924 201.404 38.1798 201.306 38.5251 201.11C38.8704 200.914 39.1411 200.648 39.3371 200.312C39.5424 199.976 39.6451 199.608 39.6451 199.206C39.6451 198.777 39.5424 198.399 39.3371 198.072C39.1411 197.746 38.8704 197.489 38.5251 197.302C38.1798 197.116 37.7924 197.022 37.3631 197.022C36.9338 197.022 36.5464 197.12 36.2011 197.316C35.8651 197.503 35.5991 197.76 35.4031 198.086C35.2071 198.413 35.1091 198.791 35.1091 199.22C35.1091 199.659 35.2071 200.042 35.4031 200.368C35.5991 200.695 35.8651 200.952 36.2011 201.138C36.5464 201.316 36.9338 201.404 37.3631 201.404ZM46.5969 205.954V196.154H52.6589V197.12H47.7729V200.536H52.2389V201.488H47.7729V204.988H52.6589V205.954H46.5969ZM54.4429 205.954V198.898H55.5069L55.5769 199.906C55.8009 199.542 56.0996 199.258 56.4729 199.052C56.8556 198.838 57.2709 198.73 57.7189 198.73C58.0829 198.73 58.4096 198.782 58.6989 198.884C58.9976 198.978 59.2589 199.127 59.4829 199.332C59.7069 199.528 59.8889 199.78 60.0289 200.088C60.2716 199.659 60.6029 199.328 61.0229 199.094C61.4522 198.852 61.9096 198.73 62.3949 198.73C62.9362 198.73 63.4076 198.842 63.8089 199.066C64.2196 199.281 64.5322 199.612 64.7469 200.06C64.9709 200.499 65.0829 201.059 65.0829 201.74V205.954H63.9209V201.866C63.9209 201.157 63.7762 200.625 63.4869 200.27C63.1976 199.916 62.7916 199.738 62.2689 199.738C61.9049 199.738 61.5782 199.836 61.2889 200.032C60.9996 200.219 60.7709 200.494 60.6029 200.858C60.4349 201.222 60.3509 201.67 60.3509 202.202V205.954H59.1749V201.866C59.1749 201.157 59.0302 200.625 58.7409 200.27C58.4516 199.916 58.0409 199.738 57.5089 199.738C57.1542 199.738 56.8322 199.836 56.5429 200.032C56.2629 200.219 56.0389 200.494 55.8709 200.858C55.7029 201.222 55.6189 201.67 55.6189 202.202V205.954H54.4429ZM70.0616 206.122C69.4083 206.122 68.8203 205.973 68.2976 205.674C67.775 205.366 67.3643 204.937 67.0656 204.386C66.767 203.826 66.6176 203.178 66.6176 202.44C66.6176 201.684 66.767 201.031 67.0656 200.48C67.3736 199.92 67.789 199.491 68.3116 199.192C68.8436 198.884 69.4363 198.73 70.0896 198.73C70.7616 198.73 71.3543 198.884 71.8676 199.192C72.3903 199.491 72.801 199.92 73.0996 200.48C73.4076 201.031 73.5616 201.68 73.5616 202.426C73.5616 203.173 73.4076 203.826 73.0996 204.386C72.7916 204.937 72.3763 205.366 71.8536 205.674C71.331 205.973 70.7336 206.122 70.0616 206.122ZM70.0756 205.114C70.477 205.114 70.8503 205.016 71.1956 204.82C71.541 204.615 71.821 204.312 72.0356 203.91C72.2503 203.509 72.3576 203.014 72.3576 202.426C72.3576 201.829 72.2503 201.334 72.0356 200.942C71.8303 200.541 71.555 200.242 71.2096 200.046C70.8736 199.841 70.5003 199.738 70.0896 199.738C69.6976 199.738 69.3243 199.841 68.9696 200.046C68.6243 200.242 68.3443 200.541 68.1296 200.942C67.9243 201.334 67.8216 201.829 67.8216 202.426C67.8216 203.014 67.9243 203.509 68.1296 203.91C68.3443 204.312 68.6196 204.615 68.9556 204.82C69.301 205.016 69.6743 205.114 70.0756 205.114ZM77.709 205.954C77.289 205.954 76.925 205.889 76.617 205.758C76.309 205.628 76.071 205.408 75.903 205.1C75.7444 204.783 75.665 204.358 75.665 203.826V199.892H74.433V198.898H75.665L75.819 197.19H76.841V198.898H78.885V199.892H76.841V203.826C76.841 204.265 76.9297 204.564 77.107 204.722C77.2844 204.872 77.597 204.946 78.045 204.946H78.801V205.954H77.709ZM80.5315 205.954V198.898H81.7075V205.954H80.5315ZM81.1195 197.4C80.8861 197.4 80.6901 197.326 80.5315 197.176C80.3821 197.018 80.3075 196.822 80.3075 196.588C80.3075 196.355 80.3821 196.168 80.5315 196.028C80.6901 195.879 80.8861 195.804 81.1195 195.804C81.3435 195.804 81.5348 195.879 81.6935 196.028C81.8521 196.168 81.9315 196.355 81.9315 196.588C81.9315 196.822 81.8521 197.018 81.6935 197.176C81.5348 197.326 81.3435 197.4 81.1195 197.4ZM86.9327 206.122C86.2794 206.122 85.6914 205.973 85.1687 205.674C84.6461 205.366 84.2354 204.937 83.9367 204.386C83.6381 203.826 83.4887 203.178 83.4887 202.44C83.4887 201.684 83.6381 201.031 83.9367 200.48C84.2447 199.92 84.6601 199.491 85.1827 199.192C85.7147 198.884 86.3074 198.73 86.9607 198.73C87.6327 198.73 88.2254 198.884 88.7387 199.192C89.2614 199.491 89.6721 199.92 89.9707 200.48C90.2787 201.031 90.4327 201.68 90.4327 202.426C90.4327 203.173 90.2787 203.826 89.9707 204.386C89.6627 204.937 89.2474 205.366 88.7247 205.674C88.2021 205.973 87.6047 206.122 86.9327 206.122ZM86.9467 205.114C87.3481 205.114 87.7214 205.016 88.0667 204.82C88.4121 204.615 88.6921 204.312 88.9067 203.91C89.1214 203.509 89.2287 203.014 89.2287 202.426C89.2287 201.829 89.1214 201.334 88.9067 200.942C88.7014 200.541 88.4261 200.242 88.0807 200.046C87.7447 199.841 87.3714 199.738 86.9607 199.738C86.5687 199.738 86.1954 199.841 85.8407 200.046C85.4954 200.242 85.2154 200.541 85.0007 200.942C84.7954 201.334 84.6927 201.829 84.6927 202.426C84.6927 203.014 84.7954 203.509 85.0007 203.91C85.2154 204.312 85.4907 204.615 85.8267 204.82C86.1721 205.016 86.5454 205.114 86.9467 205.114ZM92.0816 205.954V198.898H93.1456L93.2016 200.13C93.4256 199.692 93.7429 199.351 94.1536 199.108C94.5736 198.856 95.0496 198.73 95.5816 198.73C96.1322 198.73 96.6082 198.842 97.0096 199.066C97.4109 199.281 97.7236 199.612 97.9476 200.06C98.1716 200.499 98.2836 201.059 98.2836 201.74V205.954H97.1076V201.866C97.1076 201.157 96.9489 200.625 96.6316 200.27C96.3236 199.916 95.8849 199.738 95.3156 199.738C94.9236 199.738 94.5736 199.836 94.2656 200.032C93.9576 200.219 93.7102 200.494 93.5236 200.858C93.3462 201.213 93.2576 201.656 93.2576 202.188V205.954H92.0816ZM102.781 206.122C102.193 206.122 101.679 206.024 101.241 205.828C100.811 205.632 100.466 205.362 100.205 205.016C99.9526 204.662 99.7986 204.246 99.7426 203.77H100.947C100.993 204.013 101.091 204.237 101.241 204.442C101.39 204.648 101.591 204.816 101.843 204.946C102.104 205.068 102.421 205.128 102.795 205.128C103.121 205.128 103.392 205.082 103.607 204.988C103.821 204.886 103.98 204.75 104.083 204.582C104.195 204.414 104.251 204.232 104.251 204.036C104.251 203.747 104.181 203.528 104.041 203.378C103.91 203.229 103.714 203.112 103.453 203.028C103.191 202.935 102.874 202.856 102.501 202.79C102.193 202.734 101.889 202.66 101.591 202.566C101.292 202.473 101.026 202.352 100.793 202.202C100.559 202.044 100.373 201.852 100.233 201.628C100.102 201.404 100.037 201.129 100.037 200.802C100.037 200.401 100.139 200.046 100.345 199.738C100.55 199.421 100.844 199.174 101.227 198.996C101.619 198.819 102.071 198.73 102.585 198.73C103.341 198.73 103.952 198.912 104.419 199.276C104.885 199.64 105.161 200.168 105.245 200.858H104.083C104.036 200.504 103.882 200.228 103.621 200.032C103.369 199.827 103.019 199.724 102.571 199.724C102.132 199.724 101.796 199.813 101.563 199.99C101.339 200.168 101.227 200.401 101.227 200.69C101.227 200.877 101.287 201.045 101.409 201.194C101.539 201.334 101.726 201.456 101.969 201.558C102.221 201.661 102.529 201.745 102.893 201.81C103.359 201.894 103.784 202.006 104.167 202.146C104.549 202.286 104.857 202.496 105.091 202.776C105.333 203.047 105.455 203.434 105.455 203.938C105.455 204.377 105.343 204.76 105.119 205.086C104.904 205.413 104.596 205.67 104.195 205.856C103.793 206.034 103.322 206.122 102.781 206.122ZM107.568 206.024C107.335 206.024 107.139 205.95 106.98 205.8C106.831 205.642 106.756 205.45 106.756 205.226C106.756 205.002 106.831 204.816 106.98 204.666C107.139 204.508 107.335 204.428 107.568 204.428C107.801 204.428 107.993 204.508 108.142 204.666C108.291 204.816 108.366 205.002 108.366 205.226C108.366 205.45 108.291 205.642 108.142 205.8C107.993 205.95 107.801 206.024 107.568 206.024ZM118.08 206.122C117.137 206.122 116.307 205.912 115.588 205.492C114.879 205.063 114.323 204.47 113.922 203.714C113.53 202.949 113.334 202.062 113.334 201.054C113.334 200.056 113.53 199.178 113.922 198.422C114.323 197.657 114.879 197.06 115.588 196.63C116.307 196.201 117.137 195.986 118.08 195.986C119.041 195.986 119.877 196.201 120.586 196.63C121.295 197.06 121.846 197.657 122.238 198.422C122.639 199.178 122.84 200.056 122.84 201.054C122.84 202.062 122.639 202.949 122.238 203.714C121.846 204.47 121.295 205.063 120.586 205.492C119.877 205.912 119.041 206.122 118.08 206.122ZM118.08 205.086C118.789 205.086 119.41 204.928 119.942 204.61C120.483 204.284 120.899 203.822 121.188 203.224C121.487 202.618 121.636 201.894 121.636 201.054C121.636 200.214 121.487 199.496 121.188 198.898C120.899 198.292 120.483 197.83 119.942 197.512C119.41 197.195 118.789 197.036 118.08 197.036C117.38 197.036 116.759 197.195 116.218 197.512C115.686 197.83 115.271 198.292 114.972 198.898C114.683 199.496 114.538 200.214 114.538 201.054C114.538 201.894 114.683 202.618 114.972 203.224C115.271 203.822 115.686 204.284 116.218 204.61C116.759 204.928 117.38 205.086 118.08 205.086ZM124.484 205.954V198.898H125.548L125.604 200.13C125.828 199.692 126.145 199.351 126.556 199.108C126.976 198.856 127.452 198.73 127.984 198.73C128.535 198.73 129.011 198.842 129.412 199.066C129.813 199.281 130.126 199.612 130.35 200.06C130.574 200.499 130.686 201.059 130.686 201.74V205.954H129.51V201.866C129.51 201.157 129.351 200.625 129.034 200.27C128.726 199.916 128.287 199.738 127.718 199.738C127.326 199.738 126.976 199.836 126.668 200.032C126.36 200.219 126.113 200.494 125.926 200.858C125.749 201.213 125.66 201.656 125.66 202.188V205.954H124.484ZM135.617 206.122C134.954 206.122 134.366 205.968 133.853 205.66C133.349 205.352 132.952 204.923 132.663 204.372C132.374 203.812 132.229 203.164 132.229 202.426C132.229 201.68 132.369 201.031 132.649 200.48C132.938 199.93 133.34 199.5 133.853 199.192C134.376 198.884 134.973 198.73 135.645 198.73C136.336 198.73 136.919 198.884 137.395 199.192C137.88 199.5 138.249 199.906 138.501 200.41C138.762 200.905 138.893 201.451 138.893 202.048C138.893 202.142 138.893 202.24 138.893 202.342C138.893 202.445 138.888 202.562 138.879 202.692H133.111V201.782H137.745C137.717 201.138 137.502 200.634 137.101 200.27C136.709 199.906 136.214 199.724 135.617 199.724C135.216 199.724 134.842 199.818 134.497 200.004C134.161 200.182 133.89 200.448 133.685 200.802C133.48 201.148 133.377 201.582 133.377 202.104V202.496C133.377 203.075 133.48 203.56 133.685 203.952C133.9 204.344 134.175 204.638 134.511 204.834C134.856 205.03 135.225 205.128 135.617 205.128C136.112 205.128 136.518 205.021 136.835 204.806C137.162 204.582 137.395 204.284 137.535 203.91H138.697C138.585 204.33 138.389 204.708 138.109 205.044C137.829 205.38 137.479 205.646 137.059 205.842C136.648 206.029 136.168 206.122 135.617 206.122ZM147.391 206.122C146.672 206.122 146.047 205.992 145.515 205.73C144.983 205.469 144.572 205.105 144.283 204.638C143.993 204.172 143.849 203.63 143.849 203.014H145.081C145.081 203.397 145.169 203.752 145.347 204.078C145.524 204.396 145.781 204.652 146.117 204.848C146.462 205.035 146.887 205.128 147.391 205.128C147.829 205.128 148.203 205.058 148.511 204.918C148.828 204.769 149.066 204.568 149.225 204.316C149.393 204.064 149.477 203.78 149.477 203.462C149.477 203.08 149.393 202.772 149.225 202.538C149.066 202.296 148.847 202.1 148.567 201.95C148.287 201.801 147.96 201.67 147.587 201.558C147.223 201.437 146.84 201.311 146.439 201.18C145.664 200.919 145.095 200.592 144.731 200.2C144.367 199.808 144.185 199.3 144.185 198.674C144.185 198.142 144.306 197.676 144.549 197.274C144.801 196.873 145.155 196.56 145.613 196.336C146.079 196.103 146.63 195.986 147.265 195.986C147.89 195.986 148.431 196.103 148.889 196.336C149.355 196.57 149.719 196.892 149.981 197.302C150.242 197.704 150.373 198.17 150.373 198.702H149.141C149.141 198.432 149.071 198.166 148.931 197.904C148.791 197.643 148.576 197.428 148.287 197.26C148.007 197.083 147.652 196.994 147.223 196.994C146.868 196.985 146.551 197.046 146.271 197.176C146 197.298 145.785 197.475 145.627 197.708C145.477 197.942 145.403 198.226 145.403 198.562C145.403 198.88 145.468 199.136 145.599 199.332C145.739 199.528 145.935 199.696 146.187 199.836C146.448 199.967 146.751 200.088 147.097 200.2C147.442 200.312 147.825 200.438 148.245 200.578C148.721 200.737 149.141 200.933 149.505 201.166C149.878 201.39 150.167 201.68 150.373 202.034C150.587 202.389 150.695 202.842 150.695 203.392C150.695 203.859 150.569 204.302 150.317 204.722C150.074 205.133 149.71 205.469 149.225 205.73C148.739 205.992 148.128 206.122 147.391 206.122ZM152.32 209.034V198.898H153.384L153.482 200.046C153.631 199.822 153.823 199.612 154.056 199.416C154.289 199.211 154.569 199.048 154.896 198.926C155.223 198.796 155.596 198.73 156.016 198.73C156.707 198.73 157.304 198.894 157.808 199.22C158.321 199.547 158.718 199.99 158.998 200.55C159.287 201.101 159.432 201.731 159.432 202.44C159.432 203.15 159.287 203.784 158.998 204.344C158.718 204.895 158.321 205.329 157.808 205.646C157.295 205.964 156.693 206.122 156.002 206.122C155.433 206.122 154.929 206.006 154.49 205.772C154.061 205.539 153.729 205.212 153.496 204.792V209.034H152.32ZM155.876 205.1C156.333 205.1 156.739 204.988 157.094 204.764C157.449 204.54 157.724 204.232 157.92 203.84C158.125 203.439 158.228 202.968 158.228 202.426C158.228 201.894 158.125 201.428 157.92 201.026C157.724 200.625 157.449 200.312 157.094 200.088C156.739 199.864 156.333 199.752 155.876 199.752C155.409 199.752 154.999 199.864 154.644 200.088C154.289 200.312 154.014 200.625 153.818 201.026C153.622 201.428 153.524 201.894 153.524 202.426C153.524 202.968 153.622 203.439 153.818 203.84C154.014 204.232 154.289 204.54 154.644 204.764C154.999 204.988 155.409 205.1 155.876 205.1ZM163.38 206.122C162.81 206.122 162.334 206.024 161.952 205.828C161.569 205.623 161.284 205.357 161.098 205.03C160.911 204.694 160.818 204.33 160.818 203.938C160.818 203.462 160.939 203.061 161.182 202.734C161.434 202.398 161.784 202.146 162.232 201.978C162.689 201.801 163.226 201.712 163.842 201.712H165.704C165.704 201.274 165.634 200.91 165.494 200.62C165.363 200.322 165.167 200.098 164.906 199.948C164.654 199.799 164.336 199.724 163.954 199.724C163.506 199.724 163.118 199.836 162.792 200.06C162.465 200.284 162.264 200.616 162.19 201.054H160.986C161.042 200.55 161.21 200.13 161.49 199.794C161.779 199.449 162.143 199.188 162.582 199.01C163.02 198.824 163.478 198.73 163.954 198.73C164.607 198.73 165.148 198.852 165.578 199.094C166.016 199.328 166.343 199.659 166.558 200.088C166.772 200.508 166.88 201.008 166.88 201.586V205.954H165.83L165.76 204.708C165.666 204.904 165.545 205.091 165.396 205.268C165.256 205.436 165.088 205.586 164.892 205.716C164.696 205.838 164.472 205.936 164.22 206.01C163.977 206.085 163.697 206.122 163.38 206.122ZM163.562 205.128C163.888 205.128 164.182 205.063 164.444 204.932C164.714 204.792 164.943 204.606 165.13 204.372C165.316 204.13 165.456 203.864 165.55 203.574C165.652 203.285 165.704 202.982 165.704 202.664V202.622H163.94C163.482 202.622 163.114 202.678 162.834 202.79C162.554 202.893 162.353 203.042 162.232 203.238C162.11 203.425 162.05 203.64 162.05 203.882C162.05 204.134 162.106 204.354 162.218 204.54C162.339 204.727 162.512 204.872 162.736 204.974C162.969 205.077 163.244 205.128 163.562 205.128ZM168.699 205.954V198.898H169.763L169.847 200.242C170.005 199.925 170.206 199.654 170.449 199.43C170.701 199.206 170.999 199.034 171.345 198.912C171.699 198.791 172.101 198.73 172.549 198.73V199.962H172.115C171.816 199.962 171.531 200.004 171.261 200.088C170.99 200.163 170.747 200.289 170.533 200.466C170.327 200.644 170.164 200.886 170.043 201.194C169.931 201.493 169.875 201.866 169.875 202.314V205.954H168.699ZM178.22 205.954L174.86 202.09L177.926 198.898H179.368L175.854 202.51L175.868 201.67L179.718 205.954H178.22ZM173.88 205.954V195.874H175.056V205.954H173.88ZM180.935 205.954V195.874H182.111V205.954H180.935ZM187.146 206.122C186.484 206.122 185.896 205.968 185.382 205.66C184.878 205.352 184.482 204.923 184.192 204.372C183.903 203.812 183.758 203.164 183.758 202.426C183.758 201.68 183.898 201.031 184.178 200.48C184.468 199.93 184.869 199.5 185.382 199.192C185.905 198.884 186.502 198.73 187.174 198.73C187.865 198.73 188.448 198.884 188.924 199.192C189.41 199.5 189.778 199.906 190.03 200.41C190.292 200.905 190.422 201.451 190.422 202.048C190.422 202.142 190.422 202.24 190.422 202.342C190.422 202.445 190.418 202.562 190.408 202.692H184.64V201.782H189.274C189.246 201.138 189.032 200.634 188.63 200.27C188.238 199.906 187.744 199.724 187.146 199.724C186.745 199.724 186.372 199.818 186.026 200.004C185.69 200.182 185.42 200.448 185.214 200.802C185.009 201.148 184.906 201.582 184.906 202.104V202.496C184.906 203.075 185.009 203.56 185.214 203.952C185.429 204.344 185.704 204.638 186.04 204.834C186.386 205.03 186.754 205.128 187.146 205.128C187.641 205.128 188.047 205.021 188.364 204.806C188.691 204.582 188.924 204.284 189.064 203.91H190.226C190.114 204.33 189.918 204.708 189.638 205.044C189.358 205.38 189.008 205.646 188.588 205.842C188.178 206.029 187.697 206.122 187.146 206.122Z" fill="#071E46"/>
<path fill-rule="evenodd" clip-rule="evenodd" d="M2.14663 181.753C3.46751 182.507 5.07358 182.93 7.02488 183.02C7.25003 183.02 7.5052 183.02 7.73035 183.02C9.69666 183.02 11.3778 182.673 12.7587 181.995C14.1396 181.301 14.8301 180.471 14.8301 179.521V170.126H8.18065C9.7567 170.262 10.6723 170.76 10.8975 171.634V180.592C10.8975 181.15 10.5222 181.572 9.87678 181.949C9.24636 182.311 8.48085 182.522 7.58025 182.553C7.29506 182.553 6.99486 182.553 6.72468 182.522C6.03422 182.432 5.43382 182.251 4.9535 181.964C4.30807 181.602 3.93282 181.165 3.93282 180.607V155.242C3.94783 154.684 4.29306 154.202 4.98352 153.81C5.62895 153.463 6.21434 153.282 6.73969 153.252C7.28005 153.221 7.62528 153.206 7.8054 153.206C8.49586 153.206 9.20133 153.267 9.87678 153.402C10.7474 153.568 11.4828 153.794 12.0832 154.081C13.2991 154.684 13.8844 155.393 13.8844 156.207V157.459C13.6293 158.334 12.7137 158.846 11.1526 158.982H13.4492H14.8001V156.207C14.8001 155.257 14.1246 154.428 12.7437 153.749C11.2427 153.056 9.54656 152.694 7.64029 152.694H7.37011C5.37378 152.739 3.64763 153.146 2.16164 153.96C0.810745 154.729 0.000204896 155.83 0.000204896 157.007V178.662C-0.0148051 179.868 0.795735 180.924 2.14663 181.723V181.753ZM30.5455 154.036C29.1946 153.236 27.3634 152.769 25.3071 152.769C23.2507 152.769 21.4045 153.236 20.0836 154.036C18.7327 154.805 17.9071 155.906 17.9071 157.082V168.121C17.9071 169.327 18.7327 170.383 20.0836 171.182C21.4045 171.951 23.2807 172.449 25.3071 172.449C26.5529 172.449 27.7237 172.283 28.7894 171.951V179.265C28.7894 179.733 28.7594 180.23 28.6693 180.728C28.5642 181.301 28.249 181.723 27.7687 182.04C26.673 182.628 25.7273 182.628 25.292 182.628C24.8568 182.628 24.4365 182.583 24.0162 182.492C22.7704 182.236 21.8247 181.602 21.8247 180.713V178.209C22.0799 177.305 22.9655 176.762 24.5415 176.611H17.9221V179.612C17.9672 180.607 18.6426 181.422 19.9935 182.085C21.0142 182.583 21.9898 182.869 22.9055 182.96C23.8211 183.05 24.5415 183.095 25.0519 183.095C25.8174 183.095 26.5679 183.035 27.3484 182.914C28.9095 182.658 30.1853 182.16 31.176 181.406C32.1966 180.652 32.707 179.778 32.737 178.782V157.112C32.722 155.936 31.9114 154.835 30.5455 154.066V154.036ZM28.7894 170.111C28.6843 170.594 28.3391 171.001 27.7687 171.333C27.0782 171.725 26.2677 171.936 25.3071 171.936C24.3464 171.936 23.5359 171.74 22.8454 171.333C22.155 170.941 21.8247 170.458 21.8247 169.9V155.167C21.8247 154.609 22.2 154.187 22.8454 153.825C23.5359 153.433 24.3464 153.221 25.3071 153.221C26.2677 153.221 27.0782 153.417 27.7687 153.825C28.4141 154.171 28.8044 154.609 28.8044 155.167V170.111H28.7894ZM46.261 182.1C47.732 182.764 49.3831 183.11 51.2443 183.11H51.6346C53.6609 183.065 55.4021 182.643 56.843 181.844C58.1939 181.045 59.0345 179.974 59.0345 178.782V154.111C59.2897 153.267 60.1603 152.89 61.7363 152.784C60.0102 152.784 58.269 152.784 56.5428 152.784H52.3701C53.9461 152.905 54.8167 153.252 55.0719 154.111V180.698C55.0719 181.256 54.6966 181.693 54.0512 182.055C53.3457 182.447 52.5352 182.628 51.6046 182.628C50.6739 182.628 49.8784 182.432 49.1429 182.055C48.4975 181.693 48.1222 181.256 48.1222 180.698V171.83C48.1222 170.941 49.0679 170.413 50.9141 170.232H44.1296L44.1146 179.597C44.1746 180.577 44.8801 181.391 46.276 182.1H46.261ZM70.4271 170.473C71.9881 170.518 73.0388 170.76 73.5792 171.182C74.1195 171.604 74.3897 172.313 74.3897 173.369V173.444C74.4047 172.373 74.4197 171.272 74.4197 170.202C74.4197 169.131 74.4197 168.03 74.3897 166.96V167.035C74.3897 168.091 74.1195 168.829 73.5942 169.267C73.0388 169.719 71.9731 169.961 70.3971 170.021L68.5658 170.066L68.6109 153.191H72.5885C74.2246 153.236 75.5905 153.538 76.7013 154.081C77.842 154.654 78.4424 155.378 78.5025 156.222V152.724H61.9314C63.4625 152.859 64.3631 153.327 64.6332 154.187V181.889C64.3781 182.733 63.5075 182.945 61.9464 183.05H78.5175V179.552C78.4574 180.396 77.842 181.12 76.7013 181.693C75.6055 182.236 74.2546 182.537 72.6035 182.583H68.5658V170.488H70.4421L70.4271 170.473ZM90.6756 183.035H91.5311C92.9421 178.647 94.413 174.062 95.9291 169.312L96.0942 168.754L100.192 183.035H101.062C102.458 178.677 103.914 174.168 105.4 169.463C107.142 164.019 108.808 158.816 110.414 153.855C110.714 153.101 111.509 152.814 112.95 152.709H107.277C108.507 152.799 109.588 153.131 109.588 153.704C109.588 153.749 109.588 153.81 109.573 153.855C107.036 161.531 104.575 169.237 102.218 176.928C100.882 172.026 99.5315 167.125 98.1806 162.224C99.0962 159.329 99.9968 156.539 100.867 153.855C101.183 153.101 101.993 152.814 103.434 152.709H89.2646C90.6155 152.829 91.4861 153.206 91.8463 153.87L95.6889 167.291C94.6982 170.488 93.6926 173.7 92.7019 176.913C90.6005 169.222 88.4691 161.531 86.2776 153.84C86.2626 153.794 86.2626 153.779 86.2626 153.749C86.2626 153.523 86.4878 153.297 86.9381 153.116C87.4334 152.905 88.0038 152.754 88.6192 152.694H79.7333C81.0842 152.814 81.9398 153.191 82.3 153.855L90.6756 183.005V183.035ZM95.824 153.855C95.824 153.855 95.809 153.794 95.809 153.749C95.809 153.553 95.9891 153.357 96.3944 153.161C96.8297 152.95 97.355 152.799 97.9554 152.724C99.1262 152.829 100.072 153.146 100.072 153.689C100.072 153.734 100.072 153.794 100.057 153.84C99.2913 156.162 98.5258 158.469 97.7603 160.777C97.1149 158.469 96.4694 156.162 95.824 153.84V153.855ZM120.666 170.473H118.804L118.789 182.583H122.827C124.478 182.537 125.829 182.236 126.925 181.693C128.065 181.12 128.681 180.396 128.741 179.552V183.05H112.17C113.731 182.945 114.617 182.749 114.857 181.889V154.187C114.586 153.342 113.686 152.859 112.155 152.724H128.726V156.222C128.666 155.378 128.05 154.654 126.925 154.081C125.829 153.538 124.463 153.236 122.812 153.191H118.834L118.789 170.066L120.621 170.021C122.197 169.961 123.262 169.704 123.818 169.267C124.343 168.829 124.613 168.091 124.613 167.035V166.96C124.628 168.03 124.643 169.131 124.643 170.202C124.643 171.272 124.643 172.373 124.613 173.444V173.369C124.613 172.313 124.343 171.589 123.803 171.182C123.262 170.76 122.197 170.518 120.651 170.473H120.666ZM146.558 183.035V179.536C146.513 180.381 145.912 181.105 144.772 181.678C143.676 182.221 142.295 182.522 140.674 182.568H136.636V178.888C136.651 170.579 136.666 162.3 136.696 154.051C136.951 153.252 137.852 152.814 139.383 152.724H130.017C131.533 152.814 132.433 153.252 132.704 154.051V181.889C132.448 182.733 131.563 182.93 130.002 183.035H146.573H146.558ZM164.42 183.035V179.536C164.375 180.381 163.774 181.105 162.633 181.678C161.538 182.221 160.157 182.522 158.521 182.568H154.483V178.888C154.498 170.579 154.513 162.3 154.543 154.051C154.798 153.252 155.699 152.814 157.23 152.724H147.864C149.38 152.814 150.28 153.252 150.55 154.051V181.889C150.295 182.733 149.41 182.93 147.849 183.035H164.42ZM174.176 170.473C175.737 170.518 176.788 170.76 177.328 171.182C177.869 171.604 178.139 172.313 178.139 173.369V173.444C178.154 172.373 178.169 171.272 178.169 170.202C178.169 169.131 178.169 168.03 178.139 166.96V167.035C178.139 168.091 177.869 168.829 177.343 169.267C176.788 169.719 175.722 169.961 174.146 170.021L172.315 170.066L172.36 153.191H176.338C177.974 153.236 179.34 153.538 180.45 154.081C181.591 154.654 182.191 155.378 182.252 156.222V152.724H165.68C167.212 152.859 168.112 153.327 168.382 154.187V181.889C168.127 182.733 167.257 182.945 165.696 183.05H182.267V179.552C182.206 180.396 181.591 181.12 180.45 181.693C179.355 182.236 178.004 182.537 176.353 182.583H172.315V170.488H174.191L174.176 170.473ZM190.087 153.191H193.224C194.41 153.191 196.841 153.372 196.751 154.368V168.86C196.751 169.146 196.571 169.387 196.211 169.629C195.851 169.87 193.809 170.383 190.087 171.182V153.176V153.191ZM194.74 170.594L194.89 170.564C195.595 170.594 196.166 170.79 196.556 171.167C196.961 171.544 197.156 171.966 197.156 172.419L197.051 181.874C196.781 182.703 195.881 182.93 194.32 183.035H203.671C202.11 182.945 201.224 182.718 200.984 181.874L201.089 174.65C201.089 173.399 200.534 172.343 199.033 171.423C198.192 170.911 197.186 170.564 196.001 170.353C197.141 170.111 198.012 169.87 198.612 169.599C200.113 168.935 200.669 168.151 200.669 167.246V155.981C200.669 155.061 200.113 154.292 198.612 153.644C197.051 152.98 195.115 152.724 193.209 152.724H183.467C184.983 152.814 185.884 153.252 186.154 154.066V181.889C185.899 182.733 184.983 182.96 183.467 183.05H192.819C191.228 182.96 190.342 182.749 190.102 181.889V181.708H190.087V171.649L194.74 170.594ZM211.521 166.07L205.097 154.051C204.691 153.342 203.656 152.98 202.425 152.724H211.206C210.68 152.769 210.2 152.905 209.81 153.161C209.435 153.372 209.255 153.644 209.255 153.96V154.066L215.138 165.135L220.767 154.051C220.767 154.051 220.767 153.991 220.767 153.945C220.767 153.689 220.437 152.859 219.326 152.724H225C224.865 152.724 224.73 152.754 224.595 152.769C223.319 152.98 222.073 153.538 221.578 154.036L215.514 165.994L215.469 181.844C215.739 182.673 216.639 182.914 218.155 183.02H208.834C210.35 182.914 211.281 182.658 211.521 181.829V166.055V166.07Z" fill="#071E46"/>
<path fill-rule="evenodd" clip-rule="evenodd" d="M55.5726 78.2773C54.8671 78.6694 54.0716 78.8503 53.2911 78.8051C52.2554 78.7448 51.2497 78.3075 50.4842 77.5082L48.4429 75.3668C47.9776 74.8842 47.5423 74.4017 47.182 73.8588C46.8068 73.3008 46.5066 72.6976 46.3265 71.9888C46.1313 71.2348 46.1463 70.6919 46.1613 70.0887C46.1613 69.9228 46.1613 69.757 46.1613 69.4855V63.936V63.3328C46.1463 62.7145 46.1313 62.1867 46.3265 61.4326C46.5066 60.7239 46.8068 60.1207 47.182 59.5778C47.5423 59.0349 47.9776 58.5523 48.4429 58.0697L50.4842 55.9284C51.2647 55.114 52.2854 54.6767 53.3361 54.6315C54.2067 54.5862 55.0923 54.8275 55.8578 55.3402C55.9779 53.8774 56.3231 52.475 56.8785 51.1479C57.5389 49.5796 58.4845 48.1469 59.7304 46.8953L93.0676 13.3417C94.2083 12.1956 95.5442 11.2757 97.0002 10.6122C98.231 10.0542 99.5369 9.67718 100.873 9.5113C100.482 8.80253 100.302 8.00327 100.347 7.2191C100.407 6.17856 100.828 5.15311 101.638 4.38401L103.755 2.3331C104.235 1.86561 104.715 1.42828 105.256 1.05127C105.811 0.674267 106.396 0.372662 107.102 0.176618C107.852 -0.0194251 108.378 -0.00434483 108.993 0.0107354C109.158 0.0107354 109.323 0.0107354 109.594 0.0107354H115.102H115.703C116.318 -0.00434483 116.843 -0.0345054 117.594 0.176618C118.299 0.357581 118.9 0.659187 119.44 1.05127C119.98 1.42828 120.461 1.86561 120.941 2.3331L123.058 4.38401C123.868 5.16819 124.303 6.20872 124.348 7.26434C124.393 8.16916 124.138 9.07397 123.613 9.85815C125.024 9.97879 126.405 10.3256 127.711 10.8836C129.257 11.5471 130.698 12.4972 131.913 13.7338C142.646 24.5463 155.299 36.2034 165.326 47.3628C166.391 48.4787 167.247 49.7153 167.877 51.0574C168.478 52.3543 168.868 53.7417 169.033 55.2347C169.754 54.7973 170.564 54.6164 171.36 54.6465C172.41 54.6918 173.431 55.1291 174.212 55.9434L176.253 58.0848C176.718 58.5674 177.154 59.05 177.514 59.5929C177.889 60.1508 178.189 60.754 178.369 61.4477C178.564 62.2017 178.549 62.7446 178.534 63.3478C178.534 63.5137 178.534 63.6947 178.534 63.9511V69.5006V70.1038C178.549 70.7221 178.579 71.2499 178.369 72.0039C178.189 72.7127 177.889 73.3159 177.514 73.8739C177.154 74.4168 176.718 74.8993 176.253 75.3819L174.212 77.5233C173.431 78.3376 172.41 78.775 171.36 78.8202C170.474 78.8654 169.558 78.6091 168.793 78.0813C168.673 79.5139 168.328 80.9013 167.772 82.1982C167.112 83.7665 166.166 85.1991 164.95 86.4206C153.843 97.6253 142.796 108.966 131.598 120.065C130.487 121.15 129.257 122.025 127.906 122.659C126.615 123.262 125.234 123.654 123.763 123.82C124.183 124.544 124.378 125.358 124.348 126.172C124.303 127.228 123.868 128.253 123.058 129.037L120.941 131.088C120.461 131.556 119.98 131.993 119.44 132.37C118.885 132.747 118.299 133.049 117.594 133.245C116.843 133.441 116.318 133.426 115.703 133.411C115.538 133.411 115.372 133.411 115.102 133.411H109.594H108.993C108.378 133.426 107.852 133.441 107.102 133.245C106.396 133.064 105.796 132.762 105.256 132.37C104.715 131.993 104.235 131.556 103.755 131.088L101.638 129.037C100.828 128.253 100.392 127.213 100.347 126.172C100.302 125.282 100.543 124.393 101.053 123.624C99.6119 123.503 98.201 123.156 96.8951 122.598C95.3341 121.935 93.9081 120.97 92.6773 119.718L59.3851 86.1341C58.2444 84.988 57.3288 83.6308 56.6683 82.168C56.113 80.9314 55.7527 79.6194 55.5876 78.2622L55.5726 78.2773ZM84.3468 65.1122C93.5779 65.1424 90.2457 66.4544 101.218 55.3704C103.56 53.0179 105.511 50.9971 107.867 48.6597C111.755 44.7991 110.689 45.5833 110.704 38.3598C107.912 39.8377 105.931 42.6728 103.68 44.9499L87.3037 61.4628C85.4275 63.3328 85.2624 63.0613 84.3468 65.1122ZM113.631 37.9376C113.706 45.2515 112.656 45.0555 115.913 48.1922L128.206 60.5731C133.775 66.1829 131.193 65.3234 140.784 65.263C139.734 63.5288 115.538 39.0385 113.646 37.9376H113.631ZM83.8965 68.264C84.647 69.8173 84.3468 69.2895 85.5626 70.5562C89.6603 74.7938 108.228 94.0965 110.794 95.4386C110.764 85.4404 112.355 89.2256 101.203 77.9908C90.0355 66.7409 93.803 68.2942 83.8965 68.264ZM113.646 95.514C116.303 94.1267 133.384 76.0756 137.317 72.1547C137.977 71.4912 138.518 71.0539 139.118 70.3903C140.319 69.0633 139.779 69.9078 140.544 68.2791C130.983 68.2489 134.435 66.7409 123.208 78.0511C112.1 89.2557 113.631 85.5008 113.646 95.514ZM112.175 82.3641C113.316 81.7608 113.346 81.595 114.397 80.5243C117.414 77.4479 126.825 68.641 127.756 66.198L116.123 54.7069C114.397 52.9575 114.007 52.1734 111.995 51.0725L96.7 66.2583L112.175 82.3641ZM171.15 58.869L162.249 66.7258L171.15 74.5826L173.191 72.4412C174.632 70.9332 174.287 70.9332 174.287 69.5006V66.7258V63.9511C174.287 62.5184 174.632 62.5184 173.191 61.0104L171.15 58.869ZM104.535 7.46039L112.325 16.4331L120.116 7.46039L117.999 5.40947C116.498 3.96176 116.498 4.29353 115.072 4.29353H112.325H109.579C108.153 4.29353 108.153 3.94668 106.652 5.40947L104.535 7.46039ZM53.5162 74.5826L62.4172 66.7258L53.5162 58.869L51.4749 61.0104C50.0339 62.5184 50.3791 62.5184 50.3791 63.9511V66.7258V69.5006C50.3791 70.9332 50.0339 70.9332 51.4749 72.4412L53.5162 74.5826ZM120.131 125.991L112.34 117.019L104.55 125.991L106.667 128.042C108.168 129.49 108.168 129.158 109.594 129.158H112.34H115.087C116.513 129.158 116.513 129.505 118.014 128.042L120.131 125.991ZM164.605 76.6788C164.575 74.1755 163.584 71.7174 161.648 69.772C160.342 68.445 158.736 67.5402 157.07 67.1179C158.031 66.8615 158.826 66.4996 159.472 66.0321C160.462 65.3083 161.213 64.7201 161.693 64.2225C162.414 63.4986 163.014 62.6843 163.569 61.7946C164.635 59.9246 165.04 57.9491 164.83 55.8529C164.635 53.7266 163.78 51.8868 162.249 50.3185L128.896 16.7498C127.08 14.9251 124.649 13.9901 122.187 14.0655C119.71 14.0957 117.264 15.091 115.327 17.0364C113.976 18.3936 113.061 20.0675 112.656 21.8017C112.16 19.9468 111.215 18.288 109.804 16.8705L109.549 16.6141C107.612 14.7894 105.361 13.8092 102.719 13.6735C100.257 13.5981 97.8257 14.5179 96.0095 16.3577L62.6723 49.9113C60.8111 51.7813 59.9555 54.179 59.9855 56.6824C60.0456 59.0952 60.9162 61.2517 62.5973 63.2272C62.7924 63.4685 63.0176 63.6947 63.2427 63.9058C64.4585 65.1273 65.7794 66.002 67.2053 66.5147C65.5693 67.0425 64.0983 67.9473 62.8224 69.2442L62.5673 69.5006C60.7511 71.4459 59.7904 73.7231 59.6553 76.3772C59.5803 78.8503 60.4959 81.3084 62.3121 83.1331L95.6043 116.717C97.4655 118.587 99.8371 119.446 102.329 119.416C104.73 119.341 106.877 118.481 108.828 116.777C109.068 116.581 109.293 116.355 109.504 116.129C110.674 114.937 111.53 113.656 112.055 112.253C112.295 113.007 112.611 113.656 113.001 114.198C113.721 115.209 114.307 115.948 114.787 116.445C115.507 117.169 116.318 117.773 117.204 118.33C119.065 119.416 121.016 119.823 123.103 119.597C125.204 119.401 127.035 118.527 128.596 117.003L161.903 83.4046C163.72 81.5799 164.635 79.1218 164.56 76.6486L164.605 76.6788ZM152.207 67.1028C151.276 66.7861 150.421 66.2734 149.655 65.5496L145.062 60.8747L151.246 54.6465C150.015 56.3657 150 58.0245 151.171 59.6683L155.014 63.5439C156.395 64.9464 158.226 65.0218 159.802 64.2527C160.327 63.9963 160.793 63.6796 161.213 63.2724C161.618 62.8502 162.519 61.9605 162.624 60.0151C162.594 59.0952 162.234 58.1301 161.453 57.1499C160.763 56.3054 160.042 55.5061 159.322 54.7823L148.079 43.457C147.599 44.965 146.758 46.3222 145.588 47.5136C143.696 49.4137 141.19 50.4391 138.773 50.4844C136.281 50.5296 133.88 49.67 132.034 47.8152L115.072 30.7142C113.886 29.5228 113.106 28.06 112.716 26.5068C112.4 27.487 111.875 28.3315 111.14 29.0855L106.862 33.3834L105.616 32.0865L104.31 30.8197L103.454 29.9601C105.121 31.2118 106.757 31.2872 108.348 30.1713L110.284 28.2259C111.56 26.9441 112.085 25.2853 111.875 23.2193C111.755 22.1938 111.425 21.1533 110.854 20.0675C110.434 19.2079 109.864 18.4388 109.218 17.7904C109.053 17.6245 108.708 17.3229 108.168 16.8554C107.642 16.403 106.802 16.1466 105.676 16.0712C104.43 16.026 103.379 16.4633 102.509 17.3229L63.4679 56.622C62.6123 57.4816 62.2971 58.5071 62.3421 59.6984C62.3421 60.6032 62.6423 61.4477 63.1376 62.2319C63.3628 62.5184 63.603 62.82 63.8881 63.0915C64.7737 63.8757 65.8094 64.2979 66.9502 64.313C68.121 64.3582 69.1266 64.0415 69.9972 63.182L83.7764 49.3081C84.9021 47.7398 84.8271 46.096 83.5512 44.407L89.7654 50.6653L75.3258 65.2178C74.6803 65.8662 73.9598 66.3488 73.1493 66.6655C73.8248 66.9822 74.4402 67.4195 74.9955 67.9775L79.2734 72.2754L77.9825 73.527L76.7217 74.839L75.8661 75.6986C77.1119 74.0096 77.187 72.3658 76.0763 70.7673L74.14 68.822C72.8641 67.5402 71.213 67.0123 69.1717 67.2235C68.166 67.3441 67.1153 67.6759 66.0496 68.2489C65.194 68.6712 64.4285 69.2442 63.7981 69.8927C63.633 70.0586 63.3328 70.4054 62.8675 70.9483C62.4172 71.4912 62.162 72.3357 62.0869 73.4667C62.0419 74.7334 62.4772 75.7891 63.3328 76.6486L102.329 115.978C103.184 116.838 104.205 117.154 105.376 117.124C106.261 117.124 107.102 116.822 107.897 116.325C108.183 116.099 108.483 115.842 108.753 115.571C109.534 114.681 109.939 113.641 109.969 112.479C110.014 111.303 109.699 110.278 108.843 109.418L95.0639 95.5442C93.5029 94.3981 91.8668 94.4886 90.2007 95.7704L96.4148 89.5121L110.854 104.065C111.485 104.698 111.965 105.422 112.28 106.221C112.596 105.558 113.016 104.924 113.541 104.351L118.179 99.7214L124.363 105.95C122.667 104.713 121.001 104.698 119.38 105.874L115.538 109.75C114.157 111.137 114.067 112.992 114.832 114.576C115.087 115.118 115.402 115.586 115.808 115.993C116.213 116.415 117.114 117.305 119.035 117.411C119.95 117.38 120.911 117.019 121.887 116.234C122.727 115.541 123.523 114.817 124.243 114.093L135.486 102.768C133.985 102.285 132.634 101.441 131.463 100.264C129.572 98.3642 128.566 95.8458 128.521 93.3877C128.476 90.8844 129.332 88.4565 131.178 86.6016L148.139 69.5006C149.31 68.3243 150.736 67.5402 152.252 67.133L152.207 67.1028ZM138.233 99.9175L161.228 76.7844C162.083 75.9248 162.384 74.8842 162.324 73.7231C162.279 72.4563 161.843 71.3856 160.943 70.4808C160.042 69.576 158.976 69.1236 157.716 69.0783C156.56 69.018 155.554 69.3347 154.699 70.1943L132.049 93.0107C131.193 93.8703 130.758 94.941 130.803 96.1927C130.848 97.4594 131.283 98.5301 132.184 99.4349C133.084 100.34 134.15 100.792 135.411 100.822C136.446 100.837 137.392 100.551 138.233 99.9024V99.9175ZM145.272 40.6219L122.307 17.4435C121.451 16.5839 120.431 16.2823 119.275 16.3427C118.029 16.3879 116.948 16.8252 116.048 17.73C115.147 18.6349 114.697 19.7206 114.667 20.9723C114.607 22.1335 114.922 23.1439 115.778 24.0034L138.428 46.8199C139.283 47.6795 140.349 48.1168 141.58 48.0866C142.826 48.0414 143.906 47.604 144.807 46.6992C145.708 45.7944 146.158 44.7086 146.188 43.457C146.203 42.4164 145.918 41.4664 145.272 40.6219ZM53.3511 77.9305C54.1617 77.9757 54.9872 77.7193 55.6477 77.1614C55.7227 77.086 55.8128 77.0558 55.9178 77.0407C56.158 77.0256 56.3681 77.2066 56.3831 77.463C56.4732 78.971 56.8485 80.4489 57.4639 81.8212C58.0793 83.1784 58.9348 84.4451 60.0006 85.5158L93.2927 119.1C94.4485 120.276 95.7844 121.166 97.2253 121.784C98.6963 122.402 100.287 122.749 101.923 122.779C102.029 122.779 102.134 122.809 102.209 122.885C102.389 123.051 102.404 123.322 102.254 123.518L102.029 123.774C101.443 124.453 101.173 125.298 101.203 126.127C101.233 126.956 101.578 127.771 102.224 128.404L104.34 130.455C104.79 130.892 105.241 131.3 105.721 131.646C106.186 131.978 106.697 132.234 107.282 132.385C107.912 132.551 108.378 132.536 108.918 132.521H109.549H115.057C115.222 132.521 115.462 132.521 115.688 132.521C116.228 132.536 116.693 132.551 117.324 132.385C117.909 132.234 118.419 131.978 118.885 131.646C119.365 131.315 119.815 130.907 120.266 130.455L122.382 128.404C123.028 127.786 123.373 126.971 123.403 126.127C123.433 125.298 123.163 124.453 122.577 123.774V123.744C122.487 123.669 122.442 123.578 122.427 123.458C122.412 123.216 122.592 123.005 122.832 122.99C123.027 122.99 123.223 122.975 123.418 122.945C124.859 122.794 126.195 122.432 127.455 121.844C128.701 121.256 129.857 120.442 130.908 119.416C142.105 108.317 153.153 96.9768 164.245 85.7873C165.386 84.6412 166.271 83.299 166.887 81.8363C167.502 80.3584 167.847 78.7749 167.877 77.1614C167.877 77.0558 167.907 76.9502 167.982 76.8748C168.148 76.6939 168.418 76.6788 168.598 76.8296L168.898 77.086C169.573 77.6741 170.399 77.9455 171.225 77.9154C172.05 77.8852 172.861 77.5384 173.476 76.8899L175.517 74.7485C175.953 74.2961 176.358 73.8437 176.688 73.3461C177.003 72.8786 177.274 72.3658 177.424 71.7626C177.589 71.1293 177.574 70.6467 177.559 70.1038V69.4704V63.9209C177.559 63.7399 177.559 63.5137 177.559 63.2875C177.574 62.7446 177.589 62.2771 177.424 61.6287C177.274 61.0406 177.018 60.5278 176.688 60.0453C176.358 59.5627 175.953 59.1103 175.517 58.6428L173.476 56.5014C172.861 55.853 172.05 55.5061 171.225 55.4759C170.399 55.4458 169.573 55.7172 168.898 56.2903L168.868 56.3204C168.868 56.3204 168.703 56.4411 168.598 56.4411C168.358 56.4562 168.148 56.2752 168.133 56.0339C168.133 55.8379 168.103 55.6418 168.087 55.4458C167.937 53.9981 167.577 52.6409 166.992 51.3892C166.406 50.1375 165.611 48.9764 164.605 47.9358C153.423 37.5606 142.06 25.2551 131.208 14.3219C130.067 13.1758 128.731 12.2861 127.29 11.6678C125.834 11.0495 124.258 10.7026 122.652 10.6574C122.547 10.6574 122.442 10.6272 122.367 10.5518C122.187 10.386 122.172 10.1145 122.322 9.91847L122.577 9.61686C123.163 8.93825 123.433 8.09376 123.403 7.26434C123.373 6.43493 123.028 5.62059 122.382 4.98722L120.266 2.93631C119.815 2.49898 119.365 2.09181 118.885 1.74497C118.419 1.4132 117.909 1.15684 117.324 1.00603C116.693 0.84015 116.228 0.85523 115.673 0.87031H115.057H109.549C109.383 0.87031 109.143 0.87031 108.933 0.87031C108.393 0.85523 107.927 0.84015 107.282 1.00603C106.697 1.15684 106.186 1.4132 105.721 1.74497C105.241 2.07673 104.79 2.4839 104.34 2.93631L102.224 4.98722C101.593 5.60551 101.248 6.40477 101.203 7.2191C101.158 8.03344 101.413 8.86285 101.968 9.54146C102.044 9.61686 102.074 9.70735 102.089 9.81291C102.089 10.0542 101.923 10.2653 101.668 10.2804C100.167 10.3709 98.6963 10.7479 97.3454 11.3662C95.9945 11.9845 94.7487 12.844 93.683 13.9147L60.3458 47.4683C59.19 48.6295 58.2894 49.9867 57.689 51.4344C57.0736 52.9123 56.7284 54.5108 56.6984 56.1696C56.6984 56.2752 56.6683 56.3808 56.5933 56.4562C56.4282 56.6371 56.158 56.6522 55.9779 56.5014L55.7227 56.2752C55.0473 55.6871 54.2217 55.4156 53.3962 55.4458C52.5706 55.4759 51.7601 55.8228 51.1447 56.4712L49.1033 58.6126C48.668 59.065 48.2627 59.5175 47.9325 60.0151C47.6173 60.4826 47.3471 60.9953 47.197 61.5985C47.0319 62.2319 47.0469 62.6994 47.0619 63.2423C47.0619 63.4685 47.077 63.6947 47.077 63.8757V69.4252C47.077 69.5911 47.077 69.8324 47.077 70.0586C47.0619 70.6014 47.0469 71.084 47.212 71.7174C47.3621 72.3055 47.6173 72.8183 47.9475 73.3008C48.2778 73.7834 48.683 74.2358 49.1183 74.7033L51.1597 76.8447C51.7601 77.4781 52.5706 77.8249 53.3811 77.8701L53.3511 77.9305Z" fill="#071E46"/>
</svg>
