<svg width="225" height="210" viewBox="0 0 225 210" fill="none" xmlns="http://www.w3.org/2000/svg">
<path d="M37.2811 206.122C36.6651 206.122 36.1377 206.005 35.6991 205.772C35.2604 205.529 34.9104 205.207 34.6491 204.806C34.3971 204.395 34.2431 203.947 34.1871 203.462H35.2791C35.3724 203.985 35.5964 204.391 35.9511 204.68C36.3057 204.96 36.7537 205.1 37.2951 205.1C37.7897 205.1 38.2284 204.951 38.6111 204.652C38.9937 204.353 39.3017 203.901 39.5351 203.294C39.7777 202.678 39.9131 201.899 39.9411 200.956C39.9411 200.928 39.9411 200.9 39.9411 200.872C39.9411 200.844 39.9411 200.816 39.9411 200.788C39.8011 201.077 39.5957 201.348 39.3251 201.6C39.0544 201.852 38.7324 202.053 38.3591 202.202C37.9951 202.351 37.5844 202.426 37.1271 202.426C36.5764 202.426 36.0537 202.295 35.5591 202.034C35.0737 201.773 34.6771 201.409 34.3691 200.942C34.0704 200.466 33.9211 199.911 33.9211 199.276C33.9211 198.725 34.0564 198.198 34.3271 197.694C34.5977 197.19 34.9851 196.779 35.4891 196.462C35.9931 196.145 36.5904 195.986 37.2811 195.986C37.9811 195.986 38.5737 196.121 39.0591 196.392C39.5444 196.653 39.9317 197.008 40.2211 197.456C40.5197 197.895 40.7344 198.394 40.8651 198.954C40.9957 199.514 41.0611 200.083 41.0611 200.662C41.0611 201.735 40.9117 202.683 40.6131 203.504C40.3237 204.325 39.8944 204.969 39.3251 205.436C38.7651 205.893 38.0837 206.122 37.2811 206.122ZM37.3651 201.404C37.7944 201.404 38.1817 201.306 38.5271 201.11C38.8724 200.914 39.1431 200.648 39.3391 200.312C39.5444 199.976 39.6471 199.607 39.6471 199.206C39.6471 198.777 39.5444 198.399 39.3391 198.072C39.1431 197.745 38.8724 197.489 38.5271 197.302C38.1817 197.115 37.7944 197.022 37.3651 197.022C36.9357 197.022 36.5484 197.12 36.2031 197.316C35.8671 197.503 35.6011 197.759 35.4051 198.086C35.2091 198.413 35.1111 198.791 35.1111 199.22C35.1111 199.659 35.2091 200.041 35.4051 200.368C35.6011 200.695 35.8671 200.951 36.2031 201.138C36.5484 201.315 36.9357 201.404 37.3651 201.404Z" fill="#FCD6AB"/>
<path d="M46.5988 205.954V196.154H52.6608V197.12H47.7748V200.536H52.2408V201.488H47.7748V204.988H52.6608V205.954H46.5988Z" fill="#FCD6AB"/>
<path d="M54.4448 205.954V198.898H55.5088L55.5788 199.906C55.8028 199.542 56.1015 199.257 56.4748 199.052C56.8575 198.837 57.2728 198.73 57.7208 198.73C58.0848 198.73 58.4115 198.781 58.7008 198.884C58.9995 198.977 59.2608 199.127 59.4848 199.332C59.7088 199.528 59.8908 199.78 60.0308 200.088C60.2735 199.659 60.6048 199.327 61.0248 199.094C61.4542 198.851 61.9115 198.73 62.3968 198.73C62.9382 198.73 63.4095 198.842 63.8108 199.066C64.2215 199.281 64.5342 199.612 64.7488 200.06C64.9728 200.499 65.0848 201.059 65.0848 201.74V205.954H63.9228V201.866C63.9228 201.157 63.7782 200.625 63.4888 200.27C63.1995 199.915 62.7935 199.738 62.2708 199.738C61.9068 199.738 61.5802 199.836 61.2908 200.032C61.0015 200.219 60.7728 200.494 60.6048 200.858C60.4368 201.222 60.3528 201.67 60.3528 202.202V205.954H59.1768V201.866C59.1768 201.157 59.0322 200.625 58.7428 200.27C58.4535 199.915 58.0428 199.738 57.5108 199.738C57.1562 199.738 56.8342 199.836 56.5448 200.032C56.2648 200.219 56.0408 200.494 55.8728 200.858C55.7048 201.222 55.6208 201.67 55.6208 202.202V205.954H54.4448Z" fill="#FCD6AB"/>
<path d="M70.0636 206.122C69.4103 206.122 68.8223 205.973 68.2996 205.674C67.7769 205.366 67.3663 204.937 67.0676 204.386C66.7689 203.826 66.6196 203.177 66.6196 202.44C66.6196 201.684 66.7689 201.031 67.0676 200.48C67.3756 199.92 67.7909 199.491 68.3136 199.192C68.8456 198.884 69.4383 198.73 70.0916 198.73C70.7636 198.73 71.3563 198.884 71.8696 199.192C72.3923 199.491 72.8029 199.92 73.1016 200.48C73.4096 201.031 73.5636 201.679 73.5636 202.426C73.5636 203.173 73.4096 203.826 73.1016 204.386C72.7936 204.937 72.3783 205.366 71.8556 205.674C71.3329 205.973 70.7356 206.122 70.0636 206.122ZM70.0776 205.114C70.4789 205.114 70.8523 205.016 71.1976 204.82C71.5429 204.615 71.8229 204.311 72.0376 203.91C72.2523 203.509 72.3596 203.014 72.3596 202.426C72.3596 201.829 72.2523 201.334 72.0376 200.942C71.8323 200.541 71.5569 200.242 71.2116 200.046C70.8756 199.841 70.5023 199.738 70.0916 199.738C69.6996 199.738 69.3263 199.841 68.9716 200.046C68.6263 200.242 68.3463 200.541 68.1316 200.942C67.9263 201.334 67.8236 201.829 67.8236 202.426C67.8236 203.014 67.9263 203.509 68.1316 203.91C68.3463 204.311 68.6216 204.615 68.9576 204.82C69.3029 205.016 69.6763 205.114 70.0776 205.114Z" fill="#FCD6AB"/>
<path d="M77.711 205.954C77.291 205.954 76.927 205.889 76.619 205.758C76.311 205.627 76.073 205.408 75.905 205.1C75.7463 204.783 75.667 204.358 75.667 203.826V199.892H74.435V198.898H75.667L75.821 197.19H76.843V198.898H78.887V199.892H76.843V203.826C76.843 204.265 76.9317 204.563 77.109 204.722C77.2863 204.871 77.599 204.946 78.047 204.946H78.803V205.954H77.711Z" fill="#FCD6AB"/>
<path d="M80.5334 205.954V198.898H81.7094V205.954H80.5334ZM81.1214 197.4C80.8881 197.4 80.6921 197.325 80.5334 197.176C80.3841 197.017 80.3094 196.821 80.3094 196.588C80.3094 196.355 80.3841 196.168 80.5334 196.028C80.6921 195.879 80.8881 195.804 81.1214 195.804C81.3454 195.804 81.5367 195.879 81.6954 196.028C81.8541 196.168 81.9334 196.355 81.9334 196.588C81.9334 196.821 81.8541 197.017 81.6954 197.176C81.5367 197.325 81.3454 197.4 81.1214 197.4Z" fill="#FCD6AB"/>
<path d="M86.9347 206.122C86.2814 206.122 85.6934 205.973 85.1707 205.674C84.648 205.366 84.2374 204.937 83.9387 204.386C83.64 203.826 83.4907 203.177 83.4907 202.44C83.4907 201.684 83.64 201.031 83.9387 200.48C84.2467 199.92 84.662 199.491 85.1847 199.192C85.7167 198.884 86.3094 198.73 86.9627 198.73C87.6347 198.73 88.2274 198.884 88.7407 199.192C89.2634 199.491 89.674 199.92 89.9727 200.48C90.2807 201.031 90.4347 201.679 90.4347 202.426C90.4347 203.173 90.2807 203.826 89.9727 204.386C89.6647 204.937 89.2494 205.366 88.7267 205.674C88.204 205.973 87.6067 206.122 86.9347 206.122ZM86.9487 205.114C87.35 205.114 87.7234 205.016 88.0687 204.82C88.414 204.615 88.694 204.311 88.9087 203.91C89.1234 203.509 89.2307 203.014 89.2307 202.426C89.2307 201.829 89.1234 201.334 88.9087 200.942C88.7034 200.541 88.428 200.242 88.0827 200.046C87.7467 199.841 87.3734 199.738 86.9627 199.738C86.5707 199.738 86.1974 199.841 85.8427 200.046C85.4974 200.242 85.2174 200.541 85.0027 200.942C84.7974 201.334 84.6947 201.829 84.6947 202.426C84.6947 203.014 84.7974 203.509 85.0027 203.91C85.2174 204.311 85.4927 204.615 85.8287 204.82C86.174 205.016 86.5474 205.114 86.9487 205.114Z" fill="#FCD6AB"/>
<path d="M92.0835 205.954V198.898H93.1475L93.2035 200.13C93.4275 199.691 93.7449 199.351 94.1555 199.108C94.5755 198.856 95.0515 198.73 95.5835 198.73C96.1342 198.73 96.6102 198.842 97.0115 199.066C97.4128 199.281 97.7255 199.612 97.9495 200.06C98.1735 200.499 98.2855 201.059 98.2855 201.74V205.954H97.1095V201.866C97.1095 201.157 96.9508 200.625 96.6335 200.27C96.3255 199.915 95.8868 199.738 95.3175 199.738C94.9255 199.738 94.5755 199.836 94.2675 200.032C93.9595 200.219 93.7122 200.494 93.5255 200.858C93.3482 201.213 93.2595 201.656 93.2595 202.188V205.954H92.0835Z" fill="#FCD6AB"/>
<path d="M102.783 206.122C102.195 206.122 101.681 206.024 101.243 205.828C100.813 205.632 100.468 205.361 100.207 205.016C99.9546 204.661 99.8006 204.246 99.7446 203.77H100.949C100.995 204.013 101.093 204.237 101.243 204.442C101.392 204.647 101.593 204.815 101.845 204.946C102.106 205.067 102.423 205.128 102.797 205.128C103.123 205.128 103.394 205.081 103.609 204.988C103.823 204.885 103.982 204.75 104.085 204.582C104.197 204.414 104.253 204.232 104.253 204.036C104.253 203.747 104.183 203.527 104.043 203.378C103.912 203.229 103.716 203.112 103.455 203.028C103.193 202.935 102.876 202.855 102.503 202.79C102.195 202.734 101.891 202.659 101.593 202.566C101.294 202.473 101.028 202.351 100.795 202.202C100.561 202.043 100.375 201.852 100.235 201.628C100.104 201.404 100.039 201.129 100.039 200.802C100.039 200.401 100.141 200.046 100.347 199.738C100.552 199.421 100.846 199.173 101.229 198.996C101.621 198.819 102.073 198.73 102.587 198.73C103.343 198.73 103.954 198.912 104.421 199.276C104.887 199.64 105.163 200.167 105.247 200.858H104.085C104.038 200.503 103.884 200.228 103.623 200.032C103.371 199.827 103.021 199.724 102.573 199.724C102.134 199.724 101.798 199.813 101.565 199.99C101.341 200.167 101.229 200.401 101.229 200.69C101.229 200.877 101.289 201.045 101.411 201.194C101.541 201.334 101.728 201.455 101.971 201.558C102.223 201.661 102.531 201.745 102.895 201.81C103.361 201.894 103.786 202.006 104.169 202.146C104.551 202.286 104.859 202.496 105.093 202.776C105.335 203.047 105.457 203.434 105.457 203.938C105.457 204.377 105.345 204.759 105.121 205.086C104.906 205.413 104.598 205.669 104.197 205.856C103.795 206.033 103.324 206.122 102.783 206.122Z" fill="#FCD6AB"/>
<path d="M107.57 206.024C107.337 206.024 107.141 205.949 106.982 205.8C106.833 205.641 106.758 205.45 106.758 205.226C106.758 205.002 106.833 204.815 106.982 204.666C107.141 204.507 107.337 204.428 107.57 204.428C107.803 204.428 107.995 204.507 108.144 204.666C108.293 204.815 108.368 205.002 108.368 205.226C108.368 205.45 108.293 205.641 108.144 205.8C107.995 205.949 107.803 206.024 107.57 206.024Z" fill="#FCD6AB"/>
<path d="M118.082 206.122C117.139 206.122 116.309 205.912 115.59 205.492C114.881 205.063 114.325 204.47 113.924 203.714C113.532 202.949 113.336 202.062 113.336 201.054C113.336 200.055 113.532 199.178 113.924 198.422C114.325 197.657 114.881 197.059 115.59 196.63C116.309 196.201 117.139 195.986 118.082 195.986C119.043 195.986 119.879 196.201 120.588 196.63C121.297 197.059 121.848 197.657 122.24 198.422C122.641 199.178 122.842 200.055 122.842 201.054C122.842 202.062 122.641 202.949 122.24 203.714C121.848 204.47 121.297 205.063 120.588 205.492C119.879 205.912 119.043 206.122 118.082 206.122ZM118.082 205.086C118.791 205.086 119.412 204.927 119.944 204.61C120.485 204.283 120.901 203.821 121.19 203.224C121.489 202.617 121.638 201.894 121.638 201.054C121.638 200.214 121.489 199.495 121.19 198.898C120.901 198.291 120.485 197.829 119.944 197.512C119.412 197.195 118.791 197.036 118.082 197.036C117.382 197.036 116.761 197.195 116.22 197.512C115.688 197.829 115.273 198.291 114.974 198.898C114.685 199.495 114.54 200.214 114.54 201.054C114.54 201.894 114.685 202.617 114.974 203.224C115.273 203.821 115.688 204.283 116.22 204.61C116.761 204.927 117.382 205.086 118.082 205.086Z" fill="#FCD6AB"/>
<path d="M124.486 205.954V198.898H125.55L125.606 200.13C125.83 199.691 126.147 199.351 126.558 199.108C126.978 198.856 127.454 198.73 127.986 198.73C128.537 198.73 129.013 198.842 129.414 199.066C129.815 199.281 130.128 199.612 130.352 200.06C130.576 200.499 130.688 201.059 130.688 201.74V205.954H129.512V201.866C129.512 201.157 129.353 200.625 129.036 200.27C128.728 199.915 128.289 199.738 127.72 199.738C127.328 199.738 126.978 199.836 126.67 200.032C126.362 200.219 126.115 200.494 125.928 200.858C125.751 201.213 125.662 201.656 125.662 202.188V205.954H124.486Z" fill="#FCD6AB"/>
<path d="M135.619 206.122C134.956 206.122 134.368 205.968 133.855 205.66C133.351 205.352 132.954 204.923 132.665 204.372C132.376 203.812 132.231 203.163 132.231 202.426C132.231 201.679 132.371 201.031 132.651 200.48C132.94 199.929 133.342 199.5 133.855 199.192C134.378 198.884 134.975 198.73 135.647 198.73C136.338 198.73 136.921 198.884 137.397 199.192C137.882 199.5 138.251 199.906 138.503 200.41C138.764 200.905 138.895 201.451 138.895 202.048C138.895 202.141 138.895 202.239 138.895 202.342C138.895 202.445 138.89 202.561 138.881 202.692H133.113V201.782H137.747C137.719 201.138 137.504 200.634 137.103 200.27C136.711 199.906 136.216 199.724 135.619 199.724C135.218 199.724 134.844 199.817 134.499 200.004C134.163 200.181 133.892 200.447 133.687 200.802C133.482 201.147 133.379 201.581 133.379 202.104V202.496C133.379 203.075 133.482 203.56 133.687 203.952C133.902 204.344 134.177 204.638 134.513 204.834C134.858 205.03 135.227 205.128 135.619 205.128C136.114 205.128 136.52 205.021 136.837 204.806C137.164 204.582 137.397 204.283 137.537 203.91H138.699C138.587 204.33 138.391 204.708 138.111 205.044C137.831 205.38 137.481 205.646 137.061 205.842C136.65 206.029 136.17 206.122 135.619 206.122Z" fill="#FCD6AB"/>
<path d="M147.393 206.122C146.674 206.122 146.049 205.991 145.517 205.73C144.985 205.469 144.574 205.105 144.285 204.638C143.995 204.171 143.851 203.63 143.851 203.014H145.083C145.083 203.397 145.171 203.751 145.349 204.078C145.526 204.395 145.783 204.652 146.119 204.848C146.464 205.035 146.889 205.128 147.393 205.128C147.831 205.128 148.205 205.058 148.513 204.918C148.83 204.769 149.068 204.568 149.227 204.316C149.395 204.064 149.479 203.779 149.479 203.462C149.479 203.079 149.395 202.771 149.227 202.538C149.068 202.295 148.849 202.099 148.569 201.95C148.289 201.801 147.962 201.67 147.589 201.558C147.225 201.437 146.842 201.311 146.441 201.18C145.666 200.919 145.097 200.592 144.733 200.2C144.369 199.808 144.187 199.299 144.187 198.674C144.187 198.142 144.308 197.675 144.551 197.274C144.803 196.873 145.157 196.56 145.615 196.336C146.081 196.103 146.632 195.986 147.267 195.986C147.892 195.986 148.433 196.103 148.891 196.336C149.357 196.569 149.721 196.891 149.983 197.302C150.244 197.703 150.375 198.17 150.375 198.702H149.143C149.143 198.431 149.073 198.165 148.933 197.904C148.793 197.643 148.578 197.428 148.289 197.26C148.009 197.083 147.654 196.994 147.225 196.994C146.87 196.985 146.553 197.045 146.273 197.176C146.002 197.297 145.787 197.475 145.629 197.708C145.479 197.941 145.405 198.226 145.405 198.562C145.405 198.879 145.47 199.136 145.601 199.332C145.741 199.528 145.937 199.696 146.189 199.836C146.45 199.967 146.753 200.088 147.099 200.2C147.444 200.312 147.827 200.438 148.247 200.578C148.723 200.737 149.143 200.933 149.507 201.166C149.88 201.39 150.169 201.679 150.375 202.034C150.589 202.389 150.697 202.841 150.697 203.392C150.697 203.859 150.571 204.302 150.319 204.722C150.076 205.133 149.712 205.469 149.227 205.73C148.741 205.991 148.13 206.122 147.393 206.122Z" fill="#FCD6AB"/>
<path d="M152.322 209.034V198.898H153.386L153.484 200.046C153.633 199.822 153.824 199.612 154.058 199.416C154.291 199.211 154.571 199.047 154.898 198.926C155.224 198.795 155.598 198.73 156.018 198.73C156.708 198.73 157.306 198.893 157.81 199.22C158.323 199.547 158.72 199.99 159 200.55C159.289 201.101 159.434 201.731 159.434 202.44C159.434 203.149 159.289 203.784 159 204.344C158.72 204.895 158.323 205.329 157.81 205.646C157.296 205.963 156.694 206.122 156.004 206.122C155.434 206.122 154.93 206.005 154.492 205.772C154.062 205.539 153.731 205.212 153.498 204.792V209.034H152.322ZM155.878 205.1C156.335 205.1 156.741 204.988 157.096 204.764C157.45 204.54 157.726 204.232 157.922 203.84C158.127 203.439 158.23 202.967 158.23 202.426C158.23 201.894 158.127 201.427 157.922 201.026C157.726 200.625 157.45 200.312 157.096 200.088C156.741 199.864 156.335 199.752 155.878 199.752C155.411 199.752 155 199.864 154.646 200.088C154.291 200.312 154.016 200.625 153.82 201.026C153.624 201.427 153.526 201.894 153.526 202.426C153.526 202.967 153.624 203.439 153.82 203.84C154.016 204.232 154.291 204.54 154.646 204.764C155 204.988 155.411 205.1 155.878 205.1Z" fill="#FCD6AB"/>
<path d="M163.381 206.122C162.812 206.122 162.336 206.024 161.953 205.828C161.571 205.623 161.286 205.357 161.099 205.03C160.913 204.694 160.819 204.33 160.819 203.938C160.819 203.462 160.941 203.061 161.183 202.734C161.435 202.398 161.785 202.146 162.233 201.978C162.691 201.801 163.227 201.712 163.843 201.712H165.705C165.705 201.273 165.635 200.909 165.495 200.62C165.365 200.321 165.169 200.097 164.907 199.948C164.655 199.799 164.338 199.724 163.955 199.724C163.507 199.724 163.12 199.836 162.793 200.06C162.467 200.284 162.266 200.615 162.191 201.054H160.987C161.043 200.55 161.211 200.13 161.491 199.794C161.781 199.449 162.145 199.187 162.583 199.01C163.022 198.823 163.479 198.73 163.955 198.73C164.609 198.73 165.15 198.851 165.579 199.094C166.018 199.327 166.345 199.659 166.559 200.088C166.774 200.508 166.881 201.007 166.881 201.586V205.954H165.831L165.761 204.708C165.668 204.904 165.547 205.091 165.397 205.268C165.257 205.436 165.089 205.585 164.893 205.716C164.697 205.837 164.473 205.935 164.221 206.01C163.979 206.085 163.699 206.122 163.381 206.122ZM163.563 205.128C163.89 205.128 164.184 205.063 164.445 204.932C164.716 204.792 164.945 204.605 165.131 204.372C165.318 204.129 165.458 203.863 165.551 203.574C165.654 203.285 165.705 202.981 165.705 202.664V202.622H163.941C163.484 202.622 163.115 202.678 162.835 202.79C162.555 202.893 162.355 203.042 162.233 203.238C162.112 203.425 162.051 203.639 162.051 203.882C162.051 204.134 162.107 204.353 162.219 204.54C162.341 204.727 162.513 204.871 162.737 204.974C162.971 205.077 163.246 205.128 163.563 205.128Z" fill="#FCD6AB"/>
<path d="M168.701 205.954V198.898H169.765L169.849 200.242C170.007 199.925 170.208 199.654 170.451 199.43C170.703 199.206 171.001 199.033 171.347 198.912C171.701 198.791 172.103 198.73 172.551 198.73V199.962H172.117C171.818 199.962 171.533 200.004 171.263 200.088C170.992 200.163 170.749 200.289 170.535 200.466C170.329 200.643 170.166 200.886 170.045 201.194C169.933 201.493 169.877 201.866 169.877 202.314V205.954H168.701Z" fill="#FCD6AB"/>
<path d="M178.222 205.954L174.862 202.09L177.928 198.898H179.37L175.856 202.51L175.87 201.67L179.72 205.954H178.222ZM173.882 205.954V195.874H175.058V205.954H173.882Z" fill="#FCD6AB"/>
<path d="M180.937 205.954V195.874H182.113V205.954H180.937Z" fill="#FCD6AB"/>
<path d="M187.148 206.122C186.486 206.122 185.898 205.968 185.384 205.66C184.88 205.352 184.484 204.923 184.194 204.372C183.905 203.812 183.76 203.163 183.76 202.426C183.76 201.679 183.9 201.031 184.18 200.48C184.47 199.929 184.871 199.5 185.384 199.192C185.907 198.884 186.504 198.73 187.176 198.73C187.867 198.73 188.45 198.884 188.926 199.192C189.412 199.5 189.78 199.906 190.032 200.41C190.294 200.905 190.424 201.451 190.424 202.048C190.424 202.141 190.424 202.239 190.424 202.342C190.424 202.445 190.42 202.561 190.41 202.692H184.642V201.782H189.276C189.248 201.138 189.034 200.634 188.632 200.27C188.24 199.906 187.746 199.724 187.148 199.724C186.747 199.724 186.374 199.817 186.028 200.004C185.692 200.181 185.422 200.447 185.216 200.802C185.011 201.147 184.908 201.581 184.908 202.104V202.496C184.908 203.075 185.011 203.56 185.216 203.952C185.431 204.344 185.706 204.638 186.042 204.834C186.388 205.03 186.756 205.128 187.148 205.128C187.643 205.128 188.049 205.021 188.366 204.806C188.693 204.582 188.926 204.283 189.066 203.91H190.228C190.116 204.33 189.92 204.708 189.64 205.044C189.36 205.38 189.01 205.646 188.59 205.842C188.18 206.029 187.699 206.122 187.148 206.122Z" fill="#FCD6AB"/>
<path fill-rule="evenodd" clip-rule="evenodd" d="M2.14663 181.753C3.46751 182.507 5.07358 182.929 7.02488 183.02C7.25003 183.02 7.5052 183.02 7.73035 183.02C9.69666 183.02 11.3778 182.673 12.7587 181.994C14.1396 181.301 14.8301 180.471 14.8301 179.521V170.126H8.18065C9.7567 170.262 10.6723 170.76 10.8975 171.634V180.592C10.8975 181.15 10.5222 181.572 9.87678 181.949C9.24636 182.311 8.48085 182.522 7.58025 182.552C7.29506 182.552 6.99486 182.552 6.72468 182.522C6.03422 182.432 5.43382 182.251 4.9535 181.964C4.30807 181.602 3.93282 181.165 3.93282 180.607V155.242C3.94783 154.684 4.29306 154.201 4.98352 153.809C5.62895 153.462 6.21434 153.281 6.73969 153.251C7.28005 153.221 7.62528 153.206 7.8054 153.206C8.49586 153.206 9.20133 153.266 9.87678 153.402C10.7474 153.568 11.4828 153.794 12.0832 154.081C13.2991 154.684 13.8844 155.393 13.8844 156.207V157.459C13.6293 158.333 12.7137 158.846 11.1526 158.982H14.8001V156.207C14.8001 155.257 14.1246 154.428 12.7437 153.749C11.2427 153.055 9.54656 152.693 7.64029 152.693H7.37011C5.37378 152.739 3.64763 153.146 2.16164 153.96C0.810745 154.729 0.000204896 155.83 0.000204896 157.006V178.662C-0.0148051 179.868 0.795735 180.924 2.14663 181.723V181.753ZM30.5455 154.036C29.1946 153.236 27.3634 152.769 25.3071 152.769C23.2507 152.769 21.4045 153.236 20.0836 154.036C18.7327 154.805 17.9071 155.905 17.9071 157.082V168.12C17.9071 169.327 18.7327 170.383 20.0836 171.182C21.4045 171.951 23.2807 172.449 25.3071 172.449C26.5529 172.449 27.7237 172.283 28.7894 171.951V179.265C28.7894 179.732 28.7594 180.23 28.6693 180.728C28.5642 181.301 28.249 181.723 27.7687 182.04C26.673 182.628 25.7273 182.628 25.292 182.628C24.8568 182.628 24.4365 182.582 24.0162 182.492C22.7704 182.236 21.8247 181.602 21.8247 180.712V178.209C22.0799 177.304 22.9655 176.761 24.5415 176.611H17.9221V179.612C17.9672 180.607 18.6426 181.421 19.9935 182.085C21.0142 182.582 21.9898 182.869 22.9055 182.959C23.8211 183.05 24.5415 183.095 25.0519 183.095C25.8174 183.095 26.5679 183.035 27.3484 182.914C28.9095 182.658 30.1853 182.16 31.176 181.406C32.1966 180.652 32.707 179.778 32.737 178.782V157.112C32.722 155.936 31.9114 154.835 30.5455 154.066V154.036ZM28.7894 170.111C28.6843 170.594 28.3391 171.001 27.7687 171.333C27.0782 171.725 26.2677 171.936 25.3071 171.936C24.3464 171.936 23.5359 171.74 22.8454 171.333C22.155 170.94 21.8247 170.458 21.8247 169.9V155.167C21.8247 154.609 22.2 154.186 22.8454 153.824C23.5359 153.432 24.3464 153.221 25.3071 153.221C26.2677 153.221 27.0782 153.417 27.7687 153.824C28.4141 154.171 28.8044 154.609 28.8044 155.167V170.111H28.7894ZM46.261 182.1C47.732 182.763 49.3831 183.11 51.2443 183.11H51.6346C53.6609 183.065 55.4021 182.643 56.843 181.844C58.1939 181.044 59.0345 179.974 59.0345 178.782V154.111C59.2897 153.266 60.1603 152.889 61.7363 152.784C60.0102 152.784 58.269 152.784 56.5428 152.784H52.3701C53.9461 152.904 54.8167 153.251 55.0719 154.111V180.697C55.0719 181.255 54.6966 181.693 54.0512 182.055C53.3457 182.447 52.5352 182.628 51.6046 182.628C50.6739 182.628 49.8784 182.432 49.1429 182.055C48.4975 181.693 48.1222 181.255 48.1222 180.697V171.83C48.1222 170.94 49.0679 170.413 50.9141 170.232H44.1296L44.1146 179.597C44.1746 180.577 44.8801 181.391 46.276 182.1H46.261ZM70.4271 170.473C71.9881 170.518 73.0388 170.76 73.5792 171.182C74.1195 171.604 74.3897 172.313 74.3897 173.368V173.444C74.4047 172.373 74.4197 171.272 74.4197 170.202C74.4197 169.131 74.4197 168.03 74.3897 166.959V167.035C74.3897 168.09 74.1195 168.829 73.5942 169.267C73.0388 169.719 71.9731 169.96 70.3971 170.021L68.5658 170.066L68.6109 153.191H72.5885C74.2246 153.236 75.5905 153.538 76.7013 154.081C77.842 154.654 78.4424 155.378 78.5025 156.222V152.724H61.9314C63.4625 152.859 64.3631 153.327 64.6332 154.186V181.889C64.3781 182.733 63.5075 182.944 61.9464 183.05H78.5175V179.551C78.4574 180.396 77.842 181.12 76.7013 181.693C75.6055 182.236 74.2546 182.537 72.6035 182.582H68.5658V170.488H70.4421L70.4271 170.473ZM90.6756 183.035H91.5311C92.9421 178.646 94.4131 174.062 95.9291 169.312L96.0942 168.754L100.192 183.035H101.062C102.458 178.677 103.914 174.168 105.4 169.463C107.142 164.019 108.808 158.816 110.414 153.855C110.714 153.101 111.509 152.814 112.95 152.708H107.277C108.507 152.799 109.588 153.131 109.588 153.704C109.588 153.749 109.588 153.809 109.573 153.855C107.036 161.53 104.575 169.236 102.218 176.927C100.882 172.026 99.5315 167.125 98.1806 162.224C99.0962 159.329 99.9968 156.539 100.867 153.855C101.183 153.101 101.993 152.814 103.434 152.708H89.2646C90.6155 152.829 91.4861 153.206 91.8463 153.87L95.6889 167.291C94.6982 170.488 93.6926 173.7 92.7019 176.912C90.6005 169.221 88.4691 161.53 86.2776 153.839C86.2626 153.794 86.2626 153.779 86.2626 153.749C86.2626 153.523 86.4878 153.297 86.9381 153.116C87.4334 152.904 88.0038 152.754 88.6192 152.693H79.7333C81.0842 152.814 81.9397 153.191 82.3 153.855L90.6756 183.005V183.035ZM95.824 153.855C95.824 153.855 95.809 153.794 95.809 153.749C95.809 153.553 95.9891 153.357 96.3944 153.161C96.8297 152.95 97.355 152.799 97.9554 152.724C99.1262 152.829 100.072 153.146 100.072 153.689C100.072 153.734 100.072 153.794 100.057 153.839C99.2913 156.162 98.5258 158.469 97.7603 160.776C97.1149 158.469 96.4694 156.162 95.824 153.839V153.855ZM120.666 170.473H118.804L118.789 182.582H122.827C124.478 182.537 125.829 182.236 126.925 181.693C128.065 181.12 128.681 180.396 128.741 179.551V183.05H112.17C113.731 182.944 114.616 182.748 114.857 181.889V154.186C114.586 153.342 113.686 152.859 112.155 152.724H128.726V156.222C128.666 155.378 128.05 154.654 126.925 154.081C125.829 153.538 124.463 153.236 122.812 153.191H118.834L118.789 170.066L120.621 170.021C122.197 169.96 123.262 169.704 123.818 169.267C124.343 168.829 124.613 168.09 124.613 167.035V166.959C124.628 168.03 124.643 169.131 124.643 170.202C124.643 171.272 124.643 172.373 124.613 173.444V173.368C124.613 172.313 124.343 171.589 123.803 171.182C123.262 170.76 122.197 170.518 120.651 170.473H120.666ZM146.558 183.035V179.536C146.513 180.381 145.912 181.105 144.772 181.678C143.676 182.221 142.295 182.522 140.674 182.567H136.636V178.888C136.651 170.579 136.666 162.299 136.696 154.051C136.951 153.251 137.852 152.814 139.383 152.724H130.017C131.533 152.814 132.433 153.251 132.704 154.051V181.889C132.448 182.733 131.563 182.929 130.002 183.035H146.573H146.558ZM164.42 183.035V179.536C164.375 180.381 163.774 181.105 162.633 181.678C161.538 182.221 160.157 182.522 158.521 182.567H154.483V178.888C154.498 170.579 154.513 162.299 154.543 154.051C154.798 153.251 155.699 152.814 157.23 152.724H147.864C149.38 152.814 150.28 153.251 150.55 154.051V181.889C150.295 182.733 149.41 182.929 147.849 183.035H164.42ZM174.176 170.473C175.737 170.518 176.788 170.76 177.328 171.182C177.869 171.604 178.139 172.313 178.139 173.368V173.444C178.154 172.373 178.169 171.272 178.169 170.202C178.169 169.131 178.169 168.03 178.139 166.959V167.035C178.139 168.09 177.869 168.829 177.343 169.267C176.788 169.719 175.722 169.96 174.146 170.021L172.315 170.066L172.36 153.191H176.338C177.974 153.236 179.34 153.538 180.45 154.081C181.591 154.654 182.191 155.378 182.252 156.222V152.724H165.68C167.212 152.859 168.112 153.327 168.382 154.186V181.889C168.127 182.733 167.257 182.944 165.696 183.05H182.267V179.551C182.207 180.396 181.591 181.12 180.45 181.693C179.355 182.236 178.004 182.537 176.353 182.582H172.315V170.488H174.191L174.176 170.473ZM190.087 153.191H193.224C194.41 153.191 196.841 153.372 196.751 154.367V168.859C196.751 169.146 196.571 169.387 196.211 169.628C195.851 169.87 193.809 170.383 190.087 171.182V153.176V153.191ZM194.74 170.594L194.89 170.563C195.595 170.594 196.166 170.79 196.556 171.167C196.961 171.544 197.156 171.966 197.156 172.418L197.051 181.874C196.781 182.703 195.881 182.929 194.32 183.035H203.671C202.11 182.944 201.224 182.718 200.984 181.874L201.089 174.65C201.089 173.399 200.534 172.343 199.033 171.423C198.192 170.91 197.186 170.563 196.001 170.352C197.141 170.111 198.012 169.87 198.612 169.598C200.113 168.935 200.669 168.151 200.669 167.246V155.981C200.669 155.061 200.113 154.292 198.612 153.643C197.051 152.98 195.115 152.724 193.209 152.724H183.467C184.983 152.814 185.884 153.251 186.154 154.066V181.889C185.899 182.733 184.983 182.959 183.467 183.05H192.819C191.228 182.959 190.342 182.748 190.102 181.889V181.708H190.087V171.649L194.74 170.594ZM211.521 166.07L205.097 154.051C204.691 153.342 203.656 152.98 202.425 152.724H211.206C210.68 152.769 210.2 152.904 209.81 153.161C209.435 153.372 209.255 153.643 209.255 153.96V154.066L215.138 165.135L220.767 154.051C220.767 154.051 220.767 153.99 220.767 153.945C220.767 153.689 220.437 152.859 219.326 152.724H225C224.865 152.724 224.73 152.754 224.595 152.769C223.319 152.98 222.073 153.538 221.578 154.036L215.514 165.994L215.469 181.844C215.739 182.673 216.639 182.914 218.155 183.02H208.834C210.35 182.914 211.281 182.658 211.521 181.828V166.054V166.07Z" fill="#FCD6AB"/>
<path fill-rule="evenodd" clip-rule="evenodd" d="M55.5716 78.2773C54.8662 78.6694 54.0706 78.8504 53.2901 78.8051C52.2544 78.7448 51.2488 78.3075 50.4832 77.5082L48.4419 75.3668C47.9766 74.8842 47.5413 74.4017 47.181 73.8588C46.8058 73.3008 46.5056 72.6976 46.3255 71.9888C46.1303 71.2348 46.1454 70.6919 46.1604 70.0887C46.1604 69.9228 46.1604 69.757 46.1604 69.4855V63.3328C46.1454 62.7145 46.1303 62.1867 46.3255 61.4326C46.5056 60.7239 46.8058 60.1207 47.181 59.5778C47.5413 59.0349 47.9766 58.5523 48.4419 58.0697L50.4832 55.9284C51.2638 55.114 52.2844 54.6767 53.3351 54.6315C54.2057 54.5862 55.0913 54.8275 55.8568 55.3402C55.9769 53.8774 56.3221 52.475 56.8775 51.1479C57.5379 49.5796 58.4836 48.1469 59.7294 46.8953L93.0666 13.3417C94.2073 12.1956 95.5432 11.2757 96.9992 10.6122C98.23 10.0542 99.5359 9.67718 100.872 9.5113C100.482 8.80253 100.301 8.00328 100.346 7.2191C100.406 6.17856 100.827 5.15311 101.637 4.38401L103.754 2.3331C104.234 1.86561 104.714 1.42828 105.255 1.05127C105.81 0.674267 106.395 0.372662 107.101 0.176618C107.851 -0.0194251 108.377 -0.00434484 108.992 0.0107354C109.157 0.0107354 109.322 0.0107354 109.593 0.0107354H115.702C116.317 -0.00434484 116.842 -0.0345054 117.593 0.176618C118.298 0.357581 118.899 0.659187 119.439 1.05127C119.979 1.42828 120.46 1.86561 120.94 2.3331L123.057 4.38401C123.867 5.16819 124.302 6.20872 124.347 7.26434C124.392 8.16916 124.137 9.07397 123.612 9.85815C125.023 9.97879 126.404 10.3256 127.71 10.8836C129.256 11.5471 130.697 12.4972 131.912 13.7338C142.645 24.5463 155.298 36.2034 165.325 47.3628C166.39 48.4787 167.246 49.7153 167.876 51.0574C168.477 52.3543 168.867 53.7417 169.032 55.2347C169.753 54.7973 170.563 54.6164 171.359 54.6465C172.409 54.6918 173.43 55.1291 174.211 55.9434L176.252 58.0848C176.717 58.5674 177.153 59.05 177.513 59.5929C177.888 60.1508 178.188 60.754 178.368 61.4477C178.563 62.2017 178.548 62.7446 178.533 63.3478C178.533 63.5137 178.533 63.6947 178.533 63.9511V70.1038C178.548 70.7221 178.578 71.2499 178.368 72.0039C178.188 72.7127 177.888 73.3159 177.513 73.8739C177.153 74.4168 176.717 74.8993 176.252 75.3819L174.211 77.5233C173.43 78.3376 172.409 78.775 171.359 78.8202C170.473 78.8654 169.557 78.6091 168.792 78.0813C168.672 79.5139 168.327 80.9013 167.771 82.1982C167.111 83.7665 166.165 85.1991 164.949 86.4206C153.842 97.6253 142.795 108.966 131.597 120.065C130.486 121.15 129.256 122.025 127.905 122.659C126.614 123.262 125.233 123.654 123.762 123.82C124.182 124.544 124.377 125.358 124.347 126.172C124.302 127.228 123.867 128.253 123.057 129.037L120.94 131.088C120.46 131.556 119.979 131.993 119.439 132.37C118.884 132.747 118.298 133.049 117.593 133.245C116.842 133.441 116.317 133.426 115.702 133.411C115.537 133.411 115.371 133.411 115.101 133.411H108.992C108.377 133.426 107.851 133.441 107.101 133.245C106.395 133.064 105.795 132.762 105.255 132.37C104.714 131.993 104.234 131.556 103.754 131.088L101.637 129.037C100.827 128.253 100.391 127.213 100.346 126.172C100.301 125.282 100.542 124.393 101.052 123.624C99.6109 123.503 98.2 123.156 96.8941 122.598C95.3331 121.935 93.9071 120.97 92.6763 119.718L59.3842 86.1341C58.2434 84.988 57.3278 83.6308 56.6674 82.168C56.112 80.9314 55.7518 79.6194 55.5866 78.2622L55.5716 78.2773ZM84.3458 65.1122C93.5769 65.1424 90.2447 66.4544 101.217 55.3704C103.559 53.0179 105.51 50.9971 107.866 48.6597C111.754 44.7991 110.688 45.5833 110.703 38.3598C107.911 39.8377 105.93 42.6728 103.679 44.9499L87.3027 61.4628C85.4265 63.3328 85.2614 63.0613 84.3458 65.1122ZM113.63 37.9376C113.705 45.2515 112.655 45.0555 115.912 48.1922L128.205 60.5731C133.774 66.1829 131.192 65.3234 140.783 65.263C139.733 63.5288 115.537 39.0385 113.645 37.9376H113.63ZM83.8955 68.264C84.646 69.8173 84.3458 69.2895 85.5616 70.5562C89.6593 74.7938 108.227 94.0965 110.793 95.4386C110.763 85.4404 112.354 89.2256 101.202 77.9908C90.0346 66.7409 93.8021 68.2942 83.8955 68.264ZM113.645 95.514C116.302 94.1267 133.383 76.0756 137.316 72.1547C137.976 71.4912 138.517 71.0539 139.117 70.3903C140.318 69.0633 139.778 69.9078 140.543 68.2791C130.982 68.2489 134.434 66.7409 123.207 78.0511C112.099 89.2557 113.63 85.5008 113.645 95.514ZM112.174 82.3641C113.315 81.7608 113.345 81.595 114.396 80.5243C117.413 77.4479 126.824 68.641 127.755 66.198L116.122 54.7069C114.396 52.9575 114.006 52.1734 111.994 51.0725L96.699 66.2583L112.174 82.3641ZM171.149 58.869L162.248 66.7258L171.149 74.5826L173.19 72.4412C174.631 70.9332 174.286 70.9332 174.286 69.5006V63.9511C174.286 62.5184 174.631 62.5184 173.19 61.0104L171.149 58.869ZM104.534 7.46039L112.324 16.4331L120.115 7.46039L117.998 5.40947C116.497 3.96176 116.497 4.29353 115.071 4.29353H109.578C108.152 4.29353 108.152 3.94668 106.651 5.40947L104.534 7.46039ZM53.5153 74.5826L62.4162 66.7258L53.5153 58.869L51.4739 61.0104C50.0329 62.5184 50.3782 62.5184 50.3782 63.9511V69.5006C50.3782 70.9332 50.0329 70.9332 51.4739 72.4412L53.5153 74.5826ZM120.13 125.991L112.339 117.019L104.549 125.991L106.666 128.042C108.167 129.49 108.167 129.158 109.593 129.158H115.086C116.512 129.158 116.512 129.505 118.013 128.042L120.13 125.991ZM164.604 76.6788C164.574 74.1755 163.584 71.7174 161.647 69.772C160.341 68.445 158.735 67.5402 157.069 67.1179C158.03 66.8615 158.825 66.4996 159.471 66.0321C160.461 65.3083 161.212 64.7201 161.692 64.2225C162.413 63.4986 163.013 62.6843 163.568 61.7946C164.634 59.9246 165.039 57.9491 164.829 55.8529C164.634 53.7266 163.779 51.8868 162.248 50.3185L128.895 16.7498C127.079 14.9251 124.648 13.9901 122.186 14.0655C119.709 14.0957 117.263 15.091 115.326 17.0364C113.975 18.3936 113.06 20.0675 112.655 21.8017C112.159 19.9468 111.214 18.288 109.803 16.8705L109.548 16.6141C107.611 14.7894 105.36 13.8092 102.718 13.6735C100.256 13.5981 97.8248 14.5179 96.0085 16.3577L62.6714 49.9113C60.8101 51.7813 59.9545 54.179 59.9846 56.6824C60.0446 59.0952 60.9152 61.2517 62.5963 63.2272C62.7914 63.4685 63.0166 63.6947 63.2417 63.9058C64.4575 65.1273 65.7784 66.002 67.2044 66.5147C65.5683 67.0425 64.0973 67.9473 62.8215 69.2442L62.5663 69.5006C60.7501 71.4459 59.7894 73.7231 59.6543 76.3772C59.5793 78.8504 60.4949 81.3084 62.3111 83.1331L95.6033 116.717C97.4645 118.587 99.8361 119.446 102.328 119.416C104.729 119.341 106.876 118.481 108.827 116.777C109.067 116.581 109.292 116.355 109.503 116.129C110.673 114.937 111.529 113.656 112.054 112.253C112.294 113.007 112.61 113.656 113 114.198C113.72 115.209 114.306 115.948 114.786 116.445C115.507 117.169 116.317 117.773 117.203 118.33C119.064 119.416 121.015 119.823 123.102 119.597C125.203 119.401 127.034 118.527 128.595 117.003L161.902 83.4046C163.719 81.5799 164.634 79.1218 164.559 76.6486L164.604 76.6788ZM152.206 67.1028C151.275 66.7861 150.42 66.2734 149.654 65.5496L145.061 60.8747L151.245 54.6465C150.014 56.3657 149.999 58.0245 151.17 59.6683L155.013 63.5439C156.394 64.9464 158.225 65.0218 159.801 64.2527C160.326 63.9963 160.792 63.6796 161.212 63.2724C161.617 62.8502 162.518 61.9605 162.623 60.0151C162.593 59.0952 162.233 58.1301 161.452 57.1499C160.762 56.3054 160.041 55.5061 159.321 54.7823L148.078 43.457C147.598 44.965 146.757 46.3222 145.587 47.5136C143.695 49.4137 141.189 50.4391 138.772 50.4844C136.28 50.5296 133.879 49.67 132.033 47.8152L115.071 30.7142C113.885 29.5228 113.105 28.06 112.715 26.5068C112.399 27.487 111.874 28.3315 111.139 29.0855L106.861 33.3834L105.615 32.0865L104.309 30.8197L103.453 29.9601C105.12 31.2118 106.756 31.2872 108.347 30.1713L110.283 28.2259C111.559 26.9441 112.084 25.2853 111.874 23.2193C111.754 22.1938 111.424 21.1533 110.853 20.0675C110.433 19.2079 109.863 18.4388 109.217 17.7904C109.052 17.6245 108.707 17.3229 108.167 16.8554C107.641 16.403 106.801 16.1466 105.675 16.0712C104.429 16.026 103.378 16.4633 102.508 17.3229L63.4669 56.622C62.6113 57.4816 62.2961 58.5071 62.3411 59.6984C62.3411 60.6032 62.6413 61.4477 63.1367 62.2319C63.3618 62.5184 63.602 62.82 63.8872 63.0915C64.7728 63.8757 65.8084 64.2979 66.9492 64.313C68.12 64.3582 69.1257 64.0415 69.9962 63.182L83.7754 49.3081C84.9011 47.7398 84.8261 46.096 83.5502 44.407L89.7644 50.6653L75.3248 65.2178C74.6793 65.8662 73.9589 66.3488 73.1483 66.6655C73.8238 66.9822 74.4392 67.4195 74.9946 67.9775L79.2724 72.2754L77.9815 73.527L76.7207 74.839L75.8651 75.6986C77.111 74.0096 77.186 72.3658 76.0753 70.7673L74.139 68.822C72.8631 67.5402 71.212 67.0123 69.1707 67.2235C68.165 67.3441 67.1143 67.6759 66.0486 68.2489C65.193 68.6712 64.4275 69.2442 63.7971 69.8927C63.632 70.0586 63.3318 70.4054 62.8665 70.9483C62.4162 71.4912 62.161 72.3357 62.086 73.4667C62.0409 74.7334 62.4762 75.7891 63.3318 76.6486L102.328 115.978C103.183 116.838 104.204 117.154 105.375 117.124C106.26 117.124 107.101 116.822 107.896 116.325C108.182 116.099 108.482 115.842 108.752 115.571C109.533 114.681 109.938 113.641 109.968 112.479C110.013 111.303 109.698 110.278 108.842 109.418L95.0629 95.5442C93.5019 94.3981 91.8658 94.4886 90.1997 95.7704L96.4138 89.5121L110.853 104.065C111.484 104.698 111.964 105.422 112.279 106.221C112.595 105.558 113.015 104.924 113.54 104.351L118.178 99.7214L124.362 105.95C122.666 104.713 121 104.698 119.379 105.874L115.537 109.75C114.156 111.137 114.066 112.992 114.831 114.576C115.086 115.118 115.401 115.586 115.807 115.993C116.212 116.415 117.113 117.305 119.034 117.411C119.949 117.38 120.91 117.019 121.886 116.234C122.726 115.541 123.522 114.817 124.242 114.093L135.485 102.768C133.984 102.285 132.633 101.441 131.462 100.264C129.571 98.3642 128.565 95.8458 128.52 93.3877C128.475 90.8844 129.331 88.4565 131.177 86.6016L148.138 69.5006C149.309 68.3243 150.735 67.5402 152.251 67.133L152.206 67.1028ZM138.232 99.9175L161.227 76.7844C162.083 75.9248 162.383 74.8842 162.323 73.7231C162.278 72.4563 161.842 71.3856 160.942 70.4808C160.041 69.576 158.975 69.1236 157.715 69.0783C156.559 69.018 155.553 69.3347 154.698 70.1943L132.048 93.0107C131.192 93.8703 130.757 94.941 130.802 96.1927C130.847 97.4594 131.282 98.5301 132.183 99.4349C133.083 100.34 134.149 100.792 135.41 100.822C136.445 100.837 137.391 100.551 138.232 99.9024V99.9175ZM145.271 40.6219L122.306 17.4435C121.45 16.5839 120.43 16.2823 119.274 16.3427C118.028 16.3879 116.947 16.8252 116.047 17.73C115.146 18.6349 114.696 19.7206 114.666 20.9723C114.606 22.1335 114.921 23.1439 115.777 24.0034L138.427 46.8199C139.282 47.6794 140.348 48.1168 141.579 48.0866C142.825 48.0414 143.905 47.604 144.806 46.6992C145.707 45.7944 146.157 44.7086 146.187 43.457C146.202 42.4164 145.917 41.4664 145.271 40.6219ZM53.3502 77.9305C54.1607 77.9757 54.9862 77.7193 55.6467 77.1614C55.7217 77.086 55.8118 77.0558 55.9169 77.0407C56.157 77.0256 56.3672 77.2066 56.3822 77.463C56.4722 78.971 56.8475 80.4489 57.4629 81.8212C58.0783 83.1784 58.9339 84.4451 59.9996 85.5158L93.2917 119.1C94.4475 120.276 95.7834 121.166 97.2243 121.784C98.6953 122.402 100.286 122.749 101.922 122.779C102.028 122.779 102.133 122.809 102.208 122.885C102.388 123.051 102.403 123.322 102.253 123.518L102.028 123.774C101.442 124.453 101.172 125.298 101.202 126.127C101.232 126.956 101.577 127.771 102.223 128.404L104.339 130.455C104.789 130.892 105.24 131.3 105.72 131.646C106.185 131.978 106.696 132.234 107.281 132.385C107.911 132.551 108.377 132.536 108.917 132.521H115.056C115.221 132.521 115.461 132.521 115.687 132.521C116.227 132.536 116.692 132.551 117.323 132.385C117.908 132.234 118.418 131.978 118.884 131.646C119.364 131.315 119.814 130.907 120.265 130.455L122.381 128.404C123.027 127.786 123.372 126.971 123.402 126.127C123.432 125.298 123.162 124.453 122.576 123.774V123.744C122.486 123.669 122.441 123.578 122.426 123.458C122.411 123.216 122.591 123.005 122.831 122.99C123.027 122.99 123.222 122.975 123.417 122.945C124.858 122.794 126.194 122.432 127.454 121.844C128.7 121.256 129.856 120.442 130.907 119.416C142.104 108.317 153.152 96.9768 164.244 85.7873C165.385 84.6412 166.27 83.299 166.886 81.8363C167.501 80.3584 167.846 78.775 167.876 77.1614C167.876 77.0558 167.906 76.9502 167.981 76.8748C168.147 76.6939 168.417 76.6788 168.597 76.8296L168.897 77.086C169.572 77.6741 170.398 77.9455 171.224 77.9154C172.049 77.8852 172.86 77.5384 173.475 76.8899L175.516 74.7485C175.952 74.2961 176.357 73.8437 176.687 73.3461C177.002 72.8786 177.273 72.3658 177.423 71.7626C177.588 71.1293 177.573 70.6467 177.558 70.1038V63.9209C177.558 63.7399 177.558 63.5137 177.558 63.2875C177.573 62.7446 177.588 62.2771 177.423 61.6287C177.273 61.0406 177.017 60.5278 176.687 60.0453C176.357 59.5627 175.952 59.1103 175.516 58.6428L173.475 56.5014C172.86 55.8529 172.049 55.5061 171.224 55.4759C170.398 55.4458 169.572 55.7172 168.897 56.2903L168.867 56.3204C168.867 56.3204 168.702 56.4411 168.597 56.4411C168.357 56.4562 168.147 56.2752 168.132 56.0339C168.132 55.8379 168.102 55.6418 168.087 55.4458C167.936 53.9981 167.576 52.6409 166.991 51.3892C166.405 50.1375 165.61 48.9764 164.604 47.9358C153.422 37.5606 142.059 25.2551 131.207 14.3219C130.066 13.1758 128.73 12.2861 127.289 11.6678C125.833 11.0495 124.257 10.7026 122.651 10.6574C122.546 10.6574 122.441 10.6272 122.366 10.5518C122.186 10.386 122.171 10.1145 122.321 9.91847L122.576 9.61686C123.162 8.93825 123.432 8.09376 123.402 7.26434C123.372 6.43493 123.027 5.62059 122.381 4.98722L120.265 2.93631C119.814 2.49898 119.364 2.09181 118.884 1.74497C118.418 1.4132 117.908 1.15684 117.323 1.00603C116.692 0.84015 116.227 0.85523 115.672 0.87031H109.548C109.382 0.87031 109.142 0.87031 108.932 0.87031C108.392 0.85523 107.926 0.84015 107.281 1.00603C106.696 1.15684 106.185 1.4132 105.72 1.74497C105.24 2.07673 104.789 2.4839 104.339 2.93631L102.223 4.98722C101.592 5.60551 101.247 6.40477 101.202 7.2191C101.157 8.03344 101.412 8.86285 101.968 9.54146C102.043 9.61686 102.073 9.70734 102.088 9.81291C102.088 10.0542 101.922 10.2653 101.667 10.2804C100.166 10.3709 98.6953 10.7479 97.3444 11.3662C95.9935 11.9845 94.7477 12.844 93.682 13.9147L60.3448 47.4683C59.189 48.6295 58.2884 49.9867 57.688 51.4344C57.0726 52.9123 56.7274 54.5108 56.6974 56.1696C56.6974 56.2752 56.6674 56.3808 56.5923 56.4562C56.4272 56.6371 56.157 56.6522 55.9769 56.5014L55.7217 56.2752C55.0463 55.6871 54.2207 55.4156 53.3952 55.4458C52.5696 55.4759 51.7591 55.8228 51.1437 56.4712L49.1023 58.6126C48.667 59.065 48.2618 59.5175 47.9315 60.0151C47.6163 60.4826 47.3462 60.9953 47.1961 61.5985C47.0309 62.2319 47.046 62.6994 47.061 63.2423C47.061 63.4685 47.076 63.6947 47.076 63.8757V69.4252C47.076 69.5911 47.076 69.8324 47.076 70.0586C47.061 70.6015 47.046 71.084 47.2111 71.7174C47.3612 72.3055 47.6163 72.8183 47.9466 73.3008C48.2768 73.7834 48.682 74.2358 49.1173 74.7033L51.1587 76.8447C51.7591 77.4781 52.5696 77.8249 53.3802 77.8701L53.3502 77.9305Z" fill="#FCD6AB"/>
</svg>
