<svg width="46" height="46" viewBox="0 0 46 46" fill="none" xmlns="http://www.w3.org/2000/svg">
<circle cx="23.3149" cy="22.7622" r="22.3735" fill="white"/>
<circle cx="23.312" cy="22.7631" r="17.2104" fill="#071E46"/>
<g clip-path="url(#clip0_1147_20)">
<path d="M29.4206 17.9225H27.1112L26.8423 17.1158C26.7127 16.7241 26.4628 16.3833 26.1282 16.1418C25.7936 15.9004 25.3913 15.7707 24.9787 15.7712H21.656C21.2435 15.7709 20.8415 15.9007 20.507 16.1421C20.1725 16.3835 19.9227 16.7242 19.793 17.1158L19.5236 17.9225H17.2141C16.6934 17.9231 16.1941 18.1302 15.8259 18.4985C15.4577 18.8667 15.2506 19.3659 15.25 19.8867V27.7927C15.2511 28.3131 15.4585 28.8118 15.8267 29.1796C16.1948 29.5473 16.6938 29.7541 17.2141 29.7547H29.4228C29.9431 29.7536 30.4419 29.5462 30.8096 29.178C31.1774 28.8099 31.3842 28.3109 31.3848 27.7906V19.8845C31.3836 19.3642 31.1763 18.8655 30.8081 18.4977C30.4399 18.1299 29.941 17.9231 29.4206 17.9225ZM30.3091 27.7906C30.3088 28.0261 30.2151 28.2519 30.0486 28.4185C29.882 28.5851 29.6562 28.6788 29.4206 28.6791H17.2141C16.9786 28.6788 16.7528 28.5851 16.5862 28.4185C16.4196 28.2519 16.3259 28.0261 16.3257 27.7906V19.8845C16.3265 19.6493 16.4205 19.4241 16.587 19.258C16.7535 19.0919 16.979 18.9985 17.2141 18.9982H19.9113C20.0242 18.9981 20.1341 18.9625 20.2256 18.8965C20.3171 18.8305 20.3855 18.7374 20.4212 18.6303L20.8133 17.4541C20.8721 17.2772 20.9852 17.1233 21.1365 17.0143C21.2878 16.9053 21.4696 16.8467 21.656 16.8469H24.9787C25.1653 16.8467 25.3471 16.9053 25.4984 17.0144C25.6497 17.1235 25.7628 17.2776 25.8215 17.4546L26.2136 18.6303C26.2492 18.7374 26.3176 18.8305 26.4091 18.8965C26.5006 18.9625 26.6106 18.9981 26.7234 18.9982H29.4206C29.6562 18.9985 29.882 19.0922 30.0486 19.2587C30.2151 19.4253 30.3088 19.6511 30.3091 19.8867V27.7906Z" fill="white"/>
<path d="M23.3149 19.5361C22.5172 19.5361 21.7373 19.7727 21.0739 20.2159C20.4106 20.6592 19.8936 21.2891 19.5883 22.0262C19.283 22.7633 19.2031 23.5743 19.3588 24.3568C19.5144 25.1392 19.8986 25.858 20.4627 26.4221C21.0268 26.9862 21.7455 27.3704 22.528 27.526C23.3105 27.6816 24.1215 27.6018 24.8586 27.2965C25.5956 26.9912 26.2256 26.4742 26.6688 25.8108C27.1121 25.1475 27.3486 24.3676 27.3486 23.5698C27.3475 22.5004 26.9222 21.475 26.1659 20.7188C25.4097 19.9626 24.3844 19.5373 23.3149 19.5361ZM23.3149 26.5279C22.7299 26.5279 22.158 26.3544 21.6715 26.0293C21.1851 25.7043 20.806 25.2423 20.5821 24.7018C20.3582 24.1613 20.2996 23.5665 20.4137 22.9927C20.5279 22.4189 20.8096 21.8919 21.2233 21.4782C21.637 21.0645 22.1641 20.7828 22.7379 20.6686C23.3117 20.5545 23.9064 20.6131 24.4469 20.837C24.9874 21.0608 25.4494 21.44 25.7745 21.9264C26.0995 22.4129 26.273 22.9848 26.273 23.5698C26.2721 24.3541 25.9602 25.106 25.4056 25.6605C24.8511 26.2151 24.0992 26.527 23.3149 26.5279Z" fill="white"/>
<path d="M28.6941 21.1499C28.9911 21.1499 29.2319 20.9091 29.2319 20.612C29.2319 20.315 28.9911 20.0742 28.6941 20.0742C28.397 20.0742 28.1562 20.315 28.1562 20.612C28.1562 20.9091 28.397 21.1499 28.6941 21.1499Z" fill="white"/>
</g>
<defs>
<clipPath id="clip0_1147_20">
<rect width="17.2104" height="17.2104" fill="white" transform="translate(14.7109 14.157)"/>
</clipPath>
</defs>
</svg>
