<svg width="21" height="21" viewBox="0 0 21 21" fill="none" xmlns="http://www.w3.org/2000/svg">
<path d="M8.78551 1.24676C9.54198 -0.149857 11.5462 -0.149857 12.3027 1.24676L14.1132 4.58932C14.3999 5.11861 14.9097 5.49062 15.5012 5.60215L19.2396 6.30704C20.7912 6.59959 21.4079 8.49039 20.3271 9.64144L17.6985 12.4409C17.2893 12.8766 17.0964 13.4726 17.1729 14.0655L17.6634 17.8723C17.866 19.4441 16.2472 20.6158 14.8174 19.9324L11.4066 18.3022C10.8611 18.0415 10.2271 18.0415 9.68165 18.3022L6.27083 19.9324C4.84099 20.6158 3.22221 19.4441 3.42477 17.8723L3.91537 14.0655C3.99177 13.4726 3.79897 12.8766 3.38977 12.4409L0.761166 9.64144C-0.319645 8.49039 0.296986 6.59959 1.84859 6.30704L5.58699 5.60215C6.17851 5.49062 6.68833 5.11861 6.97502 4.58932L8.78551 1.24676Z" fill="#FFC700"/>
</svg>
