<svg width="438" height="396" viewBox="0 0 438 396" fill="none" xmlns="http://www.w3.org/2000/svg">
<path d="M112.08 390.247C111.2 390.247 110.447 390.074 109.82 389.727C109.193 389.38 108.693 388.92 108.32 388.347C107.96 387.76 107.74 387.12 107.66 386.427H109.22C109.353 387.174 109.673 387.754 110.18 388.167C110.687 388.58 111.327 388.787 112.1 388.787C112.807 388.787 113.433 388.574 113.98 388.147C114.54 387.72 114.987 387.067 115.32 386.187C115.667 385.307 115.86 384.187 115.9 382.827C115.9 382.8 115.9 382.774 115.9 382.747C115.9 382.707 115.9 382.674 115.9 382.647C115.687 383.06 115.387 383.447 115 383.807C114.613 384.154 114.153 384.434 113.62 384.647C113.1 384.86 112.507 384.967 111.84 384.967C111.067 384.967 110.327 384.78 109.62 384.407C108.913 384.034 108.34 383.514 107.9 382.847C107.46 382.167 107.24 381.374 107.24 380.467C107.24 379.68 107.433 378.927 107.82 378.207C108.207 377.487 108.76 376.9 109.48 376.447C110.213 375.994 111.073 375.767 112.06 375.767C113.073 375.767 113.927 375.96 114.62 376.347C115.313 376.72 115.867 377.227 116.28 377.867C116.707 378.507 117.013 379.227 117.2 380.027C117.4 380.814 117.5 381.62 117.5 382.447C117.5 383.98 117.287 385.334 116.86 386.507C116.433 387.68 115.813 388.6 115 389.267C114.2 389.92 113.227 390.247 112.08 390.247ZM112.18 383.507C112.807 383.507 113.367 383.367 113.86 383.087C114.353 382.794 114.747 382.407 115.04 381.927C115.333 381.447 115.48 380.927 115.48 380.367C115.48 379.767 115.333 379.234 115.04 378.767C114.747 378.287 114.353 377.914 113.86 377.647C113.367 377.38 112.807 377.247 112.18 377.247C111.567 377.247 111.013 377.387 110.52 377.667C110.027 377.934 109.64 378.3 109.36 378.767C109.08 379.234 108.94 379.774 108.94 380.387C108.94 381.014 109.08 381.56 109.36 382.027C109.64 382.494 110.027 382.86 110.52 383.127C111.013 383.38 111.567 383.507 112.18 383.507ZM125.351 390.007V376.007H134.011V377.387H127.031V382.267H133.411V383.627H127.031V388.627H134.011V390.007H125.351ZM136.56 390.007V380.027H138.08L138.2 381.467C138.52 380.934 138.946 380.52 139.48 380.227C140.013 379.934 140.613 379.787 141.28 379.787C141.8 379.787 142.266 379.86 142.68 380.007C143.106 380.14 143.48 380.354 143.8 380.647C144.133 380.927 144.4 381.287 144.6 381.727C144.946 381.114 145.426 380.64 146.04 380.307C146.653 379.96 147.3 379.787 147.98 379.787C148.766 379.787 149.453 379.947 150.04 380.267C150.626 380.574 151.073 381.047 151.38 381.687C151.7 382.327 151.86 383.14 151.86 384.127V390.007H150.2V384.307C150.2 383.28 149.993 382.514 149.58 382.007C149.166 381.487 148.58 381.227 147.82 381.227C147.286 381.227 146.813 381.367 146.4 381.647C145.986 381.927 145.66 382.327 145.42 382.847C145.18 383.367 145.06 384.014 145.06 384.787V390.007H143.38V384.307C143.38 383.28 143.173 382.514 142.76 382.007C142.346 381.487 141.753 381.227 140.98 381.227C140.473 381.227 140.006 381.367 139.58 381.647C139.166 381.927 138.84 382.327 138.6 382.847C138.36 383.367 138.24 384.014 138.24 384.787V390.007H136.56ZM158.931 390.247C157.998 390.247 157.158 390.034 156.411 389.607C155.665 389.18 155.071 388.574 154.631 387.787C154.205 387 153.991 386.08 153.991 385.027C153.991 383.96 154.211 383.034 154.651 382.247C155.091 381.46 155.685 380.854 156.431 380.427C157.191 380 158.038 379.787 158.971 379.787C159.918 379.787 160.765 380 161.511 380.427C162.258 380.854 162.845 381.46 163.271 382.247C163.698 383.034 163.911 383.96 163.911 385.027C163.911 386.08 163.691 387 163.251 387.787C162.825 388.574 162.231 389.18 161.471 389.607C160.725 390.034 159.878 390.247 158.931 390.247ZM158.931 388.807C159.518 388.807 160.058 388.667 160.551 388.387C161.045 388.107 161.438 387.687 161.731 387.127C162.038 386.554 162.191 385.847 162.191 385.007C162.191 384.167 162.045 383.467 161.751 382.907C161.458 382.347 161.065 381.927 160.571 381.647C160.078 381.367 159.545 381.227 158.971 381.227C158.411 381.227 157.878 381.367 157.371 381.647C156.878 381.927 156.478 382.347 156.171 382.907C155.865 383.467 155.711 384.174 155.711 385.027C155.711 385.854 155.865 386.554 156.171 387.127C156.478 387.687 156.871 388.107 157.351 388.387C157.845 388.667 158.371 388.807 158.931 388.807ZM169.816 390.007C169.216 390.007 168.696 389.914 168.256 389.727C167.816 389.54 167.476 389.227 167.236 388.787C167.009 388.334 166.896 387.727 166.896 386.967V381.447H165.156V380.027H166.896L167.116 377.627H168.576V380.027H171.496V381.447H168.576V386.967C168.576 387.594 168.703 388.02 168.956 388.247C169.209 388.46 169.656 388.567 170.296 388.567H171.356V390.007H169.816ZM173.83 390.007V380.027H175.51V390.007H173.83ZM174.67 377.847C174.336 377.847 174.056 377.74 173.83 377.527C173.616 377.3 173.51 377.02 173.51 376.687C173.51 376.354 173.616 376.087 173.83 375.887C174.056 375.674 174.336 375.567 174.67 375.567C174.99 375.567 175.263 375.674 175.49 375.887C175.716 376.087 175.83 376.354 175.83 376.687C175.83 377.02 175.716 377.3 175.49 377.527C175.263 377.74 174.99 377.847 174.67 377.847ZM182.955 390.247C182.021 390.247 181.181 390.034 180.435 389.607C179.688 389.18 179.095 388.574 178.655 387.787C178.228 387 178.015 386.08 178.015 385.027C178.015 383.96 178.235 383.034 178.675 382.247C179.115 381.46 179.708 380.854 180.455 380.427C181.215 380 182.061 379.787 182.995 379.787C183.941 379.787 184.788 380 185.535 380.427C186.281 380.854 186.868 381.46 187.295 382.247C187.721 383.034 187.935 383.96 187.935 385.027C187.935 386.08 187.715 387 187.275 387.787C186.848 388.574 186.255 389.18 185.495 389.607C184.748 390.034 183.901 390.247 182.955 390.247ZM182.955 388.807C183.541 388.807 184.081 388.667 184.575 388.387C185.068 388.107 185.461 387.687 185.755 387.127C186.061 386.554 186.215 385.847 186.215 385.007C186.215 384.167 186.068 383.467 185.775 382.907C185.481 382.347 185.088 381.927 184.595 381.647C184.101 381.367 183.568 381.227 182.995 381.227C182.435 381.227 181.901 381.367 181.395 381.647C180.901 381.927 180.501 382.347 180.195 382.907C179.888 383.467 179.735 384.174 179.735 385.027C179.735 385.854 179.888 386.554 180.195 387.127C180.501 387.687 180.895 388.107 181.375 388.387C181.868 388.667 182.395 388.807 182.955 388.807ZM190.29 390.007V380.027H191.81L191.91 381.787C192.23 381.174 192.69 380.687 193.29 380.327C193.89 379.967 194.57 379.787 195.33 379.787C196.117 379.787 196.797 379.947 197.37 380.267C197.943 380.574 198.39 381.047 198.71 381.687C199.03 382.327 199.19 383.134 199.19 384.107V390.007H197.51V384.287C197.51 383.274 197.283 382.514 196.83 382.007C196.39 381.487 195.763 381.227 194.95 381.227C194.377 381.227 193.863 381.367 193.41 381.647C192.97 381.914 192.617 382.314 192.35 382.847C192.097 383.367 191.97 384.007 191.97 384.767V390.007H190.29ZM205.555 390.247C204.755 390.247 204.042 390.114 203.415 389.847C202.788 389.567 202.288 389.18 201.915 388.687C201.542 388.18 201.308 387.587 201.215 386.907H202.935C203.015 387.254 203.162 387.574 203.375 387.867C203.602 388.16 203.895 388.394 204.255 388.567C204.628 388.74 205.068 388.827 205.575 388.827C206.055 388.827 206.442 388.76 206.735 388.627C207.042 388.48 207.268 388.294 207.415 388.067C207.575 387.827 207.655 387.567 207.655 387.287C207.655 386.887 207.555 386.58 207.355 386.367C207.168 386.154 206.888 385.987 206.515 385.867C206.142 385.747 205.695 385.634 205.175 385.527C204.748 385.447 204.322 385.34 203.895 385.207C203.482 385.074 203.108 384.907 202.775 384.707C202.442 384.494 202.175 384.227 201.975 383.907C201.775 383.587 201.675 383.2 201.675 382.747C201.675 382.174 201.822 381.667 202.115 381.227C202.408 380.774 202.822 380.42 203.355 380.167C203.902 379.914 204.548 379.787 205.295 379.787C206.348 379.787 207.208 380.047 207.875 380.567C208.555 381.087 208.948 381.84 209.055 382.827H207.395C207.342 382.32 207.128 381.927 206.755 381.647C206.395 381.354 205.902 381.207 205.275 381.207C204.648 381.207 204.175 381.334 203.855 381.587C203.535 381.84 203.375 382.174 203.375 382.587C203.375 382.84 203.462 383.067 203.635 383.267C203.822 383.467 204.088 383.64 204.435 383.787C204.795 383.92 205.228 384.034 205.735 384.127C206.375 384.26 206.968 384.427 207.515 384.627C208.062 384.814 208.508 385.1 208.855 385.487C209.202 385.874 209.375 386.427 209.375 387.147C209.388 387.76 209.235 388.3 208.915 388.767C208.595 389.234 208.148 389.6 207.575 389.867C207.015 390.12 206.342 390.247 205.555 390.247ZM212.375 390.107C212.041 390.107 211.761 390 211.535 389.787C211.321 389.56 211.215 389.287 211.215 388.967C211.215 388.647 211.321 388.38 211.535 388.167C211.761 387.94 212.041 387.827 212.375 387.827C212.708 387.827 212.981 387.94 213.195 388.167C213.408 388.38 213.515 388.647 213.515 388.967C213.515 389.287 213.408 389.56 213.195 389.787C212.981 390 212.708 390.107 212.375 390.107ZM227.413 390.247C226.053 390.247 224.86 389.947 223.833 389.347C222.807 388.734 222 387.887 221.413 386.807C220.84 385.714 220.553 384.447 220.553 383.007C220.553 381.58 220.84 380.327 221.413 379.247C222 378.154 222.807 377.3 223.833 376.687C224.86 376.074 226.053 375.767 227.413 375.767C228.787 375.767 229.987 376.074 231.013 376.687C232.053 377.3 232.853 378.154 233.413 379.247C233.987 380.327 234.273 381.58 234.273 383.007C234.273 384.447 233.987 385.714 233.413 386.807C232.853 387.887 232.053 388.734 231.013 389.347C229.987 389.947 228.787 390.247 227.413 390.247ZM227.413 388.767C228.44 388.767 229.34 388.54 230.113 388.087C230.887 387.62 231.487 386.96 231.913 386.107C232.34 385.24 232.553 384.207 232.553 383.007C232.553 381.807 232.34 380.78 231.913 379.927C231.487 379.06 230.887 378.4 230.113 377.947C229.34 377.494 228.44 377.267 227.413 377.267C226.387 377.267 225.487 377.494 224.713 377.947C223.953 378.4 223.353 379.06 222.913 379.927C222.487 380.78 222.273 381.807 222.273 383.007C222.273 384.207 222.487 385.24 222.913 386.107C223.353 386.96 223.953 387.62 224.713 388.087C225.487 388.54 226.387 388.767 227.413 388.767ZM236.599 390.007V380.027H238.119L238.219 381.787C238.539 381.174 238.999 380.687 239.599 380.327C240.199 379.967 240.879 379.787 241.639 379.787C242.425 379.787 243.105 379.947 243.679 380.267C244.252 380.574 244.699 381.047 245.019 381.687C245.339 382.327 245.499 383.134 245.499 384.107V390.007H243.819V384.287C243.819 383.274 243.592 382.514 243.139 382.007C242.699 381.487 242.072 381.227 241.259 381.227C240.685 381.227 240.172 381.367 239.719 381.647C239.279 381.914 238.925 382.314 238.659 382.847C238.405 383.367 238.279 384.007 238.279 384.767V390.007H236.599ZM252.524 390.247C251.577 390.247 250.737 390.034 250.004 389.607C249.27 389.167 248.69 388.554 248.264 387.767C247.85 386.98 247.644 386.06 247.644 385.007C247.644 383.954 247.85 383.04 248.264 382.267C248.677 381.48 249.25 380.874 249.984 380.447C250.73 380.007 251.59 379.787 252.564 379.787C253.537 379.787 254.37 380.007 255.064 380.447C255.757 380.874 256.284 381.44 256.644 382.147C257.017 382.854 257.204 383.627 257.204 384.467C257.204 384.6 257.204 384.74 257.204 384.887C257.204 385.034 257.197 385.2 257.184 385.387H248.904V384.087H255.544C255.517 383.18 255.217 382.474 254.644 381.967C254.084 381.46 253.377 381.207 252.524 381.207C251.95 381.207 251.417 381.334 250.924 381.587C250.43 381.84 250.03 382.214 249.724 382.707C249.43 383.2 249.284 383.814 249.284 384.547V385.107C249.284 385.934 249.437 386.627 249.744 387.187C250.05 387.734 250.45 388.147 250.944 388.427C251.437 388.694 251.964 388.827 252.524 388.827C253.217 388.827 253.79 388.674 254.244 388.367C254.71 388.047 255.05 387.614 255.264 387.067H256.924C256.75 387.667 256.464 388.207 256.064 388.687C255.677 389.167 255.184 389.547 254.584 389.827C253.997 390.107 253.31 390.247 252.524 390.247ZM269.303 390.247C268.277 390.247 267.383 390.06 266.623 389.687C265.863 389.314 265.277 388.794 264.863 388.127C264.45 387.46 264.243 386.687 264.243 385.807H266.003C266.003 386.354 266.13 386.86 266.383 387.327C266.637 387.78 267.003 388.147 267.483 388.427C267.977 388.694 268.583 388.827 269.303 388.827C269.93 388.827 270.463 388.727 270.903 388.527C271.357 388.314 271.697 388.027 271.923 387.667C272.163 387.307 272.283 386.9 272.283 386.447C272.283 385.887 272.163 385.44 271.923 385.107C271.697 384.76 271.377 384.48 270.963 384.267C270.563 384.054 270.097 383.867 269.563 383.707C269.043 383.547 268.497 383.367 267.923 383.167C266.843 382.794 266.037 382.334 265.503 381.787C264.983 381.227 264.723 380.5 264.723 379.607C264.723 378.847 264.897 378.18 265.243 377.607C265.603 377.034 266.11 376.587 266.763 376.267C267.43 375.934 268.217 375.767 269.123 375.767C270.017 375.767 270.79 375.934 271.443 376.267C272.11 376.6 272.63 377.06 273.003 377.647C273.377 378.22 273.563 378.887 273.563 379.647H271.803C271.803 379.26 271.703 378.88 271.503 378.507C271.303 378.134 270.997 377.827 270.583 377.587C270.183 377.334 269.677 377.207 269.063 377.207C268.557 377.194 268.103 377.28 267.703 377.467C267.317 377.64 267.01 377.894 266.783 378.227C266.57 378.56 266.463 378.967 266.463 379.447C266.463 379.9 266.557 380.267 266.743 380.547C266.943 380.827 267.223 381.067 267.583 381.267C267.957 381.454 268.39 381.627 268.883 381.787C269.377 381.947 269.923 382.127 270.523 382.327C271.203 382.554 271.803 382.834 272.323 383.167C272.857 383.487 273.27 383.9 273.563 384.407C273.87 384.914 274.023 385.56 274.023 386.347C274.023 387.014 273.843 387.647 273.483 388.247C273.137 388.834 272.617 389.314 271.923 389.687C271.23 390.06 270.357 390.247 269.303 390.247ZM276.325 394.407V380.027H277.845L278.005 381.667C278.219 381.347 278.492 381.047 278.825 380.767C279.159 380.474 279.559 380.24 280.025 380.067C280.492 379.88 281.032 379.787 281.645 379.787C282.619 379.787 283.472 380.02 284.205 380.487C284.939 380.94 285.505 381.56 285.905 382.347C286.319 383.134 286.525 384.034 286.525 385.047C286.525 386.047 286.319 386.94 285.905 387.727C285.505 388.514 284.932 389.134 284.185 389.587C283.452 390.027 282.599 390.247 281.625 390.247C280.812 390.247 280.092 390.08 279.465 389.747C278.839 389.414 278.352 388.947 278.005 388.347V394.407H276.325ZM281.445 388.787C282.099 388.787 282.679 388.634 283.185 388.327C283.705 388.007 284.105 387.567 284.385 387.007C284.679 386.434 284.825 385.767 284.825 385.007C284.825 384.26 284.679 383.607 284.385 383.047C284.105 382.474 283.705 382.034 283.185 381.727C282.679 381.407 282.099 381.247 281.445 381.247C280.779 381.247 280.185 381.407 279.665 381.727C279.159 382.034 278.759 382.474 278.465 383.047C278.185 383.607 278.045 384.26 278.045 385.007C278.045 385.767 278.185 386.434 278.465 387.007C278.759 387.567 279.159 388.007 279.665 388.327C280.185 388.634 280.779 388.787 281.445 388.787ZM292.164 390.247C291.338 390.247 290.651 390.107 290.104 389.827C289.571 389.547 289.171 389.174 288.904 388.707C288.638 388.227 288.504 387.714 288.504 387.167C288.504 386.487 288.678 385.914 289.024 385.447C289.384 384.98 289.884 384.62 290.524 384.367C291.164 384.114 291.924 383.987 292.804 383.987H295.484C295.484 383.374 295.384 382.86 295.184 382.447C294.998 382.034 294.718 381.727 294.344 381.527C293.971 381.314 293.518 381.207 292.984 381.207C292.344 381.207 291.784 381.374 291.304 381.707C290.824 382.027 290.531 382.494 290.424 383.107H288.704C288.784 382.387 289.031 381.787 289.444 381.307C289.858 380.814 290.378 380.44 291.004 380.187C291.631 379.92 292.291 379.787 292.984 379.787C293.904 379.787 294.671 379.96 295.284 380.307C295.911 380.64 296.378 381.114 296.684 381.727C297.004 382.327 297.164 383.034 297.164 383.847V390.007H295.664L295.564 388.227C295.431 388.507 295.258 388.774 295.044 389.027C294.844 389.267 294.604 389.48 294.324 389.667C294.058 389.84 293.744 389.98 293.384 390.087C293.024 390.194 292.618 390.247 292.164 390.247ZM292.424 388.827C292.904 388.827 293.331 388.734 293.704 388.547C294.091 388.347 294.418 388.08 294.684 387.747C294.951 387.414 295.151 387.04 295.284 386.627C295.418 386.214 295.484 385.78 295.484 385.327V385.287H292.944C292.291 385.287 291.764 385.367 291.364 385.527C290.978 385.687 290.698 385.9 290.524 386.167C290.351 386.434 290.264 386.74 290.264 387.087C290.264 387.434 290.344 387.74 290.504 388.007C290.664 388.274 290.904 388.48 291.224 388.627C291.558 388.76 291.958 388.827 292.424 388.827ZM299.724 390.007V380.027H301.244L301.384 381.947C301.597 381.494 301.877 381.107 302.224 380.787C302.584 380.467 303.004 380.22 303.484 380.047C303.977 379.874 304.537 379.787 305.164 379.787V381.547H304.644C304.204 381.547 303.784 381.607 303.384 381.727C302.997 381.834 302.65 382.014 302.344 382.267C302.05 382.52 301.817 382.867 301.644 383.307C301.484 383.734 301.404 384.274 301.404 384.927V390.007H299.724ZM313.268 390.007L308.448 384.527L312.808 380.027H314.868L309.868 385.127L309.888 383.927L315.408 390.007H313.268ZM307.048 390.007V375.607H308.728V390.007H307.048ZM317.126 390.007V375.607H318.806V390.007H317.126ZM326.02 390.247C325.073 390.247 324.233 390.034 323.5 389.607C322.766 389.167 322.186 388.554 321.76 387.767C321.346 386.98 321.14 386.06 321.14 385.007C321.14 383.954 321.346 383.04 321.76 382.267C322.173 381.48 322.746 380.874 323.48 380.447C324.226 380.007 325.086 379.787 326.06 379.787C327.033 379.787 327.866 380.007 328.56 380.447C329.253 380.874 329.78 381.44 330.14 382.147C330.513 382.854 330.7 383.627 330.7 384.467C330.7 384.6 330.7 384.74 330.7 384.887C330.7 385.034 330.693 385.2 330.68 385.387H322.4V384.087H329.04C329.013 383.18 328.713 382.474 328.14 381.967C327.58 381.46 326.873 381.207 326.02 381.207C325.446 381.207 324.913 381.334 324.42 381.587C323.926 381.84 323.526 382.214 323.22 382.707C322.926 383.2 322.78 383.814 322.78 384.547V385.107C322.78 385.934 322.933 386.627 323.24 387.187C323.546 387.734 323.946 388.147 324.44 388.427C324.933 388.694 325.46 388.827 326.02 388.827C326.713 388.827 327.286 388.674 327.74 388.367C328.206 388.047 328.546 387.614 328.76 387.067H330.42C330.246 387.667 329.96 388.207 329.56 388.687C329.173 389.167 328.68 389.547 328.08 389.827C327.493 390.107 326.806 390.247 326.02 390.247Z" fill="#FCD6AB"/>
<path fill-rule="evenodd" clip-rule="evenodd" d="M4.17878 353.317C6.75009 354.783 9.87657 355.604 13.6751 355.78C14.1134 355.78 14.6101 355.78 15.0484 355.78C18.8762 355.78 22.1487 355.106 24.8369 353.786C27.5251 352.438 28.8692 350.826 28.8692 348.979V330.715H15.925C18.993 330.979 20.7754 331.947 21.2137 333.647V351.06C21.2137 352.145 20.4832 352.966 19.2268 353.698C17.9996 354.402 16.5094 354.812 14.7562 354.871C14.2011 354.871 13.6167 354.871 13.0907 354.812C11.7466 354.636 10.5778 354.285 9.64282 353.728C8.38638 353.024 7.6559 352.174 7.6559 351.089V301.781C7.68512 300.697 8.35716 299.759 9.70126 298.996C10.9577 298.322 12.0973 297.97 13.1199 297.912C14.1718 297.853 14.8439 297.824 15.1945 297.824C16.5386 297.824 17.9119 297.941 19.2268 298.205C20.9215 298.527 22.3533 298.967 23.5221 299.524C25.8888 300.697 27.0284 302.075 27.0284 303.658V306.091C26.5317 307.791 24.7493 308.788 21.7105 309.052H26.181H28.8108V303.658C28.8108 301.811 27.4959 300.198 24.8077 298.879C21.8858 297.531 18.584 296.827 14.8731 296.827H14.3471C10.461 296.915 7.10073 297.707 4.208 299.29C1.57825 300.785 0.000398865 302.925 0.000398865 305.211V347.308C-0.0288206 349.653 1.54903 351.705 4.17878 353.259V353.317ZM59.462 299.436C56.8322 297.882 53.2675 296.974 49.2644 296.974C45.2613 296.974 41.6673 297.882 39.096 299.436C36.4663 300.931 34.8592 303.071 34.8592 305.358V326.816C34.8592 329.162 36.4663 331.214 39.096 332.767C41.6673 334.262 45.3198 335.23 49.2644 335.23C51.6896 335.23 53.9687 334.907 56.0433 334.262V348.48C56.0433 349.389 55.9849 350.356 55.8096 351.324C55.605 352.438 54.9914 353.259 54.0564 353.874C51.9234 355.018 50.0825 355.018 49.2352 355.018C48.3878 355.018 47.5697 354.93 46.7515 354.754C44.3263 354.255 42.4855 353.024 42.4855 351.295V346.428C42.9822 344.669 44.7062 343.614 47.7742 343.321H34.8884V349.155C34.9761 351.089 36.291 352.672 38.9207 353.962C40.9076 354.93 42.8069 355.487 44.5893 355.662C46.3717 355.838 47.7742 355.926 48.7677 355.926C50.2579 355.926 51.7188 355.809 53.2382 355.575C56.2771 355.076 58.7607 354.109 60.6892 352.643C62.6761 351.177 63.6696 349.477 63.728 347.542V305.416C63.6988 303.13 62.121 300.99 59.462 299.495V299.436ZM56.0433 330.686C55.8388 331.624 55.1667 332.416 54.0564 333.061C52.7123 333.823 51.1344 334.233 49.2644 334.233C47.3944 334.233 45.8165 333.852 44.4724 333.061C43.1283 332.298 42.4855 331.36 42.4855 330.276V301.635C42.4855 300.55 43.216 299.729 44.4724 299.026C45.8165 298.264 47.3944 297.853 49.2644 297.853C51.1344 297.853 52.7123 298.234 54.0564 299.026C55.3128 299.7 56.0725 300.55 56.0725 301.635V330.686H56.0433ZM90.0547 353.992C92.9183 355.281 96.1324 355.956 99.7556 355.956H100.515C104.46 355.868 107.849 355.047 110.654 353.493C113.284 351.939 114.92 349.858 114.92 347.542V299.583C115.417 297.941 117.112 297.208 120.18 297.003C116.82 297.003 113.43 297.003 110.07 297.003H101.947C105.015 297.238 106.71 297.912 107.207 299.583V351.265C107.207 352.35 106.476 353.2 105.22 353.904C103.846 354.666 102.268 355.018 100.457 355.018C98.6453 355.018 97.0966 354.636 95.6649 353.904C94.4084 353.2 93.678 352.35 93.678 351.265V334.028C93.678 332.298 95.5188 331.272 99.1128 330.921H85.9056L85.8764 349.125C85.9932 351.031 87.3666 352.614 90.084 353.992H90.0547ZM137.098 331.39C140.137 331.478 142.182 331.947 143.234 332.767C144.286 333.588 144.812 334.966 144.812 337.018V337.165C144.841 335.083 144.87 332.943 144.87 330.862C144.87 328.781 144.87 326.641 144.812 324.559V324.706C144.812 326.758 144.286 328.194 143.263 329.044C142.182 329.924 140.108 330.393 137.04 330.51L133.475 330.598L133.563 297.795H141.306C144.491 297.882 147.15 298.469 149.312 299.524C151.532 300.638 152.701 302.045 152.818 303.687V296.886H120.56C123.54 297.15 125.293 298.058 125.819 299.729V353.581C125.323 355.223 123.628 355.633 120.589 355.838H152.847V349.037C152.73 350.679 151.532 352.086 149.312 353.2C147.179 354.255 144.549 354.842 141.335 354.93H133.475V331.419H137.127L137.098 331.39ZM176.515 355.809H178.181C180.927 347.278 183.791 338.367 186.742 329.132L187.063 328.048L195.04 355.809H196.735C199.452 347.337 202.287 338.572 205.179 329.426C208.569 318.843 211.812 308.729 214.939 299.084C215.523 297.619 217.072 297.062 219.877 296.856H208.832C211.228 297.032 213.332 297.677 213.332 298.791C213.332 298.879 213.332 298.996 213.302 299.084C208.364 314.006 203.572 328.986 198.985 343.936C196.384 334.409 193.755 324.882 191.125 315.354C192.907 309.726 194.66 304.302 196.355 299.084C196.969 297.619 198.547 297.062 201.352 296.856H173.768C176.398 297.091 178.093 297.824 178.794 299.114L186.274 325.204C184.346 331.419 182.388 337.663 180.46 343.907C176.369 328.956 172.22 314.006 167.954 299.055C167.925 298.967 167.925 298.938 167.925 298.879C167.925 298.439 168.363 298 169.239 297.648C170.204 297.238 171.314 296.944 172.512 296.827H155.214C157.844 297.062 159.509 297.795 160.211 299.084L176.515 355.75V355.809ZM186.537 299.084C186.537 299.084 186.508 298.967 186.508 298.879C186.508 298.498 186.859 298.117 187.648 297.736C188.495 297.325 189.518 297.032 190.687 296.886C192.966 297.091 194.806 297.707 194.806 298.762C194.806 298.85 194.806 298.967 194.777 299.055C193.287 303.57 191.797 308.055 190.307 312.54C189.05 308.055 187.794 303.57 186.537 299.055V299.084ZM234.896 331.39H231.272L231.243 354.93H239.103C242.317 354.842 244.947 354.255 247.08 353.2C249.301 352.086 250.499 350.679 250.616 349.037V355.838H218.357C221.396 355.633 223.12 355.252 223.588 353.581V299.729C223.062 298.088 221.309 297.15 218.328 296.886H250.586V303.687C250.47 302.045 249.272 300.638 247.08 299.524C244.947 298.469 242.288 297.882 239.074 297.795H231.331L231.243 330.598L234.808 330.51C237.876 330.393 239.951 329.895 241.032 329.044C242.054 328.194 242.58 326.758 242.58 324.706V324.559C242.609 326.641 242.639 328.781 242.639 330.862C242.639 332.943 242.639 335.083 242.58 337.165V337.018C242.58 334.966 242.054 333.559 241.002 332.767C239.951 331.947 237.876 331.478 234.866 331.39H234.896ZM285.299 355.809V349.008C285.211 350.65 284.043 352.057 281.822 353.171C279.689 354.226 277.001 354.812 273.845 354.9H265.985V347.747C266.014 331.595 266.043 315.501 266.102 299.466C266.599 297.912 268.352 297.062 271.332 296.886H253.099C256.05 297.062 257.804 297.912 258.33 299.466V353.581C257.833 355.223 256.109 355.604 253.07 355.809H285.328H285.299ZM320.07 355.809V349.008C319.983 350.65 318.814 352.057 316.593 353.171C314.46 354.226 311.772 354.812 308.587 354.9H300.727V347.747C300.756 331.595 300.785 315.501 300.844 299.466C301.341 297.912 303.094 297.062 306.074 296.886H287.841C290.792 297.062 292.546 297.912 293.071 299.466V353.581C292.575 355.223 290.851 355.604 287.812 355.809H320.07ZM339.063 331.39C342.102 331.478 344.147 331.947 345.199 332.767C346.251 333.588 346.777 334.966 346.777 337.018V337.165C346.806 335.083 346.835 332.943 346.835 330.862C346.835 328.781 346.835 326.641 346.777 324.559V324.706C346.777 326.758 346.251 328.194 345.228 329.044C344.147 329.924 342.073 330.393 339.004 330.51L335.44 330.598L335.527 297.795H343.271C346.455 297.882 349.114 298.469 351.277 299.524C353.497 300.638 354.666 302.045 354.783 303.687V296.886H322.525C325.505 297.15 327.258 298.058 327.784 299.729V353.581C327.287 355.223 325.593 355.633 322.554 355.838H354.812V349.037C354.695 350.679 353.497 352.086 351.277 353.2C349.144 354.255 346.514 354.842 343.3 354.93H335.44V331.419H339.092L339.063 331.39ZM370.036 297.795H376.142C378.451 297.795 383.184 298.146 383.009 300.081V328.253C383.009 328.81 382.658 329.279 381.957 329.748C381.256 330.217 377.282 331.214 370.036 332.767V297.765V297.795ZM379.094 331.624L379.386 331.566C380.759 331.624 381.869 332.005 382.629 332.738C383.418 333.471 383.798 334.292 383.798 335.171L383.593 353.552C383.067 355.164 381.314 355.604 378.275 355.809H396.479C393.44 355.633 391.716 355.193 391.249 353.552L391.453 339.51C391.453 337.077 390.372 335.025 387.45 333.236C385.814 332.24 383.856 331.566 381.548 331.155C383.769 330.686 385.463 330.217 386.632 329.689C389.554 328.399 390.635 326.875 390.635 325.116V303.218C390.635 301.43 389.554 299.935 386.632 298.674C383.593 297.384 379.824 296.886 376.113 296.886H357.15C360.101 297.062 361.854 297.912 362.38 299.495V353.581C361.883 355.223 360.101 355.662 357.15 355.838H375.353C372.256 355.662 370.532 355.252 370.065 353.581V353.229H370.036V333.676L379.094 331.624ZM411.761 322.83L399.255 299.466C398.466 298.088 396.45 297.384 394.054 296.886H411.147C410.125 296.974 409.19 297.238 408.43 297.736C407.699 298.146 407.349 298.674 407.349 299.29V299.495L418.803 321.012L429.76 299.466C429.76 299.466 429.76 299.348 429.76 299.26C429.76 298.762 429.117 297.15 426.955 296.886H438C437.737 296.886 437.474 296.944 437.211 296.974C434.727 297.384 432.302 298.469 431.338 299.436L419.533 322.683L419.446 353.493C419.972 355.106 421.725 355.575 424.676 355.78H406.531C409.482 355.575 411.293 355.076 411.761 353.464V322.8V322.83Z" fill="#FCD6AB"/>
<path fill-rule="evenodd" clip-rule="evenodd" d="M108.182 152.166C106.809 152.928 105.26 153.28 103.741 153.192C101.724 153.075 99.7667 152.225 98.2765 150.671L94.3027 146.508C93.3969 145.57 92.5495 144.632 91.8482 143.577C91.1178 142.492 90.5334 141.32 90.1827 139.942C89.8029 138.476 89.8321 137.421 89.8613 136.248C89.8613 135.926 89.8613 135.603 89.8613 135.075V124.287V123.115C89.8321 121.913 89.8029 120.887 90.1827 119.421C90.5334 118.043 91.1178 116.871 91.8482 115.815C92.5495 114.76 93.3969 113.822 94.3027 112.884L98.2765 108.721C99.7959 107.138 101.783 106.288 103.828 106.2C105.523 106.112 107.247 106.581 108.737 107.578C108.971 104.734 109.643 102.008 110.724 99.4283C112.01 96.3795 113.85 93.5946 116.276 91.1614L181.172 25.9354C183.393 23.7074 185.993 21.9192 188.828 20.6294C191.224 19.5447 193.766 18.8118 196.366 18.4894C195.606 17.1116 195.256 15.5579 195.344 14.0335C195.46 12.0107 196.279 10.0173 197.856 8.52224L201.976 4.53539C202.911 3.62662 203.846 2.77649 204.898 2.04361C205.979 1.31073 207.119 0.724431 208.492 0.343335C209.953 -0.0377611 210.976 -0.00844608 212.174 0.020869C212.495 0.020869 212.817 0.020869 213.343 0.020869H224.066H225.235C226.433 -0.00844608 227.456 -0.0670762 228.917 0.343335C230.29 0.695116 231.459 1.28142 232.511 2.04361C233.563 2.77649 234.498 3.62662 235.433 4.53539L239.553 8.52224C241.13 10.0466 241.978 12.0694 242.065 14.1214C242.153 15.8803 241.656 17.6392 240.634 19.1636C243.38 19.3981 246.068 20.0724 248.611 21.157C251.62 22.4469 254.425 24.2937 256.792 26.6976C277.684 47.7165 302.316 70.377 321.835 92.0702C323.909 94.2395 325.575 96.6433 326.802 99.2524C327.971 101.773 328.73 104.47 329.052 107.373C330.454 106.523 332.032 106.171 333.581 106.229C335.626 106.317 337.613 107.167 339.132 108.75L343.106 112.913C344.012 113.851 344.859 114.789 345.561 115.845C346.291 116.929 346.876 118.102 347.226 119.45C347.606 120.916 347.577 121.972 347.548 123.144C347.548 123.467 347.548 123.818 347.548 124.317V135.105V136.277C347.577 137.479 347.635 138.505 347.226 139.971C346.876 141.349 346.291 142.521 345.561 143.606C344.859 144.661 344.012 145.6 343.106 146.538L339.132 150.7C337.613 152.283 335.626 153.133 333.581 153.221C331.857 153.309 330.074 152.811 328.584 151.785C328.35 154.57 327.678 157.267 326.597 159.788C325.312 162.837 323.471 165.622 321.104 167.996C299.482 189.777 277.976 211.822 256.178 233.398C254.016 235.509 251.62 237.209 248.99 238.44C246.478 239.613 243.789 240.375 240.926 240.698C241.744 242.105 242.124 243.688 242.065 245.271C241.978 247.323 241.13 249.316 239.553 250.841L235.433 254.827C234.498 255.736 233.563 256.586 232.511 257.319C231.43 258.052 230.29 258.638 228.917 259.02C227.456 259.401 226.433 259.371 225.235 259.342C224.914 259.342 224.592 259.342 224.066 259.342H213.343H212.174C210.976 259.371 209.953 259.401 208.492 259.02C207.119 258.668 205.95 258.081 204.898 257.319C203.846 256.586 202.911 255.736 201.976 254.827L197.856 250.841C196.279 249.316 195.431 247.293 195.344 245.271C195.256 243.541 195.723 241.812 196.717 240.316C193.912 240.082 191.165 239.408 188.623 238.323C185.584 237.033 182.808 235.157 180.412 232.724L115.604 167.439C113.383 165.211 111.601 162.573 110.315 159.729C109.234 157.326 108.533 154.775 108.211 152.137L108.182 152.166ZM164.196 126.574C182.166 126.633 175.679 129.183 197.038 107.636C201.596 103.063 205.395 99.1351 209.982 94.5913C217.55 87.0866 215.476 88.611 215.505 74.5691C210.07 77.442 206.213 82.9532 201.83 87.3798L169.952 119.48C166.299 123.115 165.978 122.587 164.196 126.574ZM221.203 73.7483C221.349 87.9661 219.303 87.585 225.644 93.6825L249.575 117.75C260.415 128.655 255.389 126.984 274.061 126.867C272.015 123.496 224.914 75.8883 221.232 73.7483H221.203ZM163.319 132.701C164.78 135.72 164.196 134.694 166.562 137.157C174.539 145.394 210.684 182.918 215.68 185.527C215.622 166.091 218.719 173.449 197.009 151.609C175.27 129.74 182.604 132.76 163.319 132.701ZM221.232 185.673C226.404 182.976 259.656 147.886 267.311 140.264C268.597 138.974 269.649 138.124 270.817 136.834C273.155 134.255 272.103 135.896 273.593 132.73C254.98 132.672 261.701 129.74 239.845 151.726C218.222 173.507 221.203 166.208 221.232 185.673ZM218.368 160.11C220.589 158.938 220.648 158.615 222.693 156.534C228.566 150.554 246.887 133.434 248.698 128.685L226.053 106.347C222.693 102.946 221.933 101.422 218.018 99.2817L188.243 128.802L218.368 160.11ZM333.172 114.438L315.845 129.711L333.172 144.984L337.145 140.821C339.951 137.89 339.279 137.89 339.279 135.105V129.711V124.317C339.279 121.532 339.951 121.532 337.145 118.6L333.172 114.438ZM203.496 14.5025L218.661 31.945L233.826 14.5025L229.706 10.5157C226.784 7.70142 226.784 8.34635 224.008 8.34635H218.661H213.313C210.538 8.34635 210.538 7.6721 207.616 10.5157L203.496 14.5025ZM104.179 144.984L121.506 129.711L104.179 114.438L100.205 118.6C97.3999 121.532 98.072 121.532 98.072 124.317V129.711V135.105C98.072 137.89 97.3999 137.89 100.205 140.821L104.179 144.984ZM233.855 244.919L218.69 227.477L203.525 244.919L207.645 248.906C210.567 251.72 210.567 251.075 213.343 251.075H218.69H224.037C226.813 251.075 226.813 251.749 229.735 248.906L233.855 244.919ZM320.432 149.059C320.374 144.192 318.445 139.414 314.676 135.632C312.134 133.053 309.007 131.294 305.764 130.473C307.634 129.975 309.182 129.271 310.439 128.362C312.367 126.955 313.828 125.812 314.763 124.844C316.166 123.437 317.335 121.854 318.416 120.125C320.49 116.49 321.279 112.649 320.87 108.575C320.49 104.441 318.825 100.865 315.845 97.8159L250.919 32.5606C247.383 29.0135 242.65 27.1959 237.858 27.3425C233.037 27.4011 228.274 29.3359 224.505 33.1176C221.875 35.7559 220.092 39.0099 219.303 42.3811C218.339 38.7754 216.498 35.5507 213.752 32.7951L213.255 32.2968C209.486 28.7496 205.103 26.8442 199.96 26.5803C195.168 26.4337 190.435 28.222 186.899 31.7984L122.003 97.0244C118.379 100.66 116.714 105.321 116.772 110.187C116.889 114.877 118.584 119.069 121.857 122.91C122.236 123.379 122.675 123.818 123.113 124.229C125.48 126.603 128.051 128.304 130.827 129.3C127.642 130.326 124.779 132.085 122.295 134.606L121.798 135.105C118.263 138.886 116.393 143.313 116.13 148.472C115.984 153.28 117.766 158.058 121.301 161.606L186.11 226.89C189.733 230.525 194.35 232.196 199.2 232.138C203.876 231.991 208.054 230.32 211.853 227.007C212.32 226.626 212.758 226.187 213.167 225.747C215.447 223.431 217.112 220.939 218.135 218.213C218.602 219.679 219.216 220.939 219.976 221.995C221.378 223.959 222.518 225.395 223.453 226.363C224.855 227.77 226.433 228.942 228.157 230.027C231.78 232.138 235.579 232.929 239.64 232.489C243.731 232.108 247.296 230.408 250.335 227.447L315.172 162.133C318.708 158.586 320.49 153.808 320.344 149L320.432 149.059ZM296.297 130.444C294.485 129.828 292.82 128.831 291.329 127.424L282.388 118.336L294.427 106.229C292.031 109.571 292.001 112.796 294.281 115.991L301.761 123.525C304.449 126.252 308.014 126.398 311.082 124.903C312.104 124.405 313.01 123.789 313.828 122.998C314.617 122.177 316.37 120.447 316.575 116.666C316.517 114.877 315.815 113.001 314.296 111.096C312.952 109.454 311.549 107.9 310.147 106.493L288.261 84.4776C287.326 87.4091 285.69 90.0474 283.411 92.3633C279.729 96.057 274.85 98.0505 270.145 98.1384C265.295 98.2263 260.62 96.5554 257.026 92.9496L224.008 59.7063C221.699 57.3905 220.18 54.5469 219.42 51.5274C218.807 53.4329 217.784 55.0746 216.352 56.5403L208.025 64.8951L205.6 62.374L203.057 59.9116L201.392 58.2406C204.635 60.6737 207.82 60.8203 210.917 58.651L214.687 54.8694C217.17 52.3776 218.193 49.1529 217.784 45.1368C217.55 43.1433 216.907 41.1206 215.797 39.0099C214.979 37.339 213.869 35.8439 212.612 34.5833C212.291 34.2609 211.619 33.6746 210.567 32.7658C209.544 31.8863 207.908 31.388 205.716 31.2414C203.291 31.1535 201.246 32.0036 199.551 33.6746L123.551 110.07C121.886 111.741 121.272 113.734 121.36 116.05C121.36 117.809 121.944 119.45 122.909 120.975C123.347 121.532 123.814 122.118 124.369 122.646C126.093 124.17 128.11 124.991 130.33 125.02C132.609 125.108 134.567 124.493 136.262 122.822L163.085 95.8518C165.277 92.8031 165.131 89.6077 162.647 86.3244L174.744 98.4902L146.635 126.779C145.378 128.04 143.976 128.978 142.398 129.593C143.713 130.209 144.911 131.059 145.992 132.144L154.319 140.499L151.807 142.932L149.352 145.482L147.687 147.153C150.112 143.87 150.258 140.675 148.096 137.567L144.326 133.786C141.843 131.294 138.629 130.268 134.655 130.678C132.697 130.913 130.652 131.558 128.577 132.672C126.912 133.492 125.421 134.606 124.194 135.867C123.873 136.189 123.288 136.864 122.383 137.919C121.506 138.974 121.009 140.616 120.863 142.815C120.775 145.277 121.623 147.329 123.288 149L199.2 225.454C200.866 227.125 202.853 227.74 205.132 227.682C206.856 227.682 208.492 227.095 210.041 226.128C210.596 225.688 211.18 225.19 211.706 224.662C213.226 222.933 214.015 220.91 214.073 218.653C214.161 216.366 213.547 214.373 211.882 212.702L185.058 185.732C182.019 183.504 178.835 183.68 175.591 186.172L187.688 174.006L215.797 202.295C217.024 203.526 217.959 204.933 218.573 206.487C219.187 205.197 220.005 203.966 221.027 202.852L230.056 193.852L242.095 205.959C238.793 203.555 235.549 203.526 232.394 205.813L224.914 213.347C222.225 216.044 222.05 219.649 223.54 222.727C224.037 223.783 224.651 224.692 225.44 225.483C226.228 226.304 227.982 228.033 231.722 228.239C233.504 228.18 235.374 227.477 237.273 225.952C238.91 224.604 240.458 223.196 241.861 221.789L263.746 199.774C260.824 198.836 258.195 197.194 255.915 194.907C252.234 191.214 250.276 186.318 250.188 181.54C250.101 176.673 251.766 171.954 255.36 168.348L288.378 135.105C290.657 132.818 293.433 131.294 296.384 130.502L296.297 130.444ZM269.093 194.233L313.858 149.264C315.523 147.593 316.107 145.57 315.991 143.313C315.903 140.85 315.056 138.769 313.302 137.01C311.549 135.251 309.475 134.372 307.02 134.284C304.77 134.167 302.813 134.782 301.147 136.453L257.055 180.807C255.389 182.478 254.542 184.559 254.63 186.992C254.717 189.455 255.565 191.536 257.318 193.295C259.071 195.054 261.146 195.933 263.6 195.992C265.616 196.021 267.457 195.464 269.093 194.204V194.233ZM282.797 78.9663L238.092 33.9091C236.426 32.2381 234.439 31.6518 232.189 31.7691C229.764 31.857 227.66 32.7072 225.907 34.4661C224.154 36.225 223.277 38.3357 223.219 40.7688C223.102 43.0261 223.716 44.9902 225.381 46.6611L269.473 91.0148C271.139 92.6858 273.213 93.5359 275.609 93.4773C278.035 93.3894 280.138 92.5392 281.892 90.7803C283.645 89.0214 284.521 86.9107 284.58 84.4776C284.609 82.4548 284.054 80.608 282.797 78.9663ZM103.857 151.492C105.435 151.58 107.042 151.081 108.328 149.997C108.474 149.85 108.649 149.792 108.854 149.762C109.321 149.733 109.731 150.085 109.76 150.583C109.935 153.515 110.666 156.387 111.864 159.055C113.062 161.693 114.727 164.156 116.802 166.237L181.61 231.522C183.86 233.809 186.461 235.538 189.266 236.74C192.129 237.942 195.227 238.616 198.412 238.675C198.616 238.675 198.821 238.733 198.967 238.88C199.317 239.203 199.347 239.73 199.054 240.111L198.616 240.61C197.477 241.929 196.951 243.57 197.009 245.183C197.067 246.795 197.74 248.378 198.996 249.609L203.116 253.596C203.992 254.446 204.869 255.238 205.804 255.912C206.71 256.557 207.703 257.055 208.843 257.349C210.07 257.671 210.976 257.642 212.028 257.612H213.255H223.979C224.3 257.612 224.768 257.612 225.206 257.612C226.258 257.642 227.163 257.671 228.391 257.349C229.53 257.055 230.524 256.557 231.43 255.912C232.365 255.267 233.241 254.476 234.118 253.596L238.238 249.609C239.494 248.407 240.166 246.824 240.225 245.183C240.283 243.57 239.757 241.929 238.618 240.61V240.551C238.442 240.404 238.355 240.229 238.325 239.994C238.296 239.525 238.647 239.115 239.114 239.085C239.494 239.085 239.874 239.056 240.254 238.997C243.059 238.704 245.659 238.001 248.114 236.857C250.539 235.714 252.789 234.131 254.834 232.138C276.632 210.562 298.138 188.517 319.731 166.765C321.951 164.537 323.675 161.928 324.873 159.084C326.071 156.212 326.743 153.133 326.802 149.997C326.802 149.792 326.86 149.586 327.006 149.44C327.328 149.088 327.854 149.059 328.204 149.352L328.789 149.85C330.104 150.993 331.711 151.521 333.318 151.463C334.925 151.404 336.503 150.73 337.701 149.469L341.675 145.306C342.522 144.427 343.311 143.547 343.954 142.58C344.567 141.671 345.093 140.675 345.385 139.502C345.707 138.271 345.678 137.333 345.648 136.277V135.046V124.258C345.648 123.906 345.648 123.467 345.648 123.027C345.678 121.972 345.707 121.063 345.385 119.802C345.093 118.659 344.596 117.662 343.954 116.724C343.311 115.786 342.522 114.907 341.675 113.998L337.701 109.835C336.503 108.575 334.925 107.9 333.318 107.842C331.711 107.783 330.104 108.311 328.789 109.425L328.73 109.483C328.73 109.483 328.409 109.718 328.204 109.718C327.737 109.747 327.328 109.395 327.299 108.926C327.299 108.545 327.24 108.164 327.211 107.783C326.919 104.969 326.217 102.33 325.078 99.8973C323.938 97.4642 322.39 95.2069 320.432 93.1842C298.663 73.0154 276.544 49.0943 255.419 27.8409C253.198 25.6129 250.597 23.8833 247.792 22.6814C244.958 21.4795 241.89 20.8053 238.764 20.7173C238.559 20.7173 238.355 20.6587 238.208 20.5121C237.858 20.1896 237.829 19.662 238.121 19.2809L238.618 18.6946C239.757 17.3754 240.283 15.7337 240.225 14.1214C240.166 12.5091 239.494 10.9261 238.238 9.69484L234.118 5.70799C233.241 4.85785 232.365 4.06635 231.43 3.3921C230.524 2.74717 229.53 2.24881 228.391 1.95566C227.163 1.6332 226.258 1.66251 225.177 1.69183H223.979H213.255C212.934 1.69183 212.466 1.69183 212.057 1.69183C211.005 1.66251 210.099 1.6332 208.843 1.95566C207.703 2.24881 206.71 2.74717 205.804 3.3921C204.869 4.03703 203.992 4.82854 203.116 5.70799L198.996 9.69484C197.769 10.8968 197.097 12.4505 197.009 14.0335C196.921 15.6165 197.418 17.2288 198.499 18.548C198.645 18.6946 198.704 18.8705 198.733 19.0757C198.733 19.5447 198.412 19.9551 197.915 19.9844C194.993 20.1603 192.129 20.8932 189.5 22.0951C186.87 23.297 184.445 24.968 182.37 27.0494L117.474 92.2754C115.224 94.5327 113.471 97.171 112.302 99.9853C111.104 102.858 110.432 105.966 110.373 109.19C110.373 109.395 110.315 109.601 110.169 109.747C109.847 110.099 109.321 110.128 108.971 109.835L108.474 109.395C107.159 108.252 105.552 107.724 103.945 107.783C102.338 107.842 100.76 108.516 99.5622 109.776L95.5883 113.939C94.741 114.819 93.952 115.698 93.3092 116.666C92.6956 117.574 92.1697 118.571 91.8775 119.744C91.556 120.975 91.5853 121.884 91.6145 122.939C91.6145 123.379 91.6437 123.818 91.6437 124.17V134.958C91.6437 135.281 91.6437 135.75 91.6437 136.189C91.6145 137.245 91.5853 138.183 91.9067 139.414C92.1989 140.557 92.6956 141.554 93.3384 142.492C93.9813 143.43 94.7702 144.31 95.6176 145.218L99.5914 149.381C100.76 150.612 102.338 151.287 103.916 151.375L103.857 151.492Z" fill="#FCD6AB"/>
</svg>
