<svg width="30" height="26" viewBox="0 0 30 26" fill="none" xmlns="http://www.w3.org/2000/svg">
<path d="M27.5898 2.96186C24.327 -0.299997 19.0192 -0.299997 15.7574 2.96186L14.9997 3.71905L14.2426 2.96186C10.9807 -0.300438 5.67245 -0.300438 2.41059 2.96186C-0.785041 6.15749 -0.805792 11.2229 2.36247 14.7448C5.25213 17.9559 13.7746 24.8933 14.1362 25.1869C14.3816 25.3865 14.677 25.4836 14.9706 25.4836C14.9803 25.4836 14.99 25.4836 14.9993 25.4832C15.3031 25.4973 15.609 25.3931 15.8624 25.1869C16.224 24.8933 24.7473 17.9559 27.6379 14.7444C30.8057 11.2229 30.785 6.15749 27.5898 2.96186ZM25.6688 12.9726C23.4158 15.4755 17.2227 20.6376 14.9993 22.4694C12.7759 20.6381 6.58416 15.4764 4.33159 12.973C2.1214 10.5165 2.10065 7.01799 4.28347 4.83518C5.39827 3.72081 6.86231 3.16319 8.32635 3.16319C9.79039 3.16319 11.2544 3.72037 12.3692 4.83518L14.0346 6.50055C14.2328 6.69878 14.4827 6.81711 14.745 6.85861C15.1706 6.95 15.6324 6.83123 15.9635 6.50099L17.6298 4.83518C19.8599 2.60601 23.4873 2.60645 25.716 4.83518C27.8988 7.01799 27.8781 10.5165 25.6688 12.9726Z" fill="#0D1C39"/>
</svg>
