<svg width="30" height="26" viewBox="0 0 30 26" fill="none" xmlns="http://www.w3.org/2000/svg">
<path d="M27.5898 2.96211C24.327 -0.299753 19.0192 -0.299753 15.7574 2.96211L14.9997 3.71929L14.2426 2.96211C10.9807 -0.300194 5.67245 -0.300194 2.41059 2.96211C-0.785041 6.15774 -0.805792 11.2232 2.36247 14.7451C5.25213 17.9561 13.7746 24.8936 14.1362 25.1872C14.3816 25.3867 14.677 25.4839 14.9706 25.4839C14.9803 25.4839 14.99 25.4839 14.9993 25.4834C15.3031 25.4975 15.609 25.3933 15.8624 25.1872C16.224 24.8936 24.7473 17.9561 27.6379 14.7446C30.8057 11.2232 30.785 6.15774 27.5898 2.96211ZM25.6688 12.9728C23.4158 15.4758 17.2227 20.6379 14.9993 22.4697C12.7759 20.6383 6.58416 15.4766 4.33159 12.9733C2.1214 10.5167 2.10065 7.01824 4.28347 4.83542C5.39827 3.72106 6.86231 3.16343 8.32635 3.16343C9.79039 3.16343 11.2544 3.72062 12.3692 4.83542L14.0346 6.50079C14.2328 6.69903 14.4827 6.81735 14.745 6.85885C15.1706 6.95024 15.6324 6.83148 15.9635 6.50123L17.6298 4.83542C19.8599 2.60625 23.4873 2.60669 25.716 4.83542C27.8988 7.01824 27.8781 10.5167 25.6688 12.9728Z" fill="white"/>
</svg>
