<svg width="32" height="25" viewBox="0 0 32 25" fill="none" xmlns="http://www.w3.org/2000/svg">
<path d="M22.8398 0.299805V0.305664C23.942 0.349725 24.9857 0.754782 25.7568 1.44336L25.7607 1.44141L25.8828 1.56055L26.0029 1.67773L30.0967 5.65723L30.2637 5.82031L30.2568 5.82422C31.4405 7.11695 31.5163 8.93341 30.4414 10.2979L30.4482 10.3027L30.293 10.4775L30.1797 10.6055L30.1787 10.6045L18.9404 23.2344L18.8262 23.3623L18.8213 23.3584C17.0897 25.1448 13.909 25.1452 12.1777 23.3584L12.1738 23.3623L12.0596 23.2344L0.707031 10.4775L0.551758 10.3027L0.557617 10.2979C-0.516807 8.93365 -0.440915 7.11676 0.742188 5.82422L0.736328 5.82031L0.90332 5.65723L4.99707 1.67773L5.11719 1.56055L5.23926 1.44141L5.24219 1.44336C6.0133 0.754473 7.05765 0.349742 8.16016 0.305664V0.299805H22.8398ZM2.88281 9.26855H2.88184L13.1377 20.793L8.46094 9.1709H2.7959L2.88281 9.26855ZM17.8613 20.793L28.1172 9.26855L28.2041 9.1709H22.5391L17.8613 20.793ZM15.5 19.9092L19.8213 9.1709H11.1787L15.5 19.9092ZM22.4951 6.9248H27.9482L23.9785 3.06445C23.6831 2.77738 23.2733 2.59561 22.8311 2.55469L22.6396 2.5459H20.4688L22.4951 6.9248ZM11.3516 6.9248H19.7285L17.7021 2.5459H13.6035L11.3516 6.9248ZM8.36035 2.5459C7.84614 2.54594 7.3591 2.73634 7.02148 3.06445L3.05176 6.9248H8.54004L10.792 2.5459H8.36035Z" fill="#0D1C39" stroke="#0D1C39" stroke-width="0.4"/>
</svg>
