<svg width="24" height="25" viewBox="0 0 24 25" fill="none" xmlns="http://www.w3.org/2000/svg">
<path d="M23.9024 10.5H13V14.5H23.9024C23.9667 13.8449 24 13.1774 24 12.5C24 11.8225 23.9668 11.1551 23.9024 10.5Z" fill="white"/>
<path d="M13 0.5V3.5H20C18.0991 1.83332 15.6723 0.740991 13 0.5Z" fill="white"/>
<path d="M21.5337 5.5H13V8.5H23C22.6521 7.42389 22.1552 6.41554 21.5337 5.5Z" fill="white"/>
<path d="M12 24.5C15.0663 24.5 17.8686 23.3654 20 21.5H4C6.13139 23.3654 8.93373 24.5 12 24.5Z" fill="white"/>
<path d="M2.45761 19.5H21.5424C22.1602 18.5845 22.6542 17.5762 23 16.5H1C1.34591 17.5761 1.83988 18.5845 2.45761 19.5Z" fill="white"/>
<path d="M0 12.9133C0 13.4507 0.033189 13.9803 0.0976453 14.5H11V0.5C4.84102 1.07836 0 6.42434 0 12.9133ZM3.41811 12.0085C2.80577 12.0085 2.30934 11.4974 2.30934 10.867C2.30934 10.2366 2.80577 9.72553 3.41811 9.72553C4.03044 9.72553 4.52687 10.2366 4.52687 10.867C4.52687 11.4974 4.03044 12.0085 3.41811 12.0085ZM7.74666 12.0085C7.13432 12.0085 6.63789 11.4974 6.63789 10.867C6.63789 10.2366 7.13432 9.72553 7.74666 9.72553C8.35899 9.72553 8.85542 10.2366 8.85542 10.867C8.85542 11.4974 8.35899 12.0085 7.74666 12.0085ZM7.74666 7.46652C7.13432 7.46652 6.63789 6.95543 6.63789 6.32503C6.63789 5.69462 7.13432 5.18354 7.74666 5.18354C8.35899 5.18354 8.85542 5.69462 8.85542 6.32503C8.85542 6.95543 8.35899 7.46652 7.74666 7.46652Z" fill="white"/>
</svg>
