<svg width="10" height="17" viewBox="0 0 10 17" fill="none" xmlns="http://www.w3.org/2000/svg">
<path d="M8.75471 17C8.59013 17.0009 8.42699 16.9701 8.27462 16.9095C8.12226 16.8488 7.98368 16.7594 7.86683 16.6463L0.363645 9.32951C0.130732 9.10103 0 8.79195 0 8.46978C0 8.14761 0.130732 7.83854 0.363645 7.61005L7.86683 0.29323C8.10606 0.0934489 8.41379 -0.0109452 8.72852 0.000909459C9.04325 0.0127641 9.3418 0.139994 9.56451 0.357175C9.78722 0.574356 9.91769 0.865492 9.92985 1.1724C9.94201 1.47931 9.83495 1.7794 9.63008 2.01268L3.01477 8.46368L9.63008 14.9147C9.80569 15.0845 9.9257 15.3013 9.97495 15.5377C10.0242 15.774 10.0005 16.0193 9.90679 16.2425C9.81309 16.4657 9.65363 16.6568 9.44856 16.7916C9.24349 16.9265 9.00203 16.999 8.75471 17Z" fill="black"/>
</svg>
