<svg width="20" height="29" viewBox="0 0 20 29" fill="none" xmlns="http://www.w3.org/2000/svg">
<path fill-rule="evenodd" clip-rule="evenodd" d="M6.35023 0.794849C6.53487 0.60606 6.78528 0.5 7.04639 0.5H12.9536C13.2147 0.5 13.4651 0.60606 13.6497 0.794849L15.6188 2.8082C15.979 3.17636 16.005 3.76453 15.679 4.1645L12.2923 8.31999C16.7103 9.37948 20 13.4345 20 18.275C20 23.9222 15.5228 28.5 9.99999 28.5C4.47714 28.5 0 23.9222 0 18.275C0 13.4345 3.28964 9.37948 7.70772 8.31999L4.32099 4.1645C3.99501 3.76453 4.0211 3.17636 4.38117 2.8082L6.35023 0.794849ZM2.9536 18.275C2.9536 14.2959 6.10837 11.0701 9.99999 11.0701C13.8916 11.0701 17.0464 14.2959 17.0464 18.275C17.0464 22.2542 13.8916 25.48 9.99999 25.48C6.10837 25.48 2.9536 22.2542 2.9536 18.275Z" fill="#0D1C39"/>
</svg>
