<svg width="10" height="10" viewBox="0 0 10 10" fill="none" xmlns="http://www.w3.org/2000/svg">
<path fill-rule="evenodd" clip-rule="evenodd" d="M0.332845 8.72425C0.0725119 8.98465 0.072552 9.40671 0.332925 9.66705C0.593299 9.92738 1.01541 9.92738 1.27573 9.66698L4.99923 5.94285L8.72303 9.66665C8.98336 9.92698 9.40549 9.92698 9.66582 9.66665C9.92616 9.40631 9.92616 8.98418 9.66582 8.72385L5.94196 4.99998L9.66556 1.27573C9.92582 1.01535 9.92582 0.593247 9.66542 0.33292C9.40509 0.0725871 8.98296 0.0726269 8.72262 0.333L4.99909 4.05718L1.27528 0.33332C1.01493 0.0729737 0.592819 0.0729737 0.332472 0.33332C0.0721187 0.593674 0.0721187 1.01578 0.332472 1.27613L4.05642 5.00005L0.332845 8.72425Z" fill="black"/>
</svg>
