<svg width="10" height="10" viewBox="0 0 10 10" fill="none" xmlns="http://www.w3.org/2000/svg">
<path fill-rule="evenodd" clip-rule="evenodd" d="M0.328451 8.72425C0.0681174 8.98465 0.0681575 9.40671 0.328531 9.66705C0.588904 9.92738 1.01101 9.92738 1.27134 9.66698L4.99483 5.94285L8.71863 9.66665C8.97896 9.92698 9.4011 9.92698 9.66143 9.66665C9.92176 9.40631 9.92176 8.98418 9.66143 8.72385L5.93756 4.99998L9.66116 1.27573C9.92143 1.01535 9.92143 0.593247 9.66103 0.33292C9.4007 0.0725871 8.97856 0.0726269 8.71823 0.333L4.9947 4.05718L1.27088 0.33332C1.01054 0.0729737 0.588424 0.0729737 0.328077 0.33332C0.0677242 0.593674 0.0677242 1.01578 0.328077 1.27613L4.05203 5.00005L0.328451 8.72425Z" fill="white"/>
</svg>
