<svg width="8" height="14" viewBox="0 0 8 14" fill="none" xmlns="http://www.w3.org/2000/svg">
<path d="M7.00377 14C6.87211 14.0007 6.74159 13.9754 6.6197 13.9254C6.49781 13.8755 6.38695 13.8018 6.29347 13.7087C3.94933 11.3556 2.63506 10.0363 0.290916 7.68312C0.104586 7.49496 0 7.24043 0 6.97511C0 6.7098 0.104586 6.45527 0.290916 6.2671L6.29347 0.241484C6.48485 0.0769579 6.73103 -0.0090137 6.98281 0.000748966C7.2346 0.0105116 7.47344 0.115289 7.65161 0.294144C7.82978 0.472999 7.93416 0.712758 7.94388 0.965509C7.95361 1.21826 7.86796 1.46539 7.70407 1.6575L2.41182 6.97009L7.70407 12.2827C7.84455 12.4225 7.94056 12.6011 7.97996 12.7957C8.01936 12.9904 8.00039 13.1924 7.92543 13.3762C7.85047 13.56 7.7229 13.7174 7.55885 13.8284C7.39479 13.9394 7.20163 13.9992 7.00377 14Z" fill="white"/>
</svg>
