<svg width="8" height="14" viewBox="0 0 8 14" fill="none" xmlns="http://www.w3.org/2000/svg">
<path d="M0.99623 14C1.12789 14.0007 1.25841 13.9754 1.3803 13.9254C1.50219 13.8755 1.61305 13.8018 1.70653 13.7087L7.70908 7.68312C7.89541 7.49496 8 7.24043 8 6.97511C8 6.7098 7.89541 6.45527 7.70908 6.2671L1.70653 0.241484C1.51515 0.0769579 1.26897 -0.0090137 1.01719 0.000748966C0.765403 0.0105116 0.526562 0.115289 0.348392 0.294144C0.170221 0.472999 0.0658447 0.712758 0.0561194 0.965509C0.0463941 1.21826 0.132037 1.46539 0.295933 1.6575L5.58818 6.97009L0.295933 12.2827C0.155451 12.4225 0.0594396 12.6011 0.0200377 12.7957C-0.0193642 12.9904 -0.000386339 13.1924 0.0745711 13.3762C0.149529 13.56 0.277099 13.7174 0.441152 13.8284C0.605205 13.9394 0.798373 13.9992 0.99623 14Z" fill="black"/>
</svg>
