<svg width="59" height="58" viewBox="0 0 59 58" fill="none" xmlns="http://www.w3.org/2000/svg">
<g filter="url(#filter0_d_760_342)">
<rect x="9" y="6.80469" width="41.2611" height="41.2611" rx="20.6306" fill="white" shape-rendering="crispEdges"/>
<g clip-path="url(#clip0_760_342)">
<path fill-rule="evenodd" clip-rule="evenodd" d="M38.2206 23.3221C38.2206 21.8056 36.9913 20.5762 35.4747 20.5762H28.1522C26.6357 20.5762 25.4062 21.8056 25.4062 23.3221V34.3059C25.4062 35.8225 26.6357 37.0518 28.1522 37.0518H35.4747C36.9913 37.0518 38.2206 35.8225 38.2206 34.3059V23.3221ZM36.39 23.3221C36.39 22.8166 35.9802 22.4068 35.4747 22.4068H28.1522C27.6467 22.4068 27.2369 22.8166 27.2369 23.3221V34.3059C27.2369 34.8114 27.6467 35.2212 28.1522 35.2212H35.4747C35.9802 35.2212 36.39 34.8114 36.39 34.3059V23.3221Z" fill="black"/>
<path d="M24.492 18.7457H33.6452C34.1507 18.7457 34.5605 18.3359 34.5605 17.8304C34.5605 17.3248 34.1507 16.915 33.6452 16.915H24.492C22.9755 16.915 21.7461 18.1444 21.7461 19.661V32.4754C21.7461 32.9809 22.1559 33.3907 22.6614 33.3907C23.1669 33.3907 23.5767 32.9809 23.5767 32.4754V19.661C23.5767 19.1555 23.9865 18.7457 24.492 18.7457Z" fill="black"/>
</g>
</g>
<defs>
<filter id="filter0_d_760_342" x="0.987235" y="0.394476" width="57.2872" height="57.2863" filterUnits="userSpaceOnUse" color-interpolation-filters="sRGB">
<feFlood flood-opacity="0" result="BackgroundImageFix"/>
<feColorMatrix in="SourceAlpha" type="matrix" values="0 0 0 0 0 0 0 0 0 0 0 0 0 0 0 0 0 0 127 0" result="hardAlpha"/>
<feOffset dy="1.60255"/>
<feGaussianBlur stdDeviation="4.00638"/>
<feComposite in2="hardAlpha" operator="out"/>
<feColorMatrix type="matrix" values="0 0 0 0 0 0 0 0 0 0 0 0 0 0 0 0 0 0 0.1 0"/>
<feBlend mode="normal" in2="BackgroundImageFix" result="effect1_dropShadow_760_342"/>
<feBlend mode="normal" in="SourceGraphic" in2="effect1_dropShadow_760_342" result="shape"/>
</filter>
<clipPath id="clip0_760_342">
<rect width="21.9675" height="21.9675" fill="white" transform="translate(19 16)"/>
</clipPath>
</defs>
</svg>
