<svg width="64" height="63" viewBox="0 0 64 63" fill="none" xmlns="http://www.w3.org/2000/svg">
<g clip-path="url(#clip0_760_315)">
<path d="M53.9993 0H9.99896C4.79166 0 0.570312 4.22135 0.570312 9.42865V53.429C0.570312 58.6363 4.79166 62.8577 9.99896 62.8577H53.9993C59.2066 62.8577 63.428 58.6363 63.428 53.429V9.42865C63.428 4.22135 59.2066 0 53.9993 0Z" fill="#EBEBEB"/>
<path d="M19.9674 48.0026V30.5694L9.90039 22.835V44.3195C9.90039 46.7749 11.1281 48.0026 13.5835 48.0026" fill="#4285F4"/>
<path d="M19.4766 30.4464L31.999 39.8996L44.5214 30.4464V18.415L31.999 27.8682L19.4766 18.415" fill="#EA4335"/>
<path d="M44.0312 48.0026V30.5694L54.0983 22.835V44.3195C54.0983 46.7749 52.8706 48.0026 50.4152 48.0026" fill="#34A853"/>
<path d="M9.90039 23.0808L19.9674 30.8153V18.7839L16.2844 15.9602C12.9696 13.3821 9.90039 15.9602 9.90039 19.1522" fill="#C5221F"/>
<path d="M54.0983 23.0808L44.0312 30.8153V18.7839L47.7143 15.9602C51.0291 13.3821 54.0983 15.9602 54.0983 19.1522" fill="#FBBC04"/>
</g>
<defs>
<clipPath id="clip0_760_315">
<rect width="62.8577" height="62.8577" fill="white" transform="translate(0.570312)"/>
</clipPath>
</defs>
</svg>
