<svg width="64" height="63" viewBox="0 0 64 63" fill="none" xmlns="http://www.w3.org/2000/svg">
<path d="M49.8179 0H13.8992C6.46019 0 0.429688 6.0305 0.429688 13.4695V49.3882C0.429688 56.8272 6.46019 62.8577 13.8992 62.8577H49.8179C57.2569 62.8577 63.2874 56.8272 63.2874 49.3882V13.4695C63.2874 6.0305 57.2569 0 49.8179 0Z" fill="url(#paint0_radial_760_322)"/>
<path d="M49.8179 0H13.8992C6.46019 0 0.429688 6.0305 0.429688 13.4695V49.3882C0.429688 56.8272 6.46019 62.8577 13.8992 62.8577H49.8179C57.2569 62.8577 63.2874 56.8272 63.2874 49.3882V13.4695C63.2874 6.0305 57.2569 0 49.8179 0Z" fill="url(#paint1_radial_760_322)"/>
<path d="M49.8179 0H13.8992C6.46019 0 0.429688 6.0305 0.429688 13.4695V49.3882C0.429688 56.8272 6.46019 62.8577 13.8992 62.8577H49.8179C57.2569 62.8577 63.2874 56.8272 63.2874 49.3882V13.4695C63.2874 6.0305 57.2569 0 49.8179 0Z" fill="url(#paint2_radial_760_322)"/>
<path d="M47.5746 19.0822C47.5746 20.9419 46.0669 22.4496 44.2072 22.4496C42.3475 22.4496 40.8398 20.9419 40.8398 19.0822C40.8398 17.2225 42.3475 15.7148 44.2072 15.7148C46.0669 15.7148 47.5746 17.2225 47.5746 19.0822Z" fill="white"/>
<path fill-rule="evenodd" clip-rule="evenodd" d="M31.8574 42.6533C38.0565 42.6533 43.082 37.6278 43.082 31.4287C43.082 25.2296 38.0565 20.2041 31.8574 20.2041C25.6583 20.2041 20.6328 25.2296 20.6328 31.4287C20.6328 37.6278 25.6583 42.6533 31.8574 42.6533ZM31.8574 38.1634C35.577 38.1634 38.5921 35.1483 38.5921 31.4287C38.5921 27.7091 35.577 24.6939 31.8574 24.6939C28.1378 24.6939 25.1226 27.7091 25.1226 31.4287C25.1226 35.1483 28.1378 38.1634 31.8574 38.1634Z" fill="white"/>
<path fill-rule="evenodd" clip-rule="evenodd" d="M9.41016 30.5307C9.41016 22.9871 9.41016 19.2152 10.8782 16.334C12.1696 13.7995 14.2302 11.7389 16.7646 10.4476C19.6459 8.97949 23.4178 8.97949 30.9614 8.97949H32.7573C40.3009 8.97949 44.0728 8.97949 46.9539 10.4476C49.4884 11.7389 51.549 13.7995 52.8403 16.334C54.3085 19.2152 54.3085 22.9871 54.3085 30.5307V32.3266C54.3085 39.8702 54.3085 43.6421 52.8403 46.5233C51.549 49.0578 49.4884 51.1184 46.9539 52.4097C44.0728 53.8778 40.3009 53.8778 32.7573 53.8778H30.9614C23.4178 53.8778 19.6459 53.8778 16.7646 52.4097C14.2302 51.1184 12.1696 49.0578 10.8782 46.5233C9.41016 43.6421 9.41016 39.8702 9.41016 32.3266V30.5307ZM30.9614 13.4693H32.7573C36.6033 13.4693 39.2175 13.4728 41.2384 13.6379C43.2069 13.7987 44.2136 14.0902 44.9158 14.448C46.6053 15.309 47.979 16.6827 48.8399 18.3722C49.1977 19.0744 49.4893 20.0811 49.6501 22.0496C49.8151 24.0705 49.8187 26.6847 49.8187 30.5307V32.3266C49.8187 36.1726 49.8151 38.7868 49.6501 40.8077C49.4893 42.7763 49.1977 43.7829 48.8399 44.4851C47.979 46.1746 46.6053 47.5483 44.9158 48.4092C44.2136 48.7671 43.2069 49.0587 41.2384 49.2194C39.2175 49.3844 36.6033 49.388 32.7573 49.388H30.9614C27.1154 49.388 24.5012 49.3844 22.4803 49.2194C20.5117 49.0587 19.5051 48.7671 18.8029 48.4092C17.1133 47.5483 15.7396 46.1746 14.8787 44.4851C14.5209 43.7829 14.2294 42.7763 14.0686 40.8077C13.9035 38.7868 13.9 36.1726 13.9 32.3266V30.5307C13.9 26.6847 13.9035 24.0705 14.0686 22.0496C14.2294 20.0811 14.5209 19.0744 14.8787 18.3722C15.7396 16.6827 17.1133 15.309 18.8029 14.448C19.5051 14.0902 20.5117 13.7987 22.4803 13.6379C24.5012 13.4728 27.1154 13.4693 30.9614 13.4693Z" fill="white"/>
<defs>
<radialGradient id="paint0_radial_760_322" cx="0" cy="0" r="1" gradientUnits="userSpaceOnUse" gradientTransform="translate(22.8789 47.1433) rotate(-55.3758) scale(57.2894)">
<stop stop-color="#B13589"/>
<stop offset="0.79309" stop-color="#C62F94"/>
<stop offset="1" stop-color="#8A3AC8"/>
</radialGradient>
<radialGradient id="paint1_radial_760_322" cx="0" cy="0" r="1" gradientUnits="userSpaceOnUse" gradientTransform="translate(20.6339 65.1026) rotate(-65.1363) scale(50.7221)">
<stop stop-color="#E0E8B7"/>
<stop offset="0.444662" stop-color="#FB8A2E"/>
<stop offset="0.71474" stop-color="#E2425C"/>
<stop offset="1" stop-color="#E2425C" stop-opacity="0"/>
</radialGradient>
<radialGradient id="paint2_radial_760_322" cx="0" cy="0" r="1" gradientUnits="userSpaceOnUse" gradientTransform="translate(-2.93769 2.24492) rotate(-8.1301) scale(87.3068 18.674)">
<stop offset="0.156701" stop-color="#406ADC"/>
<stop offset="0.467799" stop-color="#6A45BE"/>
<stop offset="1" stop-color="#6A45BE" stop-opacity="0"/>
</radialGradient>
</defs>
</svg>
