<svg width="17" height="16" viewBox="0 0 17 16" fill="none" xmlns="http://www.w3.org/2000/svg">
<path d="M0.292786 0.305288C0.480314 0.117817 0.734622 0.0125018 0.999786 0.0125018C1.26495 0.0125018 1.51926 0.117817 1.70679 0.305288L7.99979 6.59829L14.2928 0.305288C14.385 0.209778 14.4954 0.133596 14.6174 0.0811868C14.7394 0.0287778 14.8706 0.00119157 15.0034 3.77567e-05C15.1362 -0.00111606 15.2678 0.0241857 15.3907 0.0744665C15.5136 0.124747 15.6253 0.199001 15.7192 0.292893C15.8131 0.386786 15.8873 0.498438 15.9376 0.621334C15.9879 0.744231 16.0132 0.87591 16.012 1.00869C16.0109 1.14147 15.9833 1.27269 15.9309 1.39469C15.8785 1.5167 15.8023 1.62704 15.7068 1.71929L9.41379 8.01229L15.7068 14.3053C15.8889 14.4939 15.9897 14.7465 15.9875 15.0087C15.9852 15.2709 15.88 15.5217 15.6946 15.7071C15.5092 15.8925 15.2584 15.9977 14.9962 16C14.734 16.0022 14.4814 15.9014 14.2928 15.7193L7.99979 9.42629L1.70679 15.7193C1.51818 15.9014 1.26558 16.0022 1.00339 16C0.741189 15.9977 0.490376 15.8925 0.304968 15.7071C0.11956 15.5217 0.0143908 15.2709 0.0121124 15.0087C0.00983399 14.7465 0.110628 14.4939 0.292786 14.3053L6.58579 8.01229L0.292786 1.71929C0.105315 1.53176 0 1.27745 0 1.01229C0 0.747124 0.105315 0.492816 0.292786 0.305288Z" fill="white"/>
</svg>
