<svg width="64" height="63" viewBox="0 0 64 63" fill="none" xmlns="http://www.w3.org/2000/svg">
<rect x="0.855469" width="62.8577" height="62.8577" rx="12.1715" fill="#EBEBEB"/>
<path fill-rule="evenodd" clip-rule="evenodd" d="M47.5343 24.6505C47.5343 21.8426 45.2581 19.5664 42.4502 19.5664H28.8927C26.0848 19.5664 23.8086 21.8426 23.8086 24.6505V44.9868C23.8086 47.7947 26.0848 50.0709 28.8927 50.0709H42.4502C45.2581 50.0709 47.5343 47.7947 47.5343 44.9868V24.6505ZM44.1449 24.6505C44.1449 23.7145 43.3862 22.9558 42.4502 22.9558H28.8927C27.9567 22.9558 27.198 23.7145 27.198 24.6505V44.9868C27.198 45.9228 27.9567 46.6815 28.8927 46.6815H42.4502C43.3862 46.6815 44.1449 45.9228 44.1449 44.9868V24.6505Z" fill="#8C8C8C"/>
<path d="M22.1153 16.1765H39.0622C39.9982 16.1765 40.7569 15.4177 40.7569 14.4818C40.7569 13.5459 39.9982 12.7871 39.0622 12.7871H22.1153C19.3075 12.7871 17.0312 15.0633 17.0312 17.8712V41.5969C17.0312 42.5329 17.79 43.2916 18.7259 43.2916C19.6619 43.2916 20.4206 42.5329 20.4206 41.5969V17.8712C20.4206 16.9352 21.1794 16.1765 22.1153 16.1765Z" fill="#8C8C8C"/>
</svg>
