<svg width="64" height="63" viewBox="0 0 64 63" fill="none" xmlns="http://www.w3.org/2000/svg">
<g clip-path="url(#clip0_760_311)">
<path d="M54.1419 0H10.1415C4.93424 0 0.712891 4.22135 0.712891 9.42865V53.429C0.712891 58.6363 4.93424 62.8577 10.1415 62.8577H54.1419C59.3492 62.8577 63.5706 58.6363 63.5706 53.429V9.42865C63.5706 4.22135 59.3492 0 54.1419 0Z" fill="#25D366"/>
<path d="M15.8132 48.2478L17.5319 40.2678C15.3228 36.7834 14.461 32.6127 15.1083 28.5381C15.7555 24.4635 17.8673 20.7652 21.0474 18.1369C24.2275 15.5085 28.2574 14.131 32.3809 14.2625C36.5045 14.3941 40.4383 16.0258 43.4444 18.8515C46.4505 21.6772 48.3222 25.5027 48.7083 29.6103C49.0945 33.7178 47.9685 37.8251 45.5418 41.1616C43.115 44.498 39.5542 46.8343 35.5274 47.7321C31.5006 48.6299 27.2846 48.0275 23.6704 46.0379L15.8132 48.2478Z" fill="#25D366" stroke="white" stroke-width="2.52866"/>
<path d="M38.524 33.5162C38.1557 33.2706 37.7874 33.1479 37.4191 33.6389L35.9458 35.6032C35.5775 35.8488 35.332 35.9715 34.8409 35.726C32.9994 34.7439 30.4212 33.6389 28.2114 29.9559C28.0886 29.4648 28.3342 29.2193 28.5797 28.9737L29.6846 27.255C29.9302 27.0094 29.8074 26.7639 29.6846 26.5183L28.2114 22.958C27.8431 21.9759 27.4748 22.0987 27.1065 22.0987H26.1243C25.8788 22.0987 25.3877 22.2214 24.8966 22.7125C22.1957 25.4134 23.3006 29.2193 25.2649 31.6746C25.6332 32.1657 28.0886 36.5854 33.3677 38.918C37.2963 40.6368 38.1557 40.3912 39.2606 40.1457C40.611 40.0229 41.9615 38.918 42.5754 37.8131C42.6981 37.4448 43.312 35.8488 42.8209 35.6032" fill="white"/>
</g>
<defs>
<clipPath id="clip0_760_311">
<rect width="62.8577" height="62.8577" fill="white" transform="translate(0.712891)"/>
</clipPath>
</defs>
</svg>
