<svg width="191" height="12" viewBox="0 0 191 12" fill="none" xmlns="http://www.w3.org/2000/svg">
<g clip-path="url(#clip0_878_199)">
<path d="M177.568 9.25004C176.012 9.25004 174.701 8.08337 174.455 6.58337H123.02L116.795 8.58337C116.549 8.08337 116.222 7.58337 115.812 7.16671C115.566 6.91671 115.321 6.75004 114.993 6.66671H111.881C111.717 6.75004 111.471 6.83337 111.307 7.00004C110.325 7.66671 109.833 9.08337 110.652 10.1667C111.307 11 113.191 11.25 113.601 9.75004C113.601 9.75004 112.372 8.00004 114.42 8.50004C114.42 8.50004 116.877 9.75004 114.911 11.4167C114.911 11.4167 112.536 13.5 107.54 9.41671C107.949 8.58337 108.195 7.58337 108.277 6.66671H106.967C106.721 8.16671 105.41 9.33337 103.854 9.33337C102.134 9.33337 100.824 8.00004 100.742 6.25004L95.0086 12.0834L89.2753 6.25004C89.1934 7.91671 87.801 9.33337 86.1629 9.33337C84.6068 9.33337 83.2963 8.16671 83.0506 6.66671H81.9858C82.0678 7.58337 82.3135 8.50004 82.723 9.41671C77.7268 13.5 75.3516 11.4167 75.3516 11.4167C73.4678 9.83337 75.8431 8.50004 75.8431 8.50004C77.8087 8.00004 76.6621 9.75004 76.6621 9.75004C77.1535 11.25 78.9554 11 79.6106 10.1667C80.4297 9.08337 79.9383 7.58337 78.9554 7.00004C78.7916 6.91671 78.6278 6.75004 78.3821 6.66671H75.3516C75.024 6.83337 74.7783 7.00004 74.5326 7.16671C74.1231 7.58337 73.7136 8.08337 73.5497 8.58337L67.325 6.58337H16.5446C16.2989 8.08337 14.9884 9.25004 13.4322 9.25004C11.7123 9.25004 0 6.00004 0 6.00004C0 6.00004 11.7123 2.83337 13.4322 2.83337C14.9884 2.83337 16.2989 4.00004 16.5446 5.50004H67.5708L73.6317 3.50004V3.41671C73.8774 4.00004 74.2869 4.58337 74.7783 5.00004C74.9421 5.16671 75.1878 5.33337 75.4335 5.41671H78.5459C78.7916 5.33337 79.0373 5.16671 79.2011 5.08337C80.184 4.41671 80.5935 2.91671 79.6925 1.83337C78.9554 1.00004 77.1535 0.833374 76.744 2.33337C76.744 2.33337 77.9726 4.08337 76.0069 3.58337C76.0069 3.58337 73.5497 2.41671 75.3516 0.666707C75.3516 0.666707 77.6449 -1.49996 82.8049 2.41671C82.3135 3.33337 82.0678 4.33337 81.9858 5.33337H83.0506C83.2963 3.83337 84.6068 2.66671 86.1629 2.66671C87.8829 2.66671 89.1934 4.00004 89.2753 5.75004L95.0086 -0.083293L100.742 5.75004C100.824 4.08337 102.216 2.66671 103.854 2.66671C105.41 2.66671 106.721 3.83337 106.967 5.33337H108.277C108.195 4.33337 107.949 3.33337 107.458 2.41671C112.618 -1.49996 114.911 0.666707 114.911 0.666707C116.713 2.33337 114.256 3.58337 114.256 3.58337C112.208 4.00004 113.519 2.33337 113.519 2.33337C113.109 0.833374 111.226 1.00004 110.57 1.83337C109.669 2.91671 110.161 4.33337 111.062 5.08337C111.226 5.25004 111.471 5.33337 111.717 5.41671H114.829C115.075 5.33337 115.321 5.16671 115.485 5.00004C115.976 4.50004 116.386 4.00004 116.631 3.41671V3.50004L122.692 5.50004H174.292C174.537 4.00004 175.848 2.83337 177.404 2.83337C179.124 2.83337 190.836 6.08337 190.836 6.08337C190.836 6.08337 179.37 9.25004 177.568 9.25004ZM95.0905 2.33337L91.4048 6.08337L95.0905 9.83337L98.7762 6.08337L95.0905 2.33337Z" fill="black" fill-opacity="0.6"/>
</g>
<defs>
<clipPath id="clip0_878_199">
<rect width="191" height="12" fill="white" transform="matrix(1 0 0 -1 0 12)"/>
</clipPath>
</defs>
</svg>
