<svg width="191" height="12" viewBox="0 0 191 12" fill="none" xmlns="http://www.w3.org/2000/svg">
<g clip-path="url(#clip0_619_10933)">
<path d="M177.568 9.25016C176.012 9.25016 174.701 8.0835 174.455 6.5835H123.02L116.795 8.5835C116.549 8.0835 116.222 7.5835 115.812 7.16683C115.566 6.91683 115.321 6.75016 114.993 6.66683H111.881C111.717 6.75016 111.471 6.8335 111.307 7.00016C110.325 7.66683 109.833 9.0835 110.652 10.1668C111.307 11.0002 113.191 11.2502 113.601 9.75016C113.601 9.75016 112.372 8.00016 114.42 8.50016C114.42 8.50016 116.877 9.75016 114.911 11.4168C114.911 11.4168 112.536 13.5002 107.54 9.41683C107.949 8.5835 108.195 7.5835 108.277 6.66683H106.967C106.721 8.16683 105.41 9.3335 103.854 9.3335C102.134 9.3335 100.824 8.00016 100.742 6.25016L95.0086 12.0835L89.2753 6.25016C89.1934 7.91683 87.801 9.3335 86.1629 9.3335C84.6068 9.3335 83.2963 8.16683 83.0506 6.66683H81.9858C82.0678 7.5835 82.3135 8.50016 82.723 9.41683C77.7268 13.5002 75.3516 11.4168 75.3516 11.4168C73.4678 9.8335 75.8431 8.50016 75.8431 8.50016C77.8087 8.00016 76.6621 9.75016 76.6621 9.75016C77.1535 11.2502 78.9554 11.0002 79.6106 10.1668C80.4297 9.0835 79.9383 7.5835 78.9554 7.00016C78.7916 6.91683 78.6278 6.75016 78.3821 6.66683H75.3516C75.024 6.8335 74.7783 7.00016 74.5326 7.16683C74.1231 7.5835 73.7136 8.0835 73.5497 8.5835L67.325 6.5835H16.5446C16.2989 8.0835 14.9884 9.25016 13.4322 9.25016C11.7123 9.25016 0 6.00016 0 6.00016C0 6.00016 11.7123 2.8335 13.4322 2.8335C14.9884 2.8335 16.2989 4.00016 16.5446 5.50016H67.5708L73.6317 3.50016V3.41683C73.8774 4.00016 74.2869 4.5835 74.7783 5.00016C74.9421 5.16683 75.1878 5.3335 75.4335 5.41683H78.5459C78.7916 5.3335 79.0373 5.16683 79.2011 5.0835C80.184 4.41683 80.5935 2.91683 79.6925 1.8335C78.9554 1.00016 77.1535 0.833496 76.744 2.3335C76.744 2.3335 77.9726 4.0835 76.0069 3.5835C76.0069 3.5835 73.5497 2.41683 75.3516 0.666829C75.3516 0.666829 77.6449 -1.49984 82.8049 2.41683C82.3135 3.3335 82.0678 4.3335 81.9858 5.3335H83.0506C83.2963 3.8335 84.6068 2.66683 86.1629 2.66683C87.8829 2.66683 89.1934 4.00016 89.2753 5.75016L95.0086 -0.0831709L100.742 5.75016C100.824 4.0835 102.216 2.66683 103.854 2.66683C105.41 2.66683 106.721 3.8335 106.967 5.3335H108.277C108.195 4.3335 107.949 3.3335 107.458 2.41683C112.618 -1.49984 114.911 0.666829 114.911 0.666829C116.713 2.3335 114.256 3.5835 114.256 3.5835C112.208 4.00016 113.519 2.3335 113.519 2.3335C113.109 0.833496 111.226 1.00016 110.57 1.8335C109.669 2.91683 110.161 4.3335 111.062 5.0835C111.226 5.25016 111.471 5.3335 111.717 5.41683H114.829C115.075 5.3335 115.321 5.16683 115.485 5.00016C115.976 4.50016 116.386 4.00016 116.631 3.41683V3.50016L122.692 5.50016H174.292C174.537 4.00016 175.848 2.8335 177.404 2.8335C179.124 2.8335 190.836 6.0835 190.836 6.0835C190.836 6.0835 179.37 9.25016 177.568 9.25016ZM95.0905 2.3335L91.4048 6.0835L95.0905 9.8335L98.7762 6.0835L95.0905 2.3335Z" fill="white" fill-opacity="0.6"/>
</g>
<defs>
<clipPath id="clip0_619_10933">
<rect width="191" height="12" fill="white" transform="matrix(1 0 0 -1 0 12)"/>
</clipPath>
</defs>
</svg>
