<svg width="16" height="10" viewBox="0 0 16 10" fill="none" xmlns="http://www.w3.org/2000/svg">
<path d="M15.0584 1.14577C15.0625 0.924829 14.9974 0.708055 14.8721 0.525447C14.7469 0.34284 14.5675 0.203429 14.359 0.126505C14.1505 0.0495813 13.9231 0.0389479 13.7083 0.0960774C13.4935 0.153207 13.3019 0.275274 13.16 0.445388L7.54975 6.95566L1.9395 0.438219C1.85217 0.319155 1.74096 0.219366 1.61288 0.145147C1.48479 0.070929 1.34263 0.0238934 1.19535 0.00700902C1.04807 -0.00987538 0.898878 0.00375822 0.757186 0.0470491C0.615494 0.0903399 0.48438 0.162348 0.372118 0.258529C0.259855 0.354711 0.168882 0.472977 0.10494 0.605863C0.0409983 0.73875 0.00547709 0.883372 0.000615944 1.0306C-0.0042452 1.17783 0.0216588 1.32447 0.0766963 1.46127C0.131734 1.59807 0.21471 1.72206 0.320384 1.8254L6.72805 9.27621C6.82875 9.39339 6.95381 9.48749 7.09462 9.55202C7.23542 9.61656 7.38863 9.65 7.54368 9.65005C7.69872 9.65009 7.85193 9.61673 7.99274 9.55228C8.13354 9.48782 8.25861 9.39379 8.35931 9.27667L14.7872 1.82946C14.9563 1.64074 15.0524 1.39843 15.0584 1.14577Z" fill="white"/>
</svg>
