<svg width="246" height="219" viewBox="0 0 246 219" fill="none" xmlns="http://www.w3.org/2000/svg">
<path d="M58.612 215.144C58.092 215.144 57.64 215.044 57.256 214.844C56.88 214.636 56.58 214.36 56.356 214.016C56.14 213.672 56.008 213.296 55.96 212.888H56.896C56.976 213.328 57.168 213.668 57.472 213.908C57.776 214.148 58.16 214.268 58.624 214.268C59.048 214.268 59.42 214.144 59.74 213.896C60.068 213.64 60.332 213.252 60.532 212.732C60.732 212.212 60.848 211.556 60.88 210.764C60.88 210.724 60.88 210.692 60.88 210.668C60.88 210.636 60.88 210.6 60.88 210.56C60.768 210.816 60.596 211.052 60.364 211.268C60.14 211.476 59.868 211.648 59.548 211.784C59.236 211.912 58.88 211.976 58.48 211.976C58.016 211.976 57.576 211.864 57.16 211.64C56.744 211.416 56.408 211.104 56.152 210.704C55.896 210.296 55.768 209.82 55.768 209.276C55.768 208.804 55.884 208.352 56.116 207.92C56.348 207.488 56.676 207.136 57.1 206.864C57.524 206.592 58.028 206.456 58.612 206.456C59.22 206.456 59.728 206.568 60.136 206.792C60.552 207.016 60.884 207.32 61.132 207.704C61.38 208.088 61.56 208.52 61.672 209C61.784 209.472 61.84 209.96 61.84 210.464C61.84 211.384 61.712 212.196 61.456 212.9C61.208 213.604 60.844 214.156 60.364 214.556C59.884 214.948 59.3 215.144 58.612 215.144ZM58.684 211.1C59.052 211.1 59.384 211.016 59.68 210.848C59.976 210.68 60.208 210.456 60.376 210.176C60.544 209.888 60.628 209.568 60.628 209.216C60.628 208.848 60.544 208.524 60.376 208.244C60.208 207.956 59.976 207.736 59.68 207.584C59.384 207.424 59.052 207.344 58.684 207.344C58.324 207.344 58 207.424 57.712 207.584C57.432 207.744 57.208 207.964 57.04 208.244C56.872 208.524 56.788 208.852 56.788 209.228C56.788 209.604 56.872 209.932 57.04 210.212C57.208 210.492 57.432 210.712 57.712 210.872C58 211.024 58.324 211.1 58.684 211.1ZM66.6347 215V206.6H71.8307V207.428H67.6427V210.356H71.4707V211.172H67.6427V214.172H71.8307V215H66.6347ZM73.3713 215V208.844H74.2833L74.3433 209.708C74.5353 209.396 74.7913 209.152 75.1113 208.976C75.4393 208.792 75.7913 208.7 76.1673 208.7C76.4793 208.7 76.7593 208.744 77.0073 208.832C77.2553 208.912 77.4713 209.04 77.6553 209.216C77.8473 209.384 78.0033 209.6 78.1233 209.864C78.3313 209.488 78.6153 209.2 78.9753 209C79.3353 208.8 79.7193 208.7 80.1273 208.7C80.5913 208.7 80.9913 208.792 81.3273 208.976C81.6713 209.16 81.9353 209.44 82.1193 209.816C82.3113 210.192 82.4073 210.664 82.4073 211.232V215H81.4113V211.34C81.4113 210.748 81.2873 210.304 81.0393 210.008C80.7913 209.712 80.4433 209.564 79.9953 209.564C79.6993 209.564 79.4273 209.644 79.1793 209.804C78.9393 209.964 78.7473 210.2 78.6033 210.512C78.4593 210.816 78.3873 211.188 78.3873 211.628V215H77.3793V211.34C77.3793 210.748 77.2553 210.304 77.0073 210.008C76.7593 209.712 76.4193 209.564 75.9873 209.564C75.6913 209.564 75.4193 209.644 75.1713 209.804C74.9313 209.964 74.7393 210.2 74.5953 210.512C74.4513 210.816 74.3793 211.188 74.3793 211.628V215H73.3713ZM86.7122 215.144C86.1362 215.144 85.6242 215.012 85.1762 214.748C84.7282 214.484 84.3762 214.112 84.1202 213.632C83.8722 213.144 83.7482 212.576 83.7482 211.928C83.7482 211.272 83.8762 210.704 84.1322 210.224C84.3882 209.744 84.7402 209.372 85.1882 209.108C85.6442 208.836 86.1602 208.7 86.7362 208.7C87.3122 208.7 87.8242 208.836 88.2722 209.108C88.7202 209.372 89.0682 209.744 89.3162 210.224C89.5722 210.704 89.7002 211.272 89.7002 211.928C89.7002 212.576 89.5722 213.144 89.3162 213.632C89.0602 214.112 88.7042 214.484 88.2482 214.748C87.8002 215.012 87.2882 215.144 86.7122 215.144ZM86.7122 214.28C87.0722 214.28 87.4002 214.192 87.6962 214.016C87.9922 213.84 88.2282 213.576 88.4042 213.224C88.5802 212.872 88.6682 212.44 88.6682 211.928C88.6682 211.4 88.5802 210.964 88.4042 210.62C88.2362 210.268 88.0042 210.004 87.7082 209.828C87.4122 209.652 87.0882 209.564 86.7362 209.564C86.3842 209.564 86.0602 209.652 85.7642 209.828C85.4682 210.004 85.2282 210.268 85.0442 210.62C84.8682 210.964 84.7802 211.4 84.7802 211.928C84.7802 212.44 84.8682 212.872 85.0442 213.224C85.2202 213.576 85.4522 213.84 85.7402 214.016C86.0362 214.192 86.3602 214.28 86.7122 214.28ZM93.3145 215C92.9545 215 92.6425 214.944 92.3785 214.832C92.1145 214.72 91.9105 214.532 91.7665 214.268C91.6305 213.996 91.5625 213.632 91.5625 213.176V209.696H90.4825V208.844H91.5625L91.6945 207.344H92.5705V208.844H94.3345V209.696H92.5705V213.176C92.5705 213.552 92.6465 213.808 92.7985 213.944C92.9505 214.072 93.2185 214.136 93.6025 214.136H94.2745V215H93.3145ZM95.78 215V208.844H96.788V215H95.78ZM96.284 207.596C96.084 207.596 95.916 207.532 95.78 207.404C95.652 207.268 95.588 207.1 95.588 206.9C95.588 206.7 95.652 206.54 95.78 206.42C95.916 206.292 96.084 206.228 96.284 206.228C96.476 206.228 96.64 206.292 96.776 206.42C96.912 206.54 96.98 206.7 96.98 206.9C96.98 207.1 96.912 207.268 96.776 207.404C96.64 207.532 96.476 207.596 96.284 207.596ZM101.267 215.144C100.691 215.144 100.179 215.012 99.7308 214.748C99.2828 214.484 98.9308 214.112 98.6748 213.632C98.4268 213.144 98.3028 212.576 98.3028 211.928C98.3028 211.272 98.4308 210.704 98.6868 210.224C98.9428 209.744 99.2948 209.372 99.7428 209.108C100.199 208.836 100.715 208.7 101.291 208.7C101.867 208.7 102.379 208.836 102.827 209.108C103.275 209.372 103.623 209.744 103.871 210.224C104.127 210.704 104.255 211.272 104.255 211.928C104.255 212.576 104.127 213.144 103.871 213.632C103.615 214.112 103.259 214.484 102.803 214.748C102.355 215.012 101.843 215.144 101.267 215.144ZM101.267 214.28C101.627 214.28 101.955 214.192 102.251 214.016C102.547 213.84 102.783 213.576 102.959 213.224C103.135 212.872 103.223 212.44 103.223 211.928C103.223 211.4 103.135 210.964 102.959 210.62C102.791 210.268 102.559 210.004 102.263 209.828C101.967 209.652 101.643 209.564 101.291 209.564C100.939 209.564 100.615 209.652 100.319 209.828C100.023 210.004 99.7828 210.268 99.5988 210.62C99.4228 210.964 99.3348 211.4 99.3348 211.928C99.3348 212.44 99.4228 212.872 99.5988 213.224C99.7748 213.576 100.007 213.84 100.295 214.016C100.591 214.192 100.915 214.28 101.267 214.28ZM105.692 215V208.844H106.604L106.664 209.876C106.848 209.508 107.116 209.22 107.468 209.012C107.82 208.804 108.224 208.7 108.68 208.7C109.152 208.7 109.56 208.792 109.904 208.976C110.248 209.16 110.516 209.44 110.708 209.816C110.9 210.184 110.996 210.652 110.996 211.22V215H109.988V211.328C109.988 210.744 109.852 210.304 109.58 210.008C109.308 209.712 108.932 209.564 108.452 209.564C108.132 209.564 107.836 209.644 107.564 209.804C107.3 209.964 107.088 210.196 106.928 210.5C106.776 210.796 106.7 211.164 106.7 211.604V215H105.692ZM114.874 215.144C114.346 215.144 113.894 215.06 113.518 214.892C113.15 214.724 112.862 214.488 112.654 214.184C112.446 213.88 112.318 213.524 112.27 213.116H113.302C113.342 213.324 113.422 213.52 113.542 213.704C113.67 213.88 113.842 214.024 114.058 214.136C114.282 214.24 114.558 214.292 114.886 214.292C115.166 214.292 115.398 214.252 115.582 214.172C115.774 214.084 115.914 213.968 116.002 213.824C116.098 213.672 116.146 213.508 116.146 213.332C116.146 213.076 116.086 212.88 115.966 212.744C115.854 212.608 115.686 212.504 115.462 212.432C115.246 212.352 114.978 212.288 114.658 212.24C114.354 212.192 114.07 212.128 113.806 212.048C113.55 211.96 113.322 211.848 113.122 211.712C112.93 211.576 112.778 211.408 112.666 211.208C112.562 211 112.51 210.752 112.51 210.464C112.51 210.12 112.598 209.816 112.774 209.552C112.958 209.288 113.214 209.08 113.542 208.928C113.878 208.776 114.274 208.7 114.73 208.7C115.386 208.7 115.914 208.856 116.314 209.168C116.714 209.48 116.95 209.928 117.022 210.512H116.026C115.986 210.216 115.85 209.984 115.618 209.816C115.394 209.64 115.094 209.552 114.718 209.552C114.326 209.552 114.03 209.628 113.83 209.78C113.63 209.932 113.53 210.132 113.53 210.38C113.53 210.556 113.578 210.712 113.674 210.848C113.778 210.976 113.938 211.088 114.154 211.184C114.378 211.272 114.658 211.344 114.994 211.4C115.418 211.464 115.794 211.556 116.122 211.676C116.45 211.796 116.71 211.98 116.902 212.228C117.094 212.468 117.186 212.808 117.178 213.248C117.186 213.632 117.094 213.968 116.902 214.256C116.71 214.544 116.442 214.764 116.098 214.916C115.754 215.068 115.346 215.144 114.874 215.144ZM119.025 215.06C118.833 215.06 118.669 214.996 118.533 214.868C118.405 214.732 118.341 214.568 118.341 214.376C118.341 214.184 118.405 214.024 118.533 213.896C118.669 213.76 118.833 213.692 119.025 213.692C119.233 213.692 119.397 213.76 119.517 213.896C119.645 214.024 119.709 214.184 119.709 214.376C119.709 214.568 119.645 214.732 119.517 214.868C119.397 214.996 119.233 215.06 119.025 215.06ZM128.01 215.144C127.226 215.144 126.53 214.964 125.922 214.604C125.322 214.236 124.854 213.728 124.518 213.08C124.182 212.424 124.014 211.664 124.014 210.8C124.014 209.944 124.182 209.192 124.518 208.544C124.854 207.888 125.322 207.376 125.922 207.008C126.53 206.64 127.226 206.456 128.01 206.456C128.818 206.456 129.522 206.64 130.122 207.008C130.722 207.376 131.186 207.888 131.514 208.544C131.85 209.192 132.018 209.944 132.018 210.8C132.018 211.664 131.85 212.424 131.514 213.08C131.186 213.728 130.722 214.236 130.122 214.604C129.522 214.964 128.818 215.144 128.01 215.144ZM128.022 214.256C128.614 214.256 129.13 214.12 129.57 213.848C130.018 213.568 130.366 213.172 130.614 212.66C130.862 212.14 130.986 211.52 130.986 210.8C130.986 210.08 130.862 209.464 130.614 208.952C130.366 208.432 130.018 208.036 129.57 207.764C129.13 207.492 128.614 207.356 128.022 207.356C127.43 207.356 126.91 207.492 126.462 207.764C126.014 208.036 125.666 208.432 125.418 208.952C125.17 209.464 125.046 210.08 125.046 210.8C125.046 211.52 125.17 212.14 125.418 212.66C125.666 213.172 126.014 213.568 126.462 213.848C126.91 214.12 127.43 214.256 128.022 214.256ZM133.43 215V208.844H134.342L134.402 209.876C134.586 209.508 134.854 209.22 135.206 209.012C135.558 208.804 135.962 208.7 136.418 208.7C136.89 208.7 137.298 208.792 137.642 208.976C137.986 209.16 138.254 209.44 138.446 209.816C138.638 210.184 138.734 210.652 138.734 211.22V215H137.726V211.328C137.726 210.744 137.59 210.304 137.318 210.008C137.046 209.712 136.67 209.564 136.19 209.564C135.87 209.564 135.574 209.644 135.302 209.804C135.038 209.964 134.826 210.196 134.666 210.5C134.514 210.796 134.438 211.164 134.438 211.604V215H133.43ZM142.972 215.144C142.412 215.144 141.912 215.012 141.472 214.748C141.04 214.476 140.7 214.1 140.452 213.62C140.204 213.132 140.08 212.568 140.08 211.928C140.08 211.28 140.204 210.716 140.452 210.236C140.7 209.748 141.04 209.372 141.472 209.108C141.912 208.836 142.42 208.7 142.996 208.7C143.596 208.7 144.1 208.836 144.508 209.108C144.924 209.372 145.24 209.724 145.456 210.164C145.672 210.604 145.78 211.084 145.78 211.604C145.78 211.684 145.78 211.768 145.78 211.856C145.78 211.944 145.776 212.044 145.768 212.156H140.836V211.376H144.784C144.768 210.792 144.588 210.344 144.244 210.032C143.908 209.712 143.484 209.552 142.972 209.552C142.636 209.552 142.324 209.632 142.036 209.792C141.748 209.952 141.512 210.188 141.328 210.5C141.152 210.804 141.064 211.188 141.064 211.652V211.988C141.064 212.492 141.152 212.916 141.328 213.26C141.512 213.604 141.748 213.864 142.036 214.04C142.324 214.208 142.636 214.292 142.972 214.292C143.412 214.292 143.764 214.204 144.028 214.028C144.292 213.844 144.488 213.588 144.616 213.26H145.612C145.508 213.62 145.336 213.944 145.096 214.232C144.864 214.512 144.568 214.736 144.208 214.904C143.856 215.064 143.444 215.144 142.972 215.144ZM153.088 215.144C152.472 215.144 151.936 215.032 151.48 214.808C151.024 214.584 150.672 214.272 150.424 213.872C150.176 213.472 150.052 213.008 150.052 212.48H151.108C151.108 212.808 151.184 213.112 151.336 213.392C151.488 213.664 151.708 213.884 151.996 214.052C152.292 214.212 152.656 214.292 153.088 214.292C153.464 214.292 153.784 214.232 154.048 214.112C154.32 213.984 154.524 213.812 154.66 213.596C154.804 213.38 154.876 213.136 154.876 212.864C154.876 212.544 154.808 212.284 154.672 212.084C154.536 211.876 154.348 211.708 154.108 211.58C153.876 211.452 153.604 211.34 153.292 211.244C152.98 211.14 152.652 211.028 152.308 210.908C151.628 210.684 151.128 210.404 150.808 210.068C150.496 209.732 150.34 209.296 150.34 208.76C150.34 208.304 150.444 207.904 150.652 207.56C150.868 207.216 151.172 206.948 151.564 206.756C151.964 206.556 152.436 206.456 152.98 206.456C153.516 206.456 153.98 206.556 154.372 206.756C154.772 206.956 155.084 207.232 155.308 207.584C155.532 207.928 155.644 208.328 155.644 208.784H154.588C154.588 208.552 154.528 208.324 154.408 208.1C154.288 207.876 154.104 207.692 153.856 207.548C153.616 207.396 153.312 207.32 152.944 207.32C152.64 207.312 152.368 207.364 152.128 207.476C151.896 207.58 151.712 207.732 151.576 207.932C151.448 208.132 151.384 208.376 151.384 208.664C151.384 208.936 151.44 209.156 151.552 209.324C151.672 209.492 151.84 209.636 152.056 209.756C152.28 209.868 152.54 209.972 152.836 210.068C153.132 210.164 153.46 210.272 153.82 210.392C154.228 210.528 154.588 210.696 154.9 210.896C155.22 211.088 155.468 211.336 155.644 211.64C155.828 211.944 155.92 212.332 155.92 212.804C155.92 213.204 155.812 213.584 155.596 213.944C155.388 214.296 155.076 214.584 154.66 214.808C154.244 215.032 153.72 215.144 153.088 215.144ZM157.324 217.64V208.844H158.236L158.332 209.828C158.46 209.628 158.62 209.444 158.812 209.276C159.012 209.108 159.252 208.972 159.532 208.868C159.812 208.756 160.132 208.7 160.492 208.7C161.068 208.7 161.572 208.844 162.004 209.132C162.436 209.412 162.772 209.796 163.012 210.284C163.26 210.764 163.384 211.316 163.384 211.94C163.384 212.556 163.26 213.108 163.012 213.596C162.772 214.076 162.432 214.456 161.992 214.736C161.56 215.008 161.056 215.144 160.48 215.144C159.992 215.144 159.56 215.044 159.184 214.844C158.816 214.644 158.532 214.364 158.332 214.004V217.64H157.324ZM160.36 214.268C160.752 214.268 161.096 214.172 161.392 213.98C161.688 213.788 161.92 213.516 162.088 213.164C162.264 212.812 162.352 212.4 162.352 211.928C162.352 211.448 162.264 211.036 162.088 210.692C161.92 210.34 161.688 210.068 161.392 209.876C161.096 209.676 160.752 209.576 160.36 209.576C159.96 209.576 159.608 209.676 159.304 209.876C159.008 210.068 158.776 210.34 158.608 210.692C158.448 211.036 158.368 211.448 158.368 211.928C158.368 212.4 158.448 212.812 158.608 213.164C158.776 213.516 159.008 213.788 159.304 213.98C159.608 214.172 159.96 214.268 160.36 214.268ZM166.804 215.144C166.316 215.144 165.908 215.056 165.58 214.88C165.26 214.704 165.02 214.472 164.86 214.184C164.7 213.896 164.62 213.58 164.62 213.236C164.62 212.828 164.724 212.48 164.932 212.192C165.148 211.904 165.448 211.688 165.832 211.544C166.216 211.392 166.668 211.316 167.188 211.316H168.772C168.772 210.924 168.72 210.6 168.616 210.344C168.512 210.08 168.348 209.884 168.124 209.756C167.908 209.62 167.632 209.552 167.296 209.552C166.92 209.552 166.596 209.648 166.324 209.84C166.052 210.024 165.884 210.3 165.82 210.668H164.788C164.836 210.244 164.98 209.888 165.22 209.6C165.46 209.304 165.764 209.08 166.132 208.928C166.5 208.776 166.888 208.7 167.296 208.7C167.856 208.7 168.32 208.804 168.688 209.012C169.056 209.212 169.328 209.496 169.504 209.864C169.688 210.224 169.78 210.652 169.78 211.148V215H168.88L168.82 213.92C168.74 214.088 168.636 214.248 168.508 214.4C168.388 214.544 168.244 214.672 168.076 214.784C167.916 214.896 167.728 214.984 167.512 215.048C167.296 215.112 167.06 215.144 166.804 215.144ZM166.948 214.292C167.22 214.292 167.468 214.232 167.692 214.112C167.924 213.992 168.12 213.832 168.28 213.632C168.44 213.432 168.56 213.208 168.64 212.96C168.728 212.704 168.772 212.44 168.772 212.168V212.096H167.272C166.888 212.096 166.576 212.144 166.336 212.24C166.104 212.328 165.936 212.456 165.832 212.624C165.728 212.792 165.676 212.98 165.676 213.188C165.676 213.412 165.724 213.608 165.82 213.776C165.916 213.936 166.06 214.064 166.252 214.16C166.444 214.248 166.676 214.292 166.948 214.292ZM171.387 215V208.844H172.299L172.383 209.996C172.519 209.716 172.695 209.48 172.911 209.288C173.135 209.096 173.403 208.952 173.715 208.856C174.027 208.752 174.379 208.7 174.771 208.7V209.756H174.303C174.055 209.756 173.815 209.792 173.583 209.864C173.359 209.928 173.155 210.036 172.971 210.188C172.795 210.332 172.655 210.532 172.551 210.788C172.447 211.044 172.395 211.364 172.395 211.748V215H171.387ZM179.642 215L176.762 211.652L179.426 208.844H180.662L177.614 212.012L177.626 211.292L180.926 215H179.642ZM175.922 215V206.36H176.93V215H175.922ZM181.981 215V206.36H182.989V215H181.981ZM187.304 215.144C186.744 215.144 186.244 215.012 185.804 214.748C185.372 214.476 185.032 214.1 184.784 213.62C184.536 213.132 184.412 212.568 184.412 211.928C184.412 211.28 184.536 210.716 184.784 210.236C185.032 209.748 185.372 209.372 185.804 209.108C186.244 208.836 186.752 208.7 187.328 208.7C187.928 208.7 188.432 208.836 188.84 209.108C189.256 209.372 189.572 209.724 189.788 210.164C190.004 210.604 190.112 211.084 190.112 211.604C190.112 211.684 190.112 211.768 190.112 211.856C190.112 211.944 190.108 212.044 190.1 212.156H185.168V211.376H189.116C189.1 210.792 188.92 210.344 188.576 210.032C188.24 209.712 187.816 209.552 187.304 209.552C186.968 209.552 186.656 209.632 186.368 209.792C186.08 209.952 185.844 210.188 185.66 210.5C185.484 210.804 185.396 211.188 185.396 211.652V211.988C185.396 212.492 185.484 212.916 185.66 213.26C185.844 213.604 186.08 213.864 186.368 214.04C186.656 214.208 186.968 214.292 187.304 214.292C187.744 214.292 188.096 214.204 188.36 214.028C188.624 213.844 188.82 213.588 188.948 213.26H189.944C189.84 213.62 189.668 213.944 189.428 214.232C189.196 214.512 188.9 214.736 188.54 214.904C188.188 215.064 187.776 215.144 187.304 215.144Z" fill="#FCD6AB"/>
<path fill-rule="evenodd" clip-rule="evenodd" d="M2.34683 191.607C3.7909 192.427 5.54675 192.886 7.68003 192.984C7.92618 192.984 8.20515 192.984 8.45129 192.984C10.601 192.984 12.4389 192.607 13.9486 191.869C15.4583 191.115 16.2132 190.212 16.2132 189.179V178.961H8.94359C10.6666 179.108 11.6676 179.65 11.9138 180.601V190.344C11.9138 190.951 11.5035 191.41 10.7979 191.82C10.1087 192.214 9.27179 192.443 8.2872 192.476C7.97541 192.476 7.64721 192.476 7.35183 192.443C6.59698 192.345 5.94059 192.148 5.41547 191.836C4.70985 191.443 4.2996 190.967 4.2996 190.36V162.772C4.31601 162.165 4.69344 161.64 5.44829 161.214C6.15392 160.836 6.7939 160.64 7.36824 160.607C7.959 160.574 8.33643 160.558 8.53334 160.558C9.2882 160.558 10.0595 160.623 10.7979 160.771C11.7497 160.951 12.5538 161.197 13.2101 161.509C14.5393 162.165 15.1793 162.936 15.1793 163.822V165.183C14.9004 166.134 13.8994 166.692 12.1927 166.84H14.7034H16.1803V163.822C16.1803 162.788 15.4419 161.886 13.9322 161.148C12.2912 160.394 10.4369 160 8.35284 160H8.05746C5.87495 160.049 3.98782 160.492 2.36324 161.378C0.886356 162.214 0.000224005 163.412 0.000224005 164.691V188.244C-0.0161858 189.556 0.869946 190.705 2.34683 191.574V191.607ZM33.3943 161.46C31.9174 160.59 29.9154 160.082 27.6672 160.082C25.4191 160.082 23.4007 160.59 21.9566 161.46C20.4797 162.296 19.5772 163.494 19.5772 164.773V176.779C19.5772 178.091 20.4797 179.24 21.9566 180.109C23.4007 180.945 25.4519 181.487 27.6672 181.487C29.0292 181.487 30.3092 181.306 31.4743 180.945V188.9C31.4743 189.409 31.4415 189.95 31.343 190.491C31.2282 191.115 30.8836 191.574 30.3584 191.918C29.1605 192.558 28.1267 192.558 27.6508 192.558C27.1749 192.558 26.7155 192.509 26.256 192.41C24.894 192.132 23.8601 191.443 23.8601 190.475V187.752C24.1391 186.768 25.1073 186.178 26.8303 186.014H19.5936V189.278C19.6428 190.36 20.3813 191.246 21.8581 191.967C22.974 192.509 24.0406 192.82 25.0416 192.919C26.0426 193.017 26.8303 193.066 27.3883 193.066C28.2252 193.066 29.0457 193.001 29.899 192.87C31.6056 192.591 33.0004 192.05 34.0835 191.229C35.1993 190.409 35.7573 189.458 35.7901 188.375V164.806C35.7737 163.526 34.8876 162.329 33.3943 161.493V161.46ZM31.4743 178.944C31.3594 179.469 30.982 179.912 30.3584 180.273C29.6036 180.699 28.7175 180.929 27.6672 180.929C26.617 180.929 25.7309 180.716 24.976 180.273C24.2212 179.846 23.8601 179.322 23.8601 178.715V162.69C23.8601 162.083 24.2704 161.624 24.976 161.23C25.7309 160.804 26.617 160.574 27.6672 160.574C28.7175 160.574 29.6036 160.787 30.3584 161.23C31.0641 161.607 31.4907 162.083 31.4907 162.69V178.944H31.4743ZM50.5754 191.984C52.1835 192.706 53.9886 193.083 56.0234 193.083H56.4501C58.6654 193.034 60.569 192.574 62.1443 191.705C63.6212 190.836 64.5401 189.671 64.5401 188.375V161.542C64.8191 160.623 65.7709 160.213 67.4939 160.098C65.6068 160.098 63.7032 160.098 61.8161 160.098H57.2542C58.9772 160.23 59.929 160.607 60.2079 161.542V190.459C60.2079 191.065 59.7977 191.541 59.0921 191.935C58.3208 192.361 57.4347 192.558 56.4173 192.558C55.3999 192.558 54.5301 192.345 53.7261 191.935C53.0204 191.541 52.6102 191.065 52.6102 190.459V180.814C52.6102 179.846 53.644 179.272 55.6624 179.076H48.2452L48.2288 189.261C48.2944 190.327 49.0657 191.213 50.5918 191.984H50.5754ZM76.9952 179.338C78.7018 179.387 79.8505 179.65 80.4413 180.109C81.032 180.568 81.3274 181.339 81.3274 182.487V182.569C81.3438 181.405 81.3602 180.207 81.3602 179.043C81.3602 177.878 81.3602 176.681 81.3274 175.516V175.598C81.3274 176.746 81.032 177.55 80.4577 178.026C79.8505 178.518 78.6854 178.78 76.9624 178.846L74.9604 178.895L75.0096 160.541H79.3582C81.1469 160.59 82.6402 160.919 83.8545 161.509C85.1017 162.132 85.7581 162.92 85.8237 163.838V160.033H67.7072C69.381 160.18 70.3656 160.689 70.661 161.624V191.754C70.3821 192.673 69.4303 192.902 67.7236 193.017H85.8401V189.212C85.7745 190.13 85.1017 190.918 83.8545 191.541C82.6566 192.132 81.1797 192.46 79.3746 192.509H74.9604V179.354H77.0116L76.9952 179.338ZM99.1321 193.001H100.067C101.61 188.228 103.218 183.242 104.876 178.075L105.056 177.468L109.536 193.001H110.488C112.014 188.261 113.606 183.356 115.23 178.239C117.134 172.318 118.955 166.659 120.711 161.263C121.039 160.443 121.909 160.131 123.484 160.016H117.281C118.627 160.115 119.808 160.476 119.808 161.099C119.808 161.148 119.809 161.214 119.792 161.263C117.019 169.612 114.328 177.993 111.751 186.358C110.291 181.027 108.814 175.697 107.337 170.366C108.338 167.217 109.323 164.183 110.274 161.263C110.619 160.443 111.505 160.131 113.08 160.016H97.5896C99.0665 160.148 100.018 160.558 100.412 161.279L104.613 175.877C103.53 179.354 102.43 182.848 101.347 186.342C99.05 177.977 96.7199 169.612 94.324 161.247C94.3076 161.197 94.3076 161.181 94.3076 161.148C94.3076 160.902 94.5537 160.656 95.046 160.459C95.5876 160.23 96.2111 160.066 96.8839 160H87.1693C88.6462 160.131 89.5816 160.541 89.9754 161.263L99.1321 192.968V193.001ZM104.761 161.263C104.761 161.263 104.744 161.197 104.744 161.148C104.744 160.935 104.941 160.722 105.384 160.508C105.86 160.279 106.434 160.115 107.091 160.033C108.371 160.148 109.405 160.492 109.405 161.083C109.405 161.132 109.405 161.197 109.388 161.247C108.551 163.772 107.714 166.282 106.878 168.791C106.172 166.282 105.466 163.772 104.761 161.247V161.263ZM131.919 179.338H129.884L129.868 192.509H134.282C136.087 192.46 137.564 192.132 138.762 191.541C140.009 190.918 140.682 190.13 140.747 189.212V193.017H122.631C124.338 192.902 125.306 192.689 125.568 191.754V161.624C125.273 160.705 124.288 160.18 122.615 160.033H140.731V163.838C140.665 162.92 139.993 162.132 138.762 161.509C137.564 160.919 136.071 160.59 134.266 160.541H129.917L129.868 178.895L131.87 178.846C133.593 178.78 134.758 178.501 135.365 178.026C135.939 177.55 136.235 176.746 136.235 175.598V175.516C136.251 176.681 136.268 177.878 136.268 179.043C136.268 180.207 136.268 181.405 136.235 182.569V182.487C136.235 181.339 135.939 180.552 135.349 180.109C134.758 179.65 133.593 179.387 131.903 179.338H131.919ZM160.226 193.001V189.196C160.177 190.114 159.52 190.901 158.273 191.525C157.075 192.115 155.566 192.443 153.793 192.492H149.379V188.49C149.395 179.453 149.412 170.448 149.445 161.476C149.724 160.607 150.708 160.131 152.382 160.033H142.142C143.8 160.131 144.784 160.607 145.08 161.476V191.754C144.801 192.673 143.833 192.886 142.126 193.001H160.242H160.226ZM179.754 193.001V189.196C179.704 190.114 179.048 190.901 177.801 191.525C176.603 192.115 175.093 192.443 173.305 192.492H168.89V188.49C168.907 179.453 168.923 170.448 168.956 161.476C169.235 160.607 170.22 160.131 171.893 160.033H161.654C163.311 160.131 164.296 160.607 164.591 161.476V191.754C164.312 192.673 163.344 192.886 161.637 193.001H179.754ZM190.42 179.338C192.127 179.387 193.275 179.65 193.866 180.109C194.457 180.568 194.752 181.339 194.752 182.487V182.569C194.769 181.405 194.785 180.207 194.785 179.043C194.785 177.878 194.785 176.681 194.752 175.516V175.598C194.752 176.746 194.457 177.55 193.883 178.026C193.275 178.518 192.11 178.78 190.387 178.846L188.385 178.895L188.434 160.541H192.783C194.572 160.59 196.065 160.919 197.279 161.509C198.527 162.132 199.183 162.92 199.249 163.838V160.033H181.132C182.806 160.18 183.79 160.689 184.086 161.624V191.754C183.807 192.673 182.855 192.902 181.149 193.017H199.265V189.212C199.199 190.13 198.527 190.918 197.279 191.541C196.081 192.132 194.605 192.46 192.799 192.509H188.385V179.354H190.436L190.42 179.338ZM207.814 160.541H211.244C212.541 160.541 215.199 160.738 215.1 161.821V177.583C215.1 177.895 214.904 178.157 214.51 178.419C214.116 178.682 211.884 179.24 207.814 180.109V160.525V160.541ZM212.902 179.469L213.066 179.436C213.837 179.469 214.461 179.682 214.887 180.092C215.33 180.502 215.544 180.962 215.544 181.454L215.429 191.738C215.133 192.64 214.149 192.886 212.442 193.001H222.665C220.959 192.902 219.991 192.656 219.728 191.738L219.843 183.881C219.843 182.52 219.236 181.372 217.595 180.371C216.676 179.814 215.576 179.436 214.28 179.207C215.527 178.944 216.479 178.682 217.135 178.387C218.776 177.665 219.383 176.812 219.383 175.828V163.576C219.383 162.575 218.776 161.739 217.135 161.033C215.429 160.312 213.312 160.033 211.228 160.033H200.578C202.235 160.131 203.22 160.607 203.515 161.493V191.754C203.236 192.673 202.235 192.919 200.578 193.017H210.801C209.062 192.919 208.093 192.689 207.831 191.754V191.557H207.814V180.617L212.902 179.469ZM231.248 174.549L224.224 161.476C223.781 160.705 222.649 160.312 221.303 160.033H230.903C230.329 160.082 229.804 160.23 229.377 160.508C228.967 160.738 228.77 161.033 228.77 161.378V161.493L235.203 173.532L241.356 161.476C241.356 161.476 241.356 161.411 241.356 161.361C241.356 161.083 240.995 160.18 239.781 160.033H245.984C245.836 160.033 245.688 160.066 245.541 160.082C244.146 160.312 242.784 160.919 242.242 161.46L235.613 174.467L235.564 191.705C235.859 192.607 236.844 192.87 238.501 192.984H228.31C229.968 192.87 230.985 192.591 231.248 191.689V174.532V174.549Z" fill="#FCD6AB"/>
<path fill-rule="evenodd" clip-rule="evenodd" d="M60.9462 85.138C60.1749 85.5645 59.3052 85.7613 58.4519 85.7121C57.3196 85.6465 56.2201 85.1708 55.3832 84.3015L53.1515 81.9725C52.6428 81.4476 52.1669 80.9227 51.7731 80.3323C51.3628 79.7254 51.0346 79.0693 50.8377 78.2984C50.6244 77.4783 50.6408 76.8878 50.6572 76.2318C50.6572 76.0513 50.6572 75.8709 50.6572 75.5757V69.5397V68.8837C50.6408 68.2112 50.6244 67.6371 50.8377 66.817C51.0346 66.0461 51.3628 65.39 51.7731 64.7996C52.1669 64.2091 52.6428 63.6842 53.1515 63.1594L55.3832 60.8303C56.2366 59.9446 57.3524 59.4689 58.5011 59.4197C59.4529 59.3705 60.4211 59.6329 61.258 60.1906C61.3892 58.5996 61.7667 57.0742 62.3738 55.6308C63.0959 53.925 64.1297 52.3669 65.4917 51.0055L101.938 14.511C103.185 13.2645 104.646 12.264 106.237 11.5423C107.583 10.9354 109.011 10.5254 110.471 10.3449C110.044 9.57404 109.848 8.70474 109.897 7.85183C109.962 6.72009 110.422 5.60476 111.308 4.76826L113.622 2.53758C114.147 2.02912 114.672 1.55346 115.263 1.14341C115.87 0.733364 116.51 0.405324 117.281 0.192098C118.102 -0.0211276 118.676 -0.00472565 119.349 0.0116764C119.529 0.0116764 119.71 0.0116764 120.005 0.0116764H126.028H126.684C127.357 -0.00472565 127.931 -0.0375296 128.752 0.192098C129.523 0.388922 130.179 0.716962 130.77 1.14341C131.361 1.55346 131.886 2.02912 132.411 2.53758L134.725 4.76826C135.611 5.62116 136.087 6.7529 136.136 7.90104C136.185 8.88516 135.906 9.86928 135.332 10.7222C136.875 10.8534 138.384 11.2306 139.812 11.8375C141.502 12.5592 143.077 13.5925 144.407 14.9375C156.14 26.6977 169.973 39.3765 180.935 51.5139C182.1 52.7277 183.035 54.0727 183.725 55.5324C184.381 56.943 184.808 58.452 184.988 60.0758C185.776 59.6001 186.662 59.4033 187.532 59.4361C188.68 59.4853 189.796 59.961 190.65 60.8467L192.881 63.1758C193.39 63.7006 193.866 64.2255 194.26 64.816C194.67 65.4228 194.998 66.0789 195.195 66.8334C195.408 67.6535 195.392 68.244 195.376 68.9001C195.376 69.0805 195.376 69.2773 195.376 69.5561V75.5921V76.2482C195.392 76.9206 195.425 77.4947 195.195 78.3148C194.998 79.0857 194.67 79.7418 194.26 80.3487C193.866 80.9391 193.39 81.464 192.881 81.9889L190.65 84.3179C189.796 85.2037 188.68 85.6793 187.532 85.7285C186.564 85.7777 185.563 85.4989 184.726 84.9248C184.594 86.483 184.217 87.992 183.61 89.4026C182.888 91.1084 181.854 92.6666 180.525 93.9951C168.381 106.182 156.304 118.516 144.062 130.588C142.848 131.769 141.502 132.72 140.025 133.409C138.614 134.065 137.104 134.492 135.496 134.672C135.956 135.459 136.169 136.345 136.136 137.231C136.087 138.379 135.611 139.494 134.725 140.347L132.411 142.578C131.886 143.086 131.361 143.562 130.77 143.972C130.163 144.382 129.523 144.71 128.752 144.923C127.931 145.137 127.357 145.12 126.684 145.104C126.504 145.104 126.323 145.104 126.028 145.104H120.005H119.349C118.676 145.12 118.102 145.137 117.281 144.923C116.51 144.727 115.854 144.398 115.263 143.972C114.672 143.562 114.147 143.086 113.622 142.578L111.308 140.347C110.422 139.494 109.946 138.363 109.897 137.231C109.848 136.263 110.11 135.295 110.668 134.459C109.093 134.328 107.55 133.95 106.122 133.344C104.416 132.622 102.857 131.572 101.511 130.211L65.1143 93.6835C63.8671 92.4369 62.8661 90.9608 62.1441 89.3698C61.5369 88.0248 61.1431 86.5978 60.9626 85.1216L60.9462 85.138ZM92.4039 70.8191C102.496 70.8519 98.8529 72.2789 110.849 60.2234C113.408 57.6647 115.542 55.4668 118.118 52.9245C122.368 48.7256 121.203 49.5785 121.22 41.722C118.167 43.3294 116.001 46.4129 113.54 48.8896L95.6366 66.8498C93.5854 68.8837 93.4049 68.5884 92.4039 70.8191ZM124.419 41.2627C124.502 49.2177 123.353 49.0044 126.914 52.4161L140.353 65.8821C146.441 71.9836 143.619 71.0487 154.105 70.9831C152.956 69.0969 126.504 42.46 124.436 41.2627H124.419ZM91.9116 74.2471C92.7321 75.9365 92.4039 75.3625 93.7331 76.7402C98.2129 81.3492 118.512 102.344 121.318 103.804C121.285 92.929 123.025 97.0459 110.832 84.8264C98.6232 72.5905 102.742 74.2799 91.9116 74.2471ZM124.436 103.886C127.34 102.377 146.015 82.7434 150.314 78.4788C151.036 77.7571 151.627 77.2815 152.283 76.5598C153.596 75.1164 153.005 76.0349 153.842 74.2635C143.389 74.2307 147.164 72.5905 134.889 84.892C122.746 97.0787 124.419 92.9946 124.436 103.886ZM122.828 89.583C124.075 88.9269 124.108 88.7465 125.256 87.5819C128.555 84.2359 138.844 74.6572 139.861 72L127.144 59.5017C125.256 57.5991 124.83 56.7462 122.631 55.5488L105.909 72.0657L122.828 89.583ZM187.302 64.0287L177.571 72.5741L187.302 81.1196L189.534 78.7905C191.109 77.1503 190.732 77.1503 190.732 75.5921V72.5741V69.5561C190.732 67.998 191.109 67.998 189.534 66.3578L187.302 64.0287ZM114.475 8.11426L122.992 17.8735L131.509 8.11426L129.195 5.88359C127.554 4.309 127.554 4.66984 125.995 4.66984H122.992H119.989C118.43 4.66984 118.43 4.2926 116.789 5.88359L114.475 8.11426ZM58.698 81.1196L68.4291 72.5741L58.698 64.0287L56.4663 66.3578C54.8909 67.998 55.2684 67.998 55.2684 69.5561V72.5741V75.5921C55.2684 77.1503 54.8909 77.1503 56.4663 78.7905L58.698 81.1196ZM131.525 137.034L123.008 127.275L114.492 137.034L116.805 139.265C118.446 140.839 118.446 140.478 120.005 140.478H123.008H126.011C127.57 140.478 127.57 140.856 129.211 139.265L131.525 137.034ZM180.147 83.3994C180.114 80.6767 179.031 78.0032 176.915 75.8873C175.487 74.4439 173.731 73.4598 171.91 73.0006C172.96 72.7217 173.83 72.3281 174.535 71.8196C175.618 71.0323 176.439 70.3927 176.964 69.8514C177.751 69.0641 178.408 68.1784 179.015 67.2107C180.18 65.1768 180.623 63.0281 180.393 60.7483C180.18 58.4356 179.245 56.4345 177.571 54.7287L141.108 18.2179C139.123 16.2333 136.464 15.2163 133.773 15.2983C131.065 15.3311 128.391 16.4137 126.274 18.5295C124.797 20.0057 123.796 21.8263 123.353 23.7126C122.811 21.6951 121.777 19.8909 120.235 18.3491L119.956 18.0703C117.839 16.0856 115.378 15.0195 112.49 14.8719C109.798 14.7899 107.14 15.7904 105.154 17.7914L68.708 54.2859C66.6732 56.3197 65.7379 58.9277 65.7707 61.6504C65.8363 64.2747 66.7881 66.6202 68.626 68.7689C68.8393 69.0313 69.0855 69.2773 69.3316 69.5069C70.6608 70.8355 72.1049 71.7868 73.6638 72.3445C71.8751 72.9186 70.267 73.9027 68.8721 75.3132L68.5932 75.5921C66.6076 77.7079 65.5573 80.1846 65.4097 83.0714C65.3276 85.7613 66.3286 88.4348 68.3142 90.4195L104.711 126.947C106.746 128.981 109.339 129.916 112.063 129.883C114.688 129.801 117.035 128.866 119.168 127.012C119.431 126.799 119.677 126.553 119.907 126.307C121.187 125.011 122.122 123.617 122.696 122.092C122.959 122.912 123.304 123.617 123.73 124.208C124.518 125.307 125.158 126.11 125.683 126.652C126.471 127.439 127.357 128.095 128.325 128.702C130.36 129.883 132.493 130.326 134.774 130.08C137.071 129.866 139.073 128.915 140.78 127.258L177.194 90.7147C179.179 88.7301 180.18 86.0566 180.098 83.3666L180.147 83.3994ZM166.593 72.9842C165.575 72.6397 164.64 72.0821 163.803 71.2948L158.782 66.2101L165.543 59.4361C164.197 61.3059 164.181 63.1102 165.46 64.898L169.661 69.1133C171.171 70.6387 173.173 70.7207 174.896 69.8842C175.47 69.6054 175.979 69.2609 176.439 68.8181C176.882 68.3588 177.866 67.3911 177.981 65.2752C177.948 64.2747 177.555 63.225 176.701 62.1588C175.946 61.2403 175.159 60.371 174.371 59.5837L162.08 47.2658C161.555 48.906 160.636 50.3822 159.356 51.678C157.288 53.7446 154.548 54.86 151.906 54.9092C149.182 54.9584 146.556 54.0235 144.538 52.006L125.995 33.4061C124.698 32.1104 123.845 30.5194 123.418 28.83C123.074 29.8961 122.5 30.8146 121.695 31.6347L117.019 36.3093L115.657 34.8987L114.229 33.521L113.294 32.586C115.115 33.9474 116.904 34.0294 118.643 32.8157L120.76 30.6998C122.155 29.3056 122.729 27.5014 122.5 25.2544C122.368 24.139 122.007 23.0073 121.384 21.8263C120.924 20.8914 120.301 20.0549 119.595 19.3496C119.414 19.1692 119.037 18.8412 118.446 18.3327C117.872 17.8406 116.953 17.5618 115.722 17.4798C114.36 17.4306 113.212 17.9063 112.26 18.8412L69.5778 61.5848C68.6424 62.5197 68.2978 63.635 68.347 64.9308C68.347 65.9149 68.6752 66.8334 69.2167 67.6863C69.4629 67.998 69.7254 68.326 70.0372 68.6212C71.0054 69.4741 72.1377 69.9334 73.3848 69.9498C74.6648 69.999 75.7643 69.6546 76.716 68.7196L91.7803 53.6298C93.011 51.924 92.929 50.1362 91.5341 48.2992L98.3278 55.106L82.5415 70.9339C81.8359 71.6392 81.0482 72.1641 80.1621 72.5085C80.9006 72.8529 81.5734 73.3286 82.1805 73.9355L86.8573 78.6101L85.4461 79.9714L84.0677 81.3984L83.1323 82.3333C84.4943 80.4963 84.5764 78.7085 83.362 76.9699L81.2452 74.854C79.8503 73.4598 78.0452 72.8858 75.8135 73.1154C74.714 73.2466 73.5654 73.6074 72.4003 74.2307C71.4649 74.69 70.628 75.3132 69.9388 76.0185C69.7583 76.199 69.4301 76.5762 68.9214 77.1667C68.4291 77.7571 68.1501 78.6757 68.0681 79.9058C68.0188 81.2836 68.4947 82.4317 69.4301 83.3666L112.063 126.143C112.998 127.078 114.114 127.422 115.394 127.39C116.362 127.39 117.281 127.062 118.151 126.52C118.463 126.274 118.791 125.995 119.086 125.7C119.94 124.732 120.383 123.601 120.415 122.338C120.465 121.058 120.12 119.943 119.185 119.008L104.12 103.918C102.414 102.672 100.625 102.77 98.8037 104.164L105.597 97.3575L121.384 113.185C122.073 113.874 122.598 114.662 122.943 115.531C123.287 114.809 123.747 114.12 124.321 113.497L129.392 108.462L136.153 115.236C134.298 113.891 132.477 113.874 130.704 115.154L126.504 119.369C124.994 120.878 124.895 122.895 125.732 124.618C126.011 125.208 126.356 125.717 126.799 126.159C127.242 126.619 128.227 127.586 130.327 127.701C131.328 127.668 132.378 127.275 133.445 126.422C134.364 125.667 135.234 124.88 136.021 124.093L148.312 111.775C146.671 111.25 145.194 110.332 143.914 109.052C141.847 106.986 140.747 104.246 140.698 101.573C140.649 98.8501 141.584 96.2094 143.603 94.1919L162.146 75.5921C163.426 74.3127 164.985 73.4598 166.642 73.017L166.593 72.9842ZM151.315 108.675L176.455 83.5142C177.39 82.5793 177.719 81.4476 177.653 80.1846C177.604 78.8069 177.128 77.6423 176.143 76.6582C175.159 75.6741 173.994 75.182 172.615 75.1328C171.352 75.0672 170.252 75.4117 169.317 76.3466L144.554 101.163C143.619 102.098 143.143 103.262 143.192 104.624C143.242 106.001 143.717 107.166 144.702 108.15C145.687 109.134 146.852 109.626 148.23 109.659C149.362 109.675 150.396 109.364 151.315 108.659V108.675ZM159.011 44.1823L133.904 18.9724C132.969 18.0375 131.853 17.7094 130.59 17.775C129.228 17.8242 128.046 18.2999 127.061 19.284C126.077 20.2681 125.585 21.4491 125.552 22.8105C125.486 24.0734 125.831 25.1723 126.766 26.1073L151.529 50.9235C152.464 51.8584 153.629 52.3341 154.975 52.3012C156.337 52.252 157.518 51.7764 158.503 50.7923C159.487 49.8081 159.98 48.6272 160.012 47.2658C160.029 46.1341 159.717 45.1008 159.011 44.1823ZM58.5175 84.7608C59.4037 84.81 60.3062 84.5312 61.0282 83.9243C61.1103 83.8423 61.2087 83.8095 61.3236 83.7931C61.5862 83.7767 61.8159 83.9735 61.8323 84.2523C61.9308 85.8925 62.341 87.4999 63.0138 88.9925C63.6866 90.4687 64.622 91.8465 65.7871 93.011L102.184 129.538C103.448 130.818 104.908 131.785 106.484 132.458C108.092 133.13 109.831 133.508 111.62 133.54C111.735 133.54 111.85 133.573 111.932 133.655C112.128 133.836 112.145 134.131 111.981 134.344L111.735 134.623C111.095 135.361 110.799 136.279 110.832 137.182C110.865 138.084 111.242 138.969 111.948 139.658L114.262 141.889C114.754 142.365 115.246 142.807 115.771 143.185C116.28 143.546 116.838 143.824 117.478 143.988C118.167 144.169 118.676 144.152 119.267 144.136H119.956H125.978C126.159 144.136 126.421 144.136 126.668 144.136C127.258 144.152 127.767 144.169 128.456 143.988C129.096 143.824 129.654 143.546 130.163 143.185C130.688 142.824 131.18 142.381 131.673 141.889L133.986 139.658C134.692 138.986 135.069 138.1 135.102 137.182C135.135 136.279 134.84 135.361 134.2 134.623V134.59C134.101 134.508 134.052 134.41 134.036 134.278C134.019 134.016 134.216 133.786 134.479 133.77C134.692 133.77 134.905 133.754 135.119 133.721C136.694 133.557 138.155 133.163 139.533 132.523C140.895 131.884 142.159 130.998 143.307 129.883C155.549 117.811 167.627 105.477 179.753 93.3062C181.001 92.0597 181.969 90.5999 182.642 89.0089C183.314 87.4015 183.692 85.6793 183.725 83.9243C183.725 83.8095 183.757 83.6947 183.84 83.6127C184.02 83.4158 184.315 83.3994 184.512 83.5634L184.841 83.8423C185.579 84.482 186.482 84.7772 187.384 84.7444C188.287 84.7116 189.173 84.3343 189.846 83.6291L192.077 81.3C192.553 80.8079 192.996 80.3159 193.357 79.7746C193.702 79.2661 193.997 78.7085 194.161 78.0524C194.342 77.3635 194.325 76.8386 194.309 76.2482V75.5593V69.5233C194.309 69.3265 194.309 69.0805 194.309 68.8345C194.325 68.244 194.342 67.7355 194.161 67.0302C193.997 66.3906 193.718 65.8329 193.357 65.308C192.996 64.7832 192.553 64.2911 192.077 63.7826L189.846 61.4536C189.173 60.7483 188.287 60.371 187.384 60.3382C186.482 60.3054 185.579 60.6007 184.841 61.2239L184.808 61.2567C184.808 61.2567 184.627 61.388 184.512 61.388C184.25 61.4044 184.02 61.2075 184.004 60.9451C184.004 60.7319 183.971 60.5186 183.954 60.3054C183.79 58.7308 183.396 57.2546 182.756 55.8933C182.116 54.5319 181.247 53.269 180.147 52.1372C167.922 40.8527 155.5 27.4686 143.635 15.5772C142.388 14.3306 140.928 13.3629 139.352 12.6904C137.761 12.0179 136.038 11.6407 134.282 11.5915C134.167 11.5915 134.052 11.5587 133.97 11.4767C133.773 11.2963 133.757 11.001 133.921 10.7878L134.2 10.4597C134.84 9.72166 135.135 8.80315 135.102 7.90104C135.069 6.99893 134.692 6.11322 133.986 5.42434L131.673 3.19366C131.18 2.71801 130.688 2.27515 130.163 1.89791C129.654 1.53706 129.096 1.25823 128.456 1.09421C127.767 0.913786 127.258 0.930188 126.651 0.94659H125.978H119.956C119.775 0.94659 119.513 0.94659 119.283 0.94659C118.692 0.930188 118.184 0.913786 117.478 1.09421C116.838 1.25823 116.28 1.53706 115.771 1.89791C115.246 2.25875 114.754 2.7016 114.262 3.19366L111.948 5.42434C111.259 6.09682 110.881 6.96612 110.832 7.85183C110.783 8.73754 111.062 9.63965 111.669 10.3777C111.751 10.4597 111.784 10.5582 111.8 10.673C111.8 10.9354 111.62 11.165 111.341 11.1814C109.7 11.2798 108.092 11.6899 106.615 12.3624C105.138 13.0349 103.776 13.9698 102.611 15.1343L66.1645 51.6288C64.901 52.8917 63.9164 54.3679 63.26 55.9425C62.5872 57.5499 62.2097 59.2885 62.1769 61.0927C62.1769 61.2075 62.1441 61.3223 62.062 61.4044C61.8815 61.6012 61.5862 61.6176 61.3892 61.4536L61.1103 61.2075C60.3718 60.5679 59.4693 60.2726 58.5668 60.3054C57.6642 60.3382 56.7781 60.7155 56.1053 61.4208L53.8735 63.7498C53.3977 64.2419 52.9546 64.734 52.5936 65.2752C52.249 65.7837 51.9536 66.3414 51.7895 66.9974C51.609 67.6863 51.6254 68.1948 51.6418 68.7853C51.6418 69.0313 51.6582 69.2773 51.6582 69.4741V75.5101C51.6582 75.6905 51.6582 75.9529 51.6582 76.199C51.6418 76.7894 51.6254 77.3143 51.8059 78.0032C51.97 78.6429 52.249 79.2005 52.61 79.7254C52.971 80.2503 53.4141 80.7423 53.8899 81.2508L56.1217 83.5799C56.7781 84.2687 57.6642 84.646 58.5503 84.6952L58.5175 84.7608Z" fill="#FCD6AB"/>
</svg>
