<svg width="246" height="219" viewBox="0 0 246 219" fill="none" xmlns="http://www.w3.org/2000/svg">
<path d="M58.612 214.832C58.092 214.832 57.64 214.731 57.256 214.531C56.88 214.323 56.58 214.047 56.356 213.703C56.14 213.359 56.008 212.983 55.96 212.575H56.896C56.976 213.015 57.168 213.355 57.472 213.595C57.776 213.835 58.16 213.955 58.624 213.955C59.048 213.955 59.42 213.831 59.74 213.583C60.068 213.327 60.332 212.939 60.532 212.419C60.732 211.899 60.848 211.243 60.88 210.451C60.88 210.411 60.88 210.379 60.88 210.355C60.88 210.323 60.88 210.287 60.88 210.247C60.768 210.503 60.596 210.739 60.364 210.955C60.14 211.163 59.868 211.335 59.548 211.471C59.236 211.599 58.88 211.663 58.48 211.663C58.016 211.663 57.576 211.551 57.16 211.327C56.744 211.103 56.408 210.791 56.152 210.391C55.896 209.983 55.768 209.507 55.768 208.963C55.768 208.491 55.884 208.039 56.116 207.607C56.348 207.175 56.676 206.823 57.1 206.551C57.524 206.279 58.028 206.143 58.612 206.143C59.22 206.143 59.728 206.255 60.136 206.479C60.552 206.703 60.884 207.007 61.132 207.391C61.38 207.775 61.56 208.207 61.672 208.688C61.784 209.159 61.84 209.647 61.84 210.151C61.84 211.071 61.712 211.883 61.456 212.587C61.208 213.291 60.844 213.843 60.364 214.243C59.884 214.635 59.3 214.832 58.612 214.832ZM58.684 210.787C59.052 210.787 59.384 210.703 59.68 210.535C59.976 210.367 60.208 210.143 60.376 209.863C60.544 209.575 60.628 209.255 60.628 208.903C60.628 208.535 60.544 208.211 60.376 207.931C60.208 207.643 59.976 207.423 59.68 207.271C59.384 207.111 59.052 207.031 58.684 207.031C58.324 207.031 58 207.111 57.712 207.271C57.432 207.431 57.208 207.651 57.04 207.931C56.872 208.211 56.788 208.539 56.788 208.915C56.788 209.291 56.872 209.619 57.04 209.899C57.208 210.179 57.432 210.399 57.712 210.559C58 210.711 58.324 210.787 58.684 210.787ZM66.6347 214.688V206.287H71.8307V207.115H67.6427V210.043H71.4707V210.859H67.6427V213.859H71.8307V214.688H66.6347ZM73.3713 214.688V208.531H74.2833L74.3433 209.395C74.5353 209.083 74.7913 208.839 75.1113 208.663C75.4393 208.479 75.7913 208.387 76.1673 208.387C76.4793 208.387 76.7593 208.431 77.0073 208.52C77.2553 208.599 77.4713 208.727 77.6553 208.903C77.8473 209.071 78.0033 209.287 78.1233 209.551C78.3313 209.175 78.6153 208.887 78.9753 208.688C79.3353 208.487 79.7193 208.387 80.1273 208.387C80.5913 208.387 80.9913 208.479 81.3273 208.663C81.6713 208.847 81.9353 209.127 82.1193 209.503C82.3113 209.879 82.4073 210.351 82.4073 210.919V214.688H81.4113V211.027C81.4113 210.435 81.2873 209.991 81.0393 209.695C80.7913 209.399 80.4433 209.251 79.9953 209.251C79.6993 209.251 79.4273 209.331 79.1793 209.491C78.9393 209.651 78.7473 209.887 78.6033 210.199C78.4593 210.503 78.3873 210.875 78.3873 211.315V214.688H77.3793V211.027C77.3793 210.435 77.2553 209.991 77.0073 209.695C76.7593 209.399 76.4193 209.251 75.9873 209.251C75.6913 209.251 75.4193 209.331 75.1713 209.491C74.9313 209.651 74.7393 209.887 74.5953 210.199C74.4513 210.503 74.3793 210.875 74.3793 211.315V214.688H73.3713ZM86.7122 214.832C86.1362 214.832 85.6242 214.699 85.1762 214.435C84.7282 214.171 84.3762 213.799 84.1202 213.319C83.8722 212.831 83.7482 212.263 83.7482 211.615C83.7482 210.959 83.8762 210.391 84.1322 209.911C84.3882 209.431 84.7402 209.059 85.1882 208.795C85.6442 208.523 86.1602 208.387 86.7362 208.387C87.3122 208.387 87.8242 208.523 88.2722 208.795C88.7202 209.059 89.0682 209.431 89.3162 209.911C89.5722 210.391 89.7002 210.959 89.7002 211.615C89.7002 212.263 89.5722 212.831 89.3162 213.319C89.0602 213.799 88.7042 214.171 88.2482 214.435C87.8002 214.699 87.2882 214.832 86.7122 214.832ZM86.7122 213.967C87.0722 213.967 87.4002 213.879 87.6962 213.703C87.9922 213.527 88.2282 213.263 88.4042 212.911C88.5802 212.559 88.6682 212.127 88.6682 211.615C88.6682 211.087 88.5802 210.651 88.4042 210.307C88.2362 209.955 88.0042 209.691 87.7082 209.515C87.4122 209.339 87.0882 209.251 86.7362 209.251C86.3842 209.251 86.0602 209.339 85.7642 209.515C85.4682 209.691 85.2282 209.955 85.0442 210.307C84.8682 210.651 84.7802 211.087 84.7802 211.615C84.7802 212.127 84.8682 212.559 85.0442 212.911C85.2202 213.263 85.4522 213.527 85.7402 213.703C86.0362 213.879 86.3602 213.967 86.7122 213.967ZM93.3145 214.688C92.9545 214.688 92.6425 214.631 92.3785 214.519C92.1145 214.407 91.9105 214.219 91.7665 213.955C91.6305 213.683 91.5625 213.319 91.5625 212.863V209.383H90.4825V208.531H91.5625L91.6945 207.031H92.5705V208.531H94.3345V209.383H92.5705V212.863C92.5705 213.239 92.6465 213.495 92.7985 213.631C92.9505 213.759 93.2185 213.823 93.6025 213.823H94.2745V214.688H93.3145ZM95.78 214.688V208.531H96.788V214.688H95.78ZM96.284 207.283C96.084 207.283 95.916 207.219 95.78 207.091C95.652 206.955 95.588 206.787 95.588 206.587C95.588 206.387 95.652 206.227 95.78 206.107C95.916 205.979 96.084 205.915 96.284 205.915C96.476 205.915 96.64 205.979 96.776 206.107C96.912 206.227 96.98 206.387 96.98 206.587C96.98 206.787 96.912 206.955 96.776 207.091C96.64 207.219 96.476 207.283 96.284 207.283ZM101.267 214.832C100.691 214.832 100.179 214.699 99.7308 214.435C99.2828 214.171 98.9308 213.799 98.6748 213.319C98.4268 212.831 98.3028 212.263 98.3028 211.615C98.3028 210.959 98.4308 210.391 98.6868 209.911C98.9428 209.431 99.2948 209.059 99.7428 208.795C100.199 208.523 100.715 208.387 101.291 208.387C101.867 208.387 102.379 208.523 102.827 208.795C103.275 209.059 103.623 209.431 103.871 209.911C104.127 210.391 104.255 210.959 104.255 211.615C104.255 212.263 104.127 212.831 103.871 213.319C103.615 213.799 103.259 214.171 102.803 214.435C102.355 214.699 101.843 214.832 101.267 214.832ZM101.267 213.967C101.627 213.967 101.955 213.879 102.251 213.703C102.547 213.527 102.783 213.263 102.959 212.911C103.135 212.559 103.223 212.127 103.223 211.615C103.223 211.087 103.135 210.651 102.959 210.307C102.791 209.955 102.559 209.691 102.263 209.515C101.967 209.339 101.643 209.251 101.291 209.251C100.939 209.251 100.615 209.339 100.319 209.515C100.023 209.691 99.7828 209.955 99.5988 210.307C99.4228 210.651 99.3348 211.087 99.3348 211.615C99.3348 212.127 99.4228 212.559 99.5988 212.911C99.7748 213.263 100.007 213.527 100.295 213.703C100.591 213.879 100.915 213.967 101.267 213.967ZM105.692 214.688V208.531H106.604L106.664 209.563C106.848 209.195 107.116 208.907 107.468 208.699C107.82 208.491 108.224 208.387 108.68 208.387C109.152 208.387 109.56 208.479 109.904 208.663C110.248 208.847 110.516 209.127 110.708 209.503C110.9 209.871 110.996 210.339 110.996 210.907V214.688H109.988V211.015C109.988 210.431 109.852 209.991 109.58 209.695C109.308 209.399 108.932 209.251 108.452 209.251C108.132 209.251 107.836 209.331 107.564 209.491C107.3 209.651 107.088 209.883 106.928 210.187C106.776 210.483 106.7 210.851 106.7 211.291V214.688H105.692ZM114.874 214.832C114.346 214.832 113.894 214.747 113.518 214.579C113.15 214.411 112.862 214.175 112.654 213.871C112.446 213.567 112.318 213.211 112.27 212.803H113.302C113.342 213.011 113.422 213.207 113.542 213.391C113.67 213.567 113.842 213.711 114.058 213.823C114.282 213.927 114.558 213.979 114.886 213.979C115.166 213.979 115.398 213.939 115.582 213.859C115.774 213.771 115.914 213.655 116.002 213.511C116.098 213.359 116.146 213.195 116.146 213.019C116.146 212.763 116.086 212.567 115.966 212.431C115.854 212.295 115.686 212.191 115.462 212.119C115.246 212.039 114.978 211.975 114.658 211.927C114.354 211.879 114.07 211.815 113.806 211.735C113.55 211.647 113.322 211.535 113.122 211.399C112.93 211.263 112.778 211.095 112.666 210.895C112.562 210.687 112.51 210.439 112.51 210.151C112.51 209.807 112.598 209.503 112.774 209.239C112.958 208.975 113.214 208.767 113.542 208.615C113.878 208.463 114.274 208.387 114.73 208.387C115.386 208.387 115.914 208.543 116.314 208.855C116.714 209.167 116.95 209.615 117.022 210.199H116.026C115.986 209.903 115.85 209.671 115.618 209.503C115.394 209.327 115.094 209.239 114.718 209.239C114.326 209.239 114.03 209.315 113.83 209.467C113.63 209.619 113.53 209.819 113.53 210.067C113.53 210.243 113.578 210.399 113.674 210.535C113.778 210.663 113.938 210.775 114.154 210.871C114.378 210.959 114.658 211.031 114.994 211.087C115.418 211.151 115.794 211.243 116.122 211.363C116.45 211.483 116.71 211.667 116.902 211.915C117.094 212.155 117.186 212.495 117.178 212.935C117.186 213.319 117.094 213.655 116.902 213.943C116.71 214.231 116.442 214.451 116.098 214.603C115.754 214.755 115.346 214.832 114.874 214.832ZM119.025 214.748C118.833 214.748 118.669 214.683 118.533 214.555C118.405 214.419 118.341 214.255 118.341 214.063C118.341 213.871 118.405 213.711 118.533 213.583C118.669 213.447 118.833 213.379 119.025 213.379C119.233 213.379 119.397 213.447 119.517 213.583C119.645 213.711 119.709 213.871 119.709 214.063C119.709 214.255 119.645 214.419 119.517 214.555C119.397 214.683 119.233 214.748 119.025 214.748ZM128.01 214.832C127.226 214.832 126.53 214.652 125.922 214.292C125.322 213.923 124.854 213.415 124.518 212.767C124.182 212.111 124.014 211.351 124.014 210.487C124.014 209.631 124.182 208.879 124.518 208.231C124.854 207.575 125.322 207.063 125.922 206.695C126.53 206.327 127.226 206.143 128.01 206.143C128.818 206.143 129.522 206.327 130.122 206.695C130.722 207.063 131.186 207.575 131.514 208.231C131.85 208.879 132.018 209.631 132.018 210.487C132.018 211.351 131.85 212.111 131.514 212.767C131.186 213.415 130.722 213.923 130.122 214.292C129.522 214.652 128.818 214.832 128.01 214.832ZM128.022 213.943C128.614 213.943 129.13 213.807 129.57 213.535C130.018 213.255 130.366 212.859 130.614 212.347C130.862 211.827 130.986 211.207 130.986 210.487C130.986 209.767 130.862 209.151 130.614 208.639C130.366 208.119 130.018 207.723 129.57 207.451C129.13 207.179 128.614 207.043 128.022 207.043C127.43 207.043 126.91 207.179 126.462 207.451C126.014 207.723 125.666 208.119 125.418 208.639C125.17 209.151 125.046 209.767 125.046 210.487C125.046 211.207 125.17 211.827 125.418 212.347C125.666 212.859 126.014 213.255 126.462 213.535C126.91 213.807 127.43 213.943 128.022 213.943ZM133.43 214.688V208.531H134.342L134.402 209.563C134.586 209.195 134.854 208.907 135.206 208.699C135.558 208.491 135.962 208.387 136.418 208.387C136.89 208.387 137.298 208.479 137.642 208.663C137.986 208.847 138.254 209.127 138.446 209.503C138.638 209.871 138.734 210.339 138.734 210.907V214.688H137.726V211.015C137.726 210.431 137.59 209.991 137.318 209.695C137.046 209.399 136.67 209.251 136.19 209.251C135.87 209.251 135.574 209.331 135.302 209.491C135.038 209.651 134.826 209.883 134.666 210.187C134.514 210.483 134.438 210.851 134.438 211.291V214.688H133.43ZM142.972 214.832C142.412 214.832 141.912 214.699 141.472 214.435C141.04 214.163 140.7 213.787 140.452 213.307C140.204 212.819 140.08 212.255 140.08 211.615C140.08 210.967 140.204 210.403 140.452 209.923C140.7 209.435 141.04 209.059 141.472 208.795C141.912 208.523 142.42 208.387 142.996 208.387C143.596 208.387 144.1 208.523 144.508 208.795C144.924 209.059 145.24 209.411 145.456 209.851C145.672 210.291 145.78 210.771 145.78 211.291C145.78 211.371 145.78 211.455 145.78 211.543C145.78 211.631 145.776 211.731 145.768 211.843H140.836V211.063H144.784C144.768 210.479 144.588 210.031 144.244 209.719C143.908 209.399 143.484 209.239 142.972 209.239C142.636 209.239 142.324 209.319 142.036 209.479C141.748 209.639 141.512 209.875 141.328 210.187C141.152 210.491 141.064 210.875 141.064 211.339V211.675C141.064 212.179 141.152 212.603 141.328 212.947C141.512 213.291 141.748 213.551 142.036 213.727C142.324 213.895 142.636 213.979 142.972 213.979C143.412 213.979 143.764 213.891 144.028 213.715C144.292 213.531 144.488 213.275 144.616 212.947H145.612C145.508 213.307 145.336 213.631 145.096 213.919C144.864 214.199 144.568 214.423 144.208 214.591C143.856 214.751 143.444 214.832 142.972 214.832ZM153.088 214.832C152.472 214.832 151.936 214.719 151.48 214.495C151.024 214.271 150.672 213.959 150.424 213.559C150.176 213.159 150.052 212.695 150.052 212.167H151.108C151.108 212.495 151.184 212.799 151.336 213.079C151.488 213.351 151.708 213.571 151.996 213.739C152.292 213.899 152.656 213.979 153.088 213.979C153.464 213.979 153.784 213.919 154.048 213.799C154.32 213.671 154.524 213.499 154.66 213.283C154.804 213.067 154.876 212.823 154.876 212.551C154.876 212.231 154.808 211.971 154.672 211.771C154.536 211.563 154.348 211.395 154.108 211.267C153.876 211.139 153.604 211.027 153.292 210.931C152.98 210.827 152.652 210.715 152.308 210.595C151.628 210.371 151.128 210.091 150.808 209.755C150.496 209.419 150.34 208.983 150.34 208.447C150.34 207.991 150.444 207.591 150.652 207.247C150.868 206.903 151.172 206.635 151.564 206.443C151.964 206.243 152.436 206.143 152.98 206.143C153.516 206.143 153.98 206.243 154.372 206.443C154.772 206.643 155.084 206.919 155.308 207.271C155.532 207.615 155.644 208.015 155.644 208.471H154.588C154.588 208.239 154.528 208.011 154.408 207.787C154.288 207.563 154.104 207.379 153.856 207.235C153.616 207.083 153.312 207.007 152.944 207.007C152.64 206.999 152.368 207.051 152.128 207.163C151.896 207.267 151.712 207.419 151.576 207.619C151.448 207.819 151.384 208.063 151.384 208.352C151.384 208.623 151.44 208.843 151.552 209.011C151.672 209.179 151.84 209.323 152.056 209.443C152.28 209.555 152.54 209.659 152.836 209.755C153.132 209.851 153.46 209.959 153.82 210.079C154.228 210.215 154.588 210.383 154.9 210.583C155.22 210.775 155.468 211.023 155.644 211.327C155.828 211.631 155.92 212.019 155.92 212.491C155.92 212.891 155.812 213.271 155.596 213.631C155.388 213.983 155.076 214.271 154.66 214.495C154.244 214.719 153.72 214.832 153.088 214.832ZM157.324 217.328V208.531H158.236L158.332 209.515C158.46 209.315 158.62 209.131 158.812 208.963C159.012 208.795 159.252 208.659 159.532 208.555C159.812 208.443 160.132 208.387 160.492 208.387C161.068 208.387 161.572 208.531 162.004 208.819C162.436 209.099 162.772 209.483 163.012 209.971C163.26 210.451 163.384 211.003 163.384 211.627C163.384 212.243 163.26 212.795 163.012 213.283C162.772 213.763 162.432 214.143 161.992 214.423C161.56 214.695 161.056 214.832 160.48 214.832C159.992 214.832 159.56 214.731 159.184 214.531C158.816 214.331 158.532 214.051 158.332 213.691V217.328H157.324ZM160.36 213.955C160.752 213.955 161.096 213.859 161.392 213.667C161.688 213.475 161.92 213.203 162.088 212.851C162.264 212.499 162.352 212.087 162.352 211.615C162.352 211.135 162.264 210.723 162.088 210.379C161.92 210.027 161.688 209.755 161.392 209.563C161.096 209.363 160.752 209.263 160.36 209.263C159.96 209.263 159.608 209.363 159.304 209.563C159.008 209.755 158.776 210.027 158.608 210.379C158.448 210.723 158.368 211.135 158.368 211.615C158.368 212.087 158.448 212.499 158.608 212.851C158.776 213.203 159.008 213.475 159.304 213.667C159.608 213.859 159.96 213.955 160.36 213.955ZM166.804 214.832C166.316 214.832 165.908 214.743 165.58 214.567C165.26 214.391 165.02 214.159 164.86 213.871C164.7 213.583 164.62 213.267 164.62 212.924C164.62 212.515 164.724 212.167 164.932 211.879C165.148 211.591 165.448 211.375 165.832 211.231C166.216 211.079 166.668 211.003 167.188 211.003H168.772C168.772 210.611 168.72 210.287 168.616 210.031C168.512 209.767 168.348 209.571 168.124 209.443C167.908 209.307 167.632 209.239 167.296 209.239C166.92 209.239 166.596 209.335 166.324 209.527C166.052 209.711 165.884 209.987 165.82 210.355H164.788C164.836 209.931 164.98 209.575 165.22 209.287C165.46 208.991 165.764 208.767 166.132 208.615C166.5 208.463 166.888 208.387 167.296 208.387C167.856 208.387 168.32 208.491 168.688 208.699C169.056 208.899 169.328 209.183 169.504 209.551C169.688 209.911 169.78 210.339 169.78 210.835V214.688H168.88L168.82 213.607C168.74 213.775 168.636 213.935 168.508 214.087C168.388 214.231 168.244 214.359 168.076 214.471C167.916 214.583 167.728 214.671 167.512 214.736C167.296 214.8 167.06 214.832 166.804 214.832ZM166.948 213.979C167.22 213.979 167.468 213.919 167.692 213.799C167.924 213.679 168.12 213.519 168.28 213.319C168.44 213.119 168.56 212.895 168.64 212.647C168.728 212.391 168.772 212.127 168.772 211.855V211.783H167.272C166.888 211.783 166.576 211.831 166.336 211.927C166.104 212.015 165.936 212.143 165.832 212.311C165.728 212.479 165.676 212.667 165.676 212.875C165.676 213.099 165.724 213.295 165.82 213.463C165.916 213.623 166.06 213.751 166.252 213.847C166.444 213.935 166.676 213.979 166.948 213.979ZM171.387 214.688V208.531H172.299L172.383 209.683C172.519 209.403 172.695 209.167 172.911 208.975C173.135 208.783 173.403 208.639 173.715 208.543C174.027 208.439 174.379 208.387 174.771 208.387V209.443H174.303C174.055 209.443 173.815 209.479 173.583 209.551C173.359 209.615 173.155 209.723 172.971 209.875C172.795 210.019 172.655 210.219 172.551 210.475C172.447 210.731 172.395 211.051 172.395 211.435V214.688H171.387ZM179.642 214.688L176.762 211.339L179.426 208.531H180.662L177.614 211.699L177.626 210.979L180.926 214.688H179.642ZM175.922 214.688V206.047H176.93V214.688H175.922ZM181.981 214.688V206.047H182.989V214.688H181.981ZM187.304 214.832C186.744 214.832 186.244 214.699 185.804 214.435C185.372 214.163 185.032 213.787 184.784 213.307C184.536 212.819 184.412 212.255 184.412 211.615C184.412 210.967 184.536 210.403 184.784 209.923C185.032 209.435 185.372 209.059 185.804 208.795C186.244 208.523 186.752 208.387 187.328 208.387C187.928 208.387 188.432 208.523 188.84 208.795C189.256 209.059 189.572 209.411 189.788 209.851C190.004 210.291 190.112 210.771 190.112 211.291C190.112 211.371 190.112 211.455 190.112 211.543C190.112 211.631 190.108 211.731 190.1 211.843H185.168V211.063H189.116C189.1 210.479 188.92 210.031 188.576 209.719C188.24 209.399 187.816 209.239 187.304 209.239C186.968 209.239 186.656 209.319 186.368 209.479C186.08 209.639 185.844 209.875 185.66 210.187C185.484 210.491 185.396 210.875 185.396 211.339V211.675C185.396 212.179 185.484 212.603 185.66 212.947C185.844 213.291 186.08 213.551 186.368 213.727C186.656 213.895 186.968 213.979 187.304 213.979C187.744 213.979 188.096 213.891 188.36 213.715C188.624 213.531 188.82 213.275 188.948 212.947H189.944C189.84 213.307 189.668 213.631 189.428 213.919C189.196 214.199 188.9 214.423 188.54 214.591C188.188 214.751 187.776 214.832 187.304 214.832Z" fill="#071E46"/>
<path fill-rule="evenodd" clip-rule="evenodd" d="M2.34683 191.211C3.7909 192.031 5.54675 192.49 7.68003 192.589C7.92618 192.589 8.20515 192.589 8.45129 192.589C10.601 192.589 12.4389 192.212 13.9486 191.474C15.4583 190.719 16.2132 189.817 16.2132 188.784V178.565H8.94359C10.6666 178.713 11.6676 179.254 11.9138 180.205V189.948C11.9138 190.555 11.5035 191.014 10.7979 191.424C10.1087 191.818 9.27179 192.048 8.2872 192.08C7.97541 192.08 7.64721 192.08 7.35183 192.048C6.59698 191.949 5.94059 191.752 5.41547 191.441C4.70985 191.047 4.2996 190.571 4.2996 189.965V162.376C4.31601 161.77 4.69344 161.245 5.44829 160.818C6.15392 160.441 6.7939 160.244 7.36824 160.211C7.959 160.179 8.33643 160.162 8.53334 160.162C9.2882 160.162 10.0595 160.228 10.7979 160.375C11.7497 160.556 12.5538 160.802 13.2101 161.113C14.5393 161.77 15.1793 162.54 15.1793 163.426V164.788C14.9004 165.739 13.8994 166.297 12.1927 166.444H14.7034H16.1803V163.426C16.1803 162.393 15.4419 161.491 13.9322 160.753C12.2912 159.998 10.4369 159.604 8.35284 159.604H8.05746C5.87495 159.654 3.98782 160.097 2.36324 160.982C0.886356 161.819 0.000224005 163.016 0.000224005 164.295V187.849C-0.0161858 189.161 0.869946 190.309 2.34683 191.178V191.211ZM33.3943 161.064C31.9174 160.195 29.9154 159.687 27.6672 159.687C25.4191 159.687 23.4007 160.195 21.9566 161.064C20.4797 161.901 19.5772 163.098 19.5772 164.377V176.384C19.5772 177.696 20.4797 178.844 21.9566 179.713C23.4007 180.55 25.4519 181.091 27.6672 181.091C29.0292 181.091 30.3092 180.911 31.4743 180.55V188.505C31.4743 189.013 31.4415 189.555 31.343 190.096C31.2282 190.719 30.8836 191.178 30.3584 191.523C29.1605 192.162 28.1267 192.162 27.6508 192.162C27.1749 192.162 26.7155 192.113 26.256 192.015C24.894 191.736 23.8601 191.047 23.8601 190.079V187.357C24.1391 186.373 25.1073 185.782 26.8303 185.618H19.5936V188.882C19.6428 189.965 20.3813 190.85 21.8581 191.572C22.974 192.113 24.0406 192.425 25.0416 192.523C26.0426 192.622 26.8303 192.671 27.3883 192.671C28.2252 192.671 29.0457 192.605 29.899 192.474C31.6056 192.195 33.0004 191.654 34.0835 190.834C35.1993 190.014 35.7573 189.062 35.7901 187.98V164.41C35.7737 163.131 34.8876 161.934 33.3943 161.097V161.064ZM31.4743 178.549C31.3594 179.074 30.982 179.517 30.3584 179.877C29.6036 180.304 28.7175 180.533 27.6672 180.533C26.617 180.533 25.7309 180.32 24.976 179.877C24.2212 179.451 23.8601 178.926 23.8601 178.319V162.294C23.8601 161.688 24.2704 161.228 24.976 160.835C25.7309 160.408 26.617 160.179 27.6672 160.179C28.7175 160.179 29.6036 160.392 30.3584 160.835C31.0641 161.212 31.4907 161.688 31.4907 162.294V178.549H31.4743ZM50.5754 191.588C52.1835 192.31 53.9886 192.687 56.0234 192.687H56.4501C58.6654 192.638 60.569 192.179 62.1443 191.31C63.6212 190.44 64.5401 189.276 64.5401 187.98V161.146C64.8191 160.228 65.7709 159.818 67.4939 159.703C65.6068 159.703 63.7032 159.703 61.8161 159.703H57.2542C58.9772 159.834 59.929 160.211 60.2079 161.146V190.063C60.2079 190.67 59.7977 191.146 59.0921 191.539C58.3208 191.966 57.4347 192.162 56.4173 192.162C55.3999 192.162 54.5301 191.949 53.7261 191.539C53.0204 191.146 52.6102 190.67 52.6102 190.063V180.419C52.6102 179.451 53.644 178.877 55.6624 178.68H48.2452L48.2288 188.866C48.2944 189.932 49.0657 190.817 50.5918 191.588H50.5754ZM76.9952 178.942C78.7018 178.992 79.8505 179.254 80.4413 179.713C81.032 180.173 81.3274 180.943 81.3274 182.092V182.174C81.3438 181.009 81.3602 179.812 81.3602 178.647C81.3602 177.483 81.3602 176.285 81.3274 175.121V175.203C81.3274 176.351 81.032 177.155 80.4577 177.63C79.8505 178.122 78.6854 178.385 76.9624 178.45L74.9604 178.5L75.0096 160.146H79.3582C81.1469 160.195 82.6402 160.523 83.8545 161.113C85.1017 161.737 85.7581 162.524 85.8237 163.443V159.637H67.7072C69.3811 159.785 70.3656 160.293 70.661 161.228V191.359C70.382 192.277 69.4303 192.507 67.7236 192.622H85.8401V188.816C85.7745 189.735 85.1017 190.522 83.8545 191.146C82.6566 191.736 81.1797 192.064 79.3746 192.113H74.9604V178.959H77.0116L76.9952 178.942ZM99.1321 192.605H100.067C101.61 187.832 103.218 182.846 104.876 177.679L105.056 177.073L109.536 192.605H110.488C112.014 187.865 113.606 182.961 115.23 177.844C117.134 171.922 118.955 166.264 120.711 160.867C121.039 160.047 121.909 159.736 123.484 159.621H117.281C118.627 159.719 119.808 160.08 119.808 160.703C119.808 160.753 119.809 160.818 119.792 160.867C117.019 169.216 114.328 177.597 111.751 185.962C110.291 180.632 108.814 175.301 107.337 169.971C108.338 166.821 109.323 163.787 110.274 160.867C110.619 160.047 111.505 159.736 113.08 159.621H97.5896C99.0665 159.752 100.018 160.162 100.412 160.884L104.613 175.482C103.53 178.959 102.43 182.452 101.347 185.946C99.05 177.581 96.7199 169.216 94.324 160.851C94.3076 160.802 94.3076 160.785 94.3076 160.753C94.3076 160.507 94.5537 160.261 95.046 160.064C95.5876 159.834 96.2111 159.67 96.8839 159.604H87.1693C88.6462 159.736 89.5816 160.146 89.9754 160.867L99.1321 192.573V192.605ZM104.761 160.867C104.761 160.867 104.744 160.802 104.744 160.753C104.744 160.539 104.941 160.326 105.384 160.113C105.86 159.883 106.434 159.719 107.091 159.637C108.371 159.752 109.405 160.097 109.405 160.687C109.405 160.736 109.405 160.802 109.388 160.851C108.551 163.377 107.714 165.886 106.878 168.396C106.172 165.886 105.466 163.377 104.761 160.851V160.867ZM131.919 178.942H129.884L129.868 192.113H134.282C136.087 192.064 137.564 191.736 138.762 191.146C140.009 190.522 140.682 189.735 140.747 188.816V192.622H122.631C124.338 192.507 125.306 192.294 125.568 191.359V161.228C125.273 160.31 124.288 159.785 122.615 159.637H140.731V163.443C140.665 162.524 139.993 161.737 138.762 161.113C137.564 160.523 136.071 160.195 134.266 160.146H129.917L129.868 178.5L131.87 178.45C133.593 178.385 134.758 178.106 135.365 177.63C135.939 177.155 136.235 176.351 136.235 175.203V175.121C136.251 176.285 136.268 177.483 136.268 178.647C136.268 179.812 136.268 181.009 136.235 182.174V182.092C136.235 180.943 135.939 180.156 135.349 179.713C134.758 179.254 133.593 178.992 131.903 178.942H131.919ZM160.226 192.605V188.8C160.177 189.719 159.52 190.506 158.273 191.129C157.075 191.72 155.566 192.048 153.793 192.097H149.379V188.095C149.395 179.057 149.412 170.053 149.445 161.081C149.724 160.211 150.708 159.736 152.382 159.637H142.142C143.8 159.736 144.784 160.211 145.08 161.081V191.359C144.801 192.277 143.833 192.491 142.126 192.605H160.242H160.226ZM179.754 192.605V188.8C179.704 189.719 179.048 190.506 177.801 191.129C176.603 191.72 175.093 192.048 173.305 192.097H168.89V188.095C168.907 179.057 168.923 170.053 168.956 161.081C169.235 160.211 170.22 159.736 171.893 159.637H161.654C163.311 159.736 164.296 160.211 164.591 161.081V191.359C164.312 192.277 163.344 192.491 161.637 192.605H179.754ZM190.42 178.942C192.127 178.992 193.275 179.254 193.866 179.713C194.457 180.173 194.752 180.943 194.752 182.092V182.174C194.769 181.009 194.785 179.812 194.785 178.647C194.785 177.483 194.785 176.285 194.752 175.121V175.203C194.752 176.351 194.457 177.155 193.883 177.63C193.275 178.122 192.11 178.385 190.387 178.45L188.385 178.5L188.434 160.146H192.783C194.572 160.195 196.065 160.523 197.279 161.113C198.527 161.737 199.183 162.524 199.249 163.443V159.637H181.132C182.806 159.785 183.79 160.293 184.086 161.228V191.359C183.807 192.277 182.855 192.507 181.149 192.622H199.265V188.816C199.199 189.735 198.527 190.522 197.279 191.146C196.081 191.736 194.605 192.064 192.799 192.113H188.385V178.959H190.436L190.42 178.942ZM207.814 160.146H211.244C212.541 160.146 215.199 160.343 215.1 161.425V177.187C215.1 177.499 214.904 177.761 214.51 178.024C214.116 178.286 211.884 178.844 207.814 179.713V160.129V160.146ZM212.902 179.074L213.066 179.041C213.837 179.074 214.461 179.287 214.887 179.697C215.33 180.107 215.544 180.566 215.544 181.058L215.429 191.342C215.133 192.244 214.149 192.491 212.442 192.605H222.665C220.959 192.507 219.991 192.261 219.728 191.342L219.843 183.486C219.843 182.124 219.236 180.976 217.595 179.976C216.676 179.418 215.576 179.041 214.28 178.811C215.527 178.549 216.479 178.286 217.135 177.991C218.776 177.269 219.383 176.417 219.383 175.432V163.18C219.383 162.18 218.776 161.343 217.135 160.638C215.429 159.916 213.312 159.637 211.228 159.637H200.578C202.235 159.736 203.22 160.211 203.515 161.097V191.359C203.236 192.277 202.235 192.523 200.578 192.622H210.801C209.062 192.523 208.093 192.294 207.831 191.359V191.162H207.814V180.222L212.902 179.074ZM231.248 174.153L224.224 161.081C223.781 160.31 222.649 159.916 221.303 159.637H230.903C230.329 159.686 229.804 159.834 229.377 160.113C228.967 160.343 228.77 160.638 228.77 160.982V161.097L235.203 173.136L241.356 161.081C241.356 161.081 241.356 161.015 241.356 160.966C241.356 160.687 240.995 159.785 239.781 159.637H245.984C245.836 159.637 245.688 159.67 245.541 159.687C244.146 159.916 242.784 160.523 242.242 161.064L235.613 174.071L235.564 191.31C235.859 192.212 236.844 192.474 238.501 192.589H228.31C229.968 192.474 230.985 192.195 231.248 191.293V174.137V174.153Z" fill="#071E46"/>
<path fill-rule="evenodd" clip-rule="evenodd" d="M60.9462 85.138C60.1749 85.5645 59.3052 85.7613 58.4519 85.7121C57.3196 85.6465 56.2201 85.1708 55.3832 84.3015L53.1515 81.9725C52.6428 81.4476 52.1669 80.9227 51.7731 80.3323C51.3628 79.7254 51.0346 79.0693 50.8377 78.2984C50.6244 77.4783 50.6408 76.8878 50.6572 76.2318C50.6572 76.0513 50.6572 75.8709 50.6572 75.5757V69.5397V68.8837C50.6408 68.2112 50.6244 67.6371 50.8377 66.817C51.0346 66.0461 51.3628 65.39 51.7731 64.7996C52.1669 64.2091 52.6428 63.6842 53.1515 63.1594L55.3832 60.8303C56.2366 59.9446 57.3524 59.4689 58.5011 59.4197C59.4529 59.3705 60.4211 59.6329 61.258 60.1906C61.3892 58.5996 61.7667 57.0742 62.3738 55.6308C63.0959 53.925 64.1297 52.3669 65.4917 51.0055L101.938 14.511C103.185 13.2645 104.646 12.264 106.237 11.5423C107.583 10.9354 109.011 10.5254 110.471 10.3449C110.044 9.57404 109.848 8.70473 109.897 7.85183C109.962 6.72009 110.422 5.60476 111.308 4.76826L113.622 2.53758C114.147 2.02912 114.672 1.55346 115.263 1.14341C115.87 0.733364 116.51 0.405324 117.281 0.192098C118.102 -0.0211276 118.676 -0.00472565 119.349 0.0116764C119.529 0.0116764 119.71 0.0116764 120.005 0.0116764H126.028H126.684C127.357 -0.00472565 127.931 -0.0375296 128.752 0.192098C129.523 0.388922 130.179 0.716962 130.77 1.14341C131.361 1.55346 131.886 2.02912 132.411 2.53758L134.725 4.76826C135.611 5.62116 136.087 6.7529 136.136 7.90104C136.185 8.88516 135.906 9.86928 135.332 10.7222C136.875 10.8534 138.384 11.2306 139.812 11.8375C141.502 12.5592 143.077 13.5925 144.407 14.9375C156.14 26.6977 169.973 39.3765 180.935 51.5139C182.1 52.7277 183.035 54.0727 183.725 55.5324C184.381 56.943 184.808 58.452 184.988 60.0758C185.776 59.6001 186.662 59.4033 187.532 59.4361C188.68 59.4853 189.796 59.961 190.65 60.8467L192.881 63.1758C193.39 63.7006 193.866 64.2255 194.26 64.816C194.67 65.4228 194.998 66.0789 195.195 66.8334C195.408 67.6535 195.392 68.244 195.376 68.9001C195.376 69.0805 195.376 69.2773 195.376 69.5561V75.5921V76.2482C195.392 76.9206 195.425 77.4947 195.195 78.3148C194.998 79.0857 194.67 79.7418 194.26 80.3487C193.866 80.9391 193.39 81.464 192.881 81.9889L190.65 84.3179C189.796 85.2037 188.68 85.6793 187.532 85.7285C186.564 85.7777 185.563 85.4989 184.726 84.9248C184.594 86.483 184.217 87.992 183.61 89.4026C182.888 91.1084 181.854 92.6666 180.525 93.9951C168.381 106.182 156.304 118.516 144.062 130.588C142.848 131.769 141.502 132.72 140.025 133.409C138.614 134.065 137.104 134.492 135.496 134.672C135.956 135.459 136.169 136.345 136.136 137.231C136.087 138.379 135.611 139.494 134.725 140.347L132.411 142.578C131.886 143.086 131.361 143.562 130.77 143.972C130.163 144.382 129.523 144.71 128.752 144.923C127.931 145.137 127.357 145.12 126.684 145.104C126.504 145.104 126.323 145.104 126.028 145.104H120.005H119.349C118.676 145.12 118.102 145.137 117.281 144.923C116.51 144.727 115.854 144.398 115.263 143.972C114.672 143.562 114.147 143.086 113.622 142.578L111.308 140.347C110.422 139.494 109.946 138.363 109.897 137.231C109.848 136.263 110.11 135.295 110.668 134.459C109.093 134.328 107.55 133.95 106.122 133.344C104.416 132.622 102.857 131.572 101.511 130.211L65.1143 93.6835C63.8671 92.4369 62.8661 90.9608 62.1441 89.3698C61.5369 88.0248 61.1431 86.5978 60.9626 85.1216L60.9462 85.138ZM92.4039 70.8191C102.496 70.8519 98.8529 72.2789 110.849 60.2234C113.408 57.6647 115.542 55.4668 118.118 52.9245C122.368 48.7256 121.203 49.5785 121.22 41.722C118.167 43.3294 116.001 46.4129 113.54 48.8896L95.6366 66.8498C93.5854 68.8837 93.4049 68.5884 92.4039 70.8191ZM124.419 41.2627C124.502 49.2177 123.353 49.0044 126.914 52.4161L140.353 65.8821C146.441 71.9836 143.619 71.0487 154.105 70.9831C152.956 69.0969 126.504 42.46 124.436 41.2627H124.419ZM91.9116 74.2471C92.7321 75.9365 92.4039 75.3624 93.7331 76.7402C98.2129 81.3492 118.512 102.344 121.318 103.804C121.285 92.929 123.025 97.0459 110.832 84.8264C98.6232 72.5905 102.742 74.2799 91.9116 74.2471ZM124.436 103.886C127.34 102.377 146.015 82.7434 150.314 78.4788C151.036 77.7571 151.627 77.2815 152.283 76.5598C153.596 75.1164 153.005 76.0349 153.842 74.2635C143.389 74.2307 147.164 72.5905 134.889 84.892C122.746 97.0787 124.419 92.9946 124.436 103.886ZM122.828 89.583C124.075 88.9269 124.108 88.7465 125.256 87.5819C128.555 84.2359 138.844 74.6572 139.861 72L127.144 59.5017C125.256 57.5991 124.83 56.7462 122.631 55.5488L105.909 72.0657L122.828 89.583ZM187.302 64.0287L177.571 72.5741L187.302 81.1196L189.534 78.7905C191.109 77.1503 190.732 77.1503 190.732 75.5921V72.5741V69.5561C190.732 67.998 191.109 67.998 189.534 66.3578L187.302 64.0287ZM114.475 8.11426L122.992 17.8735L131.509 8.11426L129.195 5.88359C127.554 4.309 127.554 4.66984 125.995 4.66984H122.992H119.989C118.43 4.66984 118.43 4.2926 116.789 5.88359L114.475 8.11426ZM58.698 81.1196L68.4291 72.5741L58.698 64.0287L56.4663 66.3578C54.8909 67.998 55.2684 67.998 55.2684 69.5561V72.5741V75.5921C55.2684 77.1503 54.8909 77.1503 56.4663 78.7905L58.698 81.1196ZM131.525 137.034L123.008 127.275L114.492 137.034L116.805 139.265C118.446 140.839 118.446 140.478 120.005 140.478H123.008H126.011C127.57 140.478 127.57 140.856 129.211 139.265L131.525 137.034ZM180.147 83.3994C180.114 80.6767 179.031 78.0032 176.915 75.8873C175.487 74.4439 173.731 73.4598 171.91 73.0006C172.96 72.7217 173.83 72.3281 174.535 71.8196C175.618 71.0323 176.439 70.3927 176.964 69.8514C177.751 69.0641 178.408 68.1784 179.015 67.2107C180.18 65.1768 180.623 63.0281 180.393 60.7483C180.18 58.4356 179.245 56.4345 177.571 54.7287L141.108 18.2179C139.123 16.2333 136.464 15.2163 133.773 15.2983C131.065 15.3311 128.391 16.4137 126.274 18.5295C124.797 20.0057 123.796 21.8263 123.353 23.7126C122.811 21.6951 121.777 19.8909 120.235 18.3491L119.956 18.0703C117.839 16.0856 115.378 15.0195 112.49 14.8719C109.798 14.7899 107.14 15.7904 105.154 17.7914L68.708 54.2859C66.6732 56.3197 65.7379 58.9277 65.7707 61.6504C65.8363 64.2747 66.7881 66.6202 68.626 68.7689C68.8393 69.0313 69.0855 69.2773 69.3316 69.5069C70.6608 70.8355 72.1049 71.7868 73.6638 72.3445C71.8751 72.9186 70.267 73.9027 68.8721 75.3132L68.5932 75.5921C66.6076 77.7079 65.5573 80.1846 65.4097 83.0714C65.3276 85.7613 66.3286 88.4348 68.3142 90.4195L104.711 126.947C106.746 128.981 109.339 129.916 112.063 129.883C114.688 129.801 117.035 128.866 119.168 127.012C119.431 126.799 119.677 126.553 119.907 126.307C121.187 125.011 122.122 123.617 122.696 122.092C122.959 122.912 123.304 123.617 123.73 124.208C124.518 125.307 125.158 126.11 125.683 126.652C126.471 127.439 127.357 128.095 128.325 128.702C130.36 129.883 132.493 130.326 134.774 130.08C137.071 129.866 139.073 128.915 140.78 127.258L177.194 90.7147C179.179 88.7301 180.18 86.0566 180.098 83.3666L180.147 83.3994ZM166.593 72.9842C165.575 72.6397 164.64 72.0821 163.803 71.2948L158.782 66.2101L165.543 59.4361C164.197 61.3059 164.181 63.1102 165.46 64.898L169.661 69.1133C171.171 70.6387 173.173 70.7207 174.896 69.8842C175.47 69.6054 175.979 69.2609 176.439 68.8181C176.882 68.3588 177.866 67.3911 177.981 65.2752C177.948 64.2747 177.555 63.225 176.701 62.1588C175.946 61.2403 175.159 60.371 174.371 59.5837L162.08 47.2658C161.555 48.906 160.636 50.3822 159.356 51.678C157.288 53.7446 154.548 54.86 151.906 54.9092C149.182 54.9584 146.556 54.0235 144.538 52.006L125.995 33.4061C124.698 32.1104 123.845 30.5194 123.418 28.83C123.074 29.8961 122.5 30.8146 121.695 31.6347L117.019 36.3093L115.657 34.8987L114.229 33.521L113.294 32.586C115.115 33.9474 116.904 34.0294 118.643 32.8157L120.76 30.6998C122.155 29.3056 122.729 27.5014 122.5 25.2544C122.368 24.139 122.007 23.0073 121.384 21.8263C120.924 20.8914 120.301 20.0549 119.595 19.3496C119.414 19.1692 119.037 18.8412 118.446 18.3327C117.872 17.8406 116.953 17.5618 115.722 17.4798C114.36 17.4306 113.212 17.9063 112.26 18.8412L69.5778 61.5848C68.6424 62.5197 68.2978 63.635 68.347 64.9308C68.347 65.9149 68.6752 66.8334 69.2167 67.6863C69.4629 67.998 69.7254 68.326 70.0372 68.6212C71.0054 69.4741 72.1377 69.9334 73.3848 69.9498C74.6648 69.999 75.7643 69.6546 76.716 68.7196L91.7803 53.6298C93.011 51.924 92.929 50.1362 91.5341 48.2992L98.3278 55.106L82.5415 70.9339C81.8359 71.6392 81.0482 72.1641 80.1621 72.5085C80.9006 72.853 81.5734 73.3286 82.1805 73.9355L86.8573 78.6101L85.4461 79.9714L84.0677 81.3984L83.1323 82.3333C84.4943 80.4963 84.5764 78.7085 83.362 76.9698L81.2452 74.854C79.8503 73.4598 78.0452 72.8857 75.8135 73.1154C74.714 73.2466 73.5653 73.6074 72.4003 74.2307C71.4649 74.69 70.628 75.3132 69.9388 76.0185C69.7583 76.199 69.4301 76.5762 68.9214 77.1667C68.4291 77.7571 68.1501 78.6757 68.0681 79.9058C68.0188 81.2836 68.4947 82.4317 69.4301 83.3666L112.063 126.143C112.998 127.078 114.114 127.422 115.394 127.39C116.362 127.39 117.281 127.062 118.151 126.52C118.463 126.274 118.791 125.995 119.086 125.7C119.94 124.732 120.383 123.601 120.415 122.338C120.465 121.058 120.12 119.943 119.185 119.008L104.12 103.918C102.414 102.672 100.625 102.77 98.8037 104.164L105.597 97.3575L121.384 113.185C122.073 113.874 122.598 114.662 122.943 115.531C123.287 114.809 123.747 114.12 124.321 113.497L129.392 108.462L136.153 115.236C134.298 113.891 132.477 113.874 130.704 115.154L126.504 119.369C124.994 120.878 124.895 122.895 125.732 124.618C126.011 125.208 126.356 125.717 126.799 126.159C127.242 126.619 128.227 127.586 130.327 127.701C131.328 127.668 132.378 127.275 133.445 126.422C134.364 125.667 135.234 124.88 136.021 124.093L148.312 111.775C146.671 111.25 145.194 110.332 143.914 109.052C141.847 106.986 140.747 104.246 140.698 101.573C140.649 98.8501 141.584 96.2094 143.603 94.1919L162.146 75.5921C163.426 74.3127 164.985 73.4598 166.642 73.017L166.593 72.9842ZM151.315 108.675L176.455 83.5142C177.39 82.5793 177.719 81.4476 177.653 80.1846C177.604 78.8069 177.128 77.6423 176.143 76.6582C175.159 75.6741 173.994 75.182 172.615 75.1328C171.352 75.0672 170.252 75.4117 169.317 76.3466L144.554 101.163C143.619 102.098 143.143 103.262 143.192 104.624C143.242 106.001 143.717 107.166 144.702 108.15C145.687 109.134 146.852 109.626 148.23 109.659C149.362 109.675 150.396 109.364 151.315 108.659V108.675ZM159.011 44.1823L133.904 18.9724C132.969 18.0375 131.853 17.7094 130.59 17.775C129.228 17.8242 128.046 18.2999 127.061 19.284C126.077 20.2681 125.585 21.4491 125.552 22.8105C125.486 24.0734 125.831 25.1723 126.766 26.1073L151.529 50.9235C152.464 51.8584 153.629 52.334 154.975 52.3012C156.337 52.252 157.518 51.7764 158.503 50.7923C159.487 49.8081 159.98 48.6272 160.012 47.2658C160.029 46.1341 159.717 45.1008 159.011 44.1823ZM58.5175 84.7608C59.4037 84.81 60.3062 84.5312 61.0282 83.9243C61.1103 83.8423 61.2087 83.8095 61.3236 83.7931C61.5862 83.7767 61.8159 83.9735 61.8323 84.2523C61.9308 85.8925 62.341 87.4999 63.0138 88.9925C63.6866 90.4687 64.622 91.8465 65.7871 93.011L102.184 129.538C103.448 130.818 104.908 131.785 106.484 132.458C108.092 133.13 109.831 133.508 111.62 133.54C111.735 133.54 111.85 133.573 111.932 133.655C112.128 133.836 112.145 134.131 111.981 134.344L111.735 134.623C111.095 135.361 110.799 136.279 110.832 137.182C110.865 138.084 111.242 138.969 111.948 139.658L114.262 141.889C114.754 142.365 115.246 142.807 115.771 143.185C116.28 143.546 116.838 143.824 117.478 143.988C118.167 144.169 118.676 144.152 119.267 144.136H119.956H125.978C126.159 144.136 126.421 144.136 126.668 144.136C127.258 144.152 127.767 144.169 128.456 143.988C129.096 143.824 129.654 143.546 130.163 143.185C130.688 142.824 131.18 142.381 131.673 141.889L133.986 139.658C134.692 138.986 135.069 138.1 135.102 137.182C135.135 136.279 134.84 135.361 134.2 134.623V134.59C134.101 134.508 134.052 134.41 134.036 134.278C134.019 134.016 134.216 133.786 134.479 133.77C134.692 133.77 134.905 133.754 135.119 133.721C136.694 133.557 138.155 133.163 139.533 132.523C140.895 131.884 142.159 130.998 143.307 129.883C155.549 117.811 167.627 105.477 179.753 93.3062C181.001 92.0597 181.969 90.5999 182.642 89.0089C183.314 87.4015 183.692 85.6793 183.725 83.9243C183.725 83.8095 183.757 83.6947 183.84 83.6127C184.02 83.4158 184.315 83.3994 184.512 83.5635L184.841 83.8423C185.579 84.482 186.482 84.7772 187.384 84.7444C188.287 84.7116 189.173 84.3343 189.846 83.6291L192.077 81.3C192.553 80.8079 192.996 80.3159 193.357 79.7746C193.702 79.2661 193.997 78.7085 194.161 78.0524C194.342 77.3635 194.325 76.8386 194.309 76.2482V75.5593V69.5233C194.309 69.3265 194.309 69.0805 194.309 68.8345C194.325 68.244 194.342 67.7355 194.161 67.0302C193.997 66.3906 193.718 65.8329 193.357 65.308C192.996 64.7832 192.553 64.2911 192.077 63.7826L189.846 61.4536C189.173 60.7483 188.287 60.371 187.384 60.3382C186.482 60.3054 185.579 60.6007 184.841 61.2239L184.808 61.2567C184.808 61.2567 184.627 61.388 184.512 61.388C184.25 61.4044 184.02 61.2075 184.004 60.9451C184.004 60.7319 183.971 60.5187 183.954 60.3054C183.79 58.7308 183.396 57.2546 182.756 55.8933C182.116 54.5319 181.247 53.269 180.147 52.1372C167.922 40.8526 155.5 27.4686 143.635 15.5772C142.388 14.3306 140.928 13.3629 139.352 12.6904C137.761 12.0179 136.038 11.6407 134.282 11.5915C134.167 11.5915 134.052 11.5587 133.97 11.4767C133.773 11.2963 133.757 11.001 133.921 10.7878L134.2 10.4597C134.84 9.72166 135.135 8.80315 135.102 7.90104C135.069 6.99893 134.692 6.11322 133.986 5.42434L131.673 3.19366C131.18 2.71801 130.688 2.27515 130.163 1.89791C129.654 1.53706 129.096 1.25823 128.456 1.09421C127.767 0.913786 127.258 0.930188 126.651 0.94659H125.978H119.956C119.775 0.94659 119.513 0.94659 119.283 0.94659C118.692 0.930188 118.184 0.913786 117.478 1.09421C116.838 1.25823 116.28 1.53706 115.771 1.89791C115.246 2.25875 114.754 2.7016 114.262 3.19366L111.948 5.42434C111.259 6.09682 110.881 6.96612 110.832 7.85183C110.783 8.73754 111.062 9.63965 111.669 10.3777C111.751 10.4597 111.784 10.5582 111.8 10.673C111.8 10.9354 111.62 11.165 111.341 11.1814C109.7 11.2798 108.092 11.6899 106.615 12.3624C105.138 13.0349 103.776 13.9698 102.611 15.1343L66.1645 51.6288C64.901 52.8917 63.9164 54.3679 63.26 55.9425C62.5872 57.5499 62.2097 59.2885 62.1769 61.0927C62.1769 61.2075 62.1441 61.3223 62.062 61.4044C61.8815 61.6012 61.5862 61.6176 61.3892 61.4536L61.1103 61.2075C60.3718 60.5679 59.4693 60.2726 58.5668 60.3054C57.6642 60.3382 56.7781 60.7155 56.1053 61.4208L53.8735 63.7498C53.3977 64.2419 52.9546 64.734 52.5936 65.2752C52.249 65.7837 51.9536 66.3414 51.7895 66.9974C51.609 67.6863 51.6254 68.1948 51.6418 68.7853C51.6418 69.0313 51.6582 69.2773 51.6582 69.4741V75.5101C51.6582 75.6905 51.6582 75.9529 51.6582 76.199C51.6418 76.7894 51.6254 77.3143 51.8059 78.0032C51.97 78.6429 52.249 79.2005 52.61 79.7254C52.971 80.2503 53.4141 80.7423 53.8899 81.2508L56.1217 83.5799C56.7781 84.2687 57.6642 84.646 58.5503 84.6952L58.5175 84.7608Z" fill="#071E46"/>
</svg>
