<svg width="179" height="250" viewBox="0 0 179 250" fill="none" xmlns="http://www.w3.org/2000/svg">
<path d="M89.5 0C40.0701 0 0 40.1816 0 89.749C0 124.863 20.1083 155.266 49.4083 170.011L83.5289 229.288C86.1826 233.898 92.8187 233.898 95.4724 229.288L129.593 170.011C158.892 155.265 179.001 124.861 179.001 89.749C179 40.1816 138.93 0 89.5 0ZM89.5 149.342C56.6788 149.342 30.072 122.663 30.072 89.749C30.072 56.8352 56.6788 30.1557 89.5 30.1557C122.321 30.1557 148.928 56.8352 148.928 89.749C148.928 122.663 122.321 149.342 89.5 149.342Z" fill="#34A853"/>
<path d="M89.501 23.353C52.9343 23.353 23.2891 53.0807 23.2891 89.7491C23.2891 126.418 52.9343 156.145 89.501 156.145C126.068 156.145 155.713 126.418 155.713 89.7491C155.713 53.0807 126.068 23.353 89.501 23.353ZM89.501 148.589C57.0951 148.589 30.8246 122.246 30.8246 89.7491C30.8246 57.2518 57.0938 30.9095 89.501 30.9095C121.908 30.9095 148.177 57.2518 148.177 89.7491C148.177 122.246 121.907 148.589 89.501 148.589Z" fill="#1F7533"/>
<path d="M78.4093 120.821C76.8576 120.821 75.3632 120.205 74.2587 119.096L60.5597 105.36C58.2666 103.061 58.2666 99.3329 60.5597 97.0347C62.8528 94.7351 66.5703 94.7351 68.8621 97.0347L77.7659 105.963L109.584 63.2649C111.526 60.6601 115.204 60.1274 117.802 62.073C120.399 64.02 120.93 67.7081 118.99 70.313L83.1127 118.459C82.0923 119.827 80.5304 120.684 78.8309 120.807C78.6895 120.816 78.5494 120.821 78.4093 120.821Z" fill="#34A853"/>
<path d="M89.5003 250C103.959 250 115.68 248.256 115.68 246.104C115.68 243.952 103.959 242.207 89.5003 242.207C75.0415 242.207 63.3203 243.952 63.3203 246.104C63.3203 248.256 75.0415 250 89.5003 250Z" fill="black" fill-opacity="0.1"/>
</svg>
