<svg width="30" height="30" viewBox="0 0 30 30" fill="none" xmlns="http://www.w3.org/2000/svg">
<path d="M24.0529 6.0831H5.9527C3.59345 6.0831 1.68167 7.99529 1.68167 10.3541V22.4735C1.68167 24.8323 3.59345 26.7445 5.9527 26.7445H9.21206V31.1887C9.21206 31.2167 9.24365 31.233 9.26644 31.2167L15.9391 26.7933L17.6126 26.7621H22.3079L24.0529 26.7445C26.4118 26.7445 28.3239 24.8323 28.3239 22.4735V10.3541C28.3239 7.99529 26.4118 6.0831 24.0529 6.0831ZM8.59185 12.5034C8.59185 11.323 9.54875 10.3657 10.7296 10.3657C11.91 10.3657 12.8669 11.323 12.8669 12.5034C12.8669 13.6843 11.91 14.6412 10.7296 14.6412C9.54875 14.6412 8.59185 13.6843 8.59185 12.5034ZM14.9042 23.1856C12.1943 23.1856 9.95582 21.2866 9.61353 18.827H20.1953C19.8526 21.2866 17.6146 23.1856 14.9042 23.1856ZM19.3028 14.6412C18.1224 14.6412 17.1651 13.6843 17.1651 12.5034C17.1651 11.323 18.1224 10.3657 19.3028 10.3657C20.4836 10.3657 21.4405 11.323 21.4405 12.5034C21.4405 13.6843 20.4836 14.6412 19.3028 14.6412ZM29.2065 20.3509V12.7006H30.2653C31.0407 12.7006 31.6693 13.3292 31.6693 14.1045V18.9474C31.6693 19.7227 31.0407 20.3513 30.2653 20.3513H29.2065V20.3509ZM-1.66406 18.9474V14.1045C-1.66406 13.3292 -1.03546 12.7006 -0.260112 12.7006H0.798749V20.3513H-0.260112C-1.03546 20.3509 -1.66406 19.7223 -1.66406 18.9474ZM16.9812 0.562863C16.9812 1.49976 16.3578 2.29351 15.504 2.55143V4.34645H14.3044V2.55143C13.4507 2.29351 12.8273 1.49976 12.8273 0.562863C12.8273 -0.58197 13.759 -1.51367 14.9042 -1.51367C16.0495 -1.51367 16.9812 -0.58197 16.9812 0.562863Z" fill="#0A1937"/>
</svg>
