<svg width="245" height="70" viewBox="0 0 245 70" fill="none" xmlns="http://www.w3.org/2000/svg">
<path d="M107.076 58.0253C106.643 58.0253 106.266 57.9419 105.946 57.7753C105.633 57.6086 105.383 57.3853 105.196 57.1053C105.016 56.8186 104.903 56.5086 104.856 56.1753H105.636C105.709 56.5286 105.873 56.8053 106.126 57.0053C106.379 57.1986 106.699 57.2953 107.086 57.2953C107.439 57.2953 107.749 57.1919 108.016 56.9853C108.283 56.7719 108.499 56.4519 108.666 56.0253C108.833 55.5986 108.929 55.0586 108.956 54.4053C108.956 54.3719 108.956 54.3386 108.956 54.3053C108.956 54.2719 108.956 54.2353 108.956 54.1953C108.863 54.4086 108.723 54.6053 108.536 54.7853C108.349 54.9653 108.123 55.1119 107.856 55.2253C107.596 55.3319 107.303 55.3853 106.976 55.3853C106.589 55.3853 106.223 55.2919 105.876 55.1053C105.536 54.9186 105.259 54.6586 105.046 54.3253C104.839 53.9853 104.736 53.5886 104.736 53.1353C104.736 52.7419 104.833 52.3653 105.026 52.0053C105.219 51.6453 105.489 51.3519 105.836 51.1253C106.189 50.8986 106.606 50.7853 107.086 50.7853C107.586 50.7853 108.006 50.8786 108.346 51.0653C108.693 51.2519 108.966 51.5053 109.166 51.8253C109.373 52.1386 109.523 52.4953 109.616 52.8953C109.709 53.2953 109.756 53.7053 109.756 54.1253C109.756 54.8919 109.649 55.5686 109.436 56.1553C109.229 56.7419 108.926 57.2019 108.526 57.5353C108.133 57.8619 107.649 58.0253 107.076 58.0253ZM107.146 54.6553C107.446 54.6553 107.716 54.5886 107.956 54.4553C108.203 54.3153 108.396 54.1286 108.536 53.8953C108.676 53.6553 108.746 53.3853 108.746 53.0853C108.746 52.7719 108.676 52.4986 108.536 52.2653C108.396 52.0319 108.203 51.8519 107.956 51.7253C107.716 51.5919 107.446 51.5253 107.146 51.5253C106.853 51.5253 106.589 51.5919 106.356 51.7253C106.123 51.8586 105.936 52.0419 105.796 52.2753C105.656 52.5086 105.586 52.7819 105.586 53.0953C105.586 53.4086 105.656 53.6819 105.796 53.9153C105.936 54.1486 106.123 54.3319 106.356 54.4653C106.589 54.5919 106.853 54.6553 107.146 54.6553ZM113.782 57.9053V50.9053H118.112V51.5953H114.622V54.0353H117.812V54.7153H114.622V57.2153H118.112V57.9053H113.782ZM119.405 57.9053V52.6853H120.165L120.205 53.4053C120.365 53.1453 120.582 52.9419 120.855 52.7953C121.129 52.6419 121.415 52.5653 121.715 52.5653C121.975 52.5653 122.205 52.6019 122.405 52.6753C122.612 52.7419 122.792 52.8486 122.945 52.9953C123.099 53.1353 123.225 53.3153 123.325 53.5353C123.499 53.2219 123.732 52.9819 124.025 52.8153C124.325 52.6486 124.642 52.5653 124.975 52.5653C125.362 52.5653 125.692 52.6419 125.965 52.7953C126.245 52.9486 126.462 53.1786 126.615 53.4853C126.769 53.7919 126.845 54.1753 126.845 54.6353V57.9053H126.015V54.7253C126.015 54.2453 125.912 53.8853 125.705 53.6453C125.499 53.4053 125.215 53.2853 124.855 53.2853C124.615 53.2853 124.395 53.3519 124.195 53.4853C123.995 53.6119 123.835 53.8019 123.715 54.0553C123.602 54.3019 123.545 54.6053 123.545 54.9653V57.9053H122.705V54.7253C122.705 54.2453 122.602 53.8853 122.395 53.6453C122.189 53.4053 121.909 53.2853 121.555 53.2853C121.315 53.2853 121.095 53.3519 120.895 53.4853C120.702 53.6119 120.545 53.8019 120.425 54.0553C120.305 54.3019 120.245 54.6053 120.245 54.9653V57.9053H119.405ZM130.474 58.0253C129.987 58.0253 129.557 57.9153 129.184 57.6953C128.811 57.4686 128.521 57.1519 128.314 56.7453C128.107 56.3319 128.004 55.8486 128.004 55.2953C128.004 54.7419 128.107 54.2619 128.314 53.8553C128.527 53.4486 128.821 53.1319 129.194 52.9053C129.574 52.6786 130.007 52.5653 130.494 52.5653C130.981 52.5653 131.407 52.6786 131.774 52.9053C132.147 53.1319 132.437 53.4486 132.644 53.8553C132.857 54.2619 132.964 54.7419 132.964 55.2953C132.964 55.8486 132.857 56.3319 132.644 56.7453C132.431 57.1519 132.137 57.4686 131.764 57.6953C131.391 57.9153 130.961 58.0253 130.474 58.0253ZM130.474 57.3053C130.774 57.3053 131.047 57.2319 131.294 57.0853C131.541 56.9319 131.737 56.7053 131.884 56.4053C132.031 56.1053 132.104 55.7353 132.104 55.2953C132.104 54.8486 132.031 54.4786 131.884 54.1853C131.744 53.8853 131.551 53.6619 131.304 53.5153C131.064 53.3619 130.794 53.2853 130.494 53.2853C130.194 53.2853 129.921 53.3619 129.674 53.5153C129.427 53.6619 129.231 53.8853 129.084 54.1853C128.937 54.4786 128.864 54.8486 128.864 55.2953C128.864 55.7353 128.934 56.1053 129.074 56.4053C129.221 56.7053 129.414 56.9319 129.654 57.0853C129.901 57.2319 130.174 57.3053 130.474 57.3053ZM136.006 57.9053C135.706 57.9053 135.446 57.8586 135.226 57.7653C135.006 57.6719 134.836 57.5153 134.716 57.2953C134.602 57.0686 134.546 56.7653 134.546 56.3853V53.3953H133.626V52.6853H134.546L134.656 51.3953H135.386V52.6853H136.866V53.3953H135.386V56.3853C135.386 56.6986 135.449 56.9119 135.576 57.0253C135.702 57.1319 135.926 57.1853 136.246 57.1853H136.836V57.9053H136.006ZM138.089 57.9053V52.6853H138.929V57.9053H138.089ZM138.509 51.6753C138.342 51.6753 138.202 51.6219 138.089 51.5153C137.982 51.4019 137.929 51.2619 137.929 51.0953C137.929 50.9286 137.982 50.7953 138.089 50.6953C138.202 50.5886 138.342 50.5353 138.509 50.5353C138.669 50.5353 138.805 50.5886 138.919 50.6953C139.032 50.7953 139.089 50.9286 139.089 51.0953C139.089 51.2619 139.032 51.4019 138.919 51.5153C138.805 51.6219 138.669 51.6753 138.509 51.6753ZM142.681 58.0253C142.194 58.0253 141.764 57.9153 141.391 57.6953C141.018 57.4686 140.728 57.1519 140.521 56.7453C140.314 56.3319 140.211 55.8486 140.211 55.2953C140.211 54.7419 140.314 54.2619 140.521 53.8553C140.734 53.4486 141.028 53.1319 141.401 52.9053C141.781 52.6786 142.214 52.5653 142.701 52.5653C143.188 52.5653 143.614 52.6786 143.981 52.9053C144.354 53.1319 144.644 53.4486 144.851 53.8553C145.064 54.2619 145.171 54.7419 145.171 55.2953C145.171 55.8486 145.064 56.3319 144.851 56.7453C144.638 57.1519 144.344 57.4686 143.971 57.6953C143.598 57.9153 143.168 58.0253 142.681 58.0253ZM142.681 57.3053C142.981 57.3053 143.254 57.2319 143.501 57.0853C143.748 56.9319 143.944 56.7053 144.091 56.4053C144.238 56.1053 144.311 55.7353 144.311 55.2953C144.311 54.8486 144.238 54.4786 144.091 54.1853C143.951 53.8853 143.758 53.6619 143.511 53.5153C143.271 53.3619 143.001 53.2853 142.701 53.2853C142.401 53.2853 142.128 53.3619 141.881 53.5153C141.634 53.6619 141.438 53.8853 141.291 54.1853C141.144 54.4786 141.071 54.8486 141.071 55.2953C141.071 55.7353 141.141 56.1053 141.281 56.4053C141.428 56.7053 141.621 56.9319 141.861 57.0853C142.108 57.2319 142.381 57.3053 142.681 57.3053ZM146.378 57.9053V52.6853H147.138L147.178 53.5253C147.331 53.2253 147.551 52.9919 147.838 52.8253C148.131 52.6519 148.468 52.5653 148.848 52.5653C149.241 52.5653 149.581 52.6419 149.868 52.7953C150.155 52.9419 150.378 53.1686 150.538 53.4753C150.698 53.7753 150.778 54.1586 150.778 54.6253V57.9053H149.938V54.7153C149.938 54.2419 149.821 53.8853 149.588 53.6453C149.361 53.4053 149.051 53.2853 148.658 53.2853C148.398 53.2853 148.158 53.3486 147.938 53.4753C147.718 53.6019 147.541 53.7886 147.408 54.0353C147.281 54.2753 147.218 54.5719 147.218 54.9253V57.9053H146.378ZM154.049 58.0253C153.583 58.0253 153.193 57.9553 152.879 57.8153C152.573 57.6686 152.336 57.4686 152.169 57.2153C152.009 56.9619 151.913 56.6653 151.879 56.3253H152.739C152.766 56.4986 152.829 56.6619 152.929 56.8153C153.029 56.9619 153.169 57.0819 153.349 57.1753C153.536 57.2686 153.773 57.3153 154.059 57.3153C154.286 57.3153 154.479 57.2819 154.639 57.2153C154.799 57.1419 154.919 57.0419 154.999 56.9153C155.079 56.7886 155.119 56.6453 155.119 56.4853C155.119 56.2719 155.069 56.1053 154.969 55.9853C154.876 55.8653 154.736 55.7753 154.549 55.7153C154.369 55.6486 154.143 55.5953 153.869 55.5553C153.589 55.5153 153.336 55.4619 153.109 55.3953C152.889 55.3219 152.699 55.2253 152.539 55.1053C152.386 54.9853 152.266 54.8386 152.179 54.6653C152.099 54.4853 152.059 54.2753 152.059 54.0353C152.059 53.7486 152.133 53.4953 152.279 53.2753C152.433 53.0553 152.649 52.8819 152.929 52.7553C153.216 52.6286 153.549 52.5653 153.929 52.5653C154.489 52.5653 154.936 52.6953 155.269 52.9553C155.603 53.2153 155.799 53.5886 155.859 54.0753H155.029C154.996 53.8286 154.883 53.6353 154.689 53.4953C154.496 53.3486 154.239 53.2753 153.919 53.2753C153.586 53.2753 153.333 53.3386 153.159 53.4653C152.993 53.5919 152.909 53.7586 152.909 53.9653C152.909 54.1186 152.946 54.2553 153.019 54.3753C153.099 54.4953 153.233 54.5953 153.419 54.6753C153.606 54.7553 153.849 54.8153 154.149 54.8553C154.529 54.9086 154.856 54.9853 155.129 55.0853C155.403 55.1853 155.613 55.3419 155.759 55.5553C155.913 55.7619 155.986 56.0486 155.979 56.4153C155.979 56.7553 155.899 57.0453 155.739 57.2853C155.579 57.5253 155.353 57.7086 155.059 57.8353C154.773 57.9619 154.436 58.0253 154.049 58.0253ZM157.548 57.9553C157.388 57.9553 157.251 57.9019 157.138 57.7953C157.031 57.6819 156.978 57.5453 156.978 57.3853C156.978 57.2253 157.031 57.0919 157.138 56.9853C157.251 56.8719 157.388 56.8153 157.548 56.8153C157.721 56.8153 157.858 56.8719 157.958 56.9853C158.064 57.0919 158.118 57.2253 158.118 57.3853C158.118 57.5453 158.064 57.6819 157.958 57.7953C157.858 57.9019 157.721 57.9553 157.548 57.9553ZM165.014 58.0253C164.367 58.0253 163.797 57.8753 163.304 57.5753C162.811 57.2686 162.427 56.8453 162.154 56.3053C161.881 55.7586 161.744 55.1253 161.744 54.4053C161.744 53.6919 161.881 53.0653 162.154 52.5253C162.427 51.9786 162.811 51.5519 163.304 51.2453C163.797 50.9386 164.367 50.7853 165.014 50.7853C165.674 50.7853 166.247 50.9386 166.734 51.2453C167.227 51.5519 167.607 51.9786 167.874 52.5253C168.147 53.0653 168.284 53.6919 168.284 54.4053C168.284 55.1253 168.147 55.7586 167.874 56.3053C167.607 56.8453 167.227 57.2686 166.734 57.5753C166.247 57.8753 165.674 58.0253 165.014 58.0253ZM165.014 57.2853C165.501 57.2853 165.924 57.1719 166.284 56.9453C166.644 56.7119 166.924 56.3819 167.124 55.9553C167.324 55.5219 167.424 55.0053 167.424 54.4053C167.424 53.8053 167.324 53.2919 167.124 52.8653C166.924 52.4319 166.644 52.1019 166.284 51.8753C165.924 51.6486 165.501 51.5353 165.014 51.5353C164.534 51.5353 164.111 51.6486 163.744 51.8753C163.384 52.1019 163.104 52.4319 162.904 52.8653C162.704 53.2919 162.604 53.8053 162.604 54.4053C162.604 55.0053 162.704 55.5219 162.904 55.9553C163.104 56.3819 163.384 56.7119 163.744 56.9453C164.111 57.1719 164.534 57.2853 165.014 57.2853ZM169.483 57.9053V52.6853H170.243L170.283 53.5253C170.437 53.2253 170.657 52.9919 170.943 52.8253C171.237 52.6519 171.573 52.5653 171.953 52.5653C172.347 52.5653 172.687 52.6419 172.973 52.7953C173.26 52.9419 173.483 53.1686 173.643 53.4753C173.803 53.7753 173.883 54.1586 173.883 54.6253V57.9053H173.043V54.7153C173.043 54.2419 172.927 53.8853 172.693 53.6453C172.467 53.4053 172.157 53.2853 171.763 53.2853C171.503 53.2853 171.263 53.3486 171.043 53.4753C170.823 53.6019 170.647 53.7886 170.513 54.0353C170.387 54.2753 170.323 54.5719 170.323 54.9253V57.9053H169.483ZM177.435 58.0253C176.968 58.0253 176.555 57.9119 176.195 57.6853C175.835 57.4586 175.552 57.1419 175.345 56.7353C175.145 56.3219 175.045 55.8419 175.045 55.2953C175.045 54.7486 175.145 54.2719 175.345 53.8653C175.552 53.4519 175.835 53.1319 176.195 52.9053C176.562 52.6786 176.982 52.5653 177.455 52.5653C177.962 52.5653 178.385 52.6786 178.725 52.9053C179.065 53.1319 179.322 53.4353 179.495 53.8153C179.675 54.1886 179.765 54.5986 179.765 55.0453C179.765 55.1119 179.765 55.1786 179.765 55.2453C179.765 55.3119 179.762 55.3919 179.755 55.4853H175.675V54.8353H178.945C178.932 54.3353 178.782 53.9519 178.495 53.6853C178.215 53.4119 177.862 53.2753 177.435 53.2753C177.155 53.2753 176.895 53.3453 176.655 53.4853C176.422 53.6186 176.232 53.8186 176.085 54.0853C175.938 54.3453 175.865 54.6719 175.865 55.0653V55.3453C175.865 55.7786 175.938 56.1419 176.085 56.4353C176.232 56.7286 176.422 56.9486 176.655 57.0953C176.895 57.2419 177.155 57.3153 177.435 57.3153C177.808 57.3153 178.102 57.2419 178.315 57.0953C178.535 56.9486 178.695 56.7419 178.795 56.4753H179.625C179.545 56.7686 179.405 57.0353 179.205 57.2753C179.012 57.5086 178.765 57.6919 178.465 57.8253C178.172 57.9586 177.828 58.0253 177.435 58.0253ZM185.885 58.0253C185.371 58.0253 184.925 57.9319 184.545 57.7453C184.165 57.5586 183.871 57.2986 183.665 56.9653C183.458 56.6319 183.355 56.2453 183.355 55.8053H184.235C184.235 56.0786 184.298 56.3319 184.425 56.5653C184.551 56.7919 184.735 56.9753 184.975 57.1153C185.221 57.2486 185.525 57.3153 185.885 57.3153C186.198 57.3153 186.465 57.2653 186.685 57.1653C186.911 57.0586 187.081 56.9153 187.195 56.7353C187.315 56.5553 187.375 56.3519 187.375 56.1253C187.375 55.8653 187.318 55.6519 187.205 55.4853C187.098 55.3119 186.948 55.1719 186.755 55.0653C186.561 54.9586 186.335 54.8619 186.075 54.7753C185.821 54.6886 185.548 54.5986 185.255 54.5053C184.675 54.3186 184.251 54.0853 183.985 53.8053C183.725 53.5186 183.595 53.1519 183.595 52.7053C183.595 52.3253 183.681 51.9919 183.855 51.7053C184.035 51.4186 184.288 51.1953 184.615 51.0353C184.948 50.8686 185.341 50.7853 185.795 50.7853C186.241 50.7853 186.628 50.8686 186.955 51.0353C187.288 51.2019 187.548 51.4319 187.735 51.7253C187.921 52.0119 188.015 52.3453 188.015 52.7253H187.135C187.135 52.5319 187.085 52.3419 186.985 52.1553C186.885 51.9686 186.731 51.8153 186.525 51.6953C186.325 51.5686 186.071 51.5053 185.765 51.5053C185.511 51.4986 185.285 51.5419 185.085 51.6353C184.891 51.7219 184.738 51.8486 184.625 52.0153C184.518 52.1819 184.465 52.3853 184.465 52.6253C184.465 52.8519 184.511 53.0353 184.605 53.1753C184.705 53.3153 184.845 53.4353 185.025 53.5353C185.211 53.6286 185.428 53.7153 185.675 53.7953C185.921 53.8753 186.195 53.9653 186.495 54.0653C186.835 54.1786 187.135 54.3186 187.395 54.4853C187.661 54.6453 187.868 54.8519 188.015 55.1053C188.168 55.3586 188.245 55.6819 188.245 56.0753C188.245 56.4086 188.155 56.7253 187.975 57.0253C187.801 57.3186 187.541 57.5586 187.195 57.7453C186.848 57.9319 186.411 58.0253 185.885 58.0253ZM189.444 60.1053V52.6853H190.204L190.274 53.5053C190.381 53.3386 190.514 53.1853 190.674 53.0453C190.841 52.9053 191.038 52.7919 191.264 52.7053C191.498 52.6119 191.764 52.5653 192.064 52.5653C192.544 52.5653 192.961 52.6853 193.314 52.9253C193.674 53.1653 193.954 53.4919 194.154 53.9053C194.354 54.3119 194.454 54.7786 194.454 55.3053C194.454 55.8319 194.354 56.3019 194.154 56.7153C193.954 57.1219 193.674 57.4419 193.314 57.6753C192.954 57.9086 192.534 58.0253 192.054 58.0253C191.648 58.0253 191.291 57.9419 190.984 57.7753C190.678 57.6086 190.444 57.3753 190.284 57.0753V60.1053H189.444ZM191.954 57.2953C192.274 57.2953 192.554 57.2153 192.794 57.0553C193.041 56.8886 193.234 56.6553 193.374 56.3553C193.521 56.0553 193.594 55.7019 193.594 55.2953C193.594 54.8886 193.521 54.5353 193.374 54.2353C193.234 53.9353 193.041 53.7053 192.794 53.5453C192.554 53.3786 192.274 53.2953 191.954 53.2953C191.621 53.2953 191.331 53.3786 191.084 53.5453C190.838 53.7053 190.648 53.9353 190.514 54.2353C190.381 54.5353 190.314 54.8886 190.314 55.2953C190.314 55.7019 190.381 56.0553 190.514 56.3553C190.648 56.6553 190.838 56.8886 191.084 57.0553C191.331 57.2153 191.621 57.2953 191.954 57.2953ZM197.315 58.0253C196.915 58.0253 196.578 57.9519 196.305 57.8053C196.038 57.6519 195.838 57.4519 195.705 57.2053C195.572 56.9586 195.505 56.6919 195.505 56.4053C195.505 56.0653 195.592 55.7753 195.765 55.5353C195.945 55.2886 196.195 55.1019 196.515 54.9753C196.835 54.8486 197.212 54.7853 197.645 54.7853H198.955C198.955 54.4519 198.912 54.1753 198.825 53.9553C198.745 53.7286 198.615 53.5586 198.435 53.4453C198.255 53.3319 198.018 53.2753 197.725 53.2753C197.418 53.2753 197.155 53.3519 196.935 53.5053C196.722 53.6586 196.588 53.8853 196.535 54.1853H195.675C195.715 53.8319 195.832 53.5386 196.025 53.3053C196.225 53.0653 196.475 52.8819 196.775 52.7553C197.075 52.6286 197.392 52.5653 197.725 52.5653C198.198 52.5653 198.588 52.6519 198.895 52.8253C199.202 52.9919 199.428 53.2286 199.575 53.5353C199.722 53.8353 199.795 54.1919 199.795 54.6053V57.9053H199.045L198.995 57.0053C198.928 57.1453 198.842 57.2786 198.735 57.4053C198.635 57.5253 198.515 57.6319 198.375 57.7253C198.235 57.8186 198.075 57.8919 197.895 57.9453C197.722 57.9986 197.528 58.0253 197.315 58.0253ZM197.435 57.3153C197.655 57.3153 197.858 57.2653 198.045 57.1653C198.238 57.0653 198.402 56.9319 198.535 56.7653C198.668 56.5919 198.772 56.4019 198.845 56.1953C198.918 55.9819 198.955 55.7586 198.955 55.5253V55.4353H197.715C197.395 55.4353 197.135 55.4753 196.935 55.5553C196.742 55.6353 196.602 55.7486 196.515 55.8953C196.428 56.0353 196.385 56.1919 196.385 56.3653C196.385 56.5586 196.425 56.7253 196.505 56.8653C196.585 57.0053 196.705 57.1153 196.865 57.1953C197.025 57.2753 197.215 57.3153 197.435 57.3153ZM201.173 57.9053V52.6853H201.933L201.993 53.6453C202.113 53.4119 202.266 53.2153 202.453 53.0553C202.646 52.8953 202.876 52.7753 203.143 52.6953C203.416 52.6086 203.723 52.5653 204.063 52.5653V53.4453H203.583C203.383 53.4453 203.19 53.4753 203.003 53.5353C202.816 53.5886 202.646 53.6753 202.493 53.7953C202.346 53.9153 202.23 54.0819 202.143 54.2953C202.056 54.5019 202.013 54.7619 202.013 55.0753V57.9053H201.173ZM208.12 57.9053L205.73 55.0853L207.97 52.6853H209L206.44 55.3853L206.45 54.7853L209.19 57.9053H208.12ZM205.03 57.9053V50.7053H205.87V57.9053H205.03ZM210.079 57.9053V50.7053H210.919V57.9053H210.079ZM214.505 58.0253C214.039 58.0253 213.625 57.9119 213.265 57.6853C212.905 57.4586 212.622 57.1419 212.415 56.7353C212.215 56.3219 212.115 55.8419 212.115 55.2953C212.115 54.7486 212.215 54.2719 212.415 53.8653C212.622 53.4519 212.905 53.1319 213.265 52.9053C213.632 52.6786 214.052 52.5653 214.525 52.5653C215.032 52.5653 215.455 52.6786 215.795 52.9053C216.135 53.1319 216.392 53.4353 216.565 53.8153C216.745 54.1886 216.835 54.5986 216.835 55.0453C216.835 55.1119 216.835 55.1786 216.835 55.2453C216.835 55.3119 216.832 55.3919 216.825 55.4853H212.745V54.8353H216.015C216.002 54.3353 215.852 53.9519 215.565 53.6853C215.285 53.4119 214.932 53.2753 214.505 53.2753C214.225 53.2753 213.965 53.3453 213.725 53.4853C213.492 53.6186 213.302 53.8186 213.155 54.0853C213.009 54.3453 212.935 54.6719 212.935 55.0653V55.3453C212.935 55.7786 213.009 56.1419 213.155 56.4353C213.302 56.7286 213.492 56.9486 213.725 57.0953C213.965 57.2419 214.225 57.3153 214.505 57.3153C214.879 57.3153 215.172 57.2419 215.385 57.0953C215.605 56.9486 215.765 56.7419 215.865 56.4753H216.695C216.615 56.7686 216.475 57.0353 216.275 57.2753C216.082 57.5086 215.835 57.6919 215.535 57.8253C215.242 57.9586 214.899 58.0253 214.505 58.0253Z" fill="white"/>
<path fill-rule="evenodd" clip-rule="evenodd" d="M83.4891 43.4398C84.4384 43.9832 85.6077 44.2838 87.0201 44.3531C87.1822 44.3531 87.3674 44.3531 87.5295 44.3531C88.9534 44.3531 90.169 44.0988 91.1762 43.6132C92.1834 43.116 92.6812 42.5148 92.6812 41.8327V35.0692H87.8652C88.9997 35.1617 89.6712 35.5317 89.8333 36.156V42.6073C89.8333 43.012 89.5554 43.3242 89.0924 43.5785C88.6409 43.8444 88.0736 43.9832 87.4369 44.0063C87.2285 44.0063 87.0085 44.0063 86.8233 43.9832C86.3255 43.9138 85.8856 43.7866 85.5382 43.5785C85.0636 43.3126 84.7973 43.0004 84.7973 42.5958V24.317C84.8089 23.9123 85.052 23.5655 85.5498 23.288C86.0129 23.0452 86.4412 22.9065 86.8233 22.8833C87.2169 22.8602 87.4716 22.8602 87.5874 22.8602C88.0852 22.8602 88.5946 22.9065 89.0924 23.0105C89.7291 23.1261 90.2616 23.2995 90.7016 23.5076C91.5814 23.9354 92.0098 24.4441 92.0098 25.0453V25.9471C91.8245 26.583 91.1646 26.9414 90.0301 27.0455H91.6856H92.6696V25.0453C92.6696 24.3632 92.1834 23.762 91.1762 23.2764C90.088 22.7793 88.8608 22.5134 87.4832 22.5134H87.2864C85.8392 22.5365 84.5889 22.8486 83.5123 23.4267C82.5282 23.9817 81.9494 24.7679 81.9494 25.6234V41.2315C81.9378 42.0986 82.5167 42.8617 83.5007 43.4398H83.4891ZM104.073 23.4614C103.1 22.8833 101.769 22.548 100.276 22.548C98.7823 22.548 97.4509 22.8833 96.49 23.4614C95.506 24.0164 94.904 24.8025 94.904 25.6581V33.6009C94.904 34.468 95.506 35.2311 96.49 35.7976C97.4509 36.3525 98.8054 36.6994 100.276 36.6994C101.179 36.6994 102.024 36.5722 102.799 36.341V41.6015C102.799 41.9368 102.776 42.2952 102.707 42.6536C102.626 43.0698 102.406 43.3704 102.059 43.5901C101.271 44.0178 100.577 44.0178 100.253 44.0178C99.9284 44.0178 99.639 43.9832 99.3264 43.9138C98.4234 43.7288 97.7403 43.2779 97.7403 42.6305V40.8269C97.9256 40.1678 98.5739 39.7863 99.7084 39.6823H94.9156V41.8443C94.9503 42.5611 95.4365 43.1507 96.4206 43.6247C97.1615 43.9832 97.8677 44.1913 98.5276 44.2491C99.1875 44.3184 99.7084 44.3531 100.079 44.3531C100.635 44.3531 101.179 44.3069 101.734 44.2259C102.869 44.041 103.784 43.6826 104.513 43.1392C105.254 42.5958 105.624 41.9714 105.647 41.2546V25.6465C105.636 24.791 105.045 24.0048 104.061 23.4498L104.073 23.4614ZM102.788 35.0461C102.718 35.3929 102.464 35.682 102.047 35.9248C101.549 36.2138 100.959 36.3525 100.264 36.3525C99.5695 36.3525 98.9791 36.2022 98.4813 35.9248C97.9835 35.6473 97.7403 35.3004 97.7403 34.8958V24.2823C97.7403 23.8776 98.0066 23.577 98.4813 23.3111C98.9791 23.0221 99.5695 22.8833 100.264 22.8833C100.959 22.8833 101.549 23.0336 102.047 23.3111C102.51 23.5655 102.799 23.8776 102.799 24.2823V35.0461H102.788ZM115.453 43.6826C116.518 44.1681 117.722 44.4109 119.065 44.4109H119.343C120.813 44.3878 122.075 44.0756 123.129 43.4976C124.113 42.9195 124.715 42.1449 124.715 41.2893V23.5076C124.9 22.8949 125.525 22.629 126.671 22.5596C125.421 22.5596 124.159 22.5596 122.909 22.5596H119.887C121.022 22.6405 121.658 22.8949 121.844 23.5192V42.6651C121.844 43.0698 121.566 43.382 121.103 43.6479C120.593 43.9253 120.003 44.0641 119.331 44.0641C118.66 44.0641 118.081 43.9253 117.548 43.6479C117.074 43.382 116.808 43.0698 116.808 42.6651V36.2716C116.808 35.6357 117.491 35.2542 118.834 35.127H113.913L113.902 41.879C113.948 42.5842 114.457 43.1739 115.465 43.6826H115.453ZM132.981 35.3004C134.115 35.3351 134.879 35.5085 135.273 35.8091C135.666 36.1097 135.863 36.63 135.863 37.3815V37.4393C135.875 36.6647 135.886 35.8785 135.886 35.1039C135.886 34.3293 135.886 33.5431 135.863 32.7685V32.8263C135.863 33.5893 135.666 34.1096 135.296 34.4333C134.891 34.757 134.115 34.9305 132.981 34.9767L131.649 34.9998L131.684 22.8486H134.567C135.759 22.8833 136.743 23.0914 137.542 23.4845C138.364 23.9007 138.804 24.421 138.85 25.0222V22.5018H126.833C127.945 22.5943 128.593 22.9411 128.79 23.5539V43.5207C128.604 44.1335 127.979 44.2838 126.845 44.3531H138.85V41.8327C138.804 42.4455 138.364 42.9657 137.53 43.3704C136.743 43.7635 135.759 43.9832 134.567 44.0178H131.638V35.3004H133.004H132.981ZM147.649 44.3647H148.274C149.304 41.1968 150.358 37.9018 151.457 34.4796L151.585 34.0749L154.56 44.3647H155.197C156.204 41.2315 157.269 37.9712 158.334 34.5836C159.596 30.6643 160.8 26.9183 161.969 23.3458C162.189 22.8024 162.768 22.5943 163.81 22.5249H159.7C160.592 22.5943 161.379 22.8255 161.379 23.2417C161.379 23.2764 161.379 23.3111 161.367 23.3458C159.526 28.8722 157.744 34.4218 156.03 39.9713C155.069 36.4335 154.085 32.9072 153.101 29.3809C153.761 27.2998 154.421 25.2881 155.046 23.3458C155.278 22.8024 155.857 22.5943 156.899 22.5249H146.63C147.614 22.6059 148.239 22.8833 148.505 23.3689L151.284 33.0344C150.566 35.3351 149.837 37.6474 149.119 39.9713C147.591 34.4218 146.051 28.8838 144.465 23.3458C144.453 23.3227 144.453 23.2995 144.453 23.288C144.453 23.1261 144.615 22.9643 144.94 22.8255C145.298 22.6752 145.704 22.5712 146.167 22.5249H139.73C140.714 22.6059 141.339 22.8833 141.582 23.3689L147.66 44.3763L147.649 44.3647ZM151.388 23.3342C151.388 23.3342 151.376 23.288 151.376 23.2649C151.376 23.1146 151.515 22.9758 151.805 22.8486C152.117 22.6983 152.499 22.5943 152.939 22.5365C153.784 22.6059 154.479 22.8371 154.479 23.2302C154.479 23.2649 154.479 23.2995 154.467 23.3342C153.912 25.0107 153.356 26.6755 152.812 28.3288C152.337 26.664 151.874 24.9991 151.411 23.3342H151.388ZM169.378 35.3004H168.036L168.024 44.0178H170.953C172.145 43.9832 173.129 43.7751 173.917 43.3704C174.75 42.9542 175.19 42.4339 175.236 41.8327V44.3531H163.231C164.366 44.2838 165.002 44.1335 165.176 43.5207V23.5539C164.979 22.9411 164.331 22.5943 163.22 22.5018H175.236V25.0222C175.19 24.4095 174.75 23.8892 173.928 23.4845C173.129 23.0914 172.145 22.8833 170.953 22.8486H168.07L168.036 34.9998L169.367 34.9767C170.513 34.9305 171.277 34.7455 171.682 34.4333C172.064 34.1096 172.25 33.5893 172.25 32.8263V32.7685C172.261 33.5431 172.273 34.3293 172.273 35.1039C172.273 35.8785 172.273 36.6647 172.25 37.4393V37.3815C172.25 36.6185 172.053 36.0982 171.659 35.8091C171.266 35.5085 170.501 35.3351 169.367 35.3004H169.378ZM188.156 44.3647V41.8443C188.122 42.457 187.682 42.9773 186.86 43.382C186.061 43.775 185.065 43.9947 183.884 44.0294H180.955V41.3703C180.967 35.3929 180.979 29.4272 181.002 23.473C181.187 22.8949 181.835 22.5827 182.947 22.5134H176.163C177.262 22.5827 177.911 22.8949 178.107 23.473V43.5323C177.922 44.145 177.274 44.2838 176.151 44.3647H188.168H188.156ZM201.099 44.3647V41.8443C201.065 42.457 200.636 42.9773 199.803 43.382C199.004 43.775 198.008 43.9947 196.827 44.0294H193.898V41.3703C193.91 35.3929 193.922 29.4272 193.945 23.473C194.13 22.8949 194.778 22.5827 195.89 22.5134H189.106C190.205 22.5827 190.854 22.8949 191.05 23.473V43.5323C190.865 44.145 190.217 44.2838 189.094 44.3647H201.099ZM208.173 35.3004C209.307 35.3351 210.071 35.5085 210.465 35.8091C210.859 36.1097 211.055 36.63 211.055 37.3815V37.4393C211.067 36.6647 211.079 35.8785 211.079 35.1039C211.079 34.3293 211.079 33.5431 211.055 32.7685V32.8263C211.055 33.5893 210.859 34.1096 210.488 34.4333C210.083 34.757 209.307 34.9305 208.173 34.9767L206.841 34.9998L206.876 22.8486H209.759C210.951 22.8833 211.935 23.0914 212.734 23.4845C213.556 23.9007 213.996 24.421 214.042 25.0222V22.5018H202.025C203.137 22.5943 203.785 22.9411 203.982 23.5539V43.5207C203.797 44.1335 203.172 44.2838 202.037 44.3531H214.042V41.8327C213.996 42.4455 213.556 42.9657 212.723 43.3704C211.935 43.7635 210.951 43.9832 209.759 44.0178H206.83V35.3004H208.196H208.173ZM219.703 22.8602H221.972C222.829 22.8602 224.589 22.9874 224.531 23.7042V34.1443C224.531 34.3524 224.392 34.5258 224.137 34.6992C223.883 34.8727 222.389 35.2426 219.703 35.8207V22.8486V22.8602ZM223.084 35.3929L223.188 35.3698C223.709 35.3929 224.114 35.5317 224.404 35.7976C224.693 36.0635 224.844 36.3757 224.844 36.6994L224.763 43.5091C224.566 44.1103 223.917 44.2722 222.783 44.3416H229.555C228.421 44.2722 227.784 44.1103 227.61 43.4976L227.68 38.2949C227.68 37.3931 227.275 36.63 226.187 35.971C225.573 35.601 224.855 35.3467 223.987 35.2079C224.82 35.0345 225.446 34.8611 225.886 34.6645C226.974 34.179 227.379 33.624 227.379 32.965V24.8488C227.379 24.1898 226.974 23.6348 225.886 23.1608C224.751 22.6752 223.35 22.4902 221.972 22.4902H214.911C216.01 22.5596 216.67 22.8718 216.855 23.4614V43.5091C216.67 44.1219 216.01 44.2722 214.911 44.3531H221.683C220.537 44.2838 219.889 44.1335 219.715 43.5091V43.382H219.703V36.1329L223.072 35.3698L223.084 35.3929ZM235.24 32.1326L230.586 23.473C230.285 22.9643 229.544 22.7099 228.652 22.5134H235.02C234.638 22.5365 234.29 22.6405 234.001 22.8255C233.735 22.9758 233.596 23.1724 233.596 23.4036V23.473L237.856 31.4504L241.931 23.4614C241.931 23.4614 241.931 23.4152 241.931 23.392C241.931 23.2071 241.7 22.6059 240.889 22.5134H244.999C244.895 22.5134 244.802 22.5365 244.698 22.548C243.772 22.6983 242.869 23.103 242.51 23.4614L238.111 32.0748L238.076 43.4976C238.273 44.0872 238.921 44.2722 240.021 44.3531H233.272C234.371 44.2838 235.043 44.0872 235.217 43.4976V32.1326H235.24Z" fill="white"/>
<path fill-rule="evenodd" clip-rule="evenodd" d="M4.97383 40.993C4.60337 41.2011 4.1866 41.2936 3.76983 41.2705C3.22571 41.2474 2.69317 41.0161 2.28798 40.5884L1.21132 39.4669C0.968208 39.2125 0.736669 38.9582 0.539861 38.6807C0.343053 38.3917 0.180976 38.0795 0.0883605 37.7095C-0.015832 37.3164 -0.00425504 37.0274 0.0073219 36.7152C0.0073219 36.6227 0.0073219 36.5418 0.0073219 36.4031V33.5011C0.0073219 33.3624 0.0073219 33.2699 0.0073219 33.189C0.0073219 32.8652 -0.015832 32.5878 0.0883605 32.1831C0.180976 31.8131 0.343053 31.501 0.539861 31.2119C0.736669 30.9345 0.968208 30.6801 1.21132 30.4258L2.28798 29.3043C2.69317 28.8765 3.23729 28.6453 3.79298 28.6222C4.25606 28.599 4.71914 28.7262 5.12433 28.9921C5.18222 28.2291 5.36745 27.4891 5.65687 26.7954C6.00418 25.9746 6.50199 25.2231 7.16187 24.564L24.7472 6.97893C25.3492 6.37773 26.0554 5.89214 26.8195 5.54529C27.4678 5.25626 28.1509 5.05971 28.8686 4.96722C28.6603 4.59725 28.5676 4.18103 28.5908 3.76482C28.6139 3.22142 28.8455 2.68959 29.2738 2.28494L30.3968 1.20971C30.6515 0.966921 30.9062 0.73569 31.184 0.539143C31.4734 0.342597 31.786 0.180735 32.1565 0.088243C32.5501 -0.0158109 32.828 -0.00424938 33.1521 0.00731217C33.2447 0.00731217 33.3258 0.00731217 33.4647 0.00731217H36.3705C36.5094 0.00731217 36.602 0.00731217 36.6831 0.00731217C37.0072 0.00731217 37.2851 -0.0158109 37.6787 0.088243C38.0492 0.180735 38.3617 0.342597 38.6512 0.539143C38.929 0.73569 39.1837 0.966921 39.4384 1.20971L40.5613 2.28494C40.9897 2.70115 41.2212 3.24455 41.2444 3.78794C41.2675 4.26196 41.1402 4.73599 40.8508 5.14064C41.6033 5.21001 42.321 5.38343 43.0157 5.68403C43.8376 6.03088 44.5901 6.52803 45.2269 7.17547C50.9806 12.9331 57.3479 18.8758 62.8354 24.7953C63.4027 25.3849 63.8542 26.0324 64.1899 26.7492C64.5025 27.4313 64.7109 28.1597 64.8035 28.9343C65.1855 28.7031 65.6138 28.6106 66.0306 28.6222C66.5863 28.6453 67.1189 28.8765 67.5356 29.3043L68.6123 30.4258C68.8554 30.6801 69.0869 30.9345 69.2837 31.2119C69.4805 31.501 69.6426 31.8131 69.7352 32.1831C69.8394 32.5878 69.8279 32.8652 69.8163 33.189C69.8163 33.2815 69.8163 33.3624 69.8163 33.5011V36.4031C69.8163 36.5418 69.8163 36.6343 69.8163 36.7152C69.8163 37.039 69.8394 37.3164 69.7352 37.7095C69.6426 38.0795 69.4805 38.3917 69.2837 38.6807C69.0869 38.9582 68.8554 39.2125 68.6123 39.4669L67.5356 40.5884C67.1304 41.0161 66.5863 41.2474 66.0306 41.2705C65.556 41.2936 65.0813 41.1664 64.6761 40.8774C64.6067 41.6289 64.433 42.3573 64.1436 43.0394C63.7963 43.8603 63.2985 44.6118 62.6502 45.2592C56.7922 51.1325 50.9574 57.0751 45.0648 62.9021C44.4744 63.4687 43.826 63.9311 43.1199 64.2664C42.4368 64.5901 41.7075 64.7867 40.9318 64.8792C41.1518 65.2607 41.256 65.6885 41.2444 66.1047C41.2212 66.6597 40.9897 67.203 40.5613 67.6077L39.4384 68.6829C39.1837 68.9257 38.929 69.1569 38.6512 69.3535C38.3617 69.55 38.0492 69.7119 37.6787 69.8044C37.2851 69.9084 37.0072 69.8969 36.6831 69.8853C36.5905 69.8853 36.5094 69.8853 36.3705 69.8853H33.4647C33.3258 69.8853 33.2331 69.8853 33.1521 69.8853C32.828 69.8853 32.5501 69.9084 32.1565 69.8044C31.786 69.7119 31.4734 69.55 31.184 69.3535C30.9062 69.1569 30.6515 68.9257 30.3968 68.6829L29.2738 67.6077C28.8455 67.1915 28.6139 66.6481 28.5908 66.1047C28.5676 65.6422 28.695 65.1682 28.9613 64.7751C28.1972 64.7173 27.4563 64.5323 26.7732 64.2433C25.9512 63.8964 25.1987 63.3877 24.5504 62.7403L6.98822 45.132C6.38622 44.5308 5.89999 43.8256 5.55268 43.051C5.26325 42.4035 5.06645 41.7098 4.98541 41.0046L4.97383 40.993ZM21.5636 34.1717C25.9628 34.1717 24.3768 34.8076 29.6096 29.5586C30.7209 28.4372 31.6587 27.4891 32.7816 26.3792C34.634 24.5525 34.1246 24.9225 34.1361 21.5002C32.8048 22.2055 31.8671 23.5466 30.7904 24.6219L22.976 32.449C22.0845 33.3277 22.0035 33.2005 21.5636 34.1717ZM35.537 21.2921C35.5717 24.7606 35.0739 24.6681 36.6252 26.1595L42.4831 32.0328C45.1342 34.692 43.9071 34.2873 48.48 34.2526C47.9822 33.4318 36.44 21.824 35.537 21.2921ZM21.3552 35.6631C21.7141 36.4031 21.5636 36.1487 22.154 36.7499C24.1105 38.7616 32.9669 47.9068 34.1825 48.5427C34.1709 43.8025 34.9234 45.5945 29.6096 40.2762C24.2842 34.9463 26.0786 35.6863 21.3552 35.6631ZM35.5485 48.5889C36.822 47.9299 44.9606 39.3744 46.8361 37.513C47.1486 37.2008 47.4033 36.9927 47.6927 36.6805C48.26 36.0447 48.0053 36.4493 48.3758 35.6747C43.8145 35.6631 45.47 34.9463 40.1098 40.3109C34.8076 45.6176 35.5485 43.8371 35.5485 48.5889ZM34.8423 42.3457C35.3865 42.0567 35.398 41.9757 35.9074 41.4786C37.343 40.0218 41.8348 35.8481 42.2747 34.692L36.7294 29.2465C35.9074 28.414 35.7222 28.0441 34.7613 27.5238L27.4678 34.7266L34.8539 42.3573L34.8423 42.3457ZM65.938 30.8188L61.2378 34.9348L65.938 39.0507L67.0147 37.9292C67.7787 37.1315 67.5935 37.1314 67.5935 36.3915V34.9348V33.478C67.5935 32.7265 67.7787 32.7265 67.0147 31.9403L65.938 30.8188ZM30.802 3.86887L34.9118 8.57442L39.0216 3.86887L37.8987 2.79365C37.1114 2.03058 37.1114 2.21557 36.3589 2.21557H34.9118H33.4647C32.7122 2.21557 32.7122 2.03058 31.925 2.79365L30.802 3.86887ZM3.89717 39.0507L8.59741 34.9348L3.89717 30.8188L2.82052 31.9403C2.05644 32.7381 2.24167 32.7381 2.24167 33.478V34.9348V36.3915C2.24167 37.143 2.05644 37.143 2.82052 37.9292L3.89717 39.0507ZM39.0332 66.0122L34.9234 61.3067L30.8136 66.0122L31.9365 67.0874C32.7238 67.8505 32.7238 67.6655 33.4763 67.6655H34.9234H36.3705C37.123 67.6655 37.123 67.8505 37.9102 67.0874L39.0332 66.0122ZM62.4881 40.149C62.4649 38.8426 61.944 37.5477 60.9252 36.5303C60.2306 35.8366 59.397 35.3625 58.5056 35.1313C59.015 35.0041 59.4318 34.8076 59.7791 34.5648C60.3 34.1833 60.6937 33.8711 60.9599 33.6167C61.342 33.2352 61.6545 32.8074 61.944 32.345C62.5112 31.3622 62.7196 30.3217 62.6038 29.2233C62.4997 28.1134 62.0482 27.1423 61.2493 26.3214L43.664 8.72472C42.7031 7.76511 41.418 7.27953 40.1214 7.31421C38.8132 7.33734 37.5282 7.8576 36.5094 8.87502C35.8032 9.59184 35.317 10.459 35.097 11.3723C34.8308 10.4011 34.333 9.53403 33.592 8.78253L33.4531 8.64379C32.4343 7.68418 31.2419 7.17547 29.8527 7.1061C28.5561 7.07142 27.271 7.557 26.3101 8.51661L8.72476 26.1017C7.74072 27.0845 7.28922 28.3331 7.31237 29.6511C7.3471 30.9113 7.7986 32.0444 8.69003 33.0849C8.79422 33.2121 8.90999 33.3277 9.02576 33.4433C9.66249 34.0792 10.3687 34.5417 11.1212 34.8076C10.2529 35.0851 9.47726 35.5591 8.8058 36.2296L8.66687 36.3684C7.71757 37.3858 7.1966 38.5882 7.12714 39.9756C7.09241 41.2705 7.57864 42.5538 8.52795 43.5134L26.0902 61.1217C27.0742 62.1044 28.3245 62.5553 29.6327 62.5437C30.8946 62.5091 32.0291 62.0466 33.0595 61.1679C33.1868 61.0639 33.3026 60.9482 33.4184 60.8326C34.0435 60.2083 34.4835 59.5377 34.7613 58.8094C34.8886 59.2025 35.0507 59.5493 35.2591 59.8268C35.6411 60.3586 35.9421 60.7517 36.2084 61.0061C36.5905 61.3876 37.0072 61.7113 37.4819 61.9888C38.4659 62.5553 39.4963 62.775 40.5961 62.6478C41.7075 62.5437 42.6684 62.0928 43.4903 61.2835L61.0641 43.6637C62.025 42.7041 62.5112 41.4208 62.4649 40.1259L62.4881 40.149ZM55.9471 35.1313C55.4493 34.9694 55.0094 34.692 54.5926 34.322L52.173 31.8709L55.4377 28.599C54.7894 29.5008 54.7778 30.3795 55.3914 31.2351L57.4174 33.2699C58.1467 33.9983 59.1076 34.0445 59.9411 33.6399C60.219 33.5011 60.4621 33.3393 60.6821 33.1196C60.902 32.8999 61.3651 32.4259 61.423 31.4085C61.4114 30.9229 61.2146 30.4257 60.8094 29.9055C60.4505 29.4546 60.0685 29.0384 59.6865 28.6568L53.7591 22.7142C53.5044 23.5004 53.0644 24.2172 52.4509 24.8415C51.4552 25.8358 50.1355 26.3792 48.8504 26.4023C47.5422 26.4255 46.2688 25.9746 45.2963 25.0034L36.3473 16.0432C35.7222 15.4189 35.3054 14.6558 35.097 13.8465C34.935 14.3552 34.6571 14.8061 34.2635 15.1992L32.006 17.4537L31.3461 16.7716L30.6631 16.101L30.2116 15.6501C31.0914 16.3091 31.9597 16.3553 32.7932 15.7541L33.812 14.7367C34.4835 14.0662 34.7613 13.199 34.6455 12.1123C34.5876 11.5804 34.4024 11.0255 34.113 10.459C33.893 10.0081 33.592 9.6034 33.2563 9.26811C33.1753 9.18718 32.99 9.02532 32.7006 8.77097C32.4228 8.52817 31.9828 8.401 31.3808 8.35475C30.7209 8.33163 30.1653 8.56286 29.7138 9.01376L9.12995 29.628C8.67845 30.0789 8.51637 30.6223 8.52795 31.2351C8.52795 31.7091 8.67845 32.1484 8.94472 32.5646C9.06049 32.7149 9.19941 32.8652 9.33834 33.0155C9.80142 33.4318 10.3571 33.6399 10.9591 33.663C11.5727 33.6861 12.1052 33.5242 12.5683 33.0733L19.8386 25.8011C20.4406 24.9803 20.3943 24.1131 19.7229 23.2345L22.9991 26.5179L15.3815 34.1486C15.0458 34.4839 14.6637 34.7382 14.2354 34.9116C14.5943 35.0735 14.9184 35.3047 15.2078 35.6053L17.4653 37.8598L16.7823 38.5188L16.1108 39.2125L15.6593 39.6634C16.3192 38.7848 16.354 37.9176 15.7635 37.0852L14.7448 36.0678C14.0733 35.3972 13.205 35.1197 12.1284 35.2238C11.5958 35.2816 11.0517 35.4666 10.4845 35.7672C10.033 35.9869 9.62776 36.2875 9.29203 36.6227C9.21099 36.7037 9.04891 36.8887 8.8058 37.1777C8.56268 37.4552 8.43534 37.9061 8.4006 38.4957C8.37745 39.1547 8.60899 39.7097 9.06049 40.1606L29.6327 60.7864C30.0842 61.2373 30.6168 61.4107 31.2419 61.3876C31.7166 61.3876 32.1565 61.2373 32.5733 60.9714C32.7238 60.8558 32.8743 60.717 33.0248 60.5783C33.43 60.1158 33.6499 59.5609 33.6615 58.9597C33.6846 58.3353 33.5226 57.8035 33.0711 57.3526L25.8123 50.0804C24.9904 49.4792 24.1221 49.5254 23.2422 50.196L26.5185 46.9125L34.1361 54.5431C34.4719 54.8784 34.715 55.2484 34.8886 55.6762C35.0507 55.3293 35.2707 54.994 35.5601 54.6934L38.0028 52.2655L41.2675 55.5374C40.3645 54.89 39.4963 54.8784 38.6396 55.4912L36.6136 57.526C35.8843 58.2544 35.838 59.2256 36.2431 60.058C36.3821 60.3355 36.5441 60.5898 36.7641 60.7979C36.9841 61.0176 37.4472 61.4916 38.4659 61.5379C38.9522 61.5263 39.45 61.3298 39.9709 60.9136C40.4224 60.5552 40.8392 60.1736 41.2097 59.7921L47.137 53.8495C46.3498 53.5951 45.6321 53.1558 45.0185 52.5314C44.0229 51.5371 43.4903 50.2076 43.4672 48.9242C43.444 47.6062 43.8955 46.346 44.868 45.3633L53.8169 36.4031C54.4305 35.7903 55.183 35.3741 55.9934 35.166L55.9471 35.1313ZM48.5842 52.3349L60.7168 40.2068C61.1683 39.7559 61.3188 39.2125 61.2957 38.5998C61.2725 37.9408 61.041 37.3742 60.5663 36.9002C60.0917 36.4262 59.5244 36.195 58.8645 36.1718C58.2625 36.1372 57.73 36.3106 57.2785 36.7615L45.3311 48.7277C44.8795 49.1786 44.648 49.7451 44.6712 50.3925C44.6943 51.0516 44.9259 51.6181 45.4005 52.0921C45.8752 52.5661 46.4424 52.7974 47.1023 52.8205C47.6464 52.8205 48.1442 52.6817 48.5957 52.3349H48.5842ZM52.2888 21.2574L40.1793 9.10625C39.7278 8.65535 39.1837 8.49349 38.5817 8.52817C37.9218 8.5513 37.3545 8.78253 36.8799 9.25655C36.4052 9.73058 36.1737 10.2971 36.1505 10.9561C36.1158 11.5689 36.2895 12.0891 36.741 12.5516L48.6884 24.5178C49.1399 24.9687 49.6956 25.1999 50.3554 25.1768C51.0153 25.1537 51.5826 24.9225 52.0573 24.4484C52.5319 23.9744 52.7634 23.4079 52.7866 22.7489C52.7866 22.2055 52.6477 21.6968 52.3004 21.2574H52.2888ZM3.80456 40.808C4.23291 40.8311 4.66125 40.704 5.02014 40.4034C5.05487 40.3687 5.11275 40.3456 5.17064 40.334C5.29798 40.334 5.41375 40.4265 5.41375 40.5537C5.46006 41.3514 5.65687 42.126 5.98102 42.8429C6.30518 43.5597 6.75668 44.2187 7.31237 44.7852L24.8746 62.3934C25.4882 63.0062 26.1944 63.4802 26.9469 63.8039C27.7225 64.1277 28.5561 64.3127 29.4243 64.3242C29.4822 64.3242 29.5285 64.3473 29.5748 64.382C29.6674 64.463 29.679 64.6133 29.598 64.7058L29.4822 64.8445C29.1696 65.2029 29.0307 65.6422 29.0539 66.0816C29.077 66.5209 29.2507 66.9487 29.5864 67.2724L30.7094 68.3476C30.9525 68.5789 31.184 68.7985 31.4387 68.972C31.6818 69.1454 31.9597 69.2841 32.2607 69.3651C32.5964 69.4575 32.8395 69.446 33.129 69.4344C33.2447 69.4344 33.3605 69.4344 33.4531 69.4344H36.3589C36.4515 69.4344 36.5789 69.4344 36.6831 69.4344C36.9725 69.4344 37.2156 69.4575 37.5513 69.3651C37.8639 69.2841 38.1302 69.1454 38.3733 68.972C38.628 68.7985 38.8595 68.5789 39.1027 68.3476L40.2256 67.2724C40.5613 66.9487 40.7466 66.5209 40.7582 66.0816C40.7813 65.6422 40.6308 65.2029 40.3298 64.8445H40.3182C40.3182 64.8445 40.2603 64.7404 40.2488 64.6826C40.2488 64.5554 40.3414 64.4398 40.4687 64.4398L40.7697 64.4167C41.5222 64.3358 42.24 64.1508 42.8999 63.8386C43.5598 63.5265 44.1734 63.0987 44.7175 62.5669L62.3028 44.9355C62.9048 44.3343 63.3679 43.629 63.6921 42.866C64.0162 42.0914 64.2015 41.2589 64.213 40.4149C64.213 40.3571 64.2362 40.3109 64.2709 40.2646C64.352 40.1721 64.5025 40.1606 64.5951 40.2415L64.7572 40.3803C65.1045 40.6924 65.556 40.8311 65.9843 40.808C66.4242 40.7849 66.8526 40.6115 67.1767 40.2646L68.2534 39.1432C68.4849 38.9004 68.6933 38.6691 68.8786 38.4148C69.0522 38.172 69.1795 37.8945 69.2606 37.5824C69.3532 37.2471 69.3416 37.0043 69.3301 36.7152C69.3301 36.5996 69.3301 36.484 69.3301 36.3915V33.4896C69.3301 33.3971 69.3301 33.2699 69.3301 33.1658C69.3301 32.8768 69.3532 32.634 69.2606 32.2987C69.1795 31.9866 69.0406 31.7206 68.8786 31.4663C68.7049 31.2119 68.4849 30.9691 68.2534 30.7379L67.1767 29.6164C66.8526 29.2812 66.4242 29.0962 65.9843 29.073C65.5444 29.0499 65.1045 29.2002 64.7572 29.5008H64.7456C64.7456 29.5008 64.653 29.5702 64.5951 29.5818C64.4677 29.5818 64.352 29.4893 64.352 29.3621L64.3288 29.0499C64.2478 28.2869 64.0625 27.5816 63.75 26.9226C63.4374 26.2636 63.0206 25.6508 62.4765 25.1074L44.868 7.4992C44.266 6.898 43.5598 6.43553 42.8073 6.11181C42.0316 5.78809 41.2097 5.6031 40.353 5.57998C40.2951 5.57998 40.2488 5.55686 40.2025 5.52217C40.1099 5.44124 40.0983 5.29094 40.1793 5.19845L40.3182 5.03659C40.6308 4.67818 40.7697 4.23884 40.7466 3.7995C40.7234 3.36016 40.5498 2.93238 40.214 2.60866L39.0911 1.53344C38.848 1.30221 38.6164 1.08254 38.3617 0.909113C38.1186 0.73569 37.8408 0.596951 37.5398 0.51602C37.204 0.423528 36.9609 0.43509 36.6715 0.446651C36.5557 0.446651 36.44 0.446651 36.3473 0.446651H33.4415C33.3489 0.446651 33.2216 0.446651 33.1174 0.446651C32.828 0.446651 32.5848 0.423528 32.2491 0.51602C31.9365 0.596951 31.6703 0.73569 31.4271 0.909113C31.1724 1.08254 30.9409 1.30221 30.6978 1.53344L29.5748 2.60866C29.2391 2.93238 29.0654 3.3486 29.0423 3.77638C29.0191 4.20415 29.1465 4.64349 29.4475 4.99034C29.4822 5.02503 29.5054 5.08283 29.5169 5.14064C29.5169 5.26782 29.4243 5.38343 29.297 5.38343C28.5098 5.42968 27.7341 5.62623 27.0163 5.94995C26.2986 6.27367 25.6387 6.72457 25.083 7.29109L7.4976 24.8762C6.88403 25.489 6.42095 26.1942 6.09679 26.9573C5.77264 27.7319 5.58741 28.5759 5.57583 29.443C5.57583 29.5008 5.55268 29.5471 5.51795 29.5933C5.43691 29.6858 5.28641 29.6974 5.19379 29.6164L5.05487 29.5008C4.70756 29.1887 4.25606 29.0499 3.82771 29.073C3.38779 29.0962 2.95944 29.2696 2.63529 29.6164L1.55863 30.7379C1.32709 30.9807 1.11871 31.2119 0.933477 31.4663C0.759823 31.7091 0.632477 31.9866 0.551438 32.2987C0.458823 32.634 0.4704 32.8768 0.481976 33.1658C0.481976 33.2815 0.481976 33.3971 0.481976 33.4896V36.3915C0.481976 36.484 0.481976 36.6112 0.481976 36.7152C0.481976 37.0043 0.458823 37.2471 0.551438 37.5824C0.632477 37.8945 0.7714 38.1604 0.933477 38.4148C1.10713 38.6691 1.32709 38.9119 1.55863 39.1432L2.63529 40.2646C2.95944 40.5999 3.37621 40.7849 3.80456 40.7965V40.808Z" fill="white"/>
</svg>
