<svg width="78" height="78" viewBox="0 0 78 78" fill="none" xmlns="http://www.w3.org/2000/svg">
<g filter="url(#filter0_d_628_931)">
<path d="M39 0C58.2982 0 74 15.7019 74 35V67.8129C74 69.02 73.02 70 71.8121 70H39C19.7019 70 4 54.2982 4 35C4 15.7019 19.7019 0 39 0Z" fill="white"/>
</g>
<path d="M54.8415 26.1579H23.8941C22.6733 26.1579 21.6836 27.1476 21.6836 28.3684C21.6836 29.5893 22.6733 30.579 23.8941 30.579H54.8415C56.0623 30.579 57.052 29.5893 57.052 28.3684C57.052 27.1476 56.0623 26.1579 54.8415 26.1579Z" fill="#060606"/>
<path d="M54.8432 39.421H36.7906C35.5698 39.421 34.5801 40.4107 34.5801 41.6316C34.5801 42.8524 35.5698 43.8421 36.7906 43.8421H54.8432C56.064 43.8421 57.0537 42.8524 57.0537 41.6316C57.0537 40.4107 56.064 39.421 54.8432 39.421Z" fill="#060606"/>
<defs>
<filter id="filter0_d_628_931" x="0" y="0" width="78" height="78" filterUnits="userSpaceOnUse" color-interpolation-filters="sRGB">
<feFlood flood-opacity="0" result="BackgroundImageFix"/>
<feColorMatrix in="SourceAlpha" type="matrix" values="0 0 0 0 0 0 0 0 0 0 0 0 0 0 0 0 0 0 127 0" result="hardAlpha"/>
<feOffset dy="4"/>
<feGaussianBlur stdDeviation="2"/>
<feComposite in2="hardAlpha" operator="out"/>
<feColorMatrix type="matrix" values="0 0 0 0 0 0 0 0 0 0 0 0 0 0 0 0 0 0 0.25 0"/>
<feBlend mode="normal" in2="BackgroundImageFix" result="effect1_dropShadow_628_931"/>
<feBlend mode="normal" in="SourceGraphic" in2="effect1_dropShadow_628_931" result="shape"/>
</filter>
</defs>
</svg>
