<svg width="245" height="70" viewBox="0 0 245 70" fill="none" xmlns="http://www.w3.org/2000/svg">
<path d="M107.072 58.0253C106.639 58.0253 106.262 57.9419 105.942 57.7753C105.629 57.6086 105.379 57.3853 105.192 57.1053C105.012 56.8186 104.899 56.5086 104.852 56.1753H105.632C105.705 56.5286 105.869 56.8053 106.122 57.0053C106.375 57.1986 106.695 57.2953 107.082 57.2953C107.435 57.2953 107.745 57.1919 108.012 56.9853C108.279 56.7719 108.495 56.4519 108.662 56.0253C108.829 55.5986 108.925 55.0586 108.952 54.4053C108.952 54.3719 108.952 54.3386 108.952 54.3053C108.952 54.2719 108.952 54.2353 108.952 54.1953C108.859 54.4086 108.719 54.6053 108.532 54.7853C108.345 54.9653 108.119 55.1119 107.852 55.2253C107.592 55.3319 107.299 55.3853 106.972 55.3853C106.585 55.3853 106.219 55.2919 105.872 55.1053C105.532 54.9186 105.255 54.6586 105.042 54.3253C104.835 53.9853 104.732 53.5886 104.732 53.1353C104.732 52.7419 104.829 52.3653 105.022 52.0053C105.215 51.6453 105.485 51.3519 105.832 51.1253C106.185 50.8986 106.602 50.7853 107.082 50.7853C107.582 50.7853 108.002 50.8786 108.342 51.0653C108.689 51.2519 108.962 51.5053 109.162 51.8253C109.369 52.1386 109.519 52.4953 109.612 52.8953C109.705 53.2953 109.752 53.7053 109.752 54.1253C109.752 54.8919 109.645 55.5686 109.432 56.1553C109.225 56.7419 108.922 57.2019 108.522 57.5353C108.129 57.8619 107.645 58.0253 107.072 58.0253ZM107.142 54.6553C107.442 54.6553 107.712 54.5886 107.952 54.4553C108.199 54.3153 108.392 54.1286 108.532 53.8953C108.672 53.6553 108.742 53.3853 108.742 53.0853C108.742 52.7719 108.672 52.4986 108.532 52.2653C108.392 52.0319 108.199 51.8519 107.952 51.7253C107.712 51.5919 107.442 51.5253 107.142 51.5253C106.849 51.5253 106.585 51.5919 106.352 51.7253C106.119 51.8586 105.932 52.0419 105.792 52.2753C105.652 52.5086 105.582 52.7819 105.582 53.0953C105.582 53.4086 105.652 53.6819 105.792 53.9153C105.932 54.1486 106.119 54.3319 106.352 54.4653C106.585 54.5919 106.849 54.6553 107.142 54.6553ZM113.778 57.9053V50.9053H118.108V51.5953H114.618V54.0353H117.808V54.7153H114.618V57.2153H118.108V57.9053H113.778ZM119.401 57.9053V52.6853H120.161L120.201 53.4053C120.361 53.1453 120.578 52.9419 120.851 52.7953C121.125 52.6419 121.411 52.5653 121.711 52.5653C121.971 52.5653 122.201 52.6019 122.401 52.6753C122.608 52.7419 122.788 52.8486 122.941 52.9953C123.095 53.1353 123.221 53.3153 123.321 53.5353C123.495 53.2219 123.728 52.9819 124.021 52.8153C124.321 52.6486 124.638 52.5653 124.971 52.5653C125.358 52.5653 125.688 52.6419 125.961 52.7953C126.241 52.9486 126.458 53.1786 126.611 53.4853C126.765 53.7919 126.841 54.1753 126.841 54.6353V57.9053H126.011V54.7253C126.011 54.2453 125.908 53.8853 125.701 53.6453C125.495 53.4053 125.211 53.2853 124.851 53.2853C124.611 53.2853 124.391 53.3519 124.191 53.4853C123.991 53.6119 123.831 53.8019 123.711 54.0553C123.598 54.3019 123.541 54.6053 123.541 54.9653V57.9053H122.701V54.7253C122.701 54.2453 122.598 53.8853 122.391 53.6453C122.185 53.4053 121.905 53.2853 121.551 53.2853C121.311 53.2853 121.091 53.3519 120.891 53.4853C120.698 53.6119 120.541 53.8019 120.421 54.0553C120.301 54.3019 120.241 54.6053 120.241 54.9653V57.9053H119.401ZM130.47 58.0253C129.983 58.0253 129.553 57.9153 129.18 57.6953C128.807 57.4686 128.517 57.1519 128.31 56.7453C128.103 56.3319 128 55.8486 128 55.2953C128 54.7419 128.103 54.2619 128.31 53.8553C128.523 53.4486 128.817 53.1319 129.19 52.9053C129.57 52.6786 130.003 52.5653 130.49 52.5653C130.977 52.5653 131.403 52.6786 131.77 52.9053C132.143 53.1319 132.433 53.4486 132.64 53.8553C132.853 54.2619 132.96 54.7419 132.96 55.2953C132.96 55.8486 132.853 56.3319 132.64 56.7453C132.427 57.1519 132.133 57.4686 131.76 57.6953C131.387 57.9153 130.957 58.0253 130.47 58.0253ZM130.47 57.3053C130.77 57.3053 131.043 57.2319 131.29 57.0853C131.537 56.9319 131.733 56.7053 131.88 56.4053C132.027 56.1053 132.1 55.7353 132.1 55.2953C132.1 54.8486 132.027 54.4786 131.88 54.1853C131.74 53.8853 131.547 53.6619 131.3 53.5153C131.06 53.3619 130.79 53.2853 130.49 53.2853C130.19 53.2853 129.917 53.3619 129.67 53.5153C129.423 53.6619 129.227 53.8853 129.08 54.1853C128.933 54.4786 128.86 54.8486 128.86 55.2953C128.86 55.7353 128.93 56.1053 129.07 56.4053C129.217 56.7053 129.41 56.9319 129.65 57.0853C129.897 57.2319 130.17 57.3053 130.47 57.3053ZM136.002 57.9053C135.702 57.9053 135.442 57.8586 135.222 57.7653C135.002 57.6719 134.832 57.5153 134.712 57.2953C134.598 57.0686 134.542 56.7653 134.542 56.3853V53.3953H133.622V52.6853H134.542L134.652 51.3953H135.382V52.6853H136.862V53.3953H135.382V56.3853C135.382 56.6986 135.445 56.9119 135.572 57.0253C135.698 57.1319 135.922 57.1853 136.242 57.1853H136.832V57.9053H136.002ZM138.085 57.9053V52.6853H138.925V57.9053H138.085ZM138.505 51.6753C138.338 51.6753 138.198 51.6219 138.085 51.5153C137.978 51.4019 137.925 51.2619 137.925 51.0953C137.925 50.9286 137.978 50.7953 138.085 50.6953C138.198 50.5886 138.338 50.5353 138.505 50.5353C138.665 50.5353 138.802 50.5886 138.915 50.6953C139.028 50.7953 139.085 50.9286 139.085 51.0953C139.085 51.2619 139.028 51.4019 138.915 51.5153C138.802 51.6219 138.665 51.6753 138.505 51.6753ZM142.677 58.0253C142.19 58.0253 141.76 57.9153 141.387 57.6953C141.014 57.4686 140.724 57.1519 140.517 56.7453C140.31 56.3319 140.207 55.8486 140.207 55.2953C140.207 54.7419 140.31 54.2619 140.517 53.8553C140.73 53.4486 141.024 53.1319 141.397 52.9053C141.777 52.6786 142.21 52.5653 142.697 52.5653C143.184 52.5653 143.61 52.6786 143.977 52.9053C144.35 53.1319 144.64 53.4486 144.847 53.8553C145.06 54.2619 145.167 54.7419 145.167 55.2953C145.167 55.8486 145.06 56.3319 144.847 56.7453C144.634 57.1519 144.34 57.4686 143.967 57.6953C143.594 57.9153 143.164 58.0253 142.677 58.0253ZM142.677 57.3053C142.977 57.3053 143.25 57.2319 143.497 57.0853C143.744 56.9319 143.94 56.7053 144.087 56.4053C144.234 56.1053 144.307 55.7353 144.307 55.2953C144.307 54.8486 144.234 54.4786 144.087 54.1853C143.947 53.8853 143.754 53.6619 143.507 53.5153C143.267 53.3619 142.997 53.2853 142.697 53.2853C142.397 53.2853 142.124 53.3619 141.877 53.5153C141.63 53.6619 141.434 53.8853 141.287 54.1853C141.14 54.4786 141.067 54.8486 141.067 55.2953C141.067 55.7353 141.137 56.1053 141.277 56.4053C141.424 56.7053 141.617 56.9319 141.857 57.0853C142.104 57.2319 142.377 57.3053 142.677 57.3053ZM146.374 57.9053V52.6853H147.134L147.174 53.5253C147.327 53.2253 147.547 52.9919 147.834 52.8253C148.127 52.6519 148.464 52.5653 148.844 52.5653C149.237 52.5653 149.577 52.6419 149.864 52.7953C150.151 52.9419 150.374 53.1686 150.534 53.4753C150.694 53.7753 150.774 54.1586 150.774 54.6253V57.9053H149.934V54.7153C149.934 54.2419 149.817 53.8853 149.584 53.6453C149.357 53.4053 149.047 53.2853 148.654 53.2853C148.394 53.2853 148.154 53.3486 147.934 53.4753C147.714 53.6019 147.537 53.7886 147.404 54.0353C147.277 54.2753 147.214 54.5719 147.214 54.9253V57.9053H146.374ZM154.046 58.0253C153.579 58.0253 153.189 57.9553 152.876 57.8153C152.569 57.6686 152.332 57.4686 152.166 57.2153C152.006 56.9619 151.909 56.6653 151.876 56.3253H152.736C152.762 56.4986 152.826 56.6619 152.926 56.8153C153.026 56.9619 153.166 57.0819 153.346 57.1753C153.532 57.2686 153.769 57.3153 154.056 57.3153C154.282 57.3153 154.476 57.2819 154.636 57.2153C154.796 57.1419 154.916 57.0419 154.996 56.9153C155.076 56.7886 155.116 56.6453 155.116 56.4853C155.116 56.2719 155.066 56.1053 154.966 55.9853C154.872 55.8653 154.732 55.7753 154.546 55.7153C154.366 55.6486 154.139 55.5953 153.866 55.5553C153.586 55.5153 153.332 55.4619 153.106 55.3953C152.886 55.3219 152.696 55.2253 152.536 55.1053C152.382 54.9853 152.262 54.8386 152.176 54.6653C152.096 54.4853 152.056 54.2753 152.056 54.0353C152.056 53.7486 152.129 53.4953 152.276 53.2753C152.429 53.0553 152.646 52.8819 152.926 52.7553C153.212 52.6286 153.546 52.5653 153.926 52.5653C154.486 52.5653 154.932 52.6953 155.266 52.9553C155.599 53.2153 155.796 53.5886 155.856 54.0753H155.026C154.992 53.8286 154.879 53.6353 154.686 53.4953C154.492 53.3486 154.236 53.2753 153.916 53.2753C153.582 53.2753 153.329 53.3386 153.156 53.4653C152.989 53.5919 152.906 53.7586 152.906 53.9653C152.906 54.1186 152.942 54.2553 153.016 54.3753C153.096 54.4953 153.229 54.5953 153.416 54.6753C153.602 54.7553 153.846 54.8153 154.146 54.8553C154.526 54.9086 154.852 54.9853 155.126 55.0853C155.399 55.1853 155.609 55.3419 155.756 55.5553C155.909 55.7619 155.982 56.0486 155.976 56.4153C155.976 56.7553 155.896 57.0453 155.736 57.2853C155.576 57.5253 155.349 57.7086 155.056 57.8353C154.769 57.9619 154.432 58.0253 154.046 58.0253ZM157.544 57.9553C157.384 57.9553 157.247 57.9019 157.134 57.7953C157.027 57.6819 156.974 57.5453 156.974 57.3853C156.974 57.2253 157.027 57.0919 157.134 56.9853C157.247 56.8719 157.384 56.8153 157.544 56.8153C157.717 56.8153 157.854 56.8719 157.954 56.9853C158.06 57.0919 158.114 57.2253 158.114 57.3853C158.114 57.5453 158.06 57.6819 157.954 57.7953C157.854 57.9019 157.717 57.9553 157.544 57.9553ZM165.01 58.0253C164.363 58.0253 163.793 57.8753 163.3 57.5753C162.807 57.2686 162.423 56.8453 162.15 56.3053C161.877 55.7586 161.74 55.1253 161.74 54.4053C161.74 53.6919 161.877 53.0653 162.15 52.5253C162.423 51.9786 162.807 51.5519 163.3 51.2453C163.793 50.9386 164.363 50.7853 165.01 50.7853C165.67 50.7853 166.243 50.9386 166.73 51.2453C167.223 51.5519 167.603 51.9786 167.87 52.5253C168.143 53.0653 168.28 53.6919 168.28 54.4053C168.28 55.1253 168.143 55.7586 167.87 56.3053C167.603 56.8453 167.223 57.2686 166.73 57.5753C166.243 57.8753 165.67 58.0253 165.01 58.0253ZM165.01 57.2853C165.497 57.2853 165.92 57.1719 166.28 56.9453C166.64 56.7119 166.92 56.3819 167.12 55.9553C167.32 55.5219 167.42 55.0053 167.42 54.4053C167.42 53.8053 167.32 53.2919 167.12 52.8653C166.92 52.4319 166.64 52.1019 166.28 51.8753C165.92 51.6486 165.497 51.5353 165.01 51.5353C164.53 51.5353 164.107 51.6486 163.74 51.8753C163.38 52.1019 163.1 52.4319 162.9 52.8653C162.7 53.2919 162.6 53.8053 162.6 54.4053C162.6 55.0053 162.7 55.5219 162.9 55.9553C163.1 56.3819 163.38 56.7119 163.74 56.9453C164.107 57.1719 164.53 57.2853 165.01 57.2853ZM169.48 57.9053V52.6853H170.24L170.28 53.5253C170.433 53.2253 170.653 52.9919 170.94 52.8253C171.233 52.6519 171.57 52.5653 171.95 52.5653C172.343 52.5653 172.683 52.6419 172.97 52.7953C173.256 52.9419 173.48 53.1686 173.64 53.4753C173.8 53.7753 173.88 54.1586 173.88 54.6253V57.9053H173.04V54.7153C173.04 54.2419 172.923 53.8853 172.69 53.6453C172.463 53.4053 172.153 53.2853 171.76 53.2853C171.5 53.2853 171.26 53.3486 171.04 53.4753C170.82 53.6019 170.643 53.7886 170.51 54.0353C170.383 54.2753 170.32 54.5719 170.32 54.9253V57.9053H169.48ZM177.431 58.0253C176.964 58.0253 176.551 57.9119 176.191 57.6853C175.831 57.4586 175.548 57.1419 175.341 56.7353C175.141 56.3219 175.041 55.8419 175.041 55.2953C175.041 54.7486 175.141 54.2719 175.341 53.8653C175.548 53.4519 175.831 53.1319 176.191 52.9053C176.558 52.6786 176.978 52.5653 177.451 52.5653C177.958 52.5653 178.381 52.6786 178.721 52.9053C179.061 53.1319 179.318 53.4353 179.491 53.8153C179.671 54.1886 179.761 54.5986 179.761 55.0453C179.761 55.1119 179.761 55.1786 179.761 55.2453C179.761 55.3119 179.758 55.3919 179.751 55.4853H175.671V54.8353H178.941C178.928 54.3353 178.778 53.9519 178.491 53.6853C178.211 53.4119 177.858 53.2753 177.431 53.2753C177.151 53.2753 176.891 53.3453 176.651 53.4853C176.418 53.6186 176.228 53.8186 176.081 54.0853C175.934 54.3453 175.861 54.6719 175.861 55.0653V55.3453C175.861 55.7786 175.934 56.1419 176.081 56.4353C176.228 56.7286 176.418 56.9486 176.651 57.0953C176.891 57.2419 177.151 57.3153 177.431 57.3153C177.804 57.3153 178.098 57.2419 178.311 57.0953C178.531 56.9486 178.691 56.7419 178.791 56.4753H179.621C179.541 56.7686 179.401 57.0353 179.201 57.2753C179.008 57.5086 178.761 57.6919 178.461 57.8253C178.168 57.9586 177.824 58.0253 177.431 58.0253ZM185.881 58.0253C185.368 58.0253 184.921 57.9319 184.541 57.7453C184.161 57.5586 183.868 57.2986 183.661 56.9653C183.454 56.6319 183.351 56.2453 183.351 55.8053H184.231C184.231 56.0786 184.294 56.3319 184.421 56.5653C184.548 56.7919 184.731 56.9753 184.971 57.1153C185.218 57.2486 185.521 57.3153 185.881 57.3153C186.194 57.3153 186.461 57.2653 186.681 57.1653C186.908 57.0586 187.078 56.9153 187.191 56.7353C187.311 56.5553 187.371 56.3519 187.371 56.1253C187.371 55.8653 187.314 55.6519 187.201 55.4853C187.094 55.3119 186.944 55.1719 186.751 55.0653C186.558 54.9586 186.331 54.8619 186.071 54.7753C185.818 54.6886 185.544 54.5986 185.251 54.5053C184.671 54.3186 184.248 54.0853 183.981 53.8053C183.721 53.5186 183.591 53.1519 183.591 52.7053C183.591 52.3253 183.678 51.9919 183.851 51.7053C184.031 51.4186 184.284 51.1953 184.611 51.0353C184.944 50.8686 185.338 50.7853 185.791 50.7853C186.238 50.7853 186.624 50.8686 186.951 51.0353C187.284 51.2019 187.544 51.4319 187.731 51.7253C187.918 52.0119 188.011 52.3453 188.011 52.7253H187.131C187.131 52.5319 187.081 52.3419 186.981 52.1553C186.881 51.9686 186.728 51.8153 186.521 51.6953C186.321 51.5686 186.068 51.5053 185.761 51.5053C185.508 51.4986 185.281 51.5419 185.081 51.6353C184.888 51.7219 184.734 51.8486 184.621 52.0153C184.514 52.1819 184.461 52.3853 184.461 52.6253C184.461 52.8519 184.508 53.0353 184.601 53.1753C184.701 53.3153 184.841 53.4353 185.021 53.5353C185.208 53.6286 185.424 53.7153 185.671 53.7953C185.918 53.8753 186.191 53.9653 186.491 54.0653C186.831 54.1786 187.131 54.3186 187.391 54.4853C187.658 54.6453 187.864 54.8519 188.011 55.1053C188.164 55.3586 188.241 55.6819 188.241 56.0753C188.241 56.4086 188.151 56.7253 187.971 57.0253C187.798 57.3186 187.538 57.5586 187.191 57.7453C186.844 57.9319 186.408 58.0253 185.881 58.0253ZM189.44 60.1053V52.6853H190.2L190.27 53.5053C190.377 53.3386 190.51 53.1853 190.67 53.0453C190.837 52.9053 191.034 52.7919 191.26 52.7053C191.494 52.6119 191.76 52.5653 192.06 52.5653C192.54 52.5653 192.957 52.6853 193.31 52.9253C193.67 53.1653 193.95 53.4919 194.15 53.9053C194.35 54.3119 194.45 54.7786 194.45 55.3053C194.45 55.8319 194.35 56.3019 194.15 56.7153C193.95 57.1219 193.67 57.4419 193.31 57.6753C192.95 57.9086 192.53 58.0253 192.05 58.0253C191.644 58.0253 191.287 57.9419 190.98 57.7753C190.674 57.6086 190.44 57.3753 190.28 57.0753V60.1053H189.44ZM191.95 57.2953C192.27 57.2953 192.55 57.2153 192.79 57.0553C193.037 56.8886 193.23 56.6553 193.37 56.3553C193.517 56.0553 193.59 55.7019 193.59 55.2953C193.59 54.8886 193.517 54.5353 193.37 54.2353C193.23 53.9353 193.037 53.7053 192.79 53.5453C192.55 53.3786 192.27 53.2953 191.95 53.2953C191.617 53.2953 191.327 53.3786 191.08 53.5453C190.834 53.7053 190.644 53.9353 190.51 54.2353C190.377 54.5353 190.31 54.8886 190.31 55.2953C190.31 55.7019 190.377 56.0553 190.51 56.3553C190.644 56.6553 190.834 56.8886 191.08 57.0553C191.327 57.2153 191.617 57.2953 191.95 57.2953ZM197.311 58.0253C196.911 58.0253 196.574 57.9519 196.301 57.8053C196.034 57.6519 195.834 57.4519 195.701 57.2053C195.568 56.9586 195.501 56.6919 195.501 56.4053C195.501 56.0653 195.588 55.7753 195.761 55.5353C195.941 55.2886 196.191 55.1019 196.511 54.9753C196.831 54.8486 197.208 54.7853 197.641 54.7853H198.951C198.951 54.4519 198.908 54.1753 198.821 53.9553C198.741 53.7286 198.611 53.5586 198.431 53.4453C198.251 53.3319 198.014 53.2753 197.721 53.2753C197.414 53.2753 197.151 53.3519 196.931 53.5053C196.718 53.6586 196.584 53.8853 196.531 54.1853H195.671C195.711 53.8319 195.828 53.5386 196.021 53.3053C196.221 53.0653 196.471 52.8819 196.771 52.7553C197.071 52.6286 197.388 52.5653 197.721 52.5653C198.194 52.5653 198.584 52.6519 198.891 52.8253C199.198 52.9919 199.424 53.2286 199.571 53.5353C199.718 53.8353 199.791 54.1919 199.791 54.6053V57.9053H199.041L198.991 57.0053C198.924 57.1453 198.838 57.2786 198.731 57.4053C198.631 57.5253 198.511 57.6319 198.371 57.7253C198.231 57.8186 198.071 57.8919 197.891 57.9453C197.718 57.9986 197.524 58.0253 197.311 58.0253ZM197.431 57.3153C197.651 57.3153 197.854 57.2653 198.041 57.1653C198.234 57.0653 198.398 56.9319 198.531 56.7653C198.664 56.5919 198.768 56.4019 198.841 56.1953C198.914 55.9819 198.951 55.7586 198.951 55.5253V55.4353H197.711C197.391 55.4353 197.131 55.4753 196.931 55.5553C196.738 55.6353 196.598 55.7486 196.511 55.8953C196.424 56.0353 196.381 56.1919 196.381 56.3653C196.381 56.5586 196.421 56.7253 196.501 56.8653C196.581 57.0053 196.701 57.1153 196.861 57.1953C197.021 57.2753 197.211 57.3153 197.431 57.3153ZM201.169 57.9053V52.6853H201.929L201.989 53.6453C202.109 53.4119 202.262 53.2153 202.449 53.0553C202.642 52.8953 202.872 52.7753 203.139 52.6953C203.412 52.6086 203.719 52.5653 204.059 52.5653V53.4453H203.579C203.379 53.4453 203.186 53.4753 202.999 53.5353C202.812 53.5886 202.642 53.6753 202.489 53.7953C202.342 53.9153 202.226 54.0819 202.139 54.2953C202.052 54.5019 202.009 54.7619 202.009 55.0753V57.9053H201.169ZM208.116 57.9053L205.726 55.0853L207.966 52.6853H208.996L206.436 55.3853L206.446 54.7853L209.186 57.9053H208.116ZM205.026 57.9053V50.7053H205.866V57.9053H205.026ZM210.075 57.9053V50.7053H210.915V57.9053H210.075ZM214.501 58.0253C214.035 58.0253 213.621 57.9119 213.261 57.6853C212.901 57.4586 212.618 57.1419 212.411 56.7353C212.211 56.3219 212.111 55.8419 212.111 55.2953C212.111 54.7486 212.211 54.2719 212.411 53.8653C212.618 53.4519 212.901 53.1319 213.261 52.9053C213.628 52.6786 214.048 52.5653 214.521 52.5653C215.028 52.5653 215.451 52.6786 215.791 52.9053C216.131 53.1319 216.388 53.4353 216.561 53.8153C216.741 54.1886 216.831 54.5986 216.831 55.0453C216.831 55.1119 216.831 55.1786 216.831 55.2453C216.831 55.3119 216.828 55.3919 216.821 55.4853H212.741V54.8353H216.011C215.998 54.3353 215.848 53.9519 215.561 53.6853C215.281 53.4119 214.928 53.2753 214.501 53.2753C214.221 53.2753 213.961 53.3453 213.721 53.4853C213.488 53.6186 213.298 53.8186 213.151 54.0853C213.005 54.3453 212.931 54.6719 212.931 55.0653V55.3453C212.931 55.7786 213.005 56.1419 213.151 56.4353C213.298 56.7286 213.488 56.9486 213.721 57.0953C213.961 57.2419 214.221 57.3153 214.501 57.3153C214.875 57.3153 215.168 57.2419 215.381 57.0953C215.601 56.9486 215.761 56.7419 215.861 56.4753H216.691C216.611 56.7686 216.471 57.0353 216.271 57.2753C216.078 57.5086 215.831 57.6919 215.531 57.8253C215.238 57.9586 214.895 58.0253 214.501 58.0253Z" fill="#071E46"/>
<path fill-rule="evenodd" clip-rule="evenodd" d="M83.4891 43.4398C84.4384 43.9832 85.6077 44.2838 87.0201 44.3531C87.1821 44.3531 87.3674 44.3531 87.5294 44.3531C88.9534 44.3531 90.169 44.0988 91.1762 43.6132C92.1834 43.116 92.6812 42.5148 92.6812 41.8327V35.0692H87.8652C88.9997 35.1617 89.6712 35.5317 89.8333 36.156V42.6073C89.8333 43.012 89.5554 43.3242 89.0923 43.5785C88.6408 43.8444 88.0736 43.9832 87.4368 44.0063C87.2285 44.0063 87.0085 44.0063 86.8233 43.9832C86.3255 43.9138 85.8855 43.7866 85.5382 43.5785C85.0636 43.3126 84.7973 43.0004 84.7973 42.5958V24.317C84.8089 23.9123 85.052 23.5655 85.5498 23.288C86.0129 23.0452 86.4412 22.9065 86.8233 22.8833C87.2169 22.8602 87.4716 22.8602 87.5873 22.8602C88.0851 22.8602 88.5945 22.9065 89.0923 23.0105C89.7291 23.1261 90.2616 23.2995 90.7015 23.5076C91.5814 23.9354 92.0097 24.4441 92.0097 25.0453V25.9471C91.8245 26.583 91.1646 26.9414 90.0301 27.0455H91.6856H92.6696V25.0453C92.6696 24.3632 92.1834 23.762 91.1762 23.2764C90.0879 22.7793 88.8608 22.5134 87.4831 22.5134H87.2863C85.8392 22.5365 84.5889 22.8486 83.5123 23.4267C82.5282 23.9817 81.9494 24.7679 81.9494 25.6234V41.2315C81.9378 42.0986 82.5167 42.8617 83.5007 43.4398H83.4891ZM104.073 23.4614C103.1 22.8833 101.769 22.548 100.276 22.548C98.7822 22.548 97.4508 22.8833 96.49 23.4614C95.5059 24.0164 94.9039 24.8025 94.9039 25.6581V33.6009C94.9039 34.468 95.5059 35.2311 96.49 35.7976C97.4508 36.3525 98.8053 36.6994 100.276 36.6994C101.179 36.6994 102.024 36.5722 102.799 36.341V41.6015C102.799 41.9368 102.776 42.2952 102.707 42.6536C102.626 43.0698 102.406 43.3704 102.058 43.5901C101.271 44.0178 100.577 44.0178 100.252 44.0178C99.9283 44.0178 99.6389 43.9832 99.3263 43.9138C98.4233 43.7288 97.7403 43.2779 97.7403 42.6305V40.8269C97.9255 40.1678 98.5738 39.7863 99.7083 39.6823H94.9155V41.8443C94.9502 42.5611 95.4365 43.1507 96.4205 43.6247C97.1614 43.9832 97.8676 44.1913 98.5275 44.2491C99.1874 44.3184 99.7083 44.3531 100.079 44.3531C100.634 44.3531 101.179 44.3069 101.734 44.2259C102.869 44.041 103.783 43.6826 104.513 43.1392C105.254 42.5958 105.624 41.9714 105.647 41.2546V25.6465C105.636 24.791 105.045 24.0048 104.061 23.4498L104.073 23.4614ZM102.788 35.0461C102.718 35.3929 102.464 35.682 102.047 35.9248C101.549 36.2138 100.959 36.3525 100.264 36.3525C99.5694 36.3525 98.979 36.2022 98.4812 35.9248C97.9834 35.6473 97.7403 35.3004 97.7403 34.8958V24.2823C97.7403 23.8776 98.0065 23.577 98.4812 23.3111C98.979 23.0221 99.5694 22.8833 100.264 22.8833C100.959 22.8833 101.549 23.0336 102.047 23.3111C102.51 23.5655 102.799 23.8776 102.799 24.2823V35.0461H102.788ZM115.453 43.6826C116.518 44.1681 117.722 44.4109 119.065 44.4109H119.343C120.813 44.3878 122.075 44.0756 123.128 43.4976C124.112 42.9195 124.714 42.1449 124.714 41.2893V23.5076C124.9 22.8949 125.525 22.629 126.671 22.5596C125.421 22.5596 124.159 22.5596 122.908 22.5596H119.887C121.021 22.6405 121.658 22.8949 121.843 23.5192V42.6651C121.843 43.0698 121.566 43.382 121.102 43.6479C120.593 43.9253 120.003 44.0641 119.331 44.0641C118.66 44.0641 118.081 43.9253 117.548 43.6479C117.074 43.382 116.807 43.0698 116.807 42.6651V36.2716C116.807 35.6357 117.49 35.2542 118.833 35.127H113.913L113.902 41.879C113.948 42.5842 114.457 43.1739 115.464 43.6826H115.453ZM132.98 35.3004C134.115 35.3351 134.879 35.5085 135.273 35.8091C135.666 36.1097 135.863 36.63 135.863 37.3815V37.4393C135.875 36.6647 135.886 35.8785 135.886 35.1039C135.886 34.3293 135.886 33.5431 135.863 32.7685V32.8263C135.863 33.5893 135.666 34.1096 135.296 34.4333C134.891 34.757 134.115 34.9305 132.98 34.9767L131.649 34.9998L131.684 22.8486H134.566C135.759 22.8833 136.743 23.0914 137.542 23.4845C138.364 23.9007 138.803 24.421 138.85 25.0222V22.5018H126.833C127.944 22.5943 128.593 22.9411 128.789 23.5539V43.5207C128.604 44.1335 127.979 44.2838 126.845 44.3531H138.85V41.8327C138.803 42.4455 138.364 42.9657 137.53 43.3704C136.743 43.7635 135.759 43.9832 134.566 44.0178H131.637V35.3004H133.003H132.98ZM147.648 44.3647H148.273C149.304 41.1968 150.357 37.9018 151.457 34.4796L151.584 34.0749L154.56 44.3647H155.196C156.204 41.2315 157.269 37.9712 158.334 34.5836C159.596 30.6643 160.8 26.9183 161.969 23.3458C162.189 22.8024 162.768 22.5943 163.81 22.5249H159.7C160.591 22.5943 161.378 22.8255 161.378 23.2417C161.378 23.2764 161.378 23.3111 161.367 23.3458C159.526 28.8722 157.743 34.4218 156.03 39.9713C155.069 36.4335 154.085 32.9072 153.101 29.3809C153.761 27.2998 154.421 25.2881 155.046 23.3458C155.277 22.8024 155.856 22.5943 156.898 22.5249H146.629C147.613 22.6059 148.239 22.8833 148.505 23.3689L151.283 33.0344C150.566 35.3351 149.836 37.6474 149.118 39.9713C147.59 34.4218 146.051 28.8838 144.465 23.3458C144.453 23.3227 144.453 23.2995 144.453 23.288C144.453 23.1261 144.615 22.9643 144.939 22.8255C145.298 22.6752 145.703 22.5712 146.166 22.5249H139.73C140.714 22.6059 141.339 22.8833 141.582 23.3689L147.66 44.3763L147.648 44.3647ZM151.388 23.3342C151.388 23.3342 151.376 23.288 151.376 23.2649C151.376 23.1146 151.515 22.9758 151.804 22.8486C152.117 22.6983 152.499 22.5943 152.939 22.5365C153.784 22.6059 154.479 22.8371 154.479 23.2302C154.479 23.2649 154.479 23.2995 154.467 23.3342C153.911 25.0107 153.356 26.6755 152.812 28.3288C152.337 26.664 151.874 24.9991 151.411 23.3342H151.388ZM169.378 35.3004H168.035L168.024 44.0178H170.953C172.145 43.9832 173.129 43.7751 173.916 43.3704C174.75 42.9542 175.19 42.4339 175.236 41.8327V44.3531H163.231C164.365 44.2838 165.002 44.1335 165.176 43.5207V23.5539C164.979 22.9411 164.331 22.5943 163.219 22.5018H175.236V25.0222C175.19 24.4095 174.75 23.8892 173.928 23.4845C173.129 23.0914 172.145 22.8833 170.953 22.8486H168.07L168.035 34.9998L169.366 34.9767C170.513 34.9305 171.277 34.7455 171.682 34.4333C172.064 34.1096 172.249 33.5893 172.249 32.8263V32.7685C172.261 33.5431 172.272 34.3293 172.272 35.1039C172.272 35.8785 172.272 36.6647 172.249 37.4393V37.3815C172.249 36.6185 172.052 36.0982 171.659 35.8091C171.265 35.5085 170.501 35.3351 169.366 35.3004H169.378ZM188.156 44.3647V41.8443C188.121 42.457 187.681 42.9773 186.859 43.382C186.06 43.775 185.065 43.9947 183.884 44.0294H180.955V41.3703C180.967 35.3929 180.978 29.4272 181.001 23.473C181.186 22.8949 181.835 22.5827 182.946 22.5134H176.162C177.262 22.5827 177.91 22.8949 178.107 23.473V43.5323C177.922 44.145 177.273 44.2838 176.151 44.3647H188.167H188.156ZM201.099 44.3647V41.8443C201.064 42.457 200.636 42.9773 199.802 43.382C199.003 43.775 198.008 43.9947 196.827 44.0294H193.898V41.3703C193.909 35.3929 193.921 29.4272 193.944 23.473C194.129 22.8949 194.778 22.5827 195.889 22.5134H189.105C190.205 22.5827 190.853 22.8949 191.05 23.473V43.5323C190.865 44.145 190.216 44.2838 189.093 44.3647H201.099ZM208.172 35.3004C209.307 35.3351 210.071 35.5085 210.464 35.8091C210.858 36.1097 211.055 36.63 211.055 37.3815V37.4393C211.066 36.6647 211.078 35.8785 211.078 35.1039C211.078 34.3293 211.078 33.5431 211.055 32.7685V32.8263C211.055 33.5893 210.858 34.1096 210.488 34.4333C210.082 34.757 209.307 34.9305 208.172 34.9767L206.841 34.9998L206.876 22.8486H209.758C210.951 22.8833 211.935 23.0914 212.733 23.4845C213.555 23.9007 213.995 24.421 214.042 25.0222V22.5018H202.025C203.136 22.5943 203.785 22.9411 203.981 23.5539V43.5207C203.796 44.1335 203.171 44.2838 202.036 44.3531H214.042V41.8327C213.995 42.4455 213.555 42.9657 212.722 43.3704C211.935 43.7635 210.951 43.9832 209.758 44.0178H206.829V35.3004H208.195H208.172ZM219.703 22.8602H221.972C222.829 22.8602 224.588 22.9874 224.53 23.7042V34.1443C224.53 34.3524 224.391 34.5258 224.137 34.6992C223.882 34.8727 222.389 35.2426 219.703 35.8207V22.8486V22.8602ZM223.083 35.3929L223.187 35.3698C223.708 35.3929 224.114 35.5317 224.403 35.7976C224.692 36.0635 224.843 36.3757 224.843 36.6994L224.762 43.5091C224.565 44.1103 223.917 44.2722 222.782 44.3416H229.555C228.42 44.2722 227.783 44.1103 227.61 43.4976L227.679 38.2949C227.679 37.3931 227.274 36.63 226.186 35.971C225.572 35.601 224.854 35.3467 223.986 35.2079C224.82 35.0345 225.445 34.8611 225.885 34.6645C226.973 34.179 227.378 33.624 227.378 32.965V24.8488C227.378 24.1898 226.973 23.6348 225.885 23.1608C224.75 22.6752 223.349 22.4902 221.972 22.4902H214.91C216.01 22.5596 216.67 22.8718 216.855 23.4614V43.5091C216.67 44.1219 216.01 44.2722 214.91 44.3531H221.682C220.536 44.2838 219.888 44.1335 219.714 43.5091V43.382H219.703V36.1329L223.072 35.3698L223.083 35.3929ZM235.239 32.1326L230.585 23.473C230.284 22.9643 229.543 22.7099 228.652 22.5134H235.019C234.637 22.5365 234.29 22.6405 234 22.8255C233.734 22.9758 233.595 23.1724 233.595 23.4036V23.473L237.855 31.4504L241.93 23.4614C241.93 23.4614 241.93 23.4152 241.93 23.392C241.93 23.2071 241.699 22.6059 240.888 22.5134H244.998C244.894 22.5134 244.801 22.5365 244.697 22.548C243.771 22.6983 242.868 23.103 242.509 23.4614L238.11 32.0748L238.075 43.4976C238.272 44.0872 238.92 44.2722 240.02 44.3531H233.271C234.371 44.2838 235.042 44.0872 235.216 43.4976V32.1326H235.239Z" fill="#071E46"/>
<path fill-rule="evenodd" clip-rule="evenodd" d="M4.97381 40.993C4.60335 41.2011 4.18658 41.2936 3.76981 41.2705C3.2257 41.2474 2.69316 41.0161 2.28797 40.5884L1.21132 39.4669C0.968203 39.2125 0.736666 38.9582 0.539859 38.6807C0.343052 38.3917 0.180975 38.0795 0.0883601 37.7095C-0.0158319 37.3164 -0.00425502 37.0274 0.00732187 36.7152C0.00732187 36.6227 0.00732187 36.5418 0.00732187 36.4031V33.5011C0.00732187 33.3624 0.00732187 33.2699 0.00732187 33.189C0.00732187 32.8652 -0.0158319 32.5878 0.0883601 32.1831C0.180975 31.8131 0.343052 31.501 0.539859 31.2119C0.736666 30.9345 0.968203 30.6801 1.21132 30.4258L2.28797 29.3043C2.69316 28.8765 3.23727 28.6453 3.79296 28.6222C4.25604 28.599 4.71912 28.7262 5.12431 28.9921C5.18219 28.2291 5.36742 27.4891 5.65684 26.7954C6.00415 25.9746 6.50196 25.2231 7.16184 24.564L24.7471 6.97893C25.3491 6.37773 26.0553 5.89214 26.8194 5.54529C27.4677 5.25626 28.1507 5.05971 28.8685 4.96722C28.6601 4.59725 28.5675 4.18103 28.5907 3.76482C28.6138 3.22142 28.8453 2.68959 29.2737 2.28494L30.3967 1.20971C30.6513 0.966921 30.906 0.73569 31.1839 0.539143C31.4733 0.342597 31.7859 0.180735 32.1563 0.088243C32.55 -0.0158109 32.8278 -0.00424938 33.1519 0.00731217C33.2446 0.00731217 33.3256 0.00731217 33.4645 0.00731217H36.3703C36.5092 0.00731217 36.6019 0.00731217 36.6829 0.00731217C37.0071 0.00731217 37.2849 -0.0158109 37.6785 0.088243C38.049 0.180735 38.3615 0.342597 38.651 0.539143C38.9288 0.73569 39.1835 0.966921 39.4382 1.20971L40.5612 2.28494C40.9895 2.70115 41.221 3.24455 41.2442 3.78794C41.2673 4.26196 41.14 4.73599 40.8506 5.14064C41.6031 5.21001 42.3208 5.38343 43.0155 5.68403C43.8374 6.03088 44.5899 6.52803 45.2266 7.17547C50.9804 12.9331 57.3476 18.8758 62.8351 24.7953C63.4024 25.3849 63.8539 26.0324 64.1896 26.7492C64.5022 27.4313 64.7105 28.1597 64.8032 28.9343C65.1852 28.7031 65.6135 28.6106 66.0303 28.6222C66.586 28.6453 67.1185 28.8765 67.5353 29.3043L68.612 30.4258C68.8551 30.6801 69.0866 30.9345 69.2834 31.2119C69.4802 31.501 69.6423 31.8131 69.7349 32.1831C69.8391 32.5878 69.8275 32.8652 69.8159 33.189C69.8159 33.2815 69.8159 33.3624 69.8159 33.5011V36.4031C69.8159 36.5418 69.8159 36.6343 69.8159 36.7152C69.8159 37.039 69.8391 37.3164 69.7349 37.7095C69.6423 38.0795 69.4802 38.3917 69.2834 38.6807C69.0866 38.9582 68.8551 39.2125 68.612 39.4669L67.5353 40.5884C67.1301 41.0161 66.586 41.2474 66.0303 41.2705C65.5557 41.2936 65.081 41.1664 64.6758 40.8774C64.6064 41.6289 64.4327 42.3573 64.1433 43.0394C63.796 43.8603 63.2982 44.6118 62.6499 45.2592C56.792 51.1325 50.9572 57.0751 45.0646 62.9021C44.4741 63.4687 43.8258 63.9311 43.1197 64.2664C42.4366 64.5901 41.7073 64.7867 40.9316 64.8792C41.1516 65.2607 41.2558 65.6885 41.2442 66.1047C41.221 66.6597 40.9895 67.203 40.5612 67.6077L39.4382 68.6829C39.1835 68.9257 38.9288 69.1569 38.651 69.3535C38.3615 69.55 38.049 69.7119 37.6785 69.8044C37.2849 69.9084 37.0071 69.8969 36.6829 69.8853C36.5903 69.8853 36.5092 69.8853 36.3703 69.8853H33.4645C33.3256 69.8853 33.233 69.8853 33.1519 69.8853C32.8278 69.8853 32.55 69.9084 32.1563 69.8044C31.7859 69.7119 31.4733 69.55 31.1839 69.3535C30.906 69.1569 30.6513 68.9257 30.3967 68.6829L29.2737 67.6077C28.8453 67.1915 28.6138 66.6481 28.5907 66.1047C28.5675 65.6422 28.6948 65.1682 28.9611 64.7751C28.197 64.7173 27.4561 64.5323 26.7731 64.2433C25.9511 63.8964 25.1986 63.3877 24.5503 62.7403L6.98819 45.132C6.38619 44.5308 5.89996 43.8256 5.55265 43.051C5.26323 42.4035 5.06642 41.7098 4.98538 41.0046L4.97381 40.993ZM21.5635 34.1717C25.9627 34.1717 24.3767 34.8076 29.6094 29.5586C30.7208 28.4372 31.6585 27.4891 32.7815 26.3792C34.6338 24.5525 34.1244 24.9225 34.136 21.5002C32.8046 22.2055 31.8669 23.5466 30.7903 24.6219L22.9759 32.449C22.0844 33.3277 22.0034 33.2005 21.5635 34.1717ZM35.5368 21.2921C35.5715 24.7606 35.0737 24.6681 36.625 26.1595L42.4829 32.0328C45.134 34.692 43.9069 34.2873 48.4797 34.2526C47.9819 33.4318 36.4398 21.824 35.5368 21.2921ZM21.3551 35.6631C21.714 36.4031 21.5635 36.1487 22.1539 36.7499C24.1104 38.7616 32.9667 47.9068 34.1823 48.5427C34.1707 43.8025 34.9232 45.5945 29.6094 40.2762C24.2841 34.9463 26.0785 35.6863 21.3551 35.6631ZM35.5484 48.5889C36.8218 47.9299 44.9604 39.3744 46.8358 37.513C47.1484 37.2008 47.4031 36.9927 47.6925 36.6805C48.2598 36.0447 48.0051 36.4493 48.3756 35.6747C43.8143 35.6631 45.4698 34.9463 40.1097 40.3109C34.8074 45.6176 35.5484 43.8371 35.5484 48.5889ZM34.8422 42.3457C35.3863 42.0567 35.3979 41.9757 35.9073 41.4786C37.3428 40.0218 41.8346 35.8481 42.2745 34.692L36.7292 29.2465C35.9072 28.414 35.722 28.0441 34.7611 27.5238L27.4677 34.7266L34.8538 42.3573L34.8422 42.3457ZM65.9377 30.8188L61.2375 34.9348L65.9377 39.0507L67.0143 37.9292C67.7784 37.1315 67.5932 37.1314 67.5932 36.3915V34.9348V33.478C67.5932 32.7265 67.7784 32.7265 67.0143 31.9403L65.9377 30.8188ZM30.8018 3.86887L34.9116 8.57442L39.0214 3.86887L37.8985 2.79365C37.1112 2.03058 37.1112 2.21557 36.3587 2.21557H34.9116H33.4645C32.712 2.21557 32.712 2.03058 31.9248 2.79365L30.8018 3.86887ZM3.89716 39.0507L8.59737 34.9348L3.89716 30.8188L2.82051 31.9403C2.05643 32.7381 2.24166 32.7381 2.24166 33.478V34.9348V36.3915C2.24166 37.143 2.05643 37.143 2.82051 37.9292L3.89716 39.0507ZM39.033 66.0122L34.9232 61.3067L30.8134 66.0122L31.9364 67.0874C32.7236 67.8505 32.7236 67.6655 33.4761 67.6655H34.9232H36.3703C37.1228 67.6655 37.1228 67.8505 37.9101 67.0874L39.033 66.0122ZM62.4878 40.149C62.4646 38.8426 61.9437 37.5477 60.9249 36.5303C60.2303 35.8366 59.3967 35.3625 58.5053 35.1313C59.0147 35.0041 59.4315 34.8076 59.7788 34.5648C60.2998 34.1833 60.6934 33.8711 60.9596 33.6167C61.3417 33.2352 61.6542 32.8074 61.9437 32.345C62.5109 31.3622 62.7193 30.3217 62.6036 29.2233C62.4994 28.1134 62.0479 27.1423 61.2491 26.3214L43.6638 8.72472C42.7029 7.76511 41.4178 7.27953 40.1212 7.31421C38.8131 7.33734 37.528 7.8576 36.5092 8.87502C35.8031 9.59184 35.3168 10.459 35.0969 11.3723C34.8306 10.4011 34.3328 9.53403 33.5919 8.78253L33.4529 8.64379C32.4342 7.68418 31.2418 7.17547 29.8525 7.1061C28.5559 7.07142 27.2709 7.557 26.31 8.51661L8.72472 26.1017C7.74068 27.0845 7.28918 28.3331 7.31234 29.6511C7.34707 30.9113 7.79857 32.0444 8.68999 33.0849C8.79418 33.2121 8.90995 33.3277 9.02572 33.4433C9.66245 34.0792 10.3686 34.5417 11.1211 34.8076C10.2529 35.0851 9.47722 35.5591 8.80576 36.2296L8.66683 36.3684C7.71753 37.3858 7.19657 38.5882 7.12711 39.9756C7.09238 41.2705 7.57861 42.5538 8.52791 43.5134L26.09 61.1217C27.0741 62.1044 28.3244 62.5553 29.6326 62.5437C30.8945 62.5091 32.029 62.0466 33.0593 61.1679C33.1867 61.0639 33.3025 60.9482 33.4182 60.8326C34.0434 60.2083 34.4833 59.5377 34.7611 58.8094C34.8885 59.2025 35.0506 59.5493 35.2589 59.8268C35.641 60.3586 35.942 60.7517 36.2082 61.0061C36.5903 61.3876 37.0071 61.7113 37.4817 61.9888C38.4657 62.5553 39.4961 62.775 40.5959 62.6478C41.7073 62.5437 42.6682 62.0928 43.4901 61.2835L61.0638 43.6637C62.0247 42.7041 62.5109 41.4208 62.4646 40.1259L62.4878 40.149ZM55.9468 35.1313C55.449 34.9694 55.0091 34.692 54.5923 34.322L52.1728 31.8709L55.4375 28.599C54.7892 29.5008 54.7776 30.3795 55.3911 31.2351L57.4171 33.2699C58.1464 33.9983 59.1073 34.0445 59.9409 33.6399C60.2187 33.5011 60.4618 33.3393 60.6818 33.1196C60.9017 32.8999 61.3648 32.4259 61.4227 31.4085C61.4111 30.9229 61.2143 30.4257 60.8091 29.9055C60.4502 29.4546 60.0682 29.0384 59.6862 28.6568L53.7588 22.7142C53.5041 23.5004 53.0642 24.2172 52.4506 24.8415C51.455 25.8358 50.1352 26.3792 48.8502 26.4023C47.542 26.4255 46.2686 25.9746 45.2961 25.0034L36.3472 16.0432C35.722 15.4189 35.3052 14.6558 35.0969 13.8465C34.9348 14.3552 34.6569 14.8061 34.2633 15.1992L32.0058 17.4537L31.346 16.7716L30.6629 16.101L30.2114 15.6501C31.0913 16.3091 31.9595 16.3553 32.7931 15.7541L33.8118 14.7367C34.4833 14.0662 34.7611 13.199 34.6454 12.1123C34.5875 11.5804 34.4023 11.0255 34.1128 10.459C33.8929 10.0081 33.5919 9.6034 33.2561 9.26811C33.1751 9.18718 32.9899 9.02532 32.7005 8.77097C32.4226 8.52817 31.9827 8.401 31.3807 8.35475C30.7208 8.33163 30.1651 8.56286 29.7136 9.01376L9.12991 29.628C8.67841 30.0789 8.51633 30.6223 8.52791 31.2351C8.52791 31.7091 8.67841 32.1484 8.94468 32.5646C9.06045 32.7149 9.19937 32.8652 9.33829 33.0155C9.80137 33.4318 10.3571 33.6399 10.9591 33.663C11.5726 33.6861 12.1052 33.5242 12.5682 33.0733L19.8385 25.8011C20.4405 24.9803 20.3942 24.1131 19.7228 23.2345L22.999 26.5179L15.3814 34.1486C15.0457 34.4839 14.6637 34.7382 14.2353 34.9116C14.5942 35.0735 14.9184 35.3047 15.2078 35.6053L17.4653 37.8598L16.7822 38.5188L16.1108 39.2125L15.6593 39.6634C16.3192 38.7848 16.3539 37.9176 15.7635 37.0852L14.7447 36.0678C14.0732 35.3972 13.205 35.1197 12.1283 35.2238C11.5958 35.2816 11.0517 35.4666 10.4844 35.7672C10.0329 35.9869 9.62772 36.2875 9.29199 36.6227C9.21095 36.7037 9.04887 36.8887 8.80576 37.1777C8.56264 37.4552 8.4353 37.9061 8.40057 38.4957C8.37741 39.1547 8.60895 39.7097 9.06045 40.1606L29.6326 60.7864C30.0841 61.2373 30.6166 61.4107 31.2418 61.3876C31.7164 61.3876 32.1563 61.2373 32.5731 60.9714C32.7236 60.8558 32.8741 60.717 33.0246 60.5783C33.4298 60.1158 33.6498 59.5609 33.6613 58.9597C33.6845 58.3353 33.5224 57.8035 33.0709 57.3526L25.8122 50.0804C24.9902 49.4792 24.122 49.5254 23.2421 50.196L26.5184 46.9125L34.136 54.5431C34.4717 54.8784 34.7148 55.2484 34.8885 55.6762C35.0506 55.3293 35.2705 54.994 35.5599 54.6934L38.0027 52.2655L41.2673 55.5374C40.3643 54.89 39.4961 54.8784 38.6394 55.4912L36.6134 57.526C35.8841 58.2544 35.8378 59.2256 36.243 60.058C36.3819 60.3355 36.544 60.5898 36.7639 60.7979C36.9839 61.0176 37.447 61.4916 38.4657 61.5379C38.952 61.5263 39.4498 61.3298 39.9707 60.9136C40.4222 60.5552 40.839 60.1736 41.2095 59.7921L47.1368 53.8495C46.3496 53.5951 45.6318 53.1558 45.0183 52.5314C44.0226 51.5371 43.4901 50.2076 43.467 48.9242C43.4438 47.6062 43.8953 46.346 44.8678 45.3633L53.8167 36.4031C54.4303 35.7903 55.1828 35.3741 55.9931 35.166L55.9468 35.1313ZM48.5839 52.3349L60.7165 40.2068C61.168 39.7559 61.3185 39.2125 61.2954 38.5998C61.2722 37.9408 61.0407 37.3742 60.566 36.9002C60.0914 36.4262 59.5241 36.195 58.8642 36.1718C58.2622 36.1372 57.7297 36.3106 57.2782 36.7615L45.3308 48.7277C44.8793 49.1786 44.6478 49.7451 44.671 50.3925C44.6941 51.0516 44.9256 51.6181 45.4003 52.0921C45.8749 52.5661 46.4422 52.7974 47.1021 52.8205C47.6462 52.8205 48.144 52.6817 48.5955 52.3349H48.5839ZM52.2885 21.2574L40.1791 9.10625C39.7276 8.65535 39.1835 8.49349 38.5815 8.52817C37.9216 8.5513 37.3544 8.78253 36.8797 9.25655C36.4051 9.73058 36.1735 10.2971 36.1504 10.9561C36.1156 11.5689 36.2893 12.0891 36.7408 12.5516L48.6881 24.5178C49.1396 24.9687 49.6953 25.1999 50.3552 25.1768C51.0151 25.1537 51.5824 24.9225 52.057 24.4484C52.5317 23.9744 52.7632 23.4079 52.7864 22.7489C52.7864 22.2055 52.6474 21.6968 52.3001 21.2574H52.2885ZM3.80454 40.808C4.23289 40.8311 4.66123 40.704 5.02011 40.4034C5.05484 40.3687 5.11273 40.3456 5.17061 40.334C5.29796 40.334 5.41373 40.4265 5.41373 40.5537C5.46004 41.3514 5.65684 42.126 5.981 42.8429C6.30515 43.5597 6.75665 44.2187 7.31234 44.7852L24.8745 62.3934C25.488 63.0062 26.1942 63.4802 26.9467 63.8039C27.7224 64.1277 28.5559 64.3127 29.4242 64.3242C29.4821 64.3242 29.5284 64.3473 29.5747 64.382C29.6673 64.463 29.6789 64.6133 29.5978 64.7058L29.4821 64.8445C29.1695 65.2029 29.0306 65.6422 29.0537 66.0816C29.0769 66.5209 29.2505 66.9487 29.5863 67.2724L30.7092 68.3476C30.9523 68.5789 31.1839 68.7985 31.4386 68.972C31.6817 69.1454 31.9595 69.2841 32.2605 69.3651C32.5963 69.4575 32.8394 69.446 33.1288 69.4344C33.2446 69.4344 33.3603 69.4344 33.4529 69.4344H36.3587C36.4514 69.4344 36.5787 69.4344 36.6829 69.4344C36.9723 69.4344 37.2154 69.4575 37.5512 69.3651C37.8637 69.2841 38.13 69.1454 38.3731 68.972C38.6278 68.7985 38.8594 68.5789 39.1025 68.3476L40.2254 67.2724C40.5612 66.9487 40.7464 66.5209 40.758 66.0816C40.7811 65.6422 40.6306 65.2029 40.3296 64.8445H40.318C40.318 64.8445 40.2602 64.7404 40.2486 64.6826C40.2486 64.5554 40.3412 64.4398 40.4685 64.4398L40.7695 64.4167C41.522 64.3358 42.2398 64.1508 42.8997 63.8386C43.5596 63.5265 44.1731 63.0987 44.7173 62.5669L62.3026 44.9355C62.9045 44.3343 63.3676 43.629 63.6918 42.866C64.0159 42.0914 64.2012 41.2589 64.2127 40.4149C64.2127 40.3571 64.2359 40.3109 64.2706 40.2646C64.3517 40.1721 64.5022 40.1606 64.5948 40.2415L64.7569 40.3803C65.1042 40.6924 65.5557 40.8311 65.984 40.808C66.4239 40.7849 66.8523 40.6115 67.1764 40.2646L68.2531 39.1432C68.4846 38.9004 68.693 38.6691 68.8782 38.4148C69.0519 38.172 69.1792 37.8945 69.2603 37.5824C69.3529 37.2471 69.3413 37.0043 69.3297 36.7152C69.3297 36.5996 69.3297 36.484 69.3297 36.3915V33.4896C69.3297 33.3971 69.3297 33.2699 69.3297 33.1658C69.3297 32.8768 69.3529 32.634 69.2603 32.2987C69.1792 31.9866 69.0403 31.7206 68.8782 31.4663C68.7046 31.2119 68.4846 30.9691 68.2531 30.7379L67.1764 29.6164C66.8523 29.2812 66.4239 29.0962 65.984 29.073C65.5441 29.0499 65.1042 29.2002 64.7569 29.5008H64.7453C64.7453 29.5008 64.6527 29.5702 64.5948 29.5818C64.4674 29.5818 64.3517 29.4893 64.3517 29.3621L64.3285 29.0499C64.2475 28.2869 64.0622 27.5816 63.7497 26.9226C63.4371 26.2636 63.0203 25.6508 62.4762 25.1074L44.8678 7.4992C44.2658 6.898 43.5596 6.43553 42.8071 6.11181C42.0314 5.78809 41.2095 5.6031 40.3528 5.57998C40.2949 5.57998 40.2486 5.55686 40.2023 5.52217C40.1097 5.44124 40.0981 5.29094 40.1791 5.19845L40.318 5.03659C40.6306 4.67818 40.7695 4.23884 40.7464 3.7995C40.7232 3.36016 40.5496 2.93238 40.2138 2.60866L39.0909 1.53344C38.8478 1.30221 38.6162 1.08254 38.3616 0.909113C38.1184 0.73569 37.8406 0.596951 37.5396 0.51602C37.2039 0.423528 36.9607 0.43509 36.6713 0.446651C36.5556 0.446651 36.4398 0.446651 36.3472 0.446651H33.4414C33.3488 0.446651 33.2214 0.446651 33.1172 0.446651C32.8278 0.446651 32.5847 0.423528 32.249 0.51602C31.9364 0.596951 31.6701 0.73569 31.427 0.909113C31.1723 1.08254 30.9408 1.30221 30.6976 1.53344L29.5747 2.60866C29.239 2.93238 29.0653 3.3486 29.0422 3.77638C29.019 4.20415 29.1463 4.64349 29.4473 4.99034C29.4821 5.02503 29.5052 5.08283 29.5168 5.14064C29.5168 5.26782 29.4242 5.38343 29.2968 5.38343C28.5096 5.42968 27.734 5.62623 27.0162 5.94995C26.2984 6.27367 25.6386 6.72457 25.0829 7.29109L7.49757 24.8762C6.88399 25.489 6.42092 26.1942 6.09677 26.9573C5.77261 27.7319 5.58738 28.5759 5.5758 29.443C5.5758 29.5008 5.55265 29.5471 5.51792 29.5933C5.43688 29.6858 5.28638 29.6974 5.19377 29.6164L5.05484 29.5008C4.70754 29.1887 4.25604 29.0499 3.82769 29.073C3.38777 29.0962 2.95943 29.2696 2.63528 29.6164L1.55862 30.7379C1.32709 30.9807 1.1187 31.2119 0.933473 31.4663C0.75982 31.7091 0.632474 31.9866 0.551436 32.2987C0.45882 32.634 0.470397 32.8768 0.481974 33.1658C0.481974 33.2815 0.481974 33.3971 0.481974 33.4896V36.3915C0.481974 36.484 0.481974 36.6112 0.481974 36.7152C0.481974 37.0043 0.45882 37.2471 0.551436 37.5824C0.632474 37.8945 0.771396 38.1604 0.933473 38.4148C1.10713 38.6691 1.32709 38.9119 1.55862 39.1432L2.63528 40.2646C2.95943 40.5999 3.3762 40.7849 3.80454 40.7965V40.808Z" fill="#071E46"/>
</svg>
