<svg width="300" height="248" viewBox="0 0 300 248" fill="none" xmlns="http://www.w3.org/2000/svg">
<g clip-path="url(#clip0_615_639)">
<path d="M176.035 90.6017C157.462 90.7179 138.6 89.8242 120.962 84.7561C103.319 79.6888 87.7177 70.1308 73.534 58.9671C64.2457 51.6991 55.8048 45.9249 43.749 46.7926C31.9612 47.4322 20.6836 51.9808 11.5899 59.7677C-3.75237 73.6641 -1.42594 99.3374 4.6928 117.402C13.912 144.613 41.9717 163.501 65.7981 175.81C93.3474 190.046 123.6 198.32 153.938 203.066C180.532 207.239 214.689 210.285 237.715 192.314C258.882 175.833 264.69 138.146 259.501 112.702C258.238 105.187 254.367 98.4027 248.617 93.6301C233.746 82.3989 211.584 89.8954 194.871 90.2841C188.778 90.4184 182.374 90.5796 176.035 90.6017Z" fill="#073660"/>
<path d="M85.4766 1.63721V11.4949" stroke="#073660" stroke-width="2.62618" stroke-linecap="round" stroke-linejoin="round"/>
<path d="M80.7129 6.56543H90.2432" stroke="#073660" stroke-width="2.62618" stroke-linecap="round" stroke-linejoin="round"/>
<path d="M266.281 198.115V207.973" stroke="#073660" stroke-width="2.62618" stroke-linecap="round" stroke-linejoin="round"/>
<path d="M261.52 203.043H271.05" stroke="#073660" stroke-width="2.62618" stroke-linecap="round" stroke-linejoin="round"/>
<path d="M13.4716 155.544C14.6694 155.544 15.6423 154.538 15.6423 153.299C15.6423 152.06 14.6694 151.054 13.4716 151.054C12.2738 151.054 11.3008 152.06 11.3008 153.299C11.2965 154.538 12.2695 155.544 13.4716 155.544Z" fill="#073660"/>
<path d="M198.399 7.56836C199.453 7.56836 200.323 8.45635 200.323 9.56663C200.323 10.6769 199.453 11.5649 198.399 11.5649C197.339 11.5647 196.471 10.6806 196.475 9.56744C196.475 8.45725 197.344 7.56849 198.399 7.56836Z" fill="#073660" stroke="#073660" stroke-width="0.602818"/>
<path d="M138.201 247.632C183.125 247.632 219.54 245.293 219.54 242.403C219.54 239.518 183.125 237.175 138.201 237.175C93.2814 237.175 56.8633 239.514 56.8633 242.403C56.8633 245.293 93.2814 247.632 138.201 247.632Z" fill="#073660"/>
<path d="M75.55 28.4097H193.678C196.619 28.4097 199.439 29.6173 201.514 31.7686C203.59 33.92 204.757 36.8317 204.757 39.8731V185.234C204.757 188.275 203.59 191.191 201.514 193.338C199.434 195.485 196.614 196.692 193.678 196.692H60.411C57.4706 196.692 54.6555 195.485 52.5756 193.338C50.4956 191.187 49.3281 188.27 49.3281 185.234V55.8046L75.55 28.4097Z" fill="white" stroke="#073660" stroke-opacity="0.5" stroke-width="3.08962" stroke-linecap="round" stroke-linejoin="round"/>
<path d="M204.224 99.2476H82.4199V198.093H204.228V99.2476H204.224Z" fill="#073660"/>
<path d="M49.332 55.8046H70.806C72.0643 55.8001 73.2708 55.2768 74.1616 54.351C75.0524 53.4251 75.5497 52.1772 75.5497 50.8758V28.4097L49.332 55.8046Z" fill="white" stroke="#073660" stroke-opacity="0.5" stroke-width="3.08962" stroke-linecap="round" stroke-linejoin="round"/>
<path d="M203.627 67.6797H83.1505C78.4631 67.6797 74.6621 71.6111 74.6621 76.4595V103.121C74.6621 107.969 78.4631 111.901 83.1505 111.901H203.627C208.314 111.901 212.115 107.969 212.115 103.121V76.4595C212.115 71.6111 208.314 67.6797 203.627 67.6797Z" fill="white" stroke="#073660" stroke-opacity="0.5" stroke-width="3.08962" stroke-linecap="round" stroke-linejoin="round"/>
<path d="M98.0657 97.5032C102.152 97.5032 105.468 94.0771 105.468 89.8464C105.468 85.6197 102.156 82.1895 98.0657 82.1895C93.9793 82.1895 90.6621 85.6148 90.6621 89.8464C90.6621 94.0771 93.9793 97.5032 98.0657 97.5032Z" fill="#073660"/>
<path d="M121.336 97.5032C125.423 97.5032 128.74 94.0771 128.74 89.8464C128.74 85.6197 125.428 82.1895 121.336 82.1895C117.25 82.1895 113.934 85.6148 113.934 89.8464C113.934 94.0771 117.246 97.5032 121.336 97.5032Z" fill="#073660"/>
<path d="M144.585 97.5032C148.672 97.5032 151.988 94.0771 151.988 89.8464C151.988 85.6197 148.676 82.1895 144.585 82.1895C140.499 82.1895 137.182 85.6148 137.182 89.8464C137.182 94.0771 140.499 97.5032 144.585 97.5032Z" fill="#073660"/>
<path d="M203.627 116.691H83.1505C78.4631 116.691 74.6621 120.623 74.6621 125.471V152.132C74.6621 156.981 78.4631 160.912 83.1505 160.912H203.627C208.314 160.912 212.115 156.981 212.115 152.132V125.471C212.115 120.623 208.314 116.691 203.627 116.691Z" fill="white" stroke="#073660" stroke-opacity="0.5" stroke-width="3.08962" stroke-linecap="round" stroke-linejoin="round"/>
<path d="M98.0657 146.537C102.152 146.537 105.468 143.111 105.468 138.88C105.468 134.653 102.156 131.223 98.0657 131.223C93.9793 131.223 90.6621 134.649 90.6621 138.88C90.6621 143.111 93.9793 146.537 98.0657 146.537Z" fill="#073660"/>
<path d="M121.336 146.537C125.423 146.537 128.74 143.111 128.74 138.88C128.74 134.653 125.428 131.223 121.336 131.223C117.25 131.223 113.934 134.649 113.934 138.88C113.934 143.111 117.246 146.537 121.336 146.537Z" fill="#073660"/>
<path d="M144.585 146.537C148.672 146.537 151.988 143.111 151.988 138.88C151.988 134.653 148.676 131.223 144.585 131.223C140.499 131.223 137.182 134.649 137.182 138.88C137.182 143.111 140.499 146.537 144.585 146.537Z" fill="#073660"/>
<path d="M203.627 165.725H83.1505C78.4631 165.725 74.6621 169.656 74.6621 174.504V201.166C74.6621 206.014 78.4631 209.946 83.1505 209.946H203.627C208.314 209.946 212.115 206.014 212.115 201.166V174.504C212.115 169.656 208.314 165.725 203.627 165.725Z" fill="white" stroke="#073660" stroke-opacity="0.5" stroke-width="3.08962" stroke-linecap="round" stroke-linejoin="round"/>
<path d="M98.0657 195.548C102.152 195.548 105.468 192.121 105.468 187.89C105.468 183.663 102.156 180.233 98.0657 180.233C93.9793 180.233 90.6621 183.659 90.6621 187.89C90.6621 192.121 93.9793 195.548 98.0657 195.548Z" fill="#073660"/>
<path d="M121.336 195.548C125.423 195.548 128.74 192.121 128.74 187.89C128.74 183.663 125.428 180.233 121.336 180.233C117.25 180.233 113.934 183.659 113.934 187.89C113.934 192.121 117.246 195.548 121.336 195.548Z" fill="#073660"/>
<path d="M144.585 195.548C148.672 195.548 151.988 192.121 151.988 187.89C151.988 183.663 148.676 180.233 144.585 180.233C140.499 180.233 137.182 183.659 137.182 187.89C137.182 192.121 140.499 195.548 144.585 195.548Z" fill="#073660"/>
<path d="M214.533 123.519C239.907 123.519 260.477 102.244 260.477 75.9982C260.477 49.7527 239.907 28.481 214.533 28.481C189.158 28.481 168.588 49.7572 168.588 76.0027C168.588 102.248 189.158 123.519 214.533 123.519Z" fill="white" stroke="#073660" stroke-opacity="0.8" stroke-width="3.08962" stroke-linecap="round" stroke-linejoin="round"/>
<path d="M247.156 110.478L259.389 123.132" stroke="white" stroke-width="3.08962" stroke-linecap="round" stroke-linejoin="round"/>
<path d="M258.021 116.99L254.224 121.101C252.516 122.948 252.577 125.882 254.367 127.649L287.369 160.281C289.154 162.048 291.992 161.981 293.695 160.133L297.492 156.023C299.2 154.176 299.135 151.241 297.349 149.475L264.347 116.843C262.566 115.076 259.728 115.139 258.021 116.99Z" fill="white" stroke="#073660" stroke-opacity="0.8" stroke-width="3.08962" stroke-linecap="round" stroke-linejoin="round"/>
</g>
<defs>
<clipPath id="clip0_615_639">
<rect width="300" height="248" fill="white"/>
</clipPath>
</defs>
</svg>
