<svg width="367" height="303" viewBox="0 0 367 303" fill="none" xmlns="http://www.w3.org/2000/svg">
<path d="M215.349 110.695C192.629 110.837 169.554 109.745 147.977 103.553C126.394 97.3619 107.308 85.6841 89.9566 72.0446C78.5939 63.1648 68.2679 56.11 53.5196 57.1701C39.0992 57.9516 25.303 63.509 14.1783 73.0228C-4.59039 90.0011 -1.7444 121.368 5.74086 143.439C17.019 176.685 51.3454 199.762 80.493 214.8C114.195 232.194 151.204 242.303 188.318 248.101C220.851 253.2 262.636 256.921 290.805 234.965C316.699 214.828 323.804 168.783 317.456 137.696C315.911 128.515 311.176 120.226 304.141 114.395C285.949 100.673 258.838 109.832 238.392 110.307C230.939 110.471 223.104 110.668 215.349 110.695Z" fill="#073660"/>
<path d="M104.566 2V14.0439" stroke="#073660" stroke-width="2.62618" stroke-linecap="round" stroke-linejoin="round"/>
<path d="M98.7383 8.02148H110.397Z" fill="#073660"/>
<path d="M98.7383 8.02148H110.397" stroke="#073660" stroke-width="2.62618" stroke-linecap="round" stroke-linejoin="round"/>
<path d="M325.75 242.052V254.096Z" fill="#073660"/>
<path d="M325.75 242.052V254.096" stroke="#073660" stroke-width="2.62618" stroke-linecap="round" stroke-linejoin="round"/>
<path d="M319.926 248.073H331.585" stroke="#073660" stroke-width="2.62618" stroke-linecap="round" stroke-linejoin="round"/>
<path d="M16.4798 190.04C17.9451 190.04 19.1353 188.811 19.1353 187.297C19.1353 185.783 17.9451 184.554 16.4798 184.554C15.0145 184.554 13.8242 185.783 13.8242 187.297C13.8189 188.811 15.0092 190.04 16.4798 190.04Z" fill="#073660"/>
<path d="M242.708 9.24707C243.998 9.24707 245.062 10.332 245.062 11.6885C245.062 13.045 243.998 14.1299 242.708 14.1299C241.412 14.1297 240.35 13.0495 240.354 11.6895V11.6885C240.355 10.3321 241.418 9.24723 242.708 9.24707Z" fill="#073660" stroke="#073660" stroke-width="0.602818"/>
<path d="M169.066 302.55C224.023 302.55 268.57 299.692 268.57 296.162C268.57 292.637 224.023 289.774 169.066 289.774C114.114 289.774 69.5625 292.632 69.5625 296.162C69.5625 299.692 114.114 302.55 169.066 302.55Z" fill="#073660"/>
<path d="M92.4219 34.7104H236.932C240.53 34.7104 243.979 36.1859 246.518 38.8143C249.057 41.4428 250.485 45.0002 250.485 48.7161V226.314C250.485 230.03 249.057 233.593 246.518 236.216C243.973 238.839 240.524 240.314 236.932 240.314H73.9019C70.3047 240.314 66.861 238.839 64.3165 236.216C61.772 233.587 60.3438 230.024 60.3438 226.314V68.1808L92.4219 34.7104Z" fill="white" stroke="#073660" stroke-opacity="0.5" stroke-width="3.08962" stroke-linecap="round" stroke-linejoin="round"/>
<path d="M249.833 121.258H100.826V242.025H249.838V121.258H249.833Z" fill="#073660"/>
<path d="M60.3496 68.1808H86.6194C88.1588 68.1753 89.6347 67.536 90.7244 66.4048C91.8142 65.2736 92.4225 63.749 92.4225 62.1589V34.7104L60.3496 68.1808Z" fill="white" stroke="#073660" stroke-opacity="0.5" stroke-width="3.08962" stroke-linecap="round" stroke-linejoin="round"/>
<path d="M249.103 82.689H101.72C95.9858 82.689 91.3359 87.4923 91.3359 93.4159V125.99C91.3359 131.914 95.9858 136.717 101.72 136.717H249.103C254.837 136.717 259.487 131.914 259.487 125.99V93.4159C259.487 87.4923 254.837 82.689 249.103 82.689Z" fill="white" stroke="#073660" stroke-opacity="0.5" stroke-width="3.08962" stroke-linecap="round" stroke-linejoin="round"/>
<path d="M119.967 119.127C124.966 119.127 129.023 114.941 129.023 109.772C129.023 104.608 124.971 100.417 119.967 100.417C114.968 100.417 110.91 104.602 110.91 109.772C110.91 114.941 114.968 119.127 119.967 119.127Z" fill="#073660"/>
<path d="M148.435 119.127C153.434 119.127 157.492 114.941 157.492 109.772C157.492 104.608 153.44 100.417 148.435 100.417C143.436 100.417 139.379 104.602 139.379 109.772C139.379 114.941 143.431 119.127 148.435 119.127Z" fill="#073660"/>
<path d="M176.877 119.127C181.876 119.127 185.933 114.941 185.933 109.772C185.933 104.608 181.881 100.417 176.877 100.417C171.878 100.417 167.82 104.602 167.82 109.772C167.82 114.941 171.878 119.127 176.877 119.127Z" fill="#073660"/>
<path d="M249.103 142.57H101.72C95.9858 142.57 91.3359 147.374 91.3359 153.297V185.871C91.3359 191.795 95.9858 196.598 101.72 196.598H249.103C254.837 196.598 259.487 191.795 259.487 185.871V153.297C259.487 147.374 254.837 142.57 249.103 142.57Z" fill="white" stroke="#073660" stroke-opacity="0.5" stroke-width="3.08962" stroke-linecap="round" stroke-linejoin="round"/>
<path d="M119.967 179.035C124.966 179.035 129.023 174.849 129.023 169.68C129.023 164.516 124.971 160.325 119.967 160.325C114.968 160.325 110.91 164.511 110.91 169.68C110.91 174.849 114.968 179.035 119.967 179.035Z" fill="#073660"/>
<path d="M148.435 179.035C153.434 179.035 157.492 174.849 157.492 169.68C157.492 164.516 153.44 160.325 148.435 160.325C143.436 160.325 139.379 164.511 139.379 169.68C139.379 174.849 143.431 179.035 148.435 179.035Z" fill="#073660"/>
<path d="M176.877 179.035C181.876 179.035 185.933 174.849 185.933 169.68C185.933 164.516 181.881 160.325 176.877 160.325C171.878 160.325 167.82 164.511 167.82 169.68C167.82 174.849 171.878 179.035 176.877 179.035Z" fill="#073660"/>
<path d="M249.103 202.478H101.72C95.9858 202.478 91.3359 207.281 91.3359 213.204V245.779C91.3359 251.702 95.9858 256.506 101.72 256.506H249.103C254.837 256.506 259.487 251.702 259.487 245.779V213.204C259.487 207.281 254.837 202.478 249.103 202.478Z" fill="white" stroke="#073660" stroke-opacity="0.5" stroke-width="3.08962" stroke-linecap="round" stroke-linejoin="round"/>
<path d="M119.967 238.915C124.966 238.915 129.023 234.729 129.023 229.559C129.023 224.395 124.971 220.204 119.967 220.204C114.968 220.204 110.91 224.39 110.91 229.559C110.91 234.729 114.968 238.915 119.967 238.915Z" fill="#073660"/>
<path d="M148.435 238.915C153.434 238.915 157.492 234.729 157.492 229.559C157.492 224.395 153.44 220.204 148.435 220.204C143.436 220.204 139.379 224.39 139.379 229.559C139.379 234.729 143.431 238.915 148.435 238.915Z" fill="#073660"/>
<path d="M176.877 238.915C181.876 238.915 185.933 234.729 185.933 229.559C185.933 224.395 181.881 220.204 176.877 220.204C171.878 220.204 167.82 224.39 167.82 229.559C167.82 234.729 171.878 238.915 176.877 238.915Z" fill="#073660"/>
<path d="M262.446 150.913C293.487 150.913 318.651 124.919 318.651 92.8527C318.651 60.7867 293.487 34.7974 262.446 34.7974C231.404 34.7974 206.24 60.7922 206.24 92.8582C206.24 124.924 231.404 150.913 262.446 150.913Z" fill="white" stroke="#073660" stroke-opacity="0.8" stroke-width="3.08962" stroke-linecap="round" stroke-linejoin="round"/>
<path d="M302.354 134.979L317.319 150.439" stroke="white" stroke-width="3.08962" stroke-linecap="round" stroke-linejoin="round"/>
<path d="M315.646 142.936L311.001 147.958C308.912 150.215 308.986 153.799 311.176 155.958L351.549 195.827C353.733 197.986 357.204 197.904 359.288 195.647L363.932 190.625C366.022 188.368 365.943 184.783 363.758 182.625L323.385 142.756C321.206 140.597 317.735 140.674 315.646 142.936Z" fill="white" stroke="#073660" stroke-opacity="0.8" stroke-width="3.08962" stroke-linecap="round" stroke-linejoin="round"/>
</svg>
