<svg width="38" height="38" viewBox="0 0 38 38" fill="none" xmlns="http://www.w3.org/2000/svg">
<rect width="38" height="38" rx="19" fill="#073660"/>
<path d="M12.1034 23.2977C11.9729 23.2977 11.8452 23.2589 11.7367 23.1864C11.6282 23.1138 11.5436 23.0108 11.4936 22.8901C11.4436 22.7695 11.4306 22.6368 11.456 22.5087C11.4815 22.3807 11.5444 22.2631 11.6367 22.1707L21.9535 11.8539C22.0144 11.7908 22.0873 11.7405 22.1678 11.7059C22.2484 11.6713 22.335 11.6531 22.4226 11.6524C22.5103 11.6516 22.5972 11.6683 22.6784 11.7015C22.7595 11.7347 22.8332 11.7837 22.8952 11.8457C22.9572 11.9077 23.0062 11.9814 23.0394 12.0625C23.0726 12.1437 23.0893 12.2306 23.0886 12.3183C23.0878 12.4059 23.0696 12.4926 23.035 12.5731C23.0004 12.6537 22.9501 12.7265 22.887 12.7874L12.5702 23.1043C12.4414 23.233 12.2724 23.2977 12.1034 23.2977Z" fill="white"/>
<path d="M11.0845 28.0557C10.986 28.0557 10.8888 28.0338 10.7998 27.9914C10.7109 27.949 10.6326 27.8872 10.5707 27.8106C10.5087 27.734 10.4647 27.6445 10.4419 27.5487C10.419 27.4529 10.4179 27.3531 10.4385 27.2568L11.4585 22.5024C11.4765 22.4174 11.5111 22.3368 11.5602 22.2652C11.6094 22.1936 11.6722 22.1324 11.7451 22.0851C11.818 22.0378 11.8995 22.0053 11.9849 21.9896C12.0703 21.9739 12.158 21.9751 12.243 21.9934C12.3279 22.0116 12.4084 22.0464 12.4799 22.0958C12.5513 22.1452 12.6124 22.2082 12.6594 22.2812C12.7065 22.3542 12.7387 22.4358 12.7541 22.5213C12.7696 22.6068 12.768 22.6945 12.7496 22.7794L11.7296 27.5338C11.6979 27.6814 11.6167 27.8137 11.4993 27.9087C11.3819 28.0037 11.2355 28.0555 11.0845 28.0557ZM15.8383 27.0357C15.7077 27.0356 15.5801 26.9969 15.4716 26.9243C15.363 26.8518 15.2784 26.7487 15.2285 26.6281C15.1785 26.5075 15.1654 26.3747 15.1909 26.2467C15.2164 26.1187 15.2792 26.001 15.3715 25.9087L25.6884 15.5922C25.7493 15.5291 25.8221 15.4788 25.9027 15.4442C25.9832 15.4096 26.0699 15.3914 26.1575 15.3906C26.2452 15.3899 26.3321 15.4066 26.4132 15.4398C26.4944 15.473 26.5681 15.522 26.6301 15.584C26.6921 15.646 26.7411 15.7197 26.7743 15.8008C26.8075 15.882 26.8242 15.9689 26.8234 16.0566C26.8227 16.1442 26.8044 16.2308 26.7698 16.3114C26.7352 16.3919 26.6849 16.4648 26.6219 16.5257L16.3054 26.8422C16.2441 26.9037 16.1713 26.9524 16.0911 26.9856C16.011 27.0188 15.925 27.0358 15.8383 27.0357Z" fill="white"/>
<path d="M11.0835 28.0533C10.9208 28.0526 10.7641 27.9919 10.6434 27.8828C10.5227 27.7737 10.4465 27.6239 10.4294 27.4621C10.4123 27.3004 10.4556 27.138 10.5508 27.0061C10.646 26.8742 10.7866 26.7821 10.9455 26.7474L15.6999 25.7274C15.8709 25.6913 16.0492 25.7244 16.1958 25.8195C16.3423 25.9147 16.4452 26.064 16.4819 26.2349C16.5185 26.4057 16.4859 26.5841 16.3913 26.731C16.2966 26.8779 16.1476 26.9812 15.9769 27.0184L11.2225 28.0384C11.1768 28.0484 11.1302 28.0533 11.0835 28.0533ZM24.288 18.5838C24.2013 18.5839 24.1154 18.5669 24.0353 18.5337C23.9552 18.5005 23.8825 18.4518 23.8213 18.3903L20.0869 14.6559C20.0238 14.595 19.9735 14.5222 19.9389 14.4416C19.9043 14.3611 19.8861 14.2745 19.8854 14.1868C19.8846 14.0991 19.9013 14.0122 19.9345 13.9311C19.9677 13.8499 20.0167 13.7762 20.0787 13.7142C20.1407 13.6522 20.2144 13.6032 20.2956 13.57C20.3767 13.5368 20.4636 13.5201 20.5513 13.5209C20.6389 13.5217 20.7256 13.5399 20.8061 13.5745C20.8867 13.6091 20.9595 13.6594 21.0204 13.7224L24.7548 17.4568C24.8471 17.5491 24.91 17.6668 24.9354 17.7948C24.9609 17.9229 24.9478 18.0556 24.8979 18.1762C24.8479 18.2968 24.7633 18.3999 24.6548 18.4725C24.5462 18.545 24.4186 18.5837 24.288 18.5838ZM26.1554 16.7167C26.0248 16.7168 25.897 16.6782 25.7883 16.6056C25.6797 16.5331 25.595 16.43 25.545 16.3093C25.495 16.1886 25.4819 16.0557 25.5074 15.9276C25.5329 15.7995 25.5959 15.6818 25.6883 15.5894C26.0557 15.222 26.2581 14.7246 26.2581 14.1892C26.2581 13.6538 26.0557 13.1563 25.6883 12.7889C25.3206 12.4212 24.8231 12.2188 24.2877 12.2188C23.7523 12.2188 23.2548 12.4212 22.8874 12.7889C22.8261 12.8502 22.7533 12.8989 22.6732 12.932C22.5931 12.9652 22.5072 12.9823 22.4205 12.9823C22.3338 12.9823 22.2479 12.9652 22.1678 12.932C22.0877 12.8989 22.0149 12.8502 21.9536 12.7889C21.8923 12.7276 21.8436 12.6548 21.8105 12.5747C21.7773 12.4946 21.7602 12.4087 21.7602 12.322C21.7602 12.2353 21.7773 12.1494 21.8105 12.0693C21.8436 11.9892 21.8923 11.9164 21.9536 11.8551C22.5702 11.2381 23.3991 10.8984 24.2877 10.8984C25.176 10.8984 26.0052 11.2381 26.6218 11.8551C27.2388 12.4717 27.5785 13.3006 27.5785 14.1892C27.5785 15.0778 27.2388 15.9067 26.6218 16.5233C26.5607 16.5847 26.488 16.6334 26.4079 16.6666C26.3279 16.6998 26.2421 16.7168 26.1554 16.7167Z" fill="white"/>
</svg>
