<svg width="12" height="14" viewBox="0 0 12 14" fill="none" xmlns="http://www.w3.org/2000/svg">
<path d="M11.1646 3.00212L8.24788 0.0854492C8.19319 0.0307617 8.11914 0 8.04165 0H1.91665C1.27352 0 0.75 0.523223 0.75 1.16668V12.8334C0.75 13.4768 1.27352 14 1.91668 14H10.0834C10.7265 14 11.25 13.4768 11.25 12.8333V3.20832C11.25 3.13086 11.2192 3.05681 11.1646 3.00212ZM8.33332 0.995777L10.2542 2.91668H8.91665C8.59478 2.91668 8.33332 2.65491 8.33332 2.33335V0.995777ZM10.6667 12.8333C10.6667 13.1549 10.4052 13.4166 10.0834 13.4166H1.91668C1.59481 13.4166 1.33335 13.1549 1.33335 12.8333V1.16668C1.33335 0.845113 1.59484 0.583352 1.91668 0.583352H7.75V2.33335C7.75 2.97678 8.27352 3.5 8.91668 3.5H10.6667V12.8333Z" fill="black"/>
<path d="M7.01941 9.13176C7.56178 9.13176 8.00327 8.69053 8.00327 8.1479C8.00327 7.60528 7.56178 7.16406 7.01941 7.16406C6.47704 7.16406 6.03555 7.6053 6.03555 8.14793C6.03555 8.21856 6.04373 8.28718 6.05794 8.35364L4.80562 8.97978C4.62514 8.77322 4.36298 8.63984 4.06785 8.63984C3.52547 8.63984 3.08398 9.08108 3.08398 9.62371C3.08398 10.1663 3.52547 10.6076 4.06785 10.6076C4.36293 10.6076 4.62502 10.4743 4.80553 10.2678L6.05796 10.8938C6.04376 10.9603 6.03557 11.0289 6.03557 11.0995C6.03557 11.6421 6.47706 12.0834 7.01943 12.0834C7.56181 12.0834 8.0033 11.6421 8.0033 11.0995C8.0033 10.5569 7.56178 10.1156 7.01941 10.1156C6.72428 10.1156 6.4621 10.249 6.28159 10.4556L5.02925 9.82958C5.04348 9.76308 5.05171 9.69441 5.05171 9.62371C5.05171 9.55308 5.04352 9.48445 5.02932 9.418L6.28164 8.79185C6.46212 8.99839 6.72428 9.13176 7.01941 9.13176ZM7.01941 7.65598C7.29084 7.65598 7.51133 7.87673 7.51133 8.1479C7.51133 8.41908 7.29082 8.63982 7.01941 8.63982C6.74801 8.63982 6.52749 8.41908 6.52749 8.1479C6.52749 7.87673 6.74798 7.65598 7.01941 7.65598ZM4.06785 10.1156C3.79642 10.1156 3.57593 9.89488 3.57593 9.62371C3.57593 9.35253 3.79644 9.13179 4.06785 9.13179C4.33925 9.13179 4.55977 9.35253 4.55977 9.62371C4.55977 9.89488 4.33928 10.1156 4.06785 10.1156ZM7.01941 10.6075C7.29084 10.6075 7.51133 10.8283 7.51133 11.0995C7.51133 11.3706 7.29084 11.5914 7.01941 11.5914C6.74798 11.5914 6.52749 11.3707 6.52749 11.0995C6.52749 10.8283 6.74798 10.6075 7.01941 10.6075Z" fill="black"/>
<line x1="3.10898" y1="3.76406" x2="6.30898" y2="3.76406" stroke="black" stroke-width="0.8" stroke-linecap="round"/>
<line x1="3.10898" y1="5.76406" x2="5.30898" y2="5.76406" stroke="black" stroke-width="0.8" stroke-linecap="round"/>
</svg>
