<svg width="23" height="22" viewBox="0 0 23 22" fill="none" xmlns="http://www.w3.org/2000/svg">
<g clip-path="url(#clip0_6_302)">
<path d="M22.4881 11.2052C22.4881 10.3039 22.4133 9.64613 22.2513 8.96405H11.7189V13.0322H17.9012C17.7766 14.0432 17.1035 15.5657 15.6077 16.5888L15.5868 16.725L18.9169 19.246L19.1477 19.2685C21.2666 17.3562 22.4881 14.5426 22.4881 11.2052Z" fill="#4285F4"/>
<path d="M11.7189 21.9244C14.7478 21.9244 17.2905 20.9499 19.1477 19.2691L15.6078 16.5894C14.6605 17.2349 13.3891 17.6856 11.7189 17.6856C8.75243 17.6856 6.23463 15.7734 5.33711 13.1302L5.20555 13.1412L1.74279 15.7599L1.69751 15.8829C3.54223 19.4639 7.33143 21.9244 11.7189 21.9244Z" fill="#34A853"/>
<path d="M5.33725 13.1307C5.10043 12.4487 4.96337 11.7178 4.96337 10.9626C4.96337 10.2074 5.10043 9.47664 5.32479 8.79456L5.31852 8.64929L1.81237 5.98846L1.69765 6.04179C0.937358 7.52779 0.501099 9.19652 0.501099 10.9626C0.501099 12.7288 0.937358 14.3974 1.69765 15.8834L5.33725 13.1307Z" fill="#FBBC05"/>
<path d="M11.7189 4.23839C13.8254 4.23839 15.2463 5.12754 16.0565 5.87059L19.2225 2.84987C17.2781 1.08374 14.7477 -0.000305176 11.7189 -0.000305176C7.33142 -0.000305176 3.54223 2.46008 1.69751 6.04105L5.32464 8.79382C6.23463 6.15071 8.75242 4.23839 11.7189 4.23839Z" fill="#EB4335"/>
</g>
<defs>
<clipPath id="clip0_6_302">
<rect width="22" height="22" fill="white" transform="translate(0.5)"/>
</clipPath>
</defs>
</svg>
