<svg width="336" height="95" viewBox="0 0 336 95" fill="none" xmlns="http://www.w3.org/2000/svg">
<path d="M143.007 76.6133C142.487 76.6133 142.035 76.5133 141.651 76.3133C141.275 76.1053 140.975 75.8293 140.751 75.4853C140.535 75.1413 140.403 74.7653 140.355 74.3573H141.291C141.371 74.7973 141.563 75.1373 141.867 75.3773C142.171 75.6173 142.555 75.7373 143.019 75.7373C143.443 75.7373 143.815 75.6133 144.135 75.3653C144.463 75.1093 144.727 74.7213 144.927 74.2013C145.127 73.6813 145.243 73.0253 145.275 72.2333C145.275 72.1933 145.275 72.1613 145.275 72.1373C145.275 72.1053 145.275 72.0693 145.275 72.0293C145.163 72.2853 144.991 72.5213 144.759 72.7373C144.535 72.9453 144.263 73.1173 143.943 73.2533C143.631 73.3813 143.275 73.4453 142.875 73.4453C142.411 73.4453 141.971 73.3333 141.555 73.1093C141.139 72.8853 140.803 72.5733 140.547 72.1733C140.291 71.7653 140.163 71.2893 140.163 70.7453C140.163 70.2733 140.279 69.8213 140.511 69.3893C140.743 68.9573 141.071 68.6053 141.495 68.3333C141.919 68.0613 142.423 67.9253 143.007 67.9253C143.615 67.9253 144.123 68.0373 144.531 68.2613C144.947 68.4853 145.279 68.7893 145.527 69.1733C145.775 69.5573 145.955 69.9893 146.067 70.4693C146.179 70.9413 146.235 71.4293 146.235 71.9333C146.235 72.8533 146.107 73.6653 145.851 74.3693C145.603 75.0733 145.239 75.6253 144.759 76.0253C144.279 76.4173 143.695 76.6133 143.007 76.6133ZM143.079 72.5693C143.447 72.5693 143.779 72.4853 144.075 72.3173C144.371 72.1493 144.603 71.9253 144.771 71.6453C144.939 71.3573 145.023 71.0373 145.023 70.6853C145.023 70.3173 144.939 69.9933 144.771 69.7133C144.603 69.4253 144.371 69.2053 144.075 69.0533C143.779 68.8933 143.447 68.8133 143.079 68.8133C142.719 68.8133 142.395 68.8933 142.107 69.0533C141.827 69.2133 141.603 69.4333 141.435 69.7133C141.267 69.9933 141.183 70.3213 141.183 70.6973C141.183 71.0733 141.267 71.4013 141.435 71.6813C141.603 71.9613 141.827 72.1813 142.107 72.3413C142.395 72.4933 142.719 72.5693 143.079 72.5693ZM151.029 76.4693V68.0693H156.225V68.8973H152.037V71.8253H155.865V72.6413H152.037V75.6413H156.225V76.4693H151.029ZM157.766 76.4693V70.3133H158.678L158.738 71.1773C158.93 70.8653 159.186 70.6213 159.506 70.4453C159.834 70.2613 160.186 70.1693 160.562 70.1693C160.874 70.1693 161.154 70.2133 161.402 70.3013C161.65 70.3813 161.866 70.5093 162.05 70.6853C162.242 70.8533 162.398 71.0693 162.518 71.3333C162.726 70.9573 163.01 70.6693 163.37 70.4693C163.73 70.2693 164.114 70.1693 164.522 70.1693C164.986 70.1693 165.386 70.2613 165.722 70.4453C166.066 70.6293 166.33 70.9093 166.514 71.2853C166.706 71.6613 166.802 72.1333 166.802 72.7013V76.4693H165.806V72.8093C165.806 72.2173 165.682 71.7733 165.434 71.4773C165.186 71.1813 164.838 71.0333 164.39 71.0333C164.094 71.0333 163.822 71.1133 163.574 71.2733C163.334 71.4333 163.142 71.6693 162.998 71.9813C162.854 72.2853 162.782 72.6573 162.782 73.0973V76.4693H161.774V72.8093C161.774 72.2173 161.65 71.7733 161.402 71.4773C161.154 71.1813 160.814 71.0333 160.382 71.0333C160.086 71.0333 159.814 71.1133 159.566 71.2733C159.326 71.4333 159.134 71.6693 158.99 71.9813C158.846 72.2853 158.774 72.6573 158.774 73.0973V76.4693H157.766ZM171.107 76.6133C170.531 76.6133 170.019 76.4813 169.571 76.2173C169.123 75.9533 168.771 75.5813 168.515 75.1013C168.267 74.6133 168.143 74.0453 168.143 73.3973C168.143 72.7413 168.271 72.1733 168.527 71.6933C168.783 71.2133 169.135 70.8413 169.583 70.5773C170.039 70.3053 170.555 70.1693 171.131 70.1693C171.707 70.1693 172.219 70.3053 172.667 70.5773C173.115 70.8413 173.463 71.2133 173.711 71.6933C173.967 72.1733 174.095 72.7413 174.095 73.3973C174.095 74.0453 173.967 74.6133 173.711 75.1013C173.455 75.5813 173.099 75.9533 172.643 76.2173C172.195 76.4813 171.683 76.6133 171.107 76.6133ZM171.107 75.7493C171.467 75.7493 171.795 75.6613 172.091 75.4853C172.387 75.3093 172.623 75.0453 172.799 74.6933C172.975 74.3413 173.063 73.9093 173.063 73.3973C173.063 72.8693 172.975 72.4333 172.799 72.0893C172.631 71.7373 172.399 71.4733 172.103 71.2973C171.807 71.1213 171.483 71.0333 171.131 71.0333C170.779 71.0333 170.455 71.1213 170.159 71.2973C169.863 71.4733 169.623 71.7373 169.439 72.0893C169.263 72.4333 169.175 72.8693 169.175 73.3973C169.175 73.9093 169.263 74.3413 169.439 74.6933C169.615 75.0453 169.847 75.3093 170.135 75.4853C170.431 75.6613 170.755 75.7493 171.107 75.7493ZM177.709 76.4693C177.349 76.4693 177.037 76.4133 176.773 76.3013C176.509 76.1893 176.305 76.0013 176.161 75.7373C176.025 75.4653 175.957 75.1013 175.957 74.6453V71.1653H174.877V70.3133H175.957L176.089 68.8133H176.965V70.3133H178.729V71.1653H176.965V74.6453C176.965 75.0213 177.041 75.2773 177.193 75.4133C177.345 75.5413 177.613 75.6053 177.997 75.6053H178.669V76.4693H177.709ZM180.175 76.4693V70.3133H181.183V76.4693H180.175ZM180.679 69.0653C180.479 69.0653 180.311 69.0013 180.175 68.8733C180.047 68.7373 179.983 68.5693 179.983 68.3693C179.983 68.1693 180.047 68.0093 180.175 67.8893C180.311 67.7613 180.479 67.6973 180.679 67.6973C180.871 67.6973 181.035 67.7613 181.171 67.8893C181.307 68.0093 181.375 68.1693 181.375 68.3693C181.375 68.5693 181.307 68.7373 181.171 68.8733C181.035 69.0013 180.871 69.0653 180.679 69.0653ZM185.661 76.6133C185.085 76.6133 184.573 76.4813 184.125 76.2173C183.677 75.9533 183.325 75.5813 183.069 75.1013C182.821 74.6133 182.697 74.0453 182.697 73.3973C182.697 72.7413 182.825 72.1733 183.081 71.6933C183.337 71.2133 183.689 70.8413 184.137 70.5773C184.593 70.3053 185.109 70.1693 185.685 70.1693C186.261 70.1693 186.773 70.3053 187.221 70.5773C187.669 70.8413 188.017 71.2133 188.265 71.6933C188.521 72.1733 188.649 72.7413 188.649 73.3973C188.649 74.0453 188.521 74.6133 188.265 75.1013C188.009 75.5813 187.653 75.9533 187.197 76.2173C186.749 76.4813 186.237 76.6133 185.661 76.6133ZM185.661 75.7493C186.021 75.7493 186.349 75.6613 186.645 75.4853C186.941 75.3093 187.177 75.0453 187.353 74.6933C187.529 74.3413 187.617 73.9093 187.617 73.3973C187.617 72.8693 187.529 72.4333 187.353 72.0893C187.185 71.7373 186.953 71.4733 186.657 71.2973C186.361 71.1213 186.037 71.0333 185.685 71.0333C185.333 71.0333 185.009 71.1213 184.713 71.2973C184.417 71.4733 184.177 71.7373 183.993 72.0893C183.817 72.4333 183.729 72.8693 183.729 73.3973C183.729 73.9093 183.817 74.3413 183.993 74.6933C184.169 75.0453 184.401 75.3093 184.689 75.4853C184.985 75.6613 185.309 75.7493 185.661 75.7493ZM190.086 76.4693V70.3133H190.998L191.058 71.3453C191.242 70.9773 191.51 70.6893 191.862 70.4813C192.214 70.2733 192.618 70.1693 193.074 70.1693C193.546 70.1693 193.954 70.2613 194.298 70.4453C194.642 70.6293 194.91 70.9093 195.102 71.2853C195.294 71.6533 195.39 72.1213 195.39 72.6893V76.4693H194.382V72.7973C194.382 72.2133 194.246 71.7733 193.974 71.4773C193.702 71.1813 193.326 71.0333 192.846 71.0333C192.526 71.0333 192.23 71.1133 191.958 71.2733C191.694 71.4333 191.482 71.6653 191.322 71.9693C191.17 72.2653 191.094 72.6333 191.094 73.0733V76.4693H190.086ZM199.268 76.6133C198.74 76.6133 198.288 76.5293 197.912 76.3613C197.544 76.1933 197.256 75.9573 197.048 75.6533C196.84 75.3493 196.712 74.9933 196.664 74.5853H197.696C197.736 74.7933 197.816 74.9893 197.936 75.1733C198.064 75.3493 198.236 75.4933 198.452 75.6053C198.676 75.7093 198.952 75.7613 199.28 75.7613C199.56 75.7613 199.792 75.7213 199.976 75.6413C200.168 75.5533 200.308 75.4373 200.396 75.2933C200.492 75.1413 200.54 74.9773 200.54 74.8013C200.54 74.5453 200.48 74.3493 200.36 74.2133C200.248 74.0773 200.08 73.9733 199.856 73.9013C199.64 73.8213 199.372 73.7573 199.052 73.7093C198.748 73.6613 198.464 73.5973 198.2 73.5173C197.944 73.4293 197.716 73.3173 197.516 73.1813C197.324 73.0453 197.172 72.8773 197.06 72.6773C196.956 72.4693 196.904 72.2213 196.904 71.9333C196.904 71.5893 196.992 71.2853 197.168 71.0213C197.352 70.7573 197.608 70.5493 197.936 70.3973C198.272 70.2453 198.668 70.1693 199.124 70.1693C199.78 70.1693 200.308 70.3253 200.708 70.6373C201.108 70.9493 201.344 71.3973 201.416 71.9813H200.42C200.38 71.6853 200.244 71.4533 200.012 71.2853C199.788 71.1093 199.488 71.0213 199.112 71.0213C198.72 71.0213 198.424 71.0973 198.224 71.2493C198.024 71.4013 197.924 71.6013 197.924 71.8493C197.924 72.0253 197.972 72.1813 198.068 72.3173C198.172 72.4453 198.332 72.5573 198.548 72.6533C198.772 72.7413 199.052 72.8133 199.388 72.8693C199.812 72.9333 200.188 73.0253 200.516 73.1453C200.844 73.2653 201.104 73.4493 201.296 73.6973C201.488 73.9373 201.58 74.2773 201.572 74.7173C201.58 75.1013 201.488 75.4373 201.296 75.7253C201.104 76.0133 200.836 76.2333 200.492 76.3853C200.148 76.5373 199.74 76.6133 199.268 76.6133ZM203.419 76.5293C203.227 76.5293 203.063 76.4653 202.927 76.3373C202.799 76.2013 202.735 76.0373 202.735 75.8453C202.735 75.6533 202.799 75.4933 202.927 75.3653C203.063 75.2293 203.227 75.1613 203.419 75.1613C203.627 75.1613 203.791 75.2293 203.911 75.3653C204.039 75.4933 204.103 75.6533 204.103 75.8453C204.103 76.0373 204.039 76.2013 203.911 76.3373C203.791 76.4653 203.627 76.5293 203.419 76.5293ZM212.404 76.6133C211.62 76.6133 210.924 76.4333 210.316 76.0733C209.716 75.7053 209.248 75.1973 208.912 74.5493C208.576 73.8933 208.408 73.1333 208.408 72.2693C208.408 71.4133 208.576 70.6613 208.912 70.0133C209.248 69.3573 209.716 68.8453 210.316 68.4773C210.924 68.1093 211.62 67.9253 212.404 67.9253C213.212 67.9253 213.916 68.1093 214.516 68.4773C215.116 68.8453 215.58 69.3573 215.908 70.0133C216.244 70.6613 216.412 71.4133 216.412 72.2693C216.412 73.1333 216.244 73.8933 215.908 74.5493C215.58 75.1973 215.116 75.7053 214.516 76.0733C213.916 76.4333 213.212 76.6133 212.404 76.6133ZM212.416 75.7253C213.008 75.7253 213.524 75.5893 213.964 75.3173C214.412 75.0373 214.76 74.6413 215.008 74.1293C215.256 73.6093 215.38 72.9893 215.38 72.2693C215.38 71.5493 215.256 70.9333 215.008 70.4213C214.76 69.9013 214.412 69.5053 213.964 69.2333C213.524 68.9613 213.008 68.8253 212.416 68.8253C211.824 68.8253 211.304 68.9613 210.856 69.2333C210.408 69.5053 210.06 69.9013 209.812 70.4213C209.564 70.9333 209.44 71.5493 209.44 72.2693C209.44 72.9893 209.564 73.6093 209.812 74.1293C210.06 74.6413 210.408 75.0373 210.856 75.3173C211.304 75.5893 211.824 75.7253 212.416 75.7253ZM217.824 76.4693V70.3133H218.736L218.796 71.3453C218.98 70.9773 219.248 70.6893 219.6 70.4813C219.952 70.2733 220.356 70.1693 220.812 70.1693C221.284 70.1693 221.692 70.2613 222.036 70.4453C222.38 70.6293 222.648 70.9093 222.84 71.2853C223.032 71.6533 223.128 72.1213 223.128 72.6893V76.4693H222.12V72.7973C222.12 72.2133 221.984 71.7733 221.712 71.4773C221.44 71.1813 221.064 71.0333 220.584 71.0333C220.264 71.0333 219.968 71.1133 219.696 71.2733C219.432 71.4333 219.22 71.6653 219.06 71.9693C218.908 72.2653 218.832 72.6333 218.832 73.0733V76.4693H217.824ZM227.367 76.6133C226.807 76.6133 226.307 76.4813 225.867 76.2173C225.435 75.9453 225.095 75.5693 224.847 75.0893C224.599 74.6013 224.475 74.0373 224.475 73.3973C224.475 72.7493 224.599 72.1853 224.847 71.7053C225.095 71.2173 225.435 70.8413 225.867 70.5773C226.307 70.3053 226.815 70.1693 227.391 70.1693C227.991 70.1693 228.495 70.3053 228.903 70.5773C229.319 70.8413 229.635 71.1933 229.851 71.6333C230.067 72.0733 230.175 72.5533 230.175 73.0733C230.175 73.1533 230.175 73.2373 230.175 73.3253C230.175 73.4133 230.171 73.5133 230.163 73.6253H225.231V72.8453H229.179C229.163 72.2613 228.983 71.8133 228.639 71.5013C228.303 71.1813 227.879 71.0213 227.367 71.0213C227.031 71.0213 226.719 71.1013 226.431 71.2613C226.143 71.4213 225.907 71.6573 225.723 71.9693C225.547 72.2733 225.459 72.6573 225.459 73.1213V73.4573C225.459 73.9613 225.547 74.3853 225.723 74.7293C225.907 75.0733 226.143 75.3333 226.431 75.5093C226.719 75.6773 227.031 75.7613 227.367 75.7613C227.807 75.7613 228.159 75.6733 228.423 75.4973C228.687 75.3133 228.883 75.0573 229.011 74.7293H230.007C229.903 75.0893 229.731 75.4133 229.491 75.7013C229.259 75.9813 228.963 76.2053 228.603 76.3733C228.251 76.5333 227.839 76.6133 227.367 76.6133ZM237.483 76.6133C236.867 76.6133 236.331 76.5013 235.875 76.2773C235.419 76.0533 235.067 75.7413 234.819 75.3413C234.571 74.9413 234.447 74.4773 234.447 73.9493H235.503C235.503 74.2773 235.579 74.5813 235.731 74.8613C235.883 75.1333 236.103 75.3533 236.391 75.5213C236.687 75.6813 237.051 75.7613 237.483 75.7613C237.859 75.7613 238.179 75.7013 238.443 75.5813C238.715 75.4533 238.919 75.2813 239.055 75.0653C239.199 74.8493 239.271 74.6053 239.271 74.3333C239.271 74.0133 239.203 73.7533 239.067 73.5533C238.931 73.3453 238.743 73.1773 238.503 73.0493C238.271 72.9213 237.999 72.8093 237.687 72.7133C237.375 72.6093 237.047 72.4973 236.703 72.3773C236.023 72.1533 235.523 71.8733 235.203 71.5373C234.891 71.2013 234.735 70.7653 234.735 70.2293C234.735 69.7733 234.839 69.3733 235.047 69.0293C235.263 68.6853 235.567 68.4173 235.959 68.2253C236.359 68.0253 236.831 67.9253 237.375 67.9253C237.911 67.9253 238.375 68.0253 238.767 68.2253C239.167 68.4253 239.479 68.7013 239.703 69.0533C239.927 69.3973 240.039 69.7973 240.039 70.2533H238.983C238.983 70.0213 238.923 69.7933 238.803 69.5693C238.683 69.3453 238.499 69.1613 238.251 69.0173C238.011 68.8653 237.707 68.7893 237.339 68.7893C237.035 68.7813 236.763 68.8333 236.523 68.9453C236.291 69.0493 236.107 69.2013 235.971 69.4013C235.843 69.6013 235.779 69.8453 235.779 70.1333C235.779 70.4053 235.835 70.6253 235.947 70.7933C236.067 70.9613 236.235 71.1053 236.451 71.2253C236.675 71.3373 236.935 71.4413 237.231 71.5373C237.527 71.6333 237.855 71.7413 238.215 71.8613C238.623 71.9973 238.983 72.1653 239.295 72.3653C239.615 72.5573 239.863 72.8053 240.039 73.1093C240.223 73.4133 240.315 73.8013 240.315 74.2733C240.315 74.6733 240.207 75.0533 239.991 75.4133C239.783 75.7653 239.471 76.0533 239.055 76.2773C238.639 76.5013 238.115 76.6133 237.483 76.6133ZM241.719 79.1093V70.3133H242.631L242.727 71.2973C242.855 71.0973 243.015 70.9133 243.207 70.7453C243.407 70.5773 243.647 70.4413 243.927 70.3373C244.207 70.2253 244.527 70.1693 244.887 70.1693C245.463 70.1693 245.967 70.3133 246.399 70.6013C246.831 70.8813 247.167 71.2653 247.407 71.7533C247.655 72.2333 247.779 72.7853 247.779 73.4093C247.779 74.0253 247.655 74.5773 247.407 75.0653C247.167 75.5453 246.827 75.9253 246.387 76.2053C245.955 76.4773 245.451 76.6133 244.875 76.6133C244.387 76.6133 243.955 76.5133 243.579 76.3133C243.211 76.1133 242.927 75.8333 242.727 75.4733V79.1093H241.719ZM244.755 75.7373C245.147 75.7373 245.491 75.6413 245.787 75.4493C246.083 75.2573 246.315 74.9853 246.483 74.6333C246.659 74.2813 246.747 73.8693 246.747 73.3973C246.747 72.9173 246.659 72.5053 246.483 72.1613C246.315 71.8093 246.083 71.5373 245.787 71.3453C245.491 71.1453 245.147 71.0453 244.755 71.0453C244.355 71.0453 244.003 71.1453 243.699 71.3453C243.403 71.5373 243.171 71.8093 243.003 72.1613C242.843 72.5053 242.763 72.9173 242.763 73.3973C242.763 73.8693 242.843 74.2813 243.003 74.6333C243.171 74.9853 243.403 75.2573 243.699 75.4493C244.003 75.6413 244.355 75.7373 244.755 75.7373ZM251.199 76.6133C250.711 76.6133 250.303 76.5253 249.975 76.3493C249.655 76.1733 249.415 75.9413 249.255 75.6533C249.095 75.3653 249.015 75.0493 249.015 74.7053C249.015 74.2973 249.119 73.9493 249.327 73.6613C249.543 73.3733 249.843 73.1573 250.227 73.0133C250.611 72.8613 251.063 72.7853 251.583 72.7853H253.167C253.167 72.3933 253.115 72.0693 253.011 71.8133C252.907 71.5493 252.743 71.3533 252.519 71.2253C252.303 71.0893 252.027 71.0213 251.691 71.0213C251.315 71.0213 250.991 71.1173 250.719 71.3093C250.447 71.4933 250.279 71.7693 250.215 72.1373H249.183C249.231 71.7133 249.375 71.3573 249.615 71.0693C249.855 70.7733 250.159 70.5493 250.527 70.3973C250.895 70.2453 251.283 70.1693 251.691 70.1693C252.251 70.1693 252.715 70.2733 253.083 70.4813C253.451 70.6813 253.723 70.9653 253.899 71.3333C254.083 71.6933 254.175 72.1213 254.175 72.6173V76.4693H253.275L253.215 75.3893C253.135 75.5573 253.031 75.7173 252.903 75.8693C252.783 76.0133 252.639 76.1413 252.471 76.2533C252.311 76.3653 252.123 76.4533 251.907 76.5173C251.691 76.5813 251.455 76.6133 251.199 76.6133ZM251.343 75.7613C251.615 75.7613 251.863 75.7013 252.087 75.5813C252.319 75.4613 252.515 75.3013 252.675 75.1013C252.835 74.9013 252.955 74.6773 253.035 74.4293C253.123 74.1733 253.167 73.9093 253.167 73.6373V73.5653H251.667C251.283 73.5653 250.971 73.6133 250.731 73.7093C250.499 73.7973 250.331 73.9253 250.227 74.0933C250.123 74.2613 250.071 74.4493 250.071 74.6573C250.071 74.8813 250.119 75.0773 250.215 75.2453C250.311 75.4053 250.455 75.5333 250.647 75.6293C250.839 75.7173 251.071 75.7613 251.343 75.7613ZM255.781 76.4693V70.3133H256.693L256.777 71.4653C256.913 71.1853 257.089 70.9493 257.305 70.7573C257.529 70.5653 257.797 70.4213 258.109 70.3253C258.421 70.2213 258.773 70.1693 259.165 70.1693V71.2253H258.697C258.449 71.2253 258.209 71.2613 257.977 71.3333C257.753 71.3973 257.549 71.5053 257.365 71.6573C257.189 71.8013 257.049 72.0013 256.945 72.2573C256.841 72.5133 256.789 72.8333 256.789 73.2173V76.4693H255.781ZM264.037 76.4693L261.157 73.1213L263.821 70.3133H265.057L262.009 73.4813L262.021 72.7613L265.321 76.4693H264.037ZM260.317 76.4693V67.8293H261.325V76.4693H260.317ZM266.375 76.4693V67.8293H267.383V76.4693H266.375ZM271.699 76.6133C271.139 76.6133 270.639 76.4813 270.199 76.2173C269.767 75.9453 269.427 75.5693 269.179 75.0893C268.931 74.6013 268.807 74.0373 268.807 73.3973C268.807 72.7493 268.931 72.1853 269.179 71.7053C269.427 71.2173 269.767 70.8413 270.199 70.5773C270.639 70.3053 271.147 70.1693 271.723 70.1693C272.323 70.1693 272.827 70.3053 273.235 70.5773C273.651 70.8413 273.967 71.1933 274.183 71.6333C274.399 72.0733 274.507 72.5533 274.507 73.0733C274.507 73.1533 274.507 73.2373 274.507 73.3253C274.507 73.4133 274.503 73.5133 274.495 73.6253H269.563V72.8453H273.511C273.495 72.2613 273.315 71.8133 272.971 71.5013C272.635 71.1813 272.211 71.0213 271.699 71.0213C271.363 71.0213 271.051 71.1013 270.763 71.2613C270.475 71.4213 270.239 71.6573 270.055 71.9693C269.879 72.2733 269.791 72.6573 269.791 73.1213V73.4573C269.791 73.9613 269.879 74.3853 270.055 74.7293C270.239 75.0733 270.475 75.3333 270.763 75.5093C271.051 75.6773 271.363 75.7613 271.699 75.7613C272.139 75.7613 272.491 75.6733 272.755 75.4973C273.019 75.3133 273.215 75.0573 273.343 74.7293H274.339C274.235 75.0893 274.063 75.4133 273.823 75.7013C273.591 75.9813 273.295 76.2053 272.935 76.3733C272.583 76.5333 272.171 76.6133 271.699 76.6133Z" fill="#FCD6AB"/>
<path fill-rule="evenodd" clip-rule="evenodd" d="M116.592 61.0456C117.881 61.7837 119.47 62.1921 121.388 62.2863C121.608 62.2863 121.86 62.2863 122.08 62.2863C124.014 62.2863 125.666 61.9408 127.034 61.2812C128.402 60.6059 129.078 59.7892 129.078 58.8626V49.6751H122.536C124.077 49.8008 124.989 50.3033 125.21 51.1514V59.9148C125.21 60.4645 124.832 60.8886 124.203 61.2341C123.59 61.5953 122.819 61.7837 121.954 61.8152C121.671 61.8152 121.372 61.8152 121.121 61.7837C120.445 61.6895 119.847 61.5168 119.375 61.2341C118.731 60.8729 118.369 60.4488 118.369 59.8991V35.0694C118.385 34.5197 118.715 34.0486 119.391 33.6717C120.02 33.3419 120.602 33.1534 121.121 33.122C121.656 33.0906 122.001 33.0906 122.159 33.0906C122.835 33.0906 123.527 33.1534 124.203 33.2947C125.068 33.4518 125.791 33.6874 126.389 33.9701C127.584 34.5511 128.166 35.2422 128.166 36.0588V37.2838C127.914 38.1476 127.018 38.6345 125.477 38.7758H127.726H129.062V36.0588C129.062 35.1322 128.402 34.3156 127.034 33.656C125.556 32.9806 123.889 32.6194 122.017 32.6194H121.75C119.784 32.6508 118.086 33.0749 116.623 33.8601C115.287 34.614 114.5 35.6819 114.5 36.8441V58.0459C114.485 59.2238 115.271 60.2604 116.608 61.0456H116.592ZM144.552 33.9072C143.231 33.122 141.423 32.6665 139.394 32.6665C137.366 32.6665 135.557 33.122 134.252 33.9072C132.915 34.6611 132.098 35.729 132.098 36.8912V47.6806C132.098 48.8585 132.915 49.895 134.252 50.6646C135.557 51.4184 137.397 51.8896 139.394 51.8896C140.621 51.8896 141.769 51.7168 142.823 51.4027V58.5485C142.823 59.0039 142.791 59.4908 142.697 59.9777C142.587 60.543 142.288 60.9514 141.816 61.2498C140.747 61.8309 139.803 61.8309 139.363 61.8309C138.923 61.8309 138.529 61.7837 138.105 61.6895C136.878 61.4382 135.95 60.8257 135.95 59.9463V57.4963C136.202 56.6011 137.083 56.0828 138.624 55.9415H132.113V58.8783C132.16 59.852 132.821 60.653 134.158 61.2969C135.164 61.7837 136.123 62.0664 137.02 62.145C137.916 62.2392 138.624 62.2863 139.127 62.2863C139.882 62.2863 140.621 62.2235 141.376 62.1136C142.917 61.8623 144.159 61.3754 145.15 60.6373C146.157 59.8991 146.66 59.0511 146.691 58.0773V36.8755C146.675 35.7133 145.873 34.6454 144.537 33.8915L144.552 33.9072ZM142.807 49.6437C142.713 50.1149 142.367 50.5075 141.8 50.8373C141.124 51.2299 140.322 51.4184 139.379 51.4184C138.435 51.4184 137.633 51.2142 136.957 50.8373C136.281 50.4604 135.95 49.9892 135.95 49.4396V35.0223C135.95 34.4726 136.312 34.0643 136.957 33.7031C137.633 33.3104 138.435 33.122 139.379 33.122C140.322 33.122 141.124 33.3261 141.8 33.7031C142.429 34.0486 142.823 34.4726 142.823 35.0223V49.6437H142.807ZM160.011 61.3754C161.458 62.035 163.093 62.3648 164.918 62.3648H165.295C167.292 62.3334 169.006 61.9094 170.437 61.1241C171.774 60.3389 172.592 59.2866 172.592 58.1245V33.9701C172.843 33.1377 173.693 32.7765 175.249 32.6822C173.551 32.6822 171.837 32.6822 170.139 32.6822H166.034C167.575 32.7922 168.44 33.1377 168.692 33.9858V59.9934C168.692 60.543 168.314 60.9671 167.685 61.3283C166.993 61.7052 166.191 61.8937 165.279 61.8937C164.367 61.8937 163.581 61.7052 162.857 61.3283C162.213 60.9671 161.851 60.543 161.851 59.9934V51.3085C161.851 50.4447 162.779 49.9264 164.603 49.7537H157.919L157.904 58.9254C157.967 59.8834 158.659 60.6844 160.027 61.3754H160.011ZM183.82 49.9892C185.361 50.0364 186.399 50.2719 186.934 50.6803C187.469 51.0886 187.736 51.7953 187.736 52.8162V52.8947C187.752 51.8424 187.767 50.7745 187.767 49.7222C187.767 48.67 187.767 47.6021 187.736 46.5498V46.6284C187.736 47.6649 187.468 48.3716 186.965 48.8114C186.415 49.2511 185.361 49.4867 183.82 49.5495L182.012 49.5809L182.059 33.0749H185.975C187.594 33.122 188.931 33.4047 190.016 33.9387C191.133 34.504 191.73 35.2108 191.793 36.0274V32.6037H175.47C176.979 32.7294 177.86 33.2005 178.127 34.0329V61.1555C177.876 61.9879 177.026 62.1921 175.485 62.2863H191.793V58.8626C191.73 59.695 191.133 60.4017 190 60.9514C188.931 61.4854 187.594 61.7837 185.975 61.8309H181.996V49.9892H183.852H183.82ZM203.745 62.302H204.594C205.994 57.9988 207.425 53.5229 208.919 48.8742L209.092 48.3245L213.133 62.302H213.998C215.366 58.0459 216.813 53.6171 218.26 49.0155C219.974 43.6915 221.609 38.6031 223.198 33.7502C223.497 33.012 224.283 32.7294 225.698 32.6351H220.116C221.326 32.7294 222.396 33.0435 222.396 33.6088C222.396 33.656 222.396 33.7031 222.38 33.7502C219.88 41.2572 217.458 48.7956 215.13 56.3341C213.825 51.5283 212.488 46.7383 211.152 41.9482C212.048 39.1213 212.944 36.3886 213.794 33.7502C214.108 33.012 214.895 32.7294 216.31 32.6351H202.361C203.698 32.7451 204.547 33.122 204.909 33.7816L208.683 46.911C207.708 50.0364 206.717 53.1774 205.742 56.3341C203.666 48.7956 201.575 41.2729 199.42 33.7502C199.404 33.7188 199.404 33.6874 199.404 33.6717C199.404 33.4518 199.625 33.2319 200.065 33.0435C200.552 32.8393 201.103 32.6979 201.732 32.6351H192.988C194.325 32.7451 195.174 33.122 195.504 33.7816L203.761 62.3177L203.745 62.302ZM208.824 33.7345C208.824 33.7345 208.809 33.6717 208.809 33.6403C208.809 33.4361 208.997 33.2476 209.39 33.0749C209.815 32.8707 210.334 32.7294 210.932 32.6508C212.08 32.7451 213.023 33.0592 213.023 33.5931C213.023 33.6403 213.023 33.6874 213.007 33.7345C212.253 36.0117 211.498 38.2732 210.759 40.5191C210.114 38.2575 209.485 35.996 208.856 33.7345H208.824ZM233.262 49.9892H231.438L231.422 61.8309H235.401C237.021 61.7837 238.358 61.5011 239.427 60.9514C240.559 60.386 241.157 59.6793 241.22 58.8626V62.2863H224.912C226.453 62.1921 227.318 61.9879 227.554 61.1555V34.0329C227.287 33.2005 226.406 32.7294 224.896 32.6037H241.22V36.0274C241.157 35.1951 240.559 34.4883 239.443 33.9387C238.358 33.4047 237.021 33.122 235.401 33.0749H231.485L231.438 49.5809L233.247 49.5495C234.804 49.4867 235.841 49.2354 236.392 48.8114C236.911 48.3873 237.162 47.6649 237.162 46.6284V46.5498C237.178 47.6021 237.194 48.67 237.194 49.7222C237.194 50.7745 237.194 51.8424 237.162 52.8947V52.8162C237.162 51.7796 236.895 51.0729 236.36 50.6803C235.826 50.2719 234.788 50.0364 233.247 49.9892H233.262ZM258.77 62.302V58.8783C258.723 59.7107 258.125 60.4174 257.008 60.9671C255.923 61.5011 254.571 61.7995 252.967 61.8466H248.988V58.2344C249.004 50.1149 249.02 42.0111 249.051 33.9229C249.303 33.1377 250.183 32.7137 251.693 32.6194H242.478C243.972 32.7137 244.852 33.1377 245.12 33.9229V61.1713C244.868 62.0036 243.987 62.1921 242.462 62.302H258.786H258.77ZM276.351 62.302V58.8783C276.304 59.7107 275.722 60.4174 274.59 60.9671C273.505 61.5011 272.153 61.7995 270.549 61.8466H266.57V58.2344C266.586 50.1149 266.601 42.0111 266.633 33.9229C266.884 33.1377 267.765 32.7137 269.275 32.6194H260.059C261.553 32.7137 262.434 33.1377 262.701 33.9229V61.1713C262.45 62.0036 261.569 62.1921 260.044 62.302H276.351ZM285.96 49.9892C287.501 50.0364 288.539 50.2719 289.074 50.6803C289.608 51.0886 289.876 51.7953 289.876 52.8162V52.8947C289.891 51.8424 289.907 50.7745 289.907 49.7222C289.907 48.67 289.907 47.6021 289.876 46.5498V46.6284C289.876 47.6649 289.608 48.3716 289.105 48.8114C288.555 49.2511 287.501 49.4867 285.96 49.5495L284.151 49.5809L284.199 33.0749H288.114C289.734 33.122 291.071 33.4047 292.156 33.9387C293.272 34.504 293.87 35.2108 293.933 36.0274V32.6037H277.609C279.119 32.7294 280 33.2005 280.267 34.0329V61.1555C280.016 61.9879 279.166 62.1921 277.625 62.2863H293.933V58.8626C293.87 59.695 293.272 60.4017 292.14 60.9514C291.071 61.4854 289.734 61.7837 288.114 61.8309H284.136V49.9892H285.991H285.96ZM301.623 33.0906H304.705C305.869 33.0906 308.259 33.2633 308.181 34.237V48.4187C308.181 48.7014 307.992 48.937 307.646 49.1726C307.3 49.4081 305.271 49.9107 301.623 50.696V33.0749V33.0906ZM306.215 50.1149L306.356 50.0835C307.064 50.1149 307.615 50.3033 308.008 50.6646C308.401 51.0258 308.605 51.4498 308.605 51.8896L308.495 61.1398C308.228 61.9565 307.347 62.1764 305.806 62.2706H315.006C313.465 62.1764 312.6 61.9565 312.364 61.1241L312.458 54.0568C312.458 52.8319 311.908 51.7953 310.429 50.9001C309.596 50.3976 308.621 50.0521 307.442 49.8636C308.574 49.628 309.423 49.3924 310.021 49.1255C311.499 48.4658 312.049 47.712 312.049 46.8168V35.7918C312.049 34.8967 311.499 34.1428 310.021 33.4989C308.479 32.8393 306.577 32.588 304.705 32.588H295.112C296.606 32.6822 297.503 33.1063 297.754 33.9072V61.1398C297.503 61.9722 296.606 62.1764 295.112 62.2863H304.312C302.755 62.1921 301.859 61.9879 301.639 61.1398V60.9671H301.623V51.12L306.199 50.0835L306.215 50.1149ZM322.727 45.686L316.405 33.9229C315.996 33.2319 314.99 32.8864 313.779 32.6194H322.428C321.909 32.6508 321.438 32.7922 321.044 33.0435C320.683 33.2476 320.494 33.5146 320.494 33.8287V33.9229L326.281 44.7594L331.817 33.9072C331.817 33.9072 331.817 33.8444 331.817 33.813C331.817 33.5617 331.502 32.7451 330.401 32.6194H335.984C335.843 32.6194 335.717 32.6508 335.575 32.6665C334.317 32.8707 333.091 33.4204 332.603 33.9072L326.627 45.6075L326.58 61.1241C326.847 61.9251 327.728 62.1764 329.222 62.2863H320.054C321.548 62.1921 322.46 61.9251 322.696 61.1241V45.686H322.727Z" fill="#FCD6AB"/>
<path fill-rule="evenodd" clip-rule="evenodd" d="M6.74636 55.7216C6.24313 56.0043 5.67699 56.1299 5.11086 56.0985C4.37174 56.0671 3.64835 55.753 3.09794 55.1719L1.63543 53.6485C1.30519 53.303 0.990669 52.9575 0.723328 52.5806C0.455988 52.188 0.235825 51.7639 0.110018 51.2614C-0.0315157 50.7274 -0.0157897 50.3348 -6.38207e-05 49.9107C-6.38207e-05 49.7851 -6.38207e-05 49.6751 -6.38207e-05 49.4867V45.5447C-6.38207e-05 45.3562 -6.38207e-05 45.2306 -6.38207e-05 45.1207C-6.38207e-05 44.6809 -0.0315157 44.304 0.110018 43.7543C0.235825 43.2518 0.455988 42.8277 0.723328 42.4351C0.990669 42.0582 1.30519 41.7127 1.63543 41.3672L3.09794 39.8438C3.64835 39.2627 4.38747 38.9486 5.14231 38.9172C5.77135 38.8858 6.40039 39.0585 6.95079 39.4197C7.02942 38.3832 7.28104 37.3781 7.67419 36.4358C8.14596 35.3207 8.82218 34.2999 9.71855 33.4047L33.6062 9.51726C34.424 8.7006 35.3833 8.04099 36.4212 7.56983C37.3018 7.17721 38.2296 6.91022 39.2047 6.78458C38.9216 6.28202 38.7958 5.71664 38.8272 5.15125C38.8587 4.41311 39.1732 3.69068 39.7551 3.141L41.2805 1.68043C41.6264 1.35062 41.9724 1.03652 42.3498 0.769537C42.743 0.50255 43.1676 0.282679 43.6708 0.157039C44.2055 0.015693 44.5829 0.0313981 45.0232 0.0471032C45.149 0.0471032 45.2591 0.0471032 45.4478 0.0471032H49.395C49.5838 0.0471032 49.7096 0.0471032 49.8196 0.0471032C50.26 0.0471032 50.6374 0.015693 51.1721 0.157039C51.6753 0.282679 52.0999 0.50255 52.4931 0.769537C52.8705 1.03652 53.2164 1.35062 53.5624 1.68043L55.0878 3.141C55.6697 3.70639 55.9842 4.44452 56.0157 5.18266C56.0471 5.82657 55.8741 6.47048 55.481 7.02016C56.5032 7.11439 57.4782 7.34996 58.4217 7.7583C59.5383 8.22945 60.5605 8.92047 61.4254 9.78425C69.2412 17.6054 77.8904 25.6778 85.3445 33.7188C86.1151 34.5197 86.7284 35.3992 87.1844 36.3729C87.609 37.2995 87.8921 38.289 88.0179 39.3412C88.5369 39.0271 89.1187 38.9015 89.6849 38.9172C90.4397 38.9486 91.1631 39.2627 91.7292 39.8438L93.1917 41.3672C93.522 41.7127 93.8365 42.0582 94.1038 42.4351C94.3712 42.8277 94.5913 43.2518 94.7171 43.7543C94.8587 44.304 94.843 44.6809 94.8272 45.1207C94.8272 45.2463 94.8272 45.3562 94.8272 45.5447V49.4867C94.8272 49.6751 94.8272 49.8008 94.8272 49.9107C94.8272 50.3505 94.8587 50.7274 94.7171 51.2614C94.5913 51.7639 94.3712 52.188 94.1038 52.5806C93.8365 52.9575 93.522 53.303 93.1917 53.6485L91.7292 55.1719C91.1788 55.753 90.4397 56.0671 89.6849 56.0985C89.0401 56.1299 88.3953 55.9572 87.8449 55.5645C87.7506 56.5854 87.5147 57.5748 87.1215 58.5014C86.6497 59.6165 85.9735 60.6373 85.0929 61.5168C77.1356 69.4949 69.2097 77.5674 61.2052 85.4827C60.4032 86.2523 59.5225 86.8805 58.5633 87.3359C57.6354 87.7599 56.6447 88.0426 55.5911 88.1683C55.8899 88.6865 56.0314 89.2676 56.0157 89.833C55.9842 90.5869 55.6697 91.325 55.0878 91.8747L53.5624 93.3353C53.2164 93.6651 52.8705 93.9792 52.4931 94.2461C52.0999 94.5131 51.6753 94.733 51.1721 94.8587C50.6374 95 50.26 94.9843 49.8196 94.9686C49.6938 94.9686 49.5838 94.9686 49.395 94.9686H45.4478C45.2591 94.9686 45.1333 94.9686 45.0232 94.9686C44.5829 94.9686 44.2055 95 43.6708 94.8587C43.1676 94.733 42.743 94.5131 42.3498 94.2461C41.9724 93.9792 41.6264 93.6651 41.2805 93.3353L39.7551 91.8747C39.1732 91.3093 38.8587 90.5712 38.8272 89.833C38.7958 89.2048 38.9688 88.5609 39.3305 88.0269C38.2925 87.9484 37.2861 87.6971 36.3583 87.3045C35.2417 86.8334 34.2195 86.1423 33.3389 85.2628L9.48267 61.344C8.66492 60.5274 8.00443 59.5693 7.53265 58.5171C7.1395 57.6376 6.87216 56.6953 6.76208 55.7373L6.74636 55.7216ZM29.2816 46.4556C35.2574 46.4556 33.103 47.3194 40.2111 40.1893C41.7208 38.6659 42.9946 37.3781 44.52 35.8704C47.0362 33.389 46.3442 33.8915 46.3599 29.2428C44.5515 30.2008 43.2777 32.0226 41.8152 33.4832L31.2002 44.1155C29.9893 45.3091 29.8792 45.1364 29.2816 46.4556ZM48.2628 28.9601C48.31 33.6717 47.6337 33.546 49.741 35.572L57.6983 43.5502C61.2996 47.1623 59.6326 46.6127 65.8444 46.5655C65.1681 45.4505 49.4894 29.6826 48.2628 28.9601ZM28.9985 48.4816C29.486 49.4867 29.2816 49.1412 30.0836 49.9578C32.7413 52.6905 44.7716 65.1132 46.4229 65.977C46.4071 59.5379 47.4293 61.9722 40.2111 54.7479C32.9772 47.5078 35.4147 48.513 28.9985 48.4816ZM48.2785 66.0398C50.0084 65.1446 61.0637 53.5229 63.6113 50.9944C64.0359 50.5703 64.3818 50.2876 64.775 49.8636C65.5456 48.9998 65.1996 49.5495 65.7028 48.4973C59.5068 48.4816 61.7556 47.5078 54.4745 54.795C47.272 62.0036 48.2785 59.585 48.2785 66.0398ZM47.3192 57.5591C48.0583 57.1665 48.0741 57.0565 48.766 56.3812C50.716 54.4024 56.8177 48.7328 57.4153 47.1623L49.8825 39.7652C48.766 38.6345 48.5144 38.1319 47.2091 37.4252L37.3018 47.2094L47.335 57.5748L47.3192 57.5591ZM89.559 41.9011L83.1743 47.4921L89.559 53.0831L91.0216 51.5598C92.0595 50.4761 91.8079 50.4761 91.8079 49.471V47.4921V45.5133C91.8079 44.4925 92.0595 44.4925 91.0216 43.4245L89.559 41.9011ZM41.8309 5.2926L47.4136 11.6846L52.9963 5.2926L51.4709 3.83203C50.4015 2.79549 50.4015 3.04677 49.3793 3.04677H47.4136H45.4478C44.4257 3.04677 44.4257 2.79549 43.3563 3.83203L41.8309 5.2926ZM5.28384 53.0831L11.6686 47.4921L5.28384 41.9011L3.82133 43.4245C2.78342 44.5082 3.03504 44.5082 3.03504 45.5133V47.4921V49.471C3.03504 50.4918 2.78342 50.4918 3.82133 51.5598L5.28384 53.0831ZM53.012 89.7074L47.4293 83.3154L41.8466 89.7074L43.372 91.168C44.4414 92.2045 44.4414 91.9532 45.4636 91.9532H47.4293H49.395C50.4172 91.9532 50.4172 92.2045 51.4866 91.168L53.012 89.7074ZM84.8727 54.5751C84.857 52.8005 84.1336 51.0415 82.7497 49.6594C81.8062 48.7171 80.6739 48.0732 79.463 47.7591C80.1549 47.5864 80.7211 47.3194 81.1929 46.9896C81.9005 46.4713 82.4352 46.0473 82.7969 45.7018C83.3159 45.1835 83.7405 44.6024 84.1336 43.9742C84.9042 42.6393 85.1872 41.2258 85.03 39.7338C84.8885 38.2261 84.2751 36.9069 83.19 35.7919L59.3024 11.8887C57.9971 10.5852 56.2516 9.9256 54.4902 9.97271C52.7132 9.98842 50.9676 10.7108 49.5838 12.0929C48.6245 13.0666 47.964 14.2445 47.6652 15.4852C47.3035 14.166 46.6273 12.9881 45.6208 11.9673L45.4321 11.7788C44.0482 10.4753 42.4285 9.78425 40.5414 9.69002C38.7801 9.6429 37.0345 10.3025 35.7292 11.606L11.8416 35.4935C10.5049 36.8284 9.89154 38.5245 9.92299 40.3149C9.97017 42.0268 10.5835 43.5659 11.7944 44.9793C11.9359 45.1521 12.0932 45.3091 12.2504 45.4662C13.1154 46.33 14.0746 46.9582 15.0968 47.3194C13.9174 47.6963 12.8637 48.3402 11.9516 49.2511L11.7629 49.4396C10.4734 50.8216 9.76573 52.4549 9.67138 54.3396C9.6242 56.0985 10.269 57.8418 11.5742 59.1453L35.4304 83.0641C36.7671 84.3991 38.4655 85.0116 40.2426 84.9959C41.9567 84.9487 43.4978 84.3205 44.8974 83.127C45.0704 82.9856 45.2277 82.8286 45.3849 82.6715C46.2341 81.8234 46.8317 80.9125 47.2091 79.9231C47.3821 80.4571 47.6023 80.9282 47.8854 81.3052C48.4043 82.0276 48.8132 82.5616 49.1749 82.9071C49.6938 83.4254 50.26 83.8651 50.9047 84.242C52.2414 85.0116 53.641 85.31 55.135 85.1372C56.6447 84.9959 57.95 84.3834 59.0665 83.284L82.9384 59.3495C84.2437 58.0459 84.9042 56.3027 84.8413 54.5437L84.8727 54.5751ZM75.9876 47.7591C75.3114 47.5392 74.7138 47.1623 74.1476 46.6598L70.8609 43.3303L75.2956 38.8858C74.415 40.1107 74.3993 41.3043 75.2327 42.4665L77.9848 45.2306C78.9755 46.22 80.2808 46.2828 81.413 45.7332C81.7904 45.5447 82.1207 45.3248 82.4195 45.0264C82.7183 44.728 83.3473 44.0841 83.4259 42.7021C83.4102 42.0425 83.1429 41.3672 82.5925 40.6604C82.105 40.0479 81.586 39.4825 81.067 38.9643L73.0154 30.8919C72.6694 31.9598 72.0718 32.9335 71.2383 33.7816C69.8859 35.1322 68.0932 35.8704 66.3476 35.9018C64.5706 35.9332 62.8407 35.3207 61.5197 34.0015L49.3636 21.83C48.5144 20.982 47.9483 19.9454 47.6652 18.8461C47.445 19.5371 47.0676 20.1496 46.5329 20.6836L43.4664 23.7461L42.57 22.8195L41.6422 21.9086L41.0289 21.2961C42.224 22.1913 43.4035 22.2384 44.5357 21.4374L45.9196 20.0554C46.8317 19.1445 47.2091 17.9666 47.0519 16.4903C46.9733 15.7679 46.7216 15.014 46.3285 14.2445C46.0297 13.632 45.6208 13.0823 45.1648 12.6269C45.0547 12.5169 44.8031 12.2971 44.4099 11.9516C44.0325 11.6217 43.4349 11.449 42.6172 11.3862C41.7208 11.3548 40.966 11.6689 40.3526 12.2814L12.392 40.2835C11.7787 40.896 11.5585 41.6341 11.5742 42.4665C11.5742 43.1104 11.7786 43.7072 12.1403 44.2726C12.2976 44.4768 12.4863 44.6809 12.675 44.8851C13.3041 45.4505 14.0589 45.7332 14.8767 45.7646C15.7101 45.796 16.4335 45.5761 17.0626 44.9636L26.9384 35.0851C27.7562 33.9701 27.6933 32.7922 26.7812 31.5986L31.2316 36.0588L20.884 46.4242C20.4279 46.8796 19.909 47.2251 19.3271 47.4607C19.8146 47.6806 20.2549 47.9947 20.6481 48.3873L23.7146 51.4498L22.7868 52.345L21.8747 53.2873L21.2614 53.8998C22.1578 52.7062 22.2049 51.5283 21.4029 50.3976L20.019 49.0155C19.1069 48.1046 17.9275 47.7277 16.465 47.8691C15.7416 47.9476 15.0025 48.1989 14.2319 48.6072C13.6186 48.9056 13.0682 49.3139 12.6121 49.7694C12.502 49.8793 12.2819 50.1306 11.9516 50.5232C11.6214 50.9001 11.4484 51.5126 11.4012 52.3136C11.3698 53.2088 11.6843 53.9626 12.2976 54.5751L40.2426 82.593C40.8559 83.2055 41.5793 83.4411 42.4285 83.4096C43.0732 83.4096 43.6708 83.2055 44.2369 82.8443C44.4414 82.6872 44.6458 82.4987 44.8503 82.3103C45.4007 81.6821 45.6995 80.9282 45.7152 80.1116C45.7466 79.2635 45.5265 78.5411 44.9132 77.9286L35.053 68.0501C33.9365 67.2334 32.757 67.2962 31.5619 68.2071L36.0123 63.7469L46.3599 74.1122C46.816 74.5677 47.1462 75.0702 47.3821 75.6513C47.6023 75.1802 47.9011 74.7247 48.2942 74.3164L51.6124 71.0183L56.0471 75.4629C54.8205 74.5834 53.641 74.5677 52.4773 75.4001L49.7253 78.1642C48.7346 79.1536 48.6717 80.4728 49.2221 81.6036C49.4108 81.9805 49.6309 82.326 49.9297 82.6087C50.2285 82.9071 50.8576 83.551 52.2414 83.6138C52.9019 83.5981 53.5781 83.3311 54.2858 82.7657C54.8991 82.2789 55.4653 81.7606 55.9685 81.2423L64.0201 73.1699C62.9508 72.8244 61.9758 72.2276 61.1423 71.3796C59.7899 70.0289 59.0665 68.2228 59.035 66.4796C59.0036 64.6892 59.6169 62.9773 60.9379 61.6424L73.094 49.471C73.9275 48.6386 74.9497 48.0732 76.0505 47.7905L75.9876 47.7591ZM65.9859 71.1283L82.4667 54.6537C83.08 54.0412 83.2844 53.303 83.253 52.4706C83.2215 51.5755 82.907 50.8059 82.2622 50.162C81.6175 49.5181 80.8469 49.204 79.9505 49.1726C79.1328 49.1255 78.4094 49.361 77.7961 49.9735L61.5669 66.2283C60.9536 66.8408 60.6391 67.6103 60.6705 68.4898C60.702 69.385 61.0165 70.1546 61.6613 70.7985C62.306 71.4424 63.0766 71.7565 63.973 71.7879C64.7121 71.7879 65.3883 71.5994 66.0016 71.1283H65.9859ZM71.0182 28.913L54.5689 12.407C53.9556 11.7945 53.2164 11.5746 52.3987 11.6217C51.5023 11.6532 50.7318 11.9673 50.087 12.6112C49.4422 13.2551 49.1277 14.0246 49.0963 14.9198C49.0491 15.7522 49.285 16.4746 49.8983 17.0871L66.1274 33.3419C66.7407 33.9544 67.4956 34.2685 68.392 34.237C69.2883 34.2056 70.0589 33.8915 70.7037 33.2476C71.3484 32.6037 71.6629 31.8342 71.6944 30.939C71.6944 30.2008 71.5057 29.5098 71.0339 28.913H71.0182ZM5.15804 55.4703C5.7399 55.5017 6.32176 55.3133 6.80926 54.9206C6.85644 54.8735 6.93507 54.8421 7.0137 54.8264C7.18668 54.8264 7.34394 54.952 7.34394 55.1248C7.40684 56.2085 7.67418 57.2607 8.11451 58.2344C8.55484 59.2081 9.16815 60.1033 9.92299 60.8729L33.7792 84.7917C34.6127 85.6241 35.572 86.268 36.5942 86.7077C37.6478 87.1475 38.7801 87.3987 39.9595 87.4144C40.0381 87.4144 40.101 87.4458 40.1639 87.493C40.2897 87.6029 40.3055 87.8071 40.1954 87.9327L40.0381 88.1212C39.6135 88.608 39.4248 89.2048 39.4563 89.8016C39.4877 90.3984 39.7236 90.9795 40.1797 91.4192L41.7051 92.8798C42.0353 93.1939 42.3498 93.4923 42.6958 93.7279C43.0261 93.9635 43.4035 94.1519 43.8123 94.2619C44.2684 94.3875 44.5986 94.3718 44.9918 94.3561C45.1491 94.3561 45.3063 94.3561 45.4321 94.3561H49.3793C49.5051 94.3561 49.6781 94.3561 49.8196 94.3561C50.2128 94.3561 50.543 94.3875 50.9991 94.2619C51.4237 94.1519 51.7854 93.9635 52.1156 93.7279C52.4616 93.4923 52.7761 93.1939 53.1064 92.8798L54.6318 91.4192C55.0878 90.9795 55.3394 90.3984 55.3552 89.8016C55.3866 89.2048 55.1822 88.608 54.7733 88.1212H54.7576C54.7576 88.1212 54.679 87.9798 54.6632 87.9013C54.6632 87.7285 54.789 87.5715 54.962 87.5715L55.3709 87.5401C56.3931 87.4301 57.3681 87.1789 58.2645 86.7548C59.1608 86.3308 59.9943 85.7497 60.7334 85.0273L84.6211 61.077C85.4389 60.2604 86.0679 59.3024 86.5082 58.2658C86.9485 57.2136 87.2002 56.0828 87.2159 54.9363C87.2159 54.8578 87.2473 54.795 87.2945 54.7322C87.4046 54.6065 87.609 54.5908 87.7348 54.7008L87.955 54.8892C88.4268 55.3133 89.0401 55.5017 89.6219 55.4703C90.2195 55.4389 90.8014 55.2033 91.2417 54.7322L92.7042 53.2088C93.0187 52.879 93.3018 52.5649 93.5534 52.2194C93.7893 51.8896 93.9623 51.5126 94.0724 51.0886C94.1982 50.6332 94.1825 50.3033 94.1667 49.9107C94.1667 49.7537 94.1667 49.5966 94.1667 49.471V45.529C94.1667 45.4034 94.1667 45.2306 94.1667 45.0893C94.1667 44.6966 94.1982 44.3668 94.0724 43.9114C93.9623 43.4873 93.7736 43.1261 93.5534 42.7806C93.3175 42.4351 93.0187 42.1053 92.7042 41.7912L91.2417 40.2678C90.8014 39.8124 90.2195 39.5611 89.6219 39.5297C89.0244 39.4983 88.4268 39.7024 87.955 40.1108H87.9393C87.9393 40.1108 87.8135 40.205 87.7348 40.2207C87.5619 40.2207 87.4046 40.095 87.4046 39.9223L87.3731 39.4982C87.2631 38.4617 87.0115 37.5037 86.5868 36.6085C86.1622 35.7133 85.5961 34.881 84.857 34.1428L60.9379 10.224C60.1201 9.40733 59.1608 8.77913 58.1387 8.33938C57.085 7.89964 55.9685 7.64836 54.8048 7.61695C54.7261 7.61695 54.6632 7.58554 54.6003 7.53842C54.4745 7.42849 54.4588 7.22432 54.5689 7.09868L54.7576 6.87881C55.1822 6.39195 55.3709 5.79516 55.3394 5.19837C55.308 4.60157 55.0721 4.02049 54.6161 3.58074L53.0906 2.12017C52.7604 1.80607 52.4459 1.50768 52.0999 1.2721C51.7697 1.03652 51.3922 0.848062 50.9834 0.738126C50.5273 0.612486 50.1971 0.628191 49.8039 0.643896C49.6467 0.643896 49.4894 0.643896 49.3636 0.643896H45.4164C45.2906 0.643896 45.1176 0.643896 44.9761 0.643896C44.5829 0.643896 44.2527 0.612486 43.7966 0.738126C43.372 0.848062 43.0103 1.03652 42.6801 1.2721C42.3341 1.50768 42.0196 1.80607 41.6893 2.12017L40.1639 3.58074C39.7079 4.02049 39.472 4.58587 39.4405 5.16696C39.4091 5.74805 39.5821 6.34484 39.9909 6.81599C40.0381 6.86311 40.0696 6.94163 40.0853 7.02016C40.0853 7.19291 39.9595 7.34996 39.7865 7.34996C38.7171 7.41278 37.6635 7.67977 36.6885 8.11951C35.7135 8.55925 34.8171 9.17175 34.0623 9.9413L10.1746 33.8287C9.34113 34.6611 8.7121 35.6191 8.27177 36.6556C7.83144 37.7079 7.57983 38.8543 7.5641 40.0322C7.5641 40.1107 7.53265 40.1736 7.48547 40.2364C7.37539 40.362 7.17096 40.3777 7.04515 40.2678L6.85644 40.1108C6.38466 39.6867 5.77135 39.4983 5.18949 39.5297C4.5919 39.5611 4.01005 39.7966 3.56972 40.2678L2.10721 41.7912C1.79269 42.121 1.50962 42.4351 1.25801 42.7806C1.02212 43.1104 0.849136 43.4873 0.739054 43.9114C0.613247 44.3668 0.628973 44.6966 0.644699 45.0893C0.644699 45.2463 0.644699 45.4034 0.644699 45.529V49.471C0.644699 49.5966 0.644699 49.7694 0.644699 49.9107C0.644699 50.3033 0.613247 50.6332 0.739054 51.0886C0.849136 51.5126 1.03785 51.8739 1.25801 52.2194C1.4939 52.5649 1.79269 52.8947 2.10721 53.2088L3.56972 54.7322C4.01005 55.1876 4.57618 55.4389 5.15804 55.4546V55.4703Z" fill="#FCD6AB"/>
</svg>
