<svg width="336" height="95" viewBox="0 0 336 95" fill="none" xmlns="http://www.w3.org/2000/svg">
<path d="M143.007 76.6132C142.487 76.6132 142.035 76.5132 141.651 76.3132C141.275 76.1052 140.975 75.8292 140.751 75.4852C140.535 75.1412 140.403 74.7652 140.355 74.3572H141.291C141.371 74.7972 141.563 75.1372 141.867 75.3772C142.171 75.6172 142.555 75.7372 143.019 75.7372C143.443 75.7372 143.815 75.6132 144.135 75.3652C144.463 75.1092 144.727 74.7212 144.927 74.2012C145.127 73.6812 145.243 73.0252 145.275 72.2332C145.275 72.1932 145.275 72.1612 145.275 72.1372C145.275 72.1052 145.275 72.0692 145.275 72.0292C145.163 72.2852 144.991 72.5212 144.759 72.7372C144.535 72.9452 144.263 73.1172 143.943 73.2532C143.631 73.3812 143.275 73.4452 142.875 73.4452C142.411 73.4452 141.971 73.3332 141.555 73.1092C141.139 72.8852 140.803 72.5732 140.547 72.1732C140.291 71.7652 140.163 71.2892 140.163 70.7452C140.163 70.2732 140.279 69.8212 140.511 69.3892C140.743 68.9572 141.071 68.6052 141.495 68.3332C141.919 68.0612 142.423 67.9252 143.007 67.9252C143.615 67.9252 144.123 68.0372 144.531 68.2612C144.947 68.4852 145.279 68.7892 145.527 69.1732C145.775 69.5572 145.955 69.9892 146.067 70.4692C146.179 70.9412 146.235 71.4292 146.235 71.9332C146.235 72.8532 146.107 73.6652 145.851 74.3692C145.603 75.0732 145.239 75.6252 144.759 76.0252C144.279 76.4172 143.695 76.6132 143.007 76.6132ZM143.079 72.5692C143.447 72.5692 143.779 72.4852 144.075 72.3172C144.371 72.1492 144.603 71.9252 144.771 71.6452C144.939 71.3572 145.023 71.0372 145.023 70.6852C145.023 70.3172 144.939 69.9932 144.771 69.7132C144.603 69.4252 144.371 69.2052 144.075 69.0532C143.779 68.8932 143.447 68.8132 143.079 68.8132C142.719 68.8132 142.395 68.8932 142.107 69.0532C141.827 69.2132 141.603 69.4332 141.435 69.7132C141.267 69.9932 141.183 70.3212 141.183 70.6972C141.183 71.0732 141.267 71.4012 141.435 71.6812C141.603 71.9612 141.827 72.1812 142.107 72.3412C142.395 72.4932 142.719 72.5692 143.079 72.5692ZM151.029 76.4692V68.0692H156.225V68.8972H152.037V71.8252H155.865V72.6412H152.037V75.6412H156.225V76.4692H151.029ZM157.766 76.4692V70.3132H158.678L158.738 71.1772C158.93 70.8652 159.186 70.6212 159.506 70.4452C159.834 70.2612 160.186 70.1692 160.562 70.1692C160.874 70.1692 161.154 70.2132 161.402 70.3012C161.65 70.3812 161.866 70.5092 162.05 70.6852C162.242 70.8532 162.398 71.0692 162.518 71.3332C162.726 70.9572 163.01 70.6692 163.37 70.4692C163.73 70.2692 164.114 70.1692 164.522 70.1692C164.986 70.1692 165.386 70.2612 165.722 70.4452C166.066 70.6292 166.33 70.9092 166.514 71.2852C166.706 71.6612 166.802 72.1332 166.802 72.7012V76.4692H165.806V72.8092C165.806 72.2172 165.682 71.7732 165.434 71.4772C165.186 71.1812 164.838 71.0332 164.39 71.0332C164.094 71.0332 163.822 71.1132 163.574 71.2732C163.334 71.4332 163.142 71.6692 162.998 71.9812C162.854 72.2852 162.782 72.6572 162.782 73.0972V76.4692H161.774V72.8092C161.774 72.2172 161.65 71.7732 161.402 71.4772C161.154 71.1812 160.814 71.0332 160.382 71.0332C160.086 71.0332 159.814 71.1132 159.566 71.2732C159.326 71.4332 159.134 71.6692 158.99 71.9812C158.846 72.2852 158.774 72.6572 158.774 73.0972V76.4692H157.766ZM171.107 76.6132C170.531 76.6132 170.019 76.4812 169.571 76.2172C169.123 75.9532 168.771 75.5812 168.515 75.1012C168.267 74.6132 168.143 74.0452 168.143 73.3972C168.143 72.7412 168.271 72.1732 168.527 71.6932C168.783 71.2132 169.135 70.8412 169.583 70.5772C170.039 70.3052 170.555 70.1692 171.131 70.1692C171.707 70.1692 172.219 70.3052 172.667 70.5772C173.115 70.8412 173.463 71.2132 173.711 71.6932C173.967 72.1732 174.095 72.7412 174.095 73.3972C174.095 74.0452 173.967 74.6132 173.711 75.1012C173.455 75.5812 173.099 75.9532 172.643 76.2172C172.195 76.4812 171.683 76.6132 171.107 76.6132ZM171.107 75.7492C171.467 75.7492 171.795 75.6612 172.091 75.4852C172.387 75.3092 172.623 75.0452 172.799 74.6932C172.975 74.3412 173.063 73.9092 173.063 73.3972C173.063 72.8692 172.975 72.4332 172.799 72.0892C172.631 71.7372 172.399 71.4732 172.103 71.2972C171.807 71.1212 171.483 71.0332 171.131 71.0332C170.779 71.0332 170.455 71.1212 170.159 71.2972C169.863 71.4732 169.623 71.7372 169.439 72.0892C169.263 72.4332 169.175 72.8692 169.175 73.3972C169.175 73.9092 169.263 74.3412 169.439 74.6932C169.615 75.0452 169.847 75.3092 170.135 75.4852C170.431 75.6612 170.755 75.7492 171.107 75.7492ZM177.709 76.4692C177.349 76.4692 177.037 76.4132 176.773 76.3012C176.509 76.1892 176.305 76.0012 176.161 75.7372C176.025 75.4652 175.957 75.1012 175.957 74.6452V71.1652H174.877V70.3132H175.957L176.089 68.8132H176.965V70.3132H178.729V71.1652H176.965V74.6452C176.965 75.0212 177.041 75.2772 177.193 75.4132C177.345 75.5412 177.613 75.6052 177.997 75.6052H178.669V76.4692H177.709ZM180.175 76.4692V70.3132H181.183V76.4692H180.175ZM180.679 69.0652C180.479 69.0652 180.311 69.0012 180.175 68.8732C180.047 68.7372 179.983 68.5692 179.983 68.3692C179.983 68.1692 180.047 68.0092 180.175 67.8892C180.311 67.7612 180.479 67.6972 180.679 67.6972C180.871 67.6972 181.035 67.7612 181.171 67.8892C181.307 68.0092 181.375 68.1692 181.375 68.3692C181.375 68.5692 181.307 68.7372 181.171 68.8732C181.035 69.0012 180.871 69.0652 180.679 69.0652ZM185.661 76.6132C185.085 76.6132 184.573 76.4812 184.125 76.2172C183.677 75.9532 183.325 75.5812 183.069 75.1012C182.821 74.6132 182.697 74.0452 182.697 73.3972C182.697 72.7412 182.825 72.1732 183.081 71.6932C183.337 71.2132 183.689 70.8412 184.137 70.5772C184.593 70.3052 185.109 70.1692 185.685 70.1692C186.261 70.1692 186.773 70.3052 187.221 70.5772C187.669 70.8412 188.017 71.2132 188.265 71.6932C188.521 72.1732 188.649 72.7412 188.649 73.3972C188.649 74.0452 188.521 74.6132 188.265 75.1012C188.009 75.5812 187.653 75.9532 187.197 76.2172C186.749 76.4812 186.237 76.6132 185.661 76.6132ZM185.661 75.7492C186.021 75.7492 186.349 75.6612 186.645 75.4852C186.941 75.3092 187.177 75.0452 187.353 74.6932C187.529 74.3412 187.617 73.9092 187.617 73.3972C187.617 72.8692 187.529 72.4332 187.353 72.0892C187.185 71.7372 186.953 71.4732 186.657 71.2972C186.361 71.1212 186.037 71.0332 185.685 71.0332C185.333 71.0332 185.009 71.1212 184.713 71.2972C184.417 71.4732 184.177 71.7372 183.993 72.0892C183.817 72.4332 183.729 72.8692 183.729 73.3972C183.729 73.9092 183.817 74.3412 183.993 74.6932C184.169 75.0452 184.401 75.3092 184.689 75.4852C184.985 75.6612 185.309 75.7492 185.661 75.7492ZM190.086 76.4692V70.3132H190.998L191.058 71.3452C191.242 70.9772 191.51 70.6892 191.862 70.4812C192.214 70.2732 192.618 70.1692 193.074 70.1692C193.546 70.1692 193.954 70.2612 194.298 70.4452C194.642 70.6292 194.91 70.9092 195.102 71.2852C195.294 71.6532 195.39 72.1212 195.39 72.6892V76.4692H194.382V72.7972C194.382 72.2132 194.246 71.7732 193.974 71.4772C193.702 71.1812 193.326 71.0332 192.846 71.0332C192.526 71.0332 192.23 71.1132 191.958 71.2732C191.694 71.4332 191.482 71.6652 191.322 71.9692C191.17 72.2652 191.094 72.6332 191.094 73.0732V76.4692H190.086ZM199.268 76.6132C198.74 76.6132 198.288 76.5292 197.912 76.3612C197.544 76.1932 197.256 75.9572 197.048 75.6532C196.84 75.3492 196.712 74.9932 196.664 74.5852H197.696C197.736 74.7932 197.816 74.9892 197.936 75.1732C198.064 75.3492 198.236 75.4932 198.452 75.6052C198.676 75.7092 198.952 75.7612 199.28 75.7612C199.56 75.7612 199.792 75.7212 199.976 75.6412C200.168 75.5532 200.308 75.4372 200.396 75.2932C200.492 75.1412 200.54 74.9772 200.54 74.8012C200.54 74.5452 200.48 74.3492 200.36 74.2132C200.248 74.0772 200.08 73.9732 199.856 73.9012C199.64 73.8212 199.372 73.7572 199.052 73.7092C198.748 73.6612 198.464 73.5972 198.2 73.5172C197.944 73.4292 197.716 73.3172 197.516 73.1812C197.324 73.0452 197.172 72.8772 197.06 72.6772C196.956 72.4692 196.904 72.2212 196.904 71.9332C196.904 71.5892 196.992 71.2852 197.168 71.0212C197.352 70.7572 197.608 70.5492 197.936 70.3972C198.272 70.2452 198.668 70.1692 199.124 70.1692C199.78 70.1692 200.308 70.3252 200.708 70.6372C201.108 70.9492 201.344 71.3972 201.416 71.9812H200.42C200.38 71.6852 200.244 71.4532 200.012 71.2852C199.788 71.1092 199.488 71.0212 199.112 71.0212C198.72 71.0212 198.424 71.0972 198.224 71.2492C198.024 71.4012 197.924 71.6012 197.924 71.8492C197.924 72.0252 197.972 72.1812 198.068 72.3172C198.172 72.4452 198.332 72.5572 198.548 72.6532C198.772 72.7412 199.052 72.8132 199.388 72.8692C199.812 72.9332 200.188 73.0252 200.516 73.1452C200.844 73.2652 201.104 73.4492 201.296 73.6972C201.488 73.9372 201.58 74.2772 201.572 74.7172C201.58 75.1012 201.488 75.4372 201.296 75.7252C201.104 76.0132 200.836 76.2332 200.492 76.3852C200.148 76.5372 199.74 76.6132 199.268 76.6132ZM203.419 76.5292C203.227 76.5292 203.063 76.4652 202.927 76.3372C202.799 76.2012 202.735 76.0372 202.735 75.8452C202.735 75.6532 202.799 75.4932 202.927 75.3652C203.063 75.2292 203.227 75.1612 203.419 75.1612C203.627 75.1612 203.791 75.2292 203.911 75.3652C204.039 75.4932 204.103 75.6532 204.103 75.8452C204.103 76.0372 204.039 76.2012 203.911 76.3372C203.791 76.4652 203.627 76.5292 203.419 76.5292ZM212.404 76.6132C211.62 76.6132 210.924 76.4332 210.316 76.0732C209.716 75.7052 209.248 75.1972 208.912 74.5492C208.576 73.8932 208.408 73.1332 208.408 72.2692C208.408 71.4132 208.576 70.6612 208.912 70.0132C209.248 69.3572 209.716 68.8452 210.316 68.4772C210.924 68.1092 211.62 67.9252 212.404 67.9252C213.212 67.9252 213.916 68.1092 214.516 68.4772C215.116 68.8452 215.58 69.3572 215.908 70.0132C216.244 70.6612 216.412 71.4132 216.412 72.2692C216.412 73.1332 216.244 73.8932 215.908 74.5492C215.58 75.1972 215.116 75.7052 214.516 76.0732C213.916 76.4332 213.212 76.6132 212.404 76.6132ZM212.416 75.7252C213.008 75.7252 213.524 75.5892 213.964 75.3172C214.412 75.0372 214.76 74.6412 215.008 74.1292C215.256 73.6092 215.38 72.9892 215.38 72.2692C215.38 71.5492 215.256 70.9332 215.008 70.4212C214.76 69.9012 214.412 69.5052 213.964 69.2332C213.524 68.9612 213.008 68.8252 212.416 68.8252C211.824 68.8252 211.304 68.9612 210.856 69.2332C210.408 69.5052 210.06 69.9012 209.812 70.4212C209.564 70.9332 209.44 71.5492 209.44 72.2692C209.44 72.9892 209.564 73.6092 209.812 74.1292C210.06 74.6412 210.408 75.0372 210.856 75.3172C211.304 75.5892 211.824 75.7252 212.416 75.7252ZM217.824 76.4692V70.3132H218.736L218.796 71.3452C218.98 70.9772 219.248 70.6892 219.6 70.4812C219.952 70.2732 220.356 70.1692 220.812 70.1692C221.284 70.1692 221.692 70.2612 222.036 70.4452C222.38 70.6292 222.648 70.9092 222.84 71.2852C223.032 71.6532 223.128 72.1212 223.128 72.6892V76.4692H222.12V72.7972C222.12 72.2132 221.984 71.7732 221.712 71.4772C221.44 71.1812 221.064 71.0332 220.584 71.0332C220.264 71.0332 219.968 71.1132 219.696 71.2732C219.432 71.4332 219.22 71.6652 219.06 71.9692C218.908 72.2652 218.832 72.6332 218.832 73.0732V76.4692H217.824ZM227.367 76.6132C226.807 76.6132 226.307 76.4812 225.867 76.2172C225.435 75.9452 225.095 75.5692 224.847 75.0892C224.599 74.6012 224.475 74.0372 224.475 73.3972C224.475 72.7492 224.599 72.1852 224.847 71.7052C225.095 71.2172 225.435 70.8412 225.867 70.5772C226.307 70.3052 226.815 70.1692 227.391 70.1692C227.991 70.1692 228.495 70.3052 228.903 70.5772C229.319 70.8412 229.635 71.1932 229.851 71.6332C230.067 72.0732 230.175 72.5532 230.175 73.0732C230.175 73.1532 230.175 73.2372 230.175 73.3252C230.175 73.4132 230.171 73.5132 230.163 73.6252H225.231V72.8452H229.179C229.163 72.2612 228.983 71.8132 228.639 71.5012C228.303 71.1812 227.879 71.0212 227.367 71.0212C227.031 71.0212 226.719 71.1012 226.431 71.2612C226.143 71.4212 225.907 71.6572 225.723 71.9692C225.547 72.2732 225.459 72.6572 225.459 73.1212V73.4572C225.459 73.9612 225.547 74.3852 225.723 74.7292C225.907 75.0732 226.143 75.3332 226.431 75.5092C226.719 75.6772 227.031 75.7612 227.367 75.7612C227.807 75.7612 228.159 75.6732 228.423 75.4972C228.687 75.3132 228.883 75.0572 229.011 74.7292H230.007C229.903 75.0892 229.731 75.4132 229.491 75.7012C229.259 75.9812 228.963 76.2052 228.603 76.3732C228.251 76.5332 227.839 76.6132 227.367 76.6132ZM237.483 76.6132C236.867 76.6132 236.331 76.5012 235.875 76.2772C235.419 76.0532 235.067 75.7412 234.819 75.3412C234.571 74.9412 234.447 74.4772 234.447 73.9492H235.503C235.503 74.2772 235.579 74.5812 235.731 74.8612C235.883 75.1332 236.103 75.3532 236.391 75.5212C236.687 75.6812 237.051 75.7612 237.483 75.7612C237.859 75.7612 238.179 75.7012 238.443 75.5812C238.715 75.4532 238.919 75.2812 239.055 75.0652C239.199 74.8492 239.271 74.6052 239.271 74.3332C239.271 74.0132 239.203 73.7532 239.067 73.5532C238.931 73.3452 238.743 73.1772 238.503 73.0492C238.271 72.9212 237.999 72.8092 237.687 72.7132C237.375 72.6092 237.047 72.4972 236.703 72.3772C236.023 72.1532 235.523 71.8732 235.203 71.5372C234.891 71.2012 234.735 70.7652 234.735 70.2292C234.735 69.7732 234.839 69.3732 235.047 69.0292C235.263 68.6852 235.567 68.4172 235.959 68.2252C236.359 68.0252 236.831 67.9252 237.375 67.9252C237.911 67.9252 238.375 68.0252 238.767 68.2252C239.167 68.4252 239.479 68.7012 239.703 69.0532C239.927 69.3972 240.039 69.7972 240.039 70.2532H238.983C238.983 70.0212 238.923 69.7932 238.803 69.5692C238.683 69.3452 238.499 69.1612 238.251 69.0172C238.011 68.8652 237.707 68.7892 237.339 68.7892C237.035 68.7812 236.763 68.8332 236.523 68.9452C236.291 69.0492 236.107 69.2012 235.971 69.4012C235.843 69.6012 235.779 69.8452 235.779 70.1332C235.779 70.4052 235.835 70.6252 235.947 70.7932C236.067 70.9612 236.235 71.1052 236.451 71.2252C236.675 71.3372 236.935 71.4412 237.231 71.5372C237.527 71.6332 237.855 71.7412 238.215 71.8612C238.623 71.9972 238.983 72.1652 239.295 72.3652C239.615 72.5572 239.863 72.8052 240.039 73.1092C240.223 73.4132 240.315 73.8012 240.315 74.2732C240.315 74.6732 240.207 75.0532 239.991 75.4132C239.783 75.7652 239.471 76.0532 239.055 76.2772C238.639 76.5012 238.115 76.6132 237.483 76.6132ZM241.719 79.1092V70.3132H242.631L242.727 71.2972C242.855 71.0972 243.015 70.9132 243.207 70.7452C243.407 70.5772 243.647 70.4412 243.927 70.3372C244.207 70.2252 244.527 70.1692 244.887 70.1692C245.463 70.1692 245.967 70.3132 246.399 70.6012C246.831 70.8812 247.167 71.2652 247.407 71.7532C247.655 72.2332 247.779 72.7852 247.779 73.4092C247.779 74.0252 247.655 74.5772 247.407 75.0652C247.167 75.5452 246.827 75.9252 246.387 76.2052C245.955 76.4772 245.451 76.6132 244.875 76.6132C244.387 76.6132 243.955 76.5132 243.579 76.3132C243.211 76.1132 242.927 75.8332 242.727 75.4732V79.1092H241.719ZM244.755 75.7372C245.147 75.7372 245.491 75.6412 245.787 75.4492C246.083 75.2572 246.315 74.9852 246.483 74.6332C246.659 74.2812 246.747 73.8692 246.747 73.3972C246.747 72.9172 246.659 72.5052 246.483 72.1612C246.315 71.8092 246.083 71.5372 245.787 71.3452C245.491 71.1452 245.147 71.0452 244.755 71.0452C244.355 71.0452 244.003 71.1452 243.699 71.3452C243.403 71.5372 243.171 71.8092 243.003 72.1612C242.843 72.5052 242.763 72.9172 242.763 73.3972C242.763 73.8692 242.843 74.2812 243.003 74.6332C243.171 74.9852 243.403 75.2572 243.699 75.4492C244.003 75.6412 244.355 75.7372 244.755 75.7372ZM251.199 76.6132C250.711 76.6132 250.303 76.5252 249.975 76.3492C249.655 76.1732 249.415 75.9412 249.255 75.6532C249.095 75.3652 249.015 75.0492 249.015 74.7052C249.015 74.2972 249.119 73.9492 249.327 73.6612C249.543 73.3732 249.843 73.1572 250.227 73.0132C250.611 72.8612 251.063 72.7852 251.583 72.7852H253.167C253.167 72.3932 253.115 72.0692 253.011 71.8132C252.907 71.5492 252.743 71.3532 252.519 71.2252C252.303 71.0892 252.027 71.0212 251.691 71.0212C251.315 71.0212 250.991 71.1172 250.719 71.3092C250.447 71.4932 250.279 71.7692 250.215 72.1372H249.183C249.231 71.7132 249.375 71.3572 249.615 71.0692C249.855 70.7732 250.159 70.5492 250.527 70.3972C250.895 70.2452 251.283 70.1692 251.691 70.1692C252.251 70.1692 252.715 70.2732 253.083 70.4812C253.451 70.6812 253.723 70.9652 253.899 71.3332C254.083 71.6932 254.175 72.1212 254.175 72.6172V76.4692H253.275L253.215 75.3892C253.135 75.5572 253.031 75.7172 252.903 75.8692C252.783 76.0132 252.639 76.1412 252.471 76.2532C252.311 76.3652 252.123 76.4532 251.907 76.5172C251.691 76.5812 251.455 76.6132 251.199 76.6132ZM251.343 75.7612C251.615 75.7612 251.863 75.7012 252.087 75.5812C252.319 75.4612 252.515 75.3012 252.675 75.1012C252.835 74.9012 252.955 74.6772 253.035 74.4292C253.123 74.1732 253.167 73.9092 253.167 73.6372V73.5652H251.667C251.283 73.5652 250.971 73.6132 250.731 73.7092C250.499 73.7972 250.331 73.9252 250.227 74.0932C250.123 74.2612 250.071 74.4492 250.071 74.6572C250.071 74.8812 250.119 75.0772 250.215 75.2452C250.311 75.4052 250.455 75.5332 250.647 75.6292C250.839 75.7172 251.071 75.7612 251.343 75.7612ZM255.781 76.4692V70.3132H256.693L256.777 71.4652C256.913 71.1852 257.089 70.9492 257.305 70.7572C257.529 70.5652 257.797 70.4212 258.109 70.3252C258.421 70.2212 258.773 70.1692 259.165 70.1692V71.2252H258.697C258.449 71.2252 258.209 71.2612 257.977 71.3332C257.753 71.3972 257.549 71.5052 257.365 71.6572C257.189 71.8012 257.049 72.0012 256.945 72.2572C256.841 72.5132 256.789 72.8332 256.789 73.2172V76.4692H255.781ZM264.037 76.4692L261.157 73.1212L263.821 70.3132H265.057L262.009 73.4812L262.021 72.7612L265.321 76.4692H264.037ZM260.317 76.4692V67.8292H261.325V76.4692H260.317ZM266.375 76.4692V67.8292H267.383V76.4692H266.375ZM271.699 76.6132C271.139 76.6132 270.639 76.4812 270.199 76.2172C269.767 75.9452 269.427 75.5692 269.179 75.0892C268.931 74.6012 268.807 74.0372 268.807 73.3972C268.807 72.7492 268.931 72.1852 269.179 71.7052C269.427 71.2172 269.767 70.8412 270.199 70.5772C270.639 70.3052 271.147 70.1692 271.723 70.1692C272.323 70.1692 272.827 70.3052 273.235 70.5772C273.651 70.8412 273.967 71.1932 274.183 71.6332C274.399 72.0732 274.507 72.5532 274.507 73.0732C274.507 73.1532 274.507 73.2372 274.507 73.3252C274.507 73.4132 274.503 73.5132 274.495 73.6252H269.563V72.8452H273.511C273.495 72.2612 273.315 71.8132 272.971 71.5012C272.635 71.1812 272.211 71.0212 271.699 71.0212C271.363 71.0212 271.051 71.1012 270.763 71.2612C270.475 71.4212 270.239 71.6572 270.055 71.9692C269.879 72.2732 269.791 72.6572 269.791 73.1212V73.4572C269.791 73.9612 269.879 74.3852 270.055 74.7292C270.239 75.0732 270.475 75.3332 270.763 75.5092C271.051 75.6772 271.363 75.7612 271.699 75.7612C272.139 75.7612 272.491 75.6732 272.755 75.4972C273.019 75.3132 273.215 75.0572 273.343 74.7292H274.339C274.235 75.0892 274.063 75.4132 273.823 75.7012C273.591 75.9812 273.295 76.2052 272.935 76.3732C272.583 76.5332 272.171 76.6132 271.699 76.6132Z" fill="#071E46"/>
<path fill-rule="evenodd" clip-rule="evenodd" d="M116.592 61.0455C117.881 61.7836 119.47 62.192 121.388 62.2862C121.608 62.2862 121.86 62.2862 122.08 62.2862C124.014 62.2862 125.666 61.9407 127.034 61.2811C128.402 60.6057 129.078 59.7891 129.078 58.8625V49.675H122.536C124.077 49.8007 124.989 50.3032 125.21 51.1513V59.9147C125.21 60.4644 124.832 60.8884 124.203 61.2339C123.59 61.5952 122.819 61.7836 121.954 61.815C121.671 61.815 121.372 61.815 121.121 61.7836C120.445 61.6894 119.847 61.5166 119.375 61.2339C118.731 60.8727 118.369 60.4487 118.369 59.899V35.0693C118.385 34.5196 118.715 34.0485 119.391 33.6715C120.02 33.3417 120.602 33.1533 121.121 33.1219C121.656 33.0905 122.001 33.0905 122.159 33.0905C122.835 33.0905 123.527 33.1533 124.203 33.2946C125.068 33.4517 125.791 33.6872 126.389 33.9699C127.584 34.551 128.166 35.242 128.166 36.0587V37.2837C127.914 38.1475 127.018 38.6343 125.477 38.7757H127.726H129.062V36.0587C129.062 35.1321 128.402 34.3154 127.034 33.6558C125.556 32.9805 123.889 32.6193 122.017 32.6193H121.75C119.784 32.6507 118.086 33.0747 116.623 33.86C115.287 34.6138 114.5 35.6818 114.5 36.844V58.0458C114.485 59.2237 115.271 60.2602 116.608 61.0455H116.592ZM144.552 33.9071C143.231 33.1219 141.423 32.6664 139.394 32.6664C137.366 32.6664 135.557 33.1219 134.252 33.9071C132.915 34.661 132.098 35.7289 132.098 36.8911V47.6805C132.098 48.8583 132.915 49.8949 134.252 50.6644C135.557 51.4183 137.397 51.8894 139.394 51.8894C140.621 51.8894 141.769 51.7167 142.823 51.4026V58.5484C142.823 59.0038 142.791 59.4907 142.697 59.9775C142.587 60.5429 142.288 60.9513 141.816 61.2497C140.747 61.8307 139.803 61.8307 139.363 61.8307C138.923 61.8307 138.529 61.7836 138.105 61.6894C136.878 61.4381 135.95 60.8256 135.95 59.9461V57.4961C136.202 56.601 137.083 56.0827 138.624 55.9413H132.113V58.8782C132.16 59.8519 132.821 60.6529 134.158 61.2968C135.164 61.7836 136.123 62.0663 137.02 62.1448C137.916 62.2391 138.624 62.2862 139.127 62.2862C139.882 62.2862 140.621 62.2234 141.376 62.1134C142.917 61.8622 144.159 61.3753 145.15 60.6372C146.157 59.899 146.66 59.0509 146.691 58.0772V36.8754C146.675 35.7132 145.873 34.6453 144.537 33.8914L144.552 33.9071ZM142.807 49.6436C142.713 50.1148 142.367 50.5074 141.8 50.8372C141.124 51.2298 140.322 51.4183 139.379 51.4183C138.435 51.4183 137.633 51.2141 136.957 50.8372C136.281 50.4603 135.95 49.9891 135.95 49.4394V35.0222C135.95 34.4725 136.312 34.0642 136.957 33.7029C137.633 33.3103 138.435 33.1219 139.379 33.1219C140.322 33.1219 141.124 33.326 141.8 33.7029C142.429 34.0485 142.823 34.4725 142.823 35.0222V49.6436H142.807ZM160.011 61.3753C161.458 62.0349 163.093 62.3647 164.918 62.3647H165.295C167.292 62.3333 169.006 61.9093 170.437 61.124C171.774 60.3388 172.592 59.2865 172.592 58.1243V33.9699C172.843 33.1376 173.693 32.7764 175.249 32.6821C173.551 32.6821 171.837 32.6821 170.139 32.6821H166.034C167.575 32.7921 168.44 33.1376 168.692 33.9856V59.9932C168.692 60.5429 168.314 60.967 167.685 61.3282C166.993 61.7051 166.191 61.8936 165.279 61.8936C164.367 61.8936 163.581 61.7051 162.857 61.3282C162.213 60.967 161.851 60.5429 161.851 59.9932V51.3083C161.851 50.4446 162.779 49.9263 164.603 49.7535H157.919L157.904 58.9253C157.967 59.8833 158.659 60.6843 160.027 61.3753H160.011ZM183.82 49.9891C185.361 50.0362 186.399 50.2718 186.934 50.6801C187.469 51.0885 187.736 51.7952 187.736 52.816V52.8946C187.752 51.8423 187.767 50.7744 187.767 49.7221C187.767 48.6699 187.767 47.6019 187.736 46.5497V46.6282C187.736 47.6648 187.468 48.3715 186.965 48.8112C186.415 49.251 185.361 49.4866 183.82 49.5494L182.012 49.5808L182.059 33.0747H185.975C187.594 33.1219 188.931 33.4046 190.016 33.9385C191.133 34.5039 191.73 35.2106 191.793 36.0273V32.6036H175.47C176.979 32.7292 177.86 33.2004 178.127 34.0328V61.1554C177.876 61.9878 177.026 62.192 175.485 62.2862H191.793V58.8625C191.73 59.6948 191.133 60.4016 190 60.9513C188.931 61.4852 187.594 61.7836 185.975 61.8307H181.996V49.9891H183.852H183.82ZM203.745 62.3019H204.594C205.994 57.9987 207.425 53.5228 208.919 48.8741L209.092 48.3244L213.133 62.3019H213.998C215.366 58.0458 216.813 53.617 218.26 49.0154C219.974 43.6914 221.609 38.6029 223.198 33.7501C223.497 33.0119 224.283 32.7292 225.698 32.635H220.116C221.326 32.7292 222.396 33.0433 222.396 33.6087C222.396 33.6558 222.396 33.703 222.38 33.7501C219.88 41.2571 217.458 48.7955 215.13 56.334C213.825 51.5282 212.488 46.7382 211.152 41.9481C212.048 39.1212 212.944 36.3885 213.794 33.7501C214.108 33.0119 214.895 32.7292 216.31 32.635H202.361C203.698 32.7449 204.547 33.1219 204.909 33.7815L208.683 46.9109C207.708 50.0362 206.717 53.1772 205.742 56.334C203.666 48.7955 201.575 41.2728 199.42 33.7501C199.404 33.7187 199.404 33.6872 199.404 33.6715C199.404 33.4517 199.625 33.2318 200.065 33.0433C200.552 32.8392 201.103 32.6978 201.732 32.635H192.988C194.325 32.7449 195.174 33.1219 195.504 33.7815L203.761 62.3176L203.745 62.3019ZM208.824 33.7344C208.824 33.7344 208.809 33.6715 208.809 33.6401C208.809 33.436 208.997 33.2475 209.39 33.0747C209.815 32.8706 210.334 32.7292 210.932 32.6507C212.08 32.7449 213.023 33.059 213.023 33.593C213.023 33.6401 213.023 33.6872 213.007 33.7344C212.253 36.0116 211.498 38.2731 210.759 40.519C210.114 38.2574 209.485 35.9959 208.856 33.7344H208.824ZM233.262 49.9891H231.438L231.422 61.8307H235.401C237.021 61.7836 238.358 61.5009 239.427 60.9513C240.559 60.3859 241.157 59.6791 241.22 58.8625V62.2862H224.912C226.453 62.192 227.318 61.9878 227.554 61.1554V34.0328C227.287 33.2004 226.406 32.7292 224.896 32.6036H241.22V36.0273C241.157 35.1949 240.559 34.4882 239.443 33.9385C238.358 33.4046 237.021 33.1219 235.401 33.0747H231.485L231.438 49.5808L233.247 49.5494C234.804 49.4866 235.841 49.2353 236.392 48.8112C236.911 48.3715 237.162 47.6648 237.162 46.6282V46.5497C237.178 47.6019 237.194 48.6699 237.194 49.7221C237.194 50.7744 237.194 51.8423 237.162 52.8946V52.816C237.162 51.7795 236.895 51.0728 236.36 50.6801C235.826 50.2718 234.788 50.0362 233.247 49.9891H233.262ZM258.77 62.3019V58.8782C258.723 59.7106 258.125 60.4173 257.008 60.967C255.923 61.5009 254.571 61.7993 252.967 61.8464H248.988V58.2343C249.004 50.1148 249.02 42.0109 249.051 33.9228C249.303 33.1376 250.183 32.7135 251.693 32.6193H242.478C243.972 32.7135 244.852 33.1376 245.12 33.9228V61.1711C244.868 62.0035 243.987 62.192 242.462 62.3019H258.786H258.77ZM276.351 62.3019V58.8782C276.304 59.7106 275.722 60.4173 274.59 60.967C273.505 61.5009 272.153 61.7993 270.549 61.8464H266.57V58.2343C266.586 50.1148 266.601 42.0109 266.633 33.9228C266.884 33.1376 267.765 32.7135 269.275 32.6193H260.059C261.553 32.7135 262.434 33.1376 262.701 33.9228V61.1711C262.45 62.0035 261.569 62.192 260.044 62.3019H276.351ZM285.96 49.9891C287.501 50.0362 288.539 50.2718 289.074 50.6801C289.608 51.0885 289.876 51.7952 289.876 52.816V52.8946C289.891 51.8423 289.907 50.7744 289.907 49.7221C289.907 48.6699 289.907 47.6019 289.876 46.5497V46.6282C289.876 47.6648 289.608 48.3715 289.105 48.8112C288.555 49.251 287.501 49.4866 285.96 49.5494L284.151 49.5808L284.199 33.0747H288.114C289.734 33.1219 291.071 33.4046 292.156 33.9385C293.272 34.5039 293.87 35.2106 293.933 36.0273V32.6036H277.609C279.119 32.7292 280 33.2004 280.267 34.0328V61.1554C280.016 61.9878 279.166 62.192 277.625 62.2862H293.933V58.8625C293.87 59.6948 293.272 60.4016 292.14 60.9513C291.071 61.4852 289.734 61.7836 288.114 61.8307H284.136V49.9891H285.991H285.96ZM301.623 33.0905H304.705C305.869 33.0905 308.259 33.2632 308.181 34.2369V48.4186C308.181 48.7013 307.992 48.9369 307.646 49.1724C307.3 49.408 305.271 49.9106 301.623 50.6958V33.0747V33.0905ZM306.215 50.1148L306.356 50.0833C307.064 50.1148 307.615 50.3032 308.008 50.6644C308.401 51.0256 308.605 51.4497 308.605 51.8894L308.495 61.1397C308.228 61.9564 307.347 62.1763 305.806 62.2705H315.006C313.465 62.1763 312.6 61.9564 312.364 61.124L312.458 54.0567C312.458 52.8317 311.908 51.7952 310.429 50.9C309.596 50.3974 308.621 50.0519 307.442 49.8635C308.574 49.6279 309.423 49.3923 310.021 49.1253C311.499 48.4657 312.049 47.7119 312.049 46.8167V35.7917C312.049 34.8965 311.499 34.1427 310.021 33.4988C308.479 32.8392 306.577 32.5879 304.705 32.5879H295.112C296.606 32.6821 297.503 33.1062 297.754 33.9071V61.1397C297.503 61.9721 296.606 62.1763 295.112 62.2862H304.312C302.755 62.192 301.875 61.9878 301.639 61.1397V60.967H301.623V51.1199L306.199 50.0833L306.215 50.1148ZM322.727 45.6859L316.405 33.9228C315.996 33.2318 314.99 32.8863 313.779 32.6193H322.428C321.909 32.6507 321.438 32.7921 321.044 33.0433C320.683 33.2475 320.494 33.5145 320.494 33.8286V33.9228L326.281 44.7593L331.817 33.9071C331.817 33.9071 331.817 33.8443 331.817 33.8129C331.817 33.5616 331.502 32.7449 330.401 32.6193H335.984C335.843 32.6193 335.717 32.6507 335.575 32.6664C334.317 32.8706 333.091 33.4203 332.603 33.9071L326.627 45.6074L326.58 61.124C326.847 61.925 327.728 62.1763 329.222 62.2862H320.054C321.548 62.192 322.46 61.925 322.696 61.124V45.6859H322.727Z" fill="#071E46"/>
<path fill-rule="evenodd" clip-rule="evenodd" d="M6.74636 55.7215C6.24313 56.0042 5.67699 56.1299 5.11086 56.0985C4.37174 56.067 3.64835 55.7529 3.09794 55.1719L1.63543 53.6485C1.30519 53.303 0.990669 52.9574 0.723328 52.5805C0.455988 52.1879 0.235825 51.7639 0.110018 51.2613C-0.0315157 50.7273 -0.0157897 50.3347 -6.38207e-05 49.9107C-6.38207e-05 49.785 -6.38207e-05 49.6751 -6.38207e-05 49.4866V45.5446C-6.38207e-05 45.3562 -6.38207e-05 45.2305 -6.38207e-05 45.1206C-6.38207e-05 44.6809 -0.0315157 44.3039 0.110018 43.7543C0.235825 43.2517 0.455988 42.8277 0.723328 42.435C0.990669 42.0581 1.30519 41.7126 1.63543 41.3671L3.09794 39.8437C3.64835 39.2626 4.38747 38.9485 5.14231 38.9171C5.77135 38.8857 6.40039 39.0584 6.95079 39.4197C7.02942 38.3831 7.28104 37.378 7.67419 36.4357C8.14596 35.3206 8.82218 34.2998 9.71855 33.4046L33.6062 9.5172C34.424 8.70054 35.3833 8.04093 36.4212 7.56977C37.3018 7.17715 38.2296 6.91016 39.2047 6.78452C38.9216 6.28196 38.7958 5.71657 38.8272 5.15119C38.8587 4.41305 39.1732 3.69062 39.7551 3.14094L41.2805 1.68037C41.6264 1.35056 41.9724 1.03646 42.3498 0.769476C42.743 0.502489 43.1676 0.282618 43.6708 0.156978C44.2055 0.015632 44.5829 0.0313371 45.0232 0.0470421C45.149 0.0470421 45.2591 0.0470421 45.4478 0.0470421H49.395C49.5838 0.0470421 49.7096 0.0470421 49.8196 0.0470421C50.26 0.0470421 50.6374 0.015632 51.1721 0.156978C51.6753 0.282618 52.0999 0.502489 52.4931 0.769476C52.8705 1.03646 53.2164 1.35056 53.5624 1.68037L55.0878 3.14094C55.6697 3.70632 55.9842 4.44446 56.0157 5.1826C56.0471 5.82651 55.8741 6.47042 55.481 7.02009C56.5032 7.11433 57.4782 7.3499 58.4217 7.75823C59.5383 8.22939 60.5605 8.9047 61.4254 9.78419C69.2412 17.6053 77.8904 25.6777 85.3445 33.7187C86.1151 34.5197 86.7284 35.3992 87.1844 36.3729C87.609 37.2995 87.8921 38.2889 88.0179 39.3411C88.5369 39.027 89.1187 38.9014 89.6849 38.9171C90.4397 38.9485 91.1631 39.2626 91.7292 39.8437L93.1917 41.3671C93.522 41.7126 93.8365 42.0581 94.1038 42.435C94.3712 42.8277 94.5913 43.2517 94.7171 43.7543C94.8587 44.3039 94.843 44.6809 94.8272 45.1206C94.8272 45.2462 94.8272 45.3562 94.8272 45.5446V49.4866C94.8272 49.6751 94.8272 49.8007 94.8272 49.9107C94.8272 50.3504 94.8587 50.7273 94.7171 51.2613C94.5913 51.7639 94.3712 52.1879 94.1038 52.5805C93.8365 52.9574 93.522 53.303 93.1917 53.6485L91.7292 55.1719C91.1788 55.7529 90.4397 56.067 89.6849 56.0985C89.0401 56.1299 88.3953 55.9571 87.8449 55.5645C87.7506 56.5853 87.5147 57.5747 87.1215 58.5013C86.6497 59.6164 85.9735 60.6372 85.0929 61.5167C77.1356 69.4949 69.2097 77.5673 61.2052 85.4827C60.4032 86.2522 59.5225 86.8804 58.5633 87.3358C57.6354 87.7756 56.6447 88.0426 55.5911 88.1682C55.8899 88.6865 56.0314 89.2676 56.0157 89.833C55.9842 90.5868 55.6697 91.3249 55.0878 91.8746L53.5624 93.3352C53.2164 93.665 52.8705 93.9791 52.4931 94.2461C52.0999 94.5131 51.6753 94.7329 51.1721 94.8586C50.6374 94.9999 50.26 94.9842 49.8196 94.9685C49.6938 94.9685 49.5838 94.9685 49.395 94.9685H45.4478C45.2591 94.9685 45.1333 94.9685 45.0232 94.9685C44.5829 94.9685 44.2055 94.9999 43.6708 94.8586C43.1676 94.7329 42.743 94.5131 42.3498 94.2461C41.9724 93.9791 41.6264 93.665 41.2805 93.3352L39.7551 91.8746C39.1732 91.3092 38.8587 90.5711 38.8272 89.833C38.7958 89.2048 38.9688 88.5608 39.3305 88.0269C38.2925 87.9483 37.2861 87.6971 36.3583 87.3044C35.2417 86.8333 34.2195 86.1423 33.3389 85.2628L9.48267 61.344C8.66492 60.5273 8.00443 59.5693 7.53265 58.517C7.1395 57.6375 6.87216 56.6952 6.76208 55.7372L6.74636 55.7215ZM29.2816 46.4555C35.2574 46.4555 33.103 47.3193 40.2111 40.1892C41.7208 38.6658 42.9946 37.378 44.52 35.8703C47.0362 33.3889 46.3442 33.8915 46.3599 29.2428C44.5515 30.2008 43.2777 32.0226 41.8152 33.4831L31.2002 44.1155C29.9893 45.3091 29.8792 45.1363 29.2816 46.4555ZM48.2628 28.9601C48.31 33.6716 47.6337 33.546 49.741 35.5719L57.6983 43.5501C61.2996 47.1623 59.6326 46.6126 65.8444 46.5655C65.1681 45.4504 49.4894 29.6825 48.2628 28.9601ZM28.9985 48.4815C29.486 49.4866 29.2816 49.1411 30.0836 49.9578C32.7413 52.6904 44.7716 65.1132 46.4229 65.9769C46.4071 59.5379 47.4293 61.9722 40.2111 54.7478C32.9772 47.5078 35.4147 48.5129 28.9985 48.4815ZM48.2785 66.0398C50.0084 65.1446 61.0637 53.5228 63.6113 50.9943C64.0359 50.5703 64.3818 50.2876 64.775 49.8635C65.5456 48.9998 65.1996 49.5494 65.7028 48.4972C59.5068 48.4815 61.7556 47.5078 54.4745 54.7949C47.272 62.0036 48.2785 59.585 48.2785 66.0398ZM47.3192 57.559C48.0583 57.1664 48.0741 57.0565 48.766 56.3811C50.716 54.4023 56.8177 48.7328 57.4153 47.1623L49.8825 39.7652C48.766 38.6344 48.5144 38.1318 47.2091 37.4251L37.3018 47.2094L47.335 57.5747L47.3192 57.559ZM89.559 41.9011L83.1743 47.4921L89.559 53.0831L91.0216 51.5597C92.0595 50.476 91.8079 50.476 91.8079 49.4709V47.4921V45.5132C91.8079 44.4924 92.0595 44.4924 91.0216 43.4245L89.559 41.9011ZM41.8309 5.29254L47.4136 11.6845L52.9963 5.29254L51.4709 3.83196C50.4015 2.79543 50.4015 3.04671 49.3793 3.04671H47.4136H45.4478C44.4257 3.04671 44.4257 2.79543 43.3563 3.83196L41.8309 5.29254ZM5.28384 53.0831L11.6686 47.4921L5.28384 41.9011L3.82133 43.4245C2.78342 44.5081 3.03504 44.5081 3.03504 45.5132V47.4921V49.4709C3.03504 50.4917 2.78342 50.4917 3.82133 51.5597L5.28384 53.0831ZM53.012 89.7073L47.4293 83.3153L41.8466 89.7073L43.372 91.1679C44.4414 92.2044 44.4414 91.9531 45.4636 91.9531H47.4293H49.395C50.4172 91.9531 50.4172 92.2044 51.4866 91.1679L53.012 89.7073ZM84.8727 54.5751C84.8413 52.8004 84.1336 51.0414 82.7497 49.6594C81.8062 48.7171 80.6739 48.0732 79.463 47.7591C80.1549 47.5863 80.7211 47.3193 81.1929 46.9895C81.9005 46.4712 82.4352 46.0472 82.7969 45.7017C83.3159 45.1834 83.7405 44.6023 84.1336 43.9741C84.9042 42.6392 85.1872 41.2257 85.03 39.7338C84.8885 38.2261 84.2751 36.9069 83.19 35.7918L59.3024 11.8887C57.9971 10.5851 56.2516 9.92553 54.4902 9.97265C52.7132 10.0041 50.9676 10.7108 49.5838 12.0928C48.6245 13.0665 47.964 14.2444 47.6652 15.4851C47.3035 14.1659 46.6273 12.988 45.6208 11.9672L45.4321 11.7787C44.0482 10.4752 42.4285 9.78419 40.5414 9.68996C38.7801 9.64284 37.0345 10.3025 35.7292 11.606L11.8416 35.4934C10.5049 36.8283 9.89154 38.5245 9.92299 40.3148C9.97017 42.0267 10.5835 43.5658 11.7944 44.9793C11.9359 45.152 12.0932 45.3091 12.2504 45.4661C13.1154 46.3299 14.0746 46.9581 15.0968 47.3193C13.9174 47.6962 12.8637 48.3401 11.9516 49.251L11.7629 49.4395C10.4734 50.8215 9.76573 52.4549 9.67138 54.3395C9.6242 56.0984 10.2847 57.8417 11.5742 59.1452L35.4304 83.0641C36.7671 84.399 38.4655 85.0115 40.2426 84.9958C41.9567 84.9487 43.4978 84.3205 44.8974 83.1269C45.0704 82.9855 45.2277 82.8285 45.3849 82.6714C46.2341 81.8234 46.8317 80.9125 47.2091 79.923C47.3821 80.457 47.6023 80.9282 47.8854 81.3051C48.4043 82.0275 48.8132 82.5615 49.1749 82.907C49.6938 83.4253 50.26 83.865 50.9047 84.2419C52.2414 85.0115 53.641 85.3099 55.135 85.1371C56.6447 84.9958 57.95 84.3833 59.0665 83.2839L82.9384 59.3494C84.2437 58.0459 84.9042 56.3026 84.8413 54.5437L84.8727 54.5751ZM75.9876 47.7591C75.3114 47.5392 74.7138 47.1623 74.1476 46.6597L70.8609 43.3302L75.2956 38.8857C74.415 40.1107 74.3993 41.3043 75.2327 42.4664L77.9848 45.2305C78.9755 46.22 80.2808 46.2828 81.413 45.7331C81.7904 45.5446 82.1207 45.3248 82.4195 45.0264C82.7183 44.728 83.3473 44.0841 83.4259 42.702C83.4102 42.0424 83.1429 41.3671 82.5925 40.6604C82.105 40.0479 81.586 39.4825 81.067 38.9642L73.0154 30.8918C72.6694 31.9598 72.0718 32.9335 71.2383 33.7815C69.8859 35.1322 68.0932 35.8703 66.3476 35.9017C64.5706 35.9331 62.8407 35.3206 61.5197 34.0014L49.3636 21.83C48.5144 20.9819 47.9483 19.9454 47.6652 18.846C47.445 19.537 47.0676 20.1495 46.5329 20.6835L43.4664 23.746L42.57 22.8194L41.6422 21.9085L41.0289 21.296C42.224 22.1912 43.4035 22.254 44.5357 21.4374L45.9196 20.0553C46.8317 19.1444 47.2091 17.9665 47.0519 16.4903C46.9733 15.7678 46.7216 15.014 46.3285 14.2444C46.0297 13.6319 45.6208 13.0823 45.1648 12.6268C45.0547 12.5169 44.8031 12.297 44.4099 11.9515C44.0325 11.6217 43.4349 11.4489 42.6172 11.3861C41.7208 11.3547 40.966 11.6688 40.3526 12.2813L12.392 40.2834C11.7787 40.8959 11.5585 41.6341 11.5742 42.4664C11.5742 43.1104 11.7786 43.7071 12.1403 44.2725C12.2976 44.4767 12.4863 44.6809 12.675 44.885C13.3041 45.4504 14.0589 45.7331 14.8767 45.7645C15.7101 45.7959 16.4335 45.576 17.0626 44.9636L26.9384 35.0851C27.7562 33.97 27.6933 32.7921 26.7812 31.5985L31.2316 36.0588L20.884 46.4241C20.4279 46.8796 19.909 47.2251 19.3271 47.4607C19.8146 47.6805 20.2549 47.9946 20.6481 48.403L23.7146 51.4655L22.7868 52.3606L21.8747 53.3029L21.2614 53.9155C22.1578 52.7219 22.2049 51.544 21.4029 50.4132L20.019 49.0312C19.1069 48.1203 17.9275 47.7434 16.465 47.8847C15.7416 47.9632 15.0025 48.2145 14.2319 48.6228C13.6186 48.9212 13.0682 49.3296 12.6121 49.785C12.502 49.8949 12.2819 50.1462 11.9516 50.5389C11.6214 50.9158 11.4484 51.5283 11.4012 52.3292C11.3698 53.2244 11.6843 53.9783 12.2976 54.5908L40.2426 82.6086C40.8559 83.2211 41.5793 83.4567 42.4285 83.4253C43.0732 83.4253 43.6708 83.2211 44.2369 82.8599C44.4414 82.7029 44.6458 82.5144 44.8503 82.3259C45.4007 81.6977 45.6995 80.9439 45.7152 80.1272C45.7466 79.2791 45.5265 78.5567 44.9132 77.9442L35.053 68.0657C33.9365 67.2491 32.757 67.3119 31.5619 68.2228L36.0123 63.7625L46.3599 74.1279C46.816 74.5833 47.1462 75.0859 47.3821 75.667C47.6023 75.1958 47.9011 74.7404 48.2942 74.332L51.6124 71.034L56.0471 75.4785C54.8205 74.599 53.641 74.5833 52.4773 75.4157L49.7253 78.1798C48.7346 79.1692 48.6717 80.4884 49.2221 81.6192C49.4108 81.9961 49.6309 82.3416 49.9297 82.6243C50.2285 82.9227 50.8576 83.5666 52.2414 83.6294C52.9019 83.6137 53.5781 83.3468 54.2858 82.7814C54.8991 82.2945 55.4653 81.7763 55.9685 81.258L64.0201 73.1856C62.9508 72.8401 61.9758 72.2433 61.1423 71.3952C59.7899 70.0446 59.0665 68.2385 59.035 66.4952C59.0036 64.7048 59.6169 62.993 60.9379 61.658L73.094 49.4866C73.9275 48.6542 74.9497 48.0889 76.0505 47.8062L75.9876 47.7591ZM65.9859 71.1282L82.4667 54.6536C83.08 54.0411 83.2844 53.303 83.253 52.4706C83.2215 51.5754 82.907 50.8058 82.2622 50.1619C81.6175 49.518 80.8469 49.2039 79.9505 49.1725C79.1328 49.1254 78.4094 49.361 77.7961 49.9735L61.5669 66.2282C60.9536 66.8407 60.6391 67.6103 60.6705 68.4898C60.702 69.3849 61.0165 70.1545 61.6613 70.7984C62.306 71.4423 63.0766 71.7564 63.973 71.7878C64.7121 71.7878 65.3883 71.5994 66.0016 71.1282H65.9859ZM71.0182 28.913L54.5689 12.4069C53.9556 11.7944 53.2164 11.5746 52.3987 11.6217C51.5023 11.6531 50.7318 11.9672 50.087 12.6111C49.4422 13.255 49.1277 14.0246 49.0963 14.9197C49.0491 15.7521 49.285 16.4588 49.8983 17.087L66.1274 33.3418C66.7407 33.9543 67.4956 34.2684 68.392 34.237C69.2883 34.2056 70.0589 33.8915 70.7037 33.2476C71.3484 32.6037 71.6629 31.8341 71.6944 30.9389C71.6944 30.2008 71.5057 29.5098 71.0339 28.913H71.0182ZM5.15804 55.4702C5.7399 55.5017 6.32176 55.3289 6.80926 54.9206C6.85644 54.8735 6.93507 54.842 7.0137 54.8263C7.18668 54.8263 7.34394 54.952 7.34394 55.1247C7.40684 56.2084 7.67418 57.2606 8.11451 58.2343C8.55484 59.2081 9.16815 60.1032 9.92299 60.8728L33.7792 84.7916C34.6127 85.624 35.572 86.2679 36.5942 86.7076C37.6478 87.1474 38.7801 87.3987 39.9595 87.4144C40.0381 87.4144 40.101 87.4458 40.1639 87.4929C40.2897 87.6028 40.3055 87.807 40.1954 87.9326L40.0381 88.1211C39.6135 88.608 39.4248 89.2048 39.4563 89.8015C39.4877 90.3983 39.7236 90.9794 40.1797 91.4192L41.7051 92.8797C42.0353 93.1938 42.3498 93.4922 42.6958 93.7278C43.0261 93.9634 43.4035 94.1518 43.8123 94.2618C44.2684 94.3874 44.5986 94.3717 44.9918 94.356C45.1491 94.356 45.3063 94.356 45.4321 94.356H49.3793C49.5051 94.356 49.6781 94.356 49.8196 94.356C50.2128 94.356 50.543 94.3874 50.9991 94.2618C51.4237 94.1518 51.7854 93.9634 52.1156 93.7278C52.4616 93.4922 52.7761 93.1938 53.1064 92.8797L54.6318 91.4192C55.0878 90.9794 55.3394 90.3983 55.3552 89.8015C55.3866 89.2048 55.1822 88.608 54.7733 88.1211H54.7576C54.7576 88.1211 54.679 87.9798 54.6632 87.9012C54.6632 87.7285 54.789 87.5714 54.962 87.5714L55.3709 87.54C56.3931 87.4301 57.3681 87.1788 58.2645 86.7548C59.1608 86.3307 59.9943 85.7496 60.7334 85.0272L84.6211 61.077C85.4389 60.2603 86.0679 59.3023 86.5082 58.2658C86.9485 57.2135 87.2002 56.0827 87.2159 54.9363C87.2159 54.8578 87.2473 54.7949 87.2945 54.7321C87.4046 54.6065 87.609 54.5908 87.7348 54.7007L87.955 54.8892C88.4268 55.3132 89.0401 55.5017 89.6219 55.4702C90.2195 55.4388 90.8014 55.2033 91.2417 54.7321L92.7042 53.2087C93.0187 52.8789 93.3018 52.5648 93.5534 52.2193C93.7893 51.8895 93.9623 51.5126 94.0724 51.0885C94.1982 50.6331 94.1825 50.3033 94.1667 49.9107C94.1667 49.7536 94.1667 49.5965 94.1667 49.4709V45.5289C94.1667 45.4033 94.1667 45.2305 94.1667 45.0892C94.1667 44.6966 94.1982 44.3668 94.0724 43.9113C93.9623 43.4873 93.7736 43.1261 93.5534 42.7805C93.3175 42.435 93.0187 42.1052 92.7042 41.7911L91.2417 40.2677C90.8014 39.8123 90.2195 39.561 89.6219 39.5296C89.0244 39.4982 88.4268 39.7024 87.955 40.1107H87.9393C87.9393 40.1107 87.8135 40.2049 87.7348 40.2206C87.5619 40.2206 87.4046 40.095 87.4046 39.9222L87.3731 39.4982C87.2631 38.4617 87.0115 37.5036 86.5868 36.6085C86.1622 35.7133 85.5961 34.8809 84.857 34.1428L60.9379 10.2239C60.1201 9.40727 59.1608 8.77906 58.1387 8.33932C57.085 7.89958 55.9685 7.6483 54.8048 7.61689C54.7261 7.61689 54.6632 7.58548 54.6003 7.53836C54.4745 7.42843 54.4588 7.22426 54.5689 7.09862L54.7576 6.87875C55.1822 6.39189 55.3709 5.7951 55.3394 5.19831C55.308 4.60151 55.0721 4.02043 54.6161 3.58068L53.0906 2.12011C52.7604 1.80601 52.4459 1.50761 52.0999 1.27204C51.7697 1.03646 51.3922 0.848001 50.9834 0.738065C50.5273 0.612425 50.1971 0.62813 49.8039 0.643835C49.6467 0.643835 49.4894 0.643835 49.3636 0.643835H45.4164C45.2906 0.643835 45.1176 0.643835 44.9761 0.643835C44.5829 0.643835 44.2527 0.612425 43.7966 0.738065C43.372 0.848001 43.0103 1.03646 42.6801 1.27204C42.3341 1.50761 42.0196 1.80601 41.6893 2.12011L40.1639 3.58068C39.7079 4.02043 39.472 4.58581 39.4405 5.1669C39.4091 5.74798 39.5821 6.34478 39.9909 6.81593C40.0381 6.86304 40.0696 6.94157 40.0853 7.02009C40.0853 7.19285 39.9595 7.3499 39.7865 7.3499C38.7171 7.41272 37.6635 7.67971 36.6885 8.11945C35.7135 8.55919 34.8171 9.17169 34.0623 9.94124L10.1746 33.8287C9.34113 34.661 8.7121 35.619 8.27177 36.6556C7.83144 37.7078 7.57983 38.8543 7.5641 40.0322C7.5641 40.1107 7.53265 40.1735 7.48547 40.2363C7.37539 40.362 7.17096 40.3777 7.04515 40.2677L6.85644 40.1107C6.38466 39.6866 5.77135 39.4982 5.18949 39.5296C4.5919 39.561 4.01005 39.7966 3.56972 40.2677L2.10721 41.7911C1.79269 42.1209 1.50962 42.435 1.25801 42.7805C1.02212 43.1104 0.849136 43.4873 0.739054 43.9113C0.613247 44.3668 0.628973 44.6966 0.644699 45.0892C0.644699 45.2462 0.644699 45.4033 0.644699 45.5289V49.4709C0.644699 49.5965 0.644699 49.7693 0.644699 49.9107C0.644699 50.3033 0.613247 50.6331 0.739054 51.0885C0.849136 51.5126 1.03785 51.8738 1.25801 52.2193C1.4939 52.5648 1.79269 52.8946 2.10721 53.2087L3.56972 54.7321C4.01005 55.1876 4.57618 55.4388 5.15804 55.4545V55.4702Z" fill="#071E46"/>
</svg>
