<svg width="274" height="48" viewBox="0 0 274 48" fill="none" xmlns="http://www.w3.org/2000/svg">
<path d="M80.6387 36.45C78.972 36.45 77.4137 36.1583 75.9637 35.575C74.5137 34.975 73.2387 34.15 72.1387 33.1C71.0553 32.0333 70.2053 30.7917 69.5887 29.375C68.9887 27.9583 68.6887 26.425 68.6887 24.775C68.6887 23.125 68.9887 21.5917 69.5887 20.175C70.2053 18.7583 71.0553 17.5167 72.1387 16.45C73.2387 15.3833 74.5053 14.55 75.9387 13.95C77.3887 13.35 78.947 13.05 80.6137 13.05C82.1803 13.05 83.647 13.3167 85.0137 13.85C86.3803 14.3833 87.5887 15.1333 88.6387 16.1L87.5887 20.4C86.8887 19.2667 85.9387 18.3417 84.7387 17.625C83.5387 16.8917 82.1637 16.525 80.6137 16.525C79.0803 16.525 77.7053 16.8917 76.4887 17.625C75.272 18.3583 74.3053 19.35 73.5887 20.6C72.872 21.8333 72.5137 23.225 72.5137 24.775C72.5137 26.325 72.8637 27.725 73.5637 28.975C74.2803 30.2083 75.247 31.1917 76.4637 31.925C77.697 32.6583 79.072 33.025 80.5887 33.025C81.3887 33.025 82.147 32.9333 82.8637 32.75C83.5803 32.5667 84.2303 32.3083 84.8137 31.975V26.85H79.4387V23.7H88.2387V34.125C87.222 34.875 86.0553 35.45 84.7387 35.85C83.4387 36.25 82.072 36.45 80.6387 36.45ZM96.802 36L101.227 27.7C100.927 27.8833 100.61 28.0083 100.277 28.075C99.9603 28.1417 99.6436 28.175 99.327 28.175C97.9603 28.175 96.7186 27.85 95.602 27.2C94.4853 26.5333 93.5936 25.6417 92.927 24.525C92.2603 23.3917 91.927 22.125 91.927 20.725C91.927 19.275 92.277 17.975 92.977 16.825C93.677 15.675 94.6186 14.7667 95.802 14.1C97.002 13.4333 98.3186 13.1 99.752 13.1C101.219 13.1 102.544 13.4333 103.727 14.1C104.91 14.7667 105.852 15.675 106.552 16.825C107.252 17.9583 107.602 19.2417 107.602 20.675C107.602 21.3417 107.519 21.9833 107.352 22.6C107.185 23.2167 106.952 23.8167 106.652 24.4L100.602 36H96.802ZM99.777 25.125C100.577 25.125 101.302 24.9333 101.952 24.55C102.619 24.15 103.144 23.6167 103.527 22.95C103.927 22.2833 104.127 21.55 104.127 20.75C104.127 19.95 103.927 19.225 103.527 18.575C103.144 17.9083 102.619 17.3833 101.952 17C101.302 16.6 100.577 16.4 99.777 16.4C98.9603 16.4 98.2186 16.6 97.552 17C96.902 17.3833 96.377 17.9083 95.977 18.575C95.5936 19.225 95.402 19.9583 95.402 20.775C95.402 21.5583 95.5936 22.2833 95.977 22.95C96.377 23.6167 96.902 24.15 97.552 24.55C98.2186 24.9333 98.9603 25.125 99.777 25.125ZM121.579 36.4C120.745 36.4 119.92 36.2667 119.104 36C118.287 35.75 117.595 35.3333 117.029 34.75L118.029 31.15C118.395 31.7167 118.854 32.175 119.404 32.525C119.97 32.8583 120.604 33.025 121.304 33.025C122.137 33.025 122.845 32.7417 123.429 32.175C124.029 31.6083 124.329 30.6333 124.329 29.25V13.5H128.079V29.525C128.079 31.1083 127.77 32.4083 127.154 33.425C126.554 34.4417 125.754 35.1917 124.754 35.675C123.77 36.1583 122.712 36.4 121.579 36.4ZM133.25 36V13.5H144.8V16.725H136.85V20.85H143.05V24H136.85V32.7H144.8V36H133.25ZM155.425 36.775L146.45 13.5H150.275L154.725 25.05C154.908 25.5 155.075 25.9583 155.225 26.425C155.375 26.875 155.533 27.425 155.7 28.075C155.883 27.425 156.058 26.875 156.225 26.425C156.391 25.9583 156.558 25.5 156.725 25.05L161.45 12.75L166.175 25.05C166.341 25.4833 166.516 25.9333 166.7 26.4C166.883 26.85 167.058 27.4083 167.225 28.075C167.408 27.4083 167.575 26.85 167.725 26.4C167.891 25.9333 168.058 25.4833 168.225 25.05L172.625 13.5H176.25L167.3 36.775L162.375 23.925C162.208 23.4917 162.041 23.05 161.875 22.6C161.708 22.1333 161.541 21.5667 161.375 20.9C161.191 21.5667 161.016 22.125 160.85 22.575C160.683 23.025 160.516 23.475 160.35 23.925L155.425 36.775ZM179.234 36V13.5H190.784V16.725H182.834V20.85H189.034V24H182.834V32.7H190.784V36H179.234ZM194.984 36V13.5H198.734V32.7H206.009V36H194.984ZM209.996 36V13.5H213.746V32.7H221.021V36H209.996ZM225.007 36V13.5H236.557V16.725H228.607V20.85H234.807V24H228.607V32.7H236.557V36H225.007ZM240.832 36V13.5H247.107C248.624 13.5 249.924 13.8083 251.007 14.425C252.107 15.025 252.949 15.825 253.532 16.825C254.116 17.825 254.407 18.925 254.407 20.125C254.407 21.325 254.107 22.4083 253.507 23.375C252.907 24.3417 252.066 25.0917 250.982 25.625L257.732 36H253.607L247.532 26.55H244.432V36H240.832ZM244.432 23.475H247.057C247.941 23.475 248.657 23.3083 249.207 22.975C249.774 22.6417 250.191 22.2167 250.457 21.7C250.741 21.1833 250.882 20.6583 250.882 20.125C250.882 19.1583 250.532 18.3667 249.832 17.75C249.132 17.1167 248.207 16.8 247.057 16.8H244.432V23.475ZM263.129 36V25.25L256.529 13.5H260.704L263.879 19.3C264.095 19.6833 264.304 20.075 264.504 20.475C264.704 20.8583 264.904 21.3167 265.104 21.85C265.32 21.3167 265.529 20.8583 265.729 20.475C265.929 20.075 266.137 19.6833 266.354 19.3L269.554 13.5H273.429L266.829 25.25V36H263.129Z" fill="#00643C"/>
<g clip-path="url(#clip0_7_345)">
<path d="M35.8669 6H11.133L0.232788 18.386L13.1565 31.4688L13.3474 31.2779C15.9818 28.6436 15.9945 24.3738 13.3729 21.7267L10.6462 18.9715L16.2172 12.6369H30.7859L36.3601 18.9715L23.5 32.0193L21.0787 34.5009C19.7043 35.9072 19.7106 38.1534 21.0915 39.5533L23.5031 42L46.7703 18.386L35.8669 6Z" fill="url(#paint0_linear_7_345)"/>
<path d="M19.3607 15.4812L16.1949 19.0796L23.4999 26.496L30.8049 19.0796L27.6392 15.4812H19.3607Z" fill="url(#paint1_linear_7_345)"/>
<path d="M35.8669 6L30.7826 12.6369H16.214L10.643 18.9715L4.83337 13.1586L11.133 6H35.8669Z" fill="url(#paint2_linear_7_345)"/>
</g>
<defs>
<linearGradient id="paint0_linear_7_345" x1="38.6568" y1="35.3547" x2="17.6644" y2="11.7599" gradientUnits="userSpaceOnUse">
<stop stop-color="#00643C"/>
<stop offset="0.605769" stop-color="#009459"/>
</linearGradient>
<linearGradient id="paint1_linear_7_345" x1="21.1772" y1="15.9828" x2="27.2053" y2="24.0204" gradientUnits="userSpaceOnUse">
<stop stop-color="#009459"/>
<stop offset="1" stop-color="#00643C"/>
</linearGradient>
<linearGradient id="paint2_linear_7_345" x1="7.35073" y1="18.1631" x2="20.3625" y2="9.70544" gradientUnits="userSpaceOnUse">
<stop stop-color="#009459"/>
<stop offset="1" stop-color="#009459"/>
</linearGradient>
<clipPath id="clip0_7_345">
<rect width="46.5343" height="36" fill="white" transform="translate(0.232788 6)"/>
</clipPath>
</defs>
</svg>
