<svg width="25" height="18" viewBox="0 0 25 18" fill="none" xmlns="http://www.w3.org/2000/svg">
<g clip-path="url(#clip0_714_493)">
<path d="M20.5813 16.0506L5.23098 0.700718L5.2277 0.696968C5.14459 0.61454 5.04606 0.549288 4.93774 0.504937C4.82942 0.460586 4.71342 0.438005 4.59637 0.438484C4.47932 0.438963 4.36351 0.462492 4.25555 0.507728C4.14759 0.552963 4.0496 0.619019 3.96718 0.702125C3.88475 0.785231 3.8195 0.883758 3.77514 0.992081C3.73079 1.10041 3.70821 1.21641 3.70869 1.33346C3.70966 1.56985 3.80449 1.79618 3.97233 1.96265L5.31629 3.30661C3.68644 4.42287 2.28353 5.83866 1.18222 7.47866C1.00237 7.74418 0.90625 8.05752 0.90625 8.37822C0.90625 8.69892 1.00237 9.01226 1.18222 9.27779C3.99343 13.4386 8.45002 15.8762 12.9066 15.8458C14.3502 15.851 15.7841 15.6107 17.1471 15.1351L19.3226 17.3107C19.4903 17.4729 19.7148 17.5628 19.9481 17.5613C20.1813 17.5597 20.4046 17.4666 20.57 17.3022C20.7354 17.1377 20.8297 16.9149 20.8326 16.6817C20.8355 16.4484 20.7468 16.2234 20.5855 16.0548L20.5813 16.0506ZM12.9066 13.4264C12.0622 13.4261 11.2314 13.2142 10.4901 12.8101C9.74877 12.4059 9.12054 11.8224 8.66283 11.1129C8.20512 10.4033 7.93253 9.59038 7.86996 8.74836C7.8074 7.90633 7.95687 7.06205 8.3047 6.29267L9.70866 7.69663C9.59557 8.22953 9.61743 8.78223 9.77223 9.30454C9.92704 9.82684 10.2099 10.3022 10.5951 10.6874C10.9803 11.0726 11.4556 11.3555 11.9779 11.5103C12.5002 11.6651 13.0529 11.687 13.5858 11.5739L14.9898 12.9778C14.3354 13.2745 13.6251 13.4275 12.9066 13.4264Z" fill="white"/>
<path d="M24.6309 7.4768C21.8197 3.31366 17.3631 0.876062 12.9065 0.906532C11.4629 0.901303 10.029 1.14161 8.66602 1.61718L10.8224 3.77352C11.7581 3.35007 12.8006 3.22185 13.811 3.40594C14.8214 3.59003 15.7518 4.07769 16.478 4.80393C17.2042 5.53017 17.6919 6.46049 17.876 7.47092C18.0601 8.48134 17.9319 9.52387 17.5084 10.4595L20.4963 13.4475C22.1265 12.3314 23.5296 10.9156 24.6309 9.27547C24.8106 9.00998 24.9067 8.69674 24.9067 8.37613C24.9067 8.05553 24.8106 7.74228 24.6309 7.4768Z" fill="white"/>
<path d="M12.9059 5.10645C12.6776 5.10648 12.45 5.13036 12.2266 5.17771L16.1038 9.05443C16.2049 8.57811 16.1984 8.08523 16.0846 7.61178C15.9708 7.13834 15.7527 6.69628 15.4462 6.31791C15.1397 5.93955 14.7526 5.63442 14.3131 5.42482C13.8736 5.21523 13.3928 5.10646 12.9059 5.10645Z" fill="white"/>
</g>
<defs>
<clipPath id="clip0_714_493">
<rect width="25" height="18" fill="white"/>
</clipPath>
</defs>
</svg>
