<svg width="25" height="18" viewBox="0 0 25 18" fill="none" xmlns="http://www.w3.org/2000/svg">
<path d="M20.5818 16.0508L5.23147 0.700962L5.22819 0.697212C5.14508 0.614784 5.04655 0.549532 4.93823 0.505181C4.82991 0.46083 4.71391 0.438249 4.59686 0.438728C4.47981 0.439207 4.364 0.462736 4.25604 0.507972C4.14808 0.553207 4.05009 0.619263 3.96767 0.702369C3.88524 0.785475 3.81999 0.884002 3.77563 0.992325C3.73128 1.10065 3.7087 1.21665 3.70918 1.3337C3.71015 1.57009 3.80498 1.79642 3.97282 1.96289L5.31678 3.30685C3.68693 4.42311 2.28402 5.8389 1.18271 7.4789C1.00286 7.74442 0.906738 8.05776 0.906738 8.37846C0.906738 8.69916 1.00286 9.0125 1.18271 9.27803C3.99392 13.4388 8.45051 15.8764 12.9071 15.846C14.3507 15.8512 15.7846 15.6109 17.1476 15.1353L19.3231 17.3109C19.4908 17.4731 19.7153 17.563 19.9486 17.5615C20.1818 17.5599 20.4051 17.4668 20.5705 17.3024C20.7359 17.1379 20.8302 16.9151 20.8331 16.6819C20.836 16.4486 20.7473 16.2236 20.586 16.055L20.5818 16.0508ZM12.9071 13.4266C12.0627 13.4263 11.2319 13.2144 10.4906 12.8103C9.74926 12.4061 9.12103 11.8226 8.66332 11.1131C8.20561 10.4035 7.93302 9.59062 7.87045 8.7486C7.80789 7.90657 7.95736 7.06229 8.30519 6.29291L9.70915 7.69687C9.59606 8.22977 9.61792 8.78247 9.77272 9.30478C9.92753 9.82708 10.2104 10.3024 10.5956 10.6876C10.9808 11.0728 11.4561 11.3557 11.9784 11.5105C12.5007 11.6653 13.0534 11.6872 13.5863 11.5741L14.9903 12.978C14.3359 13.2747 13.6256 13.4277 12.9071 13.4266Z" fill="black"/>
<path d="M24.6309 7.47656C21.8197 3.31342 17.3631 0.875818 12.9065 0.906288C11.4629 0.901059 10.029 1.14137 8.66602 1.61694L10.8224 3.77328C11.7581 3.34983 12.8006 3.22161 13.811 3.4057C14.8214 3.58979 15.7518 4.07745 16.478 4.80369C17.2042 5.52993 17.6919 6.46025 17.876 7.47068C18.0601 8.4811 17.9319 9.52363 17.5084 10.4593L20.4963 13.4473C22.1265 12.3312 23.5296 10.9154 24.6309 9.27523C24.8106 9.00974 24.9067 8.6965 24.9067 8.37589C24.9067 8.05529 24.8106 7.74204 24.6309 7.47656Z" fill="black"/>
<path d="M12.9068 5.10693C12.6785 5.10696 12.4509 5.13084 12.2275 5.17819L16.1047 9.05491C16.2058 8.57859 16.1993 8.08571 16.0855 7.61226C15.9717 7.13882 15.7536 6.69676 15.4471 6.31839C15.1406 5.94003 14.7535 5.6349 14.314 5.4253C13.8745 5.21571 13.3937 5.10694 12.9068 5.10693Z" fill="black"/>
</svg>
