<svg width="26" height="16" viewBox="0 0 26 16" fill="none" xmlns="http://www.w3.org/2000/svg">
<path d="M13.119 0.720459C8.45242 0.720459 4.22054 3.27357 1.09785 7.42051C0.843035 7.76026 0.843035 8.23491 1.09785 8.57466C4.22054 12.7266 8.45242 15.2797 13.119 15.2797C17.7855 15.2797 22.0174 12.7266 25.1401 8.57965C25.3949 8.23991 25.3949 7.76526 25.1401 7.42551C22.0174 3.27357 17.7855 0.720459 13.119 0.720459ZM13.4537 13.1263C10.356 13.3212 7.7979 10.768 7.99275 7.66533C8.15264 5.10722 10.2261 3.03375 12.7842 2.87387C15.8819 2.67901 18.44 5.23213 18.2452 8.33484C18.0803 10.8879 16.0068 12.9614 13.4537 13.1263ZM13.2988 10.758C11.6301 10.863 10.2511 9.48898 10.361 7.82022C10.4459 6.44123 11.5651 5.32706 12.9441 5.23712C14.6129 5.1322 15.9918 6.50619 15.8819 8.17495C15.792 9.55893 14.6728 10.6731 13.2988 10.758Z" fill="black"/>
</svg>
