<svg width="26" height="16" viewBox="0 0 26 16" fill="none" xmlns="http://www.w3.org/2000/svg">
<g clip-path="url(#clip0_714_485)">
<path d="M13.1185 0.720703C8.45193 0.720703 4.22005 3.27381 1.09736 7.42075C0.842546 7.7605 0.842546 8.23515 1.09736 8.5749C4.22005 12.7268 8.45193 15.2799 13.1185 15.2799C17.785 15.2799 22.0169 12.7268 25.1396 8.57989C25.3944 8.24015 25.3944 7.7655 25.1396 7.42575C22.0169 3.27381 17.785 0.720703 13.1185 0.720703ZM13.4532 13.1265C10.3555 13.3214 7.79741 10.7682 7.99226 7.66557C8.15215 5.10746 10.2256 3.03399 12.7837 2.87411C15.8814 2.67925 18.4395 5.23237 18.2447 8.33508C18.0798 10.8881 16.0063 12.9616 13.4532 13.1265ZM13.2983 10.7582C11.6296 10.8632 10.2506 9.48922 10.3605 7.82046C10.4454 6.44147 11.5646 5.3273 12.9436 5.23736C14.6124 5.13244 15.9913 6.50643 15.8814 8.17519C15.7915 9.55917 14.6723 10.6733 13.2983 10.7582Z" fill="white"/>
</g>
<defs>
<clipPath id="clip0_714_485">
<rect width="26" height="16" fill="white"/>
</clipPath>
</defs>
</svg>
