<svg width="66" height="66" viewBox="0 0 66 66" fill="none" xmlns="http://www.w3.org/2000/svg">
<circle cx="33" cy="33" r="33" fill="#081C45"/>
<path d="M33.0873 19C25.4132 19 21.332 23.9177 21.332 29.28C21.332 31.7668 22.7216 34.868 24.9459 35.8515C25.2837 36.0038 25.4675 35.939 25.5427 35.6257C25.6092 35.3877 25.9015 34.2414 26.0432 33.7007C26.087 33.5274 26.0642 33.3769 25.9242 33.2141C25.1857 32.3601 24.5994 30.8043 24.5994 29.3447C24.5994 25.6048 27.5728 21.9734 32.6323 21.9734C37.0075 21.9734 40.0684 24.8155 40.0684 28.8809C40.0684 33.4749 37.6375 36.653 34.4786 36.653C32.7303 36.653 31.4282 35.281 31.8413 33.5834C32.34 31.5621 33.3183 29.3885 33.3183 27.9307C33.3183 26.6233 32.5798 25.5418 31.0712 25.5418C29.2914 25.5418 27.8476 27.3041 27.8476 29.6702C27.8476 31.1735 28.3796 32.1886 28.3796 32.1886C28.3796 32.1886 26.619 39.3009 26.2918 40.6292C25.7387 42.8781 26.367 46.52 26.4213 46.8332C26.4545 47.0065 26.6488 47.0608 26.7573 46.919C26.9305 46.6915 29.0586 43.6551 29.6554 41.4605C29.8724 40.6607 30.7632 37.4178 30.7632 37.4178C31.3495 38.4766 33.0418 39.3639 34.8444 39.3639C40.2066 39.3639 44.0813 34.651 44.0813 28.8022C44.0621 23.1949 39.2633 19 33.0873 19Z" fill="white"/>
</svg>
