<svg width="66" height="66" viewBox="0 0 66 66" fill="none" xmlns="http://www.w3.org/2000/svg">
<circle cx="33" cy="33" r="33" fill="#0F0F0F"/>
<path d="M33.0883 19C25.4142 19 21.333 23.9177 21.333 29.28C21.333 31.7668 22.7226 34.868 24.9469 35.8515C25.2847 36.0038 25.4684 35.939 25.5437 35.6257C25.6102 35.3877 25.9025 34.2414 26.0442 33.7007C26.088 33.5274 26.0652 33.3769 25.9252 33.2141C25.1867 32.3601 24.6004 30.8043 24.6004 29.3447C24.6004 25.6048 27.5738 21.9734 32.6333 21.9734C37.0085 21.9734 40.0694 24.8155 40.0694 28.8809C40.0694 33.4749 37.6385 36.653 34.4796 36.653C32.7313 36.653 31.4292 35.281 31.8422 33.5834C32.341 31.5621 33.3193 29.3885 33.3193 27.9307C33.3193 26.6233 32.5808 25.5418 31.0722 25.5418C29.2924 25.5418 27.8486 27.3041 27.8486 29.6702C27.8486 31.1735 28.3806 32.1886 28.3806 32.1886C28.3806 32.1886 26.62 39.3009 26.2927 40.6292C25.7397 42.8781 26.368 46.52 26.4222 46.8333C26.4555 47.0065 26.6497 47.0608 26.7583 46.919C26.9315 46.6915 29.0596 43.6551 29.6564 41.4605C29.8734 40.6607 30.7642 37.4178 30.7642 37.4178C31.3505 38.4766 33.0428 39.3639 34.8454 39.3639C40.2076 39.3639 44.0823 34.651 44.0823 28.8022C44.063 23.1949 39.2643 19 33.0883 19Z" fill="white"/>
</svg>
