<svg width="5" height="3" viewBox="0 0 5 3" fill="none" xmlns="http://www.w3.org/2000/svg">
<path d="M5.75337e-06 0.373587C-0.000266998 0.42296 0.00878003 0.471904 0.026629 0.517613C0.044478 0.563321 0.0707779 0.604895 0.10402 0.63995L2.25603 2.89091C2.32323 2.96078 2.41413 3 2.50889 3C2.60364 3 2.69455 2.96078 2.76175 2.89091L4.91376 0.63995C4.97252 0.568181 5.00322 0.475863 4.99973 0.381445C4.99625 0.287026 4.95883 0.197461 4.89495 0.130647C4.83107 0.0638335 4.74544 0.0246918 4.65518 0.021045C4.56491 0.0173979 4.47665 0.049514 4.40803 0.110975L2.51068 2.09557L0.613328 0.110975C0.563376 0.0582945 0.499611 0.0222902 0.430096 0.00751442C0.360581 -0.00726133 0.288439 -0.000144776 0.222791 0.0279643C0.157144 0.0560734 0.100938 0.103912 0.0612831 0.165432C0.0216279 0.226952 0.000303301 0.29939 5.75337e-06 0.373587Z" fill="#6C7072"/>
</svg>
