<svg width="28" height="22" viewBox="0 0 28 22" fill="none" xmlns="http://www.w3.org/2000/svg">
<path d="M24.1289 0.00488281C26.2422 0.112174 27.9229 1.86 27.9229 4V18L27.918 18.2061C27.8142 20.2512 26.174 21.8913 24.1289 21.9951L23.9229 22H4C1.85996 22 0.112115 20.3194 0.00488281 18.2061L0 18V4C6.44266e-08 1.79086 1.79086 1.60042e-07 4 0H23.9229L24.1289 0.00488281ZM2 12V18C2 19.1046 2.89543 20 4 20H13V12H2ZM15 12V20H23.9229C25.0274 19.9999 25.9229 19.1045 25.9229 18V12H15ZM4 2C2.89543 2 2 2.89543 2 4V10H13V2H4ZM15 10H25.9229V4C25.9229 2.89547 25.0274 2.00006 23.9229 2H15V10Z" fill="black" fill-opacity="0.4"/>
</svg>
