<svg width="28" height="22" viewBox="0 0 28 22" fill="none" xmlns="http://www.w3.org/2000/svg">
<path d="M24 0C26.2091 0 28 1.79086 28 4V18L27.9951 18.2061C27.8913 20.2512 26.2512 21.8913 24.2061 21.9951L24 22H4L3.79395 21.9951C1.7488 21.8913 0.108652 20.2512 0.00488281 18.2061L0 18V4C6.44266e-08 1.79086 1.79086 9.66384e-08 4 0H24ZM2 12V18C2 19.1046 2.89543 20 4 20H13.001V12H2ZM15.001 12V20H24C25.1046 20 26 19.1046 26 18V12H15.001ZM4 2C2.89543 2 2 2.89543 2 4V10H13.001V2H4ZM15.001 10H26V4C26 2.89543 25.1046 2 24 2H15.001V10Z" fill="white" fill-opacity="0.4"/>
</svg>
