<svg width="5" height="3" viewBox="0 0 5 3" fill="none" xmlns="http://www.w3.org/2000/svg">
<path d="M5.60724e-06 2.62641C-0.000267141 2.57704 0.00877989 2.5281 0.0266289 2.48239C0.0444778 2.43668 0.0707778 2.3951 0.10402 2.36005L2.25603 0.109093C2.32323 0.0392196 2.41413 -1.13032e-07 2.50889 -1.0889e-07C2.60364 -1.04748e-07 2.69455 0.0392196 2.76175 0.109093L4.91376 2.36005C4.97251 2.43182 5.00322 2.52414 4.99973 2.61856C4.99625 2.71297 4.95883 2.80254 4.89495 2.86935C4.83107 2.93617 4.74544 2.97531 4.65518 2.97896C4.56491 2.9826 4.47665 2.95049 4.40803 2.88902L2.51068 0.904431L0.613327 2.88902C0.563375 2.94171 0.499611 2.97771 0.430096 2.99249C0.360581 3.00726 0.288439 3.00014 0.222791 2.97204C0.157143 2.94393 0.100938 2.89609 0.061283 2.83457C0.0216278 2.77305 0.00030315 2.70061 5.60724e-06 2.62641Z" fill="#6C7072"/>
</svg>
